<?xml version="1.0" standalone="no"?>
<!DOCTYPE svg PUBLIC "-//W3C//DTD SVG 1.1//EN" "http://www.w3.org/Graphics/SVG/1.1/DTD/svg11.dtd" >
<svg xmlns="http://www.w3.org/2000/svg" xmlns:xlink="http://www.w3.org/1999/xlink" version="1.1">
<metadata>
Created by FontForge 20170731 at Tue May 17 18:57:27 2022
 By Aleksey,,,
Copyright (c) 2019 by Vasava Studio. All rights reserved.	
</metadata>
<defs>
<font id="CIBFontSans-Light" horiz-adv-x="1126" >
  <font-face 
    font-family="CIBFont Sans Light"
    font-weight="200"
    font-stretch="normal"
    units-per-em="2048"
    panose-1="2 11 6 3 2 2 2 2 1 4"
    ascent="1516"
    descent="-532"
    x-height="1018"
    cap-height="1335"
    bbox="-578 -506 2122 1980"
    underline-thickness="102"
    underline-position="-614"
    unicode-range="U+0020-FB02"
  />
<missing-glyph horiz-adv-x="1169" 
d="M102 0v1331q483 30 965 0v-1331q-482 -30 -965 0zM199 1274l385 -559l387 559h-772zM164 104l387 562l-387 559v-1121zM618 666l388 -562v1121zM201 57h768l-383 557z" />
    <glyph glyph-name="fi" unicode="fi" horiz-adv-x="1163" 
d="M543 1346q-102 0 -157.5 -77.5t-55.5 -187.5v-63h297q0 -19 -10.5 -50t-26.5 -50h-260v-918h-119v918h-127q0 33 33 67.5t94 42.5v53q0 173 90 271t266 98q91 0 131 -12q0 -66 -28 -101q-61 9 -127 9zM928 1229q-40 0 -69.5 28.5t-29.5 65.5q0 39 29.5 68.5t69.5 29.5
q41 0 71.5 -29t30.5 -69q0 -37 -30.5 -65.5t-71.5 -28.5zM870 0v1014q25 14 59 14t60 -14v-1014h-119z" />
    <glyph glyph-name="fl" unicode="fl" horiz-adv-x="1163" 
d="M543 1346q-102 0 -157.5 -77.5t-55.5 -187.5v-63h297q0 -19 -10.5 -50t-26.5 -50h-260v-918h-119v918h-127q0 33 33 67.5t94 42.5v53q0 173 90 271t266 98q91 0 131 -12q0 -66 -28 -101q-61 9 -127 9zM870 0v1370q19 18 56.5 30.5t62.5 12.5v-1413h-119z" />
    <glyph glyph-name=".notdef" horiz-adv-x="1169" 
d="M102 0v1331q483 30 965 0v-1331q-482 -30 -965 0zM199 1274l385 -559l387 559h-772zM164 104l387 562l-387 559v-1121zM618 666l388 -562v1121zM201 57h768l-383 557z" />
    <glyph glyph-name=".null" horiz-adv-x="0" 
 />
    <glyph glyph-name="nonmarkingreturn" horiz-adv-x="682" 
 />
    <glyph glyph-name="space" unicode=" " horiz-adv-x="552" 
 />
    <glyph glyph-name="exclam" unicode="!" horiz-adv-x="524" 
d="M305 385h-88q-24 426 -20 1069q65 19 127 0q7 -604 -19 -1069zM262 -10q-50 0 -83.5 33.5t-33.5 82.5q0 48 34 81.5t83 33.5t83 -33.5t34 -81.5q0 -49 -33.5 -82.5t-83.5 -33.5z" />
    <glyph glyph-name="quotedbl" unicode="&#x22;" horiz-adv-x="571" 
d="M115 963l-21 448q59 18 119 0q2 -90 -5 -227t-18 -221h-75zM379 963l-21 448q60 18 119 0q2 -92 -4.5 -228.5t-17.5 -219.5h-76z" />
    <glyph glyph-name="numbersign" unicode="#" 
d="M1016 854h-94l-66 -367h191q0 -62 -17 -84t-74 -22h-118l-68 -381h-117l68 381h-395l-68 -381h-117l68 381h-203q0 62 20.5 84t84.5 22h116l66 367h-213q0 62 20 84.5t84 22.5h127l66 368q61 24 117 0l-66 -368h395l66 368q61 24 117 0l-66 -368h180q0 -62 -20 -84.5
t-84 -22.5zM739 487l66 367h-395l-66 -367h395z" />
    <glyph glyph-name="dollar" unicode="$" 
d="M965 352q0 -142 -89 -236t-237 -126q0 -38 -1 -109t-1 -104q-53 -21 -107 0q0 31 -1 97t-1 101h-28q-175 0 -340 54q-22 62 14 121q202 -66 324 -66h32q0 242 11 561q-5 1 -12 4t-9 4q-178 70 -258 152.5t-80 204.5q0 139 91.5 230.5t254.5 113.5q0 38 1 107.5t1 101.5
q54 18 107 0q0 -31 1 -99t1 -104q121 -3 270 -41q12 -22 7.5 -55.5t-21.5 -63.5q-139 45 -256 51q0 -275 -12 -512q189 -79 263.5 -165.5t74.5 -221.5zM313 1032q0 -89 52.5 -147.5t173.5 -110.5q-9 337 -9 473q-108 -15 -162.5 -70t-54.5 -145zM639 100q93 27 144 88.5
t51 155.5q0 84 -45 143.5t-160 116.5q10 -263 10 -504z" />
    <glyph glyph-name="percent" unicode="%" horiz-adv-x="1468" 
d="M227 6l871 1270q48 74 78 86t96 -10l-871 -1272q-51 -73 -79.5 -84.5t-94.5 10.5zM330 1356q-127 0 -205 -88t-78 -256q0 -166 78.5 -255t204.5 -89q129 0 206.5 88.5t77.5 255.5q0 169 -78 256.5t-206 87.5zM330 752q-89 0 -136 68.5t-47 191.5q0 124 46.5 191t136.5 67
q182 0 182 -258q0 -125 -45.5 -192.5t-136.5 -67.5zM1137 672q-127 0 -205 -87.5t-78 -254.5t78 -256.5t205 -89.5q129 0 206.5 89t77.5 257q0 167 -78 254.5t-206 87.5zM1137 68q-90 0 -136.5 68.5t-46.5 193.5q0 124 46.5 191t136.5 67q91 0 136.5 -66.5t45.5 -191.5
t-45.5 -193.5t-136.5 -68.5z" />
    <glyph glyph-name="ampersand" unicode="&#x26;" horiz-adv-x="1478" 
d="M1391 0h-166l-285 256q-82 -149 -192 -212.5t-265 -63.5q-167 0 -277 108t-110 281q0 169 87 272t220 131q-62 78 -88 146t-26 143q0 149 96 232t252 83q165 0 293 -86q20 -65 -19 -121q-73 57 -126 78t-113 21q-119 0 -189.5 -50.5t-70.5 -158.5q0 -45 18 -92t48 -92.5
t92 -111t126 -126.5t174 -162l41 -37l154 350q22 49 48.5 64.5t90.5 15.5h185q-7 -104 -93 -104h-131l-172 -402zM502 90q117 0 206.5 54.5t153.5 183.5l-76 67q-229 206 -319 303q-113 -21 -181.5 -101.5t-68.5 -215.5q0 -54 17 -104.5t50 -93t89.5 -68t128.5 -25.5z" />
    <glyph glyph-name="quotesingle" unicode="'" horiz-adv-x="307" 
d="M115 963l-21 448q59 18 119 0q2 -90 -5 -227t-18 -221h-75z" />
    <glyph glyph-name="parenleft" unicode="(" horiz-adv-x="696" 
d="M528 -209q-186 114 -304 349t-118 526t119 527.5t305 350.5q35 -3 62.5 -19t38.5 -36q-400 -303 -400 -823q0 -524 400 -822q-11 -20 -39.5 -35t-63.5 -18z" />
    <glyph glyph-name="parenright" unicode=")" horiz-adv-x="696" 
d="M168 1544q186 -116 304 -350.5t118 -523.5q0 -291 -118.5 -529t-303.5 -350q-35 3 -62 18t-38 35q397 301 397 826q0 268 -104 473.5t-293 345.5q11 20 38 36t62 19z" />
    <glyph glyph-name="asterisk" unicode="*" horiz-adv-x="724" 
d="M590 1288q36 -45 33 -98q-111 -40 -197 -55l135 -154q-34 -46 -84 -61q-56 71 -115 172l-102 -177q-56 15 -84 60q58 90 127 162l-199 43q-3 58 31 98q100 -25 193 -72l-21 205q54 19 105 0q3 -87 -9 -205z" />
    <glyph glyph-name="plus" unicode="+" 
d="M616 682h420q0 -63 -17 -85t-73 -22h-330v-434q-62 0 -84 17.5t-22 72.5v344h-420q0 63 17 85t73 22h330v438q63 0 84.5 -17t21.5 -73v-348z" />
    <glyph glyph-name="comma" unicode="," horiz-adv-x="524" 
d="M262 215q47 0 82 -37.5t35 -91.5q0 -90 -67.5 -189.5t-145.5 -150.5q-15 1 -33 14t-29 29q44 34 89 89.5t67 107.5q-47 0 -80 33.5t-33 80.5q0 48 33 81.5t82 33.5z" />
    <glyph glyph-name="hyphen" unicode="-" horiz-adv-x="614" 
d="M53 575q0 63 17 85t73 22h418q0 -63 -17 -85t-73 -22h-418z" />
    <glyph glyph-name="period" unicode="." horiz-adv-x="524" 
d="M262 -10q-50 0 -83.5 33.5t-33.5 82.5q0 48 34 81.5t83 33.5t83 -33.5t34 -81.5q0 -49 -33.5 -82.5t-83.5 -33.5z" />
    <glyph glyph-name="slash" unicode="/" horiz-adv-x="481" 
d="M-20 -82l374 1395q21 85 47 105t101 20l-375 -1395q-21 -84 -47 -104.5t-100 -20.5z" />
    <glyph glyph-name="zero" unicode="0" 
d="M563 1356q-103 0 -187.5 -42t-148 -124.5t-98.5 -214t-35 -301.5q0 -337 129 -513.5t340 -176.5q212 0 340.5 176.5t128.5 513.5q0 335 -128 508.5t-341 173.5zM563 94q-169 0 -255.5 151t-86.5 429q0 277 86 424t256 147t256 -147t86 -424q0 -278 -86.5 -429
t-255.5 -151z" />
    <glyph glyph-name="one" unicode="1" 
d="M963 106q21 -53 0 -106h-822q-21 53 0 106h344v1090q-100 -52 -209.5 -103.5t-130.5 -54.5q-20 11 -30.5 36.5t-10.5 51.5q194 122 439 230q17 -4 38.5 -21.5t26.5 -29.5v-1199h355z" />
    <glyph glyph-name="two" unicode="2" 
d="M289 109h698q0 -77 -24 -109h-779q-14 14 -29.5 52.5t-15.5 56.5l66 53q110 89 195.5 164t172 163t142.5 163.5t91.5 155t35.5 148.5q0 141 -87.5 214t-234.5 73q-164 0 -370 -147q-40 47 -13 118q187 142 414 142q85 0 159.5 -26t132 -75t91 -127t33.5 -176
q0 -178 -180 -393t-498 -450z" />
    <glyph glyph-name="three" unicode="3" 
d="M864 358q0 -127 -101.5 -197.5t-258.5 -70.5q-83 0 -177 33.5t-155 81.5q-25 -31 -25 -74q0 -29 13 -61q144 -90 372 -90q214 0 335.5 108.5t121.5 269.5q0 123 -69.5 210t-182.5 122q93 31 152 111.5t59 218.5q0 158 -106.5 247t-276.5 89q-221 0 -387 -131
q-12 -24 -12 -58q0 -35 16 -61q184 137 363 137q126 0 204.5 -63.5t79.5 -169.5q0 -144 -91 -207t-294 -60h-77q-35 -25 -35 -106h141q184 0 287.5 -67t103.5 -212z" />
    <glyph glyph-name="four" unicode="4" 
d="M1047 446q18 -53 0 -106h-170v-340h-123v340h-602q-24 9 -45.5 37.5t-26.5 56.5q135 205 370 508t343 414q22 0 47.5 -12t36.5 -25v-873h170zM760 1153q-99 -110 -275.5 -338t-267.5 -369h543v707z" />
    <glyph glyph-name="five" unicode="5" 
d="M530 801q203 -40 312.5 -142t109.5 -249q0 -210 -128.5 -320t-372.5 -110q-73 0 -158.5 16t-147.5 49q-10 30 -10 59q0 32 21 56q52 -26 135.5 -49t171.5 -23q95 0 167 24.5t114 67t62.5 93.5t20.5 108q0 65 -20 115.5t-67.5 95t-132.5 76.5t-208 51l-125 20
q-35 14 -58 39.5t-23 55.5l126 501h625q-3 -57 -45 -106h-479l-101 -385z" />
    <glyph glyph-name="six" unicode="6" 
d="M598 858q199 0 311.5 -121t112.5 -311q0 -120 -52.5 -220t-157.5 -163t-245 -63q-80 0 -147 20t-126.5 67.5t-100.5 121t-65 186t-24 256.5q0 365 132 545t370 180q108 0 181 -19.5t153 -66.5q10 -20 10 -56q0 -34 -10 -57q-80 47 -148.5 67.5t-166.5 20.5
q-86 0 -151.5 -23.5t-118 -77t-84 -147.5t-42.5 -229q76 47 161 68.5t208 21.5zM561 92q157 0 245.5 90t88.5 244q0 68 -20 125.5t-62 104t-113 72.5t-165 26q-65 0 -154 -26t-156 -77v-20q0 -284 86 -411.5t250 -127.5z" />
    <glyph glyph-name="seven" unicode="7" 
d="M956 1335q20 -20 36 -54t16 -62l-598 -1219q-82 -21 -123 0q0 24 271.5 571.5t332.5 642.5l10 15h-749q-18 52 0 106h804z" />
    <glyph glyph-name="eight" unicode="8" 
d="M721 711q291 -109 291 -346q0 -94 -36.5 -169t-99.5 -121.5t-143 -70.5t-170 -24q-92 0 -171.5 23t-142 67t-98.5 115.5t-36 160.5q0 126 76.5 224.5t181.5 140.5q-199 99 -199 309q0 146 112 241t277 95q106 0 193 -35t141 -106.5t55 -167.5q0 -113 -68 -203.5
t-163 -132.5zM295 1024q0 -50 11 -86.5t41 -73t91 -65t154 -49.5q100 24 172 103.5t72 170.5q0 108 -75.5 163.5t-197.5 55.5q-124 0 -196 -61t-72 -158zM563 90q147 0 233.5 69t86.5 199q0 228 -353 299q-15 5 -20 5q-106 -24 -187 -104.5t-81 -192.5q0 -138 90.5 -206.5
t230.5 -68.5z" />
    <glyph glyph-name="nine" unicode="9" 
d="M559 1356q80 0 147 -20t126.5 -67.5t100.5 -121t65 -186t24 -256.5q0 -365 -132 -545t-370 -180q-108 0 -181 19.5t-153 66.5q-10 20 -10 53q0 36 10 59q78 -48 147.5 -68t168.5 -20q86 0 151.5 23.5t117.5 77t83.5 147.5t42.5 229q-76 -47 -161 -68.5t-208 -21.5
q-199 0 -311.5 120t-112.5 310q0 121 52.5 222t157.5 164t245 63zM592 582q66 0 154 25.5t155 76.5v21q0 284 -86 411t-250 127q-157 0 -245.5 -90.5t-88.5 -245.5q0 -142 89.5 -233.5t271.5 -91.5z" />
    <glyph glyph-name="colon" unicode=":" horiz-adv-x="509" 
d="M254 788q-49 0 -82 33.5t-33 81.5t33 81.5t82 33.5t82 -33.5t33 -81.5t-33 -81.5t-82 -33.5zM254 -10q-49 0 -82 33t-33 81t33 80.5t82 32.5t82 -32.5t33 -80.5t-33 -81t-82 -33z" />
    <glyph glyph-name="semicolon" unicode=";" horiz-adv-x="571" 
d="M293 788q-49 0 -82 33.5t-33 81.5t33 81.5t82 33.5t82 -33.5t33 -81.5t-33 -81.5t-82 -33.5zM301 215q48 0 83.5 -37t35.5 -92q0 -90 -67.5 -189.5t-145.5 -150.5q-34 3 -62 43q43 35 87.5 90.5t66.5 106.5q-46 0 -79.5 33.5t-33.5 80.5t34 81t81 34z" />
    <glyph glyph-name="less" unicode="&#x3c;" 
d="M905 246q48 -27 52.5 -56t-27.5 -81l-776 440q-31 19 -41.5 35.5t-10.5 44.5t11 45.5t41 34.5l776 440q32 -52 27.5 -81t-52.5 -56l-674 -383z" />
    <glyph glyph-name="equal" unicode="=" 
d="M123 780q0 63 17 85t73 22h791q0 -63 -17 -85t-74 -22h-790zM123 371q0 63 17 84.5t73 21.5h791q0 -62 -17 -84t-74 -22h-790z" />
    <glyph glyph-name="greater" unicode="&#x3e;" 
d="M973 709q30 -17 41.5 -34.5t11.5 -45.5t-11 -44.5t-42 -35.5l-776 -440q-32 52 -28 81t52 56l676 383l-676 383q-48 27 -52 56t28 81z" />
    <glyph glyph-name="question" unicode="?" horiz-adv-x="1019" 
d="M545 1481q169 0 272 -91t103 -247q0 -59 -18.5 -115t-60 -114.5t-119 -113t-185.5 -98.5l38 -278q-53 -24 -114 -12l-37 264q-8 59 3.5 84t61.5 43q155 53 230.5 144.5t75.5 197.5q0 111 -75.5 168t-211.5 57q-145 0 -334 -106q-29 46 -6 118q163 99 377 99zM551 221
q50 0 83.5 -33.5t33.5 -81.5q0 -50 -33 -83t-84 -33q-50 0 -83.5 33.5t-33.5 82.5q0 48 34 81.5t83 33.5z" />
    <glyph glyph-name="at" unicode="@" horiz-adv-x="1576" 
d="M795 1303q139 0 264.5 -52.5t216 -141.5t144 -213t53.5 -261q0 -123 -30 -223t-93 -163t-150 -63q-72 0 -127 40.5t-74 127.5q-51 -77 -126 -123.5t-168 -46.5q-137 0 -219.5 114t-82.5 288q0 200 113.5 320t276.5 120q102 0 183.5 -27t119.5 -63v-492q0 -87 33 -126
t81 -39q55 0 91.5 50.5t51.5 128t15 177.5q0 117 -45 222t-121.5 180.5t-182.5 120t-224 44.5q-161 0 -295.5 -80t-212.5 -219.5t-78 -306.5t78 -306.5t212.5 -219.5t295.5 -80q142 0 290 57q15 -17 25 -45t10 -53q-142 -60 -325 -60q-140 0 -267 55t-220 149t-147.5 225.5
t-54.5 277.5q0 145 54.5 276.5t147.5 225.5t220 149.5t267 55.5zM725 276q152 0 264 173v438q-93 49 -196 49q-137 0 -210 -94.5t-73 -249.5q0 -158 61.5 -237t153.5 -79z" />
    <glyph glyph-name="A" unicode="A" horiz-adv-x="1239" 
d="M1063 0l-133 356h-625l-129 -356h-133l502 1341q65 15 135 0l516 -1341h-133zM344 461h547l-279 741z" />
    <glyph glyph-name="B" unicode="B" horiz-adv-x="1142" 
d="M739 723q162 -29 236 -113t74 -231q0 -166 -139 -272.5t-357 -106.5h-360v1319q179 37 339 37q201 0 322 -92t121 -240q0 -238 -236 -301zM848 1001q0 106 -82.5 176t-247.5 70q-124 0 -203 -18v-467h224q155 0 232 63t77 176zM532 106q187 0 286.5 73t99.5 204
q0 142 -92 207t-287 65h-224v-549h217z" />
    <glyph glyph-name="C" unicode="C" horiz-adv-x="1308" 
d="M1221 174q-175 -194 -496 -194q-136 0 -249.5 46t-195.5 133t-128 218.5t-46 294.5q0 318 170 501t449 183q161 0 287.5 -54t210.5 -153q-4 -32 -30 -55t-58 -31q-57 85 -163.5 133.5t-246.5 48.5q-230 0 -362 -152t-132 -421q0 -276 133 -430t361 -154q256 0 428 172z
" />
    <glyph glyph-name="D" unicode="D" horiz-adv-x="1357" 
d="M539 1356q340 0 527 -180.5t187 -489.5q0 -320 -198.5 -502t-538.5 -184h-323v1315q201 41 346 41zM516 106q295 0 453.5 146.5t158.5 433.5q0 269 -149.5 413t-425.5 144q-153 0 -238 -24v-1113h201z" />
    <glyph glyph-name="E" unicode="E" horiz-adv-x="1077" 
d="M961 1229h-646v-506h543q0 -59 -22 -107h-521v-510h646v-106h-768v1335h768v-106z" />
    <glyph glyph-name="F" unicode="F" horiz-adv-x="1030" 
d="M961 1229h-646v-506h543q0 -59 -22 -107h-521v-616h-122v1335h768v-106z" />
    <glyph glyph-name="G" unicode="G" horiz-adv-x="1368" 
d="M1139 606q52 45 123 21v-453q-86 -94 -225 -144t-312 -50q-136 0 -249.5 46t-195.5 133t-128 218.5t-46 294.5q0 318 170 500t449 182q163 0 291 -54t211 -153q-22 -70 -88 -86q-126 184 -414 184q-229 0 -361.5 -152.5t-132.5 -420.5q0 -276 133 -430t361 -154
q253 0 414 117v401z" />
    <glyph glyph-name="H" unicode="H" horiz-adv-x="1386" 
d="M1071 1335q61 18 123 0v-1335h-123v625h-756v-625h-122v1335q61 18 122 0v-604h756v604z" />
    <glyph glyph-name="I" unicode="I" horiz-adv-x="507" 
d="M315 0h-122v1335q61 18 122 0v-1335z" />
    <glyph glyph-name="J" unicode="J" horiz-adv-x="641" 
d="M326 1341q62 21 123 0v-1132q0 -167 -71.5 -254.5t-195.5 -87.5q-93 0 -174 31q3 63 37 106q79 -24 143 -24q138 0 138 200v1161z" />
    <glyph glyph-name="K" unicode="K" horiz-adv-x="1161" 
d="M1116 0h-174l-627 645v-645h-122v1335q61 15 122 0v-626l586 626q79 16 162 0l-619 -651z" />
    <glyph glyph-name="L" unicode="L" horiz-adv-x="1009" 
d="M315 106h625v-106h-747v1335q61 18 122 0v-1229z" />
    <glyph glyph-name="M" unicode="M" horiz-adv-x="1636" 
d="M1266 1335q88 18 178 0v-1335h-123v715l6 471l-450 -1063q-37 -9 -58.5 -9t-58.5 9l-451 1065l6 -473v-715h-122v1335q90 18 178 0l448 -1044z" />
    <glyph glyph-name="N" unicode="N" horiz-adv-x="1449" 
d="M1135 1335h122v-1335q-61 -18 -122 0l-824 1126l4 -178v-948h-122v1335q61 15 122 0l824 -1134l-4 145v989z" />
    <glyph glyph-name="O" unicode="O" horiz-adv-x="1464" 
d="M733 -20q-287 0 -457 187t-170 501t170 501t457 187t457 -187t170 -501t-170 -501t-457 -187zM733 88q237 0 368.5 152t131.5 428t-131.5 426.5t-368.5 150.5t-368.5 -150.5t-131.5 -426.5t131.5 -428t368.5 -152z" />
    <glyph glyph-name="P" unicode="P" horiz-adv-x="1095" 
d="M512 1356q106 0 193 -25.5t143.5 -68t95.5 -98.5t55.5 -114t16.5 -118q0 -205 -149.5 -344t-387.5 -139h-164v-449h-122v1319q167 37 319 37zM459 555q113 0 197.5 29t135 81.5t75 119t24.5 147.5q0 64 -20.5 118t-65.5 99.5t-126 71.5t-192 26q-100 0 -172 -16v-676h144
z" />
    <glyph glyph-name="Q" unicode="Q" horiz-adv-x="1464" 
d="M1360 668q0 -171 -54 -309t-153 -230l180 -223q-9 -29 -33.5 -45.5t-54.5 -16.5l-178 222q-144 -86 -334 -86q-287 0 -457 187t-170 501t170 501t457 187t457 -187t170 -501zM733 88q150 0 264 66l-233 290q9 29 32 46.5t54 17.5l231 -289q152 152 152 449
q0 276 -131.5 426.5t-368.5 150.5t-368.5 -150.5t-131.5 -426.5t131.5 -428t368.5 -152z" />
    <glyph glyph-name="R" unicode="R" horiz-adv-x="1159" 
d="M1081 0h-143l-328 520q-50 -4 -78 -4h-217v-516h-122v1319q167 37 319 37q128 0 228 -35t158.5 -93t88 -127.5t29.5 -144.5q0 -140 -77.5 -248.5t-209.5 -158.5zM487 623q205 0 304.5 90t99.5 243q0 291 -399 291q-102 0 -177 -16v-608h172z" />
    <glyph glyph-name="S" unicode="S" horiz-adv-x="1058" 
d="M868 1200q-161 51 -286 51q-147 0 -222 -58.5t-75 -164.5q0 -96 62.5 -155.5t219.5 -120.5q207 -79 289 -168.5t82 -231.5q0 -119 -62 -205.5t-166 -129t-237 -42.5q-178 0 -340 54q-18 59 14 116q197 -61 324 -61q157 0 246.5 69t89.5 195q0 99 -67.5 165t-243.5 138
q-182 72 -261 155t-79 204q0 167 115 258.5t329 91.5q129 0 281 -41q12 -22 8 -56t-21 -63z" />
    <glyph glyph-name="T" unicode="T" horiz-adv-x="1026" 
d="M981 1335q0 -60 -25 -106h-381v-1229h-122v1229h-408q0 68 25 106h911z" />
    <glyph glyph-name="U" unicode="U" horiz-adv-x="1306" 
d="M653 -20q-233 0 -366 142t-133 419v794q61 18 122 0v-815q0 -195 98 -310.5t277 -115.5q170 0 274.5 113.5t104.5 312.5v815q62 18 121 0v-794q0 -267 -130 -414t-368 -147z" />
    <glyph glyph-name="V" unicode="V" horiz-adv-x="1210" 
d="M1034 1335q68 18 133 0l-501 -1339q-63 -16 -136 0l-487 1339q65 18 133 0l422 -1183z" />
    <glyph glyph-name="W" unicode="W" horiz-adv-x="1755" 
d="M1587 1335q65 18 131 0l-338 -1337q-73 -18 -149 0l-352 1153l-353 -1153q-73 -19 -149 0l-340 1337q66 18 133 0l291 -1173l342 1171q79 19 147 2l357 -1175z" />
    <glyph glyph-name="X" unicode="X" horiz-adv-x="1234" 
d="M1196 0h-145l-441 600l-428 -600h-143l502 694l-475 647q71 22 143 0l407 -555l402 555q75 21 145 0l-475 -651z" />
    <glyph glyph-name="Y" unicode="Y" horiz-adv-x="1097" 
d="M1059 1335l-447 -794v-541h-123v539l-450 796q68 19 139 0l373 -676l371 676q68 19 137 0z" />
    <glyph glyph-name="Z" unicode="Z" horiz-adv-x="1249" 
d="M1112 106q20 -57 16 -106h-942q-20 9 -39.5 38.5t-19.5 61.5l842 1129h-779q-28 49 -24 106h883q23 -10 45 -44t22 -68l-831 -1117h827z" />
    <glyph glyph-name="bracketleft" unicode="[" horiz-adv-x="565" 
d="M315 -102h172q27 -41 27 -107h-321v1753h321q0 -65 -27 -106h-172v-1540z" />
    <glyph glyph-name="backslash" unicode="\" horiz-adv-x="481" 
d="M502 -82q-75 0 -101 20.5t-47 104.5l-374 1395q75 0 100.5 -20t46.5 -105z" />
    <glyph glyph-name="bracketright" unicode="]" horiz-adv-x="565" 
d="M51 1544h322v-1753h-322q0 69 27 107h172v1540h-172q-27 38 -27 106z" />
    <glyph glyph-name="underscore" unicode="_" horiz-adv-x="774" 
d="M-72 -127q0 63 17 85t73 22h828q0 -63 -17 -85t-73 -22h-828z" />
    <glyph glyph-name="grave" unicode="`" horiz-adv-x="329" 
d="M254 1153l-184 231q-41 56 -43 72q0 31 47 57l18 11l221 -340z" />
    <glyph glyph-name="a" unicode="a" horiz-adv-x="1003" 
d="M494 1036q168 0 261 -81.5t93 -272.5v-682q-54 0 -84.5 28t-30.5 85v43q-57 -90 -155 -130t-195 -40q-46 0 -90.5 14t-86 43.5t-66.5 84t-25 126.5t25.5 129.5t72.5 94.5t104 63t130.5 39.5t140.5 19t145 6.5v41q0 72 -12.5 124t-33.5 82.5t-54 48.5t-66.5 24t-79.5 6
q-69 0 -161.5 -24.5t-104.5 -24.5q-21 0 -34 10.5t-23 36.5l-10 31q188 75 340 75zM420 88q57 0 111 18.5t100 54.5t74 96.5t28 137.5v119h-51q-233 0 -342 -66.5t-109 -166.5q0 -193 189 -193z" />
    <glyph glyph-name="b" unicode="b" horiz-adv-x="1130" 
d="M612 1030q111 0 193.5 -37t130.5 -103t71 -148t23 -181q0 -277 -117.5 -429t-320.5 -152q-162 0 -303 81q-28 -61 -113 -61v1372q18 17 54 29t65 12v-489q66 50 152 78t165 28zM545 84q81 0 144.5 26.5t104 71t67 107t37.5 129.5t11 143q0 361 -344 361q-149 0 -270 -72
v-707q126 -59 250 -59z" />
    <glyph glyph-name="c" unicode="c" horiz-adv-x="944" 
d="M844 145l24 -100q-147 -65 -323 -65q-205 0 -325 136t-120 384q0 252 136.5 395t371.5 143q140 0 260 -34q-3 -65 -41 -109q-37 13 -98 25t-104 12q-85 0 -153 -23t-113.5 -63t-76 -95.5t-44 -117.5t-13.5 -133q0 -190 89 -302t276 -112q116 0 254 59z" />
    <glyph glyph-name="d" unicode="d" horiz-adv-x="1130" 
d="M836 1372q21 16 58 28.5t60 12.5v-1413q-37 0 -71 20t-47 50v10q-67 -42 -155 -71t-179 -29q-133 0 -224.5 62.5t-134.5 169.5t-43 251q0 267 123 421t320 154q176 0 293 -80v414zM551 84q154 0 285 57v725q-50 28 -119 46t-131 18q-97 0 -169 -34.5t-114 -97.5t-62 -145
t-20 -184q0 -197 87 -291t243 -94z" />
    <glyph glyph-name="e" unicode="e" horiz-adv-x="1048" 
d="M938 483h-717v-6q0 -178 91.5 -285.5t254.5 -107.5q74 0 156.5 17t140.5 44q40 -28 49 -94q-168 -74 -356 -74q-215 0 -336 137.5t-121 362.5q0 267 122 414t331 147q183 0 289 -121.5t106 -330.5q0 -45 -10 -103zM539 938q-129 0 -211.5 -87.5t-100.5 -272.5h592
q2 4 2 20q0 168 -76 254t-206 86z" />
    <glyph glyph-name="f" unicode="f" horiz-adv-x="694" 
d="M543 1346q-102 0 -157.5 -77.5t-55.5 -187.5v-63h297q0 -19 -10.5 -50t-26.5 -50h-260v-918h-119v918h-127q0 33 33 67.5t94 42.5v53q0 173 90 271t266 98q91 0 131 -12q0 -66 -28 -101q-61 9 -127 9z" />
    <glyph glyph-name="g" unicode="g" horiz-adv-x="1130" 
d="M840 950q16 31 48.5 48.5t65.5 17.5v-1034q0 -37 -2 -66.5t-11 -72t-25 -75.5t-45.5 -68t-70.5 -57.5t-103 -37.5t-140 -15q-179 0 -317 60q0 62 32 102q158 -59 285 -59q153 0 216 70.5t63 216.5v133q-70 -51 -159 -86t-175 -35q-196 0 -299 132.5t-103 344.5
q0 265 126.5 417t330.5 152q88 0 161.5 -24t121.5 -64zM551 98q162 0 285 86v678q-120 68 -242 68q-99 0 -172.5 -34t-116.5 -96t-63.5 -141t-20.5 -176q0 -385 330 -385z" />
    <glyph glyph-name="h" unicode="h" horiz-adv-x="1122" 
d="M614 1028q184 0 268.5 -96t84.5 -295v-637h-119v635q0 151 -69 219t-218 68q-127 0 -266 -80v-842h-119v1370q19 18 56.5 30.5t62.5 12.5v-483q58 41 144 69.5t175 28.5z" />
    <glyph glyph-name="i" unicode="i" horiz-adv-x="471" 
d="M233 1229q-39 0 -68.5 28.5t-29.5 65.5q0 39 29.5 68.5t68.5 29.5q41 0 72 -29t31 -69q0 -37 -31 -65.5t-72 -28.5zM176 0v1014q25 14 59 14t60 -14v-1014h-119z" />
    <glyph glyph-name="j" unicode="j" horiz-adv-x="471" 
d="M236 1229q-40 0 -70.5 28.5t-30.5 65.5q0 38 30.5 68t70.5 30t70 -29t30 -69q0 -37 -30 -65.5t-70 -28.5zM59 -471q-22 4 -45 33t-28 57q84 64 137 165.5t53 221.5v1008q26 14 59.5 14t59.5 -14v-959q0 -188 -69 -328.5t-167 -197.5z" />
    <glyph glyph-name="k" unicode="k" horiz-adv-x="1013" 
d="M999 0h-155l-549 549v-549h-119v1370q19 18 56.5 30.5t62.5 12.5v-803l450 406q76 17 152 0l-479 -434z" />
    <glyph glyph-name="l" unicode="l" horiz-adv-x="468" 
d="M176 0v1370q19 18 56.5 30.5t62.5 12.5v-1413h-119z" />
    <glyph glyph-name="m" unicode="m" horiz-adv-x="1734" 
d="M1237 1028q171 0 256.5 -86.5t85.5 -267.5v-674h-119v647q0 148 -61 211.5t-211 63.5q-141 0 -270 -74q26 -71 26 -174v-674h-119v647q0 144 -60 209.5t-214 65.5q-131 0 -256 -74v-848h-119v1016q97 0 113 -84q58 40 141.5 68t169.5 28q203 0 285 -119q50 47 148 83
t204 36z" />
    <glyph glyph-name="n" unicode="n" horiz-adv-x="1116" 
d="M618 1028q343 0 343 -358v-670h-119v647q0 139 -70.5 207t-218.5 68q-130 0 -258 -76v-846h-119v1016q100 0 115 -86q58 41 146 69.5t181 28.5z" />
    <glyph glyph-name="o" unicode="o" horiz-adv-x="1159" 
d="M580 -20q-218 0 -349 144t-131 382q0 236 131.5 384t348.5 148t348 -147.5t131 -384.5q0 -239 -130.5 -382.5t-348.5 -143.5zM580 88q168 0 263 109t95 309q0 198 -95 311t-263 113q-167 0 -263 -113t-96 -311q0 -200 94.5 -309t264.5 -109z" />
    <glyph glyph-name="p" unicode="p" horiz-adv-x="1130" 
d="M612 1032q89 0 160.5 -25t119 -67.5t79 -102.5t45.5 -128t14 -146q0 -277 -117.5 -430t-320.5 -153q-159 0 -297 75v-415q-66 -50 -119 -50v1428q38 0 72.5 -23.5t46.5 -60.5v-8q66 50 151.5 78t165.5 28zM545 84q81 0 144.5 26.5t104 71.5t67 107.5t37.5 129.5t11 144
q0 361 -344 361q-143 0 -270 -76v-709q128 -55 250 -55z" />
    <glyph glyph-name="q" unicode="q" horiz-adv-x="1130" 
d="M842 956q14 31 45.5 48.5t66.5 17.5v-1397q-20 -14 -56 -24.5t-62 -10.5v490q-67 -42 -155 -71t-179 -29q-133 0 -224.5 62.5t-134.5 169.5t-43 251q0 267 123 421t320 154q91 0 169 -23.5t130 -58.5zM551 84q154 0 285 57v725q-50 28 -119 46t-131 18q-97 0 -169 -34.5
t-114 -97.5t-62 -145t-20 -184q0 -197 87 -291t243 -94z" />
    <glyph glyph-name="r" unicode="r" horiz-adv-x="698" 
d="M627 1028q12 -21 12 -55q0 -39 -12 -66q-37 6 -74 6q-63 0 -141.5 -41.5t-116.5 -105.5v-766h-119v1016q71 0 95 -36.5t24 -94.5q55 73 142 108t171 35h19z" />
    <glyph glyph-name="s" unicode="s" horiz-adv-x="876" 
d="M125 129q162 -49 272 -49q103 0 174.5 50t71.5 128q0 42 -14.5 73t-49.5 56t-74 43t-108 43q-134 51 -201 119t-67 164q0 141 100.5 211.5t270.5 70.5q69 0 140 -12t103 -27q0 -48 -26 -102q-106 39 -203 39q-264 0 -264 -166q0 -64 46.5 -113t168.5 -92
q170 -62 235.5 -127.5t65.5 -165.5q0 -145 -108 -220t-275 -75q-130 0 -258 35q-10 23 -10 60q0 40 10 57z" />
    <glyph glyph-name="t" unicode="t" horiz-adv-x="759" 
d="M633 104q33 -26 33 -98q-56 -29 -195 -29q-136 0 -201 62t-65 209v670h-121q0 72 76.5 154.5t163.5 94.5v-149h329q0 -63 -37 -100h-292v-639q0 -107 39 -150t133 -43q59 0 137 18z" />
    <glyph glyph-name="u" unicode="u" horiz-adv-x="1116" 
d="M821 1010q52 18 119 18v-1028q-64 0 -88.5 29.5t-28.5 79.5q-65 -50 -159.5 -86.5t-192.5 -36.5q-315 0 -315 374v650q50 18 118 18v-641q0 -148 58.5 -220.5t187.5 -72.5q78 0 159 31.5t142 73.5v811z" />
    <glyph glyph-name="v" unicode="v" horiz-adv-x="901" 
d="M758 1016q64 21 127 0l-369 -1014q-28 -12 -65 -12q-42 0 -66 12l-369 1016q64 18 127 0l308 -877z" />
    <glyph glyph-name="w" unicode="w" horiz-adv-x="1400" 
d="M1255 1018q65 19 127 0l-280 -1016q-27 -12 -68 -12q-45 0 -69 12l-265 846l-264 -846q-27 -12 -69 -12q-39 0 -66 12l-283 1016q61 19 129 0l222 -866l272 866q59 18 121 0l270 -866z" />
    <glyph glyph-name="x" unicode="x" horiz-adv-x="952" 
d="M33 0q70 -25 141 0l301 422l301 -422q74 -25 144 0l-373 510l362 508q-69 23 -139 0l-295 -422l-289 422q-73 22 -143 0l365 -510z" />
    <glyph glyph-name="y" unicode="y" horiz-adv-x="956" 
d="M807 1018q65 17 127 0l-385 -936q-63 -151 -158 -281.5t-209 -210.5q-35 7 -62.5 37t-33.5 64q211 133 338 366l-401 961q64 13 129 0l329 -815z" />
    <glyph glyph-name="z" unicode="z" horiz-adv-x="1024" 
d="M905 109q8 -21 8 -54q0 -31 -8 -55h-721q-28 15 -48.5 48.5t-20.5 66.5l639 792h-607q-12 27 -12 56q0 28 12 55h674q26 -12 47.5 -46.5t22.5 -70.5l-637 -792h651z" />
    <glyph glyph-name="braceleft" unicode="{" horiz-adv-x="557" 
d="M469 -109q24 -14 31.5 -35.5t7.5 -56.5q-27 -8 -72 -8q-117 0 -185.5 69t-68.5 187q0 78 38 230t38 225q0 51 -44 81.5t-91 30.5h-84v21q0 52 16.5 69t67.5 17q47 0 91 30.5t44 82.5q0 73 -38 224.5t-38 229.5q0 117 68.5 186.5t185.5 69.5q32 0 72 -8q0 -36 -7.5 -58
t-31.5 -34q-71 0 -117.5 -37t-46.5 -115q0 -73 38 -214.5t38 -219.5q0 -72 -46.5 -124t-121.5 -66q75 -15 121.5 -68t46.5 -125q0 -78 -38 -218.5t-38 -213.5q0 -79 46 -115.5t118 -36.5z" />
    <glyph glyph-name="bar" unicode="|" horiz-adv-x="507" 
d="M193 -193v1733q61 21 122 0v-1733q-61 -21 -122 0z" />
    <glyph glyph-name="braceright" unicode="}" horiz-adv-x="557" 
d="M434 721h84v-21q0 -54 -16 -70t-68 -16q-47 0 -91 -30.5t-44 -81.5q0 -73 38 -225t38 -230q0 -118 -68.5 -187t-185.5 -69q-42 0 -72 6q0 36 7.5 58t31.5 36q72 0 118 36.5t46 115.5q0 73 -38 213.5t-38 218.5q0 72 46 125t122 68q-76 13 -122 65.5t-46 124.5
q0 78 38 219.5t38 214.5q0 78 -46.5 115t-117.5 37q-39 20 -39 92q27 8 72 8q117 0 185.5 -69.5t68.5 -186.5q0 -78 -38 -229.5t-38 -224.5q0 -52 44 -82.5t91 -30.5z" />
    <glyph glyph-name="exclamdown" unicode="&#xa1;" horiz-adv-x="524" 
d="M262 1044q50 0 83.5 -33.5t33.5 -82.5q0 -48 -34 -81.5t-83 -33.5t-83 33.5t-34 81.5q0 49 33.5 82.5t83.5 33.5zM305 649q26 -465 19 -1069q-62 -19 -127 0q-4 643 20 1069h88z" />
    <glyph glyph-name="cent" unicode="&#xa2;" 
d="M659 262q122 0 256 57l25 -98q-67 -29 -155 -47t-171 -18h-6q-25 -200 -35 -256q-56 -11 -116 18q1 9 11 94t19 160q-149 39 -233 168.5t-84 335.5q0 233 118 373t324 159q30 235 33 250q65 10 117 -20q-2 -12 -5.5 -43.5t-9.5 -84t-12 -100.5q104 -3 205 -32
q-7 -71 -43 -107q-73 27 -174 33q-48 -413 -100 -840q12 -2 36 -2zM297 676q0 -143 50 -243.5t155 -143.5q9 79 96 809q-79 -15 -138 -54t-94 -96.5t-52 -125t-17 -146.5z" />
    <glyph glyph-name="sterling" unicode="&#xa3;" 
d="M305 109h717q0 -75 -29 -109h-815q-17 12 -34 46t-17 52l57 45q79 61 126.5 167t47.5 227q0 13 -4 41h-229q11 51 31 76.5t69 25.5h99q-11 23 -53 95.5t-61.5 126t-19.5 112.5q0 164 102 260t259 96q119 0 207 -23.5t174 -82.5q25 -78 -12 -125q-99 71 -175 94.5
t-163 23.5q-122 0 -194.5 -62.5t-72.5 -184.5q0 -55 17.5 -107t55 -124.5t48.5 -98.5h402q-7 -102 -78 -102h-293q6 -27 6 -56q0 -122 -47 -228t-121 -185z" />
    <glyph glyph-name="currency" unicode="&#xa4;" 
d="M901 352q110 -61 203 -172q-45 -65 -100 -88l-181 195q-112 -70 -260 -70q-149 0 -258 70l-180 -195q-57 24 -98 88q90 111 200 172q-114 123 -114 328q0 200 114 326q-108 61 -200 172q41 64 98 88l182 -195q109 70 256 70q148 0 260 -70l181 195q55 -23 100 -88
q-91 -110 -201 -172q115 -124 115 -326t-117 -328zM236 680q0 -167 86 -259.5t241 -92.5q157 2 243.5 93.5t86.5 258.5q0 166 -86.5 257t-243.5 93q-155 -2 -241 -93.5t-86 -256.5z" />
    <glyph glyph-name="yen" unicode="&#xa5;" 
d="M842 539h-215v-185h293q-2 -46 -21 -74t-57 -28h-215v-252h-123v252h-295q11 102 88 102h207v185h-295q11 102 88 102h156l-361 694q70 19 137 0l334 -680l334 680q70 19 137 0l-356 -694h242q-2 -46 -21 -74t-57 -28z" />
    <glyph glyph-name="brokenbar" unicode="&#xa6;" horiz-adv-x="507" 
d="M193 764v776q61 21 122 0v-776h-122zM193 -193v777h122v-777q-61 -18 -122 0z" />
    <glyph glyph-name="section" unicode="&#xa7;" 
d="M758 352q85 -42 122.5 -96.5t37.5 -128.5q0 -161 -122 -251.5t-313 -90.5q-139 0 -270 45q-19 65 14 119q153 -55 265 -55q136 0 216 53.5t80 158.5q0 33 -10.5 58.5t-39 52t-83 51t-137.5 47.5q-167 48 -237 111.5t-70 185.5q0 94 52.5 161.5t146.5 98.5
q-96 48 -142.5 108.5t-46.5 141.5q0 152 106.5 237t301.5 85q121 0 254 -37q11 -25 7 -56.5t-20 -60.5q-140 47 -258 47q-128 0 -194 -50.5t-66 -143.5q0 -81 53 -125t187 -92q187 -65 257.5 -137t70.5 -179q0 -95 -43.5 -160.5t-118.5 -97.5zM332 649q0 -96 55.5 -144
t202.5 -91q13 -3 35.5 -11t29.5 -10q72 11 111 61t39 136q0 68 -61 122.5t-224 114.5q-2 0 -4 2q-86 -15 -135 -62t-49 -118z" />
    <glyph glyph-name="dieresis" unicode="&#xa8;" horiz-adv-x="524" 
d="M111 1247q-41 0 -71 28t-30 68q0 41 30.5 70t70.5 29q42 0 72 -28.5t30 -70.5q0 -41 -30 -68.5t-72 -27.5zM412 1247q-41 0 -71 28t-30 68q0 41 30.5 70t70.5 29q42 0 72 -28.5t30 -70.5q0 -41 -30 -68.5t-72 -27.5z" />
    <glyph glyph-name="copyright" unicode="&#xa9;" horiz-adv-x="1544" 
d="M774 -20q-182 0 -335.5 90.5t-243 248.5t-89.5 347t89.5 347t243 248.5t335.5 90.5q181 0 334 -90.5t242.5 -248.5t89.5 -347t-89.5 -347t-242.5 -248.5t-334 -90.5zM774 80q153 0 282.5 77t205 212t75.5 297q0 121 -45 230t-120.5 186.5t-179.5 123t-218 45.5
q-154 0 -284 -77t-205.5 -211.5t-75.5 -296.5t75.5 -297t205.5 -212t284 -77zM780 264q-159 0 -252.5 105.5t-93.5 294.5q0 194 106.5 304.5t288.5 110.5q103 0 201 -26q-3 -29 -14 -56.5t-25 -40.5q-25 9 -72 18t-75 9q-78 0 -136.5 -25.5t-93 -70t-51 -100.5t-16.5 -123
q0 -138 65.5 -218.5t204.5 -80.5q92 0 193 43l20 -95q-118 -49 -250 -49z" />
    <glyph glyph-name="ordfeminine" unicode="&#xaa;" horiz-adv-x="655" 
d="M322 1380q225 0 225 -221v-401q-43 0 -67.5 22t-24.5 62v2q-35 -52 -92 -74t-113 -22q-62 0 -114 40t-52 123q0 209 371 213v15q0 96 -35 128.5t-103 32.5q-40 0 -93 -14t-62 -14q-28 0 -41 37l-8 24q111 47 209 47zM279 827q70 0 123 47t53 125v58h-31
q-126 0 -186 -37.5t-60 -89.5t28 -77.5t73 -25.5z" />
    <glyph glyph-name="guillemotleft" unicode="&#xab;" horiz-adv-x="948" 
d="M549 981l-363 -442l363 -443q-61 -18 -123 0l-281 348q-31 37 -40 55.5t-9 39.5t8.5 39t40.5 55l281 348q62 18 123 0zM907 981l-362 -442l362 -443q-61 -18 -123 0l-280 348q-31 37 -40 55.5t-9 39.5t8.5 39t40.5 55l280 348q62 18 123 0z" />
    <glyph glyph-name="registered" unicode="&#xae;" horiz-adv-x="1292" 
d="M627 1434q163 0 290.5 -65.5t201 -191t73.5 -292.5q0 -257 -159 -411.5t-406 -154.5q-112 0 -209 40t-167.5 112t-110.5 179t-40 235q0 126 40 230t110.5 173.5t167 107.5t209.5 38zM627 414q113 0 202.5 36.5t146.5 101t86.5 149.5t29.5 184q0 202 -120.5 328
t-344.5 126q-203 0 -313.5 -127t-110.5 -327q0 -207 110.5 -339t313.5 -132zM856 1024q0 -62 -33.5 -112.5t-91.5 -77.5l162 -263h-100l-146 242h-14h-105v-242h-86v631q111 21 166 21q121 0 184.5 -60t63.5 -139zM528 887h76q85 0 127.5 37t42.5 100q0 125 -170 125
q-49 0 -76 -8v-254z" />
    <glyph glyph-name="macron" unicode="&#xaf;" horiz-adv-x="481" 
d="M10 1380h461v-106h-461v106z" />
    <glyph glyph-name="degree" unicode="&#xb0;" horiz-adv-x="858" 
d="M422 1360q-139 0 -230.5 -91t-91.5 -239q0 -153 91.5 -246.5t230.5 -93.5q148 0 242 93t94 247q0 149 -94 239.5t-242 90.5zM422 793q-104 0 -160.5 67t-56.5 170q0 102 56 167t161 65q112 0 172.5 -65t60.5 -167q0 -103 -60.5 -170t-172.5 -67z" />
    <glyph glyph-name="plusminus" unicode="&#xb1;" 
d="M508 422v289h-420q0 63 17 84.5t73 21.5h330v379q62 0 84 -17.5t22 -72.5v-289h424q0 -63 -17 -84.5t-73 -21.5h-334v-379q-63 0 -84.5 17t-21.5 73zM88 86q0 63 17 85t73 22h860q0 -63 -17 -85t-73 -22h-860z" />
    <glyph glyph-name="acute" unicode="&#xb4;" horiz-adv-x="329" 
d="M74 1151l-58 33l220 340l18 -8q43 -21 43 -50q-3 -29 -59 -98z" />
    <glyph glyph-name="paragraph" unicode="&#xb6;" horiz-adv-x="1107" 
d="M563 1356q118 0 189 -10t163 -39v-1307h-90v1219q-28 14 -75 14q-37 0 -64 -6v-1227h-98v559h-105q-178 0 -290.5 113.5t-112.5 279.5q0 71 29 140.5t85 129.5t152 97t217 37z" />
    <glyph glyph-name="periodcentered" unicode="&#xb7;" horiz-adv-x="524" 
d="M262 469q-50 0 -83.5 33.5t-33.5 83.5q0 47 34 80.5t83 33.5t83 -33.5t34 -80.5q0 -50 -33.5 -83.5t-83.5 -33.5z" />
    <glyph glyph-name="cedilla" unicode="&#xb8;" horiz-adv-x="399" 
d="M213 -131q76 0 126 -43t50 -121q0 -41 -16.5 -74t-42.5 -53t-59 -33.5t-64 -18.5t-60 -5q-72 0 -137 14q0 57 13 80q77 -21 141 -21q68 0 105.5 32t37.5 77q0 41 -30 67.5t-97 26.5q-42 0 -82 -16q-14 5 -27 19t-12 30l88 170h86l-65 -137q18 6 45 6z" />
    <glyph glyph-name="ordmasculine" unicode="&#xba;" horiz-adv-x="737" 
d="M369 745q-132 0 -212.5 87.5t-80.5 230.5q0 142 81 230.5t212 88.5t212 -88.5t81 -230.5q0 -144 -80.5 -231t-212.5 -87zM369 831q93 0 144.5 60t51.5 172q0 108 -52 170.5t-144 62.5q-91 0 -143 -62t-52 -171q0 -112 51 -172t144 -60z" />
    <glyph glyph-name="guillemotright" unicode="&#xbb;" horiz-adv-x="948" 
d="M494 539q0 -20 -9 -39t-41 -56l-282 -348q-59 -18 -121 0l362 443l-362 442q62 21 121 0l282 -348q32 -38 41 -56t9 -38zM803 633q32 -37 40.5 -55t8.5 -39t-9 -39.5t-40 -55.5l-283 -348q-59 -18 -121 0l363 443l-363 442q62 21 121 0z" />
    <glyph glyph-name="onequarter" unicode="&#xbc;" horiz-adv-x="1871" 
d="M1417 1446q29 0 53 -19l-854 -1490q-12 -27 -47 -27t-59 16l852 1491q18 29 55 29zM657 561q15 -51 0 -96h-540q-14 49 0 96h229v641q-197 -81 -223 -84q-35 25 -35 80q167 92 315 152q12 -3 32.5 -17.5t23.5 -23.5v-748h198zM1802 305q14 -47 0 -94h-112v-211h-113v211
h-399q-20 9 -38 33t-24 49q97 137 256 326t240 264q20 0 44 -11t34 -22v-545h112zM1585 713q-67 -69 -176 -196t-170 -212h346v408z" />
    <glyph glyph-name="onehalf" unicode="&#xbd;" horiz-adv-x="1974" 
d="M1417 1446q29 0 53 -19l-854 -1490q-12 -27 -47 -27t-59 16l852 1491q18 29 55 29zM657 561q15 -51 0 -96h-540q-14 49 0 96h229v641q-197 -81 -223 -84q-35 25 -35 80q167 92 315 152q12 -3 32.5 -17.5t23.5 -23.5v-748h198zM1397 96h465q0 -66 -21 -96h-541
q-13 13 -25.5 47t-12.5 49l43 35q97 73 167 131.5t133.5 123t96.5 124t33 111.5q0 80 -55 120.5t-150 40.5q-119 0 -260 -96q-28 43 -8 109q131 88 292 88q129 0 211 -68t82 -194q0 -117 -121 -254.5t-329 -270.5z" />
    <glyph glyph-name="threequarters" unicode="&#xbe;" horiz-adv-x="1871" 
d="M1417 1446q29 0 53 -19l-854 -1490q-12 -27 -47 -27t-59 16l852 1491q18 29 55 29zM715 705q0 -107 -86 -179.5t-236 -72.5q-164 0 -266 61q-8 19 -8 53q0 41 16 68q41 -35 109 -59.5t129 -24.5q100 0 164.5 40t64.5 114q0 161 -254 161h-102q0 73 28 95h56
q132 0 191 35.5t59 117.5q0 62 -52 98.5t-135 36.5q-125 0 -252 -90q-12 36 -12 55q0 27 10 50q119 86 275 86q121 0 196.5 -59.5t75.5 -164.5q0 -158 -133 -213q73 -24 117.5 -78.5t44.5 -129.5zM1802 305q14 -47 0 -94h-112v-211h-113v211h-399q-20 9 -38 33t-24 49
q97 137 256 326t240 264q20 0 44 -11t34 -22v-545h112zM1585 713q-67 -69 -176 -196t-170 -212h346v408z" />
    <glyph glyph-name="questiondown" unicode="&#xbf;" horiz-adv-x="968" 
d="M489 813q-49 0 -82.5 33.5t-33.5 81.5q0 50 33.5 83t82.5 33q50 0 83.5 -33.5t33.5 -82.5q0 -48 -34 -81.5t-83 -33.5zM866 -229q29 -45 8 -119q-162 -98 -378 -98q-169 0 -272 90.5t-103 246.5q0 59 18.5 115t60 114.5t119 113t185.5 98.5l-37 278q52 25 113 13l36 -265
q8 -60 -3 -84.5t-62 -42.5q-155 -52 -229 -143.5t-74 -198.5q0 -111 74 -168t210 -57q144 0 334 107z" />
    <glyph glyph-name="Agrave" unicode="&#xc0;" horiz-adv-x="1239" 
d="M606 1477l-184 231q-41 56 -43 72q0 31 47 57l18 10l222 -340zM1063 0l-133 356h-625l-129 -356h-133l502 1341q65 15 135 0l516 -1341h-133zM344 461h547l-279 741z" />
    <glyph glyph-name="Aacute" unicode="&#xc1;" horiz-adv-x="1239" 
d="M791 1692l-164 -217l-58 32l219 340l19 -8q43 -21 43 -49q-3 -29 -59 -98zM1063 0l-133 356h-625l-129 -356h-133l502 1341q65 15 135 0l516 -1341h-133zM344 461h547l-279 743z" />
    <glyph glyph-name="Acircumflex" unicode="&#xc2;" horiz-adv-x="1239" 
d="M461 1483q-27 0 -53.5 14t-38.5 31l194 227q20 6 50.5 6t52.5 -6l194 -227q-12 -17 -38.5 -31t-55.5 -14l-152 190zM1063 0l-133 356h-625l-129 -356h-133l502 1341q65 15 135 0l516 -1341h-133zM344 461h547l-279 743z" />
    <glyph glyph-name="Atilde" unicode="&#xc3;" horiz-adv-x="1239" 
d="M418 1573q-45 -4 -80 14q0 94 45 142.5t117 48.5q35 0 69 -16.5t57 -36t54 -36t59 -16.5q41 0 60.5 35.5t19.5 75.5q44 3 80 -15q0 -93 -42 -141.5t-105 -48.5q-39 0 -77 16.5t-62 37t-54.5 37t-56.5 16.5q-44 0 -64 -35t-20 -78zM1063 0l-133 356h-625l-129 -356h-133
l502 1341q65 15 135 0l516 -1341h-133zM344 461h547l-279 741z" />
    <glyph glyph-name="Adieresis" unicode="&#xc4;" horiz-adv-x="1239" 
d="M463 1556q-40 0 -70.5 28t-30.5 69t30.5 69.5t70.5 28.5q42 0 72 -28t30 -70q0 -41 -30 -69t-72 -28zM764 1556q-40 0 -70 28t-30 69t30 69.5t70 28.5q42 0 72 -28t30 -70q0 -41 -30 -69t-72 -28zM1063 0l-133 356h-625l-129 -356h-133l502 1341q65 15 135 0l516 -1341
h-133zM344 461h547l-279 741z" />
    <glyph glyph-name="Aring" unicode="&#xc5;" horiz-adv-x="1239" 
d="M614 1452q-93 0 -148.5 53t-55.5 142t55.5 141.5t148.5 52.5t148 -52.5t55 -141.5t-55.5 -142t-147.5 -53zM614 1526q52 0 79.5 33.5t27.5 87.5q0 55 -27.5 87.5t-79.5 32.5t-80 -33t-28 -87t28 -87.5t80 -33.5zM1063 0l-133 356h-625l-129 -356h-133l502 1341
q65 15 135 0l516 -1341h-133zM344 461h547l-279 741z" />
    <glyph glyph-name="AE" unicode="&#xc6;" horiz-adv-x="1781" 
d="M1038 104h627v-104h-737l-49 350h-535l-172 -350h-129l659 1335h818v-106h-639l71 -506h547q0 -56 -24 -105h-508zM395 455h469l-104 737z" />
    <glyph glyph-name="Ccedilla" unicode="&#xc7;" horiz-adv-x="1308" 
d="M725 88q256 0 428 172l68 -86q-165 -182 -459 -194l-57 -119q19 8 49 8q75 0 125.5 -43.5t50.5 -118.5q0 -88 -68.5 -137t-173.5 -49q-72 0 -137 14q0 58 12 80q77 -21 142 -21q68 0 105.5 31t37.5 78q0 41 -30 67.5t-97 26.5q-42 0 -82 -16q-14 5 -27 19t-12 30l76 152
q-258 15 -414 197t-156 493q0 318 170 501t449 183q161 0 287.5 -54t210.5 -153q-4 -32 -30 -55t-58 -31q-57 85 -163.5 133.5t-246.5 48.5q-230 0 -362 -152t-132 -421q0 -276 133 -430t361 -154z" />
    <glyph glyph-name="Egrave" unicode="&#xc8;" horiz-adv-x="1077" 
d="M608 1479l-184 231q-41 56 -43 72q0 31 47 57l18 10l222 -340zM961 1229h-646v-506h543q0 -59 -22 -107h-521v-510h646v-106h-768v1335h768v-106z" />
    <glyph glyph-name="Eacute" unicode="&#xc9;" horiz-adv-x="1077" 
d="M793 1694l-164 -217l-58 32l220 340l18 -8q43 -21 43 -49q-3 -29 -59 -98zM961 1229h-646v-506h543q0 -59 -22 -107h-521v-510h646v-106h-768v1335h768v-106z" />
    <glyph glyph-name="Ecircumflex" unicode="&#xca;" horiz-adv-x="1077" 
d="M463 1485q-27 0 -53.5 14t-38.5 31l194 227q20 6 50.5 6t52.5 -6l194 -227q-12 -17 -38.5 -31t-55.5 -14l-152 190zM961 1229h-646v-506h543q0 -59 -22 -107h-521v-510h646v-106h-768v1335h768v-106z" />
    <glyph glyph-name="Edieresis" unicode="&#xcb;" horiz-adv-x="1077" 
d="M465 1559q-41 0 -70.5 27.5t-29.5 68.5t30 69.5t70 28.5q42 0 72 -28t30 -70q0 -41 -30 -68.5t-72 -27.5zM766 1559q-41 0 -70.5 27.5t-29.5 68.5t30 69.5t70 28.5q42 0 72 -28t30 -70q0 -41 -30 -68.5t-72 -27.5zM961 1229h-646v-506h543q0 -59 -22 -107h-521v-510h646
v-106h-768v1335h768v-106z" />
    <glyph glyph-name="Igrave" unicode="&#xcc;" horiz-adv-x="507" 
d="M246 1477l-185 231q-41 56 -43 72q0 31 48 57l18 10l221 -340zM315 0h-122v1335q61 18 122 0v-1335z" />
    <glyph glyph-name="Iacute" unicode="&#xcd;" horiz-adv-x="507" 
d="M266 1475l-57 32l219 340l18 -8q43 -21 43 -49q-3 -29 -59 -98zM315 0h-122v1335q61 18 122 0v-1335z" />
    <glyph glyph-name="Icircumflex" unicode="&#xce;" horiz-adv-x="507" 
d="M305 1755l195 -227q-12 -17 -38.5 -31t-55.5 -14l-152 190l-154 -190q-27 0 -53.5 14t-38.5 31l195 227q20 6 50 6t52 -6zM193 1335q61 18 122 0v-1335h-122v1335z" />
    <glyph glyph-name="Idieresis" unicode="&#xcf;" horiz-adv-x="507" 
d="M102 1556q-40 0 -70 28t-30 69t30 69.5t70 28.5q42 0 72.5 -28t30.5 -70q0 -41 -30.5 -69t-72.5 -28zM403 1556q-40 0 -70 28t-30 69t30 69.5t70 28.5q42 0 72.5 -28t30.5 -70q0 -41 -30.5 -69t-72.5 -28zM315 0h-122v1335q61 18 122 0v-1335z" />
    <glyph glyph-name="Eth" unicode="&#xd0;" horiz-adv-x="1359" 
d="M539 1356q340 0 527 -180.5t187 -489.5q0 -320 -198.5 -502t-538.5 -184h-323v614h-152q11 51 31 77t69 26h52v598q201 41 346 41zM516 106q295 0 453.5 146.5t158.5 433.5q0 269 -149.5 413t-425.5 144q-153 0 -238 -24v-502h430q-7 -103 -77 -103h-353v-508h201z" />
    <glyph glyph-name="Ntilde" unicode="&#xd1;" horiz-adv-x="1449" 
d="M532 1575q-44 -4 -79 14q0 94 45 142.5t116 48.5q35 0 69.5 -16.5t57.5 -36t54 -36t59 -16.5q41 0 60.5 35.5t19.5 75.5q45 3 80 -14q0 -93 -42.5 -142t-105.5 -49q-39 0 -77 16.5t-62 37t-54.5 37t-56.5 16.5q-44 0 -64 -35t-20 -78zM1135 1335h122v-1335
q-61 -18 -122 0l-824 1126l4 -178v-948h-122v1335q61 15 122 0l824 -1134l-4 145v989z" />
    <glyph glyph-name="Ograve" unicode="&#xd2;" horiz-adv-x="1464" 
d="M725 1479l-184 231q-41 56 -43 72q0 31 47 57l18 10l221 -340zM733 -20q-287 0 -457 187t-170 501t170 501t457 187t457 -187t170 -501t-170 -501t-457 -187zM733 88q237 0 368.5 152t131.5 428t-131.5 426.5t-368.5 150.5t-368.5 -150.5t-131.5 -426.5t131.5 -428
t368.5 -152z" />
    <glyph glyph-name="Oacute" unicode="&#xd3;" horiz-adv-x="1464" 
d="M745 1477l-57 32l219 340l19 -8q43 -21 43 -49q-3 -28 -60 -98zM733 -20q-287 0 -457 187t-170 501t170 501t457 187t457 -187t170 -501t-170 -501t-457 -187zM733 88q237 0 368.5 152t131.5 428t-131.5 426.5t-368.5 150.5t-368.5 -150.5t-131.5 -426.5t131.5 -428
t368.5 -152z" />
    <glyph glyph-name="Ocircumflex" unicode="&#xd4;" horiz-adv-x="1464" 
d="M580 1485q-27 0 -54 14t-39 31l195 227q20 6 50 6t52 -6l195 -227q-12 -17 -38.5 -31t-55.5 -14l-152 190zM733 1356q287 0 457 -187t170 -501t-170 -501t-457 -187t-457 187t-170 501t170 501t457 187zM733 88q237 0 368.5 152t131.5 428t-131.5 426.5t-368.5 150.5
t-368.5 -150.5t-131.5 -426.5t131.5 -428t368.5 -152z" />
    <glyph glyph-name="Otilde" unicode="&#xd5;" horiz-adv-x="1464" 
d="M537 1575q-45 -4 -80 14q0 94 45 142.5t116 48.5q35 0 69.5 -16.5t57.5 -36t54 -36t59 -16.5q41 0 60.5 35.5t19.5 75.5q45 3 80 -14q0 -93 -42.5 -142t-105.5 -49q-39 0 -76.5 16.5t-62 37t-54.5 37t-56 16.5q-44 0 -64 -35t-20 -78zM733 -20q-287 0 -457 187t-170 501
t170 501t457 187t457 -187t170 -501t-170 -501t-457 -187zM733 88q237 0 368.5 152t131.5 428t-131.5 426.5t-368.5 150.5t-368.5 -150.5t-131.5 -426.5t131.5 -428t368.5 -152z" />
    <glyph glyph-name="Odieresis" unicode="&#xd6;" horiz-adv-x="1464" 
d="M582 1559q-41 0 -71 28t-30 68q0 41 30.5 69.5t70.5 28.5q42 0 72 -28t30 -70q0 -41 -30 -68.5t-72 -27.5zM883 1559q-41 0 -71 28t-30 68q0 41 30.5 69.5t70.5 28.5q42 0 72 -28t30 -70q0 -41 -30 -68.5t-72 -27.5zM733 -20q-287 0 -457 187t-170 501t170 501t457 187
t457 -187t170 -501t-170 -501t-457 -187zM733 88q237 0 368.5 152t131.5 428t-131.5 426.5t-368.5 150.5t-368.5 -150.5t-131.5 -426.5t131.5 -428t368.5 -152z" />
    <glyph glyph-name="multiply" unicode="&#xd7;" 
d="M641 625l307 -328q-49 -49 -76 -49q-29 0 -63 37l-248 266l-328 -307q-49 49 -49 75q0 27 37 64l264 248l-307 327q50 50 76 50q29 0 63 -37l248 -266l330 309q49 -49 49 -76t-37 -64z" />
    <glyph glyph-name="Oslash" unicode="&#xd8;" horiz-adv-x="1464" 
d="M1192 1167q168 -192 168 -499q0 -314 -170 -501t-457 -187q-228 0 -385 120l-94 -120q-27 0 -52 15t-38 36l110 139q-168 183 -168 498q0 314 170 501t457 187q224 0 381 -119l94 119q62 -3 90 -53zM233 668q0 -256 113 -406l698 887q-122 96 -311 96
q-237 0 -368.5 -150.5t-131.5 -426.5zM733 88q237 0 368.5 152t131.5 428q0 256 -115 405l-700 -885q124 -100 315 -100z" />
    <glyph glyph-name="Ugrave" unicode="&#xd9;" horiz-adv-x="1306" 
d="M645 1477l-184 231q-41 56 -43 72q0 31 47 57l18 10l222 -340zM653 -20q-233 0 -366 142t-133 419v794q61 18 122 0v-815q0 -195 98 -310.5t277 -115.5q170 0 274.5 113.5t104.5 312.5v815q62 18 121 0v-794q0 -267 -130 -414t-368 -147z" />
    <glyph glyph-name="Uacute" unicode="&#xda;" horiz-adv-x="1306" 
d="M666 1475l-58 32l219 340l19 -8q43 -21 43 -49q-3 -28 -60 -98zM653 -20q-233 0 -366 142t-133 419v794q61 18 122 0v-815q0 -195 98 -310.5t277 -115.5q170 0 274.5 113.5t104.5 312.5v815q62 18 121 0v-794q0 -267 -130 -414t-368 -147z" />
    <glyph glyph-name="Ucircumflex" unicode="&#xdb;" horiz-adv-x="1306" 
d="M500 1483q-27 0 -53.5 14t-38.5 31l194 227q20 6 50.5 6t52.5 -6l194 -227q-12 -17 -38.5 -31t-55.5 -14l-152 190zM1030 1335q62 18 121 0v-794q0 -267 -130 -414t-368 -147q-233 0 -366 142t-133 419v794q61 18 122 0v-815q0 -195 98 -310.5t277 -115.5
q170 0 274.5 113.5t104.5 312.5v815z" />
    <glyph glyph-name="Udieresis" unicode="&#xdc;" horiz-adv-x="1306" 
d="M502 1556q-40 0 -70.5 28t-30.5 69t30.5 69.5t70.5 28.5q42 0 72 -28t30 -70q0 -41 -30 -69t-72 -28zM803 1556q-40 0 -70.5 28t-30.5 69t30.5 69.5t70.5 28.5q42 0 72 -28t30 -70q0 -41 -30 -69t-72 -28zM653 -20q-233 0 -366 142t-133 419v794q61 18 122 0v-815
q0 -195 98 -310.5t277 -115.5q170 0 274.5 113.5t104.5 312.5v815q62 18 121 0v-794q0 -267 -130 -414t-368 -147z" />
    <glyph glyph-name="Yacute" unicode="&#xdd;" horiz-adv-x="1097" 
d="M727 1694l-164 -217l-57 32l219 340l18 -8q43 -21 43 -49q-3 -29 -59 -98zM1059 1335l-447 -794v-541h-123v537l-450 798q68 19 139 0l373 -676l371 676q68 19 137 0z" />
    <glyph glyph-name="Thorn" unicode="&#xde;" horiz-adv-x="1089" 
d="M520 1122q223 0 359.5 -128t136.5 -318t-137.5 -319.5t-358.5 -129.5h-205v-227h-122v1335q62 17 122 0v-213h205zM473 334q209 0 313.5 95.5t104.5 246.5q0 152 -104.5 246t-313.5 94h-158v-682h158z" />
    <glyph glyph-name="germandbls" unicode="&#xdf;" horiz-adv-x="1224" 
d="M733 737q0 52 24 109.5t53 99t53 91.5t24 89q0 106 -69 164t-206 58q-155 0 -236 -91t-81 -268v-989h-119v977q0 477 451 477q172 0 276.5 -86.5t104.5 -210.5q0 -59 -24.5 -118.5t-53.5 -100t-53.5 -91.5t-24.5 -95q0 -37 31 -79t76 -82t89.5 -83.5t75.5 -99t31 -113.5
q0 -145 -101 -231.5t-263 -86.5q-112 0 -191 27q0 24 9 58t24 47q97 -25 166 -25q109 0 169 53.5t60 155.5q0 41 -30.5 85t-74 83.5t-86.5 81t-73.5 92.5t-30.5 102z" />
    <glyph glyph-name="agrave" unicode="&#xe0;" horiz-adv-x="1003" 
d="M498 1153l-185 231q-41 56 -43 72q0 31 47 57l19 11l221 -340zM494 1036q168 0 261 -81.5t93 -272.5v-682q-54 0 -84.5 28t-30.5 85v43q-57 -90 -155 -130t-195 -40q-46 0 -90.5 14t-86 43.5t-66.5 84t-25 126.5t25.5 129.5t72.5 94.5t104 63t130.5 39.5t140.5 19
t145 6.5v41q0 72 -12.5 124t-33.5 82.5t-54 48.5t-66.5 24t-79.5 6q-69 0 -161.5 -24.5t-104.5 -24.5q-21 0 -34 10.5t-23 36.5l-10 31q188 75 340 75zM420 88q57 0 111 18.5t100 54.5t74 96.5t28 137.5v119h-51q-233 0 -342 -66.5t-109 -166.5q0 -193 189 -193z" />
    <glyph glyph-name="aacute" unicode="&#xe1;" horiz-adv-x="1003" 
d="M682 1368l-164 -217l-57 33l219 340l18 -8q43 -21 43 -50q-3 -29 -59 -98zM494 1036q168 0 261 -81.5t93 -272.5v-682q-54 0 -84.5 28t-30.5 85v43q-57 -90 -155 -130t-195 -40q-46 0 -90.5 14t-86 43.5t-66.5 84t-25 126.5t25.5 129.5t72.5 94.5t104 63t130.5 39.5
t140.5 19t145 6.5v41q0 72 -12.5 124t-33.5 82.5t-54 48.5t-66.5 24t-79.5 6q-69 0 -161.5 -24.5t-104.5 -24.5q-21 0 -34 10.5t-23 36.5l-10 31q188 75 340 75zM420 88q57 0 111 18.5t100 54.5t74 96.5t28 137.5v119h-51q-233 0 -342 -66.5t-109 -166.5q0 -193 189 -193z
" />
    <glyph glyph-name="acircumflex" unicode="&#xe2;" horiz-adv-x="1003" 
d="M352 1159q-27 0 -53.5 14t-38.5 31l195 228q20 6 50 6t52 -6l195 -228q-12 -17 -39 -31t-56 -14l-151 191zM494 1036q168 0 261 -81.5t93 -272.5v-682q-54 0 -84.5 28t-30.5 85v43q-57 -90 -155 -130t-195 -40q-46 0 -90.5 14t-86 43.5t-66.5 84t-25 126.5t25.5 129.5
t72.5 94.5t104 63t130.5 39.5t140.5 19t145 6.5v41q0 72 -12.5 124t-33.5 82.5t-54 48.5t-66.5 24t-79.5 6q-69 0 -161.5 -24.5t-104.5 -24.5q-21 0 -34 10.5t-23 36.5l-10 31q188 75 340 75zM420 88q57 0 111 18.5t100 54.5t74 96.5t28 137.5v119h-51q-233 0 -342 -66.5
t-109 -166.5q0 -193 189 -193z" />
    <glyph glyph-name="atilde" unicode="&#xe3;" horiz-adv-x="1003" 
d="M309 1249q-43 -3 -80 15q0 94 45 142t117 48q35 0 69.5 -16t57.5 -36t54 -36t59 -16q41 0 60.5 35.5t19.5 74.5q45 3 80 -14q0 -93 -42.5 -142t-105.5 -49q-39 0 -77 16.5t-62 37t-54.5 37t-56.5 16.5q-44 0 -64 -35t-20 -78zM494 1036q168 0 261 -81.5t93 -272.5v-682
q-54 0 -84.5 28t-30.5 85v43q-57 -90 -155 -130t-195 -40q-46 0 -90.5 14t-86 43.5t-66.5 84t-25 126.5t25.5 129.5t72.5 94.5t104 63t130.5 39.5t140.5 19t145 6.5v41q0 72 -12.5 124t-33.5 82.5t-54 48.5t-66.5 24t-79.5 6q-69 0 -161.5 -24.5t-104.5 -24.5
q-21 0 -34 10.5t-23 36.5l-10 31q188 75 340 75zM420 88q57 0 111 18.5t100 54.5t74 96.5t28 137.5v119h-51q-233 0 -342 -66.5t-109 -166.5q0 -193 189 -193z" />
    <glyph glyph-name="adieresis" unicode="&#xe4;" horiz-adv-x="1003" 
d="M354 1233q-41 0 -70.5 27.5t-29.5 68.5t30 69.5t70 28.5q42 0 72.5 -28t30.5 -70q0 -41 -30.5 -68.5t-72.5 -27.5zM655 1233q-41 0 -70.5 27.5t-29.5 68.5t30 69.5t70 28.5q42 0 72.5 -28t30.5 -70q0 -41 -30.5 -68.5t-72.5 -27.5zM494 1036q168 0 261 -81.5t93 -272.5
v-682q-54 0 -84.5 28t-30.5 85v43q-57 -90 -155 -130t-195 -40q-46 0 -90.5 14t-86 43.5t-66.5 84t-25 126.5t25.5 129.5t72.5 94.5t104 63t130.5 39.5t140.5 19t145 6.5v41q0 72 -12.5 124t-33.5 82.5t-54 48.5t-66.5 24t-79.5 6q-69 0 -161.5 -24.5t-104.5 -24.5
q-21 0 -34 10.5t-23 36.5l-10 31q188 75 340 75zM420 88q57 0 111 18.5t100 54.5t74 96.5t28 137.5v119h-51q-233 0 -342 -66.5t-109 -166.5q0 -193 189 -193z" />
    <glyph glyph-name="aring" unicode="&#xe5;" horiz-adv-x="1003" 
d="M506 1128q-93 0 -149 53t-56 142t56 142t149 53q92 0 147.5 -53t55.5 -142t-55.5 -142t-147.5 -53zM506 1444q-52 0 -80.5 -33.5t-28.5 -87.5t28.5 -87.5t80.5 -33.5t79 33.5t27 87.5q0 55 -27 88t-79 33zM494 1036q168 0 261 -81.5t93 -272.5v-682q-54 0 -84.5 28
t-30.5 85v43q-57 -90 -155 -130t-195 -40q-46 0 -90.5 14t-86 43.5t-66.5 84t-25 126.5t25.5 129.5t72.5 94.5t104 63t130.5 39.5t140.5 19t145 6.5v41q0 72 -12.5 124t-33.5 82.5t-54 48.5t-66.5 24t-79.5 6q-69 0 -161.5 -24.5t-104.5 -24.5q-21 0 -34 10.5t-23 36.5
l-10 31q188 75 340 75zM420 88q57 0 111 18.5t100 54.5t74 96.5t28 137.5v119h-51q-233 0 -342 -66.5t-109 -166.5q0 -193 189 -193z" />
    <glyph glyph-name="ae" unicode="&#xe6;" horiz-adv-x="1675" 
d="M1567 504h-717v-29q0 -178 91 -284.5t255 -106.5q74 0 156.5 17t140.5 44q40 -30 49 -94q-188 -74 -358 -74q-149 0 -252 73.5t-150 205.5q-19 -76 -65.5 -132t-106 -84.5t-116 -41t-111.5 -12.5q-35 0 -70.5 8t-71.5 28t-63.5 49.5t-45 77t-17.5 105.5q0 71 25.5 127
t72.5 92.5t104 61.5t130.5 38t140.5 18.5t145 6.5v49q0 72 -12.5 124t-33.5 82.5t-54 48.5t-66.5 24t-79.5 6q-70 0 -162 -25.5t-104 -25.5q-21 0 -34 10.5t-23 36.5l-10 30q196 78 340 78q268 0 325 -215q55 105 147.5 160t213.5 55q184 0 289.5 -117.5t105.5 -320.5
q0 -45 -8 -94zM1165 936q-123 0 -205 -83t-104 -257h594v20q0 158 -76.5 239t-208.5 81zM420 88q57 0 111 18.5t100 54.5t74 96.5t28 137.5v2v111h-51q-233 0 -342 -65.5t-109 -163.5q0 -101 53.5 -146t135.5 -45z" />
    <glyph glyph-name="ccedilla" unicode="&#xe7;" horiz-adv-x="944" 
d="M868 45q-108 -50 -262 -63l-59 -121q28 8 49 8q75 0 125.5 -43.5t50.5 -118.5q0 -88 -68.5 -137t-173.5 -49q-72 0 -137 14q0 57 13 80q77 -21 141 -21q68 0 105.5 31t37.5 78q0 41 -30 67.5t-97 26.5q-42 0 -82 -16q-14 5 -27 19t-12 30l76 150q-194 9 -306 144
t-112 376q0 252 136.5 395t371.5 143q140 0 260 -34q-3 -65 -41 -109q-37 13 -98 25t-104 12q-85 0 -153 -23t-113.5 -63t-76 -95.5t-44 -117.5t-13.5 -133q0 -190 89 -302t276 -112q116 0 254 59z" />
    <glyph glyph-name="egrave" unicode="&#xe8;" horiz-adv-x="1048" 
d="M537 1153l-185 231q-41 56 -43 72q0 31 47 57l19 11l221 -340zM938 483h-717v-6q0 -178 91.5 -285.5t254.5 -107.5q74 0 156.5 17t140.5 44q40 -28 49 -94q-168 -74 -356 -74q-215 0 -336 137.5t-121 362.5q0 267 122 414t331 147q183 0 289 -121.5t106 -330.5
q0 -45 -10 -103zM539 938q-129 0 -211.5 -87.5t-100.5 -272.5h592q2 4 2 20q0 168 -76 254t-206 86z" />
    <glyph glyph-name="eacute" unicode="&#xe9;" horiz-adv-x="1048" 
d="M721 1368l-164 -217l-57 33l219 340l18 -8q43 -21 43 -50q-3 -29 -59 -98zM938 483h-717v-6q0 -178 91.5 -285.5t254.5 -107.5q74 0 156.5 17t140.5 44q40 -28 49 -94q-168 -74 -356 -74q-215 0 -336 137.5t-121 362.5q0 267 122 414t331 147q183 0 289 -121.5
t106 -330.5q0 -48 -10 -103zM539 938q-129 0 -212 -87.5t-102 -272.5h594q2 6 2 20q0 168 -76 254t-206 86z" />
    <glyph glyph-name="ecircumflex" unicode="&#xea;" horiz-adv-x="1048" 
d="M389 1159q-27 0 -53.5 14t-38.5 31l195 228q20 6 50 6t52 -6l194 -228q-12 -17 -38.5 -31t-55.5 -14l-151 191zM938 483h-717v-6q0 -178 91.5 -285.5t254.5 -107.5q74 0 156.5 17t140.5 44q40 -28 49 -94q-168 -74 -356 -74q-215 0 -336 137.5t-121 362.5q0 267 122 414
t331 147q183 0 289 -121.5t106 -330.5q0 -48 -10 -103zM539 938q-129 0 -212 -87.5t-102 -272.5h594q2 6 2 20q0 168 -76 254t-206 86z" />
    <glyph glyph-name="edieresis" unicode="&#xeb;" horiz-adv-x="1048" 
d="M393 1233q-41 0 -70.5 27.5t-29.5 68.5t30 69.5t70 28.5q42 0 72.5 -28t30.5 -70q0 -41 -30.5 -68.5t-72.5 -27.5zM694 1233q-41 0 -70.5 27.5t-29.5 68.5t30 69.5t70 28.5q42 0 72.5 -28t30.5 -70q0 -41 -30.5 -68.5t-72.5 -27.5zM938 483h-717v-6q0 -178 91.5 -285.5
t254.5 -107.5q74 0 156.5 17t140.5 44q40 -28 49 -94q-168 -74 -356 -74q-215 0 -336 137.5t-121 362.5q0 267 122 414t331 147q183 0 289 -121.5t106 -330.5q0 -45 -10 -103zM539 938q-129 0 -211.5 -87.5t-100.5 -272.5h592q2 4 2 20q0 168 -76 254t-206 86z" />
    <glyph glyph-name="igrave" unicode="&#xec;" horiz-adv-x="468" 
d="M227 1153l-184 231q-41 56 -43 72q0 31 47 57l19 11l221 -340zM176 0v1014q25 14 59 14t60 -14v-1014h-119z" />
    <glyph glyph-name="iacute" unicode="&#xed;" horiz-adv-x="468" 
d="M248 1151l-58 33l220 340l18 -8q43 -21 43 -50q-3 -29 -59 -98zM176 0v1014q25 14 59 14t60 -14v-1014h-119z" />
    <glyph glyph-name="icircumflex" unicode="&#xee;" horiz-adv-x="468" 
d="M287 1432l194 -228q-12 -17 -38.5 -31t-55.5 -14l-151 191l-154 -191q-27 0 -53.5 14t-38.5 31l194 228q20 6 50.5 6t52.5 -6zM176 0v1014q25 14 59 14t60 -14v-1014h-119z" />
    <glyph glyph-name="idieresis" unicode="&#xef;" horiz-adv-x="468" 
d="M84 1233q-41 0 -70.5 27.5t-29.5 68.5t30 69.5t70 28.5q42 0 72 -28t30 -70q0 -41 -30 -68.5t-72 -27.5zM385 1233q-41 0 -70.5 27.5t-29.5 68.5t30 69.5t70 28.5q42 0 72 -28t30 -70q0 -41 -30 -68.5t-72 -27.5zM176 0v1014q25 14 59 14t60 -14v-1014h-119z" />
    <glyph glyph-name="eth" unicode="&#xf0;" horiz-adv-x="1134" 
d="M707 1247q346 -224 346 -678q0 -283 -128.5 -436t-344.5 -153q-227 0 -353.5 141t-126.5 385q0 219 120 358t341 142q120 1 214 -57.5t149 -151.5q-26 122 -108.5 225t-209.5 178l-309 -143q-13 3 -28 23.5t-15 35.5l270 127q-143 66 -293 92q0 27 16.5 52.5t37.5 25.5
q195 -41 346 -121l254 121q13 -6 25 -27.5t12 -37.5zM936 506q2 166 -96 278.5t-258 112.5q-176 0 -268.5 -102.5t-92.5 -288.5q0 -193 92 -305.5t267 -112.5q169 0 262 106.5t94 311.5z" />
    <glyph glyph-name="ntilde" unicode="&#xf1;" horiz-adv-x="1116" 
d="M383 1249q-43 -3 -80 15q0 94 45 142t117 48q35 0 69.5 -16t57.5 -36t54 -36t59 -16q41 0 60 35t19 75q45 3 80 -14q0 -93 -42 -142t-105 -49q-39 0 -77 16.5t-62 37t-54.5 37t-56.5 16.5q-44 0 -64 -35t-20 -78zM618 1028q343 0 343 -358v-670h-119v647q0 139 -70.5 207
t-218.5 68q-130 0 -258 -76v-846h-119v1016q100 0 115 -86q58 41 146 69.5t181 28.5z" />
    <glyph glyph-name="ograve" unicode="&#xf2;" horiz-adv-x="1159" 
d="M571 1153l-184 231q-41 56 -43 72q0 31 47 57l19 11l221 -340zM580 -20q-218 0 -349 144t-131 382q0 236 131.5 384t348.5 148t348 -147.5t131 -384.5q0 -239 -130.5 -382.5t-348.5 -143.5zM580 88q168 0 263 109t95 309q0 198 -95 311t-263 113q-167 0 -263 -113
t-96 -311q0 -200 94.5 -309t264.5 -109z" />
    <glyph glyph-name="oacute" unicode="&#xf3;" horiz-adv-x="1159" 
d="M592 1151l-57 33l219 340l18 -8q43 -21 43 -50q-3 -29 -59 -98zM580 -20q-218 0 -349 144t-131 382q0 236 131.5 384t348.5 148t348 -147.5t131 -384.5q0 -239 -130.5 -382.5t-348.5 -143.5zM580 88q168 0 263 109t95 309q0 198 -95 311t-263 113q-167 0 -263 -113
t-96 -311q0 -200 94.5 -309t264.5 -109z" />
    <glyph glyph-name="ocircumflex" unicode="&#xf4;" horiz-adv-x="1159" 
d="M631 1432l194 -228q-12 -17 -38.5 -31t-55.5 -14l-151 191l-154 -191q-27 0 -53.5 14t-38.5 31l194 228q20 6 50.5 6t52.5 -6zM580 -20q-218 0 -349 144t-131 382q0 236 131.5 384t348.5 148t348 -147.5t131 -384.5q0 -239 -130.5 -382.5t-348.5 -143.5zM580 88
q168 0 263 109t95 309q0 198 -95 311t-263 113q-167 0 -263 -113t-96 -311q0 -200 94.5 -309t264.5 -109z" />
    <glyph glyph-name="otilde" unicode="&#xf5;" horiz-adv-x="1159" 
d="M383 1249q-43 -3 -80 15q0 94 45 142t117 48q35 0 69.5 -16t57.5 -36t54 -36t59 -16q41 0 60 35t19 75q45 3 80 -14q0 -93 -42 -142t-105 -49q-39 0 -77 16.5t-62 37t-54.5 37t-56.5 16.5q-44 0 -64 -35t-20 -78zM580 -20q-218 0 -349 144t-131 382q0 236 131.5 384
t348.5 148t348 -147.5t131 -384.5q0 -239 -130.5 -382.5t-348.5 -143.5zM580 88q168 0 263 109t95 309q0 198 -95 311t-263 113q-167 0 -263 -113t-96 -311q0 -200 94.5 -309t264.5 -109z" />
    <glyph glyph-name="odieresis" unicode="&#xf6;" horiz-adv-x="1159" 
d="M428 1233q-41 0 -70.5 27.5t-29.5 68.5t30 69.5t70 28.5q42 0 72 -28t30 -70q0 -41 -30 -68.5t-72 -27.5zM729 1233q-41 0 -70.5 27.5t-29.5 68.5t30 69.5t70 28.5q42 0 72 -28t30 -70q0 -41 -30 -68.5t-72 -27.5zM580 -20q-218 0 -349 144t-131 382q0 236 131.5 384
t348.5 148t348 -147.5t131 -384.5q0 -239 -130.5 -382.5t-348.5 -143.5zM580 88q168 0 263 109t95 309q0 198 -95 311t-263 113q-167 0 -263 -113t-96 -311q0 -200 94.5 -309t264.5 -109z" />
    <glyph glyph-name="divide" unicode="&#xf7;" 
d="M565 897q-39 0 -68.5 28.5t-29.5 65.5q0 38 29 67t69 29t70.5 -29t30.5 -67q0 -37 -30.5 -65.5t-70.5 -28.5zM84 575q0 62 17.5 84.5t72.5 22.5h868q0 -62 -17.5 -84.5t-72.5 -22.5h-868zM565 172q-39 0 -68.5 28.5t-29.5 65.5q0 38 29 67t69 29t70.5 -29t30.5 -67
q0 -37 -30.5 -65.5t-70.5 -28.5z" />
    <glyph glyph-name="oslash" unicode="&#xf8;" horiz-adv-x="1159" 
d="M948 866q111 -142 111 -360q0 -239 -130.5 -382.5t-348.5 -143.5q-190 0 -316 110l-102 -108q-47 15 -60 55l107 115q-109 140 -109 354q0 236 131.5 384t348.5 148q187 0 311 -112l102 112q27 -12 39.5 -22.5t20.5 -34.5zM580 930q-167 0 -263 -113t-96 -311
q0 -170 68 -273l532 609q-94 88 -241 88zM580 88q168 0 263 109t95 309q0 167 -70 276l-532 -608q95 -86 244 -86z" />
    <glyph glyph-name="ugrave" unicode="&#xf9;" horiz-adv-x="1116" 
d="M541 1153l-185 231q-41 56 -43 72q0 31 47 57l19 11l221 -340zM821 1010q52 18 119 18v-1028q-64 0 -88.5 29.5t-28.5 79.5q-65 -50 -159.5 -86.5t-192.5 -36.5q-315 0 -315 374v650q50 18 118 18v-641q0 -148 58.5 -220.5t187.5 -72.5q78 0 159 31.5t142 73.5v811z" />
    <glyph glyph-name="uacute" unicode="&#xfa;" horiz-adv-x="1116" 
d="M725 1368l-164 -217l-57 33l219 340l18 -8q43 -21 43 -50q-3 -29 -59 -98zM821 1010q52 18 119 18v-1028q-63 0 -88 30t-29 79q-67 -51 -160.5 -87t-191.5 -36q-315 0 -315 374v650q50 18 118 18v-641q0 -148 58.5 -220.5t187.5 -72.5q78 0 159 31.5t142 73.5v811z" />
    <glyph glyph-name="ucircumflex" unicode="&#xfb;" horiz-adv-x="1116" 
d="M395 1159q-27 0 -53.5 14t-38.5 31l195 228q20 6 50 6t52 -6l195 -228q-12 -17 -39 -31t-56 -14l-151 191zM821 1010q52 18 119 18v-1028q-63 0 -88 30t-29 79q-67 -51 -160.5 -87t-191.5 -36q-315 0 -315 374v650q50 18 118 18v-641q0 -148 58.5 -220.5t187.5 -72.5
q78 0 159 31.5t142 73.5v811z" />
    <glyph glyph-name="udieresis" unicode="&#xfc;" horiz-adv-x="1116" 
d="M397 1233q-41 0 -70.5 27.5t-29.5 68.5t30 69.5t70 28.5q42 0 72.5 -28t30.5 -70q0 -41 -30.5 -68.5t-72.5 -27.5zM698 1233q-41 0 -70.5 27.5t-29.5 68.5t30 69.5t70 28.5q42 0 72.5 -28t30.5 -70q0 -41 -30.5 -68.5t-72.5 -27.5zM821 1010q52 18 119 18v-1028
q-64 0 -88.5 29.5t-28.5 79.5q-65 -50 -159.5 -86.5t-192.5 -36.5q-315 0 -315 374v650q50 18 118 18v-641q0 -148 58.5 -220.5t187.5 -72.5q78 0 159 31.5t142 73.5v811z" />
    <glyph glyph-name="yacute" unicode="&#xfd;" horiz-adv-x="956" 
d="M657 1368l-163 -217l-58 33l219 340l19 -8q43 -21 43 -50q-3 -28 -60 -98zM807 1018q64 17 127 0l-385 -936q-63 -151 -158 -281.5t-209 -210.5q-35 7 -62.5 37t-33.5 64q113 71 194.5 161t143.5 207l-401 959q64 13 129 0l329 -813z" />
    <glyph glyph-name="thorn" unicode="&#xfe;" horiz-adv-x="1130" 
d="M612 1038q89 0 160.5 -27t118.5 -72.5t79 -107.5t46 -129t14 -139q0 -277 -117.5 -430t-320.5 -153q-159 0 -297 75v-415q-66 -50 -119 -50v1782q20 17 56.5 29t62.5 12v-465q66 43 151 66.5t166 23.5zM545 84q81 0 144.5 26.5t104 71.5t67 107.5t37.5 129.5t11 144
q0 367 -338 367q-159 0 -276 -60v-731q135 -55 250 -55z" />
    <glyph glyph-name="ydieresis" unicode="&#xff;" horiz-adv-x="956" 
d="M330 1233q-41 0 -71 28t-30 68q0 41 30.5 69.5t70.5 28.5q42 0 72 -28t30 -70q0 -41 -30 -68.5t-72 -27.5zM631 1233q-41 0 -71 28t-30 68q0 41 30.5 69.5t70.5 28.5q42 0 72 -28t30 -70q0 -41 -30 -68.5t-72 -27.5zM807 1018q65 17 127 0l-385 -936
q-63 -151 -158 -281.5t-209 -210.5q-35 7 -62.5 37t-33.5 64q211 133 338 366l-401 961q64 13 129 0l329 -815z" />
    <glyph glyph-name="Amacron" unicode="&#x100;" horiz-adv-x="1239" 
d="M385 1704h461v-105h-461v105zM1063 0l-133 356h-625l-129 -356h-133l502 1341q65 15 135 0l516 -1341h-133zM344 461h547l-279 741z" />
    <glyph glyph-name="amacron" unicode="&#x101;" horiz-adv-x="1003" 
d="M737 1380v-104h-461v104h461zM494 1036q168 0 261 -81.5t93 -272.5v-682q-54 0 -84.5 28t-30.5 85v43q-57 -90 -155 -130t-195 -40q-46 0 -90.5 14t-86 43.5t-66.5 84t-25 126.5t25.5 129.5t72.5 94.5t104 63t130.5 39.5t140.5 19t145 6.5v41q0 72 -12.5 124t-33.5 82.5
t-54 48.5t-66.5 24t-79.5 6q-69 0 -161.5 -24.5t-104.5 -24.5q-21 0 -34 10.5t-23 36.5l-10 31q188 75 340 75zM420 88q57 0 111 18.5t100 54.5t74 96.5t28 137.5v119h-51q-233 0 -342 -66.5t-109 -166.5q0 -193 189 -193z" />
    <glyph glyph-name="Abreve" unicode="&#x102;" horiz-adv-x="1239" 
d="M616 1513q-71 0 -126 23t-86.5 61t-47 81.5t-16.5 90.5q52 17 104 0q4 -64 45 -113.5t129 -49.5q46 0 80.5 16.5t51.5 43.5t25 52.5t9 50.5q52 17 105 0q-1 -46 -16.5 -89.5t-46.5 -82t-85 -61.5t-125 -23zM1063 0l-133 356h-625l-129 -356h-133l502 1341q65 15 135 0
l516 -1341h-133zM344 461h547l-279 743z" />
    <glyph glyph-name="abreve" unicode="&#x103;" horiz-adv-x="1003" 
d="M508 1190q-71 0 -126 23t-86.5 61t-47.5 81.5t-17 90.5q53 17 105 0q4 -64 45 -114t129 -50q46 0 80.5 17t51.5 43.5t25 52.5t9 51q52 17 104 0q-1 -46 -16.5 -89.5t-46 -82t-84.5 -61.5t-125 -23zM494 1036q168 0 261 -81.5t93 -272.5v-682q-54 0 -84.5 28t-30.5 85v43
q-57 -90 -155 -130t-195 -40q-46 0 -90.5 14t-86 43.5t-66.5 84t-25 126.5t25.5 129.5t72.5 94.5t104 63t130.5 39.5t140.5 19t145 6.5v41q0 72 -12.5 124t-33.5 82.5t-54 48.5t-66.5 24t-79.5 6q-69 0 -161.5 -24.5t-104.5 -24.5q-21 0 -34 10.5t-23 36.5l-10 31
q188 75 340 75zM420 88q57 0 111 18.5t100 54.5t74 96.5t28 137.5v119h-51q-233 0 -342 -66.5t-109 -166.5q0 -193 189 -193z" />
    <glyph glyph-name="Aogonek" unicode="&#x104;" horiz-adv-x="1239" 
d="M1221 -291q27 -38 24 -86q-37 -29 -119 -29q-79 0 -125.5 41t-46.5 119q0 63 41 130.5t107 115.5h-39l-133 356h-625l-129 -356h-133l502 1341q65 15 135 0l516 -1341q-74 -45 -113 -105t-39 -124q0 -90 95 -90q43 0 82 28zM344 461h547l-279 741z" />
    <glyph glyph-name="aogonek" unicode="&#x105;" horiz-adv-x="1003" 
d="M872 -291q28 -40 25 -86q-37 -29 -119 -29q-79 0 -125.5 41t-46.5 119q0 70 48.5 143t123.5 119q-45 28 -45 97v43q-57 -90 -155 -130t-195 -40q-46 0 -90.5 14t-86 43.5t-66.5 84t-25 126.5t25.5 129.5t72.5 94.5t104 63t130.5 39.5t140.5 19t145 6.5v41q0 72 -12.5 124
t-33.5 82.5t-54 48.5t-66.5 24t-79.5 6q-69 0 -161.5 -24.5t-104.5 -24.5q-21 0 -34 10.5t-23 36.5l-10 31q188 75 340 75q168 0 261 -81.5t93 -272.5v-682q-74 -45 -113 -105t-39 -124q0 -90 95 -90q42 0 81 28zM420 88q57 0 111 18.5t100 54.5t74 96.5t28 137.5v119h-51
q-233 0 -342 -66.5t-109 -166.5q0 -193 189 -193z" />
    <glyph glyph-name="Cacute" unicode="&#x106;" horiz-adv-x="1308" 
d="M719 1477l-57 32l219 340l18 -8q43 -21 43 -49q-3 -29 -59 -98zM1221 174q-175 -194 -496 -194q-136 0 -249.5 46t-195.5 133t-128 218.5t-46 294.5q0 318 170 501t449 183q161 0 287.5 -54t210.5 -153q-4 -32 -30 -55t-58 -31q-57 85 -163.5 133.5t-246.5 48.5
q-230 0 -362 -152t-132 -421q0 -276 133 -430t361 -154q256 0 428 172z" />
    <glyph glyph-name="cacute" unicode="&#x107;" horiz-adv-x="944" 
d="M553 1151l-57 33l219 340l18 -8q43 -21 43 -50q-3 -29 -59 -98zM844 145l24 -100q-147 -65 -323 -65q-205 0 -325 136t-120 384q0 252 136.5 395t371.5 143q140 0 260 -34q-3 -65 -41 -109q-37 13 -98 25t-104 12q-85 0 -153 -23t-113.5 -63t-76 -95.5t-44 -117.5
t-13.5 -133q0 -190 89 -302t276 -112q116 0 254 59z" />
    <glyph glyph-name="Cdotaccent" unicode="&#x10a;" horiz-adv-x="1308" 
d="M809 1642q0 -37 -30.5 -65.5t-71.5 -28.5q-40 0 -69.5 28.5t-29.5 65.5q0 39 30 69t69 30q41 0 71.5 -29.5t30.5 -69.5zM1221 174q-175 -194 -496 -194q-136 0 -249.5 46t-195.5 133t-128 218.5t-46 294.5q0 318 170 501t449 183q161 0 287.5 -54t210.5 -153
q-4 -32 -30 -55t-58 -31q-57 85 -163.5 133.5t-246.5 48.5q-230 0 -362 -152t-132 -421q0 -276 133 -430t361 -154q256 0 428 172z" />
    <glyph glyph-name="cdotaccent" unicode="&#x10b;" horiz-adv-x="944" 
d="M643 1317q0 -37 -30.5 -65.5t-71.5 -28.5q-40 0 -69.5 28.5t-29.5 65.5q0 39 30 68.5t69 29.5q41 0 71.5 -29t30.5 -69zM844 145l24 -100q-147 -65 -323 -65q-205 0 -325 136t-120 384q0 252 136.5 395t371.5 143q140 0 260 -34q-3 -65 -41 -109q-37 13 -98 25t-104 12
q-85 0 -153 -23t-113.5 -63t-76 -95.5t-44 -117.5t-13.5 -133q0 -190 89 -302t276 -112q116 0 254 59z" />
    <glyph glyph-name="Ccaron" unicode="&#x10c;" horiz-adv-x="1308" 
d="M758 1503q-22 -6 -52.5 -6t-50.5 6l-194 228q12 17 38.5 31t53.5 14l154 -191l151 191q29 0 55.5 -14t38.5 -31zM725 88q256 0 428 172l68 -86q-175 -194 -496 -194q-136 0 -249.5 46t-195.5 133t-128 218.5t-46 294.5q0 318 170 501t449 183q161 0 287.5 -54t210.5 -153
q-4 -32 -30 -55t-58 -31q-57 85 -163.5 133.5t-246.5 48.5q-230 0 -362 -152t-132 -421q0 -276 133 -430t361 -154z" />
    <glyph glyph-name="ccaron" unicode="&#x10d;" horiz-adv-x="944" 
d="M692 1450q29 0 55.5 -14t38.5 -31l-194 -227q-22 -6 -52.5 -6t-50.5 6l-194 227q12 17 38.5 31t53.5 14l154 -193zM844 145l24 -100q-147 -65 -323 -65q-205 0 -325 136t-120 384q0 252 136.5 395t371.5 143q140 0 260 -34q-3 -65 -41 -109q-37 13 -98 25t-104 12
q-85 0 -153 -23t-113.5 -63t-76 -95.5t-44 -117.5t-13.5 -133q0 -190 89 -302t276 -112q116 0 254 59z" />
    <glyph glyph-name="Dcaron" unicode="&#x10e;" horiz-adv-x="1357" 
d="M715 1503q-22 -6 -52.5 -6t-50.5 6l-194 228q12 17 38.5 31t53.5 14l154 -191l151 191q29 0 55.5 -14t38.5 -31zM539 1356q340 0 527 -180.5t187 -489.5q0 -320 -198.5 -502t-538.5 -184h-323v1315q201 41 346 41zM516 106q295 0 453.5 146.5t158.5 433.5
q0 269 -149.5 413t-425.5 144q-153 0 -238 -24v-1113h201z" />
    <glyph glyph-name="dcaron" unicode="&#x10f;" horiz-adv-x="1130" 
d="M1036 1501q59 0 87 -17.5t28 -62.5q0 -49 -12 -169t-25 -187q-48 0 -78 10v426zM836 958v414q21 16 58 28.5t60 12.5v-1413q-37 0 -71 20t-47 50v10q-67 -42 -155 -71t-179 -29q-133 0 -224.5 62.5t-134.5 169.5t-43 251q0 267 123 421t320 154q176 0 293 -80zM551 84
q154 0 285 57v725q-50 28 -119 46t-131 18q-97 0 -169 -34.5t-114 -97.5t-62 -145t-20 -184q0 -197 87 -291t243 -94z" />
    <glyph glyph-name="Dcroat" unicode="&#x110;" horiz-adv-x="1359" 
d="M539 1356q340 0 527 -180.5t187 -489.5q0 -320 -198.5 -502t-538.5 -184h-323v614h-152q11 51 31 77t69 26h52v598q201 41 346 41zM516 106q295 0 453.5 146.5t158.5 433.5q0 269 -149.5 413t-425.5 144q-153 0 -238 -24v-502h430q-7 -103 -77 -103h-353v-508h201z" />
    <glyph glyph-name="dcroat" unicode="&#x111;" horiz-adv-x="1101" 
d="M954 1284h119q-3 -44 -17.5 -68t-51.5 -24h-50v-1192q-37 0 -71 20t-47 50v10q-67 -42 -155 -71t-179 -29q-133 0 -224.5 62.5t-134.5 169.5t-43 251q0 267 123 421t320 154q176 0 293 -80v234h-218q13 46 33 69t68 23h117v88q21 16 58 28.5t60 12.5v-129zM551 84
q154 0 285 57v725q-50 28 -119 46t-131 18q-97 0 -169 -34.5t-114 -97.5t-62 -145t-20 -184q0 -197 87 -291t243 -94z" />
    <glyph glyph-name="Emacron" unicode="&#x112;" horiz-adv-x="1077" 
d="M387 1706h461v-104h-461v104zM961 1229h-646v-506h543q0 -59 -22 -107h-521v-510h646v-106h-768v1335h768v-106z" />
    <glyph glyph-name="emacron" unicode="&#x113;" horiz-adv-x="1048" 
d="M313 1380h461v-104h-461v104zM938 483h-717v-6q0 -178 91.5 -285.5t254.5 -107.5q74 0 156.5 17t140.5 44q40 -28 49 -94q-168 -74 -356 -74q-215 0 -336 137.5t-121 362.5q0 267 122 414t331 147q183 0 289 -121.5t106 -330.5q0 -45 -10 -103zM539 938
q-129 0 -211.5 -87.5t-100.5 -272.5h592q2 4 2 20q0 168 -76 254t-206 86z" />
    <glyph glyph-name="Edotaccent" unicode="&#x116;" horiz-adv-x="1077" 
d="M719 1642q0 -37 -31 -65.5t-72 -28.5q-39 0 -68.5 28.5t-29.5 65.5q0 39 29.5 69t68.5 30q41 0 72 -29.5t31 -69.5zM961 1229h-646v-506h543q0 -59 -22 -107h-521v-510h646v-106h-768v1335h768v-106z" />
    <glyph glyph-name="edotaccent" unicode="&#x117;" horiz-adv-x="1048" 
d="M647 1317q0 -37 -30.5 -65.5t-71.5 -28.5q-40 0 -69.5 28.5t-29.5 65.5q0 39 30 68.5t69 29.5q41 0 71.5 -29t30.5 -69zM938 483h-717v-6q0 -178 91.5 -285.5t254.5 -107.5q74 0 156.5 17t140.5 44q40 -28 49 -94q-168 -74 -356 -74q-215 0 -336 137.5t-121 362.5
q0 267 122 414t331 147q183 0 289 -121.5t106 -330.5q0 -45 -10 -103zM539 938q-129 0 -211.5 -87.5t-100.5 -272.5h592q2 4 2 20q0 168 -76 254t-206 86z" />
    <glyph glyph-name="Eogonek" unicode="&#x118;" horiz-adv-x="1077" 
d="M985 -291q28 -40 25 -86q-37 -29 -119 -29q-79 0 -125.5 41t-46.5 119q0 64 41 131t106 115h-673v1335h768v-106h-646v-506h543q0 -59 -22 -107h-521v-510h646v-106q-74 -45 -113 -105t-39 -124q0 -90 94 -90q43 0 82 28z" />
    <glyph glyph-name="eogonek" unicode="&#x119;" horiz-adv-x="1048" 
d="M938 483h-717v-6q0 -178 91.5 -285.5t254.5 -107.5q74 0 156.5 17t140.5 44q40 -28 49 -94q-66 -29 -145 -49q-73 -45 -111.5 -104.5t-38.5 -122.5q0 -90 95 -90q43 0 82 28q27 -38 24 -86q-36 -28 -119 -28q-79 0 -125.5 41t-46.5 118q0 57 32.5 117t86.5 107
q-73 -5 -90 -5q-215 0 -336 137.5t-121 362.5q0 267 122 414t331 147q183 0 289 -121.5t106 -330.5q0 -45 -10 -103zM539 938q-129 0 -211.5 -87.5t-100.5 -272.5h592q2 4 2 20q0 168 -76 254t-206 86z" />
    <glyph glyph-name="Ecaron" unicode="&#x11a;" horiz-adv-x="1077" 
d="M668 1503q-22 -6 -52.5 -6t-50.5 6l-194 228q12 17 38.5 31t53.5 14l153 -191l152 191q29 0 55.5 -14t38.5 -31zM961 1229h-646v-506h543q0 -59 -22 -107h-521v-510h646v-106h-768v1335h768v-106z" />
    <glyph glyph-name="ecaron" unicode="&#x11b;" horiz-adv-x="1048" 
d="M594 1178q-22 -6 -52 -6t-50 6l-195 227q12 17 38.5 31t53.5 14l154 -193l151 193q29 0 55.5 -14t38.5 -31zM938 483h-717v-6q0 -178 91.5 -285.5t254.5 -107.5q74 0 156.5 17t140.5 44q40 -28 49 -94q-168 -74 -356 -74q-215 0 -336 137.5t-121 362.5q0 267 122 414
t331 147q183 0 289 -121.5t106 -330.5q0 -48 -10 -103zM539 938q-129 0 -212 -87.5t-102 -272.5h594q2 6 2 20q0 168 -76 254t-206 86z" />
    <glyph glyph-name="Gbreve" unicode="&#x11e;" horiz-adv-x="1368" 
d="M705 1516q-71 0 -126 23t-86.5 61t-47.5 81.5t-17 90.5q52 17 104 0q4 -64 45.5 -114t129.5 -50q46 0 80 17t51 43.5t25 52t9 51.5q52 17 105 0q-1 -46 -16.5 -89.5t-46 -82t-84.5 -61.5t-125 -23zM1139 606q52 45 123 21v-453q-86 -94 -225 -144t-312 -50
q-136 0 -249.5 46t-195.5 133t-128 218.5t-46 294.5q0 318 170 500t449 182q163 0 291 -54t211 -153q-22 -70 -88 -86q-126 184 -414 184q-229 0 -361.5 -152.5t-132.5 -420.5q0 -276 133 -430t361 -154q253 0 414 117v401z" />
    <glyph glyph-name="gbreve" unicode="&#x11f;" horiz-adv-x="1130" 
d="M575 1190q-71 0 -126 23t-86.5 61t-47 81.5t-16.5 90.5q52 17 104 0q4 -64 45.5 -114t129.5 -50q46 0 80 17t51 43.5t25 52t9 51.5q53 17 105 0q-1 -46 -16.5 -89.5t-46.5 -82t-85 -61.5t-125 -23zM840 950q16 31 48.5 48.5t65.5 17.5v-1034q0 -37 -2 -66.5t-11 -72
t-25 -75.5t-45.5 -68t-70.5 -57.5t-103 -37.5t-140 -15q-179 0 -317 60q0 62 32 102q158 -59 285 -59q153 0 216 70.5t63 216.5v133q-70 -51 -159 -86t-175 -35q-196 0 -299 132.5t-103 344.5q0 265 126.5 417t330.5 152q88 0 161.5 -24t121.5 -64zM551 98q162 0 285 86v678
q-120 68 -242 68q-99 0 -172.5 -34t-116.5 -96t-63.5 -141t-20.5 -176q0 -385 330 -385z" />
    <glyph glyph-name="Gdotaccent" unicode="&#x120;" horiz-adv-x="1368" 
d="M705 1548q-40 0 -69.5 28.5t-29.5 65.5q0 39 30 69t69 30q41 0 71.5 -29.5t30.5 -69.5q0 -37 -30.5 -65.5t-71.5 -28.5zM1139 606q52 45 123 21v-453q-86 -94 -225 -144t-312 -50q-136 0 -249.5 46t-195.5 133t-128 218.5t-46 294.5q0 318 170 500t449 182q163 0 291 -54
t211 -153q-22 -70 -88 -86q-126 184 -414 184q-229 0 -361.5 -152.5t-132.5 -420.5q0 -276 133 -430t361 -154q253 0 414 117v401z" />
    <glyph glyph-name="gdotaccent" unicode="&#x121;" horiz-adv-x="1130" 
d="M575 1223q-39 0 -68.5 28.5t-29.5 65.5q0 39 29.5 68.5t68.5 29.5q41 0 72 -29t31 -69q0 -37 -31 -65.5t-72 -28.5zM840 950q16 31 48.5 48.5t65.5 17.5v-1034q0 -37 -2 -66.5t-11 -72t-25 -75.5t-45.5 -68t-70.5 -57.5t-103 -37.5t-140 -15q-179 0 -317 60q0 62 32 102
q158 -59 285 -59q153 0 216 70.5t63 216.5v133q-70 -51 -159 -86t-175 -35q-196 0 -299 132.5t-103 344.5q0 265 126.5 417t330.5 152q88 0 161.5 -24t121.5 -64zM551 98q162 0 285 86v678q-120 68 -242 68q-99 0 -172.5 -34t-116.5 -96t-63.5 -141t-20.5 -176
q0 -385 330 -385z" />
    <glyph glyph-name="uni0122" unicode="&#x122;" horiz-adv-x="1368" 
d="M1139 606q52 45 123 21v-453q-86 -94 -225 -144t-312 -50q-136 0 -249.5 46t-195.5 133t-128 218.5t-46 294.5q0 318 170 500t449 182q163 0 291 -54t211 -153q-22 -70 -88 -86q-126 184 -414 184q-229 0 -361.5 -152.5t-132.5 -420.5q0 -276 133 -430t361 -154
q253 0 414 117v401zM764 -127q49 0 79.5 -35t30.5 -84q0 -77 -45 -148t-110 -112q-15 1 -32 14.5t-25 28.5q89 61 108 146h-4q-44 0 -71 27t-27 67q0 37 27 66.5t69 29.5z" />
    <glyph glyph-name="uni0123" unicode="&#x123;" horiz-adv-x="1130" 
d="M567 1217q-50 0 -79 34.5t-29 85.5q0 76 45.5 147.5t109.5 110.5q15 -2 33 -14.5t25 -28.5q-90 -58 -109 -143h4q44 0 71.5 -28t27.5 -68q0 -37 -28 -66.5t-71 -29.5zM840 950q16 31 48.5 48.5t65.5 17.5v-1034q0 -37 -2 -66.5t-11 -72t-25 -75.5t-45.5 -68t-70.5 -57.5
t-103 -37.5t-140 -15q-179 0 -317 60q0 62 32 102q158 -59 285 -59q153 0 216 70.5t63 216.5v133q-70 -51 -159 -86t-175 -35q-196 0 -299 132.5t-103 344.5q0 265 126.5 417t330.5 152q88 0 161.5 -24t121.5 -64zM551 98q162 0 285 86v678q-120 68 -242 68
q-99 0 -172.5 -34t-116.5 -96t-63.5 -141t-20.5 -176q0 -385 330 -385z" />
    <glyph glyph-name="Imacron" unicode="&#x12a;" horiz-adv-x="507" 
d="M25 1704h460v-105h-460v105zM315 0h-122v1335q61 18 122 0v-1335z" />
    <glyph glyph-name="imacron" unicode="&#x12b;" horiz-adv-x="468" 
d="M6 1380h461v-104h-461v104zM176 0v1014q25 14 59 14t60 -14v-1014h-119z" />
    <glyph glyph-name="Iogonek" unicode="&#x12e;" horiz-adv-x="507" 
d="M338 -291q27 -38 24 -86q-37 -29 -118 -29q-79 0 -125.5 41t-46.5 119q0 64 41 131t106 115h-26v1335q61 18 122 0v-1335h-2q-74 -44 -112.5 -104.5t-38.5 -124.5q0 -90 94 -90q43 0 82 28z" />
    <glyph glyph-name="iogonek" unicode="&#x12f;" horiz-adv-x="468" 
d="M236 1223q-40 0 -69.5 28.5t-29.5 65.5q0 39 29.5 68.5t69.5 29.5q41 0 71.5 -29t30.5 -69q0 -37 -30.5 -65.5t-71.5 -28.5zM317 -289q28 -40 25 -86q-36 -28 -119 -28q-79 0 -125.5 41t-46.5 118q0 63 40 129.5t104 114.5h-19v1014q25 14 59 14t60 -14v-1014h-6
q-73 -45 -110.5 -104.5t-37.5 -122.5q0 -90 95 -90q42 0 81 28z" />
    <glyph glyph-name="Idotaccent" unicode="&#x130;" horiz-adv-x="507" 
d="M356 1640q0 -37 -30.5 -65.5t-71.5 -28.5q-39 0 -68.5 28.5t-29.5 65.5q0 39 29.5 69t68.5 30q41 0 71.5 -29.5t30.5 -69.5zM315 0h-122v1335q61 18 122 0v-1335z" />
    <glyph glyph-name="dotlessi" unicode="&#x131;" horiz-adv-x="468" 
d="M176 0v1014q25 14 59 14t60 -14v-1014h-119z" />
    <glyph glyph-name="IJ" unicode="&#x132;" horiz-adv-x="1148" 
d="M834 1341q61 21 122 0v-1132q0 -168 -71.5 -255t-194.5 -87q-93 0 -174 31q3 63 37 106q79 -24 143 -24q138 0 138 200v1161zM315 0h-122v1335q61 18 122 0v-1335z" />
    <glyph glyph-name="ij" unicode="&#x133;" horiz-adv-x="940" 
d="M233 1229q-39 0 -68.5 28.5t-29.5 65.5q0 39 29.5 68.5t68.5 29.5q41 0 72 -29t31 -69q0 -37 -31 -65.5t-72 -28.5zM707 1229q-40 0 -70.5 28.5t-30.5 65.5q0 38 30.5 68t70.5 30t70 -29t30 -69q0 -37 -30 -65.5t-70 -28.5zM176 0v1014q25 14 59 14t60 -14v-1014h-119z
M530 -471q-22 4 -45 33t-28 57q84 64 137 165.5t53 221.5v1008q26 14 59.5 14t59.5 -14v-959q0 -188 -69 -328.5t-167 -197.5z" />
    <glyph glyph-name="uni0136" unicode="&#x136;" horiz-adv-x="1161" 
d="M444 684l672 -684h-174l-627 645v-645h-122v1335q61 15 122 0v-626l586 626q79 16 162 0zM627 -127q49 0 79.5 -35t30.5 -84q0 -77 -45 -148t-110 -112q-15 1 -32.5 14.5t-25.5 28.5q90 62 109 146h-4q-45 0 -72 27.5t-27 66.5q0 37 27.5 66.5t69.5 29.5z" />
    <glyph glyph-name="uni0137" unicode="&#x137;" horiz-adv-x="1013" 
d="M418 582l581 -582h-155l-549 549v-549h-119v1370q19 18 56.5 30.5t62.5 12.5v-803l450 406q76 17 152 0zM561 -127q49 0 80 -35t31 -84q0 -77 -45.5 -148t-110.5 -112q-15 1 -32 14.5t-25 28.5q89 61 108 146h-4q-44 0 -71 27t-27 67q0 37 27 66.5t69 29.5z" />
    <glyph glyph-name="Lacute" unicode="&#x139;" horiz-adv-x="1009" 
d="M430 1694l-164 -217l-57 32l219 340l18 -8q43 -21 43 -49q-3 -29 -59 -98zM315 106h625v-106h-747v1335q61 18 122 0v-1229z" />
    <glyph glyph-name="lacute" unicode="&#x13a;" horiz-adv-x="468" 
d="M262 1608l-57 32l219 340l18 -8q43 -21 43 -49q-3 -29 -59 -98zM176 0v1370q19 18 56.5 30.5t62.5 12.5v-1413h-119z" />
    <glyph glyph-name="uni013B" unicode="&#x13b;" horiz-adv-x="1009" 
d="M315 106h625v-106h-747v1335q61 18 122 0v-1229zM580 -127q49 0 79.5 -35t30.5 -84q0 -77 -45 -148t-110 -112q-15 1 -32.5 14.5t-25.5 28.5q90 62 109 146h-4q-44 0 -71.5 27.5t-27.5 66.5q0 37 27.5 66.5t69.5 29.5z" />
    <glyph glyph-name="uni013C" unicode="&#x13c;" horiz-adv-x="468" 
d="M176 0v1370q19 18 56.5 30.5t62.5 12.5v-1413h-119zM233 -127q49 0 80 -35t31 -84q0 -77 -45.5 -148t-110.5 -112q-15 1 -32 14.5t-25 28.5q91 63 109 146h-4q-44 0 -71.5 27.5t-27.5 66.5q0 37 27 66.5t69 29.5z" />
    <glyph glyph-name="Lcaron" unicode="&#x13d;" horiz-adv-x="1009" 
d="M305 1503q-22 -6 -52 -6t-50 6l-195 228q12 17 38.5 31t53.5 14l154 -191l152 191q29 0 55.5 -14t38.5 -31zM315 106h625v-106h-747v1335q61 18 122 0v-1229z" />
    <glyph glyph-name="lcaron" unicode="&#x13e;" horiz-adv-x="468" 
d="M465 1065q-48 0 -78 10v426q59 0 87 -17.5t28 -62.5q0 -49 -12 -169t-25 -187zM176 0v1370q19 18 56.5 30.5t62.5 12.5v-1413h-119z" />
    <glyph glyph-name="Lslash" unicode="&#x141;" horiz-adv-x="995" 
d="M315 106h625v-106h-747v526l-144 -71q-8 24 -8 41q0 67 63 98l89 45v696q61 18 122 0v-635l340 170q9 -32 9 -45q0 -65 -68 -100l-281 -139v-480z" />
    <glyph glyph-name="lslash" unicode="&#x142;" horiz-adv-x="468" 
d="M432 895q21 -32 21 -74q0 -35 -39 -71l-119 -119v-631h-119v512l-98 -98q-21 32 -21 71q0 35 39 74l80 80v731q19 18 56.5 30.5t62.5 12.5v-655z" />
    <glyph glyph-name="Nacute" unicode="&#x143;" horiz-adv-x="1449" 
d="M905 1694l-164 -217l-57 32l219 340l19 -8q43 -21 43 -49q-3 -28 -60 -98zM1135 1335h122v-1335q-61 -18 -122 0l-824 1126l4 -178v-948h-122v1335q61 15 122 0l824 -1134l-4 145v989z" />
    <glyph glyph-name="nacute" unicode="&#x144;" horiz-adv-x="1116" 
d="M754 1368l-164 -217l-58 33l220 340l18 -8q43 -21 43 -50q-3 -29 -59 -98zM618 1028q343 0 343 -358v-670h-119v647q0 139 -70.5 207t-218.5 68q-130 0 -258 -76v-846h-119v1016q100 0 115 -86q58 41 146 69.5t181 28.5z" />
    <glyph glyph-name="uni0145" unicode="&#x145;" horiz-adv-x="1449" 
d="M1135 1335h122v-1335q-61 -18 -122 0l-824 1126l4 -178v-948h-122v1335q61 15 122 0l824 -1134l-4 145v989zM754 -127q49 0 79.5 -35t30.5 -84q0 -77 -45 -148t-110 -112q-15 1 -32.5 14.5t-25.5 28.5q90 62 109 146h-4q-44 0 -71.5 27.5t-27.5 66.5q0 37 27.5 66.5
t69.5 29.5z" />
    <glyph glyph-name="uni0146" unicode="&#x146;" horiz-adv-x="1116" 
d="M618 1028q343 0 343 -358v-670h-119v647q0 139 -70.5 207t-218.5 68q-130 0 -258 -76v-846h-119v1016q100 0 115 -86q58 41 146 69.5t181 28.5zM582 -127q49 0 79.5 -35t30.5 -84q0 -77 -45 -148t-110 -112q-15 1 -32.5 14.5t-25.5 28.5q91 63 109 146h-4
q-44 0 -71.5 27.5t-27.5 66.5q0 37 27.5 66.5t69.5 29.5z" />
    <glyph glyph-name="Ncaron" unicode="&#x147;" horiz-adv-x="1449" 
d="M778 1503q-22 -6 -52 -6t-50 6l-195 228q12 17 38.5 31t53.5 14l154 -191l152 191q29 0 55.5 -14t38.5 -31zM1135 1335h122v-1335q-61 -18 -122 0l-824 1126l4 -178v-948h-122v1335q61 15 122 0l824 -1134l-4 145v989z" />
    <glyph glyph-name="ncaron" unicode="&#x148;" horiz-adv-x="1116" 
d="M629 1178q-22 -6 -52.5 -6t-50.5 6l-194 227q12 17 38.5 31t53.5 14l154 -193l151 193q29 0 55.5 -14t38.5 -31zM618 1028q343 0 343 -358v-670h-119v647q0 139 -70.5 207t-218.5 68q-130 0 -258 -76v-846h-119v1016q100 0 115 -86q58 41 146 69.5t181 28.5z" />
    <glyph glyph-name="Eng" unicode="&#x14a;" horiz-adv-x="1474" 
d="M1257 10v-10q-1 -98 -12 -161.5t-38.5 -114.5t-77.5 -78.5t-125.5 -41.5t-186.5 -14q7 73 41 109q63 0 99 2.5t71 13.5t52 29t31 53.5t18.5 82.5t5.5 120l-824 1126l4 -178v-948h-122v1335q61 15 122 0l824 -1134l-4 145v989h122v-1292v-33z" />
    <glyph glyph-name="eng" unicode="&#x14b;" horiz-adv-x="1171" 
d="M961 16q2 -84 -3 -141.5t-20 -110.5t-44 -85t-76 -56.5t-115 -34.5t-162 -10q10 65 51 109q59 0 93 2.5t66.5 14t47 30.5t26.5 56t15.5 85.5t3.5 124.5h-2v647q0 139 -70.5 207t-218.5 68q-130 0 -258 -76v-846h-119v1016q100 0 115 -86q58 41 146 69.5t181 28.5
q343 0 343 -358v-654z" />
    <glyph glyph-name="Omacron" unicode="&#x14c;" horiz-adv-x="1464" 
d="M504 1706h461v-104h-461v104zM733 -20q-287 0 -457 187t-170 501t170 501t457 187t457 -187t170 -501t-170 -501t-457 -187zM733 88q237 0 368.5 152t131.5 428t-131.5 426.5t-368.5 150.5t-368.5 -150.5t-131.5 -426.5t131.5 -428t368.5 -152z" />
    <glyph glyph-name="omacron" unicode="&#x14d;" horiz-adv-x="1159" 
d="M350 1380h461v-104h-461v104zM580 -20q-218 0 -349 144t-131 382q0 236 131.5 384t348.5 148t348 -147.5t131 -384.5q0 -239 -130.5 -382.5t-348.5 -143.5zM580 88q168 0 263 109t95 309q0 198 -95 311t-263 113q-167 0 -263 -113t-96 -311q0 -200 94.5 -309t264.5 -109z
" />
    <glyph glyph-name="Ohungarumlaut" unicode="&#x150;" horiz-adv-x="1464" 
d="M586 1440l-64 20l137 379l21 -4q49 -11 53 -39q6 -23 -35 -108zM836 1442l-54 39l252 315l19 -10q41 -22 37 -53q-3 -25 -68 -93zM733 -20q-287 0 -457 187t-170 501t170 501t457 187t457 -187t170 -501t-170 -501t-457 -187zM733 88q237 0 368.5 152t131.5 428
t-131.5 426.5t-368.5 150.5t-368.5 -150.5t-131.5 -426.5t131.5 -428t368.5 -152z" />
    <glyph glyph-name="ohungarumlaut" unicode="&#x151;" horiz-adv-x="1159" 
d="M432 1114l-63 21l137 378l20 -4q50 -11 54 -39q6 -23 -35 -108zM682 1116l-53 39l252 315l18 -10q41 -22 37 -53q-3 -24 -68 -92zM580 -20q-218 0 -349 144t-131 382q0 236 131.5 384t348.5 148t348 -147.5t131 -384.5q0 -239 -130.5 -382.5t-348.5 -143.5zM580 88
q168 0 263 109t95 309q0 198 -95 311t-263 113q-167 0 -263 -113t-96 -311q0 -200 94.5 -309t264.5 -109z" />
    <glyph glyph-name="OE" unicode="&#x152;" horiz-adv-x="1923" 
d="M1806 1229h-645v-506h543q0 -58 -25 -107h-518v-510h645v-106h-768v2q-126 -22 -280 -22q-299 0 -475.5 188t-176.5 502q0 316 179 501t485 185q161 0 268 -21h768v-106zM758 88q177 0 280 33v1081q-99 45 -280 45q-253 0 -390 -148.5t-137 -428.5q0 -276 138 -429
t389 -153z" />
    <glyph glyph-name="oe" unicode="&#x153;" horiz-adv-x="1857" 
d="M1747 483h-717v-6q0 -178 91.5 -285.5t254.5 -107.5q74 0 156.5 17t140.5 44q40 -28 49 -94q-188 -74 -356 -74q-143 0 -244.5 66t-152.5 184q-56 -119 -160 -183t-242 -64q-214 0 -340.5 144t-126.5 388q0 236 128 381t339 145q141 0 246.5 -69t161.5 -193
q52 127 152 194.5t235 67.5q182 0 288.5 -122t106.5 -330q0 -48 -10 -103zM1348 936q-128 0 -211.5 -87t-102.5 -271h596v26q0 164 -76 248t-206 84zM567 88q164 0 254 107.5t90 316.5q0 198 -90 308t-254 110q-163 0 -254.5 -110t-91.5 -308q0 -210 89 -317t257 -107z" />
    <glyph glyph-name="Racute" unicode="&#x154;" horiz-adv-x="1159" 
d="M702 1694l-163 -217l-58 32l219 340l19 -8q43 -21 43 -49q-3 -28 -60 -98zM1081 0h-143l-328 520q-50 -4 -78 -4h-217v-516h-122v1319q167 37 319 37q128 0 228 -35t158.5 -93t88 -127.5t29.5 -144.5q0 -140 -77.5 -248.5t-209.5 -158.5zM487 623q205 0 304.5 90
t99.5 243q0 291 -399 291q-102 0 -177 -16v-608h172z" />
    <glyph glyph-name="racute" unicode="&#x155;" horiz-adv-x="698" 
d="M571 1368l-163 -217l-58 33l219 340l19 -8q43 -21 43 -50q-3 -28 -60 -98zM627 1028q12 -21 12 -55q0 -39 -12 -66q-37 6 -74 6q-63 0 -141.5 -41.5t-116.5 -105.5v-766h-119v1016q71 0 95 -36.5t24 -94.5q55 73 142 108t171 35h19z" />
    <glyph glyph-name="uni0156" unicode="&#x156;" horiz-adv-x="1159" 
d="M729 549l352 -549h-143l-328 520q-50 -4 -78 -4h-217v-516h-122v1319q167 37 319 37q128 0 228 -35t158.5 -93t88 -127.5t29.5 -144.5q0 -140 -77.5 -248.5t-209.5 -158.5zM487 623q205 0 304.5 90t99.5 243q0 291 -399 291q-102 0 -177 -16v-608h172zM606 -127
q49 0 80 -35t31 -84q0 -77 -45.5 -148t-110.5 -112q-15 1 -32 14.5t-25 28.5q89 61 108 146h-4q-44 0 -71 27t-27 67q0 37 27 66.5t69 29.5z" />
    <glyph glyph-name="uni0157" unicode="&#x157;" horiz-adv-x="698" 
d="M627 1028q12 -21 12 -55q0 -39 -12 -66q-37 6 -74 6q-63 0 -141.5 -41.5t-116.5 -105.5v-766h-119v1016q71 0 95 -36.5t24 -94.5q55 73 142 108t171 35h19zM233 -127q49 0 80 -35t31 -84q0 -77 -45.5 -148t-110.5 -112q-15 1 -32 14.5t-25 28.5q91 63 109 146h-4
q-44 0 -71.5 27.5t-27.5 66.5q0 37 27 66.5t69 29.5z" />
    <glyph glyph-name="Rcaron" unicode="&#x158;" horiz-adv-x="1159" 
d="M578 1503q-22 -6 -52.5 -6t-50.5 6l-194 228q12 17 38.5 31t53.5 14l153 -191l152 191q29 0 55.5 -14t38.5 -31zM1081 0h-143l-328 520q-50 -4 -78 -4h-217v-516h-122v1319q167 37 319 37q128 0 228 -35t158.5 -93t88 -127.5t29.5 -144.5q0 -140 -77.5 -248.5
t-209.5 -158.5zM487 623q205 0 304.5 90t99.5 243q0 291 -399 291q-102 0 -177 -16v-608h172z" />
    <glyph glyph-name="rcaron" unicode="&#x159;" horiz-adv-x="698" 
d="M446 1178q-22 -6 -52 -6t-50 6l-194 227q12 17 38.5 31t53.5 14l153 -193l152 193q29 0 55.5 -14t38.5 -31zM608 1028h19q12 -21 12 -55q0 -39 -12 -66q-37 6 -74 6q-63 0 -141.5 -41.5t-116.5 -105.5v-766h-119v1016q71 0 95 -36.5t24 -94.5q55 73 142 108t171 35z" />
    <glyph glyph-name="Sacute" unicode="&#x15a;" horiz-adv-x="1058" 
d="M545 1477l-58 32l220 340l18 -8q43 -21 43 -49q-3 -29 -59 -98zM868 1200q-161 51 -286 51q-147 0 -222 -58.5t-75 -164.5q0 -96 62.5 -155.5t219.5 -120.5q207 -79 289 -168.5t82 -231.5q0 -119 -62 -205.5t-166 -129t-237 -42.5q-178 0 -340 54q-18 59 14 116
q197 -61 324 -61q157 0 246.5 69t89.5 195q0 99 -67.5 165t-243.5 138q-182 72 -261 155t-79 204q0 167 115 258.5t329 91.5q129 0 281 -41q12 -22 8 -56t-21 -63z" />
    <glyph glyph-name="sacute" unicode="&#x15b;" horiz-adv-x="876" 
d="M420 1151l-58 33l220 340l18 -8q43 -21 43 -50q-3 -29 -59 -98zM125 129q162 -49 272 -49q103 0 174.5 50t71.5 128q0 42 -14.5 73t-49.5 56t-74 43t-108 43q-134 51 -201 119t-67 164q0 141 100.5 211.5t270.5 70.5q69 0 140 -12t103 -27q0 -48 -26 -102
q-106 39 -203 39q-264 0 -264 -166q0 -64 46.5 -113t168.5 -92q170 -62 235.5 -127.5t65.5 -165.5q0 -145 -108 -220t-275 -75q-130 0 -258 35q-10 23 -10 60q0 40 10 57z" />
    <glyph glyph-name="Scedilla" unicode="&#x15e;" horiz-adv-x="1058" 
d="M938 352q0 -155 -101.5 -251t-267.5 -119l-59 -121q19 8 49 8q75 0 125.5 -43.5t50.5 -118.5q0 -88 -68 -137t-173 -49q-73 0 -138 14q0 57 13 80q77 -21 141 -21q68 0 105.5 31t37.5 78q0 41 -30 67.5t-97 26.5q-42 0 -82 -16q-14 5 -26.5 19t-11.5 30l73 145h-6
q-178 0 -340 54q-18 59 14 116q197 -61 324 -61q157 0 246.5 69t89.5 195q0 99 -67.5 165t-243.5 138q-182 72 -261 155t-79 204q0 167 115 258.5t329 91.5q129 0 281 -41q12 -22 8 -56t-21 -63q-161 51 -286 51q-147 0 -222 -58.5t-75 -164.5q0 -96 62.5 -155.5
t219.5 -120.5q207 -79 289 -168.5t82 -231.5z" />
    <glyph glyph-name="scedilla" unicode="&#x15f;" horiz-adv-x="876" 
d="M766 272q0 -119 -74 -191t-198 -93l-62 -127q28 8 49 8q75 0 125.5 -43.5t50.5 -118.5q0 -88 -68 -137t-173 -49q-72 0 -137 14q0 58 12 80q77 -21 141 -21q68 0 105.5 31t37.5 78q0 41 -29.5 67.5t-96.5 26.5q-42 0 -82 -16q-14 5 -27 19t-12 30l73 147h-18
q-130 0 -258 35q-10 23 -10 60q0 40 10 57q162 -49 272 -49q103 0 174.5 50t71.5 128q0 42 -14.5 73t-49.5 56t-74 43t-108 43q-134 51 -201 119t-67 164q0 141 100.5 211.5t270.5 70.5q69 0 140 -12t103 -27q0 -48 -26 -102q-106 39 -203 39q-264 0 -264 -166
q0 -64 46.5 -113t168.5 -92q170 -62 235.5 -127.5t65.5 -165.5z" />
    <glyph glyph-name="Scaron" unicode="&#x160;" horiz-adv-x="1058" 
d="M582 1503q-22 -6 -52.5 -6t-50.5 6l-194 228q12 17 38.5 31t53.5 14l153 -191l152 191q29 0 55.5 -14t38.5 -31zM567 752q207 -79 289 -168.5t82 -231.5q0 -119 -62 -205.5t-166 -129t-237 -42.5q-178 0 -340 54q-18 59 14 116q197 -61 324 -61q157 0 246.5 69t89.5 195
q0 99 -67.5 165t-243.5 138q-182 72 -261 155t-79 204q0 167 115 258.5t329 91.5q129 0 281 -41q12 -22 8 -56t-21 -63q-161 51 -286 51q-147 0 -222 -58.5t-75 -164.5q0 -96 62.5 -155.5t219.5 -120.5z" />
    <glyph glyph-name="scaron" unicode="&#x161;" horiz-adv-x="876" 
d="M559 1450q29 0 55.5 -14t38.5 -31l-194 -227q-22 -6 -52.5 -6t-50.5 6l-194 227q12 17 38.5 31t53.5 14l154 -193zM125 129q162 -49 272 -49q103 0 174.5 50t71.5 128q0 42 -14.5 73t-49.5 56t-74 43t-108 43q-134 51 -201 119t-67 164q0 141 100.5 211.5t270.5 70.5
q69 0 140 -12t103 -27q0 -48 -26 -102q-106 39 -203 39q-264 0 -264 -166q0 -64 46.5 -113t168.5 -92q170 -62 235.5 -127.5t65.5 -165.5q0 -145 -108 -220t-275 -75q-130 0 -258 35q-10 23 -10 60q0 40 10 57z" />
    <glyph glyph-name="uni0162" unicode="&#x162;" horiz-adv-x="1026" 
d="M575 0h-14l-67 -139q19 8 49 8q75 0 125.5 -43.5t50.5 -118.5q0 -88 -68.5 -137t-173.5 -49q-72 0 -137 14q0 58 12 80q77 -21 142 -21q68 0 105.5 31t37.5 78q0 41 -30 67.5t-97 26.5q-42 0 -82 -16q-14 5 -27 19t-12 30l86 170h-22v1229h-408q0 68 25 106h911
q0 -60 -25 -106h-381v-1229z" />
    <glyph glyph-name="uni0163" unicode="&#x163;" horiz-adv-x="759" 
d="M463 -131q75 0 125.5 -43.5t50.5 -118.5q0 -88 -68.5 -137t-173.5 -49q-72 0 -137 14q0 58 12 80q77 -21 142 -21q68 0 105.5 31t37.5 78q0 41 -30 67.5t-97 26.5q-42 0 -82 -16q-14 5 -27 19t-12 30l78 154q-92 18 -137 79.5t-45 184.5v670h-121q0 72 76.5 154.5
t163.5 94.5v-149h329q0 -63 -37 -100h-292v-639q0 -107 39 -150t133 -43q59 0 137 18q33 -26 33 -98q-56 -29 -195 -29l-57 -116q28 8 49 8z" />
    <glyph glyph-name="Tcaron" unicode="&#x164;" horiz-adv-x="1026" 
d="M565 1501q-22 -6 -52 -6t-50 6l-195 228q12 17 38.5 31t53.5 14l154 -191l152 191q29 0 55.5 -14t38.5 -31zM981 1335q0 -60 -25 -106h-381v-1229h-122v1229h-408q0 68 25 106h911z" />
    <glyph glyph-name="tcaron" unicode="&#x165;" horiz-adv-x="759" 
d="M535 1454q0 -49 -12 -169t-25 -187q-48 0 -78 10v426q59 0 87 -17.5t28 -62.5zM633 104q33 -26 33 -98q-56 -29 -195 -29q-136 0 -201 62t-65 209v670h-121q0 72 76.5 154.5t163.5 94.5v-149h329q0 -63 -37 -100h-292v-639q0 -107 39 -150t133 -43q59 0 137 18z" />
    <glyph glyph-name="Tbar" unicode="&#x166;" horiz-adv-x="1026" 
d="M956 1229h-381v-492h273q-7 -106 -78 -106h-195v-631h-122v631h-279q11 52 31 79t69 27h179v492h-408q0 68 25 106h911q0 -60 -25 -106z" />
    <glyph glyph-name="tbar" unicode="&#x167;" horiz-adv-x="759" 
d="M633 104q33 -26 33 -98q-56 -29 -195 -29q-136 0 -201 62t-65 209v239h-113q11 46 31.5 69.5t69.5 23.5h12v338h-121q0 72 76.5 154.5t163.5 94.5v-149h329q0 -63 -37 -100h-292v-338h290q-7 -93 -77 -93h-213v-208q0 -107 39 -150t133 -43q59 0 137 18z" />
    <glyph glyph-name="Umacron" unicode="&#x16a;" horiz-adv-x="1306" 
d="M424 1704h461v-105h-461v105zM653 -20q-233 0 -366 142t-133 419v794q61 18 122 0v-815q0 -195 98 -310.5t277 -115.5q170 0 274.5 113.5t104.5 312.5v815q62 18 121 0v-794q0 -267 -130 -414t-368 -147z" />
    <glyph glyph-name="umacron" unicode="&#x16b;" horiz-adv-x="1116" 
d="M319 1380h461v-104h-461v104zM821 1010q52 18 119 18v-1028q-64 0 -88.5 29.5t-28.5 79.5q-65 -50 -159.5 -86.5t-192.5 -36.5q-315 0 -315 374v650q50 18 118 18v-641q0 -148 58.5 -220.5t187.5 -72.5q78 0 159 31.5t142 73.5v811z" />
    <glyph glyph-name="Uring" unicode="&#x16e;" horiz-adv-x="1306" 
d="M653 1452q-93 0 -148.5 53t-55.5 142t55.5 141.5t148.5 52.5t148 -52.5t55 -141.5t-55.5 -142t-147.5 -53zM653 1526q52 0 79.5 33.5t27.5 87.5q0 55 -27.5 87.5t-79.5 32.5t-80 -33t-28 -87t28 -87.5t80 -33.5zM653 -20q-233 0 -366 142t-133 419v794q61 18 122 0v-815
q0 -195 98 -310.5t277 -115.5q170 0 274.5 113.5t104.5 312.5v815q62 18 121 0v-794q0 -267 -130 -414t-368 -147z" />
    <glyph glyph-name="uring" unicode="&#x16f;" horiz-adv-x="1116" 
d="M549 1128q-93 0 -149 53t-56 142t56 142t149 53q92 0 147.5 -53t55.5 -142t-55.5 -142t-147.5 -53zM549 1202q52 0 79 33.5t27 87.5q0 55 -27 88t-79 33t-80.5 -33.5t-28.5 -87.5t28.5 -87.5t80.5 -33.5zM821 1010q52 18 119 18v-1028q-64 0 -88.5 29.5t-28.5 79.5
q-65 -50 -159.5 -86.5t-192.5 -36.5q-315 0 -315 374v650q50 18 118 18v-641q0 -148 58.5 -220.5t187.5 -72.5q78 0 159 31.5t142 73.5v811z" />
    <glyph glyph-name="Uhungarumlaut" unicode="&#x170;" horiz-adv-x="1306" 
d="M506 1438l-64 20l138 379l20 -4q49 -11 53 -39q6 -23 -35 -108zM756 1440l-54 39l252 315l19 -10q41 -22 37 -53q-3 -25 -68 -93zM653 -20q-233 0 -366 142t-133 419v794q61 18 122 0v-815q0 -195 98 -310.5t277 -115.5q170 0 274.5 113.5t104.5 312.5v815q62 18 121 0
v-794q0 -267 -130 -414t-368 -147z" />
    <glyph glyph-name="uhungarumlaut" unicode="&#x171;" horiz-adv-x="1116" 
d="M401 1114l-63 21l137 378l21 -4q49 -11 53 -39q6 -23 -35 -108zM651 1116l-53 39l252 315l18 -10q41 -22 37 -53q-3 -25 -67 -92zM821 1010q52 18 119 18v-1028q-64 0 -88.5 29.5t-28.5 79.5q-65 -50 -159.5 -86.5t-192.5 -36.5q-315 0 -315 374v650q50 18 118 18v-641
q0 -148 58.5 -220.5t187.5 -72.5q78 0 159 31.5t142 73.5v811z" />
    <glyph glyph-name="Uogonek" unicode="&#x172;" horiz-adv-x="1306" 
d="M1030 1335q62 18 121 0v-794q0 -215 -84.5 -353.5t-243.5 -185.5l4 -2q-74 -44 -112.5 -104.5t-38.5 -124.5q0 -90 94 -90q43 0 82 28q28 -40 25 -86q-37 -29 -119 -29q-79 0 -125.5 41t-46.5 119q0 59 34 120t91 108q-18 -2 -58 -2q-233 0 -366 142t-133 419v794
q61 18 122 0v-815q0 -195 98 -310.5t277 -115.5q170 0 274.5 113.5t104.5 312.5v815z" />
    <glyph glyph-name="uogonek" unicode="&#x173;" horiz-adv-x="1116" 
d="M963 -291q27 -38 24 -86q-37 -29 -119 -29q-79 0 -125.5 41t-46.5 119q0 70 48.5 143t123.5 119q-41 25 -45 93q-65 -50 -159.5 -86.5t-192.5 -36.5q-315 0 -315 374v650q50 18 118 18v-641q0 -148 58.5 -220.5t187.5 -72.5q78 0 159 31.5t142 73.5v811q52 18 119 18
v-1028h-2q-74 -45 -113 -105t-39 -124q0 -90 95 -90q43 0 82 28z" />
    <glyph glyph-name="Wcircumflex" unicode="&#x174;" horiz-adv-x="1755" 
d="M725 1485q-27 0 -53.5 14t-38.5 31l194 227q20 6 50.5 6t52.5 -6l194 -227q-12 -17 -38.5 -31t-55.5 -14l-151 190zM1587 1335q65 18 131 0l-338 -1337q-73 -18 -149 0l-352 1151l-353 -1151q-67 -18 -149 0l-340 1337q66 18 133 0l289 -1173l344 1171q79 19 147 2
l357 -1173z" />
    <glyph glyph-name="wcircumflex" unicode="&#x175;" horiz-adv-x="1400" 
d="M547 1159q-27 0 -53.5 14t-38.5 31l194 228q20 6 50.5 6t52.5 -6l194 -228q-12 -17 -38.5 -31t-55.5 -14l-152 191zM1255 1018q65 19 127 0l-280 -1016q-27 -12 -68 -12q-45 0 -69 12l-265 846l-264 -846q-27 -12 -69 -12q-39 0 -66 12l-283 1016q61 19 129 0l224 -868
l270 868q59 18 121 0l270 -864z" />
    <glyph glyph-name="Ycircumflex" unicode="&#x176;" horiz-adv-x="1097" 
d="M397 1485q-27 0 -53.5 14t-38.5 31l195 227q20 6 50 6t52 -6l195 -227q-12 -17 -39 -31t-56 -14l-151 190zM1059 1335l-447 -794v-541h-123v537l-450 798q68 19 139 0l373 -676l371 676q68 19 137 0z" />
    <glyph glyph-name="ycircumflex" unicode="&#x177;" horiz-adv-x="956" 
d="M326 1159q-27 0 -54 14t-39 31l195 228q20 6 50 6t52 -6l195 -228q-12 -17 -38.5 -31t-55.5 -14l-152 191zM807 1018q64 17 127 0l-385 -936q-63 -151 -158 -281.5t-209 -210.5q-35 7 -62.5 37t-33.5 64q113 71 194.5 161t143.5 207l-401 959q64 13 129 0l329 -813z" />
    <glyph glyph-name="Ydieresis" unicode="&#x178;" horiz-adv-x="1097" 
d="M399 1559q-41 0 -70.5 27.5t-29.5 68.5t30 69.5t70 28.5q42 0 72.5 -28t30.5 -70q0 -41 -30.5 -68.5t-72.5 -27.5zM700 1559q-41 0 -70.5 27.5t-29.5 68.5t30 69.5t70 28.5q42 0 72.5 -28t30.5 -70q0 -41 -30.5 -68.5t-72.5 -27.5zM1059 1335l-447 -794v-541h-123v539
l-450 796q68 19 139 0l373 -676l371 676q68 19 137 0z" />
    <glyph glyph-name="Zacute" unicode="&#x179;" horiz-adv-x="1249" 
d="M823 1692l-164 -217l-57 32l219 340l19 -8q43 -21 43 -49q-3 -28 -60 -98zM1112 106q20 -57 16 -106h-942q-20 9 -39.5 38.5t-19.5 61.5l842 1129h-779q-28 49 -24 106h883q23 -10 45 -44t22 -68l-831 -1117h827z" />
    <glyph glyph-name="zacute" unicode="&#x17a;" horiz-adv-x="1024" 
d="M684 1368l-164 -217l-57 33l219 340l18 -8q43 -21 43 -50q-3 -29 -59 -98zM905 109q8 -21 8 -54q0 -31 -8 -55h-721q-28 15 -48.5 48.5t-20.5 66.5l639 792h-607q-12 27 -12 56q0 28 12 55h674q26 -12 47.5 -46.5t22.5 -70.5l-637 -792h651z" />
    <glyph glyph-name="Zdotaccent" unicode="&#x17b;" horiz-adv-x="1249" 
d="M647 1546q-39 0 -68.5 28.5t-29.5 65.5q0 39 29.5 69t68.5 30q41 0 72 -29.5t31 -69.5q0 -37 -31 -65.5t-72 -28.5zM1112 106q20 -57 16 -106h-942q-20 9 -39.5 38.5t-19.5 61.5l842 1129h-779q-28 49 -24 106h883q23 -10 45 -44t22 -68l-831 -1117h827z" />
    <glyph glyph-name="zdotaccent" unicode="&#x17c;" horiz-adv-x="1024" 
d="M508 1223q-39 0 -68.5 28.5t-29.5 65.5q0 39 29.5 68.5t68.5 29.5q41 0 71.5 -29t30.5 -69q0 -37 -30.5 -65.5t-71.5 -28.5zM905 109q8 -21 8 -54q0 -31 -8 -55h-721q-28 15 -48.5 48.5t-20.5 66.5l639 792h-607q-12 27 -12 56q0 28 12 55h674q26 -12 47.5 -46.5
t22.5 -70.5l-637 -792h651z" />
    <glyph glyph-name="Zcaron" unicode="&#x17d;" horiz-adv-x="1249" 
d="M698 1501q-22 -6 -52 -6t-50 6l-195 228q12 17 39 31t54 14l153 -191l152 191q29 0 55.5 -14t38.5 -31zM1112 106q20 -57 16 -106h-942q-20 9 -39.5 38.5t-19.5 61.5l842 1129h-779q-28 49 -24 106h883q23 -10 45 -44t22 -68l-831 -1117h827z" />
    <glyph glyph-name="zcaron" unicode="&#x17e;" horiz-adv-x="1024" 
d="M559 1178q-22 -6 -52 -6t-50 6l-195 227q12 17 38.5 31t53.5 14l154 -193l151 193q29 0 56 -14t39 -31zM905 109q8 -21 8 -54q0 -31 -8 -55h-721q-28 15 -48.5 48.5t-20.5 66.5l639 792h-607q-12 27 -12 56q0 28 12 55h674q26 -12 47.5 -46.5t22.5 -70.5l-637 -792h651z
" />
    <glyph glyph-name="florin" unicode="&#x192;" 
d="M911 1352q109 0 197 -58q-6 -35 -23 -62t-38 -38q-41 25 -68.5 35t-65.5 10q-89 0 -137.5 -46.5t-73.5 -174.5l-16 -92h318q-7 -105 -78 -105h-260l-105 -571q-77 -391 -346 -391q-111 0 -197 57q12 72 62 102q46 -28 71.5 -37.5t63.5 -9.5q89 0 136.5 46.5t72.5 175.5
l115 628h-185q12 50 37 77.5t76 27.5h92l6 37q77 389 346 389z" />
    <glyph glyph-name="uni0218" unicode="&#x218;" horiz-adv-x="1058" 
d="M567 752q207 -79 289 -168.5t82 -231.5q0 -119 -62 -205.5t-166 -129t-237 -42.5q-178 0 -340 54q-18 59 14 116q197 -61 324 -61q157 0 246.5 69t89.5 195q0 99 -67.5 165t-243.5 138q-182 72 -261 155t-79 204q0 167 115 258.5t329 91.5q129 0 281 -41q12 -22 8 -56
t-21 -63q-161 51 -286 51q-147 0 -222 -58.5t-75 -164.5q0 -96 62.5 -155.5t219.5 -120.5zM530 -127q49 0 80 -35t31 -84q0 -77 -45.5 -148t-110.5 -112q-15 1 -32 14.5t-25 28.5q90 62 109 146h-5q-44 0 -71 27t-27 67q0 37 27 66.5t69 29.5z" />
    <glyph glyph-name="uni0219" unicode="&#x219;" horiz-adv-x="876" 
d="M125 129q162 -49 272 -49q103 0 174.5 50t71.5 128q0 42 -14.5 73t-49.5 56t-74 43t-108 43q-134 51 -201 119t-67 164q0 141 100.5 211.5t270.5 70.5q69 0 140 -12t103 -27q0 -48 -26 -102q-106 39 -203 39q-264 0 -264 -166q0 -64 46.5 -113t168.5 -92
q170 -62 235.5 -127.5t65.5 -165.5q0 -145 -108 -220t-275 -75q-130 0 -258 35q-10 23 -10 60q0 40 10 57zM453 -127q49 0 79.5 -35t30.5 -84q0 -77 -45 -148t-110 -112q-15 1 -32.5 14.5t-25.5 28.5q91 63 109 146h-4q-45 0 -72 27.5t-27 66.5q0 37 27.5 66.5t69.5 29.5z
" />
    <glyph glyph-name="uni021A" unicode="&#x21a;" horiz-adv-x="1026" 
d="M70 1335h911q0 -60 -25 -106h-381v-1229h-122v1229h-408q0 68 25 106zM512 -127q49 0 80 -35t31 -84q0 -77 -45.5 -148t-110.5 -112q-15 1 -32 14.5t-25 28.5q89 61 108 146h-4q-44 0 -71 27t-27 67q0 37 27 66.5t69 29.5z" />
    <glyph glyph-name="uni021B" unicode="&#x21b;" horiz-adv-x="759" 
d="M666 6q-56 -29 -195 -29q-136 0 -201 62t-65 209v670h-121q0 72 76.5 154.5t163.5 94.5v-149h329q0 -63 -37 -100h-292v-639q0 -107 39 -150t133 -43q59 0 137 18q33 -26 33 -98zM434 -127q49 0 80 -35t31 -84q0 -77 -45.5 -148t-110.5 -112q-15 1 -32 14.5t-25 28.5
q90 62 108 146h-4q-44 0 -71 27t-27 67q0 37 27 66.5t69 29.5z" />
    <glyph glyph-name="uni0237" unicode="&#x237;" horiz-adv-x="430" 
d="M59 -471q-24 6 -45.5 30.5t-27.5 53.5q78 58 134 164.5t56 228.5v1008q26 14 59.5 14t59.5 -14v-961q0 -194 -68 -330t-168 -194z" />
    <glyph glyph-name="circumflex" unicode="&#x2c6;" horiz-adv-x="512" 
d="M307 1458l195 -227q-12 -17 -38.5 -31t-55.5 -14l-152 190l-154 -190q-27 0 -53.5 14t-38.5 31l195 227q20 6 50 6t52 -6z" />
    <glyph glyph-name="caron" unicode="&#x2c7;" horiz-adv-x="512" 
d="M408 1450q29 0 55.5 -14t38.5 -31l-195 -227q-22 -6 -52 -6t-50 6l-195 227q12 17 38.5 31t53.5 14l154 -193z" />
    <glyph glyph-name="breve" unicode="&#x2d8;" horiz-adv-x="569" 
d="M559 1446q-1 -46 -16.5 -89.5t-46 -82t-84.5 -61.5t-125 -23t-126 23t-86.5 61t-47.5 81.5t-17 90.5q53 17 105 0q4 -64 45 -114t129 -50q46 0 80.5 17t51.5 43.5t25 52.5t9 51q52 17 104 0z" />
    <glyph glyph-name="dotaccent" unicode="&#x2d9;" horiz-adv-x="219" 
d="M109 1249q-40 0 -69.5 28.5t-29.5 65.5q0 38 29.5 67.5t69.5 29.5q41 0 70.5 -29t29.5 -68q0 -37 -29.5 -65.5t-70.5 -28.5z" />
    <glyph glyph-name="ring" unicode="&#x2da;" horiz-adv-x="428" 
d="M215 1128q-93 0 -149 53t-56 142t56 142t149 53q92 0 147.5 -53t55.5 -142t-55.5 -142t-147.5 -53zM215 1202q52 0 79.5 33.5t27.5 87.5q0 55 -27.5 88t-79.5 33t-80.5 -33.5t-28.5 -87.5t28.5 -87.5t80.5 -33.5z" />
    <glyph glyph-name="ogonek" unicode="&#x2db;" horiz-adv-x="311" 
d="M182 -401q-80 0 -126 41.5t-46 123.5q0 70 54.5 146t134.5 121l53 -27q-74 -44 -113 -104t-39 -119q0 -96 95 -96q42 0 81 28q28 -40 25 -86q-36 -28 -119 -28z" />
    <glyph glyph-name="tilde" unicode="&#x2dc;" horiz-adv-x="581" 
d="M90 1249q-43 -3 -80 15q0 94 45 142t117 48q35 0 69.5 -16t57.5 -36t54 -36t59 -16q41 0 60.5 35.5t19.5 74.5q44 3 79 -14q0 -93 -42 -142t-105 -49q-39 0 -77 16.5t-62 37t-54.5 37t-56.5 16.5q-44 0 -64 -35t-20 -78z" />
    <glyph glyph-name="hungarumlaut" unicode="&#x2dd;" horiz-adv-x="628" 
d="M76 1114l-64 21l138 378l22 -4q47 -11 51 -39q7 -26 -35 -108zM328 1102l-54 39l250 315l19 -10q41 -25 37 -55q-4 -29 -68 -91z" />
    <glyph glyph-name="gravecomb" unicode="&#x300;" horiz-adv-x="0" 
d="M-76 1153l-184 231q-41 56 -43 72q0 31 47 57l18 11l222 -340z" />
    <glyph glyph-name="acutecomb" unicode="&#x301;" horiz-adv-x="0" 
d="M-256 1151l-57 33l219 340l18 -8q43 -21 43 -50q-3 -29 -59 -98z" />
    <glyph glyph-name="uni0302" unicode="&#x302;" horiz-adv-x="0" 
d="M-205 1458l195 -227q-12 -17 -38.5 -31t-55.5 -14l-152 190l-154 -190q-27 0 -53.5 14t-38.5 31l195 227q20 6 50 6t52 -6z" />
    <glyph glyph-name="tildecomb" unicode="&#x303;" horiz-adv-x="0" 
d="M-492 1249q-42 -3 -79 15q0 94 44.5 142t116.5 48q35 0 69.5 -16t57.5 -36t54 -36t59 -16q41 0 60.5 35.5t19.5 74.5q45 3 80 -14q0 -93 -42.5 -142t-105.5 -49q-39 0 -77 16.5t-62 37t-54.5 37t-56.5 16.5q-44 0 -64 -35t-20 -78z" />
    <glyph glyph-name="uni0304" unicode="&#x304;" horiz-adv-x="0" 
d="M-471 1380h461v-104h-461v104z" />
    <glyph glyph-name="uni0306" unicode="&#x306;" horiz-adv-x="0" 
d="M-10 1446q-1 -46 -16.5 -89.5t-46.5 -82t-85 -61.5t-125 -23t-126 23t-86.5 61t-47 81.5t-16.5 90.5q52 17 104 0q4 -64 45 -114t129 -50q46 0 80.5 17t51.5 43.5t25 52.5t9 51q53 17 105 0z" />
    <glyph glyph-name="uni0307" unicode="&#x307;" horiz-adv-x="0" 
d="M-10 1323q0 -37 -31 -65.5t-72 -28.5q-39 0 -68.5 28.5t-29.5 65.5q0 39 29.5 68.5t68.5 29.5q41 0 72 -29t31 -69z" />
    <glyph glyph-name="uni0308" unicode="&#x308;" horiz-adv-x="0" 
d="M-414 1247q-41 0 -70.5 27.5t-29.5 68.5t30 70t70 29q42 0 72.5 -28.5t30.5 -70.5q0 -41 -30.5 -68.5t-72.5 -27.5zM-113 1247q-41 0 -70.5 27.5t-29.5 68.5t30 70t70 29q42 0 72.5 -28.5t30.5 -70.5q0 -41 -30.5 -68.5t-72.5 -27.5z" />
    <glyph glyph-name="uni030A" unicode="&#x30a;" horiz-adv-x="0" 
d="M-213 1128q-93 0 -149 53t-56 142t56 142t149 53q92 0 147.5 -53t55.5 -142t-55.5 -142t-147.5 -53zM-213 1202q52 0 79.5 33.5t27.5 87.5q0 55 -27.5 88t-79.5 33t-80.5 -33.5t-28.5 -87.5t28.5 -87.5t80.5 -33.5z" />
    <glyph glyph-name="uni030B" unicode="&#x30b;" horiz-adv-x="0" 
d="M-514 1114l-64 21l138 378l20 -4q49 -11 53 -39q6 -24 -34 -108zM-264 1116l-53 39l251 315l19 -10q41 -22 37 -53q-3 -24 -68 -92z" />
    <glyph glyph-name="uni030C" unicode="&#x30c;" horiz-adv-x="0" 
d="M-104 1450q29 0 55.5 -14t38.5 -31l-195 -227q-22 -6 -52 -6t-50 6l-195 227q12 17 38.5 31t53.5 14l154 -193z" />
    <glyph glyph-name="uni0312" unicode="&#x312;" horiz-adv-x="0" 
d="M-115 1409q44 0 71.5 -28t27.5 -68q0 -37 -28 -66.5t-71 -29.5q-50 0 -79 34.5t-29 85.5q0 76 45.5 147.5t109.5 110.5q15 -2 33 -14.5t25 -28.5q-90 -58 -109 -143h4z" />
    <glyph glyph-name="uni0315" unicode="&#x315;" horiz-adv-x="0" 
d="M-47 1065q-48 0 -78 10v426q59 0 87 -17.5t28 -62.5q0 -49 -12 -169t-25 -187z" />
    <glyph glyph-name="uni0326" unicode="&#x326;" horiz-adv-x="0" 
d="M-121 -127q49 0 80 -35t31 -84q0 -77 -45.5 -148t-110.5 -112q-15 1 -32 14.5t-25 28.5q90 62 108 146h-4q-44 0 -71 27t-27 67q0 37 27 66.5t69 29.5z" />
    <glyph glyph-name="uni0327" unicode="&#x327;" horiz-adv-x="0" 
d="M-186 -131q75 0 125.5 -43.5t50.5 -118.5q0 -88 -68.5 -137t-173.5 -49q-72 0 -137 14q0 58 12 80q77 -21 141 -21q68 0 106 31t38 78q0 41 -30 67.5t-97 26.5q-42 0 -82 -16q-14 5 -27 19t-12 30l88 174h86l-70 -143q28 8 50 8z" />
    <glyph glyph-name="uni0328" unicode="&#x328;" horiz-adv-x="0" 
d="M-129 -401q-79 0 -125.5 41t-46.5 118q0 74 53.5 151t134.5 122l54 -27q-74 -45 -113 -105t-39 -124q0 -90 94 -90q43 0 82 28q28 -40 25 -86q-36 -28 -119 -28z" />
    <glyph glyph-name="Wgrave" unicode="&#x1e80;" horiz-adv-x="1755" 
d="M870 1479l-184 231q-41 56 -43 72q0 31 47 57l19 10l221 -340zM1587 1335q65 18 131 0l-338 -1337q-73 -18 -149 0l-352 1153l-353 -1153q-73 -19 -149 0l-340 1337q66 18 133 0l291 -1173l342 1171q79 19 147 2l357 -1175z" />
    <glyph glyph-name="wgrave" unicode="&#x1e81;" horiz-adv-x="1400" 
d="M692 1153l-184 231q-41 56 -43 72q0 31 47 57l18 11l222 -340zM1255 1018q65 19 127 0l-280 -1016q-27 -12 -68 -12q-45 0 -69 12l-265 846l-264 -846q-27 -12 -69 -12q-39 0 -66 12l-283 1016q61 19 129 0l222 -866l272 866q59 18 121 0l270 -866z" />
    <glyph glyph-name="Wacute" unicode="&#x1e82;" horiz-adv-x="1755" 
d="M1055 1694l-164 -217l-57 32l219 340l18 -8q43 -21 43 -49q-3 -29 -59 -98zM1587 1335q65 18 131 0l-338 -1337q-73 -18 -149 0l-352 1151l-353 -1151q-67 -18 -149 0l-340 1337q66 18 133 0l289 -1173l344 1171q79 19 147 2l357 -1173z" />
    <glyph glyph-name="wacute" unicode="&#x1e83;" horiz-adv-x="1400" 
d="M877 1368l-164 -217l-58 33l219 340l19 -8q43 -21 43 -50q-3 -29 -59 -98zM1255 1018q65 19 127 0l-280 -1016q-27 -12 -68 -12q-45 0 -69 12l-265 846l-264 -846q-27 -12 -69 -12q-39 0 -66 12l-283 1016q61 19 129 0l224 -868l270 868q59 18 121 0l270 -864z" />
    <glyph glyph-name="Wdieresis" unicode="&#x1e84;" horiz-adv-x="1755" 
d="M727 1559q-41 0 -70.5 27.5t-29.5 68.5t30 69.5t70 28.5q42 0 72 -28t30 -70q0 -41 -30 -68.5t-72 -27.5zM1028 1559q-41 0 -70.5 27.5t-29.5 68.5t30 69.5t70 28.5q42 0 72 -28t30 -70q0 -41 -30 -68.5t-72 -27.5zM1587 1335q65 18 131 0l-338 -1337q-73 -18 -149 0
l-352 1153l-353 -1153q-73 -19 -149 0l-340 1337q66 18 133 0l291 -1173l342 1171q79 19 147 2l357 -1175z" />
    <glyph glyph-name="wdieresis" unicode="&#x1e85;" horiz-adv-x="1400" 
d="M549 1233q-41 0 -70.5 27.5t-29.5 68.5t30 69.5t70 28.5q42 0 72 -28t30 -70q0 -41 -30 -68.5t-72 -27.5zM850 1233q-41 0 -70.5 27.5t-29.5 68.5t30 69.5t70 28.5q42 0 72 -28t30 -70q0 -41 -30 -68.5t-72 -27.5zM1255 1018q65 19 127 0l-280 -1016q-27 -12 -68 -12
q-45 0 -69 12l-265 846l-264 -846q-27 -12 -69 -12q-39 0 -66 12l-283 1016q61 19 129 0l222 -866l272 866q59 18 121 0l270 -866z" />
    <glyph glyph-name="uni1E9E" unicode="&#x1e9e;" horiz-adv-x="1415" 
d="M903 778q87 -30 160 -70.5t131.5 -91.5t91.5 -115.5t33 -135.5q0 -81 -23 -150.5t-69.5 -124.5t-123.5 -86t-177 -31q-97 0 -161 11t-149 36q-18 66 13 121q104 -32 165.5 -44.5t125.5 -12.5q55 0 102.5 14t87 43.5t62 80.5t22.5 120q0 117 -86.5 197.5t-288.5 152.5
q-53 31 -53 96l272 392q-130 73 -331 73q-216 0 -323.5 -105t-107.5 -304v-844q-61 -21 -122 0v829q0 263 146.5 399t426.5 138q255 3 483 -137z" />
    <glyph glyph-name="Ygrave" unicode="&#x1ef2;" horiz-adv-x="1097" 
d="M543 1479l-185 231q-41 56 -43 72q0 31 47 57l19 10l221 -340zM1059 1335l-447 -794v-541h-123v539l-450 796q68 19 139 0l373 -676l371 676q68 19 137 0z" />
    <glyph glyph-name="ygrave" unicode="&#x1ef3;" horiz-adv-x="956" 
d="M473 1153l-184 231q-41 56 -43 72q0 31 47 57l18 11l221 -340zM807 1018q65 17 127 0l-385 -936q-63 -151 -158 -281.5t-209 -210.5q-35 7 -62.5 37t-33.5 64q211 133 338 366l-401 961q64 13 129 0l329 -815z" />
    <glyph glyph-name="endash" unicode="&#x2013;" horiz-adv-x="1024" 
d="M53 575q0 63 17 85t73 22h828q0 -63 -17 -85t-73 -22h-828z" />
    <glyph glyph-name="emdash" unicode="&#x2014;" horiz-adv-x="1638" 
d="M53 575q0 63 17 85t73 22h1442q0 -63 -17 -85t-73 -22h-1442z" />
    <glyph glyph-name="quoteleft" unicode="&#x2018;" horiz-adv-x="288" 
d="M272 1372q-36 -33 -70.5 -88t-51.5 -108q43 -2 73.5 -34.5t30.5 -76.5t-32.5 -76.5t-78.5 -32.5t-79 37t-33 92q0 85 58 182t124 146q15 -1 32.5 -13.5t26.5 -27.5z" />
    <glyph glyph-name="quoteright" unicode="&#x2019;" horiz-adv-x="288" 
d="M145 1403q46 0 79.5 -37t33.5 -92q0 -85 -57.5 -182t-122.5 -146q-15 1 -33 13.5t-29 27.5q37 31 72.5 87t52.5 110q-43 0 -74.5 32t-31.5 76q0 46 32 78.5t78 32.5z" />
    <glyph glyph-name="quotesinglbase" unicode="&#x201a;" horiz-adv-x="288" 
d="M145 174q46 0 79.5 -37t33.5 -92q0 -85 -57.5 -182t-122.5 -146q-15 1 -33 13.5t-29 27.5q37 31 72.5 87t52.5 110q-43 0 -74.5 32t-31.5 76q0 46 32 78.5t78 32.5z" />
    <glyph glyph-name="quotedblleft" unicode="&#x201c;" horiz-adv-x="598" 
d="M213 1413q15 -1 32.5 -13.5t26.5 -27.5q-36 -33 -70.5 -88t-51.5 -108q43 -2 73.5 -34.5t30.5 -76.5t-32.5 -76.5t-78.5 -32.5t-79 37t-33 92q0 85 58 182t124 146zM582 1372q-37 -33 -72.5 -88t-52.5 -108q43 0 74.5 -32.5t31.5 -78.5q0 -45 -32.5 -77t-77.5 -32
q-46 0 -79.5 37t-33.5 92q0 85 57.5 182t122.5 146q35 -3 62 -41z" />
    <glyph glyph-name="quotedblright" unicode="&#x201d;" horiz-adv-x="598" 
d="M145 1403q46 0 79.5 -37t33.5 -92q0 -85 -57.5 -182t-122.5 -146q-15 1 -33 13.5t-29 27.5q37 31 72.5 87t52.5 110q-43 0 -74.5 32t-31.5 76q0 46 32 78.5t78 32.5zM455 1403q46 0 79 -37t33 -92q0 -85 -58 -182t-124 -146q-15 1 -32.5 13.5t-26.5 27.5q36 31 72 87.5
t53 109.5q-43 0 -75 32t-32 76q0 46 32.5 78.5t78.5 32.5z" />
    <glyph glyph-name="quotedblbase" unicode="&#x201e;" horiz-adv-x="598" 
d="M145 174q46 0 79.5 -37t33.5 -92q0 -85 -57.5 -182t-122.5 -146q-15 1 -33 13.5t-29 27.5q37 31 72.5 87t52.5 110q-43 0 -74.5 32t-31.5 76q0 46 32 78.5t78 32.5zM455 174q46 0 79 -37t33 -92q0 -85 -58 -182t-124 -146q-15 1 -32.5 13.5t-26.5 27.5q36 31 72 87.5
t53 109.5q-43 0 -75 32t-32 76q0 46 32.5 78.5t78.5 32.5z" />
    <glyph glyph-name="dagger" unicode="&#x2020;" horiz-adv-x="1228" 
d="M932 1122q0 -22 -11.5 -53.5t-27.5 -50.5h-244l-10 -748q-46 -15 -94 0l-10 748h-293q0 22 11.5 54t27.5 50h251l-4 279q26 20 64 20t63 -20l-4 -279h281z" />
    <glyph glyph-name="daggerdbl" unicode="&#x2021;" horiz-adv-x="1228" 
d="M639 854l4 -170h289q0 -22 -11.5 -53.5t-27.5 -50.5h-246l8 -279q-25 -19 -63 -19t-64 19l9 279h-295q0 22 11.5 54t27.5 50h260l4 170l-4 164h-299q0 22 11.5 54t27.5 50h256l-9 279q26 20 64 20t63 -20l-8 -279h285q0 -22 -11.5 -53.5t-27.5 -50.5h-250z" />
    <glyph glyph-name="bullet" unicode="&#x2022;" horiz-adv-x="684" 
d="M342 391q-74 0 -125 50.5t-51 123.5q0 72 51 122t125 50q73 0 123.5 -50t50.5 -122q0 -73 -50 -123.5t-124 -50.5z" />
    <glyph glyph-name="ellipsis" unicode="&#x2026;" horiz-adv-x="1437" 
d="M262 -10q-50 0 -83.5 33.5t-33.5 82.5q0 48 34 81.5t83 33.5t83 -33.5t34 -81.5q0 -49 -33.5 -82.5t-83.5 -33.5zM729 -10q-50 0 -83.5 33.5t-33.5 82.5q0 48 34 81.5t83 33.5t83 -33.5t34 -81.5q0 -49 -33.5 -82.5t-83.5 -33.5zM1176 -10q-50 0 -83.5 33.5t-33.5 82.5
q0 48 34 81.5t83 33.5t82.5 -33.5t33.5 -81.5q0 -50 -33 -83t-83 -33z" />
    <glyph glyph-name="perthousand" unicode="&#x2030;" horiz-adv-x="2148" 
d="M227 6l871 1270q48 74 78 86t96 -10l-871 -1272q-51 -73 -79.5 -84.5t-94.5 10.5zM330 1356q-127 0 -205 -88t-78 -256q0 -166 78.5 -255t204.5 -89q129 0 206.5 88.5t77.5 255.5q0 169 -78 256.5t-206 87.5zM330 752q-89 0 -136 68.5t-47 191.5q0 124 46.5 191t136.5 67
q182 0 182 -258q0 -125 -45.5 -192.5t-136.5 -67.5zM1137 672q-127 0 -205 -87.5t-78 -254.5t78 -256.5t205 -89.5q129 0 206.5 89t77.5 257q0 167 -78 254.5t-206 87.5zM1837 672q-128 0 -206.5 -87.5t-78.5 -254.5q0 -168 78.5 -257t206.5 -89t206.5 89t78.5 257
q0 167 -78.5 254.5t-206.5 87.5zM1137 68q-90 0 -136.5 68.5t-46.5 193.5q0 124 46.5 191t136.5 67q91 0 136.5 -66.5t45.5 -191.5t-45.5 -193.5t-136.5 -68.5zM1837 68q-91 0 -136.5 68.5t-45.5 193.5t45.5 191.5t136.5 66.5q90 0 136 -67t46 -191q0 -125 -46.5 -193.5
t-135.5 -68.5z" />
    <glyph glyph-name="guilsinglleft" unicode="&#x2039;" horiz-adv-x="589" 
d="M549 981l-363 -442l363 -443q-61 -18 -123 0l-281 348q-31 37 -40 55.5t-9 39.5t8.5 39t40.5 55l281 348q62 18 123 0z" />
    <glyph glyph-name="guilsinglright" unicode="&#x203a;" horiz-adv-x="589" 
d="M444 633q32 -38 41 -56t9 -38t-9 -39t-41 -56l-282 -348q-59 -18 -121 0l362 443l-362 442q62 21 121 0z" />
    <glyph glyph-name="fraction" unicode="&#x2044;" horiz-adv-x="321" 
d="M-254 -90q-35 0 -59 16l852 1491q18 29 55 29q29 0 53 -19l-854 -1490q-12 -27 -47 -27z" />
    <glyph glyph-name="lira" unicode="&#x20a4;" 
d="M930 451q61 21 119 0v-64q0 -387 -426 -387h-379v477l-187 -94q-8 24 -8 39q0 32 13.5 55.5t50.5 42.5l131 68v166l-187 -95q-8 24 -8 39q0 33 13.5 56.5t50.5 42.5l131 67v471q62 18 123 0v-409l383 196q8 -28 8 -41q0 -66 -68 -102l-323 -164v-166l383 197q8 -28 8 -41
q0 -67 -68 -103l-323 -163v-433h225q186 0 262 79.5t76 265.5z" />
    <glyph glyph-name="uni20A6" unicode="&#x20a6;" 
d="M997 776v-198h109q-4 -105 -53 -105h-56v-473q-61 -18 -123 0l-262 473h-354v-473h-123v473h-112q7 105 73 105h39v198h-112q7 103 73 103h39v456q61 18 123 0l252 -456h364v456h123v-456h109q-4 -103 -53 -103h-56zM248 1130l10 -212v-39h131zM258 578h297l-111 198
h-186v-198zM874 776h-309l111 -198h198v198zM885 199l-11 215v59h-141z" />
    <glyph glyph-name="uni20A8" unicode="&#x20a8;" 
d="M690 1231q146 -103 158 -289h233q-2 -46 -20.5 -75t-56.5 -29h-160q-27 -146 -151.5 -244.5t-330.5 -101.5l629 -492h-176l-641 498q0 90 102 90q194 0 308 66t141 184h-653q7 104 88 104h569q-8 116 -80 196t-215 93h-362q7 104 88 104h921q-2 -46 -20.5 -75t-56.5 -29
h-314z" />
    <glyph glyph-name="uni20A9" unicode="&#x20a9;" 
d="M981 834l-25 -195h164q-4 -102 -53 -102h-123l-67 -539q-72 -18 -146 0l-86 539h-176l-80 -539q-64 -17 -143 0l-68 539h-170q7 102 76 102h82l-25 195h-133q7 102 76 102h43l-49 399q62 17 127 0l39 -399h194l58 399q35 9 58 9t58 -9l64 -399h203l39 399q64 17 126 0
l-49 -399h125q-4 -102 -53 -102h-86zM555 1102l-25 -166h52zM254 834l20 -195h121l27 195h-168zM485 639h144l-31 195h-84zM868 834h-178l31 -195h129zM324 145l55 392h-94zM801 135l39 402h-103z" />
    <glyph glyph-name="uni20AA" unicode="&#x20aa;" 
d="M778 2q-99 0 -173.5 20t-132.5 64.5t-88 123t-30 189.5v480h95v-471q0 -84 21 -141.5t60.5 -88t87 -43t111.5 -12.5h244v1214h94v-1335h-289zM59 0v1335h283q99 0 174.5 -20t134.5 -64.5t90 -123t31 -189.5v-479h-94v471q0 84 -22 141.5t-63 87.5t-89.5 42.5t-112.5 12.5
h-237v-1214h-95z" />
    <glyph glyph-name="Euro" unicode="&#x20ac;" 
d="M1012 236q71 -18 84 -82q-147 -166 -414 -166q-186 0 -311.5 128.5t-165.5 354.5h-162q11 53 31 78.5t69 25.5h50q-5 77 -5 97t5 108h-150q11 51 31 77t69 26h64q42 221 167 347t308 126q267 0 414 -166q-13 -63 -86 -82q-62 71 -140.5 104t-187.5 33q-142 0 -233 -92.5
t-123 -269.5h485q-7 -103 -78 -103h-420q-4 -70 -4 -108q0 -35 4 -97h373q-7 -104 -78 -104h-282q31 -182 121.5 -277.5t234.5 -95.5q109 0 188.5 33.5t141.5 104.5z" />
    <glyph glyph-name="uni20BD" unicode="&#x20bd;" 
d="M510 502h-145v-213h340q0 -45 -19.5 -74t-58.5 -29h-262v-186h-123v186h-193q0 46 22 74.5t66 28.5h105v213h-193q0 51 22.5 78.5t65.5 27.5h105v707q182 41 315 41q106 0 193 -25.5t143.5 -67t95.5 -96t55.5 -111.5t16.5 -116q0 -187 -153 -312.5t-398 -125.5zM365 1229
v-621h124q227 0 337 91.5t110 240.5q0 63 -20.5 116t-65.5 97t-126 69t-192 25q-100 0 -167 -18z" />
    <glyph glyph-name="trademark" unicode="&#x2122;" horiz-adv-x="1376" 
d="M1163 1337q66 12 133 0v-673h-94v323l6 225l-198 -489q-28 -6 -43.5 -6t-44.5 6l-197 481l6 -217v-323h-96v673q69 12 135 0l197 -487zM35 1255q0 47 12 82h477q0 -45 -12 -82h-184v-591h-95v591h-198z" />
    <glyph glyph-name="oneeighth" unicode="&#x215b;" horiz-adv-x="1970" 
d="M1417 1446q29 0 53 -19l-854 -1490q-12 -27 -47 -27t-59 16l852 1491q18 29 55 29zM657 561q15 -51 0 -96h-540q-14 49 0 96h229v641q-197 -81 -223 -84q-35 25 -35 80q167 92 315 152q12 -3 32.5 -17.5t23.5 -23.5v-748h198zM1688 467q188 -76 188 -227q0 -120 -93 -187
t-227 -67q-136 0 -227.5 63.5t-91.5 179.5q0 80 51 141.5t123 90.5q-131 70 -131 201q0 96 79.5 158.5t196.5 62.5q119 0 198 -55.5t79 -151.5q0 -69 -41.5 -124t-103.5 -85zM1559 791q-80 0 -125 -35.5t-45 -91.5q0 -62 40.5 -99.5t153.5 -62.5q63 18 105.5 62t42.5 95
q0 64 -47.5 98t-124.5 34zM1556 80q93 0 148 39t55 114q0 60 -50.5 106.5t-176.5 76.5q-2 0 -5 1t-5 1q-66 -15 -118 -64t-52 -114q0 -80 57.5 -120t146.5 -40z" />
    <glyph glyph-name="threeeighths" unicode="&#x215c;" horiz-adv-x="1970" 
d="M1417 1446q29 0 53 -19l-854 -1490q-12 -27 -47 -27t-59 16l852 1491q18 29 55 29zM715 705q0 -107 -86 -179.5t-236 -72.5q-164 0 -266 61q-8 19 -8 53q0 41 16 68q41 -35 109 -59.5t129 -24.5q100 0 164.5 40t64.5 114q0 161 -254 161h-102q0 73 28 95h56
q132 0 191 35.5t59 117.5q0 62 -52 98.5t-135 36.5q-125 0 -252 -90q-12 36 -12 55q0 27 10 50q119 86 275 86q121 0 196.5 -59.5t75.5 -164.5q0 -158 -133 -213q73 -24 117.5 -78.5t44.5 -129.5zM1688 467q188 -76 188 -227q0 -120 -93 -187t-227 -67q-136 0 -227.5 63.5
t-91.5 179.5q0 80 51 141.5t123 90.5q-131 70 -131 201q0 96 79.5 158.5t196.5 62.5q119 0 198 -55.5t79 -151.5q0 -69 -41.5 -124t-103.5 -85zM1559 791q-80 0 -125 -35.5t-45 -91.5q0 -62 40.5 -99.5t153.5 -62.5q63 18 105.5 62t42.5 95q0 64 -47.5 98t-124.5 34z
M1556 80q93 0 148 39t55 114q0 60 -50.5 106.5t-176.5 76.5q-2 0 -5 1t-5 1q-66 -15 -118 -64t-52 -114q0 -80 57.5 -120t146.5 -40z" />
    <glyph glyph-name="fiveeighths" unicode="&#x215d;" horiz-adv-x="1970" 
d="M1417 1446q29 0 53 -19l-854 -1490q-12 -27 -47 -27t-59 16l852 1491q18 29 55 29zM690 741q0 -141 -91 -214.5t-263 -73.5q-125 0 -219 43q-8 32 -8 51q0 30 18 51q106 -49 217 -49q117 0 175.5 50t58.5 120q0 80 -62 130.5t-217 72.5l-82 10q-26 11 -48 34t-22 44
l89 325h448q-3 -50 -37 -96h-323l-62 -213l141 -29q138 -28 212.5 -93.5t74.5 -162.5zM1688 467q188 -76 188 -227q0 -120 -93 -187t-227 -67q-136 0 -227.5 63.5t-91.5 179.5q0 80 51 141.5t123 90.5q-131 70 -131 201q0 96 79.5 158.5t196.5 62.5q119 0 198 -55.5
t79 -151.5q0 -69 -41.5 -124t-103.5 -85zM1559 791q-80 0 -125 -35.5t-45 -91.5q0 -62 40.5 -99.5t153.5 -62.5q63 18 105.5 62t42.5 95q0 64 -47.5 98t-124.5 34zM1556 80q93 0 148 39t55 114q0 60 -50.5 106.5t-176.5 76.5q-2 0 -5 1t-5 1q-66 -15 -118 -64t-52 -114
q0 -80 57.5 -120t146.5 -40z" />
    <glyph glyph-name="seveneighths" unicode="&#x215e;" horiz-adv-x="1884" 
d="M1333 1446q29 0 53 -19l-854 -1490q-12 -27 -47 -27t-59 16l852 1491q18 29 55 29zM709 1335q16 -16 29.5 -45.5t13.5 -54.5l-430 -770q-66 -15 -111 0q0 17 190 354.5t246 419.5h-514q-14 49 0 96h576zM1604 467q188 -76 188 -227q0 -120 -92.5 -187t-226.5 -67
q-136 0 -228 63.5t-92 179.5q0 80 51 141.5t123 90.5q-131 70 -131 201q0 96 80 158.5t197 62.5q119 0 197.5 -55.5t78.5 -151.5q0 -69 -41.5 -124t-103.5 -85zM1475 791q-80 0 -125 -35.5t-45 -91.5q0 -62 40.5 -99.5t153.5 -62.5q63 18 105.5 62t42.5 95q0 64 -47.5 98
t-124.5 34zM1473 80q93 0 147.5 39t54.5 114q0 60 -50.5 106.5t-176.5 76.5q-2 0 -5 1t-5 1q-66 -15 -118 -64t-52 -114q0 -80 58 -120t147 -40z" />
    <glyph glyph-name="arrowleft" unicode="&#x2190;" horiz-adv-x="1017" 
d="M963 573h-580l-147 11l266 -170q38 -26 40.5 -50.5t-26.5 -76.5l-397 270q-25 17 -34 32.5t-9 39.5q0 22 8.5 36.5t34.5 32.5l397 271q31 -58 28 -80.5t-42 -46.5l-271 -172l152 10h580q12 -54 0 -107z" />
    <glyph glyph-name="arrowup" unicode="&#x2191;" horiz-adv-x="833" 
d="M487 1032l271 -397q-53 -30 -76.5 -27.5t-50.5 41.5l-170 266l10 -147v-580q-53 -12 -106 0v580l10 152l-172 -271q-24 -39 -46.5 -42t-80.5 28l270 397q18 26 33 34.5t37 8.5q25 0 39.5 -8.5t31.5 -34.5z" />
    <glyph glyph-name="arrowright" unicode="&#x2192;" horiz-adv-x="1017" 
d="M899 698q26 -18 34.5 -32.5t8.5 -36.5q0 -24 -9 -39.5t-34 -32.5l-397 -270q-31 52 -28.5 76.5t42.5 50.5l266 170l-147 -11h-580q-12 53 0 107h580l151 -10l-270 172q-39 24 -42 46.5t28 80.5z" />
    <glyph glyph-name="arrowdown" unicode="&#x2193;" horiz-adv-x="829" 
d="M631 606q26 40 50 43t77 -28l-271 -398q-17 -25 -31 -33t-40 -8q-23 0 -37.5 8t-32.5 33l-270 398q58 31 80.5 27.5t46.5 -42.5l172 -268l-10 149v580q53 12 106 0v-580l-10 -145z" />
    <glyph glyph-name="arrowboth" unicode="&#x2194;" horiz-adv-x="1429" 
d="M1313 698q25 -17 33 -31t8 -40q0 -23 -8 -37.5t-33 -32.5l-398 -270q-31 58 -27.5 80.5t42.5 46.5l264 170l-145 -11h-666l-152 11l271 -172q38 -26 40.5 -50.5t-26.5 -76.5l-397 270q-25 17 -34 32.5t-9 39.5q0 22 8.5 36.5t32.5 32.5l399 271q31 -58 28 -80.5
t-42 -46.5l-266 -170l147 10h666l149 -10l-268 172q-40 26 -43 50t28 77z" />
    <glyph glyph-name="arrowupdn" unicode="&#x2195;" horiz-adv-x="839" 
d="M635 453q26 40 50.5 42.5t78.5 -28.5l-272 -397q-17 -26 -32 -34.5t-40 -8.5q-22 0 -37 8.5t-33 34.5l-270 397q58 31 80.5 28t46.5 -42l170 -267l-10 148v665l10 152l-172 -270q-25 -40 -49.5 -43t-77.5 28l270 398q17 25 32.5 34t39.5 9q22 0 36.5 -8.5t32.5 -34.5
l271 -398q-58 -31 -80.5 -27.5t-46.5 42.5l-170 266l10 -148v-665l-10 -152z" />
    <glyph glyph-name="uni2196" unicode="&#x2196;" horiz-adv-x="813" 
d="M326 764l409 -410q-24 -47 -73 -75l-410 411l-96 111l67 -309q9 -46 -6 -65t-74 -36l-90 473q-5 31 -1 46.5t22 33.5q16 16 33 21.5t47 -0.5l471 -91q-17 -61 -36 -75.5t-65 -3.5l-311 69z" />
    <glyph glyph-name="uni2197" unicode="&#x2197;" horiz-adv-x="813" 
d="M739 944q18 -18 22 -33.5t-1 -46.5l-90 -473q-59 17 -74 36t-6 65l67 309l-96 -111l-409 -411q-49 28 -76 75l409 410l113 98l-311 -67q-44 -11 -63.5 3.5t-37.5 75.5l473 91q49 10 80 -21z" />
    <glyph glyph-name="uni2198" unicode="&#x2198;" horiz-adv-x="813" 
d="M760 385q6 -31 1.5 -48t-22.5 -32q-15 -17 -32 -21.5t-48 1.5l-473 90q18 62 37.5 76.5t63.5 3.5l311 -68l-113 98l-409 410q28 48 76 76l409 -412l96 -110l-67 309q-9 44 6.5 63.5t73.5 36.5z" />
    <glyph glyph-name="uni2199" unicode="&#x2199;" horiz-adv-x="813" 
d="M524 455q45 11 64.5 -3.5t36.5 -76.5l-471 -90q-32 -6 -48.5 -1.5t-31.5 21.5q-18 15 -22.5 32t1.5 48l90 473q58 -17 73.5 -36.5t6.5 -63.5l-67 -309l96 110l410 412q48 -28 73 -76l-409 -410l-113 -100z" />
    <glyph glyph-name="minus" unicode="&#x2212;" 
d="M90 575q0 63 17 85t73 22h856q0 -63 -17 -85t-73 -22h-856z" />
    <glyph glyph-name="approxequal" unicode="&#x2248;" 
d="M246 721q-51 -4 -92 14q0 111 61 176.5t156 65.5q52 0 107.5 -23t94.5 -51t87 -51t88 -23q38 0 66.5 17t42.5 43t20 50.5t6 45.5q51 4 92 -14q0 -111 -61.5 -176.5t-147.5 -65.5q-59 0 -117 23.5t-96.5 51.5t-85.5 51.5t-86 23.5q-38 0 -66.5 -16t-42.5 -42t-20 -51
t-6 -49zM246 283q-61 0 -92 16q0 111 61 176.5t156 65.5q52 0 107.5 -23.5t94.5 -51.5t87 -51.5t88 -23.5q38 0 66.5 17t42.5 43.5t20 51t6 46.5q53 0 92 -17q0 -111 -61.5 -176t-147.5 -65q-57 0 -113.5 23.5t-94 51t-83 51t-82.5 23.5q-42 0 -72.5 -15.5t-46 -41
t-22 -50.5t-6.5 -50z" />
    <glyph glyph-name="notequal" unicode="&#x2260;" 
d="M684 780l-125 -303h473q0 -63 -17 -84.5t-73 -21.5h-428l-125 -301q-59 24 -71.5 46t8.5 77l73 178h-305q0 63 17 84.5t73 21.5h260l125 303h-475q0 63 17 85t73 22h430l125 303q30 -13 46 -22.5t25 -23.5t7 -32t-14 -45l-76 -180h305q0 -63 -17 -85t-73 -22h-258z" />
    <glyph glyph-name="lessequal" unicode="&#x2264;" 
d="M154 631q-52 20 -52 80t52 80l776 319q32 -51 28 -84.5t-55 -52.5l-653 -262l653 -262q51 -19 55 -53t-28 -85zM868 166q55 0 72.5 -22.5t17.5 -84.5h-765q-57 0 -74 22t-17 85h766z" />
    <glyph glyph-name="greaterequal" unicode="&#x2265;" 
d="M199 311q-33 52 -29.5 85.5t53.5 52.5l656 262l-656 262q-50 19 -53.5 52t29.5 85l774 -319q53 -21 53 -80t-53 -80zM168 59q0 62 17.5 84.5t72.5 22.5h766q0 -63 -17 -85t-73 -22h-766z" />
    <glyph glyph-name="lozenge" unicode="&#x25ca;" horiz-adv-x="1040" 
d="M582 1335l403 -663l-403 -664q-62 -18 -123 0l-404 664l404 663q61 18 123 0zM520 109l342 563l-342 561l-340 -561z" />
    <glyph glyph-name="i.loclTRK" horiz-adv-x="468" 
d="M293 1323q0 -37 -31 -65.5t-72 -28.5q-39 0 -68.5 28.5t-29.5 65.5q0 39 29.5 68.5t68.5 29.5q41 0 72 -29t31 -69zM176 0v1014q25 14 59 14t60 -14v-1014h-119z" />
    <glyph glyph-name="a.sc" horiz-adv-x="1093" 
d="M911 0l-106 272h-518l-105 -272h-131l422 1073q76 16 135 0l434 -1073h-131zM324 373h442l-223 569z" />
    <glyph glyph-name="aacute.sc" horiz-adv-x="1093" 
d="M690 1337l-133 -161l-55 32l182 271l18 -9q43 -20 43 -47q-4 -30 -55 -86zM911 0l-106 272h-518l-105 -272h-131l422 1073q76 16 135 0l434 -1073h-131zM324 373h442l-223 569z" />
    <glyph glyph-name="abreve.sc" horiz-adv-x="1093" 
d="M545 1204q-63 0 -112 20t-76.5 52.5t-41 68t-14.5 72.5q52 17 102 0q2 -46 37 -86.5t105 -40.5q38 0 66.5 13t43 34t21 40.5t8.5 39.5q54 16 100 0q-2 -84 -61.5 -148.5t-177.5 -64.5zM911 0l-106 272h-518l-105 -272h-131l422 1073q76 16 135 0l434 -1073h-131zM324 373
h442l-223 569z" />
    <glyph glyph-name="acircumflex.sc" horiz-adv-x="1093" 
d="M418 1182q-27 0 -52 12t-38 29l168 184q20 6 48.5 6t47.5 -6l166 -184q-11 -16 -36.5 -28.5t-51.5 -12.5l-125 151zM911 0l-106 272h-518l-105 -272h-131l422 1073q76 16 135 0l434 -1073h-131zM324 373h442l-223 569z" />
    <glyph glyph-name="adieresis.sc" horiz-adv-x="1093" 
d="M412 1235q-39 0 -66 25t-27 61q0 35 27.5 60.5t65.5 25.5q37 0 64.5 -25t27.5 -61t-27.5 -61t-64.5 -25zM676 1235q-37 0 -64.5 25t-27.5 61q0 35 27.5 60.5t64.5 25.5q38 0 65 -24.5t27 -61.5t-27 -61.5t-65 -24.5zM911 0l-106 272h-518l-105 -272h-131l422 1073
q76 16 135 0l434 -1073h-131zM324 373h442l-223 569z" />
    <glyph glyph-name="agrave.sc" horiz-adv-x="1093" 
d="M379 1358q-37 43 -37 57q-4 27 45 53l16 11l187 -271l-58 -30zM911 0l-106 272h-518l-105 -272h-131l422 1073q76 16 135 0l434 -1073h-131zM324 373h442l-223 569z" />
    <glyph glyph-name="amacron.sc" horiz-adv-x="1093" 
d="M743 1370v-100h-399v100h399zM911 0l-106 272h-518l-105 -272h-131l422 1073q76 16 135 0l434 -1073h-131zM324 373h442l-223 569z" />
    <glyph glyph-name="aogonek.sc" horiz-adv-x="1093" 
d="M1065 -227q24 -44 20 -78q-29 -25 -102 -25q-69 0 -110.5 35t-41.5 98q0 51 33.5 105t89.5 92h-43l-106 272h-518l-105 -272h-131l422 1073q76 16 135 0l434 -1073q-62 -35 -94.5 -82.5t-32.5 -95.5q0 -32 20 -51t60 -19q35 0 70 21zM324 373h442l-223 569z" />
    <glyph glyph-name="aring.sc" horiz-adv-x="1093" 
d="M545 1159q-82 0 -132.5 44.5t-50.5 119.5q0 73 50.5 116.5t132.5 43.5t131 -43.5t49 -116.5q0 -75 -49 -119.5t-131 -44.5zM545 1417q-44 0 -68 -26.5t-24 -67.5q0 -44 23.5 -70t68.5 -26q43 0 66.5 26.5t23.5 69.5q0 41 -23.5 67.5t-66.5 26.5zM911 0l-106 272h-518
l-105 -272h-131l422 1073q76 16 135 0l434 -1073h-131zM324 373h442l-223 569z" />
    <glyph glyph-name="atilde.sc" horiz-adv-x="1093" 
d="M379 1247q-41 -4 -74 13q0 79 38.5 120t100.5 41q47 0 108.5 -40t96.5 -40q33 0 49.5 27.5t16.5 58.5q38 3 76 -12q0 -78 -36.5 -120t-92.5 -42q-33 0 -64.5 13t-52.5 28t-47 28t-49 13q-35 0 -52.5 -28t-17.5 -60zM911 0l-106 272h-518l-105 -272h-131l422 1073
q76 16 135 0l434 -1073h-131zM324 373h442l-223 569z" />
    <glyph glyph-name="ae.sc" horiz-adv-x="1552" 
d="M911 100h527v-100h-633l-39 264h-451l-137 -264h-127l557 1069h709v-102h-535l58 -377h458q0 -58 -22 -103h-422zM369 365h381l-84 569z" />
    <glyph glyph-name="b.sc" horiz-adv-x="1009" 
d="M662 582q134 -24 195 -92.5t61 -184.5q0 -133 -119.5 -219t-302.5 -86h-318v1055q153 30 297 30q171 0 275 -74.5t104 -193.5q0 -183 -192 -235zM733 797q0 81 -67 132.5t-201 51.5q-100 0 -168 -12v-353h182q127 0 190.5 48t63.5 133zM475 102q152 0 232.5 55t80.5 154
q0 112 -79.5 157.5t-229.5 45.5h-182v-412h178z" />
    <glyph glyph-name="c.sc" horiz-adv-x="1148" 
d="M1059 143q-150 -159 -422 -159q-239 0 -385 147.5t-146 405.5q0 253 146 400.5t385 147.5q277 0 422 -167q-4 -30 -28.5 -52t-55.5 -30q-47 68 -134.5 106.5t-203.5 38.5q-191 0 -300.5 -117.5t-109.5 -326.5q0 -212 109.5 -330.5t300.5 -118.5q209 0 358 137z" />
    <glyph glyph-name="cacute.sc" horiz-adv-x="1148" 
d="M631 1178l-53 30l180 273l18 -8q48 -21 43 -48q0 -28 -53 -86zM1059 143q-150 -159 -422 -159q-239 0 -385 147.5t-146 405.5q0 253 146 400.5t385 147.5q277 0 422 -167q-4 -30 -28.5 -52t-55.5 -30q-47 68 -134.5 106.5t-203.5 38.5q-191 0 -300.5 -117.5
t-109.5 -326.5q0 -212 109.5 -330.5t300.5 -118.5q209 0 358 137z" />
    <glyph glyph-name="ccaron.sc" horiz-adv-x="1148" 
d="M666 1200q-50 -14 -97 0l-166 184q10 15 35 28t54 13l126 -149l125 149q26 0 52 -12.5t39 -28.5zM637 88q209 0 358 137l64 -82q-150 -159 -422 -159q-239 0 -385 147.5t-146 405.5q0 253 146 400.5t385 147.5q277 0 422 -167q-4 -30 -28.5 -52t-55.5 -30
q-47 68 -134.5 106.5t-203.5 38.5q-191 0 -300.5 -117.5t-109.5 -326.5q0 -212 109.5 -330.5t300.5 -118.5z" />
    <glyph glyph-name="ccedilla.sc" horiz-adv-x="1148" 
d="M637 88q209 0 358 137l64 -82q-141 -150 -389 -159l-54 -93q30 5 41 5q64 0 107 -34t43 -95q0 -71 -58.5 -110.5t-148.5 -39.5q-61 0 -119 10q0 46 13 72q63 -16 118 -16q56 0 87.5 22t31.5 57q0 70 -106 70q-32 0 -70 -10q-33 20 -33 43l68 121q-220 14 -352 160
t-132 391q0 253 146 400.5t385 147.5q277 0 422 -167q-4 -30 -28.5 -52t-55.5 -30q-47 68 -134.5 106.5t-203.5 38.5q-191 0 -300.5 -117.5t-109.5 -326.5q0 -212 109.5 -330.5t300.5 -118.5z" />
    <glyph glyph-name="cdotaccent.sc" horiz-adv-x="1148" 
d="M709 1315q0 -31 -27.5 -55.5t-63.5 -24.5q-37 0 -63.5 24t-26.5 56q0 35 26.5 60.5t63.5 25.5t64 -25.5t27 -60.5zM1059 143q-150 -159 -422 -159q-239 0 -385 147.5t-146 405.5q0 253 146 400.5t385 147.5q277 0 422 -167q-4 -30 -28.5 -52t-55.5 -30
q-47 68 -134.5 106.5t-203.5 38.5q-191 0 -300.5 -117.5t-109.5 -326.5q0 -212 109.5 -330.5t300.5 -118.5q209 0 358 137z" />
    <glyph glyph-name="d.sc" horiz-adv-x="1196" 
d="M481 1085q289 0 450 -145t161 -391q0 -256 -169 -401.5t-456 -147.5h-289v1053q174 32 303 32zM467 102q241 0 371.5 113.5t130.5 333.5q0 206 -123.5 317t-351.5 111q-132 0 -197 -16v-859h170z" />
    <glyph glyph-name="eth.sc" horiz-adv-x="1196" 
d="M481 1085q289 0 450 -144.5t161 -391.5q0 -254 -168.5 -400.5t-458.5 -148.5h-287v483h-129q6 24 11 38t15 30t27 23.5t41 7.5h35v471q174 32 303 32zM465 102q242 0 373 113.5t131 333.5q0 206 -123.5 317t-351.5 111q-129 0 -197 -16v-379h362q-11 -99 -77 -99h-285
v-381h168z" />
    <glyph glyph-name="dcaron.sc" horiz-adv-x="1196" 
d="M631 1200q-52 -14 -96 0l-166 184q11 16 35.5 28.5t52.5 12.5l125 -151l127 151q27 0 51.5 -12.5t36.5 -28.5zM481 1085q289 0 450 -145t161 -391q0 -256 -169 -401.5t-456 -147.5h-289v1053q174 32 303 32zM467 102q241 0 371.5 113.5t130.5 333.5q0 206 -123.5 317
t-351.5 111q-132 0 -197 -16v-859h170z" />
    <glyph glyph-name="dcroat.sc" horiz-adv-x="1196" 
d="M481 1085q289 0 450 -144.5t161 -391.5q0 -254 -168.5 -400.5t-458.5 -148.5h-287v483h-129q6 24 11 38t15 30t27 23.5t41 7.5h35v471q174 32 303 32zM465 102q242 0 373 113.5t131 333.5q0 206 -123.5 317t-351.5 111q-129 0 -197 -16v-379h362q-11 -99 -77 -99h-285
v-381h168z" />
    <glyph glyph-name="e.sc" horiz-adv-x="958" 
d="M844 967h-547v-377h461q0 -58 -23 -103h-438v-385h547v-102h-666v1069h666v-102z" />
    <glyph glyph-name="eacute.sc" horiz-adv-x="958" 
d="M690 1339l-133 -161l-57 30l184 273l18 -8q41 -19 41 -48q0 -28 -53 -86zM844 967h-547v-377h461q0 -58 -23 -103h-438v-385h547v-102h-666v1069h666v-102z" />
    <glyph glyph-name="ecaron.sc" horiz-adv-x="958" 
d="M590 1200q-19 -6 -47.5 -6t-48.5 6l-168 184q33 41 88 41l127 -151l127 151q28 0 52.5 -12.5t35.5 -28.5zM844 967h-547v-377h461q0 -58 -23 -103h-438v-385h547v-102h-666v1069h666v-102z" />
    <glyph glyph-name="ecircumflex.sc" horiz-adv-x="958" 
d="M414 1184q-55 0 -88 41l168 184q50 14 96 0l166 -184q-11 -16 -35.5 -28.5t-52.5 -12.5l-127 151zM844 967h-547v-377h461q0 -58 -23 -103h-438v-385h547v-102h-666v1069h666v-102z" />
    <glyph glyph-name="edieresis.sc" horiz-adv-x="958" 
d="M408 1237q-37 0 -63 25t-26 61q0 35 26.5 59.5t62.5 24.5q39 0 66.5 -24t27.5 -60t-27.5 -61t-66.5 -25zM674 1237q-37 0 -63.5 25t-26.5 61q0 35 26.5 59.5t63.5 24.5t65.5 -24.5t28.5 -59.5q0 -36 -27.5 -61t-66.5 -25zM844 967h-547v-377h461q0 -58 -23 -103h-438
v-385h547v-102h-666v1069h666v-102z" />
    <glyph glyph-name="edotaccent.sc" horiz-adv-x="958" 
d="M543 1235q-37 0 -63.5 24t-26.5 56q0 35 27 60.5t63 25.5t64 -25.5t28 -60.5q0 -31 -28.5 -55.5t-63.5 -24.5zM844 967h-547v-377h461q0 -58 -23 -103h-438v-385h547v-102h-666v1069h666v-102z" />
    <glyph glyph-name="egrave.sc" horiz-adv-x="958" 
d="M532 1180l-157 180q-35 44 -35 55q0 33 45 55l18 11l185 -273zM844 967h-547v-377h461q0 -58 -23 -103h-438v-385h547v-102h-666v1069h666v-102z" />
    <glyph glyph-name="emacron.sc" horiz-adv-x="958" 
d="M741 1372v-100h-397v100h397zM844 967h-547v-377h461q0 -58 -23 -103h-438v-385h547v-102h-666v1069h666v-102z" />
    <glyph glyph-name="eogonek.sc" horiz-adv-x="958" 
d="M866 -227q24 -39 21 -78q-29 -25 -103 -25q-70 0 -110.5 34.5t-40.5 98.5q0 51 33.5 104.5t91.5 92.5h-580v1069h666v-102h-547v-377h461q0 -58 -23 -103h-438v-385h547v-102q-62 -36 -94.5 -83t-32.5 -95q0 -33 20.5 -51.5t59.5 -18.5q35 0 69 21z" />
    <glyph glyph-name="f.sc" horiz-adv-x="917" 
d="M844 967h-547v-377h461q0 -58 -23 -103h-438v-487h-119v1069h666v-102z" />
    <glyph glyph-name="g.sc" horiz-adv-x="1200" 
d="M973 483q50 42 121 21v-361q-73 -76 -192 -117.5t-265 -41.5q-239 0 -385 147.5t-146 405.5q0 253 146 399.5t385 146.5q135 0 246 -43t184 -125q-26 -65 -88 -81q-103 147 -342 147q-191 0 -300.5 -117.5t-109.5 -326.5q0 -212 109.5 -330.5t300.5 -118.5q202 0 336 88
v307z" />
    <glyph glyph-name="gbreve.sc" horiz-adv-x="1200" 
d="M616 1206q-120 0 -180.5 64.5t-60.5 148.5q47 17 100 0q2 -48 36 -87.5t107 -39.5q72 0 104 40.5t34 86.5q52 16 102 0q-4 -84 -64 -148.5t-178 -64.5zM973 483q50 42 121 21v-361q-73 -76 -192 -117.5t-265 -41.5q-239 0 -385 147.5t-146 405.5q0 253 146 399.5
t385 146.5q135 0 246 -43t184 -125q-26 -65 -88 -81q-103 147 -342 147q-191 0 -300.5 -117.5t-109.5 -326.5q0 -212 109.5 -330.5t300.5 -118.5q202 0 336 88v307z" />
    <glyph glyph-name="uni0123.sc" horiz-adv-x="1200" 
d="M973 483q50 42 121 21v-361q-73 -76 -192 -117.5t-265 -41.5q-239 0 -385 147.5t-146 405.5q0 253 146 399.5t385 146.5q135 0 246 -43t184 -125q-26 -65 -88 -81q-103 147 -342 147q-191 0 -300.5 -117.5t-109.5 -326.5q0 -212 109.5 -330.5t300.5 -118.5q202 0 336 88
v307zM668 -94q43 0 70.5 -29t27.5 -70q0 -64 -40 -124t-97 -95q-15 2 -31 13t-23 26q76 48 93 113q-37 0 -62.5 24.5t-25.5 57.5t25.5 58.5t62.5 25.5z" />
    <glyph glyph-name="gdotaccent.sc" horiz-adv-x="1200" 
d="M616 1235q-35 0 -62.5 24t-27.5 56q0 35 27 60.5t63 25.5t64.5 -25.5t28.5 -60.5q0 -31 -29 -55.5t-64 -24.5zM973 483q50 42 121 21v-361q-73 -76 -192 -117.5t-265 -41.5q-239 0 -385 147.5t-146 405.5q0 253 146 399.5t385 146.5q135 0 246 -43t184 -125
q-26 -65 -88 -81q-103 147 -342 147q-191 0 -300.5 -117.5t-109.5 -326.5q0 -212 109.5 -330.5t300.5 -118.5q202 0 336 88v307z" />
    <glyph glyph-name="h.sc" horiz-adv-x="1216" 
d="M918 1069q64 17 120 0v-1069h-120v492h-621v-492h-119v1069q65 17 119 0v-475h621v475z" />
    <glyph glyph-name="i.sc" horiz-adv-x="475" 
d="M297 0h-119v1069q65 17 119 0v-1069z" />
    <glyph glyph-name="iacute.sc" horiz-adv-x="475" 
d="M252 1176l-55 32l182 271l18 -9q43 -21 43 -47q-4 -30 -55 -86zM297 0h-119v1069q65 17 119 0v-1069z" />
    <glyph glyph-name="icircumflex.sc" horiz-adv-x="473" 
d="M285 1407l166 -184q-11 -16 -37 -28.5t-52 -12.5l-124 151l-127 -151q-28 0 -52.5 12.5t-35.5 28.5l165 184q20 6 49 6t48 -6zM178 1069q57 17 119 0v-1069h-119v1069z" />
    <glyph glyph-name="idieresis.sc" horiz-adv-x="477" 
d="M104 1235q-37 0 -63.5 25t-26.5 61q0 35 26.5 60.5t63.5 25.5q39 0 67 -25t28 -61t-28 -61t-67 -25zM369 1235q-36 0 -63 25t-27 61q0 35 26.5 60.5t63.5 25.5q39 0 66.5 -25t27.5 -61t-27.5 -61t-66.5 -25zM299 0h-119v1069q56 17 119 0v-1069z" />
    <glyph glyph-name="i.sc.loclTRK" horiz-adv-x="475" 
d="M330 1315q0 -32 -27.5 -57t-64.5 -25t-64 24t-27 58t27 59t64 25t64.5 -25t27.5 -59zM297 0h-119v1069q65 18 119 0v-1069z" />
    <glyph glyph-name="igrave.sc" horiz-adv-x="475" 
d="M227 1178l-153 180q-37 43 -37 57q-4 27 45 53l16 11l185 -271zM299 0h-119v1069q54 17 119 0v-1069z" />
    <glyph glyph-name="ij.sc" horiz-adv-x="1036" 
d="M739 1073q61 18 119 0v-887q0 -140 -64.5 -216t-175.5 -76q-79 0 -155 26q3 69 37 103q82 -21 123 -21q116 0 116 160v911zM297 0h-119v1069q65 17 119 0v-1069z" />
    <glyph glyph-name="imacron.sc" horiz-adv-x="477" 
d="M39 1370h399v-100h-399v100zM297 0h-119v1069q59 18 119 0v-1069z" />
    <glyph glyph-name="iogonek.sc" horiz-adv-x="475" 
d="M317 -227q26 -43 21 -78q-29 -25 -102 -25q-69 0 -110.5 35t-41.5 98q0 52 34.5 105.5t88.5 91.5h-29v1069q54 16 119 0v-1069q-63 -36 -96 -83.5t-33 -94.5q0 -33 20.5 -51.5t59.5 -18.5q34 0 69 21z" />
    <glyph glyph-name="j.sc" horiz-adv-x="595" 
d="M299 1073q63 19 119 0v-887q0 -140 -64.5 -216t-173.5 -76q-84 0 -157 26q3 70 36 103q79 -21 125 -21q115 0 115 160v911z" />
    <glyph glyph-name="k.sc" horiz-adv-x="1042" 
d="M987 0h-168l-522 518v-518h-119v1069q58 15 119 0v-502l487 502q81 15 156 0l-514 -520z" />
    <glyph glyph-name="uni0137.sc" horiz-adv-x="1042" 
d="M426 549l561 -549h-168l-522 518v-518h-119v1069q58 15 119 0v-502l487 502q81 15 156 0zM559 -94q42 0 69 -28.5t27 -70.5q0 -64 -39.5 -124.5t-95.5 -94.5q-35 4 -53 39q73 48 92 113q-39 0 -63.5 24.5t-24.5 57.5t25.5 58.5t62.5 25.5z" />
    <glyph glyph-name="l.sc" horiz-adv-x="897" 
d="M297 102h528v-102h-647v1069q65 17 119 0v-967z" />
    <glyph glyph-name="lacute.sc" horiz-adv-x="897" 
d="M385 1339l-133 -161l-55 30l182 273l18 -8q43 -19 43 -48q-4 -30 -55 -86zM297 102h528v-102h-647v1069q65 17 119 0v-967z" />
    <glyph glyph-name="lcaron.sc" horiz-adv-x="897" 
d="M285 1200q-50 -14 -97 0l-165 184q32 41 88 41l127 -149l124 149q26 0 52 -12.5t37 -28.5zM297 102h526v-102h-645v1069q57 17 119 0v-967z" />
    <glyph glyph-name="uni013C.sc" horiz-adv-x="897" 
d="M297 102h528v-102h-647v1069q65 17 119 0v-967zM514 -94q42 0 69 -28.5t27 -70.5q0 -63 -40.5 -124t-96.5 -95q-14 2 -30 13t-23 26q73 48 92 113q-37 0 -61.5 24.5t-24.5 57.5q0 34 25 59t63 25z" />
    <glyph glyph-name="lslash.sc" horiz-adv-x="886" 
d="M297 102h526v-102h-645v410l-117 -56q-10 23 -10 43q0 58 58 88l69 33v551q65 17 119 0v-496l287 136q6 -21 6 -45q0 -63 -60 -91l-233 -108v-363z" />
    <glyph glyph-name="m.sc" horiz-adv-x="1435" 
d="M1085 1069q92 17 172 0v-1069h-118v547l6 379l-371 -832q-38 -9 -57.5 -9t-54.5 9l-371 830l6 -377v-547h-119v1069q93 17 170 0l371 -821z" />
    <glyph glyph-name="n.sc" horiz-adv-x="1271" 
d="M973 1069h121v-1069q-60 -17 -121 0l-680 877l4 -158v-719h-119v1069q58 15 119 0l682 -885l-6 123v762z" />
    <glyph glyph-name="nacute.sc" horiz-adv-x="1271" 
d="M786 1339l-133 -161l-55 30l182 273l19 -8q43 -19 43 -48q-4 -29 -56 -86zM973 1069h121v-1069q-60 -17 -121 0l-680 877l4 -158v-719h-119v1069q58 15 119 0l682 -885l-6 123v762z" />
    <glyph glyph-name="ncaron.sc" horiz-adv-x="1271" 
d="M688 1200q-20 -6 -49 -6t-49 6l-166 184q11 16 36.5 28.5t51.5 12.5l127 -149l125 149q27 0 53 -12.5t37 -28.5zM973 1069h121v-1069q-60 -17 -121 0l-680 877l4 -158v-719h-119v1069q58 15 119 0l682 -885l-6 123v762z" />
    <glyph glyph-name="uni0146.sc" horiz-adv-x="1271" 
d="M973 1069h121v-1069q-60 -17 -121 0l-680 877l4 -158v-719h-119v1069q58 15 119 0l682 -885l-6 123v762zM659 -94q43 0 71 -29t28 -70q0 -63 -40.5 -123.5t-96.5 -95.5q-15 2 -31 13t-23 26q75 47 92 113q-37 0 -62.5 24.5t-25.5 57.5t25.5 58.5t62.5 25.5z" />
    <glyph glyph-name="eng.sc" horiz-adv-x="1288" 
d="M1094 6v-6q-2 -96 -17 -154t-57 -99.5t-115.5 -58t-193.5 -16.5q8 72 41 105q50 0 78.5 2t56.5 9.5t41.5 21t24.5 40t15 61.5t5 89l-680 877l4 -158v-719h-119v1069q58 15 119 0l682 -885l-6 123v762h121v-1034v-29z" />
    <glyph glyph-name="ntilde.sc" horiz-adv-x="1271" 
d="M545 1337q-36 0 -53 -28t-17 -62q-46 0 -76 15q0 78 40 119.5t102 41.5q38 0 73 -20.5t67 -41t62 -20.5q34 0 50 28.5t16 60.5q41 0 78 -13q0 -78 -37.5 -120t-93.5 -42q-41 0 -79.5 20.5t-71 41t-60.5 20.5zM973 1069h121v-1069q-60 -17 -121 0l-680 877l4 -158v-719
h-119v1069q58 15 119 0l682 -885l-6 123v762z" />
    <glyph glyph-name="o.sc" horiz-adv-x="1280" 
d="M641 -16q-244 0 -389.5 150t-145.5 401t145.5 400.5t389.5 149.5q243 0 389 -150t146 -400t-146 -400.5t-389 -150.5zM641 88q194 0 302 117t108 330t-108 329.5t-302 116.5q-196 0 -304 -116.5t-108 -329.5t109 -330t303 -117z" />
    <glyph glyph-name="oacute.sc" horiz-adv-x="1280" 
d="M653 1178l-55 30l184 273l19 -8q41 -18 41 -48q0 -27 -54 -86zM641 -16q-244 0 -389.5 150t-145.5 401t145.5 400.5t389.5 149.5q243 0 389 -150t146 -400t-146 -400.5t-389 -150.5zM641 88q194 0 302 117t108 330t-108 329.5t-302 116.5q-196 0 -304 -116.5t-108 -329.5
t109 -330t303 -117z" />
    <glyph glyph-name="ocircumflex.sc" horiz-adv-x="1280" 
d="M512 1184q-26 0 -50.5 12.5t-37.5 28.5l168 184q49 14 94 0l168 -184q-11 -16 -35.5 -28.5t-52.5 -12.5l-127 149zM641 1085q243 0 389 -150t146 -400t-146 -400.5t-389 -150.5q-244 0 -389.5 150t-145.5 401t145.5 400.5t389.5 149.5zM641 88q194 0 302 117t108 330
t-108 329.5t-302 116.5q-196 0 -304 -116.5t-108 -329.5t109 -330t303 -117z" />
    <glyph glyph-name="odieresis.sc" horiz-adv-x="1280" 
d="M506 1237q-37 0 -63.5 25t-26.5 61q0 35 27 59.5t63 24.5q39 0 66.5 -24.5t27.5 -59.5q0 -36 -27.5 -61t-66.5 -25zM772 1237q-37 0 -63.5 25t-26.5 61q0 35 26.5 59.5t63.5 24.5q38 0 66 -24t28 -60t-27.5 -61t-66.5 -25zM641 -16q-244 0 -389.5 150t-145.5 401
t145.5 400.5t389.5 149.5q243 0 389 -150t146 -400t-146 -400.5t-389 -150.5zM641 88q194 0 302 117t108 330t-108 329.5t-302 116.5q-196 0 -304 -116.5t-108 -329.5t109 -330t303 -117z" />
    <glyph glyph-name="ograve.sc" horiz-adv-x="1280" 
d="M629 1180l-156 180q-35 44 -37 55q0 29 47 55l17 11l186 -273zM641 -16q-244 0 -389.5 150t-145.5 401t145.5 400.5t389.5 149.5q243 0 389 -150t146 -400t-146 -400.5t-389 -150.5zM641 88q194 0 302 117t108 330t-108 329.5t-302 116.5q-196 0 -304 -116.5t-108 -329.5
t109 -330t303 -117z" />
    <glyph glyph-name="ohungarumlaut.sc" horiz-adv-x="1280" 
d="M520 1153l-63 18l116 304l21 -5q47 -11 51 -38q5 -30 -35 -97zM733 1153l-53 37l213 254l16 -12q41 -22 37 -54q-4 -27 -63 -78zM641 -16q-244 0 -389.5 150t-145.5 401t145.5 400.5t389.5 149.5q243 0 389 -150t146 -400t-146 -400.5t-389 -150.5zM641 88q194 0 302 117
t108 330t-108 329.5t-302 116.5q-196 0 -304 -116.5t-108 -329.5t109 -330t303 -117z" />
    <glyph glyph-name="omacron.sc" horiz-adv-x="1280" 
d="M440 1372h400v-100h-400v100zM641 -16q-244 0 -389.5 150t-145.5 401t145.5 400.5t389.5 149.5q243 0 389 -150t146 -400t-146 -400.5t-389 -150.5zM641 88q194 0 302 117t108 330t-108 329.5t-302 116.5q-196 0 -304 -116.5t-108 -329.5t109 -330t303 -117z" />
    <glyph glyph-name="oslash.sc" horiz-adv-x="1277" 
d="M1034 930q142 -148 142 -395q0 -250 -146 -400.5t-389 -150.5q-191 0 -324 94l-77 -94q-27 0 -49.5 14.5t-34.5 34.5l90 106q-140 149 -140 396q0 251 145.5 400.5t389.5 149.5q186 0 320 -92l75 92q56 -3 86 -49zM229 535q0 -192 90 -308l572 684q-103 70 -250 70
q-196 0 -304 -116.5t-108 -329.5zM641 88q194 0 302 117t108 330q0 193 -90 309l-572 -684q101 -72 252 -72z" />
    <glyph glyph-name="otilde.sc" horiz-adv-x="1280" 
d="M477 1247q-48 0 -78 15q0 78 40.5 119.5t103.5 41.5q37 0 72 -20.5t67.5 -41t62.5 -20.5q34 0 50 29t16 60q41 0 78 -13q0 -78 -38 -120t-93 -42q-42 0 -80.5 20.5t-71 41t-59.5 20.5q-36 0 -53 -28t-17 -62zM641 -16q-244 0 -389.5 150t-145.5 401t145.5 400.5
t389.5 149.5q243 0 389 -150t146 -400t-146 -400.5t-389 -150.5zM641 88q194 0 302 117t108 330t-108 329.5t-302 116.5q-196 0 -304 -116.5t-108 -329.5t109 -330t303 -117z" />
    <glyph glyph-name="oe.sc" horiz-adv-x="1679" 
d="M1565 967h-547v-377h459q0 -58 -23 -103h-436v-387h547v-100h-666v4q-94 -20 -235 -20q-256 0 -407 151t-151 402q0 252 153 400t413 148q148 0 227 -18v2h666v-102zM664 88q137 0 235 29v821q-87 43 -235 43q-210 0 -323.5 -114t-113.5 -330q0 -213 114 -331t323 -118z
" />
    <glyph glyph-name="p.sc" horiz-adv-x="972" 
d="M457 1085q111 0 197.5 -31.5t136 -82.5t74 -109.5t24.5 -120.5q0 -164 -128.5 -275.5t-326.5 -111.5h-137v-354h-119v1055q150 30 279 30zM418 457q176 0 263 79t87 205q0 49 -17.5 90.5t-54.5 76.5t-103.5 55t-156.5 20q-80 0 -139 -12v-514h121z" />
    <glyph glyph-name="thorn.sc" horiz-adv-x="964" 
d="M469 901q187 0 303.5 -103.5t116.5 -256.5q0 -152 -118 -256.5t-302 -104.5h-172v-180h-119v1069q65 17 119 0v-168h172zM428 283q169 0 254.5 72t85.5 186q0 115 -85.5 185.5t-254.5 70.5h-131v-514h131z" />
    <glyph glyph-name="q.sc" horiz-adv-x="1277" 
d="M1176 535q0 -135 -44.5 -244t-127.5 -182l147 -175q-7 -27 -30.5 -43t-53.5 -16l-149 174q-118 -65 -277 -65q-244 0 -389.5 150t-145.5 401t145.5 400.5t389.5 149.5q243 0 389 -150t146 -400zM641 88q122 0 205 45l-187 217q9 28 32 45t52 17l187 -219q121 118 121 342
q0 213 -108 329.5t-302 116.5q-196 0 -304 -116.5t-108 -329.5t109 -330t303 -117z" />
    <glyph glyph-name="r.sc" horiz-adv-x="1026" 
d="M948 0h-139l-270 414q-36 -4 -58 -4h-184v-410h-119v1055q150 30 279 30q110 0 195.5 -28t135.5 -75t75.5 -102.5t25.5 -115.5q0 -110 -64 -197t-172 -127zM438 514q166 0 248 68.5t82 181.5q0 100 -77.5 159.5t-250.5 59.5q-69 0 -143 -12v-457h141z" />
    <glyph glyph-name="racute.sc" horiz-adv-x="1026" 
d="M616 1339l-133 -161l-55 30l182 273l19 -8q43 -20 43 -48q-4 -28 -56 -86zM948 0h-139l-270 414q-36 -4 -58 -4h-184v-410h-119v1055q150 30 279 30q110 0 195.5 -28t135.5 -75t75.5 -102.5t25.5 -115.5q0 -110 -64 -197t-172 -127zM438 514q166 0 248 68.5t82 181.5
q0 100 -77.5 159.5t-250.5 59.5q-69 0 -143 -12v-457h141z" />
    <glyph glyph-name="rcaron.sc" horiz-adv-x="1026" 
d="M516 1200q-19 -6 -47.5 -6t-48.5 6l-166 184q11 16 35.5 28.5t52.5 12.5l127 -149l127 149q26 0 50.5 -12.5t37.5 -28.5zM948 0h-139l-270 414q-36 -4 -58 -4h-184v-410h-119v1055q150 30 279 30q110 0 195.5 -28t135.5 -75t75.5 -102.5t25.5 -115.5q0 -110 -64 -197
t-172 -127zM438 514q166 0 248 68.5t82 181.5q0 100 -77.5 159.5t-250.5 59.5q-69 0 -143 -12v-457h141z" />
    <glyph glyph-name="uni0157.sc" horiz-adv-x="1026" 
d="M653 440l295 -440h-139l-270 414q-36 -4 -58 -4h-184v-410h-119v1055q150 30 279 30q110 0 195.5 -28t135.5 -75t75.5 -102.5t25.5 -115.5q0 -110 -64 -197t-172 -127zM438 514q166 0 248 68.5t82 181.5q0 100 -77.5 159.5t-250.5 59.5q-69 0 -143 -12v-457h141zM539 -94
q42 0 70 -28.5t28 -70.5q0 -64 -39.5 -123.5t-97.5 -95.5q-14 2 -30.5 13t-23.5 26q75 49 91 113q-37 0 -61.5 24.5t-24.5 57.5q0 32 25 58t63 26z" />
    <glyph glyph-name="s.sc" horiz-adv-x="940" 
d="M760 944q-142 43 -244 43q-118 0 -180 -45.5t-62 -122.5q0 -71 51 -116t181 -91q176 -63 246.5 -135t70.5 -190q0 -144 -114 -225.5t-291 -81.5q-147 0 -289 40q-17 56 14 113q171 -49 273 -49q131 0 205.5 52t74.5 147q0 73 -55.5 123.5t-200.5 105.5
q-159 59 -227 125.5t-68 165.5q0 134 102 210.5t285 76.5q98 0 240 -33q11 -23 7.5 -54.5t-19.5 -58.5z" />
    <glyph glyph-name="sacute.sc" horiz-adv-x="940" 
d="M485 1178l-55 30l182 273l21 -8q45 -19 41 -48q0 -28 -53 -86zM760 944q-142 43 -244 43q-118 0 -180 -45.5t-62 -122.5q0 -71 51 -116t181 -91q176 -63 246.5 -135t70.5 -190q0 -144 -114 -225.5t-291 -81.5q-147 0 -289 40q-17 56 14 113q171 -49 273 -49
q131 0 205.5 52t74.5 147q0 73 -55.5 123.5t-200.5 105.5q-159 59 -227 125.5t-68 165.5q0 134 102 210.5t285 76.5q98 0 240 -33q11 -23 7.5 -54.5t-19.5 -58.5z" />
    <glyph glyph-name="scaron.sc" horiz-adv-x="940" 
d="M520 1200q-20 -6 -48.5 -6t-47.5 6l-168 184q33 41 90 41l127 -149l125 149q28 0 52.5 -12.5t35.5 -28.5zM506 612q176 -63 246.5 -135t70.5 -190q0 -144 -114 -225.5t-291 -81.5q-147 0 -289 40q-17 56 14 113q171 -49 273 -49q131 0 205.5 52t74.5 147
q0 73 -55.5 123.5t-200.5 105.5q-159 59 -227 125.5t-68 165.5q0 134 102 210.5t285 76.5q98 0 240 -33q11 -23 7.5 -54.5t-19.5 -58.5q-142 43 -244 43q-118 0 -180 -45.5t-62 -122.5q0 -71 51 -116t181 -91z" />
    <glyph glyph-name="scedilla.sc" horiz-adv-x="940" 
d="M823 287q0 -124 -86.5 -203t-228.5 -98l-51 -95q25 5 41 5q64 0 106.5 -34.5t42.5 -94.5q0 -71 -59 -110.5t-150 -39.5q-58 0 -116 10q0 52 10 72q65 -16 119 -16q56 0 87 22.5t31 56.5q0 70 -104 70q-32 0 -70 -10q-13 5 -24 17t-11 26l66 115h-8q-147 0 -289 40
q-17 56 14 113q171 -49 273 -49q131 0 205.5 52t74.5 147q0 73 -55.5 123.5t-200.5 105.5q-159 59 -227 125.5t-68 165.5q0 134 102 210.5t285 76.5q98 0 240 -33q11 -23 7.5 -54.5t-19.5 -58.5q-142 43 -244 43q-118 0 -180 -45.5t-62 -122.5q0 -71 51 -116t181 -91
q176 -63 246.5 -135t70.5 -190z" />
    <glyph glyph-name="uni0219.sc" horiz-adv-x="940" 
d="M506 612q176 -63 246.5 -135t70.5 -190q0 -144 -114 -225.5t-291 -81.5q-147 0 -289 40q-17 56 14 113q171 -49 273 -49q131 0 205.5 52t74.5 147q0 73 -55.5 123.5t-200.5 105.5q-159 59 -227 125.5t-68 165.5q0 134 102 210.5t285 76.5q98 0 240 -33q11 -23 7.5 -54.5
t-19.5 -58.5q-142 43 -244 43q-118 0 -180 -45.5t-62 -122.5q0 -71 51 -116t181 -91zM471 -94q43 0 70.5 -28.5t27.5 -70.5q0 -66 -40.5 -125.5t-96.5 -93.5q-14 2 -29.5 13.5t-21.5 25.5q70 46 90 113q-37 0 -62.5 24.5t-25.5 57.5t25.5 58.5t62.5 25.5z" />
    <glyph glyph-name="germandbls.sc" horiz-adv-x="1243" 
d="M803 623q149 -44 246.5 -129.5t97.5 -194.5q0 -139 -85 -229t-257 -90q-84 0 -138.5 8.5t-123.5 27.5q-18 61 12 115q92 -27 142 -37t102 -10q98 0 163.5 47.5t65.5 147.5q0 88 -72 148t-241 116q-45 27 -45 88l219 301q-107 55 -271 55q-176 0 -265 -80t-89 -231v-676
q-61 -18 -119 0v662q0 212 128 322t366 110q222 3 422 -115z" />
    <glyph glyph-name="t.sc" horiz-adv-x="913" 
d="M860 1069q0 -58 -20 -102h-324v-967h-119v967h-342q0 63 21 102h784z" />
    <glyph glyph-name="tbar.sc" horiz-adv-x="913" 
d="M840 967h-324v-363h234q-3 -43 -22 -72.5t-54 -29.5h-158v-502h-119v502h-237q9 48 28.5 75t65.5 27h143v363h-342q0 63 21 102h784q0 -58 -20 -102z" />
    <glyph glyph-name="tcaron.sc" horiz-adv-x="913" 
d="M506 1198q-51 -14 -98 0l-166 186q12 15 36.5 27t53.5 12l127 -149l125 149q26 0 51 -12t37 -27zM860 1069q0 -58 -20 -102h-324v-967h-119v967h-342q0 63 21 102h784z" />
    <glyph glyph-name="uni0163.sc" horiz-adv-x="913" 
d="M516 0h-16l-58 -109q30 5 39 5q65 0 108.5 -34.5t43.5 -94.5q0 -71 -59.5 -110.5t-149.5 -39.5q-59 0 -117 10q0 56 10 72q63 -16 119 -16t87.5 22.5t31.5 56.5q0 70 -106 70q-37 0 -68 -10q-13 5 -24 17.5t-11 25.5l76 135h-25v967h-342q0 63 21 102h784q0 -58 -20 -102
h-324v-967z" />
    <glyph glyph-name="uni021B.sc" horiz-adv-x="913" 
d="M76 1069h784q0 -58 -20 -102h-324v-967h-119v967h-342q0 63 21 102zM457 -94q42 0 70 -28.5t28 -70.5q0 -64 -40 -124t-97 -95q-35 4 -53 39q73 48 92 113q-38 0 -62 24t-24 58q0 33 24.5 58.5t61.5 25.5z" />
    <glyph glyph-name="u.sc" horiz-adv-x="1146" 
d="M575 -16q-201 0 -315.5 113.5t-114.5 334.5v637q65 17 119 0v-653q0 -147 81 -234.5t228 -87.5q139 0 224.5 86t85.5 236v653q64 17 118 0v-637q0 -214 -111.5 -331t-314.5 -117z" />
    <glyph glyph-name="uacute.sc" horiz-adv-x="1146" 
d="M588 1176l-56 32l183 271l18 -9q43 -18 43 -47q0 -28 -53 -86zM575 -16q-201 0 -315.5 113.5t-114.5 334.5v637q65 17 119 0v-653q0 -147 81 -234.5t228 -87.5q139 0 224.5 86t85.5 236v653q64 17 118 0v-637q0 -214 -111.5 -331t-314.5 -117z" />
    <glyph glyph-name="ucircumflex.sc" horiz-adv-x="1146" 
d="M446 1182q-26 0 -50.5 12.5t-37.5 28.5l168 184q20 6 48 6t47 -6l167 -184q-11 -16 -36.5 -28.5t-51.5 -12.5l-127 151zM883 1069q64 17 118 0v-637q0 -214 -111.5 -331t-314.5 -117q-201 0 -315.5 113.5t-114.5 334.5v637q65 17 119 0v-653q0 -147 81 -234.5t228 -87.5
q139 0 224.5 86t85.5 236v653z" />
    <glyph glyph-name="udieresis.sc" horiz-adv-x="1146" 
d="M440 1235q-37 0 -63.5 25t-26.5 61q0 35 26.5 60.5t63.5 25.5q39 0 67 -25t28 -61t-28 -61t-67 -25zM707 1235q-37 0 -64 25t-27 61q0 35 27 60.5t64 25.5t64.5 -25t27.5 -61t-27.5 -61t-64.5 -25zM575 -16q-201 0 -315.5 113.5t-114.5 334.5v637q65 17 119 0v-653
q0 -147 81 -234.5t228 -87.5q139 0 224.5 86t85.5 236v653q64 17 118 0v-637q0 -214 -111.5 -331t-314.5 -117z" />
    <glyph glyph-name="ugrave.sc" horiz-adv-x="1146" 
d="M563 1178l-155 180q-35 44 -37 55q0 29 47 55l16 11l187 -271zM575 -16q-201 0 -315.5 113.5t-114.5 334.5v637q65 17 119 0v-653q0 -147 81 -234.5t228 -87.5q139 0 224.5 86t85.5 236v653q64 17 118 0v-637q0 -214 -111.5 -331t-314.5 -117z" />
    <glyph glyph-name="uhungarumlaut.sc" horiz-adv-x="1146" 
d="M453 1151l-62 18l115 304l22 -5q48 -11 52 -38q4 -26 -35 -95zM666 1151l-52 37l211 254l19 -12q40 -26 37 -52q-3 -28 -64 -78zM575 -16q-201 0 -315.5 113.5t-114.5 334.5v637q65 17 119 0v-653q0 -147 81 -234.5t228 -87.5q139 0 224.5 86t85.5 236v653q64 17 118 0
v-637q0 -214 -111.5 -331t-314.5 -117z" />
    <glyph glyph-name="umacron.sc" horiz-adv-x="1146" 
d="M375 1370h399v-100h-399v100zM575 -16q-201 0 -315.5 113.5t-114.5 334.5v637q65 17 119 0v-653q0 -147 81 -234.5t228 -87.5q139 0 224.5 86t85.5 236v653q64 17 118 0v-637q0 -214 -111.5 -331t-314.5 -117z" />
    <glyph glyph-name="uogonek.sc" horiz-adv-x="1146" 
d="M883 1069q64 17 118 0v-637q0 -172 -72.5 -282.5t-209.5 -147.5l4 -2q-63 -36 -96 -82.5t-33 -95.5q0 -33 20.5 -51.5t59.5 -18.5q36 0 69 21q25 -48 23 -78q-29 -25 -104 -25q-69 0 -110.5 35t-41.5 98q0 45 28 94.5t74 88.5q-12 -2 -37 -2q-201 0 -315.5 113.5
t-114.5 334.5v637q65 17 119 0v-653q0 -147 81 -234.5t228 -87.5q139 0 224.5 86t85.5 236v653z" />
    <glyph glyph-name="uring.sc" horiz-adv-x="1146" 
d="M575 1159q-83 0 -133.5 44.5t-50.5 119.5q0 73 51 116.5t133 43.5t130.5 -43.5t48.5 -116.5q0 -75 -48.5 -119.5t-130.5 -44.5zM575 1227q43 0 66 26.5t23 69.5q0 41 -23 67.5t-66 26.5q-44 0 -68 -26.5t-24 -67.5q0 -44 24.5 -70t67.5 -26zM575 -16q-201 0 -315.5 113.5
t-114.5 334.5v637q65 17 119 0v-653q0 -147 81 -234.5t228 -87.5q139 0 224.5 86t85.5 236v653q64 17 118 0v-637q0 -214 -111.5 -331t-314.5 -117z" />
    <glyph glyph-name="v.sc" horiz-adv-x="1073" 
d="M891 1069q70 17 131 0l-424 -1071q-66 -18 -135 0l-412 1071q64 19 131 0l350 -930z" />
    <glyph glyph-name="w.sc" horiz-adv-x="1536" 
d="M1364 1069q69 17 127 0l-289 -1071q-72 -15 -141 0l-291 885l-291 -885q-72 -17 -145 0l-289 1071q69 17 129 0l242 -917l282 917q74 16 140 0l295 -917z" />
    <glyph glyph-name="wacute.sc" horiz-adv-x="1536" 
d="M915 1339l-133 -161l-55 30l182 273l21 -8q41 -17 41 -48q-5 -32 -56 -86zM1364 1069q69 17 127 0l-289 -1071q-72 -15 -141 0l-291 885l-291 -885q-72 -17 -145 0l-289 1071q69 17 129 0l242 -917l282 917q74 16 140 0l295 -917z" />
    <glyph glyph-name="wcircumflex.sc" horiz-adv-x="1536" 
d="M643 1184q-26 0 -51.5 12.5t-38.5 28.5l168 184q46 14 96 0l166 -184q-11 -16 -36.5 -28.5t-51.5 -12.5l-125 149zM1364 1069q69 17 127 0l-289 -1071q-72 -15 -141 0l-291 885l-291 -885q-72 -17 -145 0l-289 1071q69 17 129 0l242 -917l282 917q74 16 140 0l295 -917z
" />
    <glyph glyph-name="wdieresis.sc" horiz-adv-x="1536" 
d="M637 1237q-38 0 -65 24.5t-27 61.5q0 35 27 59.5t65 24.5t65 -24t27 -60t-27.5 -61t-64.5 -25zM901 1237q-37 0 -64.5 25t-27.5 61q0 35 27.5 59.5t64.5 24.5q39 0 65.5 -24t26.5 -60q0 -37 -27 -61.5t-65 -24.5zM1364 1069q69 17 127 0l-289 -1071q-72 -15 -141 0
l-291 885l-291 -885q-72 -17 -145 0l-289 1071q69 17 129 0l242 -917l282 917q74 16 140 0l295 -917z" />
    <glyph glyph-name="wgrave.sc" horiz-adv-x="1536" 
d="M604 1360q-37 43 -37 55q-3 27 45 55l17 11l184 -273l-55 -28zM1364 1069q69 17 127 0l-289 -1071q-72 -15 -141 0l-291 885l-291 -885q-72 -17 -145 0l-289 1071q69 17 129 0l242 -917l282 917q74 16 140 0l295 -917z" />
    <glyph glyph-name="x.sc" horiz-adv-x="1095" 
d="M1049 0h-140l-370 473l-353 -473h-139l426 559l-401 514q70 20 137 0l338 -432l330 432q84 17 141 0l-404 -518z" />
    <glyph glyph-name="y.sc" horiz-adv-x="972" 
d="M928 1069l-381 -637v-432h-119v428l-381 641q64 17 135 0l305 -528l306 528q64 17 135 0z" />
    <glyph glyph-name="yacute.sc" horiz-adv-x="972" 
d="M635 1339l-133 -161l-56 30l183 273l18 -8q43 -19 43 -48q-4 -30 -55 -86zM928 1069l-381 -637v-432h-119v428l-381 641q64 17 135 0l305 -528l306 528q64 17 135 0z" />
    <glyph glyph-name="ycircumflex.sc" horiz-adv-x="972" 
d="M360 1184q-26 0 -51.5 12.5t-36.5 28.5l166 184q42 16 99 0l165 -184q-13 -16 -38 -28.5t-50 -12.5l-127 149zM928 1069l-381 -637v-432h-119v428l-381 641q64 17 135 0l305 -528l306 528q64 17 135 0z" />
    <glyph glyph-name="ydieresis.sc" horiz-adv-x="972" 
d="M354 1237q-37 0 -63.5 25t-26.5 61q0 35 26.5 59.5t63.5 24.5q39 0 67 -24.5t28 -59.5q0 -36 -28 -61t-67 -25zM621 1237q-37 0 -65 25t-28 61q0 35 28 59.5t65 24.5q38 0 65 -24.5t27 -59.5q0 -37 -27 -61.5t-65 -24.5zM928 1069l-381 -637v-432h-119v428l-381 641
q64 17 135 0l305 -528l306 528q64 17 135 0z" />
    <glyph glyph-name="ygrave.sc" horiz-adv-x="972" 
d="M322 1360q-35 41 -35 55q-4 33 43 55l18 11l184 -273l-55 -28zM928 1069l-381 -637v-432h-119v428l-381 641q64 17 135 0l305 -528l306 528q64 17 135 0z" />
    <glyph glyph-name="z.sc" horiz-adv-x="1097" 
d="M967 102q22 -52 14 -102h-799q-20 8 -38.5 37.5t-18.5 62.5l700 865h-645q-27 49 -22 104h751q22 -10 43 -42t21 -66l-697 -859h691z" />
    <glyph glyph-name="zacute.sc" horiz-adv-x="1097" 
d="M715 1337l-133 -161l-56 32l183 271l18 -9q43 -19 43 -47t-55 -86zM967 102q22 -52 14 -102h-799q-20 8 -38.5 37.5t-18.5 62.5l700 865h-645q-27 49 -22 104h751q22 -10 43 -42t21 -66l-697 -859h691z" />
    <glyph glyph-name="zcaron.sc" horiz-adv-x="1097" 
d="M616 1198q-50 -14 -96 0l-166 186q11 14 35.5 26.5t52.5 12.5l127 -149l125 149q27 0 51.5 -12t36.5 -27zM967 102q22 -52 14 -102h-799q-20 8 -38.5 37.5t-18.5 62.5l700 865h-645q-27 49 -22 104h751q22 -10 43 -42t21 -66l-697 -859h691z" />
    <glyph glyph-name="zdotaccent.sc" horiz-adv-x="1097" 
d="M569 1233q-36 0 -63 24.5t-27 57.5q0 34 27.5 59t62.5 25q36 0 64.5 -25.5t28.5 -58.5q0 -32 -28 -57t-65 -25zM967 102q22 -52 14 -102h-799q-20 8 -38.5 37.5t-18.5 62.5l700 865h-645q-27 49 -22 104h751q22 -10 43 -42t21 -66l-697 -859h691z" />
    <glyph glyph-name="zero.osf" horiz-adv-x="921" 
d="M461 1042q-173 0 -279 -133.5t-106 -388.5q0 -253 106.5 -392.5t278.5 -139.5q173 0 279 140t106 392q0 255 -105.5 388.5t-279.5 133.5zM461 92q-128 0 -195 115t-67 313t66.5 307t195.5 109t195.5 -109t66.5 -307q0 -197 -67.5 -312.5t-194.5 -115.5z" />
    <glyph glyph-name="one.osf" horiz-adv-x="919" 
d="M786 102q19 -47 0 -102h-669q-19 50 0 102h270v783q-229 -98 -266 -103q-37 27 -37 88q188 100 365 172q14 -3 35 -19t24 -24v-897h278z" />
    <glyph glyph-name="two.osf" horiz-adv-x="919" 
d="M258 104h551q0 -72 -25 -104h-632q-12 13 -26.5 51t-14.5 53l53 39q97 71 180 141.5t160 150t121.5 157t44.5 141.5q0 100 -67 150.5t-181 50.5q-133 0 -301 -111q-32 37 -12 111q149 108 337 108q149 0 247 -78.5t98 -222.5q0 -139 -145 -309t-388 -328z" />
    <glyph glyph-name="three.osf" horiz-adv-x="974" 
d="M754 49q0 -130 -100 -201t-255 -71q-75 0 -159 29t-138 71q-22 -27 -22 -74q0 -36 10 -61q130 -76 338 -76q211 0 331 109t120 270q0 123 -69.5 210t-182.5 122q93 31 152 111.5t59 218.5q0 157 -105 246t-272 89q-202 0 -352 -116q-11 -22 -11 -58q0 -37 15 -61
q166 123 327 123q127 0 202 -62.5t77 -165.5q0 -145 -90 -210t-289 -62h-78q-14 -14 -24.5 -44.5t-10.5 -61.5h142q182 0 283.5 -66.5t101.5 -208.5z" />
    <glyph glyph-name="four.osf" horiz-adv-x="1128" 
d="M1047 446q18 -53 0 -106h-170v-340h-123v340h-602q-24 9 -45.5 37.5t-26.5 56.5q130 228 364 546.5t349 436.5q22 0 47.5 -12t36.5 -25v-934h170zM760 1212q-108 -126 -284 -368t-263 -398h547v766z" />
    <glyph glyph-name="five.osf" horiz-adv-x="950" 
d="M457 492q194 -43 297.5 -145.5t103.5 -250.5q0 -210 -125 -320t-362 -110q-65 0 -145.5 16.5t-147.5 49.5q-8 24 -8 57q0 36 18 57q150 -71 295 -71q91 0 160.5 24.5t109.5 67t60 93.5t20 108q0 136 -94 218.5t-313 121.5l-105 18q-36 14 -59 39.5t-23 54.5l129 508h582
q-3 -57 -45 -106h-438l-101 -390z" />
    <glyph glyph-name="six.osf" horiz-adv-x="1079" 
d="M586 889q199 0 309.5 -120.5t110.5 -311.5q0 -95 -29.5 -181t-83 -152t-135.5 -105t-180 -39q-80 0 -148 21t-128 71t-101.5 127t-65.5 194.5t-24 268.5q0 379 129 565t362 186q102 0 171 -16.5t145 -55.5q10 -20 10 -53q0 -32 -10 -59q-74 40 -139 57t-158 17
q-86 0 -150 -25t-115 -82.5t-81 -157.5t-39 -245q146 96 350 96zM571 92q144 0 226 98.5t82 266.5q0 141 -81 234t-239 93q-80 0 -170.5 -25.5t-157.5 -76.5v-20q0 -301 87 -435.5t253 -134.5z" />
    <glyph glyph-name="seven.osf" horiz-adv-x="956" 
d="M860 1028q62 -46 62 -119l-598 -1216q-82 -21 -123 0q0 26 271 572.5t333 641.5l10 15h-749q-21 52 0 106h794z" />
    <glyph glyph-name="eight.osf" horiz-adv-x="960" 
d="M635 750q146 -54 220.5 -149t74.5 -216q0 -132 -64 -225.5t-163.5 -136.5t-221.5 -43q-92 0 -172 24.5t-142.5 71t-98 121.5t-35.5 170q0 134 77 236.5t183 144.5q-103 53 -152 135t-49 180q0 154 111.5 252t277.5 98q164 0 275.5 -86t111.5 -237q0 -110 -68.5 -203
t-164.5 -137zM213 1067q0 -38 5.5 -67.5t23.5 -63t49.5 -59t86 -50t130.5 -41.5q101 24 172.5 105.5t71.5 177.5q0 114 -75.5 174t-195.5 60q-124 0 -196 -65.5t-72 -170.5zM481 90q147 0 232.5 74t85.5 215q0 245 -353 315l-22 6q-105 -27 -184.5 -112t-79.5 -203
q0 -76 25.5 -134t70.5 -92.5t102 -51.5t123 -17z" />
    <glyph glyph-name="nine.osf" horiz-adv-x="1101" 
d="M528 1042q100 0 180.5 -33.5t145.5 -106.5t101 -202.5t36 -308.5q0 -364 -132.5 -544.5t-369.5 -180.5q-108 0 -181.5 19.5t-153.5 66.5q-11 29 -11 53q0 34 13 60q76 -47 145.5 -67.5t169.5 -20.5q86 0 151.5 23.5t117.5 77t83.5 147.5t42.5 229q-75 -47 -160.5 -68.5
t-207.5 -21.5q-199 0 -311.5 120t-112.5 310q0 121 52 221.5t157 163.5t245 63zM561 268q64 0 153 26t156 77v20q0 284 -85.5 411.5t-249.5 127.5q-157 0 -245.5 -90.5t-88.5 -245.5q0 -68 20 -125t61.5 -103t113 -72t165.5 -26z" />
    <glyph glyph-name="zero.dnom" horiz-adv-x="821" 
d="M410 883q-148 0 -239 -113t-91 -332q0 -218 91.5 -333t238.5 -115q151 0 241 114t90 334q0 218 -90 331.5t-241 113.5zM410 88q-105 0 -160 92t-55 258q0 167 55 256.5t160 89.5q108 0 162.5 -89t54.5 -257q0 -167 -54.5 -258.5t-162.5 -91.5z" />
    <glyph glyph-name="one.dnom" horiz-adv-x="823" 
d="M692 96q16 -53 0 -96h-575q-15 48 0 96h229v641q-62 -27 -135 -55t-88 -29q-35 25 -35 80q179 95 315 150q12 -2 32.5 -16.5t23.5 -24.5v-746h233z" />
    <glyph glyph-name="two.dnom" horiz-adv-x="829" 
d="M252 96h465q0 -66 -21 -96h-540q-13 13 -26 47t-13 49l43 35q97 73 167 131.5t133.5 123t96.5 124t33 111.5q0 80 -55 120.5t-150 40.5q-119 0 -260 -96q-28 43 -8 109q131 88 293 88q129 0 210.5 -68t81.5 -194q0 -117 -121 -254.5t-329 -270.5z" />
    <glyph glyph-name="three.dnom" horiz-adv-x="823" 
d="M602 240q0 -74 -64.5 -114t-164.5 -40q-62 0 -130 24t-108 60q-16 -27 -16 -68q0 -34 8 -53q103 -63 266 -63q150 0 236 73t86 181q0 76 -44.5 130.5t-117.5 78.5q59 23 96 75t37 138q0 104 -75.5 162.5t-196.5 58.5q-156 0 -275 -86q-10 -20 -10 -47q0 -24 12 -56
q132 90 252 90q83 0 135 -37.5t52 -99.5q0 -80 -59.5 -116t-190.5 -35h-56q-28 -22 -28 -95h102q254 0 254 -161z" />
    <glyph glyph-name="four.dnom" horiz-adv-x="727" 
d="M657 305q14 -47 0 -94h-112v-211h-113v211h-399q-20 9 -38 33t-24 49q97 137 256 326t240 264q20 0 44 -11t34 -22v-545h112zM440 713q-67 -69 -176 -196t-170 -212h346v408z" />
    <glyph glyph-name="five.dnom" horiz-adv-x="823" 
d="M403 530q138 -27 212.5 -92t74.5 -164q0 -140 -91 -214t-263 -74q-123 0 -219 45q-8 32 -8 51q0 31 18 49q115 -47 217 -47q118 0 176 49t58 121q0 79 -62.5 130t-216.5 71l-82 12q-27 10 -48.5 32.5t-21.5 45.5l89 323h448q-3 -51 -37 -94h-323l-62 -215z" />
    <glyph glyph-name="six.dnom" horiz-adv-x="823" 
d="M438 561q139 0 218 -78.5t79 -203.5q0 -122 -86.5 -207.5t-234.5 -85.5q-69 0 -126 23t-103 71t-71.5 132t-25.5 198q0 238 94 355.5t262 117.5q75 0 127 -13t109 -45q6 -12 6 -47q0 -33 -8 -49q-56 29 -103.5 42t-113.5 13q-114 0 -179 -61.5t-81 -212.5q87 51 237 51z
M410 86q99 0 155 52t56 141q0 82 -56 136t-172 54q-42 0 -97.5 -15t-98.5 -44q0 -324 213 -324z" />
    <glyph glyph-name="seven.dnom" horiz-adv-x="823" 
d="M696 868q16 -14 29.5 -44t13.5 -54l-417 -770q-63 -15 -111 0q0 18 187.5 359.5t238.5 414.5h-504q-15 48 0 94h563z" />
    <glyph glyph-name="eight.dnom" horiz-adv-x="825" 
d="M543 467q188 -76 188 -227q0 -120 -92.5 -187t-226.5 -67q-136 0 -228 63.5t-92 179.5q0 80 51 141.5t123 90.5q-131 70 -131 201q0 96 80 158.5t197 62.5q119 0 197.5 -55.5t78.5 -151.5q0 -69 -41.5 -124t-103.5 -85zM414 791q-80 0 -125 -35.5t-45 -91.5
q0 -62 40.5 -99.5t153.5 -62.5q63 18 105.5 62t42.5 95q0 64 -47.5 98t-124.5 34zM412 80q93 0 147.5 39t54.5 114q0 60 -50.5 106.5t-176.5 76.5q-2 0 -5 1t-5 1q-66 -15 -118 -64t-52 -114q0 -80 58 -120t147 -40z" />
    <glyph glyph-name="nine.dnom" horiz-adv-x="823" 
d="M410 883q147 0 236 -101.5t89 -322.5q0 -238 -94 -355.5t-262 -117.5q-78 0 -128 13t-106 44q-8 16 -8 47q0 25 8 49q57 -29 105.5 -42t114.5 -13q113 0 178.5 62t81.5 214q-92 -51 -236 -51q-142 0 -221.5 78t-79.5 203q0 123 87 208t235 85zM203 590q0 -81 57 -135
t172 -54q42 0 98 15t99 47q-1 169 -56 244t-159 75q-99 0 -155 -52t-56 -140z" />
    <glyph glyph-name="zero.numr" horiz-adv-x="821" 
d="M410 1024q-148 0 -239 -113.5t-91 -332.5q0 -218 91.5 -333.5t238.5 -115.5q150 0 240.5 115t90.5 334q0 220 -90 333t-241 113zM410 227q-105 0 -160 92.5t-55 258.5q0 168 55 258t160 90q107 0 162 -90t55 -258q0 -167 -54.5 -259t-162.5 -92z" />
    <glyph glyph-name="one.numr" horiz-adv-x="823" 
d="M657 561q15 -51 0 -96h-540q-14 49 0 96h229v641q-197 -81 -223 -84q-35 25 -35 80q167 92 315 152q12 -3 32.5 -17.5t23.5 -23.5v-748h198z" />
    <glyph glyph-name="two.numr" horiz-adv-x="823" 
d="M246 561h465q0 -67 -21 -96h-540q-11 13 -25 48t-14 48l45 33q96 71 164 127.5t133.5 121.5t99 126t33.5 116q0 81 -56 122.5t-151 41.5q-114 0 -258 -98q-29 42 -10 109q134 90 292 90q129 0 211 -69t82 -196q0 -116 -121 -253t-329 -271z" />
    <glyph glyph-name="three.numr" horiz-adv-x="823" 
d="M602 705q0 -74 -64.5 -114t-164.5 -40q-61 0 -129 24.5t-109 59.5q-16 -27 -16 -68q0 -34 8 -53q102 -61 266 -61q150 0 236 72.5t86 179.5q0 75 -44.5 129.5t-117.5 78.5q133 55 133 213q0 105 -75.5 164.5t-196.5 59.5q-156 0 -275 -86q-10 -23 -10 -50q0 -19 12 -55
q127 90 252 90q83 0 135 -36.5t52 -98.5q0 -82 -59 -117.5t-191 -35.5h-56q-28 -22 -28 -95h102q254 0 254 -161z" />
    <glyph glyph-name="four.numr" horiz-adv-x="823" 
d="M754 772q14 -48 0 -94h-113v-213h-111v213h-401q-42 19 -61 80q93 133 252 321.5t243 270.5q20 0 44 -11.5t34 -23.5v-543h113zM537 1178q-67 -69 -176.5 -195.5t-170.5 -210.5h347v406z" />
    <glyph glyph-name="five.numr" horiz-adv-x="823" 
d="M403 997q138 -28 212.5 -93.5t74.5 -162.5q0 -141 -91 -214.5t-263 -73.5q-125 0 -219 43q-8 32 -8 51q0 30 18 51q106 -49 217 -49q117 0 175.5 50t58.5 120q0 80 -62 130.5t-217 72.5l-82 10q-26 11 -48 34t-22 44l89 325h448q-3 -50 -37 -96h-323l-62 -213z" />
    <glyph glyph-name="six.numr" horiz-adv-x="823" 
d="M438 1026q139 0 218 -78.5t79 -202.5q0 -123 -86.5 -207.5t-234.5 -84.5q-70 0 -126.5 22.5t-102.5 70t-71.5 131t-25.5 197.5q0 238 94 357t262 119q75 0 127 -13t109 -45q6 -12 6 -49q0 -31 -8 -47q-56 29 -103.5 42t-113.5 13q-114 0 -179 -62.5t-81 -213.5
q87 51 237 51zM410 551q99 0 155 52t56 142q0 82 -56 135.5t-172 53.5q-41 0 -97 -15t-99 -45q0 -323 213 -323z" />
    <glyph glyph-name="seven.numr" horiz-adv-x="739" 
d="M709 1335q16 -16 29.5 -45.5t13.5 -54.5l-430 -770q-66 -15 -111 0q0 17 190 354.5t246 419.5h-514q-14 49 0 96h576z" />
    <glyph glyph-name="eight.numr" horiz-adv-x="825" 
d="M541 932q190 -76 190 -225q0 -120 -92.5 -187t-226.5 -67q-135 0 -227.5 63t-92.5 178q0 80 50.5 142t123.5 90q-131 71 -131 200q0 96 80.5 160t196.5 64q118 0 197 -56t79 -151q0 -71 -41.5 -126t-105.5 -85zM414 1255q-80 0 -125 -35.5t-45 -91.5q0 -58 39.5 -96
t154.5 -65q62 18 105 62t43 95q0 65 -47.5 98t-124.5 33zM412 545q93 0 147.5 39.5t54.5 115.5q0 128 -227 181q-2 0 -5 1t-5 1q-66 -15 -118 -64t-52 -112q0 -81 58 -121.5t147 -40.5z" />
    <glyph glyph-name="nine.numr" horiz-adv-x="823" 
d="M410 1350q70 0 127 -23t102.5 -71.5t70.5 -132.5t25 -197q0 -238 -94 -355.5t-262 -117.5q-75 0 -127 12t-107 43q-8 16 -8 49q0 23 8 47q57 -29 105.5 -42t114.5 -13q113 0 178.5 62.5t81.5 213.5q-92 -51 -236 -51q-142 0 -221.5 78.5t-79.5 202.5q0 123 87 209t235 86
zM203 1055q0 -80 56.5 -133.5t172.5 -53.5q42 0 98 15t99 47q0 167 -55.5 242t-159.5 75q-99 0 -155 -51t-56 -141z" />
    </font>
</defs>
</svg>
