<?xml version="1.0" standalone="no"?>
<!DOCTYPE svg PUBLIC "-//W3C//DTD SVG 1.1//EN" "http://www.w3.org/Graphics/SVG/1.1/DTD/svg11.dtd" >
<svg xmlns="http://www.w3.org/2000/svg" xmlns:xlink="http://www.w3.org/1999/xlink" version="1.1">
<metadata>
Created by FontForge 20170731 at Tue May 17 18:57:26 2022
 By Aleksey,,,
Copyright (c) 2019 by Vasava Studio. All rights reserved.	
</metadata>
<defs>
<font id="CIBFontSans-Bold" horiz-adv-x="1126" >
  <font-face 
    font-family="CIBFont Sans"
    font-weight="700"
    font-stretch="normal"
    units-per-em="2048"
    panose-1="2 11 6 3 2 2 2 2 1 4"
    ascent="1516"
    descent="-532"
    x-height="1024"
    cap-height="1341"
    bbox="-709 -551 2116 1993"
    underline-thickness="102"
    underline-position="-614"
    unicode-range="U+0020-FB02"
  />
<missing-glyph horiz-adv-x="1169" 
d="M102 0v1331q483 30 965 0v-1331q-482 -30 -965 0zM199 1274l385 -559l387 559h-772zM164 104l387 562l-387 559v-1121zM618 666l388 -562v1121zM201 57h768l-383 557z" />
    <glyph glyph-name="fi" unicode="fi" horiz-adv-x="1320" 
d="M1034 1192q-62 0 -104.5 41.5t-42.5 101.5t43 103t104 43q62 0 107 -42.5t45 -103.5q0 -58 -45 -100.5t-107 -42.5zM602 1233q-78 0 -117 -43.5t-39 -108.5v-57h297q0 -42 -25 -108t-59 -101h-213v-815h-262v815h-143q0 60 42 129.5t101 97.5v39q0 175 95 272t290 97
q61 0 136.5 -8t109.5 -15q0 -146 -57 -208q-72 14 -156 14zM905 0v1016q57 25 132 25t130 -25v-1016h-262z" />
    <glyph glyph-name="fl" unicode="fl" horiz-adv-x="1323" 
d="M602 1233q-78 0 -117 -43.5t-39 -108.5v-57h297q0 -42 -25 -108t-59 -101h-213v-815h-262v815h-143q0 60 42 129.5t101 97.5v39q0 175 95 272t290 97q61 0 136.5 -8t109.5 -15q0 -146 -57 -208q-72 14 -156 14zM907 0v1329q44 34 126 59t136 25v-1413h-262z" />
    <glyph glyph-name=".notdef" horiz-adv-x="1169" 
d="M102 0v1331q483 30 965 0v-1331q-482 -30 -965 0zM199 1274l385 -559l387 559h-772zM164 104l387 562l-387 559v-1121zM618 666l388 -562v1121zM201 57h768l-383 557z" />
    <glyph glyph-name=".null" horiz-adv-x="0" 
 />
    <glyph glyph-name="nonmarkingreturn" horiz-adv-x="682" 
 />
    <glyph glyph-name="space" unicode=" " horiz-adv-x="409" 
 />
    <glyph glyph-name="exclam" unicode="!" horiz-adv-x="524" 
d="M352 471h-184q-51 469 -41 989q133 30 266 0q10 -520 -41 -989zM260 -10q-68 0 -114 46t-46 114q0 67 46 113t114 46t114 -46t46 -113q0 -68 -46 -114t-114 -46z" />
    <glyph glyph-name="quotedbl" unicode="&#x22;" horiz-adv-x="757" 
d="M145 963l-20 448q100 27 201 0q2 -96 -9.5 -231.5t-33.5 -216.5h-138zM453 963l-21 448q100 27 201 0q2 -96 -9.5 -231.5t-33.5 -216.5h-137z" />
    <glyph glyph-name="numbersign" unicode="#" 
d="M958 776h-6l-37 -209h132q0 -130 -31 -175.5t-131 -45.5h-8l-62 -346h-246l62 346h-225l-62 -346h-246l62 346h-154q0 130 31 175.5t131 45.5h31l37 209h-156q0 130 31 175.5t131 45.5h32l58 330q129 30 246 0l-58 -330h225l58 330q129 30 246 0l-58 -330h129
q0 -130 -31 -175.5t-131 -45.5zM670 567l37 209h-226l-37 -209h226z" />
    <glyph glyph-name="dollar" unicode="$" 
d="M1022 381q0 -141 -92 -238.5t-250 -138.5q27 -112 20 -227q-133 -30 -266 0q-6 95 15 198q-174 0 -322 45q-19 60 -12 123.5t37 118.5q181 -67 299 -67q288 0 288 163q0 75 -46.5 124.5t-184.5 105.5q-103 41 -168 76t-114.5 80.5t-71 101.5t-21.5 131q0 137 84.5 233
t235.5 133q-26 106 -19 220q133 30 266 0q7 -99 -14 -199q113 -3 254 -39q23 -45 11.5 -112t-40.5 -115q-184 55 -286 55q-209 0 -209 -135q0 -53 52 -106t146 -87q123 -45 201.5 -90t124.5 -99.5t64 -113.5t18 -141z" />
    <glyph glyph-name="percent" unicode="%" horiz-adv-x="1433" 
d="M160 33l889 1243q48 85 102.5 93t157.5 -44l-887 -1243q-61 -87 -109.5 -94t-152.5 45zM328 1362q-132 0 -212.5 -88t-80.5 -256q0 -169 81 -258.5t212 -89.5q132 0 212.5 90t80.5 258t-80.5 256t-212.5 88zM328 823q-52 0 -78.5 50.5t-26.5 144.5q0 190 105 190
q104 0 104 -190q0 -93 -26 -144t-78 -51zM1106 676q-132 0 -212.5 -88t-80.5 -256q0 -169 81 -258.5t212 -89.5q132 0 212.5 90t80.5 258t-80.5 256t-212.5 88zM1106 137q-52 0 -78.5 50.5t-26.5 144.5q0 190 105 190q104 0 104 -190q0 -93 -26 -144t-78 -51z" />
    <glyph glyph-name="ampersand" unicode="&#x26;" horiz-adv-x="1464" 
d="M1444 0h-326l-213 186q-80 -112 -187 -160.5t-247 -48.5q-58 0 -115.5 15t-111 48t-94 79.5t-65 114t-24.5 147.5q0 144 77 245t194 144q-80 130 -80 254q0 171 102 272t291 101q193 0 326 -72q30 -123 -29 -231q-73 50 -125 68t-112 18q-86 0 -141.5 -41t-55.5 -129
q0 -76 79.5 -176.5t274.5 -286.5l109 244q36 81 75.5 107t135.5 26h252q0 -92 -41.5 -150.5t-122.5 -58.5h-109l-143 -314zM532 207q131 0 218 117q-199 176 -312 307q-123 -74 -123 -223q0 -78 58.5 -139.5t158.5 -61.5z" />
    <glyph glyph-name="quotesingle" unicode="'" horiz-adv-x="450" 
d="M145 963l-20 448q100 27 201 0q2 -96 -9.5 -231.5t-33.5 -216.5h-138z" />
    <glyph glyph-name="parenleft" unicode="(" horiz-adv-x="774" 
d="M528 -221q-215 115 -325.5 342.5t-110.5 533.5q0 312 113 548.5t327 348.5q61 -7 121.5 -42.5t79.5 -73.5q-112 -87 -187.5 -176.5t-117 -187t-58 -196t-16.5 -221.5q0 -167 31.5 -289t115 -238.5t232.5 -231.5q-19 -39 -80.5 -74.5t-124.5 -42.5z" />
    <glyph glyph-name="parenright" unicode=")" horiz-adv-x="774" 
d="M246 1552q215 -115 325.5 -342.5t110.5 -533.5q0 -312 -113 -548.5t-327 -348.5q-61 7 -121.5 42.5t-79.5 74.5q112 87 187.5 176.5t117 187t58 195.5t16.5 221q0 125 -17 221.5t-59.5 189.5t-116.5 177.5t-186 171.5q19 38 80.5 73.5t124.5 42.5z" />
    <glyph glyph-name="asterisk" unicode="*" horiz-adv-x="888" 
d="M786 1090q-101 -47 -208 -56l141 -157q-69 -81 -164 -117q-74 80 -117 184l-104 -184q-95 36 -164 117q60 102 139 167l-207 46q3 101 62 190q108 -21 203 -80l-23 211q100 27 201 0q12 -106 -13 -217l193 86q58 -88 61 -190z" />
    <glyph glyph-name="plus" unicode="+" 
d="M674 739h391q0 -130 -31 -175.5t-131 -45.5h-229v-389q-130 0 -175.5 31t-45.5 131v227h-392q0 130 31 175.5t131 45.5h230v408q130 0 175.5 -31t45.5 -131v-246z" />
    <glyph glyph-name="comma" unicode="," horiz-adv-x="524" 
d="M264 285q65 0 111.5 -49t46.5 -119q0 -119 -85.5 -226t-203.5 -176q-61 3 -102 72q56 38 107.5 92.5t78.5 108.5q-47 14 -76.5 53.5t-29.5 91.5q0 63 44.5 107.5t108.5 44.5z" />
    <glyph glyph-name="hyphen" unicode="-" horiz-adv-x="614" 
d="M53 518q0 130 31 175.5t131 45.5h346q0 -130 -31 -175.5t-131 -45.5h-346z" />
    <glyph glyph-name="period" unicode="." horiz-adv-x="524" 
d="M262 -10q-68 0 -114 46t-46 114q0 67 46 113t114 46t114 -46t46 -113q0 -68 -46 -114t-114 -46z" />
    <glyph glyph-name="slash" unicode="/" horiz-adv-x="628" 
d="M-20 -82l364 1358q30 100 92 131t213 31l-364 -1358q-31 -100 -92.5 -131t-212.5 -31z" />
    <glyph glyph-name="zero" unicode="0" 
d="M563 1362q-106 0 -193.5 -42t-152.5 -125t-101 -215.5t-36 -303.5q0 -337 132.5 -514.5t350.5 -177.5q219 0 351.5 177t132.5 515t-132 512t-352 174zM563 209q-104 0 -157.5 122t-53.5 345q0 224 53 342.5t158 118.5t158 -118.5t53 -342.5q0 -223 -53.5 -345
t-157.5 -122z" />
    <glyph glyph-name="one" unicode="1" 
d="M963 221q30 -111 0 -221h-822q-30 110 0 221h283v789q-213 -70 -262 -74q-75 83 -70 190q208 124 490 236q20 -1 61.5 -33.5t46.5 -46.5v-1061h273z" />
    <glyph glyph-name="two" unicode="2" 
d="M426 225h575q0 -166 -40 -225h-762q-25 30 -52.5 109t-27.5 116l57 45q282 221 415.5 380t133.5 298q0 92 -58 139.5t-155 47.5q-159 0 -369 -156q-57 94 -14 252q181 131 428 131q201 0 315.5 -101.5t114.5 -302.5q0 -185 -151 -378t-410 -355z" />
    <glyph glyph-name="three" unicode="3" 
d="M754 387q0 -86 -66.5 -133t-169.5 -47q-92 0 -193 46t-161 112q-33 -62 -33 -160q0 -56 19 -115q149 -110 397 -110q220 0 345.5 116.5t125.5 290.5q0 109 -53.5 187t-145.5 118q158 83 158 318q0 166 -114 259t-296 93q-229 0 -401 -131q-16 -50 -16 -109q0 -60 20 -125
q178 138 350 138q95 0 152.5 -44t58.5 -120q0 -92 -68 -132t-219 -38h-77q-50 -55 -50 -221h156q281 0 281 -193z" />
    <glyph glyph-name="four" unicode="4" 
d="M1067 518q30 -111 0 -221h-133v-297h-266v297h-488q-39 22 -76.5 73t-54.5 107q134 217 351.5 490.5t342.5 394.5q51 0 107.5 -25t83.5 -55v-764h133zM688 977q-184 -210 -371 -459h371v459z" />
    <glyph glyph-name="five" unicode="5" 
d="M614 850q176 -39 274.5 -141t98.5 -258q0 -229 -132.5 -350t-383.5 -121q-79 0 -171.5 18t-162.5 53q-18 53 -18 117q0 71 43 117q56 -30 143.5 -56t177.5 -26q122 0 182 60t60 147q0 99 -68 163.5t-237 90.5l-107 16q-51 26 -99 75t-48 91l123 495h690
q-2 -60 -18.5 -109t-59.5 -112h-403l-62 -231z" />
    <glyph glyph-name="six" unicode="6" 
d="M598 872q205 0 321.5 -122.5t116.5 -315.5q0 -91 -32 -173t-90.5 -144.5t-148.5 -99.5t-198 -37q-102 0 -186.5 37t-150.5 113t-103 204t-37 297q0 368 140 549.5t391 181.5q108 0 181.5 -19.5t153.5 -66.5q15 -47 15 -109q0 -57 -19 -108q-81 41 -144.5 59.5
t-154.5 18.5q-126 0 -201 -72t-100 -244q96 51 246 51zM561 209q96 0 150.5 60.5t54.5 164.5q0 96 -57 157.5t-174 61.5q-114 0 -195 -61q6 -202 62 -292.5t159 -90.5z" />
    <glyph glyph-name="seven" unicode="7" 
d="M948 1341q32 -39 54 -104t22 -113l-512 -1124q-131 -29 -270 0q0 30 219.5 487.5t318.5 632.5h-643q-30 110 0 221h811z" />
    <glyph glyph-name="eight" unicode="8" 
d="M784 725q131 -74 193.5 -152.5t62.5 -193.5q0 -93 -39 -170t-105 -126t-152 -76t-181 -27q-130 0 -237 43t-173.5 130t-66.5 203q0 121 66 215t165 138q-170 118 -170 301q0 154 119.5 253t296.5 99q178 0 297 -79.5t119 -223.5q0 -114 -55.5 -200.5t-139.5 -133.5z
M563 1135q-85 0 -126.5 -37.5t-41.5 -98.5q0 -54 42.5 -89.5t166.5 -94.5q137 64 137 178q0 68 -50.5 105t-127.5 37zM563 207q92 0 145.5 39t53.5 114q0 70 -54 128t-194 116h-2q-62 -29 -109 -89.5t-47 -131.5q0 -89 58.5 -132.5t148.5 -43.5z" />
    <glyph glyph-name="nine" unicode="9" 
d="M559 1362q102 0 186.5 -37t150.5 -113t103 -204t37 -297q0 -368 -139.5 -549.5t-390.5 -181.5q-108 0 -182 19.5t-154 66.5q-14 43 -14 108q0 60 18 109q81 -41 144.5 -59.5t154.5 -18.5q126 0 201 71.5t100 243.5q-96 -51 -246 -51q-205 0 -321.5 122.5t-116.5 315.5
q0 123 54 225t162.5 166t252.5 64zM360 907q0 -95 57.5 -157t174.5 -62q111 0 194 62q-6 202 -62 292.5t-159 90.5q-96 0 -150.5 -61t-54.5 -165z" />
    <glyph glyph-name="colon" unicode=":" horiz-adv-x="509" 
d="M254 719q-64 0 -108 44t-44 109q0 63 44 107.5t108 44.5t109 -44.5t45 -107.5q0 -64 -44.5 -108.5t-109.5 -44.5zM254 -10q-64 0 -108 44t-44 109q0 63 44 107.5t108 44.5t109 -44.5t45 -107.5q0 -64 -44.5 -108.5t-109.5 -44.5z" />
    <glyph glyph-name="semicolon" unicode=";" horiz-adv-x="571" 
d="M293 719q-64 0 -108 44t-44 109q0 63 44 107.5t108 44.5t108.5 -44.5t44.5 -107.5q0 -64 -44 -108.5t-109 -44.5zM311 285q65 0 111.5 -49t46.5 -119q0 -119 -85.5 -226t-203.5 -176q-61 3 -102 72q56 38 107.5 92.5t78.5 108.5q-47 14 -76.5 53.5t-29.5 91.5
q0 63 44.5 107.5t108.5 44.5z" />
    <glyph glyph-name="less" unicode="&#x3c;" 
d="M911 289q87 -50 91.5 -108t-60.5 -165l-797 461q-57 32 -75.5 65.5t-18.5 86.5t18.5 86t75.5 65l797 461q65 -107 60.5 -164.5t-91.5 -107.5l-589 -340z" />
    <glyph glyph-name="equal" unicode="=" 
d="M74 723q0 130 31 175.5t131 45.5h817q0 -130 -31 -175.5t-131 -45.5h-817zM74 313q0 130 31 176t131 46h817q0 -130 -31 -176t-131 -46h-817z" />
    <glyph glyph-name="greater" unicode="&#x3e;" 
d="M981 780q57 -32 75.5 -65t18.5 -86t-18.5 -86.5t-75.5 -65.5l-797 -461q-65 107 -60.5 165t91.5 108l590 340l-590 340q-87 50 -91.5 107.5t60.5 164.5z" />
    <glyph glyph-name="question" unicode="?" horiz-adv-x="1019" 
d="M559 1495q177 0 283 -92t106 -244q0 -137 -73.5 -226.5t-278.5 -207.5l29 -238q-97 -35 -236 -22l-35 235q-11 76 5.5 116.5t74.5 68.5q147 70 199.5 125t52.5 123q0 65 -47 100t-125 35q-159 0 -369 -135q-57 95 -14 253q180 109 428 109zM520 309q68 0 114 -46t46 -113
q0 -68 -46 -114t-114 -46t-114 46t-46 114q0 67 46 113t114 46z" />
    <glyph glyph-name="at" unicode="@" horiz-adv-x="1648" 
d="M827 1378q199 0 365.5 -91t265 -254.5t98.5 -364.5q0 -117 -36.5 -213.5t-113 -157.5t-181.5 -61q-67 0 -134.5 35.5t-101.5 103.5q-40 -60 -105 -106t-157 -46q-147 0 -233 99.5t-86 300.5q0 127 62.5 228.5t161 154.5t210.5 53q117 0 193.5 -24t138.5 -79v-401
q0 -73 18 -109t63 -36q111 0 111 258q0 112 -42.5 209t-115.5 164.5t-172 106t-209 38.5q-113 0 -213 -41.5t-173 -115t-115.5 -179t-42.5 -227.5t42.5 -228t115.5 -179t173 -115t213 -42q126 0 316 52q65 -57 65 -179q-157 -63 -381 -63q-150 0 -285.5 57t-234.5 156
t-157 240t-58 301t58 301t157 240.5t234.5 156.5t285.5 57zM782 393q107 0 179 115v352q-64 33 -138 33q-91 0 -148 -68.5t-57 -183.5q0 -248 164 -248z" />
    <glyph glyph-name="A" unicode="A" horiz-adv-x="1286" 
d="M979 0l-86 270h-500l-86 -270h-287l469 1348q162 29 308 0l469 -1348h-287zM463 487h360l-180 564z" />
    <glyph glyph-name="B" unicode="B" horiz-adv-x="1171" 
d="M852 741q140 -36 204 -122t64 -226q0 -170 -143 -281.5t-352 -111.5h-461v1321q237 41 411 41q214 0 343 -96.5t129 -251.5q0 -198 -195 -273zM784 979q0 74 -52 118t-157 44q-55 0 -145 -8v-326h152q102 0 152 45t50 127zM575 221q263 0 263 189q0 92 -62.5 136
t-193.5 44h-152v-369h145z" />
    <glyph glyph-name="C" unicode="C" horiz-adv-x="1325" 
d="M1251 205q-86 -109 -212.5 -167t-284.5 -58q-302 0 -482 188.5t-180 503.5t180 502.5t482 187.5q163 0 290.5 -59t208.5 -168q-14 -64 -67 -108.5t-117 -61.5q-93 176 -315 176q-189 0 -291.5 -121.5t-102.5 -347.5q0 -225 102.5 -348t291.5 -123q204 0 368 178z" />
    <glyph glyph-name="D" unicode="D" horiz-adv-x="1417" 
d="M596 1362q346 0 537.5 -181t191.5 -491q0 -321 -195 -504.5t-528 -185.5h-438v1321q248 41 432 41zM602 221q223 0 342 118.5t119 350.5q0 215 -118 330t-335 115q-104 0 -180 -9v-905h172z" />
    <glyph glyph-name="E" unicode="E" horiz-adv-x="1155" 
d="M1053 1120h-623v-327h520q0 -138 -41 -222h-479v-350h623v-221h-889v1341h889v-221z" />
    <glyph glyph-name="F" unicode="F" horiz-adv-x="1093" 
d="M1053 1120h-623v-327h520q0 -138 -41 -222h-479v-571h-266v1341h889v-221z" />
    <glyph glyph-name="G" unicode="G" horiz-adv-x="1384" 
d="M1026 592q50 50 125.5 62t140.5 -13v-438q-92 -108 -230 -167t-308 -59q-302 0 -482 189t-180 504t180 501.5t482 186.5q169 0 301 -59.5t217 -168.5q-75 -140 -185 -169q-103 180 -333 180q-189 0 -291.5 -122.5t-102.5 -348.5q0 -224 102.5 -346.5t291.5 -122.5
q146 0 272 69v322z" />
    <glyph glyph-name="H" unicode="H" horiz-adv-x="1415" 
d="M985 1341q133 30 266 0v-1341h-266v571h-555v-571h-266v1341q133 30 266 0v-548h555v548z" />
    <glyph glyph-name="I" unicode="I" horiz-adv-x="593" 
d="M430 0h-266v1341q133 30 266 0v-1341z" />
    <glyph glyph-name="J" unicode="J" horiz-adv-x="796" 
d="M367 1341q133 30 266 0v-1003q0 -212 -109.5 -341.5t-281.5 -129.5q-142 0 -262 57q8 149 102 215q87 -35 154 -35q131 0 131 193v1044z" />
    <glyph glyph-name="K" unicode="K" horiz-adv-x="1355" 
d="M1325 0h-364l-531 616v-616h-266v1341q133 30 266 0v-587l490 587q164 30 327 0l-536 -636z" />
    <glyph glyph-name="L" unicode="L" horiz-adv-x="1052" 
d="M430 221h582v-221h-848v1341q133 30 266 0v-1120z" />
    <glyph glyph-name="M" unicode="M" horiz-adv-x="1728" 
d="M1204 1341q82 15 180 15t181 -15v-1341h-267v555l17 403l-328 -866q-78 -15 -123 -15t-123 15l-327 869l16 -406v-555h-266v1341q180 32 360 0l340 -903z" />
    <glyph glyph-name="N" unicode="N" horiz-adv-x="1492" 
d="M1063 1341h266v-1341q-133 -30 -266 0l-645 893l12 -215v-678h-266v1341q133 30 266 0l643 -913l-10 119v794z" />
    <glyph glyph-name="O" unicode="O" horiz-adv-x="1466" 
d="M733 -20q-293 0 -467 188.5t-174 503.5t174 502.5t467 187.5t467 -187.5t174 -502.5t-174 -503.5t-467 -188.5zM733 201q175 0 273 123.5t98 347.5q0 223 -98 346t-273 123t-273 -123t-98 -346q0 -224 98 -347.5t273 -123.5z" />
    <glyph glyph-name="P" unicode="P" horiz-adv-x="1159" 
d="M555 1362q134 0 239.5 -42t167.5 -110t93.5 -146.5t31.5 -160.5q0 -132 -70 -243t-190.5 -175.5t-261.5 -64.5h-135v-420h-266v1321q226 41 391 41zM545 641q132 0 206 74.5t74 187.5q0 105 -69.5 173.5t-220.5 68.5q-39 0 -105 -4v-500h115z" />
    <glyph glyph-name="Q" unicode="Q" horiz-adv-x="1464" 
d="M1374 672q0 -321 -178 -508l156 -193q-23 -61 -75.5 -94t-117.5 -33l-151 189q-121 -53 -275 -53q-293 0 -467 188.5t-174 503.5t174 502.5t467 187.5t467 -187.5t174 -502.5zM733 201q67 0 125 18l-153 191q23 63 73 98t113 35l143 -178q70 121 70 307q0 223 -98 346
t-273 123t-273 -123t-98 -346q0 -224 98 -347.5t273 -123.5z" />
    <glyph glyph-name="R" unicode="R" horiz-adv-x="1218" 
d="M897 0l-285 502h-182v-502h-266v1321q226 41 391 41q134 0 239.5 -37t167.5 -98t93.5 -133.5t31.5 -149.5q0 -117 -62 -220.5t-163 -162.5l336 -561h-301zM430 1139v-416h115q130 0 205 66t75 155q0 92 -68.5 146.5t-221.5 54.5q-55 0 -105 -6z" />
    <glyph glyph-name="S" unicode="S" horiz-adv-x="1114" 
d="M911 1098q-184 55 -286 55t-155.5 -42t-53.5 -110q0 -57 48.5 -98t149.5 -78q123 -45 201.5 -90t124.5 -99.5t64 -113.5t18 -141q0 -126 -75.5 -219t-203.5 -140t-290 -47q-175 0 -326 45q-19 60 -12 123.5t37 118.5q181 -67 299 -67q142 0 215 46.5t73 131.5
q0 65 -47 112.5t-184 102.5q-103 41 -168 76t-114.5 80.5t-71 101.5t-21.5 131q0 178 137.5 283.5t372.5 105.5q136 0 297 -41q23 -45 11.5 -112t-40.5 -115z" />
    <glyph glyph-name="T" unicode="T" horiz-adv-x="1083" 
d="M1053 1341q0 -121 -25 -221h-352v-1120h-266v1120h-379q0 146 24 221h998z" />
    <glyph glyph-name="U" unicode="U" horiz-adv-x="1337" 
d="M670 -20q-252 0 -395.5 142t-143.5 419v800q131 30 262 0v-821q0 -137 71.5 -218t201.5 -81q125 0 201.5 79.5t76.5 219.5v821q131 30 262 0v-800q0 -267 -140 -414t-396 -147z" />
    <glyph glyph-name="V" unicode="V" horiz-adv-x="1286" 
d="M977 1343q145 31 289 0l-469 -1345q-146 -29 -308 0l-469 1345q145 31 289 0l334 -1042z" />
    <glyph glyph-name="W" unicode="W" horiz-adv-x="1853" 
d="M1556 1341q146 31 293 0l-346 -1343q-146 -29 -307 0l-268 907l-271 -907q-146 -29 -307 0l-346 1343q147 31 293 0l238 -997l251 997q140 29 281 0l289 -997z" />
    <glyph glyph-name="X" unicode="X" horiz-adv-x="1347" 
d="M1337 0h-303l-379 516l-342 -516h-303l496 721l-455 620q152 30 303 0l318 -434l301 434q151 30 303 0l-457 -632z" />
    <glyph glyph-name="Y" unicode="Y" horiz-adv-x="1155" 
d="M1145 1341l-430 -790v-551h-266v549l-439 792q147 30 295 0l277 -563l270 563q147 30 293 0z" />
    <glyph glyph-name="Z" unicode="Z" horiz-adv-x="1280" 
d="M1157 221q19 -52 26.5 -114.5t4.5 -106.5h-948q-46 21 -86.5 87t-40.5 142l733 891h-643q-25 52 -35.5 115t-5.5 106h882q46 -21 86.5 -88t40.5 -143l-733 -889h719z" />
    <glyph glyph-name="bracketleft" unicode="[" horiz-adv-x="786" 
d="M430 0h244q41 -84 41 -221h-551v1773h551q0 -137 -41 -221h-244v-1331z" />
    <glyph glyph-name="backslash" unicode="\" horiz-adv-x="628" 
d="M649 -82q-151 0 -212.5 31t-92.5 131l-364 1358q151 0 213 -31t92 -131z" />
    <glyph glyph-name="bracketright" unicode="]" horiz-adv-x="786" 
d="M72 1552h551v-1773h-551q0 137 41 221h243v1331h-243q-41 84 -41 221z" />
    <glyph glyph-name="underscore" unicode="_" horiz-adv-x="774" 
d="M-72 -242q0 130 31 176t131 46h756q0 -130 -31 -176t-131 -46h-756z" />
    <glyph glyph-name="grave" unicode="`" horiz-adv-x="423" 
d="M272 1130l-176 195q-41 44 -43 72q-4 61 94 114l46 25l198 -340z" />
    <glyph glyph-name="a" unicode="a" horiz-adv-x="1083" 
d="M520 1040q99 0 174.5 -20t134.5 -64.5t90 -123t31 -189.5v-643q-90 0 -152.5 36.5t-86.5 96.5q-60 -81 -151 -117t-175 -36q-36 0 -73.5 8.5t-77.5 29.5t-71 51.5t-51 79.5t-20 109q0 65 20 118.5t53 90.5t82 65.5t100 45.5t114.5 28t117.5 15.5t117 5.5q-1 63 -14 104.5
t-38.5 62t-54.5 28t-73 7.5q-63 0 -139.5 -16t-97.5 -16q-33 0 -57.5 22t-45.5 80l-22 64q197 77 366 77zM461 180q102 0 168.5 76t66.5 162v39h-55q-151 0 -224 -48t-73 -114q0 -47 33.5 -81t83.5 -34z" />
    <glyph glyph-name="b" unicode="b" horiz-adv-x="1191" 
d="M705 1040q91 0 163.5 -27.5t119 -73.5t77 -109t43 -129.5t12.5 -139.5q0 -277 -121 -429t-333 -152q-146 0 -291 96q-107 -76 -221 -76v1329q44 34 126 59t136 25v-485q65 55 141.5 83.5t147.5 28.5zM592 190q74 0 128 30.5t83.5 84.5t43 117t13.5 139q0 139 -63 198.5
t-183 59.5q-116 0 -198 -28v-578q98 -23 176 -23z" />
    <glyph glyph-name="c" unicode="c" horiz-adv-x="935" 
d="M827 254l47 -209q-153 -65 -311 -65q-225 0 -358 136t-133 384q0 255 151 399.5t412 144.5q112 0 239 -34q-7 -63 -31 -119t-55 -88q-66 20 -131 20q-162 0 -236.5 -85.5t-74.5 -237.5q0 -134 68 -211.5t217 -77.5q80 0 196 43z" />
    <glyph glyph-name="d" unicode="d" horiz-adv-x="1191" 
d="M1038 1413v-1413q-50 0 -127.5 28.5t-124.5 67.5q-133 -116 -303 -116q-193 0 -302 125.5t-109 379.5q0 124 39 231t104.5 177.5t149.5 110.5t174 40q138 0 237 -77v362q44 34 126 59t136 25zM332 508q0 -153 61 -235.5t207 -82.5q84 0 176 25v580q-70 28 -178 28
q-122 0 -194 -84.5t-72 -230.5z" />
    <glyph glyph-name="e" unicode="e" horiz-adv-x="1060" 
d="M989 578q0 -53 -10 -125h-645q6 -115 71.5 -189t176.5 -74q110 0 268 43q49 -33 74 -76.5t34 -113.5q-178 -68 -380 -68q-231 0 -368.5 135.5t-137.5 366.5q0 260 132.5 413.5t354.5 153.5q200 0 315 -124.5t115 -341.5zM545 848q-79 0 -130.5 -50t-70.5 -171h373
q-1 108 -49.5 164.5t-122.5 56.5z" />
    <glyph glyph-name="f" unicode="f" horiz-adv-x="753" 
d="M602 1233q-78 0 -117 -43.5t-39 -108.5v-57h297q0 -42 -25 -108t-59 -101h-213v-815h-262v815h-143q0 60 42 129.5t101 97.5v39q0 175 95 272t290 97q61 0 136.5 -8t109.5 -15q0 -146 -57 -208q-72 14 -156 14z" />
    <glyph glyph-name="g" unicode="g" horiz-adv-x="1191" 
d="M795 950q48 30 121.5 51t121.5 21v-1040q0 -28 -1.5 -51t-6.5 -55.5t-14 -58.5t-26.5 -56.5t-40.5 -54t-59 -46t-80 -37.5t-104.5 -24t-132.5 -9q-206 0 -352 60q0 130 64 194q176 -45 288 -45q63 0 104 12t62.5 37.5t29 57.5t7.5 80v114q-142 -110 -293 -110
q-194 0 -302.5 121t-108.5 374q0 124 39 231t104.5 177.5t149.5 110.5t174 40q151 0 256 -94zM600 201q89 0 176 37v557q-72 28 -198 28q-113 0 -179.5 -82.5t-66.5 -224.5q0 -151 61.5 -233t206.5 -82z" />
    <glyph glyph-name="h" unicode="h" horiz-adv-x="1191" 
d="M684 1040q105 0 179 -32t116.5 -93t61 -139.5t18.5 -181.5v-594h-262v594q0 120 -49 172.5t-154 52.5q-29 0 -83 -12t-95 -31v-776h-262v1329q44 34 126 59t136 25v-479q61 52 132 79t136 27z" />
    <glyph glyph-name="i" unicode="i" horiz-adv-x="569" 
d="M283 1192q-62 0 -105 41.5t-43 101.5t43.5 103t104.5 43q62 0 106.5 -42.5t44.5 -103.5q0 -58 -44.5 -100.5t-106.5 -42.5zM154 0v1016q57 25 132 25t130 -25v-1016h-262z" />
    <glyph glyph-name="j" unicode="j" horiz-adv-x="569" 
d="M285 1192q-62 0 -105 41.5t-43 101.5t43.5 103t104.5 43q62 0 105.5 -42.5t43.5 -103.5q0 -59 -44 -101t-105 -42zM109 -471q-45 9 -95 67t-59 109q95 76 147 153.5t52 147.5v1010q57 25 132 25t130 -25v-961q0 -192 -90.5 -338t-216.5 -188z" />
    <glyph glyph-name="k" unicode="k" horiz-adv-x="1175" 
d="M1165 0h-325l-424 485v-485h-262v1329q44 34 126 59t136 25v-764l389 371q157 31 313 0l-459 -438z" />
    <glyph glyph-name="l" unicode="l" horiz-adv-x="569" 
d="M154 0v1329q44 34 126 59t136 25v-1413h-262z" />
    <glyph glyph-name="m" unicode="m" horiz-adv-x="1775" 
d="M1296 1040q158 0 252 -93t94 -230v-717h-262v639q0 78 -54 129t-152 51q-78 0 -152 -31q8 -31 8 -71v-717h-262v639q0 77 -54 128.5t-153 51.5q-70 0 -145 -28v-11v-780h-262v1020q166 0 227 -100q120 120 303 120q98 0 172.5 -37.5t118.5 -103.5q64 73 150 107t171 34z
" />
    <glyph glyph-name="n" unicode="n" horiz-adv-x="1171" 
d="M692 1040q157 0 251.5 -92t94.5 -246v-702h-262v639q0 77 -54 128.5t-153 51.5q-79 0 -153 -31v-8v-780h-262v1020q168 0 231 -105q63 65 144.5 95t162.5 30z" />
    <glyph glyph-name="o" unicode="o" horiz-adv-x="1159" 
d="M580 -20q-232 0 -370 145t-138 389q0 238 139 384t369 146q231 0 369 -145.5t138 -384.5q0 -246 -138 -390t-369 -144zM580 205q117 0 181 78.5t64 230.5q0 145 -64 225t-181 80q-116 0 -181 -80.5t-65 -224.5q0 -152 64 -230.5t182 -78.5z" />
    <glyph glyph-name="p" unicode="p" horiz-adv-x="1191" 
d="M705 1044q91 0 163.5 -27.5t119 -73.5t77 -109t43 -129.5t12.5 -139.5q0 -277 -121.5 -431t-332.5 -154q-129 0 -250 71v-348q-58 -47 -129 -80t-133 -33v1434q52 0 132 -30t122 -72q67 60 146.5 91t150.5 31zM592 190q60 0 106.5 21t76.5 56t49.5 84t27.5 101.5t8 112.5
q0 139 -63 198.5t-183 59.5q-110 0 -198 -37v-571q87 -25 176 -25z" />
    <glyph glyph-name="q" unicode="q" horiz-adv-x="1191" 
d="M780 963q45 32 125 55.5t133 23.5v-1368q-44 -34 -126 -59t-136 -25v496q-135 -106 -293 -106q-193 0 -302 125.5t-109 379.5q0 124 39 231t104.5 177.5t149.5 110.5t174 40q145 0 241 -81zM600 190q84 0 176 25v580q-70 28 -178 28q-122 0 -194 -84.5t-72 -230.5
q0 -153 61 -235.5t207 -82.5z" />
    <glyph glyph-name="r" unicode="r" horiz-adv-x="776" 
d="M715 1040q30 -46 30 -120q0 -92 -30 -144q-58 15 -88 15q-127 0 -211 -132v-659h-262v1020q190 0 243 -129q106 149 295 149h23z" />
    <glyph glyph-name="s" unicode="s" horiz-adv-x="907" 
d="M119 246q199 -64 272 -64t118.5 27t45.5 74q0 22 -8.5 39t-19 28.5t-38 24t-48 20t-66.5 23.5q-126 42 -194 117.5t-68 181.5q0 165 119.5 248.5t318.5 83.5q127 0 233 -23q0 -50 -16 -109.5t-45 -99.5q-111 21 -158 21q-190 0 -190 -107q0 -75 131 -117
q172 -57 245.5 -126.5t73.5 -198.5q0 -100 -61.5 -172.5t-158.5 -107t-214 -34.5q-120 0 -272 27q-27 58 -27 115q0 73 27 129z" />
    <glyph glyph-name="t" unicode="t" horiz-adv-x="829" 
d="M602 203q46 0 98 14q52 -54 52 -211q-67 -29 -209 -29q-178 0 -258 67t-80 232v539h-164q0 51 32.5 119.5t86.5 135.5t136.5 122t170.5 74v-242h301q0 -49 -17 -112.5t-49 -96.5h-235v-473q0 -83 28.5 -111t106.5 -28z" />
    <glyph glyph-name="u" unicode="u" horiz-adv-x="1171" 
d="M756 1010q123 28 262 28v-1038q-170 0 -232 104q-63 -64 -144.5 -94t-162.5 -30q-157 0 -251.5 92t-94.5 245v693q120 28 262 28v-657q0 -77 54 -128.5t153 -51.5q85 0 154 32v9v768z" />
    <glyph glyph-name="v" unicode="v" horiz-adv-x="991" 
d="M715 1022q136 30 272 0l-354 -1018q-67 -20 -137 -20q-74 0 -138 20l-354 1020q137 30 275 0l217 -717z" />
    <glyph glyph-name="w" unicode="w" horiz-adv-x="1544" 
d="M1268 1024q136 30 272 0l-303 -1020q-67 -20 -141 -20q-69 0 -133 20l-191 627l-190 -627q-72 -20 -133 -20q-69 0 -142 20l-303 1020q137 30 275 0l170 -700l204 700q120 30 240 0l203 -700z" />
    <glyph glyph-name="x" unicode="x" horiz-adv-x="1052" 
d="M10 0q148 -32 297 0l219 338l219 -338q148 -32 297 0l-366 520l356 504q-148 32 -297 0l-209 -324l-209 324q-149 32 -297 0l365 -512z" />
    <glyph glyph-name="y" unicode="y" horiz-adv-x="1032" 
d="M756 1024q136 30 272 0l-397 -942q-80 -190 -170.5 -310t-212.5 -182q-67 18 -129 92t-62 142q97 36 184.5 99.5t149.5 150.5l-387 950q137 30 275 0l233 -631z" />
    <glyph glyph-name="z" unicode="z" horiz-adv-x="1036" 
d="M938 238q16 -44 16 -119q0 -61 -18 -119h-703q-64 30 -104.5 93t-36.5 134l508 559h-461q-24 58 -24 121q0 66 26 117h639q66 -30 107 -93t37 -134l-500 -559h514z" />
    <glyph glyph-name="braceleft" unicode="{" horiz-adv-x="708" 
d="M449 127q0 -69 46.5 -100t114.5 -33q58 -61 58 -203q-40 -12 -121 -12q-169 0 -267 88t-98 239q0 65 31 186t31 169q0 44 -27.5 69t-64.5 25h-142v49q0 103 29.5 137.5t112.5 34.5q37 0 64.5 25t27.5 69q0 48 -31 169t-31 186q0 151 98 239t267 88q81 0 121 -12
q0 -142 -58 -203q-68 -2 -114.5 -33t-46.5 -100q0 -52 30.5 -138.5t30.5 -152.5q0 -85 -67.5 -158t-182.5 -89q116 -18 183 -90.5t67 -157.5q0 -66 -30.5 -152.5t-30.5 -138.5z" />
    <glyph glyph-name="bar" unicode="|" horiz-adv-x="593" 
d="M164 -186v1732q133 30 266 0v-1732q-133 -30 -266 0z" />
    <glyph glyph-name="braceright" unicode="}" horiz-adv-x="708" 
d="M557 776h141v-49q0 -103 -29 -137.5t-112 -34.5q-37 0 -64.5 -25t-27.5 -69q0 -48 30.5 -169t30.5 -186q0 -151 -97.5 -239t-266.5 -88q-80 0 -121 12q0 143 57 203q68 2 115 33t47 100q0 52 -30.5 138.5t-30.5 152.5q0 85 67.5 158.5t182.5 89.5q-116 18 -183 90
t-67 157q0 66 30.5 152.5t30.5 138.5q0 69 -47 100t-115 33q-57 60 -57 203q40 12 121 12q169 0 266.5 -88t97.5 -239q0 -65 -30.5 -186t-30.5 -169q0 -44 27.5 -69t64.5 -25z" />
    <glyph glyph-name="exclamdown" unicode="&#xa1;" horiz-adv-x="524" 
d="M260 1044q68 0 114 -46t46 -113t-46 -113.5t-114 -46.5t-114 46.5t-46 113.5t46 113t114 46zM352 563q51 -469 41 -989q-133 -30 -266 0q-10 520 41 989h184z" />
    <glyph glyph-name="cent" unicode="&#xa2;" 
d="M909 420l47 -209q-125 -54 -258 -64q18 -128 -12 -253q-144 -6 -262 47q12 117 65 223q-158 42 -246.5 171.5t-88.5 330.5q0 224 117.5 363.5t326.5 172.5q-14 114 14 236q144 6 262 -47q-13 -101 -49 -189q74 -11 131 -26q-7 -63 -31 -119t-55 -88q-66 20 -131 20
q-162 0 -236.5 -85.5t-74.5 -237.5q0 -134 68 -211.5t217 -77.5q80 0 196 43z" />
    <glyph glyph-name="sterling" unicode="&#xa3;" 
d="M434 225h588q0 -164 -41 -225h-803q-25 24 -52.5 88.5t-27.5 95.5l58 45q139 139 157 301h-231q9 40 16.5 65.5t22 55.5t32.5 47t47.5 29t67.5 12h4q-10 18 -36 61t-38 66.5t-24 62t-12 75.5q0 175 105 273.5t284 98.5q127 0 215 -19t172 -73q43 -158 -14 -252
q-95 70 -169 93.5t-159 23.5q-78 0 -125 -42t-47 -124q0 -18 1.5 -35.5t7 -37.5t8.5 -33t12 -36.5t12.5 -32t15 -36t13.5 -33.5h374q-7 -91 -46 -150t-117 -59h-164q-8 -159 -107 -305z" />
    <glyph glyph-name="currency" unicode="&#xa4;" 
d="M965 377q93 -57 161 -133q-72 -119 -188 -189l-133 183q-110 -52 -242 -52t-239 52l-136 -183q-116 70 -188 189q67 75 162 133q-86 125 -86 303q0 174 86 299q-90 52 -162 133q71 117 188 188l136 -182q108 51 239 51q132 0 240 -51l135 182q117 -71 188 -188
q-73 -82 -161 -133q86 -125 86 -299q0 -178 -86 -303zM563 412q107 0 166 68t59 200q0 125 -59 194.5t-166 69.5q-106 0 -165.5 -70t-59.5 -194q0 -132 58.5 -200t166.5 -68z" />
    <glyph glyph-name="yen" unicode="&#xa5;" 
d="M834 537h-134v-93h297q0 -87 -41.5 -147.5t-121.5 -60.5h-134v-236h-266v236h-305q0 90 36.5 149t108.5 59h160v93h-305q0 90 36.5 149t108.5 59h62l-305 596q147 30 295 0l241 -575l236 575q147 30 293 0l-299 -596h200q0 -87 -41.5 -147.5t-121.5 -60.5z" />
    <glyph glyph-name="brokenbar" unicode="&#xa6;" horiz-adv-x="593" 
d="M164 813v733q133 30 266 0v-733h-266zM164 -186v733h266v-733q-133 -30 -266 0z" />
    <glyph glyph-name="section" unicode="&#xa7;" 
d="M799 383q86 -44 124 -99.5t38 -127.5q0 -115 -68.5 -200t-183 -128t-258.5 -43q-147 0 -271 39q-19 60 -12 123.5t37 118.5q150 -62 274 -62q46 0 78.5 3t62 12t45 27.5t15.5 45.5q0 70 -176 131q-186 64 -264 130t-78 184q0 90 44 164t124 118q-166 97 -166 281
q0 162 128.5 265t342.5 103q132 0 270 -36q23 -45 11.5 -114t-39.5 -112q-171 51 -259 51q-84 0 -128 -34t-44 -93q0 -108 164 -157q108 -32 178.5 -68.5t108 -80.5t51 -89.5t13.5 -107.5q0 -156 -162 -244zM414 627q0 -67 41.5 -105.5t152.5 -68.5l17 -4q106 24 106 114
q0 42 -15 69.5t-65 56t-145 56.5q-4 0 -4 3q-88 -37 -88 -121z" />
    <glyph glyph-name="dieresis" unicode="&#xa8;" horiz-adv-x="716" 
d="M164 1182q-65 0 -109.5 43t-44.5 106t45 107.5t109 44.5q65 0 110 -44t45 -108q0 -62 -45.5 -105.5t-109.5 -43.5zM551 1182q-65 0 -109.5 43t-44.5 106t45 107.5t109 44.5q65 0 110.5 -44t45.5 -108q0 -62 -46 -105.5t-110 -43.5z" />
    <glyph glyph-name="copyright" unicode="&#xa9;" horiz-adv-x="1517" 
d="M760 -20q-183 0 -335.5 87.5t-242.5 245.5t-90 353t90 353t242.5 245.5t335.5 87.5q182 0 334 -87.5t241.5 -245.5t89.5 -353t-89.5 -353t-241.5 -245.5t-334 -87.5zM760 168q132 0 240.5 62t172.5 176.5t64 259.5q0 109 -37.5 202.5t-102 157.5t-152 100.5t-185.5 36.5
q-203 0 -341 -139t-138 -358t138 -358.5t341 -139.5zM774 293q-163 0 -259.5 95t-96.5 267q0 179 109.5 282t299.5 103q61 0 162 -24q-7 -54 -27 -100t-44 -72q-38 10 -74 10q-193 0 -193 -199q0 -77 41.5 -122.5t134.5 -45.5q43 0 123 27l39 -176q-109 -45 -215 -45z" />
    <glyph glyph-name="ordfeminine" unicode="&#xaa;" horiz-adv-x="704" 
d="M336 1382q130 0 201 -56t71 -189v-379q-58 0 -100 22.5t-62 59.5q-36 -51 -90.5 -74t-103.5 -23q-26 0 -55 9t-58 27.5t-48 53.5t-19 80q0 55 23 96t58 64t86 38t95 20t98 6q-3 60 -26.5 80t-71.5 20q-35 0 -79 -8t-58 -8q-48 0 -70 71l-14 43q115 47 223 47zM303 883
q59 0 94 44.5t35 84.5v10h-35q-76 0 -113.5 -25.5t-37.5 -58.5q0 -19 17 -37t40 -18z" />
    <glyph glyph-name="guillemotleft" unicode="&#xab;" horiz-adv-x="1118" 
d="M647 981l-364 -442l364 -443q-117 -30 -233 0l-262 324q-50 61 -50 119q0 57 50 118l262 324q117 30 233 0zM1077 981l-364 -442l364 -443q-117 -30 -233 0l-262 324q-50 61 -50 119q0 57 50 118l262 324q116 30 233 0z" />
    <glyph glyph-name="registered" unicode="&#xae;" horiz-adv-x="1376" 
d="M676 1434q181 0 322.5 -72t224 -214t82.5 -335q0 -150 -48 -271.5t-132.5 -201.5t-199 -123t-249.5 -43q-128 0 -238.5 43.5t-192 123.5t-127.5 201.5t-46 270.5q0 146 46.5 264t128 195.5t191.5 119.5t238 42zM676 373q208 0 318 119.5t110 320.5q0 199 -110 313.5
t-318 114.5q-198 0 -301 -114t-103 -314q0 -203 103.5 -321.5t300.5 -118.5zM899 924q0 -45 -23.5 -89.5t-62.5 -72.5l135 -234h-162l-108 201h-53v-201h-144v572q106 18 183 18q113 0 174 -59.5t61 -134.5zM670 1001q-8 0 -23 -1t-22 -1v-149h51q44 0 70 19t26 55
q0 33 -25 55t-77 22z" />
    <glyph glyph-name="macron" unicode="&#xaf;" horiz-adv-x="552" 
d="M10 1421h533v-207h-533v207z" />
    <glyph glyph-name="degree" unicode="&#xb0;" horiz-adv-x="892" 
d="M444 1380q-159 0 -265.5 -104t-106.5 -272q0 -174 106.5 -281t265.5 -107q165 0 271 106.5t106 281.5q0 170 -106 273t-271 103zM444 813q-88 0 -134 54.5t-46 136.5q0 86 45.5 138t134.5 52t137 -52.5t48 -137.5q0 -81 -48.5 -136t-136.5 -55z" />
    <glyph glyph-name="plusminus" unicode="&#xb1;" 
d="M442 496v186h-389q0 130 31 175.5t131 45.5h227v348q131 0 176.5 -30.5t45.5 -130.5v-187h409q0 -130 -31 -175.5t-131 -45.5h-247v-348q-130 0 -176 31t-46 131zM53 -14q0 130 31 175.5t131 45.5h858q0 -130 -31 -175.5t-131 -45.5h-858z" />
    <glyph glyph-name="acute" unicode="&#xb4;" horiz-adv-x="423" 
d="M152 1133l-119 63l194 340l45 -20q99 -46 95 -105q-4 -51 -95 -149z" />
    <glyph glyph-name="paragraph" unicode="&#xb6;" horiz-adv-x="1157" 
d="M600 1362q225 0 393 -66v-1296h-162v1133q-30 12 -67 12q-32 0 -62 -6v-1139h-184v502q-185 6 -315.5 128.5t-130.5 293.5q0 62 18.5 122.5t60.5 118t102 101t149.5 70t197.5 26.5z" />
    <glyph glyph-name="periodcentered" unicode="&#xb7;" horiz-adv-x="524" 
d="M262 469q-68 0 -114 46.5t-46 113.5t46 113t114 46t114 -46t46 -113t-46 -113.5t-114 -46.5z" />
    <glyph glyph-name="cedilla" unicode="&#xb8;" horiz-adv-x="434" 
d="M242 -123q85 0 133.5 -43t48.5 -131q0 -50 -29.5 -87.5t-73.5 -57t-85.5 -28.5t-75.5 -9q-64 0 -150 14q0 84 21 125q87 -22 135 -22q54 0 84.5 20.5t30.5 46.5q0 62 -117 62q-17 0 -68 -7q-16 8 -30.5 28t-18.5 42l103 170h139l-72 -125q8 2 25 2z" />
    <glyph glyph-name="ordmasculine" unicode="&#xba;" horiz-adv-x="737" 
d="M369 745q-141 0 -225.5 88t-84.5 234q0 143 85.5 231t224.5 88q140 0 224.5 -88t84.5 -231q0 -148 -84.5 -235t-224.5 -87zM369 901q61 0 95 42t34 124q0 77 -34 120.5t-95 43.5q-60 0 -93.5 -43.5t-33.5 -120.5q0 -81 32.5 -123.5t94.5 -42.5z" />
    <glyph glyph-name="guillemotright" unicode="&#xbb;" horiz-adv-x="1118" 
d="M586 539q0 -59 -49 -119l-263 -324q-116 -30 -233 0l365 443l-365 442q117 30 233 0l263 -324q49 -60 49 -118zM967 657q49 -60 49 -118q0 -59 -49 -119l-262 -324q-117 -30 -234 0l365 443l-365 442q117 30 234 0z" />
    <glyph glyph-name="onequarter" unicode="&#xbc;" horiz-adv-x="1898" 
d="M1405 1440q51 0 90 -31l-833 -1456q-25 -45 -80 -45q-57 0 -101 31l834 1452q27 49 90 49zM664 467h-553q-24 94 0 188h178v404q-142 -25 -160 -23q-62 80 -57 164q151 83 358 156q14 0 49 -27.5t39 -36.5v-637h146q25 -99 0 -188zM1853 365q25 -96 0 -189h-81v-176h-230
v176h-307q-31 19 -62.5 62.5t-46.5 89.5q93 146 239 311.5t243 249.5q44 0 92 -22t72 -48v-454h81zM1561 567q-174 -173 -199 -202h199v202z" />
    <glyph glyph-name="onehalf" unicode="&#xbd;" horiz-adv-x="1955" 
d="M1405 1440q51 0 90 -31l-833 -1456q-25 -45 -80 -45q-57 0 -101 31l834 1452q27 49 90 49zM664 467h-553q-24 94 0 188h178v404q-142 -25 -160 -23q-62 80 -57 164q151 83 358 156q14 0 49 -27.5t39 -36.5v-637h146q25 -99 0 -188zM1520 193h342q0 -140 -35 -193h-529
q-21 25 -43 94t-22 99l37 26q198 142 278 228.5t80 166.5q0 40 -32 60t-85 20q-111 0 -258 -104q-44 84 -10 217q128 82 305 82q305 0 305 -262q0 -117 -89.5 -232.5t-243.5 -201.5z" />
    <glyph glyph-name="threequarters" unicode="&#xbe;" horiz-adv-x="1898" 
d="M1405 1440q51 0 90 -31l-833 -1456q-25 -45 -80 -45q-57 0 -101 31l834 1452q27 49 90 49zM731 729q0 -117 -89 -195.5t-245 -78.5q-182 0 -286 80q-15 45 -15 94q0 84 27 139q40 -49 113 -85t141 -36q56 0 91.5 21.5t35.5 60.5q0 92 -164 92h-113q0 142 39 189h56
q90 0 130 17t40 56q0 36 -34 57t-91 21q-120 0 -242 -88q-16 59 -16 105q0 48 14 92q125 86 285 86q131 0 212.5 -62.5t81.5 -173.5q0 -141 -94 -202q57 -25 90 -74t33 -115zM1853 365q25 -96 0 -189h-81v-176h-230v176h-307q-31 19 -62.5 62.5t-46.5 89.5q93 146 239 311.5
t243 249.5q44 0 92 -22t72 -48v-454h81zM1561 567q-174 -173 -199 -202h199v202z" />
    <glyph glyph-name="questiondown" unicode="&#xbf;" horiz-adv-x="968" 
d="M520 725q-68 0 -114 46.5t-46 113.5t46 113t114 46t114 -46t46 -113t-46 -113.5t-114 -46.5zM895 -98q58 -95 14 -254q-180 -109 -428 -109q-177 0 -283 92t-106 244q0 137 73.5 226.5t278.5 207.5l-28 238q97 35 235 22l35 -235q11 -76 -5.5 -116t-74.5 -68
q-147 -70 -199.5 -125t-52.5 -123q0 -65 47 -100t125 -35q159 0 369 135z" />
    <glyph glyph-name="Agrave" unicode="&#xc0;" horiz-adv-x="1286" 
d="M606 1454l-176 195q-41 44 -43 71q-4 62 94 115l45 25l199 -340zM979 0l-86 270h-500l-86 -270h-287l469 1348q162 29 308 0l469 -1348h-287zM463 487h360l-180 564z" />
    <glyph glyph-name="Aacute" unicode="&#xc1;" horiz-adv-x="1286" 
d="M807 1585l-121 -129l-119 64l195 340l45 -21q98 -45 94 -104q-5 -54 -94 -150zM979 0l-86 270h-500l-86 -270h-287l469 1348q162 29 308 0l469 -1348h-287zM463 487h360l-180 564z" />
    <glyph glyph-name="Acircumflex" unicode="&#xc2;" horiz-adv-x="1286" 
d="M649 1618l-121 -166q-108 0 -184 76l205 246q100 30 199 0l204 -246q-76 -76 -184 -76zM979 0l-86 270h-500l-86 -270h-287l469 1348q162 29 308 0l469 -1348h-287zM463 487h360l-180 564z" />
    <glyph glyph-name="Atilde" unicode="&#xc3;" horiz-adv-x="1286" 
d="M477 1495q-66 0 -155 21q0 121 55 188.5t147 67.5q43 0 83.5 -20.5t78.5 -41t74 -20.5q25 0 41 31.5t16 62.5q69 3 158 -21q0 -120 -50.5 -187t-136.5 -67q-43 0 -88.5 22t-84.5 44t-66 22q-32 0 -52 -32t-20 -70zM979 0l-86 270h-500l-86 -270h-287l469 1348
q162 29 308 0l469 -1348h-287zM463 487h360l-180 564z" />
    <glyph glyph-name="Adieresis" unicode="&#xc4;" horiz-adv-x="1286" 
d="M455 1491q-65 0 -109.5 43t-44.5 106t45 107.5t109 44.5q65 0 110 -44t45 -108q0 -62 -45.5 -105.5t-109.5 -43.5zM842 1491q-65 0 -109.5 43t-44.5 106t45 107.5t109 44.5q65 0 110 -44t45 -108q0 -62 -45.5 -105.5t-109.5 -43.5zM979 0l-86 270h-500l-86 -270h-287
l469 1348q162 29 308 0l469 -1348h-287zM463 487h360l-180 564z" />
    <glyph glyph-name="Aring" unicode="&#xc5;" horiz-adv-x="1286" 
d="M649 1438q-125 0 -200.5 64.5t-75.5 172.5t75.5 173t200.5 65q126 0 200.5 -64.5t74.5 -173.5t-74.5 -173t-200.5 -64zM649 1561q90 0 90 114q0 113 -90 113q-92 0 -92 -113q0 -114 92 -114zM979 0l-86 270h-500l-86 -270h-287l469 1348q162 29 308 0l469 -1348h-287z
M463 487h360l-180 564z" />
    <glyph glyph-name="AE" unicode="&#xc6;" horiz-adv-x="1804" 
d="M1151 217h551v-217h-787l-36 250h-467l-115 -250h-277l631 1341h946v-217h-577l49 -333h490q0 -134 -41 -218h-418zM510 467h338l-80 565z" />
    <glyph glyph-name="Ccedilla" unicode="&#xc7;" horiz-adv-x="1325" 
d="M754 201q204 0 368 178l129 -174q-165 -210 -458 -225l-62 -105q8 2 25 2q82 0 132 -44.5t50 -117.5q0 -95 -76.5 -144.5t-187.5 -49.5q-64 0 -150 14q0 84 21 125q87 -22 135 -22q53 0 84 18t31 49q0 62 -117 62q-17 0 -68 -7q-16 8 -30.5 28t-18.5 42l94 156
q-260 31 -411.5 214.5t-151.5 471.5q0 315 180 502.5t482 187.5q163 0 290.5 -59t208.5 -168q-14 -64 -67 -108.5t-117 -61.5q-93 176 -315 176q-189 0 -291.5 -121.5t-102.5 -347.5q0 -225 102.5 -348t291.5 -123z" />
    <glyph glyph-name="Egrave" unicode="&#xc8;" horiz-adv-x="1155" 
d="M580 1456l-177 195q-41 44 -43 71q-4 62 95 115l45 25l198 -340zM1053 1120h-623v-327h520q0 -138 -41 -222h-479v-350h623v-221h-889v1341h889v-221z" />
    <glyph glyph-name="Eacute" unicode="&#xc9;" horiz-adv-x="1155" 
d="M780 1587l-121 -129l-118 64l194 340l45 -21q98 -45 94 -104q-5 -54 -94 -150zM1053 1120h-623v-327h520q0 -138 -41 -222h-479v-350h623v-221h-889v1341h889v-221z" />
    <glyph glyph-name="Ecircumflex" unicode="&#xca;" horiz-adv-x="1155" 
d="M623 1620l-121 -166q-109 0 -185 76l205 246q100 30 199 0l205 -246q-76 -76 -185 -76zM1053 1120h-623v-327h520q0 -138 -41 -222h-479v-350h623v-221h-889v1341h889v-221z" />
    <glyph glyph-name="Edieresis" unicode="&#xcb;" horiz-adv-x="1155" 
d="M428 1493q-65 0 -109.5 43t-44.5 106t45 107.5t109 44.5q65 0 110.5 -44t45.5 -108q0 -62 -46 -105.5t-110 -43.5zM815 1493q-65 0 -109 43t-44 106t44.5 107.5t108.5 44.5q65 0 110.5 -44t45.5 -108q0 -62 -46 -105.5t-110 -43.5zM1053 1120h-623v-327h520
q0 -138 -41 -222h-479v-350h623v-221h-889v1341h889v-221z" />
    <glyph glyph-name="Igrave" unicode="&#xcc;" horiz-adv-x="593" 
d="M254 1454l-176 195q-41 44 -43 71q-4 62 94 115l45 25l199 -340zM430 0h-266v1341q133 30 266 0v-1341z" />
    <glyph glyph-name="Iacute" unicode="&#xcd;" horiz-adv-x="593" 
d="M334 1456l-119 64l195 340l45 -21q98 -45 94 -104q-5 -54 -94 -150zM430 0h-266v1341q133 30 266 0v-1341z" />
    <glyph glyph-name="Icircumflex" unicode="&#xce;" horiz-adv-x="593" 
d="M297 1618l-121 -166q-108 0 -184 76l205 246q99 30 198 0l205 -246q-76 -76 -184 -76zM164 1341q133 30 266 0v-1341h-266v1341z" />
    <glyph glyph-name="Idieresis" unicode="&#xcf;" horiz-adv-x="593" 
d="M102 1491q-65 0 -109 43t-44 106t44.5 107.5t108.5 44.5q65 0 110.5 -44t45.5 -108q0 -62 -46 -105.5t-110 -43.5zM489 1491q-65 0 -109 43t-44 106t44.5 107.5t108.5 44.5q65 0 110.5 -44t45.5 -108q0 -62 -46 -105.5t-110 -43.5zM430 0h-266v1341q133 30 266 0v-1341z
" />
    <glyph glyph-name="Eth" unicode="&#xd0;" horiz-adv-x="1417" 
d="M596 1362q346 0 537.5 -181t191.5 -491q0 -321 -195 -504.5t-528 -185.5h-438v559h-144q8 35 14.5 57.5t18.5 50.5t25.5 45t35.5 31.5t50 20.5v557q248 41 432 41zM602 221q223 0 342 118.5t119 350.5q0 215 -118 330t-335 115q-104 0 -180 -9v-358h377
q-7 -90 -46.5 -149.5t-117.5 -59.5h-213v-338h172z" />
    <glyph glyph-name="Ntilde" unicode="&#xd1;" horiz-adv-x="1492" 
d="M655 1599q-32 0 -51.5 -32t-19.5 -70q-67 0 -156 21q0 121 55.5 188.5t147.5 67.5q43 0 83.5 -20.5t78 -41t73.5 -20.5q25 0 41.5 31.5t16.5 62.5q68 3 157 -21q0 -120 -50 -187t-136 -67q-43 0 -89 22t-85 44t-66 22zM1063 1341h266v-1341q-133 -30 -266 0l-645 893
l12 -215v-678h-266v1341q133 30 266 0l643 -913l-10 119v794z" />
    <glyph glyph-name="Ograve" unicode="&#xd2;" horiz-adv-x="1466" 
d="M690 1456l-176 195q-41 44 -43 71q-4 62 94 115l45 25l199 -340zM733 -20q-293 0 -467 188.5t-174 503.5t174 502.5t467 187.5t467 -187.5t174 -502.5t-174 -503.5t-467 -188.5zM733 201q175 0 273 123.5t98 347.5q0 223 -98 346t-273 123t-273 -123t-98 -346
q0 -224 98 -347.5t273 -123.5z" />
    <glyph glyph-name="Oacute" unicode="&#xd3;" horiz-adv-x="1466" 
d="M770 1458l-119 64l195 340l45 -21q98 -45 94 -104q-5 -54 -94 -150zM733 -20q-293 0 -467 188.5t-174 503.5t174 502.5t467 187.5t467 -187.5t174 -502.5t-174 -503.5t-467 -188.5zM733 201q175 0 273 123.5t98 347.5q0 223 -98 346t-273 123t-273 -123t-98 -346
q0 -224 98 -347.5t273 -123.5z" />
    <glyph glyph-name="Ocircumflex" unicode="&#xd4;" horiz-adv-x="1466" 
d="M733 1620l-121 -166q-108 0 -184 76l205 246q99 30 198 0l205 -246q-76 -76 -184 -76zM733 1362q293 0 467 -187.5t174 -502.5t-174 -503.5t-467 -188.5t-467 188.5t-174 503.5t174 502.5t467 187.5zM733 201q175 0 273 123.5t98 347.5q0 223 -98 346t-273 123t-273 -123
t-98 -346q0 -224 98 -347.5t273 -123.5z" />
    <glyph glyph-name="Otilde" unicode="&#xd5;" horiz-adv-x="1466" 
d="M561 1497q-66 0 -155 21q0 121 55 188.5t147 67.5q43 0 83.5 -20.5t78.5 -41t74 -20.5q25 0 41 31.5t16 62.5q69 3 158 -21q0 -120 -50.5 -187t-136.5 -67q-43 0 -88.5 22t-84.5 44t-66 22q-32 0 -52 -32t-20 -70zM733 -20q-293 0 -467 188.5t-174 503.5t174 502.5
t467 187.5t467 -187.5t174 -502.5t-174 -503.5t-467 -188.5zM733 201q175 0 273 123.5t98 347.5q0 223 -98 346t-273 123t-273 -123t-98 -346q0 -224 98 -347.5t273 -123.5z" />
    <glyph glyph-name="Odieresis" unicode="&#xd6;" horiz-adv-x="1466" 
d="M539 1493q-65 0 -109.5 43t-44.5 106t45 107.5t109 44.5q65 0 110 -44t45 -108q0 -62 -45.5 -105.5t-109.5 -43.5zM926 1493q-65 0 -109.5 43t-44.5 106t45 107.5t109 44.5q65 0 110 -44t45 -108q0 -62 -45.5 -105.5t-109.5 -43.5zM733 -20q-293 0 -467 188.5t-174 503.5
t174 502.5t467 187.5t467 -187.5t174 -502.5t-174 -503.5t-467 -188.5zM733 201q175 0 273 123.5t98 347.5q0 223 -98 346t-273 123t-273 -123t-98 -346q0 -224 98 -347.5t273 -123.5z" />
    <glyph glyph-name="multiply" unicode="&#xd7;" 
d="M725 621l268 -295q-105 -105 -162 -105q-52 0 -108 62l-168 184l-295 -268q-54 54 -79 91.5t-25 69.5q0 51 61 109l184 168l-268 295q54 54 91 79t71 25q53 0 108 -61l168 -184l295 268q55 -55 80 -92t25 -70q0 -53 -62 -109z" />
    <glyph glyph-name="Oslash" unicode="&#xd8;" horiz-adv-x="1464" 
d="M1223 1147q151 -180 151 -475q0 -315 -174 -503.5t-467 -188.5q-199 0 -344 88l-70 -88q-50 0 -95 28.5t-77 67.5l95 121q-150 186 -150 475q0 315 174 502.5t467 187.5q195 0 342 -86l68 86q100 -7 172 -96zM362 672q0 -147 46 -258l522 673q-82 54 -197 54
q-175 0 -273 -123t-98 -346zM733 201q175 0 273 123.5t98 347.5q0 154 -47 260l-522 -676q79 -55 198 -55z" />
    <glyph glyph-name="Ugrave" unicode="&#xd9;" horiz-adv-x="1337" 
d="M627 1454l-176 195q-41 44 -43 71q-4 62 94 115l45 25l198 -340zM670 -20q-252 0 -395.5 142t-143.5 419v800q131 30 262 0v-821q0 -137 71.5 -218t201.5 -81q125 0 201.5 79.5t76.5 219.5v821q131 30 262 0v-800q0 -267 -140 -414t-396 -147z" />
    <glyph glyph-name="Uacute" unicode="&#xda;" horiz-adv-x="1337" 
d="M707 1456l-119 64l194 340l45 -21q99 -46 95 -104q-5 -52 -95 -150zM670 -20q-252 0 -395.5 142t-143.5 419v800q131 30 262 0v-821q0 -137 71.5 -218t201.5 -81q125 0 201.5 79.5t76.5 219.5v821q131 30 262 0v-800q0 -267 -140 -414t-396 -147z" />
    <glyph glyph-name="Ucircumflex" unicode="&#xdb;" horiz-adv-x="1337" 
d="M670 1618l-121 -166q-108 0 -184 76l204 246q100 30 199 0l205 -246q-76 -76 -185 -76zM944 1341q131 30 262 0v-800q0 -267 -140 -414t-396 -147q-252 0 -395.5 142t-143.5 419v800q131 30 262 0v-821q0 -137 71.5 -218t201.5 -81q125 0 201.5 79.5t76.5 219.5v821z" />
    <glyph glyph-name="Udieresis" unicode="&#xdc;" horiz-adv-x="1337" 
d="M475 1491q-65 0 -109 43t-44 106t44.5 107.5t108.5 44.5q65 0 110.5 -44t45.5 -108q0 -62 -46 -105.5t-110 -43.5zM862 1491q-65 0 -109 43t-44 106t44.5 107.5t108.5 44.5q65 0 110.5 -44t45.5 -108q0 -62 -46 -105.5t-110 -43.5zM670 -20q-252 0 -395.5 142t-143.5 419
v800q131 30 262 0v-821q0 -137 71.5 -218t201.5 -81q125 0 201.5 79.5t76.5 219.5v821q131 30 262 0v-800q0 -267 -140 -414t-396 -147z" />
    <glyph glyph-name="Yacute" unicode="&#xdd;" horiz-adv-x="1155" 
d="M741 1587l-120 -129l-119 64l194 340l45 -21q99 -46 95 -104q-5 -52 -95 -150zM1145 1341l-430 -790v-551h-266v549l-439 792q147 30 295 0l277 -563l270 563q147 30 293 0z" />
    <glyph glyph-name="Thorn" unicode="&#xde;" horiz-adv-x="1138" 
d="M606 1137q131 0 241.5 -61.5t175 -167.5t64.5 -232t-64.5 -232.5t-175.5 -168.5t-241 -62h-176v-213h-266v1341q133 30 266 0v-204h176zM545 434q140 0 210 67.5t70 174.5q0 108 -69.5 173.5t-210.5 65.5h-115v-481h115z" />
    <glyph glyph-name="germandbls" unicode="&#xdf;" horiz-adv-x="1302" 
d="M715 707q0 45 23.5 96.5t52 90.5t52 85.5t23.5 81.5q0 77 -55.5 123.5t-148.5 46.5q-114 0 -180 -61t-66 -181v-989h-262v977q0 237 135.5 357t372.5 120q200 0 333 -100t133 -234q0 -63 -25.5 -124.5t-56 -101t-56 -83t-25.5 -74.5q0 -23 22 -49t55 -50t71.5 -56.5
t71.5 -66.5t55 -83.5t22 -103.5q0 -160 -125.5 -256.5t-325.5 -96.5q-138 0 -190 27q0 47 21.5 116t59.5 95q82 -20 117 -20q76 0 120 34.5t44 98.5q0 29 -20 58t-49.5 51.5t-64.5 51.5t-64.5 58t-49.5 71.5t-20 90.5z" />
    <glyph glyph-name="agrave" unicode="&#xe0;" horiz-adv-x="1083" 
d="M317 1325q-41 44 -43 72q-4 61 95 114l45 25l198 -340l-118 -66zM520 1040q99 0 174.5 -20t134.5 -64.5t90 -123t31 -189.5v-643q-90 0 -152.5 36.5t-86.5 96.5q-60 -81 -151 -117t-175 -36q-36 0 -73.5 8.5t-77.5 29.5t-71 51.5t-51 79.5t-20 109q0 65 20 118.5t53 90.5
t82 65.5t100 45.5t114.5 28t117.5 15.5t117 5.5q-1 63 -14 104.5t-38.5 62t-54.5 28t-73 7.5q-63 0 -139.5 -16t-97.5 -16q-33 0 -57.5 22t-45.5 80l-22 64q197 77 366 77zM461 180q102 0 168.5 76t66.5 162v39h-55q-151 0 -224 -48t-73 -114q0 -47 33.5 -81t83.5 -34z" />
    <glyph glyph-name="aacute" unicode="&#xe1;" horiz-adv-x="1083" 
d="M694 1262l-121 -129l-118 63l194 340l45 -20q98 -45 94 -105q-5 -53 -94 -149zM520 1040q99 0 174.5 -20t134.5 -64.5t90 -123t31 -189.5v-643q-90 0 -152.5 36.5t-86.5 96.5q-60 -81 -151 -117t-175 -36q-36 0 -73.5 8.5t-77.5 29.5t-71 51.5t-51 79.5t-20 109
q0 65 20 118.5t53 90.5t82 65.5t100 45.5t114.5 28t117.5 15.5t117 5.5q-1 63 -14 104.5t-38.5 62t-54.5 28t-73 7.5q-63 0 -139.5 -16t-97.5 -16q-33 0 -57.5 22t-45.5 80l-22 64q197 77 366 77zM461 180q102 0 168.5 76t66.5 162v39h-55q-151 0 -224 -48t-73 -114
q0 -47 33.5 -81t83.5 -34z" />
    <glyph glyph-name="acircumflex" unicode="&#xe2;" horiz-adv-x="1083" 
d="M537 1294l-121 -166q-109 0 -185 76l205 246q99 30 199 0l205 -246q-76 -76 -185 -76zM520 1040q99 0 174.5 -20t134.5 -64.5t90 -123t31 -189.5v-643q-90 0 -152.5 36.5t-86.5 96.5q-60 -81 -151 -117t-175 -36q-36 0 -73.5 8.5t-77.5 29.5t-71 51.5t-51 79.5t-20 109
q0 65 20 118.5t53 90.5t82 65.5t100 45.5t114.5 28t117.5 15.5t117 5.5q-1 63 -14 104.5t-38.5 62t-54.5 28t-73 7.5q-63 0 -139.5 -16t-97.5 -16q-33 0 -57.5 22t-45.5 80l-22 64q197 77 366 77zM461 180q102 0 168.5 76t66.5 162v39h-55q-151 0 -224 -48t-73 -114
q0 -47 33.5 -81t83.5 -34z" />
    <glyph glyph-name="atilde" unicode="&#xe3;" horiz-adv-x="1083" 
d="M436 1274q-32 0 -51.5 -32t-19.5 -71q-67 0 -156 21q0 121 55.5 188.5t147.5 67.5q43 0 83.5 -20.5t78 -41t73.5 -20.5q25 0 41.5 31.5t16.5 62.5q71 3 157 -20q0 -120 -50 -187t-136 -67q-43 0 -89 22t-85 44t-66 22zM520 1040q99 0 174.5 -20t134.5 -64.5t90 -123
t31 -189.5v-643q-90 0 -152.5 36.5t-86.5 96.5q-60 -81 -151 -117t-175 -36q-36 0 -73.5 8.5t-77.5 29.5t-71 51.5t-51 79.5t-20 109q0 65 20 118.5t53 90.5t82 65.5t100 45.5t114.5 28t117.5 15.5t117 5.5q-1 63 -14 104.5t-38.5 62t-54.5 28t-73 7.5q-63 0 -139.5 -16
t-97.5 -16q-33 0 -57.5 22t-45.5 80l-22 64q197 77 366 77zM461 180q102 0 168.5 76t66.5 162v39h-55q-151 0 -224 -48t-73 -114q0 -47 33.5 -81t83.5 -34z" />
    <glyph glyph-name="adieresis" unicode="&#xe4;" horiz-adv-x="1083" 
d="M342 1167q-65 0 -109.5 43.5t-44.5 106.5t45 107t109 44q65 0 110.5 -43.5t45.5 -107.5q0 -62 -46 -106t-110 -44zM729 1167q-65 0 -109.5 43.5t-44.5 106.5t45 107t109 44q65 0 110.5 -43.5t45.5 -107.5q0 -62 -46 -106t-110 -44zM520 1040q99 0 174.5 -20t134.5 -64.5
t90 -123t31 -189.5v-643q-90 0 -152.5 36.5t-86.5 96.5q-60 -81 -151 -117t-175 -36q-36 0 -73.5 8.5t-77.5 29.5t-71 51.5t-51 79.5t-20 109q0 65 20 118.5t53 90.5t82 65.5t100 45.5t114.5 28t117.5 15.5t117 5.5q-1 63 -14 104.5t-38.5 62t-54.5 28t-73 7.5
q-63 0 -139.5 -16t-97.5 -16q-33 0 -57.5 22t-45.5 80l-22 64q197 77 366 77zM461 180q102 0 168.5 76t66.5 162v39h-55q-151 0 -224 -48t-73 -114q0 -47 33.5 -81t83.5 -34z" />
    <glyph glyph-name="aring" unicode="&#xe5;" horiz-adv-x="1083" 
d="M537 1114q-125 0 -201 65t-76 173t76 172.5t201 64.5q126 0 200 -64t74 -173t-74 -173.5t-200 -64.5zM537 1464q-93 0 -93 -112q0 -115 93 -115q90 0 90 115q0 112 -90 112zM520 1040q99 0 174.5 -20t134.5 -64.5t90 -123t31 -189.5v-643q-90 0 -152.5 36.5t-86.5 96.5
q-60 -81 -151 -117t-175 -36q-36 0 -73.5 8.5t-77.5 29.5t-71 51.5t-51 79.5t-20 109q0 65 20 118.5t53 90.5t82 65.5t100 45.5t114.5 28t117.5 15.5t117 5.5q-1 63 -14 104.5t-38.5 62t-54.5 28t-73 7.5q-63 0 -139.5 -16t-97.5 -16q-33 0 -57.5 22t-45.5 80l-22 64
q197 77 366 77zM461 180q102 0 168.5 76t66.5 162v39h-55q-151 0 -224 -48t-73 -114q0 -47 33.5 -81t83.5 -34z" />
    <glyph glyph-name="ae" unicode="&#xe6;" horiz-adv-x="1681" 
d="M1610 557q0 -19 -6 -108h-650q6 -115 71 -187t177 -72q126 0 268 43q49 -33 74.5 -76.5t34.5 -113.5q-224 -68 -381 -68q-149 0 -257.5 66t-162.5 188q-26 -71 -74 -122.5t-105.5 -77.5t-110 -37.5t-103.5 -11.5q-36 0 -73.5 8.5t-77.5 29.5t-71 51.5t-51 79.5t-20 109
q0 65 20 118.5t53 90.5t82 65.5t100 45.5t114.5 28t117.5 15.5t117 5.5q-1 63 -14 104.5t-38.5 62t-54.5 28t-73 7.5q-63 0 -139.5 -16t-97.5 -16q-33 0 -57.5 22t-45.5 80l-22 64q197 77 366 77q247 0 336 -153q123 151 324 151q202 0 316 -128t114 -353zM1165 842
q-79 0 -130 -49.5t-70 -169.5h372q-1 108 -49 163.5t-123 55.5zM461 180q102 0 168.5 76t66.5 162v39h-55q-154 0 -225.5 -49t-71.5 -117q0 -45 34 -78t83 -33z" />
    <glyph glyph-name="ccedilla" unicode="&#xe7;" horiz-adv-x="935" 
d="M874 45q-120 -51 -247 -61l-62 -109q8 2 25 2q82 0 132 -44.5t50 -117.5q0 -95 -76.5 -144.5t-187.5 -49.5q-64 0 -150 14q0 84 21 125q87 -22 135 -22q53 0 84 18t31 49q0 62 -117 62q-17 0 -68 -7q-16 8 -30.5 28t-18.5 42l92 154q-193 22 -304 156t-111 360
q0 255 151 399.5t412 144.5q112 0 239 -34q-7 -63 -31 -119t-55 -88q-66 20 -131 20q-162 0 -236.5 -85.5t-74.5 -237.5q0 -134 68 -211.5t217 -77.5q80 0 196 43z" />
    <glyph glyph-name="egrave" unicode="&#xe8;" horiz-adv-x="1060" 
d="M510 1130l-176 195q-41 44 -43 72q-4 61 94 114l45 25l199 -340zM989 578q0 -53 -10 -125h-645q6 -115 71.5 -189t176.5 -74q110 0 268 43q49 -33 74 -76.5t34 -113.5q-178 -68 -380 -68q-231 0 -368.5 135.5t-137.5 366.5q0 260 132.5 413.5t354.5 153.5
q200 0 315 -124.5t115 -341.5zM545 848q-79 0 -130.5 -50t-70.5 -171h373q-1 108 -49.5 164.5t-122.5 56.5z" />
    <glyph glyph-name="eacute" unicode="&#xe9;" horiz-adv-x="1060" 
d="M711 1262l-121 -129l-119 63l195 340l45 -20q98 -45 94 -105q-5 -53 -94 -149zM989 578q0 -53 -10 -125h-645q6 -115 71.5 -189t176.5 -74q110 0 268 43q49 -33 74 -76.5t34 -113.5q-178 -68 -380 -68q-231 0 -368.5 135.5t-137.5 366.5q0 260 132.5 413.5t354.5 153.5
q200 0 315 -124.5t115 -341.5zM545 848q-79 0 -130.5 -50t-70.5 -171h373q-1 108 -49.5 164.5t-122.5 56.5z" />
    <glyph glyph-name="ecircumflex" unicode="&#xea;" horiz-adv-x="1060" 
d="M553 1294l-121 -166q-108 0 -184 76l205 246q99 30 198 0l205 -246q-76 -76 -184 -76zM989 578q0 -53 -10 -125h-645q6 -115 71.5 -189t176.5 -74q110 0 268 43q49 -33 74 -76.5t34 -113.5q-178 -68 -380 -68q-231 0 -368.5 135.5t-137.5 366.5q0 260 132.5 413.5
t354.5 153.5q200 0 315 -124.5t115 -341.5zM545 848q-79 0 -130.5 -50t-70.5 -171h373q-1 108 -49.5 164.5t-122.5 56.5z" />
    <glyph glyph-name="edieresis" unicode="&#xeb;" horiz-adv-x="1060" 
d="M358 1167q-64 0 -108.5 43.5t-44.5 106.5t44.5 107t108.5 44q65 0 110.5 -43.5t45.5 -107.5q0 -62 -46 -106t-110 -44zM745 1167q-64 0 -108.5 43.5t-44.5 106.5t44.5 107t108.5 44q65 0 110.5 -43.5t45.5 -107.5q0 -62 -46 -106t-110 -44zM989 578q0 -53 -10 -125h-645
q6 -115 71.5 -189t176.5 -74q110 0 268 43q49 -33 74 -76.5t34 -113.5q-178 -68 -380 -68q-231 0 -368.5 135.5t-137.5 366.5q0 260 132.5 413.5t354.5 153.5q200 0 315 -124.5t115 -341.5zM545 848q-79 0 -130.5 -50t-70.5 -171h373q-1 108 -49.5 164.5t-122.5 56.5z" />
    <glyph glyph-name="igrave" unicode="&#xec;" horiz-adv-x="569" 
d="M242 1130l-176 195q-41 44 -43 72q-4 61 94 114l45 25l198 -340zM154 0v1016q57 25 132 25t130 -25v-1016h-262z" />
    <glyph glyph-name="iacute" unicode="&#xed;" horiz-adv-x="569" 
d="M322 1133l-119 63l194 340l45 -20q99 -46 95 -105q-4 -51 -95 -149zM154 0v1016q57 25 132 25t130 -25v-1016h-262z" />
    <glyph glyph-name="icircumflex" unicode="&#xee;" horiz-adv-x="569" 
d="M588 1204q-76 -76 -185 -76l-118 166l-121 -166q-108 0 -184 76l204 246q100 30 199 0zM154 0v1016q57 25 132 25t130 -25v-1016h-262z" />
    <glyph glyph-name="idieresis" unicode="&#xef;" horiz-adv-x="569" 
d="M90 1167q-64 0 -108.5 43.5t-44.5 106.5t44.5 107t108.5 44q65 0 110.5 -43.5t45.5 -107.5q0 -62 -46 -106t-110 -44zM477 1167q-64 0 -108.5 43.5t-44.5 106.5t44.5 107t108.5 44q65 0 110.5 -43.5t45.5 -107.5q0 -62 -46 -106t-110 -44zM154 0v1016q57 25 132 25
t130 -25v-1016h-262z" />
    <glyph glyph-name="eth" unicode="&#xf0;" horiz-adv-x="1155" 
d="M774 1223q154 -109 239 -268.5t85 -362.5q0 -280 -143 -446t-375 -166t-370 139.5t-138 374.5q0 207 123 343.5t323 139.5q185 3 318 -148q-52 189 -244 297l-275 -141q-21 6 -46 41.5t-25 63.5l198 104q-113 40 -254 63q0 54 33.5 105t73.5 51q191 -35 348 -115l217 115
q25 -12 46.5 -47t21.5 -63zM827 494q5 120 -61 189t-186 69q-116 0 -181 -68.5t-65 -189.5q0 -141 64 -215t182 -74t180 73.5t67 215.5z" />
    <glyph glyph-name="ntilde" unicode="&#xf1;" horiz-adv-x="1171" 
d="M500 1274q-32 0 -52 -32.5t-20 -70.5q-67 0 -156 21q0 121 55.5 188.5t147.5 67.5q43 0 83.5 -20.5t78.5 -41t74 -20.5q25 0 41 31.5t16 62.5q72 3 158 -20q0 -120 -50.5 -187t-136.5 -67q-43 0 -88.5 22t-84.5 44t-66 22zM692 1040q157 0 251.5 -92t94.5 -246v-702h-262
v639q0 77 -54 128.5t-153 51.5q-79 0 -153 -31v-8v-780h-262v1020q168 0 231 -105q63 65 144.5 95t162.5 30z" />
    <glyph glyph-name="ograve" unicode="&#xf2;" horiz-adv-x="1159" 
d="M537 1130l-177 195q-41 44 -43 72q-4 61 95 114l45 25l198 -340zM580 -20q-232 0 -370 145t-138 389q0 238 139 384t369 146q231 0 369 -145.5t138 -384.5q0 -246 -138 -390t-369 -144zM580 205q117 0 181 78.5t64 230.5q0 145 -64 225t-181 80q-116 0 -181 -80.5
t-65 -224.5q0 -152 64 -230.5t182 -78.5z" />
    <glyph glyph-name="oacute" unicode="&#xf3;" horiz-adv-x="1159" 
d="M616 1133l-118 63l194 340l45 -20q98 -45 94 -105q-5 -53 -94 -149zM580 -20q-232 0 -370 145t-138 389q0 238 139 384t369 146q231 0 369 -145.5t138 -384.5q0 -246 -138 -390t-369 -144zM580 205q117 0 181 78.5t64 230.5q0 145 -64 225t-181 80q-116 0 -181 -80.5
t-65 -224.5q0 -152 64 -230.5t182 -78.5z" />
    <glyph glyph-name="ocircumflex" unicode="&#xf4;" horiz-adv-x="1159" 
d="M883 1204q-76 -76 -185 -76l-118 166l-121 -166q-109 0 -185 76l205 246q100 30 199 0zM580 -20q-232 0 -370 145t-138 389q0 238 139 384t369 146q231 0 369 -145.5t138 -384.5q0 -246 -138 -390t-369 -144zM580 205q117 0 181 78.5t64 230.5q0 145 -64 225t-181 80
q-116 0 -181 -80.5t-65 -224.5q0 -152 64 -230.5t182 -78.5z" />
    <glyph glyph-name="otilde" unicode="&#xf5;" horiz-adv-x="1159" 
d="M408 1171q-67 0 -156 21q0 121 55.5 188.5t147.5 67.5q43 0 83.5 -20.5t78 -41t73.5 -20.5q25 0 41.5 31.5t16.5 62.5q71 3 157 -20q0 -120 -50 -187t-136 -67q-43 0 -89 22t-85 44t-66 22q-32 0 -51.5 -32t-19.5 -71zM580 -20q-232 0 -370 145t-138 389q0 238 139 384
t369 146q231 0 369 -145.5t138 -384.5q0 -246 -138 -390t-369 -144zM580 205q117 0 181 78.5t64 230.5q0 145 -64 225t-181 80q-116 0 -181 -80.5t-65 -224.5q0 -152 64 -230.5t182 -78.5z" />
    <glyph glyph-name="odieresis" unicode="&#xf6;" horiz-adv-x="1159" 
d="M385 1167q-65 0 -109.5 43.5t-44.5 106.5t45 107t109 44q65 0 110.5 -43.5t45.5 -107.5q0 -62 -46 -106t-110 -44zM772 1167q-65 0 -109.5 43.5t-44.5 106.5t45 107t109 44q65 0 110.5 -43.5t45.5 -107.5q0 -62 -46 -106t-110 -44zM580 -20q-232 0 -370 145t-138 389
q0 238 139 384t369 146q231 0 369 -145.5t138 -384.5q0 -246 -138 -390t-369 -144zM580 205q117 0 181 78.5t64 230.5q0 145 -64 225t-181 80q-116 0 -181 -80.5t-65 -224.5q0 -152 64 -230.5t182 -78.5z" />
    <glyph glyph-name="divide" unicode="&#xf7;" 
d="M563 881q-62 0 -104.5 41.5t-42.5 101.5t43 102.5t104 42.5q62 0 106 -42t44 -103q0 -59 -44.5 -101t-105.5 -42zM43 518q0 130 31 175.5t131 45.5h878q0 -130 -30.5 -175.5t-130.5 -45.5h-879zM563 90q-62 0 -104.5 41.5t-42.5 101.5t43 103t104 43q62 0 106 -42.5
t44 -103.5q0 -59 -44.5 -101t-105.5 -42z" />
    <glyph glyph-name="oslash" unicode="&#xf8;" horiz-adv-x="1159" 
d="M993 844q94 -136 94 -330q0 -246 -138 -390t-369 -144q-180 0 -308 92l-82 -88q-86 30 -112 104l86 92q-92 137 -92 334q0 238 139 384t369 146q178 0 307 -90l84 90q45 -20 69 -40t43 -64zM580 819q-116 0 -181 -80.5t-65 -224.5q0 -88 20 -147l377 401q-60 51 -151 51z
M580 205q117 0 181 78.5t64 230.5q0 81 -22 145l-379 -403q60 -51 156 -51z" />
    <glyph glyph-name="ugrave" unicode="&#xf9;" horiz-adv-x="1171" 
d="M537 1130l-177 195q-41 44 -43 72q-4 61 95 114l45 25l198 -340zM756 1010q123 28 262 28v-1038q-170 0 -232 104q-63 -64 -144.5 -94t-162.5 -30q-157 0 -251.5 92t-94.5 245v693q120 28 262 28v-657q0 -77 54 -128.5t153 -51.5q85 0 154 32v9v768z" />
    <glyph glyph-name="uacute" unicode="&#xfa;" horiz-adv-x="1171" 
d="M737 1262l-121 -129l-118 63l194 340l45 -20q98 -45 94 -105q-5 -53 -94 -149zM756 1010q123 28 262 28v-1038q-170 0 -232 104q-63 -64 -144.5 -94t-162.5 -30q-157 0 -251.5 92t-94.5 245v693q120 28 262 28v-657q0 -77 54 -128.5t153 -51.5q85 0 154 32v9v768z" />
    <glyph glyph-name="ucircumflex" unicode="&#xfb;" horiz-adv-x="1171" 
d="M580 1294l-121 -166q-109 0 -185 76l205 246q100 30 199 0l205 -246q-76 -76 -185 -76zM756 1010q123 28 262 28v-1038q-170 0 -232 104q-63 -64 -144.5 -94t-162.5 -30q-157 0 -251.5 92t-94.5 245v693q120 28 262 28v-657q0 -77 54 -128.5t153 -51.5q85 0 154 32v9v768
z" />
    <glyph glyph-name="udieresis" unicode="&#xfc;" horiz-adv-x="1171" 
d="M385 1167q-65 0 -109.5 43.5t-44.5 106.5t45 107t109 44q65 0 110.5 -43.5t45.5 -107.5q0 -62 -46 -106t-110 -44zM772 1167q-65 0 -109.5 43.5t-44.5 106.5t45 107t109 44q65 0 110.5 -43.5t45.5 -107.5q0 -62 -46 -106t-110 -44zM756 1010q123 28 262 28v-1038
q-170 0 -232 104q-63 -64 -144.5 -94t-162.5 -30q-157 0 -251.5 92t-94.5 245v693q120 28 262 28v-657q0 -77 54 -128.5t153 -51.5q85 0 154 32v9v768z" />
    <glyph glyph-name="yacute" unicode="&#xfd;" horiz-adv-x="1032" 
d="M676 1262l-121 -129l-119 63l195 340l45 -20q98 -45 94 -105q-5 -53 -94 -149zM756 1024q136 30 272 0l-397 -942q-80 -190 -170.5 -310t-212.5 -182q-67 18 -129 92t-62 142q97 36 184.5 99.5t149.5 150.5l-387 950q137 30 275 0l233 -631z" />
    <glyph glyph-name="thorn" unicode="&#xfe;" horiz-adv-x="1191" 
d="M705 1044q91 0 163.5 -27.5t119 -73.5t77 -109t43 -129.5t12.5 -139.5q0 -277 -121.5 -431t-332.5 -154q-129 0 -250 71v-348q-58 -47 -129 -80t-133 -33v1739q41 34 122.5 59t139.5 25v-485q66 57 142.5 86.5t146.5 29.5zM592 190q60 0 106.5 21t76.5 56t49.5 84
t27.5 101.5t8 112.5q0 139 -63 198.5t-183 59.5q-110 0 -198 -37v-571q87 -25 176 -25z" />
    <glyph glyph-name="ydieresis" unicode="&#xff;" horiz-adv-x="1032" 
d="M324 1167q-65 0 -109.5 43.5t-44.5 106.5t45 107t109 44q65 0 110 -43.5t45 -107.5q0 -62 -45.5 -106t-109.5 -44zM711 1167q-65 0 -109.5 43.5t-44.5 106.5t45 107t109 44q65 0 110 -43.5t45 -107.5q0 -62 -45.5 -106t-109.5 -44zM756 1024q136 30 272 0l-397 -942
q-80 -190 -170.5 -310t-212.5 -182q-67 18 -129 92t-62 142q97 36 184.5 99.5t149.5 150.5l-387 950q137 30 275 0l233 -631z" />
    <glyph glyph-name="Amacron" unicode="&#x100;" horiz-adv-x="1286" 
d="M383 1747h532v-207h-532v207zM979 0l-86 270h-500l-86 -270h-287l469 1348q162 29 308 0l469 -1348h-287zM463 487h360l-180 564z" />
    <glyph glyph-name="amacron" unicode="&#x101;" horiz-adv-x="1083" 
d="M803 1423v-206h-533v206h533zM520 1040q99 0 174.5 -20t134.5 -64.5t90 -123t31 -189.5v-643q-90 0 -152.5 36.5t-86.5 96.5q-60 -81 -151 -117t-175 -36q-36 0 -73.5 8.5t-77.5 29.5t-71 51.5t-51 79.5t-20 109q0 65 20 118.5t53 90.5t82 65.5t100 45.5t114.5 28
t117.5 15.5t117 5.5q-1 63 -14 104.5t-38.5 62t-54.5 28t-73 7.5q-63 0 -139.5 -16t-97.5 -16q-33 0 -57.5 22t-45.5 80l-22 64q197 77 366 77zM461 180q102 0 168.5 76t66.5 162v39h-55q-151 0 -224 -48t-73 -114q0 -47 33.5 -81t83.5 -34z" />
    <glyph glyph-name="Abreve" unicode="&#x102;" horiz-adv-x="1286" 
d="M649 1470q-90 0 -160 29.5t-109.5 77.5t-59.5 101t-21 108q109 30 219 0q1 -19 8 -40.5t21.5 -44.5t41.5 -37.5t62 -14.5q29 0 51.5 10t36 25t22.5 34.5t12.5 36t4.5 31.5q109 30 219 0q-1 -54 -20.5 -107t-59 -101t-109 -78t-159.5 -30zM979 0l-86 270h-500l-86 -270
h-287l469 1348q162 29 308 0l469 -1348h-287zM463 487h360l-180 564z" />
    <glyph glyph-name="abreve" unicode="&#x103;" horiz-adv-x="1083" 
d="M537 1147q-90 0 -160 29.5t-110 77t-60 101t-21 107.5q110 30 220 0q1 -19 8 -40.5t21.5 -44.5t41.5 -37.5t62 -14.5q29 0 51.5 10t36 25t22.5 34.5t12.5 36t4.5 31.5q109 30 219 0q-1 -42 -12.5 -84.5t-38.5 -84.5t-66 -74t-98.5 -52t-132.5 -20zM520 1040
q99 0 174.5 -20t134.5 -64.5t90 -123t31 -189.5v-643q-90 0 -152.5 36.5t-86.5 96.5q-60 -81 -151 -117t-175 -36q-36 0 -73.5 8.5t-77.5 29.5t-71 51.5t-51 79.5t-20 109q0 65 20 118.5t53 90.5t82 65.5t100 45.5t114.5 28t117.5 15.5t117 5.5q-1 63 -14 104.5t-38.5 62
t-54.5 28t-73 7.5q-63 0 -139.5 -16t-97.5 -16q-33 0 -57.5 22t-45.5 80l-22 64q197 77 366 77zM461 180q102 0 168.5 76t66.5 162v39h-55q-151 0 -224 -48t-73 -114q0 -47 33.5 -81t83.5 -34z" />
    <glyph glyph-name="Aogonek" unicode="&#x104;" horiz-adv-x="1286" 
d="M1303 -256q33 -84 24 -156q-27 -22 -133 -22q-107 0 -167 48t-60 136q0 72 37.5 137.5t105.5 112.5h-131l-86 270h-500l-86 -270h-287l469 1348q162 29 308 0l469 -1348h-2q-134 -96 -134 -199q0 -30 24 -52.5t67 -22.5q45 0 82 18zM463 487h360l-180 564z" />
    <glyph glyph-name="aogonek" unicode="&#x105;" horiz-adv-x="1083" 
d="M987 -256q34 -86 25 -156q-28 -22 -133 -22q-107 0 -167.5 48t-60.5 136q0 82 46.5 154t131.5 119q-89 35 -118 110q-60 -81 -151 -117t-175 -36q-36 0 -73.5 8.5t-77.5 29.5t-71 51.5t-51 79.5t-20 109q0 65 20 118.5t53 90.5t82 65.5t100 45.5t114.5 28t117.5 15.5
t117 5.5q-1 63 -14 104.5t-38.5 62t-54.5 28t-73 7.5q-63 0 -139.5 -16t-97.5 -16q-33 0 -57.5 22t-45.5 80l-22 64q197 77 366 77q99 0 174.5 -20t134.5 -64.5t90 -123t31 -189.5v-643h-2q-133 -95 -133 -199q0 -30 23.5 -52.5t66.5 -22.5q45 0 82 18zM461 180
q102 0 168.5 76t66.5 162v39h-55q-151 0 -224 -48t-73 -114q0 -47 33.5 -81t83.5 -34z" />
    <glyph glyph-name="Cacute" unicode="&#x106;" horiz-adv-x="1325" 
d="M741 1458l-118 64l194 340l45 -21q98 -45 94 -104q-5 -54 -94 -150zM1251 205q-86 -109 -212.5 -167t-284.5 -58q-302 0 -482 188.5t-180 503.5t180 502.5t482 187.5q163 0 290.5 -59t208.5 -168q-14 -64 -67 -108.5t-117 -61.5q-93 176 -315 176q-189 0 -291.5 -121.5
t-102.5 -347.5q0 -225 102.5 -348t291.5 -123q204 0 368 178z" />
    <glyph glyph-name="cacute" unicode="&#x107;" horiz-adv-x="935" 
d="M567 1133l-118 63l194 340l45 -20q98 -45 94 -105q-5 -53 -94 -149zM827 254l47 -209q-153 -65 -311 -65q-225 0 -358 136t-133 384q0 255 151 399.5t412 144.5q112 0 239 -34q-7 -63 -31 -119t-55 -88q-66 20 -131 20q-162 0 -236.5 -85.5t-74.5 -237.5
q0 -134 68 -211.5t217 -77.5q80 0 196 43z" />
    <glyph glyph-name="Cdotaccent" unicode="&#x10a;" horiz-adv-x="1325" 
d="M856 1655q0 -59 -45 -101.5t-106 -42.5q-62 0 -105 42t-43 102t43.5 102.5t104.5 42.5q62 0 106.5 -42t44.5 -103zM1251 205q-86 -109 -212.5 -167t-284.5 -58q-302 0 -482 188.5t-180 503.5t180 502.5t482 187.5q163 0 290.5 -59t208.5 -168q-14 -64 -67 -108.5
t-117 -61.5q-93 176 -315 176q-189 0 -291.5 -121.5t-102.5 -347.5q0 -225 102.5 -348t291.5 -123q204 0 368 178z" />
    <glyph glyph-name="cdotaccent" unicode="&#x10b;" horiz-adv-x="935" 
d="M682 1329q0 -58 -45 -100.5t-107 -42.5t-104.5 41.5t-42.5 101.5t43 103t104 43q62 0 107 -42.5t45 -103.5zM827 254l47 -209q-153 -65 -311 -65q-225 0 -358 136t-133 384q0 255 151 399.5t412 144.5q112 0 239 -34q-7 -63 -31 -119t-55 -88q-66 20 -131 20
q-162 0 -236.5 -85.5t-74.5 -237.5q0 -134 68 -211.5t217 -77.5q80 0 196 43z" />
    <glyph glyph-name="Ccaron" unicode="&#x10c;" horiz-adv-x="1325" 
d="M803 1489q-100 -30 -199 0l-205 246q75 75 185 75l121 -165l118 165q110 0 185 -75zM754 201q204 0 368 178l129 -174q-86 -109 -212.5 -167t-284.5 -58q-302 0 -482 188.5t-180 503.5t180 502.5t482 187.5q163 0 290.5 -59t208.5 -168q-14 -64 -67 -108.5t-117 -61.5
q-93 176 -315 176q-189 0 -291.5 -121.5t-102.5 -347.5q0 -225 102.5 -348t291.5 -123z" />
    <glyph glyph-name="ccaron" unicode="&#x10d;" horiz-adv-x="935" 
d="M649 1485q109 0 185 -76l-205 -246q-99 -30 -199 0l-205 246q76 76 185 76l120 -166zM827 254l47 -209q-153 -65 -311 -65q-225 0 -358 136t-133 384q0 255 151 399.5t412 144.5q112 0 239 -34q-7 -63 -31 -119t-55 -88q-66 20 -131 20q-162 0 -236.5 -85.5t-74.5 -237.5
q0 -134 68 -211.5t217 -77.5q80 0 196 43z" />
    <glyph glyph-name="Dcaron" unicode="&#x10e;" horiz-adv-x="1417" 
d="M776 1489q-99 -30 -198 0l-205 246q75 75 184 75l121 -165l119 165q109 0 184 -75zM596 1362q346 0 537.5 -181t191.5 -491q0 -321 -195 -504.5t-528 -185.5h-438v1321q248 41 432 41zM602 221q223 0 342 118.5t119 350.5q0 215 -118 330t-335 115q-104 0 -180 -9v-905
h172z" />
    <glyph glyph-name="dcaron" unicode="&#x10f;" horiz-adv-x="1191" 
d="M1118 1501q121 0 176.5 -27t55.5 -88q0 -122 -82 -364q-89 0 -150 25v454zM776 967v362q44 34 126 59t136 25v-1413q-50 0 -127.5 28.5t-124.5 67.5q-133 -116 -303 -116q-193 0 -302 125.5t-109 379.5q0 124 39 231t104.5 177.5t149.5 110.5t174 40q138 0 237 -77z
M332 508q0 -153 61 -235.5t207 -82.5q84 0 176 25v580q-70 28 -178 28q-122 0 -194 -84.5t-72 -230.5z" />
    <glyph glyph-name="Dcroat" unicode="&#x110;" horiz-adv-x="1417" 
d="M596 1362q346 0 537.5 -181t191.5 -491q0 -321 -195 -504.5t-528 -185.5h-438v559h-144q8 35 14.5 57.5t18.5 50.5t25.5 45t35.5 31.5t50 20.5v557q248 41 432 41zM602 221q223 0 342 118.5t119 350.5q0 215 -118 330t-335 115q-104 0 -180 -9v-358h377
q-7 -90 -46.5 -149.5t-117.5 -59.5h-213v-338h172z" />
    <glyph glyph-name="dcroat" unicode="&#x111;" horiz-adv-x="1191" 
d="M1165 1329q-4 -37 -9.5 -61.5t-18.5 -51t-37.5 -41t-61.5 -16.5v-1159q-50 0 -127.5 28.5t-124.5 67.5q-133 -116 -303 -116q-193 0 -302 125.5t-109 379.5q0 124 39 231t104.5 177.5t149.5 110.5t174 40q138 0 237 -77v192h-252q11 41 22 66t31 51.5t53.5 39.5t80.5 13
h65q44 34 126 59t136 25v-84h127zM332 508q0 -153 61 -235.5t207 -82.5q84 0 176 25v580q-70 28 -178 28q-122 0 -194 -84.5t-72 -230.5z" />
    <glyph glyph-name="Emacron" unicode="&#x112;" horiz-adv-x="1155" 
d="M356 1749h533v-207h-533v207zM1053 1120h-623v-327h520q0 -138 -41 -222h-479v-350h623v-221h-889v1341h889v-221z" />
    <glyph glyph-name="emacron" unicode="&#x113;" horiz-adv-x="1060" 
d="M287 1423h532v-206h-532v206zM989 578q0 -53 -10 -125h-645q6 -115 71.5 -189t176.5 -74q110 0 268 43q49 -33 74 -76.5t34 -113.5q-178 -68 -380 -68q-231 0 -368.5 135.5t-137.5 366.5q0 260 132.5 413.5t354.5 153.5q200 0 315 -124.5t115 -341.5zM545 848
q-79 0 -130.5 -50t-70.5 -171h373q-1 108 -49.5 164.5t-122.5 56.5z" />
    <glyph glyph-name="Edotaccent" unicode="&#x116;" horiz-adv-x="1155" 
d="M774 1655q0 -59 -45 -101.5t-106 -42.5q-62 0 -105 42t-43 102t43.5 102.5t104.5 42.5q62 0 106.5 -42t44.5 -103zM1053 1120h-623v-327h520q0 -138 -41 -222h-479v-350h623v-221h-889v1341h889v-221z" />
    <glyph glyph-name="edotaccent" unicode="&#x117;" horiz-adv-x="1060" 
d="M705 1329q0 -58 -45 -100.5t-107 -42.5t-104.5 41.5t-42.5 101.5t43 103t104 43q62 0 107 -42.5t45 -103.5zM989 578q0 -53 -10 -125h-645q6 -115 71.5 -189t176.5 -74q110 0 268 43q49 -33 74 -76.5t34 -113.5q-178 -68 -380 -68q-231 0 -368.5 135.5t-137.5 366.5
q0 260 132.5 413.5t354.5 153.5q200 0 315 -124.5t115 -341.5zM545 848q-79 0 -130.5 -50t-70.5 -171h373q-1 108 -49.5 164.5t-122.5 56.5z" />
    <glyph glyph-name="Eogonek" unicode="&#x118;" horiz-adv-x="1155" 
d="M1092 -256q33 -84 24 -156q-27 -22 -133 -22q-107 0 -167 48t-60 136q0 72 37.5 137.5t105.5 112.5h-735v1341h889v-221h-623v-327h520q0 -138 -41 -222h-479v-350h623v-221q-133 -95 -133 -199q0 -30 23.5 -52.5t66.5 -22.5q44 0 82 18z" />
    <glyph glyph-name="eogonek" unicode="&#x119;" horiz-adv-x="1060" 
d="M989 578q0 -53 -10 -125h-645q6 -115 71.5 -189t176.5 -74q110 0 268 43q49 -33 74 -76.5t34 -113.5q-58 -23 -133 -41q-131 -93 -131 -197q0 -30 23.5 -52.5t66.5 -22.5q44 0 82 18q34 -86 25 -156q-27 -22 -133 -22q-107 0 -167.5 48t-60.5 136q0 128 109 223
q-20 -2 -61 -2q-231 0 -368.5 135.5t-137.5 366.5q0 260 132.5 413.5t354.5 153.5q200 0 315 -124.5t115 -341.5zM344 627h373q-1 108 -49.5 164.5t-122.5 56.5q-79 0 -130.5 -50t-70.5 -171z" />
    <glyph glyph-name="Ecaron" unicode="&#x11a;" horiz-adv-x="1155" 
d="M721 1489q-99 -30 -199 0l-205 246q75 75 185 75l121 -165l118 165q110 0 185 -75zM1053 1120h-623v-327h520q0 -138 -41 -222h-479v-350h623v-221h-889v1341h889v-221z" />
    <glyph glyph-name="ecaron" unicode="&#x11b;" horiz-adv-x="1060" 
d="M651 1163q-99 -30 -198 0l-205 246q76 76 184 76l121 -166l119 166q108 0 184 -76zM989 578q0 -53 -10 -125h-645q6 -115 71.5 -189t176.5 -74q110 0 268 43q49 -33 74 -76.5t34 -113.5q-178 -68 -380 -68q-231 0 -368.5 135.5t-137.5 366.5q0 260 132.5 413.5
t354.5 153.5q200 0 315 -124.5t115 -341.5zM545 848q-79 0 -130.5 -50t-70.5 -171h373q-1 108 -49.5 164.5t-122.5 56.5z" />
    <glyph glyph-name="Gbreve" unicode="&#x11e;" horiz-adv-x="1384" 
d="M705 1473q-90 0 -160 29.5t-110 77t-60 101t-21 107.5q109 30 219 0q2 -46 35 -91.5t99 -45.5q29 0 51.5 10t36 25t22.5 34.5t12.5 36t4.5 31.5q110 30 219 0q-1 -42 -12.5 -84.5t-38.5 -84.5t-66 -74t-98.5 -52t-132.5 -20zM1026 592q50 50 125.5 62t140.5 -13v-438
q-92 -108 -230 -167t-308 -59q-302 0 -482 189t-180 504t180 501.5t482 186.5q169 0 301 -59.5t217 -168.5q-75 -140 -185 -169q-103 180 -333 180q-189 0 -291.5 -122.5t-102.5 -348.5q0 -224 102.5 -346.5t291.5 -122.5q146 0 272 69v322z" />
    <glyph glyph-name="gbreve" unicode="&#x11f;" horiz-adv-x="1191" 
d="M608 1147q-90 0 -160 29.5t-109.5 77t-59.5 100.5t-21 108q110 30 219 0q1 -19 8 -40.5t21.5 -44.5t41.5 -37.5t62 -14.5q29 0 51.5 10t36 25t22.5 34.5t12.5 36t4.5 31.5q109 30 219 0q-1 -42 -12.5 -84.5t-38.5 -84.5t-66 -74t-98.5 -52t-132.5 -20zM795 950
q48 30 121.5 51t121.5 21v-1040q0 -28 -1.5 -51t-6.5 -55.5t-14 -58.5t-26.5 -56.5t-40.5 -54t-59 -46t-80 -37.5t-104.5 -24t-132.5 -9q-206 0 -352 60q0 130 64 194q176 -45 288 -45q63 0 104 12t62.5 37.5t29 57.5t7.5 80v114q-142 -110 -293 -110q-194 0 -302.5 121
t-108.5 374q0 124 39 231t104.5 177.5t149.5 110.5t174 40q151 0 256 -94zM600 201q89 0 176 37v557q-72 28 -198 28q-113 0 -179.5 -82.5t-66.5 -224.5q0 -151 61.5 -233t206.5 -82z" />
    <glyph glyph-name="Gdotaccent" unicode="&#x120;" horiz-adv-x="1384" 
d="M705 1511q-62 0 -105 42t-43 102t43.5 102.5t104.5 42.5q62 0 106.5 -42t44.5 -103q0 -59 -45 -101.5t-106 -42.5zM1026 592q50 50 125.5 62t140.5 -13v-438q-92 -108 -230 -167t-308 -59q-302 0 -482 189t-180 504t180 501.5t482 186.5q169 0 301 -59.5t217 -168.5
q-75 -140 -185 -169q-103 180 -333 180q-189 0 -291.5 -122.5t-102.5 -348.5q0 -224 102.5 -346.5t291.5 -122.5q146 0 272 69v322z" />
    <glyph glyph-name="gdotaccent" unicode="&#x121;" horiz-adv-x="1191" 
d="M608 1186q-62 0 -104.5 41.5t-42.5 101.5t43 103t104 43q62 0 107 -42.5t45 -103.5q0 -58 -45 -100.5t-107 -42.5zM795 950q48 30 121.5 51t121.5 21v-1040q0 -28 -1.5 -51t-6.5 -55.5t-14 -58.5t-26.5 -56.5t-40.5 -54t-59 -46t-80 -37.5t-104.5 -24t-132.5 -9
q-206 0 -352 60q0 130 64 194q176 -45 288 -45q63 0 104 12t62.5 37.5t29 57.5t7.5 80v114q-142 -110 -293 -110q-194 0 -302.5 121t-108.5 374q0 124 39 231t104.5 177.5t149.5 110.5t174 40q151 0 256 -94zM600 201q89 0 176 37v557q-72 28 -198 28q-113 0 -179.5 -82.5
t-66.5 -224.5q0 -151 61.5 -233t206.5 -82z" />
    <glyph glyph-name="uni0122" unicode="&#x122;" horiz-adv-x="1384" 
d="M1026 592q50 50 125.5 62t140.5 -13v-438q-92 -108 -230 -167t-308 -59q-302 0 -482 189t-180 504t180 501.5t482 186.5q169 0 301 -59.5t217 -168.5q-75 -140 -185 -169q-103 180 -333 180q-189 0 -291.5 -122.5t-102.5 -348.5q0 -224 102.5 -346.5t291.5 -122.5
q146 0 272 69v322zM772 -70q62 0 106 -42t44 -103q0 -98 -60.5 -186t-144.5 -150q-57 3 -96 70q72 61 104 129q-44 15 -72 53t-28 84q0 60 43 102.5t104 42.5z" />
    <glyph glyph-name="uni0123" unicode="&#x123;" horiz-adv-x="1191" 
d="M590 1169q-62 0 -106 42.5t-44 103.5q0 98 60.5 186t144.5 150q57 -3 96 -70q-72 -61 -104 -129q44 -15 72 -53t28 -84q0 -60 -43 -103t-104 -43zM795 950q48 30 121.5 51t121.5 21v-1040q0 -28 -1.5 -51t-6.5 -55.5t-14 -58.5t-26.5 -56.5t-40.5 -54t-59 -46t-80 -37.5
t-104.5 -24t-132.5 -9q-206 0 -352 60q0 130 64 194q176 -45 288 -45q63 0 104 12t62.5 37.5t29 57.5t7.5 80v114q-142 -110 -293 -110q-194 0 -302.5 121t-108.5 374q0 124 39 231t104.5 177.5t149.5 110.5t174 40q151 0 256 -94zM600 201q89 0 176 37v557q-72 28 -198 28
q-113 0 -179.5 -82.5t-66.5 -224.5q0 -151 61.5 -233t206.5 -82z" />
    <glyph glyph-name="Imacron" unicode="&#x12a;" horiz-adv-x="593" 
d="M31 1747h532v-207h-532v207zM430 0h-266v1341q133 30 266 0v-1341z" />
    <glyph glyph-name="imacron" unicode="&#x12b;" horiz-adv-x="569" 
d="M18 1423h533v-206h-533v206zM154 0v1016q57 25 132 25t130 -25v-1016h-262z" />
    <glyph glyph-name="Iogonek" unicode="&#x12e;" horiz-adv-x="593" 
d="M467 -256q34 -86 25 -156q-28 -22 -134 -22q-107 0 -167 48t-60 136q0 72 37.5 137.5t105.5 112.5h-110v1341q133 30 266 0v-1341h-2q-133 -95 -133 -199q0 -30 23.5 -52.5t66.5 -22.5q45 0 82 18z" />
    <glyph glyph-name="iogonek" unicode="&#x12f;" horiz-adv-x="569" 
d="M285 1186q-62 0 -105 41.5t-43 101.5t43.5 103t104.5 43q62 0 106.5 -42.5t44.5 -103.5q0 -58 -44.5 -100.5t-106.5 -42.5zM455 -252q33 -84 24 -156q-27 -22 -133 -22q-107 0 -167 48t-60 136q0 71 35.5 135t101.5 111h-102v1016q57 25 132 25t130 -25v-1016h-6
q-127 -92 -127 -195q0 -30 23.5 -52.5t66.5 -22.5q45 0 82 18z" />
    <glyph glyph-name="Idotaccent" unicode="&#x130;" horiz-adv-x="593" 
d="M449 1653q0 -58 -45 -101t-107 -43q-61 0 -104 42t-43 102t43 102.5t104 42.5q62 0 107 -42t45 -103zM430 0h-266v1341q133 30 266 0v-1341z" />
    <glyph glyph-name="dotlessi" unicode="&#x131;" horiz-adv-x="569" 
d="M154 0v1016q57 25 132 25t130 -25v-1016h-262z" />
    <glyph glyph-name="IJ" unicode="&#x132;" horiz-adv-x="1390" 
d="M430 0h-266v1341q133 30 266 0v-1341zM961 1341q133 30 266 0v-1003q0 -212 -109.5 -341.5t-281.5 -129.5q-143 0 -263 57q8 149 103 215q87 -35 153 -35q65 0 98.5 50t33.5 143v1044z" />
    <glyph glyph-name="ij" unicode="&#x133;" horiz-adv-x="1138" 
d="M283 1192q-62 0 -105 41.5t-43 101.5t43.5 103t104.5 43q62 0 106.5 -42.5t44.5 -103.5q0 -58 -44.5 -100.5t-106.5 -42.5zM854 1192q-62 0 -104.5 41.5t-42.5 101.5t43 103t104 43q62 0 106 -42.5t44 -103.5q0 -59 -44.5 -101t-105.5 -42zM154 0v1016q57 25 132 25
t130 -25v-1016h-262zM678 -471q-45 9 -95 67t-59 109q95 76 147 153.5t52 147.5v1010q57 25 131.5 25t130.5 -25v-961q0 -192 -90.5 -338t-216.5 -188z" />
    <glyph glyph-name="uni0136" unicode="&#x136;" horiz-adv-x="1355" 
d="M711 705l614 -705h-364l-531 616v-616h-266v1341q133 30 266 0v-587l490 587q164 30 327 0zM707 -70q62 0 105.5 -42t43.5 -103q0 -98 -60.5 -186t-144.5 -150q-57 3 -96 70q72 61 104 129q-44 15 -72 53t-28 84q0 60 43.5 102.5t104.5 42.5z" />
    <glyph glyph-name="uni0137" unicode="&#x137;" horiz-adv-x="1175" 
d="M659 582l506 -582h-325l-424 485v-485h-262v1329q44 34 126 59t136 25v-764l389 371q157 31 313 0zM627 -70q62 0 105.5 -42t43.5 -103q0 -98 -60.5 -186t-144.5 -150q-57 3 -96 70q74 62 105 129q-44 15 -72.5 53t-28.5 84q0 60 43.5 102.5t104.5 42.5z" />
    <glyph glyph-name="Lacute" unicode="&#x139;" horiz-adv-x="1052" 
d="M455 1587l-121 -129l-119 64l195 340l45 -21q98 -45 94 -104q-5 -54 -94 -150zM430 221h582v-221h-848v1341q133 30 266 0v-1120z" />
    <glyph glyph-name="lacute" unicode="&#x13a;" horiz-adv-x="569" 
d="M322 1589l-119 64l194 340l45 -21q99 -46 95 -104q-5 -52 -95 -150zM154 0v1329q44 34 126 59t136 25v-1413h-262z" />
    <glyph glyph-name="uni013B" unicode="&#x13b;" horiz-adv-x="1052" 
d="M430 221h582v-221h-848v1341q133 30 266 0v-1120zM602 -70q62 0 106 -42t44 -103q0 -98 -60.5 -186t-144.5 -150q-57 3 -96 70q72 61 104 129q-44 15 -72 53t-28 84q0 60 43 102.5t104 42.5z" />
    <glyph glyph-name="uni013C" unicode="&#x13c;" horiz-adv-x="569" 
d="M154 0v1329q44 34 126 59t136 25v-1413h-262zM291 -70q62 0 105.5 -42t43.5 -103q0 -98 -60 -186.5t-144 -149.5q-58 3 -97 70q74 62 105 129q-44 15 -72.5 53t-28.5 84q0 60 43.5 102.5t104.5 42.5z" />
    <glyph glyph-name="Lcaron" unicode="&#x13d;" horiz-adv-x="1052" 
d="M395 1489q-99 -30 -198 0l-205 246q75 75 184 75l121 -165l119 165q109 0 184 -75zM430 221h582v-221h-848v1341q133 30 266 0v-1120z" />
    <glyph glyph-name="lcaron" unicode="&#x13e;" horiz-adv-x="569" 
d="M647 1022q-88 0 -149 25v454q121 0 176 -27t55 -88q0 -122 -82 -364zM154 0v1329q44 34 126 59t136 25v-1413h-262z" />
    <glyph glyph-name="Lslash" unicode="&#x141;" horiz-adv-x="1052" 
d="M430 221h582v-221h-848v449l-101 -50q-20 58 -20 105q0 107 86 149l35 17v671q133 30 266 0v-538l307 151q15 -69 15 -102q0 -112 -101 -162l-221 -108v-361z" />
    <glyph glyph-name="lslash" unicode="&#x142;" horiz-adv-x="569" 
d="M522 954q39 -61 39 -141q0 -76 -67 -123l-78 -53v-637h-262v459l-56 -37q-39 70 -39 141q0 75 68 123l27 19v624q44 34 126 59t136 25v-530z" />
    <glyph glyph-name="Nacute" unicode="&#x143;" horiz-adv-x="1492" 
d="M913 1587l-120 -129l-119 64l194 340l45 -21q99 -46 95 -104q-5 -52 -95 -150zM1063 1341h266v-1341q-133 -30 -266 0l-645 893l12 -215v-678h-266v1341q133 30 266 0l643 -913l-10 119v794z" />
    <glyph glyph-name="nacute" unicode="&#x144;" horiz-adv-x="1171" 
d="M758 1262l-121 -129l-119 63l195 340l45 -20q98 -45 94 -105q-5 -53 -94 -149zM692 1040q157 0 251.5 -92t94.5 -246v-702h-262v639q0 77 -54 128.5t-153 51.5q-79 0 -153 -31v-8v-780h-262v1020q168 0 231 -105q63 65 144.5 95t162.5 30z" />
    <glyph glyph-name="uni0145" unicode="&#x145;" horiz-adv-x="1492" 
d="M1063 1341h266v-1341q-133 -30 -266 0l-645 893l12 -215v-678h-266v1341q133 30 266 0l643 -913l-10 119v794zM762 -70q62 0 105.5 -42t43.5 -103q0 -98 -60 -186.5t-144 -149.5q-58 3 -97 70q74 62 105 129q-44 15 -72.5 53t-28.5 84q0 60 43.5 102.5t104.5 42.5z" />
    <glyph glyph-name="uni0146" unicode="&#x146;" horiz-adv-x="1171" 
d="M692 1040q157 0 251.5 -92t94.5 -246v-702h-262v639q0 77 -54 128.5t-153 51.5q-79 0 -153 -31v-8v-780h-262v1020q168 0 231 -105q63 65 144.5 95t162.5 30zM610 -70q62 0 106 -42t44 -103q0 -98 -60.5 -186t-144.5 -150q-57 3 -96 70q72 61 104 129q-44 15 -72 53
t-28 84q0 60 43 102.5t104 42.5z" />
    <glyph glyph-name="Ncaron" unicode="&#x147;" horiz-adv-x="1492" 
d="M854 1489q-100 -30 -199 0l-204 246q75 75 184 75l121 -165l118 165q110 0 185 -75zM1063 1341h266v-1341q-133 -30 -266 0l-645 893l12 -215v-678h-266v1341q133 30 266 0l643 -913l-10 119v794z" />
    <glyph glyph-name="ncaron" unicode="&#x148;" horiz-adv-x="1171" 
d="M698 1163q-99 -30 -198 0l-205 246q76 76 184 76l121 -166l119 166q108 0 184 -76zM692 1040q157 0 251.5 -92t94.5 -246v-702h-262v639q0 77 -54 128.5t-153 51.5q-79 0 -153 -31v-8v-780h-262v1020q168 0 231 -105q63 65 144.5 95t162.5 30z" />
    <glyph glyph-name="Eng" unicode="&#x14a;" horiz-adv-x="1474" 
d="M1329 43q2 -86 -5 -146t-27.5 -114t-57 -88t-95.5 -59t-142.5 -35.5t-198.5 -10.5q15 149 82 222q59 0 88 4.5t51.5 24.5t29.5 56t9 103l-645 893l12 -215v-678h-266v1341q133 30 266 0l643 -913l-10 119v794h266v-1298z" />
    <glyph glyph-name="eng" unicode="&#x14b;" horiz-adv-x="1171" 
d="M1038 16q2 -90 -4 -151.5t-25.5 -118t-55.5 -91t-95 -60.5t-143.5 -37t-202.5 -11q13 135 82 209q42 0 67 2t48 11t34.5 24t20.5 44t11.5 67t2.5 96h-2v639q0 77 -54 128.5t-153 51.5q-79 0 -153 -31v-8v-780h-262v1020q168 0 231 -105q63 65 144.5 95t162.5 30
q157 0 251.5 -92t94.5 -246v-686z" />
    <glyph glyph-name="Omacron" unicode="&#x14c;" horiz-adv-x="1466" 
d="M467 1749h532v-207h-532v207zM733 -20q-293 0 -467 188.5t-174 503.5t174 502.5t467 187.5t467 -187.5t174 -502.5t-174 -503.5t-467 -188.5zM733 201q175 0 273 123.5t98 347.5q0 223 -98 346t-273 123t-273 -123t-98 -346q0 -224 98 -347.5t273 -123.5z" />
    <glyph glyph-name="omacron" unicode="&#x14d;" horiz-adv-x="1159" 
d="M313 1423h533v-206h-533v206zM580 -20q-232 0 -370 145t-138 389q0 238 139 384t369 146q231 0 369 -145.5t138 -384.5q0 -246 -138 -390t-369 -144zM580 205q117 0 181 78.5t64 230.5q0 145 -64 225t-181 80q-116 0 -181 -80.5t-65 -224.5q0 -152 64 -230.5t182 -78.5z
" />
    <glyph glyph-name="Ohungarumlaut" unicode="&#x150;" horiz-adv-x="1466" 
d="M629 1440l-129 35l114 374l50 -10q106 -21 114 -82q5 -54 -59 -166zM883 1438l-113 75l229 320l43 -27q93 -56 82 -112q-9 -53 -108 -140zM733 -20q-293 0 -467 188.5t-174 503.5t174 502.5t467 187.5t467 -187.5t174 -502.5t-174 -503.5t-467 -188.5zM733 201
q175 0 273 123.5t98 347.5q0 223 -98 346t-273 123t-273 -123t-98 -346q0 -224 98 -347.5t273 -123.5z" />
    <glyph glyph-name="ohungarumlaut" unicode="&#x151;" horiz-adv-x="1159" 
d="M475 1114l-129 35l115 375l49 -11q107 -21 115 -81q5 -52 -60 -166zM729 1112l-113 76l230 319l43 -26q93 -56 82 -113q-9 -51 -109 -139zM580 -20q-232 0 -370 145t-138 389q0 238 139 384t369 146q231 0 369 -145.5t138 -384.5q0 -246 -138 -390t-369 -144zM580 205
q117 0 181 78.5t64 230.5q0 145 -64 225t-181 80q-116 0 -181 -80.5t-65 -224.5q0 -152 64 -230.5t182 -78.5z" />
    <glyph glyph-name="OE" unicode="&#x152;" horiz-adv-x="2013" 
d="M1911 1120h-623v-327h520q0 -138 -41 -222h-479v-350h623v-221h-873q-114 -20 -266 -20q-311 0 -495.5 189t-184.5 505q0 315 184 501.5t496 186.5q196 0 301 -21h838v-221zM354 674q0 -225 109.5 -349t308.5 -124q151 0 250 30v852q-97 60 -250 60q-200 0 -309 -122
t-109 -347z" />
    <glyph glyph-name="oe" unicode="&#x153;" horiz-adv-x="1769" 
d="M1698 578q0 -53 -10 -125h-646q6 -115 71.5 -189t176.5 -74t269 43q49 -33 74 -76.5t34 -113.5q-224 -68 -381 -68q-245 0 -371 170q-125 -165 -356 -165q-223 0 -355 145t-132 389q0 238 133 384t354 146q117 0 211 -46.5t156 -133.5q59 87 146.5 133.5t195.5 46.5
q197 0 313.5 -128.5t116.5 -337.5zM1253 848q-79 0 -130 -50t-70 -171h372v18q0 98 -48.5 150.5t-123.5 52.5zM559 205q107 0 166 78.5t59 230.5q0 145 -59 225t-166 80q-106 0 -165.5 -80.5t-59.5 -224.5q0 -152 58.5 -230.5t166.5 -78.5z" />
    <glyph glyph-name="Racute" unicode="&#x154;" horiz-adv-x="1218" 
d="M727 1587l-121 -129l-119 64l195 340l45 -21q98 -45 94 -104q-5 -54 -94 -150zM897 0l-285 502h-182v-502h-266v1321q226 41 391 41q134 0 239.5 -37t167.5 -98t93.5 -133.5t31.5 -149.5q0 -117 -62 -220.5t-163 -162.5l336 -561h-301zM430 1139v-416h115q130 0 205 66
t75 155q0 92 -68.5 146.5t-221.5 54.5q-55 0 -105 -6z" />
    <glyph glyph-name="racute" unicode="&#x155;" horiz-adv-x="776" 
d="M578 1262l-121 -129l-119 63l194 340l46 -20q98 -45 94 -105q-5 -53 -94 -149zM715 1040q30 -46 30 -120q0 -92 -30 -144q-58 15 -88 15q-127 0 -211 -132v-659h-262v1020q190 0 243 -129q106 149 295 149h23z" />
    <glyph glyph-name="uni0156" unicode="&#x156;" horiz-adv-x="1218" 
d="M862 561l336 -561h-301l-285 502h-182v-502h-266v1321q226 41 391 41q134 0 239.5 -37t167.5 -98t93.5 -133.5t31.5 -149.5q0 -117 -62 -220.5t-163 -162.5zM430 1139v-416h115q130 0 205 66t75 155q0 92 -68.5 146.5t-221.5 54.5q-55 0 -105 -6zM657 -70q62 0 106 -42
t44 -103q0 -98 -60.5 -186t-144.5 -150q-57 3 -96 70q72 61 104 129q-44 15 -72 53t-28 84q0 60 43 102.5t104 42.5z" />
    <glyph glyph-name="uni0157" unicode="&#x157;" horiz-adv-x="776" 
d="M715 1040q30 -46 30 -120q0 -92 -30 -144q-58 15 -88 15q-127 0 -211 -132v-659h-262v1020q190 0 243 -129q106 149 295 149h23zM295 -70q62 0 105.5 -42t43.5 -103q0 -98 -60 -186.5t-144 -149.5q-58 3 -97 70q74 62 105 129q-44 15 -72.5 53t-28.5 84q0 60 43.5 102.5
t104.5 42.5z" />
    <glyph glyph-name="Rcaron" unicode="&#x158;" horiz-adv-x="1218" 
d="M668 1489q-99 -30 -199 0l-205 246q75 75 185 75l120 -165l119 165q109 0 184 -75zM897 0l-285 502h-182v-502h-266v1321q226 41 391 41q134 0 239.5 -37t167.5 -98t93.5 -133.5t31.5 -149.5q0 -117 -62 -220.5t-163 -162.5l336 -561h-301zM430 1139v-416h115
q130 0 205 66t75 155q0 92 -68.5 146.5t-221.5 54.5q-55 0 -105 -6z" />
    <glyph glyph-name="rcaron" unicode="&#x159;" horiz-adv-x="776" 
d="M518 1163q-99 -30 -199 0l-204 246q76 76 184 76l121 -166l119 166q108 0 184 -76zM715 1040q30 -46 30 -120q0 -92 -30 -144q-58 15 -88 15q-127 0 -211 -132v-659h-262v1020q190 0 243 -129q106 149 295 149h23z" />
    <glyph glyph-name="Sacute" unicode="&#x15a;" horiz-adv-x="1114" 
d="M596 1458l-119 64l195 340l45 -21q98 -45 94 -104q-5 -54 -94 -150zM911 1098q-184 55 -286 55t-155.5 -42t-53.5 -110q0 -57 48.5 -98t149.5 -78q123 -45 201.5 -90t124.5 -99.5t64 -113.5t18 -141q0 -126 -75.5 -219t-203.5 -140t-290 -47q-175 0 -326 45
q-19 60 -12 123.5t37 118.5q181 -67 299 -67q142 0 215 46.5t73 131.5q0 65 -47 112.5t-184 102.5q-103 41 -168 76t-114.5 80.5t-71 101.5t-21.5 131q0 178 137.5 283.5t372.5 105.5q136 0 297 -41q23 -45 11.5 -112t-40.5 -115z" />
    <glyph glyph-name="sacute" unicode="&#x15b;" horiz-adv-x="907" 
d="M481 1133l-119 63l195 340l45 -20q98 -45 94 -105q-5 -53 -94 -149zM119 246q199 -64 272 -64t118.5 27t45.5 74q0 22 -8.5 39t-19 28.5t-38 24t-48 20t-66.5 23.5q-126 42 -194 117.5t-68 181.5q0 165 119.5 248.5t318.5 83.5q127 0 233 -23q0 -50 -16 -109.5t-45 -99.5
q-111 21 -158 21q-190 0 -190 -107q0 -75 131 -117q172 -57 245.5 -126.5t73.5 -198.5q0 -100 -61.5 -172.5t-158.5 -107t-214 -34.5q-120 0 -272 27q-27 58 -27 115q0 73 27 129z" />
    <glyph glyph-name="Scedilla" unicode="&#x15e;" horiz-adv-x="1114" 
d="M1022 381q0 -151 -105.5 -252t-283.5 -137l-68 -117q8 2 25 2q82 0 132 -44.5t50 -117.5q0 -95 -76.5 -144.5t-187.5 -49.5q-64 0 -150 14q0 84 21 125q87 -22 135 -22q53 0 84 18t31 49q0 62 -117 62q-17 0 -68 -7q-16 8 -30.5 28t-18.5 42l88 145h-30q-175 0 -326 45
q-19 60 -12 123.5t37 118.5q181 -67 299 -67q142 0 215 46.5t73 131.5q0 65 -47 112.5t-184 102.5q-103 41 -168 76t-114.5 80.5t-71 101.5t-21.5 131q0 178 137.5 283.5t372.5 105.5q136 0 297 -41q23 -45 11.5 -112t-40.5 -115q-184 55 -286 55t-155.5 -42t-53.5 -110
q0 -57 48.5 -98t149.5 -78q123 -45 201.5 -90t124.5 -99.5t64 -113.5t18 -141z" />
    <glyph glyph-name="scedilla" unicode="&#x15f;" horiz-adv-x="907" 
d="M825 289q0 -118 -82 -194.5t-215 -104.5l-65 -115q8 2 24 2q82 0 132.5 -44.5t50.5 -117.5q0 -95 -76.5 -144.5t-187.5 -49.5q-64 0 -150 14q0 86 20 125q87 -22 136 -22q52 0 83 18t31 49q0 62 -116 62q-17 0 -68 -7q-16 8 -30.5 28t-18.5 42l88 145q-113 0 -262 27
q-27 58 -27 115q0 73 27 129q199 -64 272 -64t118.5 27t45.5 74q0 22 -8.5 39t-19 28.5t-38 24t-48 20t-66.5 23.5q-126 42 -194 117.5t-68 181.5q0 165 119.5 248.5t318.5 83.5q127 0 233 -23q0 -50 -16 -109.5t-45 -99.5q-111 21 -158 21q-190 0 -190 -107q0 -75 131 -117
q172 -57 245.5 -126.5t73.5 -198.5z" />
    <glyph glyph-name="Scaron" unicode="&#x160;" horiz-adv-x="1114" 
d="M657 1489q-99 -30 -198 0l-205 246q75 75 184 75l121 -165l119 165q109 0 184 -75zM614 825q123 -45 201.5 -90t124.5 -99.5t64 -113.5t18 -141q0 -126 -75.5 -219t-203.5 -140t-290 -47q-175 0 -326 45q-19 60 -12 123.5t37 118.5q181 -67 299 -67q142 0 215 46.5
t73 131.5q0 65 -47 112.5t-184 102.5q-103 41 -168 76t-114.5 80.5t-71 101.5t-21.5 131q0 178 137.5 283.5t372.5 105.5q136 0 297 -41q23 -45 11.5 -112t-40.5 -115q-184 55 -286 55t-155.5 -42t-53.5 -110q0 -57 48.5 -98t149.5 -78z" />
    <glyph glyph-name="scaron" unicode="&#x161;" horiz-adv-x="907" 
d="M563 1485q109 0 185 -76l-205 -246q-100 -30 -199 0l-205 246q76 76 185 76l120 -166zM119 246q199 -64 272 -64t118.5 27t45.5 74q0 22 -8.5 39t-19 28.5t-38 24t-48 20t-66.5 23.5q-126 42 -194 117.5t-68 181.5q0 165 119.5 248.5t318.5 83.5q127 0 233 -23
q0 -50 -16 -109.5t-45 -99.5q-111 21 -158 21q-190 0 -190 -107q0 -75 131 -117q172 -57 245.5 -126.5t73.5 -198.5q0 -100 -61.5 -172.5t-158.5 -107t-214 -34.5q-120 0 -272 27q-27 58 -27 115q0 73 27 129z" />
    <glyph glyph-name="uni0162" unicode="&#x162;" horiz-adv-x="1083" 
d="M676 0h-55l-72 -125q8 2 24 2q82 0 132.5 -44.5t50.5 -117.5q0 -95 -76.5 -144.5t-187.5 -49.5q-64 0 -150 14q0 86 20 125q87 -22 136 -22q52 0 83 18t31 49q0 62 -116 62q-17 0 -68 -7q-16 8 -30.5 28t-18.5 42l102 170h-71v1120h-379q0 146 24 221h998
q0 -121 -25 -221h-352v-1120z" />
    <glyph glyph-name="uni0163" unicode="&#x163;" horiz-adv-x="829" 
d="M752 6q-56 -26 -197 -29l-59 -102q8 2 24 2q82 0 132 -44.5t50 -117.5q0 -95 -76.5 -144.5t-187.5 -49.5q-63 0 -149 14q0 86 20 125q87 -22 135 -22q53 0 84 18t31 49q0 62 -117 62q-16 0 -67 -7q-16 8 -30.5 28t-18.5 42l94 156q-111 21 -163 89t-52 201v539h-164
q0 51 32.5 119.5t86.5 135.5t136.5 122t170.5 74v-242h301q0 -49 -17 -112.5t-49 -96.5h-235v-473q0 -83 28.5 -111t106.5 -28q46 0 98 14q52 -54 52 -211z" />
    <glyph glyph-name="Tcaron" unicode="&#x164;" horiz-adv-x="1083" 
d="M641 1487q-99 -30 -199 0l-204 246q75 75 184 75l121 -166l119 166q109 0 184 -75zM1053 1341q0 -121 -25 -221h-352v-1120h-266v1120h-379q0 146 24 221h998z" />
    <glyph glyph-name="tcaron" unicode="&#x165;" horiz-adv-x="829" 
d="M778 1448q0 -123 -82 -365q-88 0 -149 25v455q121 0 176 -27t55 -88zM702 815h-235v-473q0 -83 28.5 -111t106.5 -28q46 0 98 14q52 -54 52 -211q-67 -29 -209 -29q-178 0 -258 67t-80 232v539h-164q0 51 32.5 119.5t86.5 135.5t136.5 122t170.5 74v-242h301
q0 -49 -17 -112.5t-49 -96.5z" />
    <glyph glyph-name="Tbar" unicode="&#x166;" horiz-adv-x="1083" 
d="M1028 1120h-352v-284h280q-3 -43 -13 -80t-28.5 -70t-49.5 -52.5t-72 -19.5h-117v-614h-266v614h-299q12 52 22 83t30.5 67.5t53.5 54t80 17.5h113v284h-379q0 146 24 221h998q0 -121 -25 -221z" />
    <glyph glyph-name="tbar" unicode="&#x167;" horiz-adv-x="829" 
d="M602 203q46 0 98 14q52 -54 52 -211q-67 -29 -209 -29q-178 0 -258 67t-80 232v211h-150q10 37 19.5 60t26 48.5t42.5 40t62 19.5v160h-164q0 51 32.5 119.5t86.5 135.5t136.5 122t170.5 74v-242h301q0 -49 -17 -112.5t-49 -96.5h-235v-158h219q-7 -73 -46.5 -121.5
t-117.5 -48.5h-55v-145q0 -83 28.5 -111t106.5 -28z" />
    <glyph glyph-name="Umacron" unicode="&#x16a;" horiz-adv-x="1337" 
d="M403 1747h533v-207h-533v207zM670 -20q-252 0 -395.5 142t-143.5 419v800q131 30 262 0v-821q0 -137 71.5 -218t201.5 -81q125 0 201.5 79.5t76.5 219.5v821q131 30 262 0v-800q0 -267 -140 -414t-396 -147z" />
    <glyph glyph-name="umacron" unicode="&#x16b;" horiz-adv-x="1171" 
d="M313 1423h533v-206h-533v206zM756 1010q123 28 262 28v-1038q-170 0 -232 104q-63 -64 -144.5 -94t-162.5 -30q-157 0 -251.5 92t-94.5 245v693q120 28 262 28v-657q0 -77 54 -128.5t153 -51.5q85 0 154 32v9v768z" />
    <glyph glyph-name="Uring" unicode="&#x16e;" horiz-adv-x="1337" 
d="M670 1438q-125 0 -201 64.5t-76 172.5t76 173t201 65q126 0 200 -64.5t74 -173.5t-74 -173t-200 -64zM670 1561q90 0 90 114q0 113 -90 113q-92 0 -92 -113q0 -114 92 -114zM670 -20q-252 0 -395.5 142t-143.5 419v800q131 30 262 0v-821q0 -137 71.5 -218t201.5 -81
q125 0 201.5 79.5t76.5 219.5v821q131 30 262 0v-800q0 -267 -140 -414t-396 -147z" />
    <glyph glyph-name="uring" unicode="&#x16f;" horiz-adv-x="1171" 
d="M580 1114q-125 0 -201 65t-76 173t76 172.5t201 64.5q126 0 200 -64t74 -173t-74 -173.5t-200 -64.5zM580 1237q90 0 90 115q0 112 -90 112q-93 0 -93 -112q0 -115 93 -115zM756 1010q123 28 262 28v-1038q-170 0 -232 104q-63 -64 -144.5 -94t-162.5 -30
q-157 0 -251.5 92t-94.5 245v693q120 28 262 28v-657q0 -77 54 -128.5t153 -51.5q85 0 154 32v9v768z" />
    <glyph glyph-name="Uhungarumlaut" unicode="&#x170;" horiz-adv-x="1337" 
d="M565 1438l-129 35l115 374l49 -10q107 -21 115 -82q5 -52 -60 -166zM819 1436l-112 75l229 320l43 -27q93 -56 82 -112q-9 -52 -109 -140zM670 -20q-252 0 -395.5 142t-143.5 419v800q131 30 262 0v-821q0 -137 71.5 -218t201.5 -81q125 0 201.5 79.5t76.5 219.5v821
q131 30 262 0v-800q0 -267 -140 -414t-396 -147z" />
    <glyph glyph-name="uhungarumlaut" unicode="&#x171;" horiz-adv-x="1171" 
d="M475 1114l-129 35l115 375l49 -11q107 -21 115 -81q5 -52 -60 -166zM729 1112l-113 76l230 319l43 -26q93 -56 82 -113q-9 -51 -109 -139zM756 1010q123 28 262 28v-1038q-170 0 -232 104q-63 -64 -144.5 -94t-162.5 -30q-157 0 -251.5 92t-94.5 245v693q120 28 262 28
v-657q0 -77 54 -128.5t153 -51.5q85 0 154 32v9v768z" />
    <glyph glyph-name="Uogonek" unicode="&#x172;" horiz-adv-x="1337" 
d="M944 1341q131 30 262 0v-800q0 -218 -94.5 -357.5t-269.5 -183.5q-133 -95 -133 -199q0 -30 23.5 -52.5t66.5 -22.5q45 0 82 18q33 -84 24 -156q-27 -22 -133 -22q-107 0 -167 48t-60 136q0 64 30.5 124t86.5 106q-249 3 -390 145t-141 416v800q131 30 262 0v-821
q0 -137 71.5 -218t201.5 -81q125 0 201.5 79.5t76.5 219.5v821z" />
    <glyph glyph-name="uogonek" unicode="&#x173;" horiz-adv-x="1171" 
d="M1055 -256q33 -84 24 -156q-27 -22 -133 -22q-107 0 -167 48t-60 136q0 80 45.5 151.5t128.5 116.5q-74 28 -107 86q-63 -64 -144.5 -94t-162.5 -30q-157 0 -251.5 92t-94.5 245v693q120 28 262 28v-657q0 -77 54 -128.5t153 -51.5q85 0 154 32v9v768q123 28 262 28
v-1038h-2q-133 -95 -133 -199q0 -30 23.5 -52.5t66.5 -22.5q45 0 82 18z" />
    <glyph glyph-name="Wcircumflex" unicode="&#x174;" horiz-adv-x="1853" 
d="M928 1620l-121 -166q-108 0 -184 76l204 246q99 30 199 0l205 -246q-76 -76 -184 -76zM1556 1341q146 31 293 0l-346 -1343q-146 -29 -307 0l-268 907l-271 -907q-146 -29 -307 0l-346 1343q147 31 293 0l238 -997l251 997q140 29 281 0l289 -997z" />
    <glyph glyph-name="wcircumflex" unicode="&#x175;" horiz-adv-x="1544" 
d="M772 1294l-121 -166q-108 0 -184 76l205 246q99 30 198 0l205 -246q-76 -76 -184 -76zM1268 1024q136 30 272 0l-303 -1020q-67 -20 -141 -20q-69 0 -133 20l-191 627l-190 -627q-72 -20 -133 -20q-69 0 -142 20l-303 1020q137 30 275 0l170 -700l204 700q120 30 240 0
l203 -700z" />
    <glyph glyph-name="Ycircumflex" unicode="&#x176;" horiz-adv-x="1155" 
d="M584 1620l-121 -166q-108 0 -184 76l204 246q100 30 199 0l205 -246q-76 -76 -185 -76zM1145 1341l-430 -790v-551h-266v549l-439 792q147 30 295 0l277 -563l270 563q147 30 293 0z" />
    <glyph glyph-name="ycircumflex" unicode="&#x177;" horiz-adv-x="1032" 
d="M518 1294l-121 -166q-108 0 -184 76l205 246q99 30 198 0l205 -246q-76 -76 -184 -76zM756 1024q136 30 272 0l-397 -942q-80 -190 -170.5 -310t-212.5 -182q-67 18 -129 92t-62 142q97 36 184.5 99.5t149.5 150.5l-387 950q137 30 275 0l233 -631z" />
    <glyph glyph-name="Ydieresis" unicode="&#x178;" horiz-adv-x="1155" 
d="M389 1493q-65 0 -109 43t-44 106t44.5 107.5t108.5 44.5q65 0 110.5 -44t45.5 -108q0 -62 -46 -105.5t-110 -43.5zM776 1493q-65 0 -109 43t-44 106t44.5 107.5t108.5 44.5q65 0 110.5 -44t45.5 -108q0 -62 -46 -105.5t-110 -43.5zM1145 1341l-430 -790v-551h-266v549
l-439 792q147 30 295 0l277 -563l270 563q147 30 293 0z" />
    <glyph glyph-name="Zacute" unicode="&#x179;" horiz-adv-x="1280" 
d="M815 1585l-121 -129l-119 64l195 340l45 -21q98 -45 94 -104q-5 -54 -94 -150zM1157 221q19 -52 26.5 -114.5t4.5 -106.5h-948q-46 21 -86.5 87t-40.5 142l733 891h-643q-25 52 -35.5 115t-5.5 106h882q46 -21 86.5 -88t40.5 -143l-733 -889h719z" />
    <glyph glyph-name="zacute" unicode="&#x17a;" horiz-adv-x="1036" 
d="M698 1262l-120 -129l-119 63l194 340l45 -20q99 -46 95 -105q-4 -51 -95 -149zM938 238q16 -44 16 -119q0 -61 -18 -119h-703q-64 30 -104.5 93t-36.5 134l508 559h-461q-24 58 -24 121q0 66 26 117h639q66 -30 107 -93t37 -134l-500 -559h514z" />
    <glyph glyph-name="Zdotaccent" unicode="&#x17b;" horiz-adv-x="1280" 
d="M657 1509q-61 0 -104 42t-43 102t43 102.5t104 42.5q62 0 107 -42t45 -103q0 -58 -45 -101t-107 -43zM1157 221q19 -52 26.5 -114.5t4.5 -106.5h-948q-46 21 -86.5 87t-40.5 142l733 891h-643q-25 52 -35.5 115t-5.5 106h882q46 -21 86.5 -88t40.5 -143l-733 -889h719z
" />
    <glyph glyph-name="zdotaccent" unicode="&#x17c;" horiz-adv-x="1036" 
d="M541 1186q-62 0 -105 41.5t-43 101.5t43.5 103t104.5 43q62 0 106.5 -42.5t44.5 -103.5q0 -58 -44.5 -100.5t-106.5 -42.5zM938 238q16 -44 16 -119q0 -61 -18 -119h-703q-64 30 -104.5 93t-36.5 134l508 559h-461q-24 58 -24 121q0 66 26 117h639q66 -30 107 -93
t37 -134l-500 -559h514z" />
    <glyph glyph-name="Zcaron" unicode="&#x17d;" horiz-adv-x="1280" 
d="M756 1487q-100 -30 -199 0l-205 246q75 75 185 75l120 -166l119 166q110 0 185 -75zM1157 221q19 -52 26.5 -114.5t4.5 -106.5h-948q-46 21 -86.5 87t-40.5 142l733 891h-643q-25 52 -35.5 115t-5.5 106h882q46 -21 86.5 -88t40.5 -143l-733 -889h719z" />
    <glyph glyph-name="zcaron" unicode="&#x17e;" horiz-adv-x="1036" 
d="M639 1163q-99 -30 -199 0l-204 246q76 76 184 76l121 -166l118 166q109 0 185 -76zM938 238q16 -44 16 -119q0 -61 -18 -119h-703q-64 30 -104.5 93t-36.5 134l508 559h-461q-24 58 -24 121q0 66 26 117h639q66 -30 107 -93t37 -134l-500 -559h514z" />
    <glyph glyph-name="florin" unicode="&#x192;" 
d="M766 1010l-14 -78h282q-7 -90 -46.5 -149.5t-117.5 -59.5h-155l-82 -467q-31 -176 -146.5 -282.5t-271.5 -106.5q-64 0 -111.5 12t-99.5 45q34 149 139 215q37 -21 57 -28t50 -7q91 0 110 111l91 508h-177q48 202 213 209l7 37q31 176 146 282.5t271 106.5q118 0 211 -58
q-34 -149 -139 -215q-59 35 -106 35q-92 0 -111 -110z" />
    <glyph glyph-name="uni0218" unicode="&#x218;" horiz-adv-x="1114" 
d="M614 825q123 -45 201.5 -90t124.5 -99.5t64 -113.5t18 -141q0 -126 -75.5 -219t-203.5 -140t-290 -47q-175 0 -326 45q-19 60 -12 123.5t37 118.5q181 -67 299 -67q142 0 215 46.5t73 131.5q0 65 -47 112.5t-184 102.5q-103 41 -168 76t-114.5 80.5t-71 101.5t-21.5 131
q0 178 137.5 283.5t372.5 105.5q136 0 297 -41q23 -45 11.5 -112t-40.5 -115q-184 55 -286 55t-155.5 -42t-53.5 -110q0 -57 48.5 -98t149.5 -78zM565 -70q62 0 106 -42t44 -103q0 -98 -60.5 -186t-144.5 -150q-57 3 -96 70q72 61 104 129q-44 15 -72 53t-28 84
q0 60 43 102.5t104 42.5z" />
    <glyph glyph-name="uni0219" unicode="&#x219;" horiz-adv-x="907" 
d="M119 246q199 -64 272 -64t118.5 27t45.5 74q0 22 -8.5 39t-19 28.5t-38 24t-48 20t-66.5 23.5q-126 42 -194 117.5t-68 181.5q0 165 119.5 248.5t318.5 83.5q127 0 233 -23q0 -50 -16 -109.5t-45 -99.5q-111 21 -158 21q-190 0 -190 -107q0 -75 131 -117
q172 -57 245.5 -126.5t73.5 -198.5q0 -100 -61.5 -172.5t-158.5 -107t-214 -34.5q-120 0 -272 27q-27 58 -27 115q0 73 27 129zM463 -70q62 0 105.5 -42t43.5 -103q0 -98 -60 -186.5t-144 -149.5q-58 3 -97 70q74 62 105 129q-44 15 -72.5 53t-28.5 84q0 60 43.5 102.5
t104.5 42.5z" />
    <glyph glyph-name="uni021A" unicode="&#x21a;" horiz-adv-x="1083" 
d="M55 1341h998q0 -121 -25 -221h-352v-1120h-266v1120h-379q0 146 24 221zM549 -70q62 0 105.5 -42t43.5 -103q0 -98 -60 -186.5t-144 -149.5q-58 3 -97 70q74 62 105 129q-44 15 -72.5 53t-28.5 84q0 60 43.5 102.5t104.5 42.5z" />
    <glyph glyph-name="uni021B" unicode="&#x21b;" horiz-adv-x="829" 
d="M602 203q46 0 98 14q52 -54 52 -211q-67 -29 -209 -29q-178 0 -258 67t-80 232v539h-164q0 51 32.5 119.5t86.5 135.5t136.5 122t170.5 74v-242h301q0 -49 -17 -112.5t-49 -96.5h-235v-473q0 -83 28.5 -111t106.5 -28zM496 -70q62 0 105.5 -42t43.5 -103
q0 -98 -60.5 -186t-144.5 -150q-57 3 -96 70q74 62 105 129q-44 15 -72.5 53t-28.5 84q0 60 43.5 102.5t104.5 42.5z" />
    <glyph glyph-name="uni0237" unicode="&#x237;" horiz-adv-x="550" 
d="M109 -471q-47 12 -94 66t-60 112q75 56 137 140.5t62 158.5v1010q57 25 132 25t130 -25v-961q0 -192 -90.5 -338t-216.5 -188z" />
    <glyph glyph-name="circumflex" unicode="&#x2c6;" horiz-adv-x="628" 
d="M618 1231q-76 -76 -184 -76l-119 166l-120 -166q-109 0 -185 76l205 246q100 30 199 0z" />
    <glyph glyph-name="caron" unicode="&#x2c7;" horiz-adv-x="628" 
d="M434 1485q108 0 184 -76l-204 -246q-99 -30 -199 0l-205 246q76 76 185 76l120 -166z" />
    <glyph glyph-name="breve" unicode="&#x2d8;" horiz-adv-x="718" 
d="M709 1462q-1 -42 -12.5 -84.5t-39 -84.5t-66.5 -74t-98.5 -52t-132.5 -20q-90 0 -160 29.5t-109.5 77t-59.5 100.5t-21 108q110 30 219 0q1 -19 8 -40.5t21.5 -44.5t41.5 -37.5t62 -14.5q29 0 51.5 10t36 25t22.5 34.5t12.5 36t4.5 31.5q110 30 220 0z" />
    <glyph glyph-name="dotaccent" unicode="&#x2d9;" horiz-adv-x="317" 
d="M158 1190q-62 0 -105 41.5t-43 101.5t43.5 103t104.5 43q62 0 105.5 -42.5t43.5 -103.5q0 -59 -44 -101t-105 -42z" />
    <glyph glyph-name="ring" unicode="&#x2da;" horiz-adv-x="571" 
d="M287 1114q-125 0 -201 65t-76 173t76 172.5t201 64.5q126 0 200 -64t74 -173t-74 -173.5t-200 -64.5zM287 1237q90 0 90 115q0 112 -90 112q-92 0 -92 -112q0 -115 92 -115z" />
    <glyph glyph-name="ogonek" unicode="&#x2db;" horiz-adv-x="382" 
d="M238 -430q-108 0 -168 52t-60 155q0 72 55 144.5t148 117.5l94 -35q-65 -46 -99 -93.5t-34 -86.5q0 -43 23 -68.5t67 -25.5t82 18q34 -86 25 -156q-28 -22 -133 -22z" />
    <glyph glyph-name="tilde" unicode="&#x2dc;" horiz-adv-x="673" 
d="M166 1171q-67 0 -156 21q0 121 55.5 188.5t147.5 67.5q43 0 83.5 -20.5t78.5 -41t74 -20.5q25 0 41 31.5t16 62.5q72 3 158 -20q0 -120 -50.5 -187t-136.5 -67q-43 0 -88.5 22t-84.5 44t-66 22q-32 0 -52 -32.5t-20 -70.5z" />
    <glyph glyph-name="hungarumlaut" unicode="&#x2dd;" horiz-adv-x="694" 
d="M147 1114l-129 35l115 375l49 -11q107 -21 115 -81q5 -54 -59 -166zM401 1085l-112 76l229 320l43 -27q93 -56 82 -113q-9 -52 -108 -139z" />
    <glyph glyph-name="gravecomb" unicode="&#x300;" horiz-adv-x="0" 
d="M-152 1130l-176 195q-41 44 -43 72q-4 61 95 114l45 25l198 -340z" />
    <glyph glyph-name="acutecomb" unicode="&#x301;" horiz-adv-x="0" 
d="M-272 1133l-119 63l194 340l45 -20q99 -46 95 -105q-4 -51 -95 -149z" />
    <glyph glyph-name="uni0302" unicode="&#x302;" horiz-adv-x="0" 
d="M-10 1231q-76 -76 -185 -76l-118 166l-121 -166q-108 0 -184 76l204 246q99 30 199 0z" />
    <glyph glyph-name="tildecomb" unicode="&#x303;" horiz-adv-x="0" 
d="M-508 1171q-67 0 -156 21q0 121 55.5 188.5t147.5 67.5q43 0 83.5 -20.5t78.5 -41t74 -20.5q25 0 41 31.5t16 62.5q72 3 158 -20q0 -120 -50.5 -187t-136.5 -67q-43 0 -88.5 22t-84.5 44t-66 22q-32 0 -52 -32.5t-20 -70.5z" />
    <glyph glyph-name="uni0304" unicode="&#x304;" horiz-adv-x="0" 
d="M-543 1423h533v-206h-533v206z" />
    <glyph glyph-name="uni0306" unicode="&#x306;" horiz-adv-x="0" 
d="M-10 1462q-1 -42 -12.5 -84.5t-38.5 -84.5t-66 -74t-98.5 -52t-132.5 -20q-90 0 -160 29.5t-110 77t-60 101t-21 107.5q110 30 220 0q1 -19 8 -40.5t21.5 -44.5t41.5 -37.5t62 -14.5q29 0 51.5 10t36 25t22.5 34.5t12.5 36t4.5 31.5q110 30 219 0z" />
    <glyph glyph-name="uni0307" unicode="&#x307;" horiz-adv-x="0" 
d="M-10 1335q0 -58 -45 -100.5t-107 -42.5t-104.5 41.5t-42.5 101.5t43 103t104 43q62 0 107 -42.5t45 -103.5z" />
    <glyph glyph-name="uni0308" unicode="&#x308;" horiz-adv-x="0" 
d="M-553 1182q-65 0 -109.5 43t-44.5 106t45 107.5t109 44.5q65 0 110.5 -44t45.5 -108q0 -62 -46 -105.5t-110 -43.5zM-166 1182q-65 0 -109 43t-44 106t44.5 107.5t108.5 44.5q65 0 110.5 -44t45.5 -108q0 -62 -46 -105.5t-110 -43.5z" />
    <glyph glyph-name="uni030A" unicode="&#x30a;" horiz-adv-x="0" 
d="M-285 1114q-125 0 -200.5 65t-75.5 173t75.5 172.5t200.5 64.5q126 0 200.5 -64t74.5 -173t-74.5 -173.5t-200.5 -64.5zM-285 1237q90 0 90 115q0 112 -90 112q-92 0 -92 -112q0 -115 92 -115z" />
    <glyph glyph-name="uni030B" unicode="&#x30b;" horiz-adv-x="0" 
d="M-508 1114l-129 35l115 375l49 -11q107 -21 115 -81q5 -52 -60 -166zM-254 1112l-113 76l230 319l43 -26q93 -56 82 -113q-9 -51 -109 -139z" />
    <glyph glyph-name="uni030C" unicode="&#x30c;" horiz-adv-x="0" 
d="M-195 1485q109 0 185 -76l-205 -246q-100 -30 -199 0l-204 246q76 76 184 76l121 -166z" />
    <glyph glyph-name="uni0312" unicode="&#x312;" horiz-adv-x="0" 
d="M-115 1452q44 -15 72.5 -53t28.5 -84q0 -60 -43.5 -103t-104.5 -43q-62 0 -105.5 42.5t-43.5 103.5q0 98 60.5 186t144.5 150q57 -3 96 -70q-74 -62 -105 -129z" />
    <glyph glyph-name="uni0315" unicode="&#x315;" horiz-adv-x="0" 
d="M-92 1022q-89 0 -150 25v454q121 0 176.5 -27t55.5 -88q0 -122 -82 -364z" />
    <glyph glyph-name="uni0326" unicode="&#x326;" horiz-adv-x="0" 
d="M-160 -70q62 0 106 -42t44 -103q0 -98 -60.5 -186t-144.5 -150q-57 3 -96 70q72 61 104 129q-44 15 -72 53t-28 84q0 60 43 102.5t104 42.5z" />
    <glyph glyph-name="uni0327" unicode="&#x327;" horiz-adv-x="0" 
d="M-193 -123q82 0 132.5 -44.5t50.5 -117.5q0 -95 -76.5 -144.5t-187.5 -49.5q-64 0 -150 14q0 84 21 125q87 -22 135 -22q52 0 83 18t31 49q0 62 -116 62q-17 0 -68 -7q-16 8 -30.5 28t-18.5 42l113 186h139l-82 -141q8 2 24 2z" />
    <glyph glyph-name="uni0328" unicode="&#x328;" horiz-adv-x="0" 
d="M-145 -430q-107 0 -167.5 48t-60.5 136t54 163.5t149 121.5l94 -35q-133 -95 -133 -199q0 -30 23.5 -52.5t66.5 -22.5q45 0 82 18q34 -86 25 -156q-28 -22 -133 -22z" />
    <glyph glyph-name="Wgrave" unicode="&#x1e80;" horiz-adv-x="1853" 
d="M885 1456l-176 195q-41 44 -43 71q-4 62 94 115l45 25l199 -340zM1556 1341q146 31 293 0l-346 -1343q-146 -29 -307 0l-268 907l-271 -907q-146 -29 -307 0l-346 1343q147 31 293 0l238 -997l251 997q140 29 281 0l289 -997z" />
    <glyph glyph-name="wgrave" unicode="&#x1e81;" horiz-adv-x="1544" 
d="M729 1130l-176 195q-41 44 -43 72q-4 61 94 114l45 25l199 -340zM1268 1024q136 30 272 0l-303 -1020q-67 -20 -141 -20q-69 0 -133 20l-191 627l-190 -627q-72 -20 -133 -20q-69 0 -142 20l-303 1020q137 30 275 0l170 -700l204 700q120 30 240 0l203 -700z" />
    <glyph glyph-name="Wacute" unicode="&#x1e82;" horiz-adv-x="1853" 
d="M1085 1587l-120 -129l-119 64l194 340l45 -21q99 -46 95 -104q-5 -52 -95 -150zM1556 1341q146 31 293 0l-346 -1343q-146 -29 -307 0l-268 907l-271 -907q-146 -29 -307 0l-346 1343q147 31 293 0l238 -997l251 997q140 29 281 0l289 -997z" />
    <glyph glyph-name="wacute" unicode="&#x1e83;" horiz-adv-x="1544" 
d="M930 1262l-121 -129l-119 63l195 340l45 -20q98 -45 94 -105q-5 -53 -94 -149zM1268 1024q136 30 272 0l-303 -1020q-67 -20 -141 -20q-69 0 -133 20l-191 627l-190 -627q-72 -20 -133 -20q-69 0 -142 20l-303 1020q137 30 275 0l170 -700l204 700q120 30 240 0l203 -700
z" />
    <glyph glyph-name="Wdieresis" unicode="&#x1e84;" horiz-adv-x="1853" 
d="M733 1493q-65 0 -109 43t-44 106t44.5 107.5t108.5 44.5q65 0 110.5 -44t45.5 -108q0 -62 -46 -105.5t-110 -43.5zM1120 1493q-65 0 -109 43t-44 106t44.5 107.5t108.5 44.5q65 0 110.5 -44t45.5 -108q0 -62 -46 -105.5t-110 -43.5zM1556 1341q146 31 293 0l-346 -1343
q-146 -29 -307 0l-268 907l-271 -907q-146 -29 -307 0l-346 1343q147 31 293 0l238 -997l251 997q140 29 281 0l289 -997z" />
    <glyph glyph-name="wdieresis" unicode="&#x1e85;" horiz-adv-x="1544" 
d="M578 1167q-65 0 -109.5 43.5t-44.5 106.5t45 107t109 44q65 0 110 -43.5t45 -107.5q0 -62 -45.5 -106t-109.5 -44zM965 1167q-65 0 -109.5 43.5t-44.5 106.5t45 107t109 44q65 0 110 -43.5t45 -107.5q0 -62 -45.5 -106t-109.5 -44zM1268 1024q136 30 272 0l-303 -1020
q-67 -20 -141 -20q-69 0 -133 20l-191 627l-190 -627q-72 -20 -133 -20q-69 0 -142 20l-303 1020q137 30 275 0l170 -700l204 700q120 30 240 0l203 -700z" />
    <glyph glyph-name="uni1E9E" unicode="&#x1e9e;" horiz-adv-x="1480" 
d="M1065 780q66 -23 125.5 -58.5t109 -82t78.5 -106.5t29 -125q0 -90 -27 -166.5t-81.5 -137.5t-146 -96t-210.5 -35q-97 0 -160 11t-149 36q-30 135 22 242q101 -38 156 -52.5t111 -14.5q98 0 162.5 43.5t64.5 136.5q0 81 -65.5 131t-252.5 121q-32 24 -48.5 67t-16.5 90
l203 316q-44 27 -99 39t-145 12q-165 0 -248.5 -79t-83.5 -228v-844q-131 -30 -262 0v803q0 274 163 421.5t478 147.5q299 0 565 -174z" />
    <glyph glyph-name="Ygrave" unicode="&#x1ef2;" horiz-adv-x="1155" 
d="M541 1456l-176 195q-41 44 -43 71q-4 62 94 115l45 25l198 -340zM1145 1341l-430 -790v-551h-266v549l-439 792q147 30 295 0l277 -563l270 563q147 30 293 0z" />
    <glyph glyph-name="ygrave" unicode="&#x1ef3;" horiz-adv-x="1032" 
d="M475 1130l-176 195q-41 44 -43 72q-4 61 94 114l45 25l199 -340zM756 1024q136 30 272 0l-397 -942q-80 -190 -170.5 -310t-212.5 -182q-67 18 -129 92t-62 142q97 36 184.5 99.5t149.5 150.5l-387 950q137 30 275 0l233 -631z" />
    <glyph glyph-name="endash" unicode="&#x2013;" horiz-adv-x="1024" 
d="M53 518q0 130 31 175.5t131 45.5h756q0 -130 -31 -175.5t-131 -45.5h-756z" />
    <glyph glyph-name="emdash" unicode="&#x2014;" horiz-adv-x="1638" 
d="M53 518q0 130 31 175.5t131 45.5h1370q0 -130 -31 -175.5t-131 -45.5h-1370z" />
    <glyph glyph-name="quoteleft" unicode="&#x2018;" horiz-adv-x="391" 
d="M225 1143q50 -11 83.5 -52.5t33.5 -95.5q0 -63 -45 -107t-109 -44q-65 0 -111 54.5t-46 133.5q0 114 67 215t160 166q61 -3 102 -72q-100 -70 -135 -198z" />
    <glyph glyph-name="quoteright" unicode="&#x2019;" horiz-adv-x="391" 
d="M203 1413q65 0 111 -54.5t46 -133.5q0 -114 -67 -215t-160 -166q-61 3 -102 71q100 70 135 199q-50 11 -83.5 52.5t-33.5 95.5q0 63 45 107t109 44z" />
    <glyph glyph-name="quotesinglbase" unicode="&#x201a;" horiz-adv-x="391" 
d="M203 184q65 0 111 -54.5t46 -133.5q0 -114 -67 -215t-160 -166q-61 3 -102 72q101 70 135 198q-50 11 -83.5 52.5t-33.5 95.5q0 63 45 107t109 44z" />
    <glyph glyph-name="quotedblleft" unicode="&#x201c;" horiz-adv-x="798" 
d="M360 1341q-100 -70 -135 -198q50 -11 83.5 -52.5t33.5 -95.5q0 -63 -45 -107t-109 -44q-65 0 -111 54.5t-46 133.5q0 114 67 215t160 166q61 -3 102 -72zM633 1143q50 -11 83.5 -52.5t33.5 -95.5q0 -63 -45 -107t-109 -44q-65 0 -111.5 54.5t-46.5 133.5q0 113 67 214.5
t161 166.5q61 -3 102 -72q-100 -70 -135 -198z" />
    <glyph glyph-name="quotedblright" unicode="&#x201d;" horiz-adv-x="798" 
d="M203 1413q65 0 111 -54.5t46 -133.5q0 -114 -67 -215t-160 -166q-61 3 -102 71q100 70 135 199q-50 11 -83.5 52.5t-33.5 95.5q0 63 45 107t109 44zM610 1413q65 0 111.5 -54.5t46.5 -133.5q0 -114 -67 -215t-160 -166q-62 3 -103 71q100 70 135 199q-50 11 -83 52.5
t-33 95.5q0 63 44.5 107t108.5 44z" />
    <glyph glyph-name="quotedblbase" unicode="&#x201e;" horiz-adv-x="798" 
d="M203 184q65 0 111 -54.5t46 -133.5q0 -114 -67 -215t-160 -166q-61 3 -102 72q101 70 135 198q-50 11 -83.5 52.5t-33.5 95.5q0 63 45 107t109 44zM610 184q65 0 111.5 -54.5t46.5 -133.5q0 -114 -67 -215t-160 -166q-62 3 -103 72q100 70 135 198q-50 11 -83 52.5
t-33 95.5q0 63 44.5 107t108.5 44z" />
    <glyph glyph-name="dagger" unicode="&#x2020;" horiz-adv-x="1228" 
d="M969 1167q0 -42 -25 -108t-59 -101h-178l-19 -688q-100 -15 -201 0l-18 688h-264q0 42 25 108t59 101h174l-6 234q57 25 132 25t130 -25l-6 -234h256z" />
    <glyph glyph-name="daggerdbl" unicode="&#x2021;" horiz-adv-x="1228" 
d="M688 854l6 -125h275q0 -42 -25 -108t-59 -101h-178l12 -233q-55 -25 -130 -25t-132 25l12 233h-264q0 42 25 108t59 101h192l6 125l-6 104h-276q0 42 25 108t59 101h180l-12 234q57 25 132 25t130 -25l-12 -234h262q0 -42 -25 -108t-59 -101h-191z" />
    <glyph glyph-name="bullet" unicode="&#x2022;" horiz-adv-x="684" 
d="M342 391q-101 0 -170.5 69.5t-69.5 170.5t69.5 170t170.5 69t170.5 -69t69.5 -170t-69.5 -170.5t-170.5 -69.5z" />
    <glyph glyph-name="ellipsis" unicode="&#x2026;" horiz-adv-x="1437" 
d="M262 -10q-68 0 -114 46t-46 114q0 67 46 113t114 46t114 -46t46 -113q0 -68 -46 -114t-114 -46zM729 -10q-67 0 -113.5 46t-46.5 114q0 67 46 113t114 46t114 -46t46 -113q0 -68 -46.5 -114t-113.5 -46zM1176 -10q-68 0 -114 46t-46 114q0 67 46 113t114 46t113.5 -45.5
t45.5 -113.5t-46 -114t-113 -46z" />
    <glyph glyph-name="perthousand" unicode="&#x2030;" horiz-adv-x="2109" 
d="M160 33l889 1243q48 85 102.5 93t157.5 -44l-887 -1243q-61 -87 -109.5 -94t-152.5 45zM328 1362q-132 0 -212.5 -88t-80.5 -256q0 -169 81 -258.5t212 -89.5q132 0 212.5 90t80.5 258t-80.5 256t-212.5 88zM328 823q-52 0 -78.5 50.5t-26.5 144.5q0 190 105 190
q104 0 104 -190q0 -93 -26 -144t-78 -51zM1106 676q-132 0 -212.5 -88t-80.5 -256q0 -169 81 -258.5t212 -89.5q132 0 212.5 90t80.5 258t-80.5 256t-212.5 88zM1823 676q-132 0 -212.5 -88t-80.5 -256q0 -169 81 -258.5t212 -89.5q132 0 212.5 90t80.5 258t-80.5 256
t-212.5 88zM1106 137q-52 0 -78.5 50.5t-26.5 144.5q0 190 105 190q104 0 104 -190q0 -93 -26 -144t-78 -51zM1823 137q-52 0 -78.5 50.5t-26.5 144.5q0 190 105 190q104 0 104 -190q0 -93 -26 -144t-78 -51z" />
    <glyph glyph-name="guilsinglleft" unicode="&#x2039;" horiz-adv-x="688" 
d="M647 981l-364 -442l364 -443q-117 -30 -233 0l-262 324q-50 61 -50 119q0 57 50 118l262 324q117 30 233 0z" />
    <glyph glyph-name="guilsinglright" unicode="&#x203a;" horiz-adv-x="688" 
d="M537 657q49 -60 49 -118q0 -59 -49 -119l-263 -324q-116 -30 -233 0l365 443l-365 442q117 30 233 0z" />
    <glyph glyph-name="fraction" unicode="&#x2044;" horiz-adv-x="317" 
d="M-227 -92q-57 0 -101 31l834 1452q27 49 90 49q51 0 90 -31l-833 -1456q-25 -45 -80 -45z" />
    <glyph glyph-name="lira" unicode="&#x20a4;" 
d="M793 522q128 30 256 0v-106q0 -416 -426 -416h-422v375l-158 -78q-18 49 -18 98q0 113 84 156l92 45v127l-158 -78q-18 49 -18 98q0 113 84 156l92 45v397q133 30 266 0v-264l307 152q14 -65 14 -103q0 -55 -22.5 -94t-77.5 -67l-221 -109v-127l307 152q14 -65 14 -103
q0 -55 -22.5 -94.5t-77.5 -67.5l-221 -108v-287h125q111 0 156 69.5t45 231.5z" />
    <glyph glyph-name="uni20A6" unicode="&#x20a6;" 
d="M1010 793v-222h116q0 -87 -21 -148t-61 -61h-34v-362q-123 -30 -246 0l-172 362h-217v-362h-246v362h-129q0 91 26 150t78 59h25v222h-129q0 90 26 149t78 59h25v342q123 30 246 0l160 -342h229v340h246v-340h116q0 -87 -21 -147.5t-61 -60.5h-34zM375 489h155l-182 385
l27 -303v-82zM764 874h-170l180 -385h14l-24 283v102z" />
    <glyph glyph-name="uni20A8" unicode="&#x20a8;" 
d="M752 1133q59 -74 79 -170h248q0 -87 -42 -148t-122 -61h-92q-34 -119 -121.5 -209t-209.5 -115l505 -430h-346l-528 440q0 83 48 126.5t144 43.5q99 0 166 37.5t97 106.5h-558q0 90 37 149.5t109 59.5h426q-39 170 -242 170h-330q0 90 37 149t109 59h913
q0 -87 -42 -147.5t-122 -60.5h-163z" />
    <glyph glyph-name="uni20A9" unicode="&#x20a9;" 
d="M1020 805l-14 -119h120q0 -87 -21 -148t-61 -61h-63l-57 -479q-138 -27 -291 0l-70 737l-71 -737q-138 -27 -291 0l-58 479h-143q0 91 26 150t78 59h15l-15 119h-104q0 78 20.5 135t59.5 70l-39 331q133 30 266 0l15 -327h100l27 327q66 15 114.5 15t114.5 -15l29 -327
h100l12 327q133 30 266 0l-38 -327h79q0 -87 -21 -148t-61 -61h-24zM410 889h-84l8 -205h59zM801 889h-84l18 -205h58zM352 244h4l27 315h-43zM776 244l12 315h-43l27 -315h4z" />
    <glyph glyph-name="uni20AA" unicode="&#x20aa;" 
d="M16 0v1341h361q99 0 174.5 -20t134.5 -64.5t90 -123t31 -189.5v-485h-180v448q0 56 -15 93.5t-44.5 55.5t-62.5 24.5t-79 6.5h-229v-1087h-181zM729 0q-98 0 -171 20t-128 64.5t-83 123t-28 189.5v486h181v-449q0 -57 12 -93.5t37.5 -55t55 -25t75.5 -6.5h250v1087h180
v-1341h-381z" />
    <glyph glyph-name="Euro" unicode="&#x20ac;" 
d="M926 315q64 -17 117 -61.5t67 -108.5q-146 -165 -428 -165q-178 0 -303.5 114.5t-175.5 317.5h-203q9 39 16 63t21 54t31 47t44 30t62 15v51v51h-174q9 40 16.5 65.5t22 55.5t32.5 47t47.5 29t67.5 12h17q52 203 176.5 316.5t302.5 113.5q281 0 428 -166
q-14 -64 -67 -108.5t-117 -61.5q-46 58 -104 86.5t-140 28.5q-166 0 -229 -209h374q-7 -91 -46 -150t-117 -59h-242v-51v-51h323q-7 -91 -46 -150t-117 -59h-129q63 -211 229 -211q82 0 140 28t104 86z" />
    <glyph glyph-name="uni20BD" unicode="&#x20bd;" 
d="M567 500h-121v-156h361q0 -87 -42 -148t-122 -61h-197v-135h-266v135h-160q0 90 37 149.5t109 59.5h14v156h-157q0 108 38.5 164.5t106.5 56.5h12v600q219 41 377 41q134 0 239.5 -39.5t167.5 -103.5t94 -138.5t32 -152.5q0 -117 -70.5 -215.5t-191 -155.5t-261.5 -57z
M446 1141v-420h101q134 0 207 56.5t73 150.5q0 217 -290 217q-33 0 -91 -4z" />
    <glyph glyph-name="trademark" unicode="&#x2122;" horiz-adv-x="1439" 
d="M1155 1348q116 18 234 0v-674h-175v231l11 176l-129 -370q-50 -9 -79 -9t-81 9l-127 368l10 -174v-231h-174v674q114 18 232 0l139 -406zM31 1204q0 97 12 144h524q0 -76 -12 -144h-168v-530h-174v530h-182z" />
    <glyph glyph-name="oneeighth" unicode="&#x215b;" horiz-adv-x="1935" 
d="M1405 1440q51 0 90 -31l-833 -1456q-25 -45 -80 -45q-57 0 -101 31l834 1452q27 49 90 49zM664 467h-553q-24 94 0 188h178v404q-142 -25 -160 -23q-62 80 -57 164q151 83 358 156q14 0 49 -27.5t39 -36.5v-637h146q25 -99 0 -188zM1718 479q84 -47 120 -98t36 -129
q0 -119 -101 -191.5t-243 -72.5q-144 0 -243 68.5t-99 187.5q0 70 43.5 128t109.5 89q-57 42 -83.5 87.5t-26.5 104.5q0 102 86.5 169t212.5 67q132 0 216 -57.5t83 -157.5q0 -122 -111 -195zM1534 715q-46 0 -68 -19t-22 -43q0 -27 25.5 -46t93.5 -50q65 30 65 76
q0 40 -25 61t-69 21zM1530 160q47 0 75.5 19.5t28.5 56.5q0 32 -29.5 62t-109.5 71q-31 -21 -53.5 -52t-22.5 -61q0 -48 32 -72t79 -24z" />
    <glyph glyph-name="threeeighths" unicode="&#x215c;" horiz-adv-x="1935" 
d="M1405 1440q51 0 90 -31l-833 -1456q-25 -45 -80 -45q-57 0 -101 31l834 1452q27 49 90 49zM731 729q0 -117 -89 -195.5t-245 -78.5q-182 0 -286 80q-15 45 -15 94q0 84 27 139q40 -49 113 -85t141 -36q56 0 91.5 21.5t35.5 60.5q0 92 -164 92h-113q0 142 39 189h56
q90 0 130 17t40 56q0 36 -34 57t-91 21q-120 0 -242 -88q-16 59 -16 105q0 48 14 92q125 86 285 86q131 0 212.5 -62.5t81.5 -173.5q0 -141 -94 -202q57 -25 90 -74t33 -115zM1718 479q84 -47 120 -98t36 -129q0 -119 -101 -191.5t-243 -72.5q-144 0 -243 68.5t-99 187.5
q0 70 43.5 128t109.5 89q-57 42 -83.5 87.5t-26.5 104.5q0 102 86.5 169t212.5 67q132 0 216 -57.5t83 -157.5q0 -122 -111 -195zM1534 715q-46 0 -68 -19t-22 -43q0 -27 25.5 -46t93.5 -50q65 30 65 76q0 40 -25 61t-69 21zM1530 160q47 0 75.5 19.5t28.5 56.5
q0 32 -29.5 62t-109.5 71q-31 -21 -53.5 -52t-22.5 -61q0 -48 32 -72t79 -24z" />
    <glyph glyph-name="fiveeighths" unicode="&#x215d;" horiz-adv-x="1935" 
d="M1405 1440q51 0 90 -31l-833 -1456q-25 -45 -80 -45q-57 0 -101 31l834 1452q27 49 90 49zM713 776q0 -156 -94.5 -238.5t-272.5 -82.5q-55 0 -124 11.5t-118 35.5q-16 44 -16 100q0 58 37 98q117 -57 229 -57q67 0 100 29.5t33 72.5q0 50 -40 84t-136 48l-69 10
q-36 17 -79.5 59.5t-43.5 75.5l84 319h504q-3 -53 -17 -93.5t-49 -94.5h-260l-27 -90l111 -25q115 -26 181.5 -92t66.5 -170zM1718 479q84 -47 120 -98t36 -129q0 -119 -101 -191.5t-243 -72.5q-144 0 -243 68.5t-99 187.5q0 70 43.5 128t109.5 89q-57 42 -83.5 87.5
t-26.5 104.5q0 102 86.5 169t212.5 67q132 0 216 -57.5t83 -157.5q0 -122 -111 -195zM1534 715q-46 0 -68 -19t-22 -43q0 -27 25.5 -46t93.5 -50q65 30 65 76q0 40 -25 61t-69 21zM1530 160q47 0 75.5 19.5t28.5 56.5q0 32 -29.5 62t-109.5 71q-31 -21 -53.5 -52t-22.5 -61
q0 -48 32 -72t79 -24z" />
    <glyph glyph-name="seveneighths" unicode="&#x215e;" horiz-adv-x="1900" 
d="M1370 1440q51 0 90 -31l-833 -1456q-25 -45 -80 -45q-57 0 -101 31l834 1452q27 49 90 49zM754 1341q24 -30 42.5 -85t18.5 -95l-416 -694q-113 -22 -233 0q0 19 161.5 274t268.5 412h-453q-25 91 0 188h611zM1683 479q84 -47 120 -98t36 -129q0 -119 -101 -191.5
t-243 -72.5q-144 0 -243 68.5t-99 187.5q0 70 44 128t110 89q-57 42 -84 87.5t-27 104.5q0 102 86.5 169t212.5 67q132 0 216 -57.5t83 -157.5q0 -122 -111 -195zM1499 715q-46 0 -68 -19t-22 -43q0 -27 25.5 -46t93.5 -50q65 30 65 76q0 40 -25 61t-69 21zM1495 160
q47 0 75.5 19.5t28.5 56.5q0 32 -29.5 62t-109.5 71q-31 -21 -53.5 -52t-22.5 -61q0 -48 32 -72t79 -24z" />
    <glyph glyph-name="arrowleft" unicode="&#x2190;" horiz-adv-x="1144" 
d="M1083 510l-536 2l-129 12l125 -73q75 -45 80.5 -95.5t-60.5 -167.5l-418 291q-51 35 -67.5 65.5t-16.5 78.5q0 46 16.5 76t67.5 65l418 291q65 -114 61 -165t-81 -97l-125 -74l129 12h536q30 -111 0 -221z" />
    <glyph glyph-name="arrowup" unicode="&#x2191;" horiz-adv-x="989" 
d="M637 1057l291 -418q-117 -66 -167 -60.5t-95 80.5l-74 125l12 -129l2 -536q-110 -30 -221 0v536l12 129l-73 -125q-46 -77 -97.5 -81.5t-165.5 61.5l291 418q35 50 65.5 67t76.5 17q48 0 78 -16.5t65 -67.5z" />
    <glyph glyph-name="arrowright" unicode="&#x2192;" horiz-adv-x="1144" 
d="M999 764q51 -35 67.5 -65t16.5 -76q0 -48 -16.5 -78.5t-67.5 -65.5l-417 -291q-66 117 -60.5 167.5t80.5 95.5l125 73l-129 -12l-537 -2q-30 110 0 221h537l129 -12l-125 74q-77 46 -81 97t61 165z" />
    <glyph glyph-name="arrowdown" unicode="&#x2193;" horiz-adv-x="974" 
d="M666 584q45 75 95 80.5t167 -60.5l-291 -418q-35 -51 -65 -67.5t-78 -16.5q-46 0 -76.5 17t-65.5 67l-291 418q114 66 165.5 61.5t97.5 -81.5l73 -125l-12 129v536q111 30 221 0l-2 -536l-12 -129z" />
    <glyph glyph-name="arrowboth" unicode="&#x2194;" horiz-adv-x="1542" 
d="M1397 776q51 -35 67.5 -65t16.5 -78q0 -46 -16.5 -76t-67.5 -65l-418 -291q-65 114 -61 165t81 97l111 65l-115 -12h-331v2h-117l-146 14l142 -83q75 -45 80.5 -95.5t-60.5 -167.5l-418 291q-51 35 -67.5 65.5t-16.5 78.5q0 46 16.5 76t67.5 65l418 291q65 -114 61 -165
t-81 -97l-111 -66l115 12h332v-2h116l146 -14l-142 84q-75 45 -80.5 95t60.5 167z" />
    <glyph glyph-name="arrowupdn" unicode="&#x2195;" horiz-adv-x="1003" 
d="M680 438q31 52 61 69.5t76.5 7t124.5 -55.5l-291 -418q-35 -51 -65 -67.5t-78 -16.5q-46 0 -76 16.5t-65 67.5l-291 418q114 65 165 60.5t97 -81.5l65 -110l-12 114v332h2v117l15 145l-84 -141q-31 -51 -61 -69t-77.5 -7.5t-124.5 55.5l291 418q35 51 65.5 67.5
t78.5 16.5q46 0 76 -16.5t65 -67.5l291 -418q-114 -65 -165 -60.5t-97 81.5l-66 111l12 -115v-332h-2v-117l-14 -145z" />
    <glyph glyph-name="uni2196" unicode="&#x2196;" horiz-adv-x="954" 
d="M514 723l379 -379q-53 -97 -156 -158l-379 381l-79 99l34 -140q21 -85 -12 -125t-160 -73l-90 501q-10 61 -0.5 93.5t43.5 66.5q32 33 64 42t96 -1l500 -90q-34 -127 -73 -160t-126 -10l-141 35z" />
    <glyph glyph-name="uni2197" unicode="&#x2197;" horiz-adv-x="954" 
d="M860 989q34 -34 43.5 -66.5t-0.5 -93.5l-90 -501q-127 33 -160 73t-12 125l35 140l-80 -99l-379 -381q-103 61 -156 158l379 379l101 82l-142 -35q-87 -23 -125.5 10t-72.5 160l499 90q64 10 96 1t64 -42z" />
    <glyph glyph-name="uni2198" unicode="&#x2198;" horiz-adv-x="954" 
d="M903 399q10 -61 0.5 -93t-43.5 -66q-32 -33 -64 -42t-96 1l-499 90q34 127 72.5 160t125.5 10l142 -35l-101 82l-379 379q52 96 156 157l379 -380l80 -99l-35 139q-21 85 12.5 125.5t159.5 73.5z" />
    <glyph glyph-name="uni2199" unicode="&#x2199;" horiz-adv-x="954" 
d="M555 459q87 23 126 -10t73 -160l-500 -90q-64 -10 -96 -1t-64 42q-34 34 -43.5 66t0.5 93l90 502q126 -33 159.5 -73.5t12.5 -125.5l-34 -139l79 99l379 380q104 -61 156 -157l-379 -379l-100 -82z" />
    <glyph glyph-name="minus" unicode="&#x2212;" 
d="M61 518q0 130 31 175.5t131 45.5h842q0 -130 -31 -175.5t-131 -45.5h-842z" />
    <glyph glyph-name="approxequal" unicode="&#x2248;" 
d="M326 711q-86 0 -185 22q0 123 66 204t166 81q53 0 119.5 -24t124.5 -48t90 -24q96 0 96 112q87 -3 184 -22q0 -125 -65.5 -205t-167.5 -80q-52 0 -118 24t-124 48t-90 24q-51 0 -73.5 -32t-22.5 -80zM326 256q-82 0 -185 23q0 123 66 203.5t166 80.5q53 0 119.5 -24
t124.5 -48t90 -24q96 0 96 113q81 -3 184 -23q0 -125 -65.5 -205t-167.5 -80q-52 0 -119.5 24t-126 48.5t-90.5 24.5q-48 0 -70 -32.5t-22 -80.5z" />
    <glyph glyph-name="notequal" unicode="&#x2260;" 
d="M725 723l-78 -188h406q0 -130 -31 -176t-131 -46h-336l-113 -270q-62 26 -96 47t-53 48t-16.5 60t22.5 81l14 34h-239q0 130 31 176t131 46h170l77 188h-409q0 130 31 175.5t131 45.5h339l113 273q62 -26 96 -47t52.5 -48t16 -60t-21.5 -81l-14 -37h236
q0 -130 -31 -175.5t-131 -45.5h-166z" />
    <glyph glyph-name="lessequal" unicode="&#x2264;" 
d="M145 559q-56 21 -75 58t-19 94t18.5 93.5t75.5 57.5l791 297q34 -58 49.5 -98t16 -75t-23.5 -58.5t-73 -40.5l-514 -176l514 -176q49 -17 73 -40.5t23.5 -59t-16 -75.5t-49.5 -98zM842 166q100 0 131 -45.5t31 -175.5h-789q-100 0 -131 45.5t-31 175.5h789z" />
    <glyph glyph-name="greaterequal" unicode="&#x2265;" 
d="M190 262q-34 58 -49.5 98t-16 75.5t23.5 59t73 40.5l514 176l-514 176q-49 17 -73 40.5t-23.5 58.5t16 75t49.5 98l791 -297q57 -21 75.5 -57.5t18.5 -93.5t-19 -94t-75 -58zM123 -55q0 130 31 175.5t131 45.5h788q0 -130 -31 -175.5t-131 -45.5h-788z" />
    <glyph glyph-name="lozenge" unicode="&#x25ca;" 
d="M696 1341l389 -665l-389 -666q-133 -30 -266 0l-389 666l389 665q133 30 266 0zM563 236l256 440l-256 440l-256 -440z" />
    <glyph glyph-name="i.loclTRK" horiz-adv-x="569" 
d="M434 1335q0 -58 -44.5 -100.5t-106.5 -42.5t-105 41.5t-43 101.5t43.5 103t104.5 43q62 0 106.5 -42.5t44.5 -103.5zM154 0v1016q57 25 132 25t130 -25v-1016h-262z" />
    <glyph glyph-name="a.sc" horiz-adv-x="1122" 
d="M823 0l-61 190h-400l-63 -190h-276l391 1079q168 28 297 0l389 -1079h-277zM430 397h264l-131 406z" />
    <glyph glyph-name="aacute.sc" horiz-adv-x="1122" 
d="M696 1239l-92 -80l-112 60l159 272l43 -21q96 -46 92 -98q-6 -60 -90 -133zM823 0l-61 190h-400l-63 -190h-276l391 1079q168 28 297 0l389 -1079h-277zM430 397h264l-131 406z" />
    <glyph glyph-name="abreve.sc" horiz-adv-x="1122" 
d="M569 1163q-80 0 -142 25t-98 66t-54 87t-19 93q106 26 209 0q2 -33 27.5 -68t76.5 -35q36 0 60 19.5t32 40.5t9 43q107 26 211 0q-1 -46 -19 -91.5t-53.5 -87t-97.5 -67t-142 -25.5zM823 0l-61 190h-400l-63 -190h-276l391 1079q168 28 297 0l389 -1079h-277zM430 397
h264l-131 406z" />
    <glyph glyph-name="acircumflex.sc" horiz-adv-x="1122" 
d="M569 1280l-96 -127q-102 0 -176 70l176 202q98 28 189 0l176 -202q-70 -70 -174 -70zM823 0l-61 190h-400l-63 -190h-276l391 1079q168 28 297 0l389 -1079h-277zM430 397h264l-131 406z" />
    <glyph glyph-name="adieresis.sc" horiz-adv-x="1122" 
d="M395 1174q-60 0 -101.5 39t-41.5 96t41.5 97t101.5 40q59 0 100.5 -39.5t41.5 -97.5q0 -56 -42 -95.5t-100 -39.5zM741 1174q-60 0 -100.5 39.5t-40.5 95.5t41 96.5t100 40.5t101.5 -39.5t42.5 -97.5q0 -55 -42.5 -95t-101.5 -40zM823 0l-61 190h-400l-63 -190h-276
l391 1079q168 28 297 0l389 -1079h-277zM430 397h264l-131 406z" />
    <glyph glyph-name="agrave.sc" horiz-adv-x="1122" 
d="M377 1300q-35 35 -37 60q-4 53 90 106l43 25l166 -272l-115 -62zM823 0l-61 190h-400l-63 -190h-276l391 1079q168 28 297 0l389 -1079h-277zM430 397h264l-131 406z" />
    <glyph glyph-name="amacron.sc" horiz-adv-x="1122" 
d="M803 1411v-197h-469v197h469zM823 0l-61 190h-400l-63 -190h-276l391 1079q168 28 297 0l389 -1079h-277zM430 397h264l-131 406z" />
    <glyph glyph-name="aogonek.sc" horiz-adv-x="1124" 
d="M1135 -195q29 -81 20 -145q-23 -16 -117 -16q-97 0 -150.5 40.5t-53.5 114.5q0 124 118 201h-129l-61 190h-400l-63 -190h-276l391 1079q168 28 297 0l389 -1079h-2q-109 -77 -109 -150q0 -20 20 -38.5t56 -18.5q35 0 70 12zM430 397h264l-131 406z" />
    <glyph glyph-name="aring.sc" horiz-adv-x="1122" 
d="M569 1147q-113 0 -181.5 55t-68.5 148q0 92 68.5 147t181.5 55q114 0 181 -55t67 -147q0 -93 -67.5 -148t-180.5 -55zM569 1438q-75 0 -75 -88q0 -90 75 -90q72 0 72 90q0 88 -72 88zM823 0l-61 190h-400l-63 -190h-276l391 1079q168 28 297 0l389 -1079h-277zM430 397
h264l-131 406z" />
    <glyph glyph-name="atilde.sc" horiz-adv-x="1122" 
d="M485 1251q-25 0 -41 -24.5t-16 -52.5q-66 0 -149 18q0 103 49.5 163t132.5 60q44 0 102.5 -28.5t95.5 -28.5q19 0 32.5 24t13.5 45q69 0 149 -18q0 -103 -45 -163t-121 -60q-45 0 -112.5 32.5t-90.5 32.5zM823 0l-61 190h-400l-63 -190h-276l391 1079q168 28 297 0
l389 -1079h-277zM430 397h264l-131 406z" />
    <glyph glyph-name="ae.sc" horiz-adv-x="1558" 
d="M1010 207h454v-207h-680l-26 170h-387l-82 -170h-266l530 1075h831v-207h-477l33 -215h408q0 -129 -39 -209h-336zM469 377h258l-61 405z" />
    <glyph glyph-name="b.sc" horiz-adv-x="1021" 
d="M762 598q215 -58 215 -279q0 -91 -57 -164.5t-153.5 -114t-211.5 -40.5h-412v1057q224 35 365 35q183 0 295 -79t112 -204q0 -150 -153 -211zM512 881q-48 0 -113 -7v-215h115q75 0 112.5 31t37.5 86q0 49 -38 77t-114 28zM508 211q197 0 197 125q0 117 -191 117h-115
v-242h109z" />
    <glyph glyph-name="c.sc" horiz-adv-x="1150" 
d="M1081 172q-73 -90 -181.5 -139t-242.5 -49q-260 0 -415.5 152.5t-155.5 400.5q0 252 155 403.5t416 151.5q281 0 426 -189q-14 -60 -65.5 -102.5t-112.5 -57.5q-73 138 -248 138q-152 0 -232.5 -88.5t-80.5 -255.5q0 -164 81 -253t232 -89q161 0 301 143z" />
    <glyph glyph-name="cacute.sc" horiz-adv-x="1150" 
d="M645 1161l-113 60l160 272l43 -20q96 -46 92 -99q-6 -56 -92 -133zM1081 172q-73 -90 -181.5 -139t-242.5 -49q-260 0 -415.5 152.5t-155.5 400.5q0 252 155 403.5t416 151.5q281 0 426 -189q-14 -60 -65.5 -102.5t-112.5 -57.5q-73 138 -248 138q-152 0 -232.5 -88.5
t-80.5 -255.5q0 -164 81 -253t232 -89q161 0 301 143z" />
    <glyph glyph-name="ccaron.sc" horiz-adv-x="1150" 
d="M702 1188q-94 -30 -188 0l-176 201q69 69 174 69l96 -125l94 125q108 0 177 -69zM657 195q161 0 301 143l123 -166q-73 -90 -181.5 -139t-242.5 -49q-260 0 -415.5 152.5t-155.5 400.5q0 252 155 403.5t416 151.5q281 0 426 -189q-14 -60 -65.5 -102.5t-112.5 -57.5
q-73 138 -248 138q-152 0 -232.5 -88.5t-80.5 -255.5q0 -164 81 -253t232 -89z" />
    <glyph glyph-name="ccedilla.sc" horiz-adv-x="1150" 
d="M657 195q161 0 301 143l123 -166q-143 -176 -391 -188l-53 -80h16q69 0 112.5 -35.5t43.5 -93.5q0 -79 -66.5 -118.5t-160.5 -39.5q-56 0 -131 10q0 79 20 115q77 -18 113 -18q92 0 92 40q0 20 -21.5 29.5t-76.5 9.5q-29 0 -54 -2q-33 20 -45 64l82 125q-219 28 -347 176
t-128 371q0 252 155 403.5t416 151.5q281 0 426 -189q-14 -60 -65.5 -102.5t-112.5 -57.5q-73 138 -248 138q-152 0 -232.5 -88.5t-80.5 -255.5q0 -164 81 -253t232 -89z" />
    <glyph glyph-name="cdotaccent.sc" horiz-adv-x="1150" 
d="M748 1327q0 -53 -41.5 -91t-98.5 -38t-96 37.5t-39 91.5t39 92.5t96 38.5q58 0 99 -38t41 -93zM1081 172q-73 -90 -181.5 -139t-242.5 -49q-260 0 -415.5 152.5t-155.5 400.5q0 252 155 403.5t416 151.5q281 0 426 -189q-14 -60 -65.5 -102.5t-112.5 -57.5
q-73 138 -248 138q-152 0 -232.5 -88.5t-80.5 -255.5q0 -164 81 -253t232 -89q161 0 301 143z" />
    <glyph glyph-name="d.sc" horiz-adv-x="1236" 
d="M528 1092q295 0 459 -145.5t164 -393.5q0 -257 -164.5 -404t-445.5 -149h-398v1059q229 33 385 33zM541 211q172 0 265 87t93 255q0 155 -93 238t-265 83q-64 0 -142 -4v-659h142z" />
    <glyph glyph-name="eth.sc" horiz-adv-x="1236" 
d="M528 1092q293 0 458 -145t165 -394q0 -258 -165 -404.5t-447 -148.5h-396v430h-120q8 39 15.5 64t21 54t34 47.5t49.5 27.5v436q226 33 385 33zM539 211q174 0 267 86.5t93 255.5q0 155 -93 238t-265 83q-99 0 -142 -4v-239h310q-7 -85 -45.5 -143t-112.5 -58h-152v-219
h140z" />
    <glyph glyph-name="dcaron.sc" horiz-adv-x="1236" 
d="M682 1188q-97 -31 -188 0l-177 201q73 69 177 69l96 -127l94 127q105 0 174 -69zM528 1092q295 0 459 -145.5t164 -393.5q0 -257 -164.5 -404t-445.5 -149h-398v1059q229 33 385 33zM541 211q172 0 265 87t93 255q0 155 -93 238t-265 83q-64 0 -142 -4v-659h142z" />
    <glyph glyph-name="dcroat.sc" horiz-adv-x="1236" 
d="M528 1092q293 0 458 -145t165 -394q0 -258 -165 -404.5t-447 -148.5h-396v430h-120q8 39 15.5 64t21 54t34 47.5t49.5 27.5v436q226 33 385 33zM539 211q174 0 267 86.5t93 255.5q0 155 -93 238t-265 83q-99 0 -142 -4v-239h310q-7 -85 -45.5 -143t-112.5 -58h-152v-219
h140z" />
    <glyph glyph-name="e.sc" horiz-adv-x="1017" 
d="M924 864h-525v-209h439q0 -131 -39 -213h-400v-231h525v-211h-781v1075h781v-211z" />
    <glyph glyph-name="eacute.sc" horiz-adv-x="1017" 
d="M668 1241l-90 -80l-115 60l162 272l43 -20q54 -26 73 -49.5t17 -51.5q-6 -56 -90 -131zM924 864h-525v-209h439q0 -131 -39 -213h-400v-231h525v-211h-781v1075h781v-211z" />
    <glyph glyph-name="ecaron.sc" horiz-adv-x="1017" 
d="M635 1188q-99 -31 -191 0l-176 201q73 69 176 69l97 -127l94 127q103 0 176 -69zM924 864h-525v-209h439q0 -131 -39 -213h-400v-231h525v-211h-781v1075h781v-211z" />
    <glyph glyph-name="ecircumflex.sc" horiz-adv-x="1017" 
d="M541 1280l-97 -127q-100 0 -176 72l176 200q93 30 191 0l176 -200q-76 -72 -176 -72zM924 864h-525v-209h439q0 -131 -39 -213h-400v-231h525v-211h-781v1075h781v-211z" />
    <glyph glyph-name="edieresis.sc" horiz-adv-x="1017" 
d="M367 1176q-60 0 -101 39t-41 96q0 56 41.5 96.5t100.5 40.5t101 -39.5t42 -97.5q0 -55 -42 -95t-101 -40zM713 1176q-59 0 -100.5 39t-41.5 96q0 56 41.5 96.5t100.5 40.5q60 0 101.5 -40t41.5 -97q0 -55 -42 -95t-101 -40zM924 864h-525v-209h439q0 -131 -39 -213h-400
v-231h525v-211h-781v1075h781v-211z" />
    <glyph glyph-name="edotaccent.sc" horiz-adv-x="1017" 
d="M541 1198q-57 0 -96 37.5t-39 91.5t39 92.5t96 38.5t98 -38t41 -93q0 -53 -41 -91t-98 -38zM924 864h-525v-209h439q0 -131 -39 -213h-400v-231h525v-211h-781v1075h781v-211z" />
    <glyph glyph-name="egrave.sc" horiz-adv-x="1017" 
d="M348 1303q-35 35 -37 57q-4 56 90 108l45 25l164 -272l-112 -62zM924 864h-525v-209h439q0 -131 -39 -213h-400v-231h525v-211h-781v1075h781v-211z" />
    <glyph glyph-name="emacron.sc" horiz-adv-x="1017" 
d="M774 1413v-196h-467v196h467zM924 864h-525v-209h439q0 -131 -39 -213h-400v-231h525v-211h-781v1075h781v-211z" />
    <glyph glyph-name="eogonek.sc" horiz-adv-x="1017" 
d="M961 -195q28 -89 20 -145q-21 -16 -117 -16t-150.5 41t-54.5 114q0 122 119 201h-635v1075h781v-211h-525v-209h439q0 -131 -39 -213h-400v-231h525v-211q-109 -77 -109 -150q0 -21 21 -39t55 -18q40 0 70 12z" />
    <glyph glyph-name="f.sc" horiz-adv-x="962" 
d="M924 864h-525v-209h439q0 -131 -39 -213h-400v-442h-256v1075h781v-211z" />
    <glyph glyph-name="g.sc" horiz-adv-x="1202" 
d="M860 469q49 49 120.5 60.5t135.5 -13.5v-346q-79 -90 -196.5 -139t-262.5 -49q-260 0 -415.5 152.5t-155.5 400.5q0 251 154.5 401.5t416.5 150.5q143 0 257.5 -48t187.5 -140q-78 -134 -178 -162q-80 144 -267 144q-152 0 -232.5 -89t-80.5 -257q0 -163 80.5 -251.5
t232.5 -88.5q112 0 203 49v225z" />
    <glyph glyph-name="gbreve.sc" horiz-adv-x="1202" 
d="M610 1165q-80 0 -142.5 25.5t-98 66.5t-53.5 86.5t-19 92.5q111 25 209 0q2 -34 28 -68.5t76 -34.5q37 0 61 20t31.5 41t8.5 42q112 25 211 0q-1 -46 -19 -91.5t-53.5 -87t-97.5 -67t-142 -25.5zM860 469q49 49 120.5 60.5t135.5 -13.5v-346q-79 -90 -196.5 -139
t-262.5 -49q-260 0 -415.5 152.5t-155.5 400.5q0 251 154.5 401.5t416.5 150.5q143 0 257.5 -48t187.5 -140q-78 -134 -178 -162q-80 144 -267 144q-152 0 -232.5 -89t-80.5 -257q0 -163 80.5 -251.5t232.5 -88.5q112 0 203 49v225z" />
    <glyph glyph-name="uni0123.sc" horiz-adv-x="1202" 
d="M860 469q49 49 120.5 60.5t135.5 -13.5v-346q-79 -90 -196.5 -139t-262.5 -49q-260 0 -415.5 152.5t-155.5 400.5q0 251 154.5 401.5t416.5 150.5q143 0 257.5 -48t187.5 -140q-78 -134 -178 -162q-80 144 -267 144q-152 0 -232.5 -89t-80.5 -257q0 -163 80.5 -251.5
t232.5 -88.5q112 0 203 49v225zM668 -39q55 0 95 -35.5t40 -87.5q0 -86 -54.5 -162.5t-130.5 -130.5q-55 6 -88 64q54 51 86 102q-37 14 -60.5 47t-23.5 72q0 55 40 93t96 38z" />
    <glyph glyph-name="gdotaccent.sc" horiz-adv-x="1202" 
d="M610 1198q-57 0 -97 37.5t-40 91.5t40 92.5t97 38.5q56 0 98 -38t42 -93q0 -52 -42 -90.5t-98 -38.5zM860 469q49 49 120.5 60.5t135.5 -13.5v-346q-79 -90 -196.5 -139t-262.5 -49q-260 0 -415.5 152.5t-155.5 400.5q0 251 154.5 401.5t416.5 150.5q143 0 257.5 -48
t187.5 -140q-78 -134 -178 -162q-80 144 -267 144q-152 0 -232.5 -89t-80.5 -257q0 -163 80.5 -251.5t232.5 -88.5q112 0 203 49v225z" />
    <glyph glyph-name="h.sc" horiz-adv-x="1228" 
d="M829 1075q128 27 256 0v-1075h-256v440h-430v-440h-256v1075q130 27 256 0v-422h430v422z" />
    <glyph glyph-name="i.sc" horiz-adv-x="542" 
d="M399 0h-256v1075q130 27 256 0v-1075z" />
    <glyph glyph-name="iacute.sc" horiz-adv-x="542" 
d="M307 1159l-112 60l159 272l43 -21q96 -46 92 -98q-6 -60 -90 -133zM399 0h-256v1075q130 27 256 0v-1075z" />
    <glyph glyph-name="icircumflex.sc" horiz-adv-x="542" 
d="M270 1280l-94 -127q-102 0 -176 70l176 202q98 28 189 0l176 -202q-70 -70 -174 -70zM143 1075q128 27 256 0v-1075h-256v1075z" />
    <glyph glyph-name="idieresis.sc" horiz-adv-x="540" 
d="M96 1174q-59 0 -100 39t-41 96t41 97t100 40t101.5 -39.5t42.5 -97.5q0 -55 -42.5 -95t-101.5 -40zM442 1174q-59 0 -100 39t-41 96t41 97t100 40q60 0 102 -39.5t42 -97.5q0 -56 -42 -95.5t-102 -39.5zM399 0h-256v1075q131 28 256 0v-1075z" />
    <glyph glyph-name="i.sc.loclTRK" horiz-adv-x="542" 
d="M410 1325q0 -53 -41.5 -91t-98.5 -38t-96 37.5t-39 91.5t39 92.5t96 38.5q58 0 99 -38t41 -93zM399 0h-256v1075q131 28 256 0v-1075z" />
    <glyph glyph-name="igrave.sc" horiz-adv-x="542" 
d="M227 1157l-147 143q-35 35 -37 60q-4 53 90 106l43 25l166 -272zM399 0h-256v1075q128 27 256 0v-1075z" />
    <glyph glyph-name="ij.sc" horiz-adv-x="1251" 
d="M399 0h-256v1075q130 27 256 0v-1075zM852 1073q130 27 256 0v-764q0 -182 -101 -298.5t-257 -116.5q-131 0 -240 53q7 144 100 205q82 -31 133 -31q54 0 81.5 40t27.5 111v801z" />
    <glyph glyph-name="imacron.sc" horiz-adv-x="540" 
d="M37 1411h467v-197h-467v197zM399 0h-256v1075q131 28 256 0v-1075z" />
    <glyph glyph-name="iogonek.sc" horiz-adv-x="542" 
d="M434 -195q10 -32 14 -46.5t8.5 -46.5t-1.5 -52q-23 -16 -117 -16q-97 0 -151 41t-54 114q0 123 119 201h-109v1075q128 27 256 0v-1075h-2q-108 -76 -108 -150q0 -20 20 -38.5t56 -18.5q35 0 69 12z" />
    <glyph glyph-name="j.sc" horiz-adv-x="731" 
d="M332 1073q130 28 256 0v-764q0 -182 -101.5 -298.5t-257.5 -116.5q-132 0 -241 53q11 147 100 205q81 -31 133 -31q55 0 83 40.5t28 110.5v801z" />
    <glyph glyph-name="k.sc" horiz-adv-x="1212" 
d="M1180 0h-351l-430 489v-489h-256v1075q133 28 256 0v-467l396 467q160 26 313 0l-436 -506z" />
    <glyph glyph-name="uni0137.sc" horiz-adv-x="1212" 
d="M672 569l508 -569h-351l-430 489v-489h-256v1075q133 28 256 0v-467l396 467q160 26 313 0zM627 -39q55 0 95 -35.5t40 -87.5q0 -86 -54 -162.5t-130 -130.5q-56 6 -91 64q49 42 86 102q-36 15 -58.5 47.5t-22.5 71.5q0 55 39.5 93t95.5 38z" />
    <glyph glyph-name="l.sc" horiz-adv-x="923" 
d="M399 211h486v-211h-742v1075q130 27 256 0v-864z" />
    <glyph glyph-name="lacute.sc" horiz-adv-x="923" 
d="M399 1241l-92 -80l-112 60l159 272l45 -20q95 -43 90 -99q-6 -60 -90 -133zM399 211h486v-211h-742v1075q130 27 256 0v-864z" />
    <glyph glyph-name="lcaron.sc" horiz-adv-x="923" 
d="M365 1188q-98 -31 -189 0l-176 201q73 69 176 69l94 -125l97 125q105 0 174 -69zM399 211h486v-211h-742v1075q128 27 256 0v-864z" />
    <glyph glyph-name="uni013C.sc" horiz-adv-x="923" 
d="M399 211h486v-211h-742v1075q130 27 256 0v-864zM526 -39q55 0 95.5 -35.5t40.5 -87.5q0 -84 -54.5 -161.5t-130.5 -131.5q-55 6 -90 64q49 42 86 102q-36 15 -59 47.5t-23 71.5q0 55 39.5 93t95.5 38z" />
    <glyph glyph-name="lslash.sc" horiz-adv-x="927" 
d="M399 211h486v-211h-742v338l-75 -35q-21 61 -21 103q0 45 20 81t58 54l18 8v526q130 27 256 0v-405l254 118q15 -69 15 -98q0 -102 -93 -147l-176 -84v-248z" />
    <glyph glyph-name="m.sc" horiz-adv-x="1507" 
d="M1020 1075q78 13 173 13t171 -13v-1075h-256v395l16 307l-252 -636q-90 -16 -123 -15.5t-112 15.5l-254 645l16 -316v-395h-256v1075q78 13 174 13t170 -13l267 -686z" />
    <glyph glyph-name="n.sc" horiz-adv-x="1298" 
d="M899 1075h256v-1075q-124 -28 -256 0l-512 662l12 -201v-461h-256v1075q133 28 256 0l510 -684l-10 107v577z" />
    <glyph glyph-name="nacute.sc" horiz-adv-x="1298" 
d="M784 1241l-90 -80l-112 60l159 272l43 -20q97 -46 93 -99q-5 -55 -93 -133zM899 1075h256v-1075q-124 -28 -256 0l-512 662l12 -201v-461h-256v1075q133 28 256 0l510 -684l-10 107v577z" />
    <glyph glyph-name="ncaron.sc" horiz-adv-x="1298" 
d="M752 1188q-94 -30 -189 0l-176 201q69 69 174 69l96 -125l95 125q107 0 176 -69zM899 1075h256v-1075q-124 -28 -256 0l-512 662l12 -201v-461h-256v1075q133 28 256 0l510 -684l-10 107v577z" />
    <glyph glyph-name="uni0146.sc" horiz-adv-x="1298" 
d="M899 1075h256v-1075q-124 -28 -256 0l-512 662l12 -201v-461h-256v1075q133 28 256 0l510 -684l-10 107v577zM659 -39q55 0 95.5 -35.5t40.5 -87.5q0 -86 -54.5 -162t-130.5 -131q-55 3 -90 64q58 51 86 102q-36 15 -59 47.5t-23 71.5q0 55 39.5 93t95.5 38z" />
    <glyph glyph-name="eng.sc" horiz-adv-x="1273" 
d="M1155 35q2 -81 -7.5 -135.5t-38 -100.5t-81 -72.5t-135.5 -40.5t-203 -14q15 142 78 211q42 0 63 3t38 15t22.5 34.5t7.5 64.5l-512 662l12 -201v-461h-256v1075q133 28 256 0l510 -684l-10 107v577h256v-1040z" />
    <glyph glyph-name="ntilde.sc" horiz-adv-x="1298" 
d="M575 1253q-25 0 -42 -24.5t-17 -54.5q-65 2 -147 18q0 105 49 165t131 60q45 0 105 -29.5t96 -29.5q17 0 30 24.5t13 47.5q67 0 151 -19q0 -104 -45.5 -163.5t-122.5 -59.5q-45 0 -111.5 32.5t-89.5 32.5zM899 1075h256v-1075q-124 -28 -256 0l-512 662l12 -201v-461
h-256v1075q133 28 256 0l510 -684l-10 107v577z" />
    <glyph glyph-name="o.sc" horiz-adv-x="1267" 
d="M633 -16q-249 0 -398 151.5t-149 403.5t149 402.5t398 150.5q250 0 399.5 -150.5t149.5 -402.5t-149.5 -403.5t-399.5 -151.5zM633 195q137 0 213 90.5t76 253.5q0 162 -76 252t-213 90q-135 0 -211 -90t-76 -252q0 -163 76 -253.5t211 -90.5z" />
    <glyph glyph-name="oacute.sc" horiz-adv-x="1267" 
d="M670 1161l-113 60l160 272l45 -20q95 -43 90 -99q-6 -60 -90 -133zM633 -16q-249 0 -398 151.5t-149 403.5t149 402.5t398 150.5q250 0 399.5 -150.5t149.5 -402.5t-149.5 -403.5t-399.5 -151.5zM633 195q137 0 213 90.5t76 253.5q0 162 -76 252t-213 90q-135 0 -211 -90
t-76 -252q0 -163 76 -253.5t211 -90.5z" />
    <glyph glyph-name="ocircumflex.sc" horiz-adv-x="1267" 
d="M633 1280l-94 -127q-105 0 -177 72l177 200q94 30 188 0l176 -200q-72 -72 -176 -72zM633 1092q250 0 399.5 -150.5t149.5 -402.5t-149.5 -403.5t-399.5 -151.5q-249 0 -398 151.5t-149 403.5t149 402.5t398 150.5zM633 195q137 0 213 90.5t76 253.5q0 162 -76 252
t-213 90q-135 0 -211 -90t-76 -252q0 -163 76 -253.5t211 -90.5z" />
    <glyph glyph-name="odieresis.sc" horiz-adv-x="1267" 
d="M459 1176q-59 0 -100.5 39t-41.5 96t41.5 97t100.5 40q60 0 101.5 -40t41.5 -97q0 -56 -41.5 -95.5t-101.5 -39.5zM807 1176q-60 0 -100.5 39t-40.5 96q0 56 41 96.5t100 40.5t101 -39.5t42 -97.5q0 -55 -42 -95t-101 -40zM633 -16q-249 0 -398 151.5t-149 403.5
t149 402.5t398 150.5q250 0 399.5 -150.5t149.5 -402.5t-149.5 -403.5t-399.5 -151.5zM633 195q137 0 213 90.5t76 253.5q0 162 -76 252t-213 90q-135 0 -211 -90t-76 -252q0 -163 76 -253.5t211 -90.5z" />
    <glyph glyph-name="ograve.sc" horiz-adv-x="1267" 
d="M590 1159l-148 144q-34 34 -36 57q-4 54 90 108l43 25l166 -272zM633 -16q-249 0 -398 151.5t-149 403.5t149 402.5t398 150.5q250 0 399.5 -150.5t149.5 -402.5t-149.5 -403.5t-399.5 -151.5zM633 195q137 0 213 90.5t76 253.5q0 162 -76 252t-213 90q-135 0 -211 -90
t-76 -252q0 -163 76 -253.5t211 -90.5z" />
    <glyph glyph-name="ohungarumlaut.sc" horiz-adv-x="1267" 
d="M555 1151l-125 33l94 299l47 -10q103 -21 111 -78q7 -54 -59 -148zM770 1149l-106 72l188 256l41 -25q54 -33 69.5 -58t10.5 -55q-14 -55 -103 -118zM633 -16q-249 0 -398 151.5t-149 403.5t149 402.5t398 150.5q250 0 399.5 -150.5t149.5 -402.5t-149.5 -403.5
t-399.5 -151.5zM633 195q137 0 213 90.5t76 253.5q0 162 -76 252t-213 90q-135 0 -211 -90t-76 -252q0 -163 76 -253.5t211 -90.5z" />
    <glyph glyph-name="omacron.sc" horiz-adv-x="1267" 
d="M399 1413h469v-196h-469v196zM633 -16q-249 0 -398 151.5t-149 403.5t149 402.5t398 150.5q250 0 399.5 -150.5t149.5 -402.5t-149.5 -403.5t-399.5 -151.5zM633 195q137 0 213 90.5t76 253.5q0 162 -76 252t-213 90q-135 0 -211 -90t-76 -252q0 -163 76 -253.5
t211 -90.5z" />
    <glyph glyph-name="oslash.sc" horiz-adv-x="1265" 
d="M1059 911q123 -145 123 -372q0 -252 -149.5 -403.5t-399.5 -151.5q-162 0 -283 65l-55 -65q-86 0 -162 90l76 92q-123 145 -123 373q0 252 149 402.5t398 150.5q159 0 282 -66l54 66q54 -4 91.5 -28t72.5 -63zM346 539q0 -93 29 -172l395 483q-60 31 -137 31
q-135 0 -211 -90t-76 -252zM633 195q137 0 213 90.5t76 253.5q0 93 -29 172l-399 -486q62 -30 139 -30z" />
    <glyph glyph-name="otilde.sc" horiz-adv-x="1267" 
d="M494 1174q-71 3 -150 18q0 105 49.5 165t132.5 60q44 0 103 -29.5t96 -29.5q18 0 30.5 25t12.5 47q68 0 152 -19q0 -103 -45 -163t-123 -60q-43 0 -110.5 32.5t-90.5 32.5q-25 0 -41 -24.5t-16 -54.5zM633 -16q-249 0 -398 151.5t-149 403.5t149 402.5t398 150.5
q250 0 399.5 -150.5t149.5 -402.5t-149.5 -403.5t-399.5 -151.5zM633 195q137 0 213 90.5t76 253.5q0 162 -76 252t-213 90q-135 0 -211 -90t-76 -252q0 -163 76 -253.5t211 -90.5z" />
    <glyph glyph-name="oe.sc" horiz-adv-x="1751" 
d="M1657 868h-524v-215h436q0 -131 -37 -209h-399v-237h524v-207h-766q-106 -16 -221 -16q-266 0 -425 152t-159 405q0 251 158.5 401t423.5 150q158 0 258 -17h731v-207zM338 541q0 -164 87 -255t245 -91q124 0 207 24v615q-79 49 -207 49q-158 0 -245 -89.5t-87 -252.5z
" />
    <glyph glyph-name="p.sc" horiz-adv-x="1019" 
d="M492 1092q114 0 204.5 -34.5t144 -90.5t81.5 -121t28 -131q0 -105 -61 -194.5t-162.5 -141t-218.5 -51.5h-109v-328h-256v1057q220 35 349 35zM492 539q93 0 149.5 50.5t56.5 125.5q0 73 -54 121.5t-169 48.5q-53 0 -76 -2v-344h93z" />
    <glyph glyph-name="thorn.sc" horiz-adv-x="999" 
d="M543 913q166 0 286.5 -109t120.5 -263t-121.5 -264.5t-285.5 -110.5h-144v-166h-256v1075q130 27 256 0v-162h144zM487 377q104 0 157.5 46t53.5 118t-53 116.5t-158 44.5h-88v-325h88z" />
    <glyph glyph-name="q.sc" horiz-adv-x="1265" 
d="M1182 539q0 -248 -144 -398l125 -145q-21 -57 -71 -89t-113 -32l-125 145q-95 -36 -221 -36q-249 0 -398 151.5t-149 403.5t149 402.5t398 150.5q250 0 399.5 -150.5t149.5 -402.5zM633 195q35 0 65 6l-100 116q22 59 69.5 93t108.5 34l101 -114q45 85 45 209
q0 162 -76 252t-213 90q-135 0 -211 -90t-76 -252q0 -163 76 -253.5t211 -90.5z" />
    <glyph glyph-name="r.sc" horiz-adv-x="1069" 
d="M764 0l-229 397h-136v-397h-256v1057q220 35 349 35q92 0 169.5 -20t130 -53.5t89 -78t53 -92t16.5 -96.5q0 -87 -49 -168t-129 -131l281 -453h-289zM399 881v-273h86q93 0 153 46t60 98q0 133 -225 133q-28 0 -74 -4z" />
    <glyph glyph-name="racute.sc" horiz-adv-x="1069" 
d="M631 1241l-92 -80l-113 60l160 272l45 -20q94 -43 90 -99q-6 -60 -90 -133zM764 0l-229 397h-136v-397h-256v1057q220 35 349 35q92 0 169.5 -20t130 -53.5t89 -78t53 -92t16.5 -96.5q0 -87 -49 -168t-129 -131l281 -453h-289zM399 881v-273h86q93 0 153 46t60 98
q0 133 -225 133q-28 0 -74 -4z" />
    <glyph glyph-name="rcaron.sc" horiz-adv-x="1069" 
d="M596 1188q-97 -31 -188 0l-177 201q69 69 177 69l94 -125l96 125q105 0 174 -69zM764 0l-229 397h-136v-397h-256v1057q220 35 349 35q92 0 169.5 -20t130 -53.5t89 -78t53 -92t16.5 -96.5q0 -87 -49 -168t-129 -131l281 -453h-289zM399 881v-273h86q93 0 153 46t60 98
q0 133 -225 133q-28 0 -74 -4z" />
    <glyph glyph-name="uni0157.sc" horiz-adv-x="1069" 
d="M772 453l281 -453h-289l-229 397h-136v-397h-256v1057q220 35 349 35q92 0 169.5 -20t130 -53.5t89 -78t53 -92t16.5 -96.5q0 -87 -49 -168t-129 -131zM399 881v-273h86q93 0 153 46t60 98q0 133 -225 133q-28 0 -74 -4zM580 -39q55 0 95 -35.5t40 -87.5
q0 -86 -54.5 -162t-130.5 -131q-55 3 -90 64q58 51 86 102q-36 15 -59 47.5t-23 71.5q0 55 40 93t96 38z" />
    <glyph glyph-name="s.sc" horiz-adv-x="978" 
d="M793 848q-163 45 -244 45q-76 0 -117 -29t-41 -71q0 -60 148 -111q203 -69 280.5 -148.5t77.5 -220.5q0 -103 -68 -179.5t-181.5 -115t-256.5 -38.5q-150 0 -274 34q-19 57 -13 117.5t35 112.5q162 -56 250 -56q117 0 176.5 31.5t59.5 85.5q0 41 -37.5 74.5t-145.5 73.5
q-89 33 -144 60.5t-98.5 64.5t-62 83.5t-18.5 110.5q0 146 121.5 235t324.5 89q104 0 256 -33q22 -43 11 -107.5t-39 -107.5z" />
    <glyph glyph-name="sacute.sc" horiz-adv-x="978" 
d="M526 1161l-112 60l159 272l45 -20q95 -43 91 -99q-6 -59 -91 -133zM793 848q-163 45 -244 45q-76 0 -117 -29t-41 -71q0 -60 148 -111q203 -69 280.5 -148.5t77.5 -220.5q0 -103 -68 -179.5t-181.5 -115t-256.5 -38.5q-150 0 -274 34q-19 57 -13 117.5t35 112.5
q162 -56 250 -56q117 0 176.5 31.5t59.5 85.5q0 41 -37.5 74.5t-145.5 73.5q-89 33 -144 60.5t-98.5 64.5t-62 83.5t-18.5 110.5q0 146 121.5 235t324.5 89q104 0 256 -33q22 -43 11 -107.5t-39 -107.5z" />
    <glyph glyph-name="scaron.sc" horiz-adv-x="978" 
d="M584 1188q-98 -31 -189 0l-176 201q73 69 176 69l97 -127l94 127q105 0 174 -69zM539 682q203 -69 280.5 -148.5t77.5 -220.5q0 -103 -68 -179.5t-181.5 -115t-256.5 -38.5q-150 0 -274 34q-19 57 -13 117.5t35 112.5q162 -56 250 -56q117 0 176.5 31.5t59.5 85.5
q0 41 -37.5 74.5t-145.5 73.5q-89 33 -144 60.5t-98.5 64.5t-62 83.5t-18.5 110.5q0 146 121.5 235t324.5 89q104 0 256 -33q22 -43 11 -107.5t-39 -107.5q-163 45 -244 45q-76 0 -117 -29t-41 -71q0 -60 148 -111z" />
    <glyph glyph-name="scedilla.sc" horiz-adv-x="978" 
d="M897 313q0 -121 -92 -204t-246 -113l-59 -92h18q70 0 113 -36t43 -93q0 -79 -67 -118.5t-163 -39.5q-51 0 -129 10q0 78 19 115q79 -18 115 -18q90 0 90 40q0 39 -97 39q-30 0 -55 -2q-35 25 -43 64l76 115h-29q-150 0 -274 34q-19 57 -13 117.5t35 112.5
q162 -56 250 -56q117 0 176.5 31.5t59.5 85.5q0 41 -37.5 74.5t-145.5 73.5q-89 33 -144 60.5t-98.5 64.5t-62 83.5t-18.5 110.5q0 146 121.5 235t324.5 89q104 0 256 -33q22 -43 11 -107.5t-39 -107.5q-163 45 -244 45q-76 0 -117 -29t-41 -71q0 -60 148 -111
q203 -69 280.5 -148.5t77.5 -220.5z" />
    <glyph glyph-name="uni0219.sc" horiz-adv-x="978" 
d="M539 682q203 -69 280.5 -148.5t77.5 -220.5q0 -103 -68 -179.5t-181.5 -115t-256.5 -38.5q-150 0 -274 34q-19 57 -13 117.5t35 112.5q162 -56 250 -56q117 0 176.5 31.5t59.5 85.5q0 41 -37.5 74.5t-145.5 73.5q-89 33 -144 60.5t-98.5 64.5t-62 83.5t-18.5 110.5
q0 146 121.5 235t324.5 89q104 0 256 -33q22 -43 11 -107.5t-39 -107.5q-163 45 -244 45q-76 0 -117 -29t-41 -71q0 -60 148 -111zM498 -39q55 0 95 -35.5t40 -87.5q0 -85 -54.5 -162.5t-129.5 -130.5q-56 6 -91 64q49 42 86 102q-36 15 -59 47.5t-23 71.5q0 55 40 93t96 38
z" />
    <glyph glyph-name="germandbls.sc" horiz-adv-x="1292" 
d="M954 631q114 -41 192.5 -117.5t78.5 -173.5q0 -75 -24 -139t-72 -114t-128.5 -78.5t-185.5 -28.5q-86 0 -139 8t-125 28q-27 131 22 230q90 -34 133 -46t89 -12q78 0 130 29.5t52 91.5q0 53 -49 84t-209 88q-28 22 -42.5 62t-14.5 84l155 229q-65 33 -186 33
q-129 0 -195.5 -54.5t-66.5 -158.5v-676q-127 -27 -252 0v635q0 223 142 344t417 121q144 0 263 -38.5t235 -111.5z" />
    <glyph glyph-name="t.sc" horiz-adv-x="952" 
d="M920 1075q0 -112 -21 -211h-295v-864h-256v864h-315q0 133 20 211h867z" />
    <glyph glyph-name="tbar.sc" horiz-adv-x="952" 
d="M899 864h-295v-166h242q-7 -87 -46 -149t-112 -62h-84v-487h-256v487h-258q10 40 15.5 60t20 54.5t30.5 51.5t44.5 31t65.5 14h82v166h-315q0 133 20 211h867q0 -112 -21 -211z" />
    <glyph glyph-name="tcaron.sc" horiz-adv-x="952" 
d="M571 1186q-100 -29 -190 0l-176 200q76 72 176 72l96 -127l94 127q101 0 177 -72zM920 1075q0 -112 -21 -211h-295v-864h-256v864h-315q0 133 20 211h867z" />
    <glyph glyph-name="uni0163.sc" horiz-adv-x="952" 
d="M604 0h-55l-64 -96h19q70 0 112.5 -36t42.5 -93q0 -79 -66.5 -118.5t-162.5 -39.5q-51 0 -129 10q0 78 18 115q80 -18 115 -18q92 0 92 40q0 39 -98 39q-28 0 -55 -2q-14 7 -27 27.5t-16 36.5l90 135h-72v864h-315q0 133 20 211h867q0 -112 -21 -211h-295v-864z" />
    <glyph glyph-name="uni021B.sc" horiz-adv-x="952" 
d="M53 1075h867q0 -112 -21 -211h-295v-864h-256v864h-315q0 133 20 211zM483 -39q55 0 95 -35.5t40 -87.5q0 -86 -54 -162.5t-130 -130.5q-55 6 -90 64q49 42 86 102q-36 15 -59 47.5t-23 71.5q0 55 39.5 93t95.5 38z" />
    <glyph glyph-name="u.sc" horiz-adv-x="1163" 
d="M582 -16q-217 0 -341 114t-124 334v643q126 27 252 0v-659q0 -92 55.5 -146.5t155.5 -54.5q97 0 156 53.5t59 147.5v659q126 27 252 0v-643q0 -214 -122 -331t-343 -117z" />
    <glyph glyph-name="uacute.sc" horiz-adv-x="1163" 
d="M618 1159l-112 60l160 272l43 -21q96 -45 92 -98q-7 -60 -90 -133zM582 -16q-217 0 -341 114t-124 334v643q126 27 252 0v-659q0 -92 55.5 -146.5t155.5 -54.5q97 0 156 53.5t59 147.5v659q126 27 252 0v-643q0 -214 -122 -331t-343 -117z" />
    <glyph glyph-name="ucircumflex.sc" horiz-adv-x="1163" 
d="M582 1280l-95 -127q-106 0 -176 70l176 202q95 27 189 0l176 -202q-70 -70 -176 -70zM795 1075q126 27 252 0v-643q0 -214 -122 -331t-343 -117q-217 0 -341 114t-124 334v643q126 27 252 0v-659q0 -92 55.5 -146.5t155.5 -54.5q97 0 156 53.5t59 147.5v659z" />
    <glyph glyph-name="udieresis.sc" horiz-adv-x="1163" 
d="M408 1174q-59 0 -100.5 39t-41.5 96t41.5 97t100.5 40q60 0 101.5 -39.5t41.5 -97.5q0 -55 -42 -95t-101 -40zM756 1174q-60 0 -101 39t-41 96t41 97t101 40q59 0 101 -39.5t42 -97.5q0 -55 -42 -95t-101 -40zM582 -16q-217 0 -341 114t-124 334v643q126 27 252 0v-659
q0 -92 55.5 -146.5t155.5 -54.5q97 0 156 53.5t59 147.5v659q126 27 252 0v-643q0 -214 -122 -331t-343 -117z" />
    <glyph glyph-name="ugrave.sc" horiz-adv-x="1163" 
d="M539 1157l-148 143q-35 35 -37 58q-4 55 90 108l43 25l166 -272zM582 -16q-217 0 -341 114t-124 334v643q126 27 252 0v-659q0 -92 55.5 -146.5t155.5 -54.5q97 0 156 53.5t59 147.5v659q126 27 252 0v-643q0 -214 -122 -331t-343 -117z" />
    <glyph glyph-name="uhungarumlaut.sc" horiz-adv-x="1163" 
d="M504 1149l-125 35l94 297l47 -11q103 -21 111 -77q7 -53 -60 -148zM719 1149l-107 70l189 256l41 -25q54 -33 69.5 -58t10.5 -53q-10 -51 -103 -118zM582 -16q-217 0 -341 114t-124 334v643q126 27 252 0v-659q0 -92 55.5 -146.5t155.5 -54.5q97 0 156 53.5t59 147.5v659
q126 27 252 0v-643q0 -214 -122 -331t-343 -117z" />
    <glyph glyph-name="umacron.sc" horiz-adv-x="1163" 
d="M348 1411h469v-197h-469v197zM582 -16q-217 0 -341 114t-124 334v643q126 27 252 0v-659q0 -92 55.5 -146.5t155.5 -54.5q97 0 156 53.5t59 147.5v659q126 27 252 0v-643q0 -214 -122 -331t-343 -117z" />
    <glyph glyph-name="uogonek.sc" horiz-adv-x="1163" 
d="M795 1075q126 27 252 0v-643q0 -174 -83 -285.5t-237 -146.5q-106 -77 -106 -150q0 -20 19 -38.5t54 -18.5q40 0 70 12q31 -83 22 -145q-23 -16 -116 -16q-97 0 -151 41t-54 114q0 110 96 185q-206 5 -325 119t-119 329v643q126 27 252 0v-659q0 -92 55.5 -146.5
t155.5 -54.5q97 0 156 53.5t59 147.5v659z" />
    <glyph glyph-name="uring.sc" horiz-adv-x="1163" 
d="M582 1147q-112 0 -181 55t-69 148q0 92 69.5 147t180.5 55q114 0 181.5 -55t67.5 -147q0 -94 -67.5 -148.5t-181.5 -54.5zM582 1260q73 0 73 90q0 88 -73 88q-74 0 -74 -88q0 -90 74 -90zM582 -16q-217 0 -341 114t-124 334v643q126 27 252 0v-659q0 -92 55.5 -146.5
t155.5 -54.5q97 0 156 53.5t59 147.5v659q126 27 252 0v-643q0 -214 -122 -331t-343 -117z" />
    <glyph glyph-name="v.sc" horiz-adv-x="1128" 
d="M827 1077q141 28 279 0l-391 -1077q-149 -27 -297 0l-395 1077q139 27 278 0l264 -798z" />
    <glyph glyph-name="w.sc" horiz-adv-x="1613" 
d="M1327 1075q144 29 281 0l-295 -1077q-138 -25 -293 0l-211 657l-213 -657q-139 -26 -295 0l-295 1077q143 28 283 0l188 -749l197 749q132 25 266 0l231 -749z" />
    <glyph glyph-name="wacute.sc" horiz-adv-x="1613" 
d="M936 1241l-92 -80l-113 60l160 272l45 -20q94 -42 90 -99q-6 -60 -90 -133zM1327 1075q144 29 281 0l-295 -1077q-138 -25 -293 0l-211 657l-213 -657q-139 -26 -295 0l-295 1077q143 28 283 0l188 -749l197 749q132 25 266 0l231 -749z" />
    <glyph glyph-name="wcircumflex.sc" horiz-adv-x="1613" 
d="M809 1280l-96 -127q-104 0 -176 72l176 200q94 30 188 0l176 -200q-72 -72 -174 -72zM1327 1075q144 29 281 0l-295 -1077q-138 -25 -293 0l-211 657l-213 -657q-139 -26 -295 0l-295 1077q143 28 283 0l188 -749l197 749q132 25 266 0l231 -749z" />
    <glyph glyph-name="wdieresis.sc" horiz-adv-x="1613" 
d="M635 1176q-60 0 -101.5 39t-41.5 96t41.5 97t101.5 40q58 0 99.5 -39.5t41.5 -97.5q0 -56 -41.5 -95.5t-99.5 -39.5zM981 1176q-60 0 -100.5 39t-40.5 96q0 56 41 96.5t100 40.5t101 -39.5t42 -97.5q0 -55 -42 -95t-101 -40zM1327 1075q144 29 281 0l-295 -1077
q-138 -25 -293 0l-211 657l-213 -657q-139 -26 -295 0l-295 1077q143 28 283 0l188 -749l197 749q132 25 266 0l231 -749z" />
    <glyph glyph-name="wgrave.sc" horiz-adv-x="1613" 
d="M616 1303q-33 30 -36 57q-4 55 90 108l43 25l166 -272l-115 -62zM1327 1075q144 29 281 0l-295 -1077q-138 -25 -293 0l-211 657l-213 -657q-139 -26 -295 0l-295 1077q143 28 283 0l188 -749l197 749q132 25 266 0l231 -749z" />
    <glyph glyph-name="x.sc" horiz-adv-x="1187" 
d="M1176 0h-291l-310 397l-272 -397h-291l420 582l-383 491q145 27 291 0l252 -323l235 323q144 27 291 0l-385 -504z" />
    <glyph glyph-name="y.sc" horiz-adv-x="1013" 
d="M1001 1075l-362 -633v-442h-256v436l-371 639q142 27 283 0l215 -420l209 420q144 27 282 0z" />
    <glyph glyph-name="yacute.sc" horiz-adv-x="1013" 
d="M639 1241l-90 -80l-115 60l162 272l43 -20q96 -46 92 -99q-6 -56 -92 -133zM1001 1075l-362 -633v-442h-256v436l-371 639q142 27 283 0l215 -420l209 420q144 27 282 0z" />
    <glyph glyph-name="ycircumflex.sc" horiz-adv-x="1013" 
d="M512 1280l-96 -127q-102 0 -174 72l176 200q94 30 188 0l176 -200q-72 -72 -176 -72zM1001 1075l-362 -633v-442h-256v436l-371 639q142 27 283 0l215 -420l209 420q144 27 282 0z" />
    <glyph glyph-name="ydieresis.sc" horiz-adv-x="1013" 
d="M338 1176q-59 0 -100 39t-41 96q0 56 41 96.5t100 40.5q60 0 101.5 -40t41.5 -97q0 -55 -42 -95t-101 -40zM684 1176q-59 0 -100 39t-41 96t41 97t100 40q60 0 101.5 -40t41.5 -97q0 -56 -41.5 -95.5t-101.5 -39.5zM1001 1075l-362 -633v-442h-256v436l-371 639
q142 27 283 0l215 -420l209 420q144 27 282 0z" />
    <glyph glyph-name="ygrave.sc" horiz-adv-x="1013" 
d="M319 1303q-32 32 -34 57q-4 58 88 108l45 25l164 -272l-113 -62zM1001 1075l-362 -633v-442h-256v436l-371 639q142 27 283 0l215 -420l209 420q144 27 282 0z" />
    <glyph glyph-name="z.sc" horiz-adv-x="1114" 
d="M1001 215q18 -48 26 -111t5 -104h-807q-44 19 -83.5 84t-39.5 139l592 637h-510q-24 53 -33.5 114t-5.5 101h752q44 -21 82.5 -84.5t38.5 -136.5l-594 -639h577z" />
    <glyph glyph-name="zacute.sc" horiz-adv-x="1114" 
d="M698 1239l-92 -80l-112 60l159 272l43 -21q96 -46 92 -98q-6 -60 -90 -133zM1001 215q18 -48 26 -111t5 -104h-807q-44 19 -83.5 84t-39.5 139l592 637h-510q-24 53 -33.5 114t-5.5 101h752q44 -21 82.5 -84.5t38.5 -136.5l-594 -639h577z" />
    <glyph glyph-name="zcaron.sc" horiz-adv-x="1114" 
d="M664 1186q-92 -29 -189 0l-176 200q72 72 176 72l94 -127l97 127q102 0 174 -72zM1001 215q18 -48 26 -111t5 -104h-807q-44 19 -83.5 84t-39.5 139l592 637h-510q-24 53 -33.5 114t-5.5 101h752q44 -21 82.5 -84.5t38.5 -136.5l-594 -639h577z" />
    <glyph glyph-name="zdotaccent.sc" horiz-adv-x="1114" 
d="M571 1196q-57 0 -97 37.5t-40 91.5q0 55 40.5 93t96.5 38t98 -37.5t42 -93.5q0 -52 -42 -90.5t-98 -38.5zM1001 215q18 -48 26 -111t5 -104h-807q-44 19 -83.5 84t-39.5 139l592 637h-510q-24 53 -33.5 114t-5.5 101h752q44 -21 82.5 -84.5t38.5 -136.5l-594 -639h577z
" />
    <glyph glyph-name="zero.osf" horiz-adv-x="958" 
d="M479 1034q-188 0 -300.5 -130.5t-112.5 -391.5q0 -253 113.5 -388.5t299.5 -135.5q188 0 302 136t114 388q0 261 -113.5 391.5t-302.5 130.5zM479 205q-72 0 -110.5 81t-38.5 226q0 144 38 224.5t111 80.5q74 0 112 -80t38 -225q0 -144 -38 -225.5t-112 -81.5z" />
    <glyph glyph-name="one.osf" horiz-adv-x="954" 
d="M817 215q29 -105 0 -215h-694q-31 104 0 215h223v485q-157 -30 -205 -30q-70 90 -65 184q196 103 428 180q19 -1 58.5 -31t43.5 -40v-748h211z" />
    <glyph glyph-name="two.osf" horiz-adv-x="954" 
d="M430 217h424q0 -155 -39 -217h-643q-23 27 -49.5 104.5t-26.5 112.5l47 31q447 275 447 444q0 61 -43 92t-115 31q-133 0 -313 -119q-51 83 -13 226q159 112 357 112q179 0 280 -75t101 -226q0 -137 -112 -275.5t-302 -240.5z" />
    <glyph glyph-name="three.osf" horiz-adv-x="999" 
d="M653 76q0 -97 -60 -147t-155 -50q-86 0 -181.5 46t-152.5 112q-32 -60 -32 -160q0 -59 18 -115q141 -110 377 -110q211 0 331 116.5t120 290.5q0 109 -54 187.5t-145 118.5q158 83 158 317q0 166 -108.5 259t-281.5 93q-220 0 -381 -131q-16 -50 -16 -108q0 -57 21 -125
q166 137 329 137q98 0 143.5 -38.5t47.5 -104.5q0 -194 -266 -191h-78q-49 -126 -49 -221h155q122 0 191 -43.5t69 -132.5z" />
    <glyph glyph-name="four.osf" horiz-adv-x="1134" 
d="M1069 518q30 -111 0 -221h-133v-297h-266v297h-488q-39 22 -76.5 73t-54.5 107q149 243 366.5 541.5t327.5 404.5q51 0 107.5 -25t83.5 -55v-825h133zM690 1032q-119 -153 -373 -514h373v514z" />
    <glyph glyph-name="five.osf" horiz-adv-x="980" 
d="M537 522q167 -41 259.5 -142.5t92.5 -256.5q0 -229 -132.5 -350t-383.5 -121q-152 0 -293 72q-19 55 -19 116q0 71 43 117q151 -82 281 -82q122 0 182 60t60 147q0 98 -62.5 159t-222.5 95l-86 16q-51 26 -99 75t-48 91l122 516h650q-2 -60 -18.5 -109t-59.5 -112h-363
l-63 -254z" />
    <glyph glyph-name="six.osf" horiz-adv-x="1099" 
d="M621 901q200 0 314 -122.5t114 -315.5q0 -96 -33 -183.5t-93 -154t-152 -106t-202 -39.5q-104 0 -190.5 39t-154 118t-105 212t-37.5 310q0 383 142 568.5t399 185.5q105 0 176.5 -19.5t148.5 -66.5q15 -47 15 -108q0 -58 -19 -109q-78 41 -139.5 59.5t-149.5 18.5
q-135 0 -212 -76t-101 -266q110 55 279 55zM563 209q101 0 158 68t57 186q0 95 -54.5 157t-166.5 62q-132 0 -225 -68q11 -405 231 -405z" />
    <glyph glyph-name="seven.osf" horiz-adv-x="962" 
d="M866 1034q76 -110 76 -217l-512 -1124q-131 -29 -270 0q0 31 219 487t319 633h-643q-30 111 0 221h811z" />
    <glyph glyph-name="eight.osf" horiz-adv-x="1024" 
d="M731 760q129 -72 193.5 -156.5t64.5 -206.5q0 -129 -67.5 -226t-174.5 -144t-235 -47q-130 0 -237 45t-173.5 136.5t-66.5 213.5q0 129 68 225t169 141q-176 132 -176 320q0 154 119.5 253t296.5 99q178 0 297 -79.5t119 -223.5q0 -115 -56.5 -206.5t-140.5 -143.5z
M512 1186q-85 0 -126.5 -37t-41.5 -98t42.5 -107t162.5 -100q71 30 106 75t35 125q0 68 -50.5 105t-127.5 37zM512 207q92 0 145.5 43.5t53.5 128.5q0 74 -53.5 135.5t-192.5 120.5q-1 0 -2 1t-2 1q-62 -29 -109 -93.5t-47 -142.5q0 -98 58 -146t149 -48z" />
    <glyph glyph-name="nine.osf" horiz-adv-x="1079" 
d="M520 1034q102 0 186.5 -37t150.5 -113t103 -204t37 -297q0 -368 -139.5 -549.5t-390.5 -181.5q-108 0 -182 19.5t-154 66.5q-14 43 -14 108q0 60 18 109q81 -41 144.5 -59.5t154.5 -18.5q126 0 201 72t100 244q-98 -52 -246 -52q-205 0 -321.5 123t-116.5 316
q0 91 32 173t90.5 144.5t148.5 99.5t198 37zM322 580q0 -96 57 -158t174 -62q112 0 195 62q-6 202 -62.5 292.5t-159.5 90.5q-96 0 -150 -60.5t-54 -164.5z" />
    <glyph glyph-name="zero.dnom" horiz-adv-x="808" 
d="M403 889q-154 0 -248 -115t-94 -334q0 -218 94 -334t248 -116q156 0 250.5 115t94.5 335q0 221 -94.5 335t-250.5 114zM403 180q-53 0 -80.5 68t-27.5 192q0 256 108 256q109 0 109 -256q0 -123 -27.5 -191.5t-81.5 -68.5z" />
    <glyph glyph-name="one.dnom" horiz-adv-x="808" 
d="M684 188q25 -99 0 -188h-573q-24 94 0 188h178v404q-142 -25 -160 -23q-62 80 -57 164q178 92 358 156q14 0 49 -27.5t39 -36.5v-637h166z" />
    <glyph glyph-name="two.dnom" horiz-adv-x="829" 
d="M393 193h342q0 -140 -35 -193h-528q-21 25 -43.5 94t-22.5 99l37 26q198 142 278.5 228.5t80.5 166.5q0 40 -32 60t-85 20q-111 0 -258 -104q-44 84 -10 217q128 82 305 82q305 0 305 -262q0 -117 -90 -232.5t-244 -201.5z" />
    <glyph glyph-name="three.dnom" horiz-adv-x="808" 
d="M504 262q0 -39 -35.5 -60.5t-91.5 -21.5q-68 0 -141 35.5t-113 85.5q-27 -55 -27 -139q0 -49 15 -94q109 -82 286 -82q156 0 245 79t89 197q0 66 -33 115t-90 74q94 61 94 202q0 111 -81.5 173.5t-212.5 62.5q-160 0 -285 -86q-14 -44 -14 -92q0 -43 16 -105
q122 88 242 88q57 0 91 -21t34 -57q0 -39 -40 -56t-130 -17h-56q-39 -47 -39 -189h113q164 0 164 -92z" />
    <glyph glyph-name="four.dnom" horiz-adv-x="772" 
d="M727 365q25 -96 0 -189h-82v-176h-229v176h-307q-31 19 -62.5 62.5t-46.5 89.5q93 147 238.5 312t242.5 249q44 0 92 -22t72 -48v-454h82zM434 567q-3 -3 -51 -50t-82 -82.5t-65 -69.5h198v202z" />
    <glyph glyph-name="five.dnom" horiz-adv-x="808" 
d="M465 571q115 -26 181.5 -92t66.5 -170q0 -157 -95 -240t-272 -83q-141 0 -242 49q-16 44 -16 100q0 58 37 98q117 -57 229 -57q67 0 100 30t33 73q0 105 -176 131l-69 10q-36 17 -79.5 59.5t-43.5 75.5l84 319h504q-3 -53 -17 -93.5t-49 -94.5h-260l-27 -90z" />
    <glyph glyph-name="six.dnom" horiz-adv-x="811" 
d="M430 573q145 0 228 -80.5t83 -207.5q0 -124 -90.5 -211.5t-242.5 -87.5q-148 0 -243 108t-95 316q0 240 100.5 359.5t278.5 119.5q74 0 127 -13.5t110 -44.5q10 -33 10 -92q0 -50 -14 -90q-58 25 -101.5 36t-103.5 11q-71 0 -116 -33.5t-64 -111.5q51 22 133 22zM403 182
q49 0 77 28.5t28 74.5q0 43 -30.5 71.5t-92.5 28.5t-100 -25q11 -178 118 -178z" />
    <glyph glyph-name="seven.dnom" horiz-adv-x="808" 
d="M713 874q24 -30 42.5 -85t18.5 -95l-375 -694q-103 -24 -233 0q0 19 150 281t241 405h-414q-25 91 0 188h570z" />
    <glyph glyph-name="eight.dnom" horiz-adv-x="808" 
d="M592 479q84 -47 120 -98t36 -129q0 -119 -101.5 -191.5t-243.5 -72.5q-144 0 -243 68.5t-99 187.5q0 70 44 128t110 89q-57 42 -84 87.5t-27 104.5q0 102 86.5 169t212.5 67q132 0 216 -57.5t83 -157.5q0 -122 -110 -195zM408 715q-46 0 -68.5 -19t-22.5 -43
q0 -27 25.5 -46t93.5 -50q34 16 50 33.5t16 42.5q0 40 -25 61t-69 21zM403 160q48 0 76.5 19.5t28.5 56.5q0 32 -29.5 62t-109.5 71q-31 -21 -53.5 -52t-22.5 -61q0 -48 31.5 -72t78.5 -24z" />
    <glyph glyph-name="nine.dnom" horiz-adv-x="811" 
d="M401 889q150 0 245 -108t95 -316q0 -240 -101 -359.5t-280 -119.5q-75 0 -126.5 13t-108.5 44q-10 31 -10 92q0 50 14 90q59 -26 102.5 -36.5t102.5 -10.5q70 0 114.5 33.5t63.5 112.5q-53 -23 -131 -23q-145 0 -228 81t-83 208q0 124 90 211.5t241 87.5zM301 590
q0 -43 31.5 -72t93.5 -29q60 0 98 25q-11 178 -118 178q-49 0 -77 -28t-28 -74z" />
    <glyph glyph-name="zero.numr" horiz-adv-x="808" 
d="M403 1356q-154 0 -248 -115t-94 -334q0 -218 94 -334t248 -116q156 0 250.5 115t94.5 335q0 221 -94.5 335t-250.5 114zM403 647q-53 0 -80.5 68t-27.5 192q0 256 108 256q109 0 109 -256q0 -123 -27.5 -191.5t-81.5 -68.5z" />
    <glyph glyph-name="one.numr" horiz-adv-x="808" 
d="M664 655q25 -99 0 -188h-553q-24 94 0 188h178v404q-142 -25 -160 -23q-62 80 -57 164q151 83 358 156q14 0 49 -27.5t39 -36.5v-637h146z" />
    <glyph glyph-name="two.numr" horiz-adv-x="811" 
d="M375 659h342q0 -139 -35 -192h-528q-21 25 -43.5 93.5t-22.5 98.5l37 27q61 44 94 68.5t82 63.5t75.5 67t54.5 63t40 67.5t12 65.5q0 80 -116 80q-111 0 -258 -104q-46 83 -11 217q128 82 305 82q148 0 227 -65t79 -197q0 -117 -90 -233t-244 -202z" />
    <glyph glyph-name="three.numr" horiz-adv-x="808" 
d="M504 729q0 -39 -35.5 -60.5t-91.5 -21.5q-68 0 -141 36t-113 85q-27 -55 -27 -139q0 -49 15 -94q104 -80 286 -80q156 0 245 78.5t89 195.5q0 66 -33 115t-90 74q94 61 94 202q0 111 -81.5 173.5t-212.5 62.5q-160 0 -285 -86q-14 -44 -14 -92q0 -46 16 -105
q122 88 242 88q57 0 91 -21t34 -57q0 -39 -40 -56t-130 -17h-56q-39 -47 -39 -189h113q164 0 164 -92z" />
    <glyph glyph-name="four.numr" horiz-adv-x="806" 
d="M762 831q25 -95 0 -188h-82v-176h-229v176h-308q-31 19 -62 62t-46 90q93 147 238.5 312t242.5 249q44 0 92 -22t72 -48v-455h82zM469 1034q-3 -3 -51.5 -50.5t-82.5 -83t-65 -69.5h199v203z" />
    <glyph glyph-name="five.numr" horiz-adv-x="808" 
d="M465 1038q115 -26 181.5 -92t66.5 -170q0 -156 -94.5 -238.5t-272.5 -82.5q-55 0 -124 11.5t-118 35.5q-16 44 -16 100q0 58 37 98q117 -57 229 -57q67 0 100 29.5t33 72.5q0 50 -40 84t-136 48l-69 10q-36 17 -79.5 59.5t-43.5 75.5l84 319h504q-3 -53 -17 -93.5
t-49 -94.5h-260l-27 -90z" />
    <glyph glyph-name="six.numr" horiz-adv-x="811" 
d="M430 1040q145 0 228 -80.5t83 -207.5q0 -124 -90.5 -210.5t-242.5 -86.5q-148 0 -243 107t-95 315q0 240 100.5 359.5t278.5 119.5q74 0 127 -13.5t110 -44.5q10 -33 10 -92q0 -50 -14 -90q-58 25 -101.5 36t-103.5 11q-71 0 -116 -33.5t-64 -111.5q51 22 133 22z
M403 649q49 0 77 28.5t28 74.5q0 43 -30.5 71.5t-92.5 28.5t-100 -25q11 -178 118 -178z" />
    <glyph glyph-name="seven.numr" horiz-adv-x="774" 
d="M754 1341q24 -30 42.5 -85t18.5 -95l-416 -694q-113 -22 -233 0q0 19 161.5 274t268.5 412h-453q-25 91 0 188h611z" />
    <glyph glyph-name="eight.numr" horiz-adv-x="808" 
d="M592 946q84 -47 120 -98t36 -129q0 -119 -101.5 -191.5t-243.5 -72.5q-144 0 -243 68.5t-99 187.5q0 70 44 128t110 89q-111 82 -111 192q0 102 86.5 169t212.5 67q132 0 216 -57.5t83 -157.5q0 -122 -110 -195zM408 1182q-46 0 -68.5 -19t-22.5 -43q0 -27 25.5 -46
t93.5 -50q34 16 50 33.5t16 42.5q0 40 -25 61t-69 21zM403 627q48 0 76.5 19t28.5 56q0 33 -29.5 63t-109.5 71q-31 -21 -53.5 -52t-22.5 -61q0 -48 31.5 -72t78.5 -24z" />
    <glyph glyph-name="nine.numr" horiz-adv-x="811" 
d="M401 1356q150 0 245 -108t95 -316q0 -240 -101 -358.5t-280 -118.5q-75 0 -127.5 12t-107.5 43q-10 34 -10 92q0 50 14 90q59 -26 102.5 -36.5t102.5 -10.5q70 0 114.5 33.5t63.5 112.5q-53 -23 -131 -23q-145 0 -228 81t-83 208q0 124 90 211.5t241 87.5zM301 1057
q0 -43 31.5 -72t93.5 -29q60 0 98 25q-11 178 -118 178q-49 0 -77 -28t-28 -74z" />
    </font>
</defs>
</svg>
