<?xml version="1.0" standalone="no"?>
<!DOCTYPE svg PUBLIC "-//W3C//DTD SVG 1.1//EN" "http://www.w3.org/Graphics/SVG/1.1/DTD/svg11.dtd" >
<svg xmlns="http://www.w3.org/2000/svg" xmlns:xlink="http://www.w3.org/1999/xlink" version="1.1">
<metadata>
Created by FontForge 20170731 at Tue May 17 18:57:29 2022
 By Aleksey,,,
Copyright (c) 2019 by Vasava Studio. All rights reserved.	
</metadata>
<defs>
<font id="CIBFontSans-Thin" horiz-adv-x="1126" >
  <font-face 
    font-family="CIBFont Sans Thin"
    font-weight="100"
    font-stretch="normal"
    units-per-em="2048"
    panose-1="2 11 6 3 2 2 2 2 1 4"
    ascent="1516"
    descent="-532"
    x-height="1014"
    cap-height="1331"
    bbox="-553 -485 2124 1976"
    underline-thickness="102"
    underline-position="-614"
    unicode-range="U+0020-FB02"
  />
<missing-glyph horiz-adv-x="1169" 
d="M102 0v1331q483 30 965 0v-1331q-482 -30 -965 0zM199 1274l385 -559l387 559h-772zM164 104l387 562l-387 559v-1121zM618 666l388 -562v1121zM201 57h768l-383 557z" />
    <glyph glyph-name="fi" unicode="fi" horiz-adv-x="1095" 
d="M516 1395q-112 0 -174.5 -92t-62.5 -222v-67h296q0 -29 -16 -53h-280v-961h-58v961h-119q0 12 9.5 25t38.5 25t71 13v57q0 172 88.5 270.5t257.5 98.5q56 0 80 -8q0 -34 -16 -53q-69 6 -115 6zM881 1245q-30 0 -54 23t-24 51q0 29 23.5 52.5t54.5 23.5q32 0 56 -23
t24 -53q0 -28 -24 -51t-56 -23zM852 0v1014q12 9 28.5 9t28.5 -9v-1014h-57z" />
    <glyph glyph-name="fl" unicode="fl" horiz-adv-x="1093" 
d="M516 1395q-112 0 -174.5 -92t-62.5 -222v-67h296q0 -29 -16 -53h-280v-961h-58v961h-119q0 12 9.5 25t38.5 25t71 13v57q0 172 88.5 270.5t257.5 98.5q56 0 80 -8q0 -34 -16 -53q-69 6 -115 6zM852 0v1389q10 10 28 17t29 7v-1413h-57z" />
    <glyph glyph-name=".notdef" horiz-adv-x="1169" 
d="M102 0v1331q483 30 965 0v-1331q-482 -30 -965 0zM199 1274l385 -559l387 559h-772zM164 104l387 562l-387 559v-1121zM618 666l388 -562v1121zM201 57h768l-383 557z" />
    <glyph glyph-name=".null" horiz-adv-x="0" 
 />
    <glyph glyph-name="nonmarkingreturn" horiz-adv-x="682" 
 />
    <glyph glyph-name="space" unicode=" " horiz-adv-x="614" 
 />
    <glyph glyph-name="exclam" unicode="!" horiz-adv-x="524" 
d="M285 348h-47q-15 401 -11 1102q34 17 68 0q4 -725 -10 -1102zM262 -10q-41 0 -69.5 28.5t-28.5 69.5q0 40 28.5 68t69.5 28t69.5 -28t28.5 -68q0 -41 -28.5 -69.5t-69.5 -28.5z" />
    <glyph glyph-name="quotedbl" unicode="&#x22;" horiz-adv-x="491" 
d="M102 963l-20 448q41 15 82 0q4 -235 -14 -448h-48zM348 963l-20 448q41 15 82 0q4 -226 -15 -448h-47z" />
    <glyph glyph-name="numbersign" unicode="#" 
d="M1040 887h-131l-78 -434h216q0 -34 -11.5 -46t-48.5 -12h-166l-69 -395h-62l70 395h-469l-70 -395h-61l69 395h-223q0 34 15.5 46t64.5 12h154l77 434h-237q0 33 15.5 45t64.5 12h168l67 387q35 18 62 0l-68 -387h469l68 387q34 18 61 0l-67 -387h200q0 -33 -15.5 -45
t-64.5 -12zM770 453l78 434h-469l-78 -434h469z" />
    <glyph glyph-name="dollar" unicode="$" 
d="M940 340q0 -146 -90.5 -240t-237.5 -118q0 -36 -1 -104t-1 -101q-28 -16 -57 0q0 31 -1 97t-1 101h-31q-172 0 -346 56q-14 36 10 71q206 -65 334 -65h33q2 265 10 631q-6 2 -17.5 7t-17.5 7q-169 66 -246 147t-77 195q0 138 92 225.5t256 102.5q0 38 1 108.5t1 102.5
q29 16 57 0q0 -32 1 -101t1 -106h9q125 0 274 -41q15 -29 -6 -72q-150 49 -277 49q0 -344 -8 -579q186 -78 261 -161t75 -212zM268 1038q0 -78 31 -132.5t90.5 -93.5t169.5 -83q-1 78 -4 269.5t-4 291.5q-140 -9 -211.5 -73.5t-71.5 -178.5zM612 45q123 21 192.5 96
t69.5 197q0 101 -59 170.5t-211 140.5q8 -251 8 -604z" />
    <glyph glyph-name="percent" unicode="%" horiz-adv-x="1482" 
d="M256 -6l862 1282q49 71 67 82.5t70 3.5l-862 -1282q-47 -70 -66 -82t-71 -4zM332 1352q-127 0 -204 -87.5t-77 -254.5q0 -166 77.5 -255t203.5 -89t203 89t77 255q0 167 -76.5 254.5t-203.5 87.5zM332 721q-107 0 -162 76t-55 213q0 138 55 212t162 74q106 0 160.5 -73.5
t54.5 -212.5q0 -138 -54.5 -213.5t-160.5 -75.5zM1151 670q-127 0 -204 -87.5t-77 -254.5q0 -166 77.5 -255t203.5 -89t203.5 89t77.5 255q0 167 -77 254.5t-204 87.5zM1151 39q-107 0 -162 76t-55 213q0 138 55 212t162 74q106 0 160.5 -73.5t54.5 -212.5
q0 -138 -54.5 -213.5t-160.5 -75.5z" />
    <glyph glyph-name="ampersand" unicode="&#x26;" horiz-adv-x="1484" 
d="M987 358l-4 -10l385 -348h-98l-316 287q-84 -166 -195.5 -236.5t-269.5 -70.5q-171 0 -274.5 109t-103.5 273q0 183 94 286t237 122q-74 84 -105.5 154t-31.5 151q0 140 93.5 215.5t234.5 75.5q84 0 149 -21.5t129 -70.5q17 -43 -12 -72q-74 60 -128 81.5t-114 21.5
q-133 0 -209.5 -54.5t-76.5 -171.5q0 -42 10.5 -81t40 -85.5t62.5 -87.5t96.5 -104.5t122 -118t159.5 -145.5l72 -66l172 395q15 36 35 47t73 11h156q-7 -30 -19.5 -44t-43.5 -14h-138zM905 326l2 4l-137 125q-213 192 -285 268q-143 -14 -226 -104t-83 -250q0 -49 10.5 -95
t35 -88.5t60 -74.5t89 -51t118.5 -19q144 0 247.5 67t168.5 218z" />
    <glyph glyph-name="quotesingle" unicode="'" horiz-adv-x="245" 
d="M102 963l-20 448q41 15 82 0q4 -235 -14 -448h-48z" />
    <glyph glyph-name="parenleft" unicode="(" horiz-adv-x="663" 
d="M528 -205q-174 116 -294.5 354t-120.5 521q0 143 34 281t92.5 248.5t132 198t156.5 142.5q39 -2 58 -29q-182 -137 -295 -351.5t-113 -489.5q0 -276 115.5 -496.5t292.5 -349.5q-19 -27 -58 -29z" />
    <glyph glyph-name="parenright" unicode=")" horiz-adv-x="663" 
d="M135 1540q174 -116 295 -353.5t121 -520.5q0 -143 -34.5 -281t-92.5 -249t-132 -198.5t-157 -142.5q-38 2 -57 29q182 137 294.5 352t112.5 490q0 276 -115 496t-292 349q19 27 57 29z" />
    <glyph glyph-name="asterisk" unicode="*" horiz-adv-x="655" 
d="M532 1292q25 -28 19 -59q-116 -38 -191 -57l134 -150q-20 -34 -52 -37q-20 26 -65 93.5l-47 70.5l-101 -172q-37 6 -51 37q33 45 121 158l-195 43q-6 34 19 59q33 -9 186 -66l-18 199q35 15 63 0q0 -52 -6 -199z" />
    <glyph glyph-name="plus" unicode="+" 
d="M592 657h432q0 -34 -11 -45.5t-48 -11.5h-373v-453q-33 0 -45 11.5t-12 48.5v393h-433q0 33 11.5 45t48.5 12h373v453q34 0 45.5 -11t11.5 -48v-394z" />
    <glyph glyph-name="comma" unicode="," horiz-adv-x="524" 
d="M260 184q40 0 70 -32t30 -78q0 -78 -59 -174t-121 -140q-9 1 -23 11t-20 18q38 33 79.5 91.5t59.5 109.5q-4 -2 -16 -2q-41 0 -69.5 28.5t-28.5 69.5t28.5 69.5t69.5 28.5z" />
    <glyph glyph-name="hyphen" unicode="-" horiz-adv-x="614" 
d="M53 600q0 33 11.5 45t48.5 12h448q0 -34 -11 -45.5t-48 -11.5h-449z" />
    <glyph glyph-name="period" unicode="." horiz-adv-x="524" 
d="M262 -10q-41 0 -69.5 28.5t-28.5 69.5q0 40 28.5 68t69.5 28t69.5 -28t28.5 -68q0 -41 -28.5 -69.5t-69.5 -28.5z" />
    <glyph glyph-name="slash" unicode="/" horiz-adv-x="417" 
d="M-20 -82l378 1411q17 79 28.5 94t51.5 15l-379 -1411q-17 -78 -28 -93.5t-51 -15.5z" />
    <glyph glyph-name="zero" unicode="0" 
d="M563 1352q-101 0 -184.5 -42t-146.5 -124t-97.5 -213t-34.5 -301q0 -335 127.5 -511.5t335.5 -176.5q209 0 336 176t127 512q0 335 -126.5 507.5t-336.5 172.5zM563 45q-196 0 -296.5 163.5t-100.5 463.5t100 459t297 159t297.5 -159t100.5 -459t-101 -463.5t-297 -163.5
z" />
    <glyph glyph-name="one" unicode="1" 
d="M963 57q19 -29 0 -57h-822q-19 28 0 57h371v1223q-92 -54 -221.5 -123.5t-151.5 -75.5q-28 7 -28 45q187 121 415 226q38 -11 47 -39v-1256h390z" />
    <glyph glyph-name="two" unicode="2" 
d="M238 57h743q0 -39 -18 -57h-785q-10 7 -20.5 28t-10.5 29l70 58q110 90 196 166t180 171t155.5 176t102 168.5t40.5 161.5q0 163 -100 246.5t-269 83.5q-171 0 -370 -143q-13 10 -17 29t4 34q189 144 408 144q80 0 152.5 -26.5t130 -75.5t92 -127.5t34.5 -174.5
q0 -171 -187 -392.5t-531 -498.5z" />
    <glyph glyph-name="three" unicode="3" 
d="M911 346q0 -145 -116.5 -225t-296.5 -80q-81 0 -172.5 27.5t-151.5 66.5q-7 -4 -12.5 -15.5t-5.5 -19.5q0 -20 8 -41q142 -79 362 -79q212 0 331.5 105t119.5 261q0 132 -78 222t-205 122q104 27 173 107.5t69 226.5q0 153 -104 240.5t-269 87.5q-220 0 -381 -131
q-8 -13 -8 -33q0 -25 12 -37q185 139 369 139q139 0 226.5 -72t88.5 -192q0 -165 -100.5 -237.5t-325.5 -69.5h-77q-29 -15 -29 -57h135q207 0 322.5 -76.5t115.5 -239.5z" />
    <glyph glyph-name="four" unicode="4" 
d="M1036 416q16 -29 0 -58h-184v-358h-61v358h-652q-18 4 -32.5 23t-14.5 35q144 209 383.5 521t337.5 415q26 0 39 -17v-919h184zM791 1231q-116 -132 -321.5 -401.5t-293.5 -413.5h615v815z" />
    <glyph glyph-name="five" unicode="5" 
d="M494 780q216 -41 329 -143t113 -246q0 -201 -127 -306t-369 -105q-69 0 -150.5 16t-142.5 47q-4 20 -4 33q0 18 9 30q52 -25 134 -46t167 -21q109 0 191.5 28t130.5 75.5t71.5 104.5t23.5 122q0 72 -22.5 127.5t-75.5 105t-148.5 84.5t-234.5 57l-131 21
q-30 10 -41.5 24.5t-11.5 38.5l129 504h594q0 -28 -29 -57h-514l-119 -451z" />
    <glyph glyph-name="six" unicode="6" 
d="M598 852q196 0 307 -119.5t111 -308.5q0 -120 -51.5 -219.5t-155.5 -162t-242 -62.5q-456 0 -456 651q0 363 128.5 542t360.5 179q108 0 181 -19.5t153 -66.5q8 -13 8 -31q0 -24 -8 -37q-76 50 -147.5 71t-174.5 21q-97 0 -169.5 -26.5t-130 -87.5t-91 -167.5
t-41.5 -260.5q85 55 180.5 79.5t237.5 24.5zM561 41q183 0 286 103.5t103 279.5q0 77 -23.5 142.5t-71.5 118t-130 82.5t-190 30q-71 0 -176.5 -31.5t-182.5 -85.5v-49q0 -311 98.5 -450.5t286.5 -139.5z" />
    <glyph glyph-name="seven" unicode="7" 
d="M958 1331q14 -8 27.5 -30.5t13.5 -43.5l-634 -1257q-63 -16 -60 0q0 21 280 579t341 654l26 41h-794q-16 28 0 57h800z" />
    <glyph glyph-name="eight" unicode="8" 
d="M684 702q158 -42 236.5 -135t78.5 -209q0 -95 -35.5 -169t-97 -118.5t-138.5 -67.5t-165 -23q-89 0 -166.5 22t-138.5 65t-96 113.5t-35 161.5q0 131 83 232.5t193 138.5q-217 82 -217 311q0 143 108.5 235.5t268.5 92.5q103 0 187.5 -36t136.5 -108t53 -168
q0 -114 -77 -208t-179 -130zM252 1034q0 -47 6 -81.5t26 -72.5t55.5 -65.5t97 -51.5t147.5 -38q112 12 201 108t89 205q0 124 -86 188t-225 64q-140 0 -225.5 -71.5t-85.5 -184.5zM563 41q171 0 271 81.5t100 235.5q0 55 -19.5 103t-62.5 92.5t-123.5 78t-191.5 48.5l-35 6
q-57 -11 -110.5 -38.5t-98.5 -68.5t-72.5 -99t-27.5 -124q0 -81 29.5 -143t81.5 -98.5t117 -55t142 -18.5z" />
    <glyph glyph-name="nine" unicode="9" 
d="M559 1352q457 0 457 -652q0 -363 -129 -541.5t-361 -178.5q-107 0 -180 19.5t-153 66.5q-9 15 -9 30q0 22 9 37q76 -50 147 -71t174 -21q97 0 169.5 26.5t130 87.5t91 168t41.5 261q-85 -55 -181 -80t-237 -25q-196 0 -306.5 119.5t-110.5 308.5q0 120 51.5 220
t155 162.5t241.5 62.5zM592 535q72 0 176.5 31t181.5 85v49q0 311 -98.5 450.5t-286.5 139.5q-183 0 -286 -103.5t-103 -279.5q0 -61 14.5 -115t46.5 -101.5t79.5 -82t118 -54t157.5 -19.5z" />
    <glyph glyph-name="colon" unicode=":" horiz-adv-x="509" 
d="M254 819q-41 0 -69.5 29t-28.5 70q0 40 28.5 68t69.5 28t69.5 -28t28.5 -68q0 -41 -28.5 -70t-69.5 -29zM254 -10q-41 0 -69.5 28.5t-28.5 69.5q0 40 28.5 68t69.5 28t69.5 -28t28.5 -68q0 -41 -28.5 -69.5t-69.5 -28.5z" />
    <glyph glyph-name="semicolon" unicode=";" horiz-adv-x="571" 
d="M293 819q-41 0 -69.5 29t-28.5 70q0 40 28.5 68t69.5 28t69.5 -28t28.5 -68q0 -41 -28.5 -70t-69.5 -29zM297 184q40 0 70 -32t30 -78q0 -78 -59 -174t-121 -140q-9 1 -23 11t-20 18q38 33 79.5 91.5t59.5 109.5q-4 -2 -16 -2q-41 0 -69.5 28.5t-28.5 69.5t28.5 69.5
t69.5 28.5z" />
    <glyph glyph-name="less" unicode="&#x3c;" 
d="M903 227q31 -18 35 -34.5t-12 -45.5l-768 433q-20 11 -27.5 21t-7.5 28t7.5 28t27.5 21l768 432q16 -29 12 -45.5t-35 -34.5l-713 -401z" />
    <glyph glyph-name="equal" unicode="=" 
d="M143 805q0 33 11.5 45t48.5 12h780q0 -34 -11 -45.5t-48 -11.5h-781zM143 395q0 34 11.5 46t48.5 12h780q0 -34 -11 -46t-48 -12h-781z" />
    <glyph glyph-name="greater" unicode="&#x3e;" 
d="M969 678q20 -11 27.5 -21t7.5 -28t-7.5 -28t-27.5 -21l-768 -433q-16 29 -12.5 45.5t34.5 34.5l713 402l-713 401q-31 18 -34.5 34.5t12.5 45.5z" />
    <glyph glyph-name="question" unicode="?" horiz-adv-x="1019" 
d="M539 1475q165 0 266.5 -90.5t101.5 -247.5q0 -54 -19 -111t-61 -120t-123.5 -118t-191.5 -88l41 -303q-24 -21 -61 -8l-39 277q-5 31 -3 50.5t16 31t48 20.5q158 45 242 152.5t84 230.5q0 129 -87 195.5t-247 66.5q-137 0 -320 -94q-6 8 -8 27t4 34q153 95 357 95z
M565 184q41 0 70 -28t29 -68q0 -41 -29 -69.5t-70 -28.5t-69.5 28.5t-28.5 69.5q0 40 28.5 68t69.5 28z" />
    <glyph glyph-name="at" unicode="@" horiz-adv-x="1546" 
d="M780 1270q135 0 257 -51.5t209 -139t138.5 -207.5t51.5 -251q0 -125 -26.5 -226.5t-83.5 -166t-136 -64.5q-157 0 -184 186q-57 -89 -137.5 -135.5t-174.5 -46.5q-89 0 -157.5 58t-102 148t-33.5 195q0 205 105.5 324t263.5 119q99 0 182.5 -29t108.5 -57v-529
q0 -96 40 -135t91 -39q49 0 85 35t55.5 95t28.5 126.5t9 141.5q0 119 -46 227.5t-124.5 187t-188.5 125.5t-231 47q-123 0 -234.5 -49.5t-192 -133t-128 -199t-47.5 -242.5q0 -169 80 -313t219 -228t303 -84q142 0 281 59q20 -30 20 -61q-130 -59 -301 -59q-181 0 -335 92
t-243 250t-89 344t89 344t243 250t335 92zM700 225q98 0 168.5 53.5t132.5 145.5v475q-105 55 -223 55q-156 0 -235.5 -106t-79.5 -279q0 -91 21 -160t56 -108t75.5 -57.5t84.5 -18.5z" />
    <glyph glyph-name="A" unicode="A" horiz-adv-x="1218" 
d="M1100 0l-156 393h-676l-149 -393h-68l516 1337q12 5 32 5t32 -5l536 -1337h-67zM291 451h631l-322 809z" />
    <glyph glyph-name="B" unicode="B" horiz-adv-x="1130" 
d="M680 715q178 -23 258 -106.5t80 -235.5q0 -164 -137.5 -268.5t-358.5 -104.5h-317v1317q152 35 309 35q195 0 312.5 -90t117.5 -234q0 -260 -264 -313zM877 1012q0 120 -95.5 200t-287.5 80q-148 0 -228 -22v-529h254q179 0 268 72.5t89 198.5zM514 57q211 0 324.5 84
t113.5 232q0 163 -105 237t-327 74h-254v-627h248z" />
    <glyph glyph-name="C" unicode="C" horiz-adv-x="1300" 
d="M1208 162q-176 -182 -495 -182q-131 0 -240 44.5t-189.5 130t-125.5 218t-45 299.5q0 160 44.5 289t124 214.5t190 131t241.5 45.5q320 0 495 -197q0 -18 -13.5 -32t-33.5 -19q-60 86 -177 136t-271 50q-247 0 -392 -165.5t-145 -452.5q0 -297 145.5 -464t391.5 -167
q278 0 454 168z" />
    <glyph glyph-name="D" unicode="D" horiz-adv-x="1333" 
d="M514 1352q337 0 523 -179.5t186 -488.5q0 -319 -201 -500.5t-543 -183.5h-274v1311q178 41 309 41zM479 57q327 0 502.5 158.5t175.5 468.5q0 292 -163.5 449t-465.5 157q-174 0 -262 -37v-1196h213z" />
    <glyph glyph-name="E" unicode="E" horiz-adv-x="1044" 
d="M922 1274h-656v-580h553q0 -26 -16 -57h-537v-580h656v-57h-717v1331h717v-57z" />
    <glyph glyph-name="F" unicode="F" horiz-adv-x="1003" 
d="M922 1274h-656v-580h553q0 -26 -16 -57h-537v-637h-61v1331h717v-57z" />
    <glyph glyph-name="G" unicode="G" horiz-adv-x="1361" 
d="M1188 612q26 20 61 9v-459q-85 -88 -224 -135t-312 -47q-131 0 -240 44.5t-189.5 130t-125.5 218t-45 299.5q0 160 44.5 289t124 214.5t190 131t241.5 45.5q320 0 495 -197q0 -19 -13.5 -32.5t-33.5 -18.5q-137 186 -448 186q-247 0 -392 -165.5t-145 -452.5
q0 -297 145.5 -464t391.5 -167q308 0 475 139v432z" />
    <glyph glyph-name="H" unicode="H" horiz-adv-x="1374" 
d="M1108 1331q30 15 61 0v-1331h-61v647h-842v-647h-61v1331q31 15 61 0v-626h842v626z" />
    <glyph glyph-name="I" unicode="I" horiz-adv-x="471" 
d="M266 0h-61v1331q31 15 61 0v-1331z" />
    <glyph glyph-name="J" unicode="J" horiz-adv-x="573" 
d="M307 1341q31 15 62 0v-1187q0 -287 -213 -287q-73 0 -136 18q0 36 9 60q81 -19 139 -19q139 0 139 205v1210z" />
    <glyph glyph-name="K" unicode="K" horiz-adv-x="1077" 
d="M1026 0h-92l-668 653v-653h-61v1331q31 12 61 0v-637l627 637q45 14 90 0l-655 -657z" />
    <glyph glyph-name="L" unicode="L" horiz-adv-x="991" 
d="M266 57h643v-57h-704v1331q31 15 61 0v-1274z" />
    <glyph glyph-name="M" unicode="M" horiz-adv-x="1597" 
d="M1292 1331q48 13 101 0v-1331h-62v1278l-502 -1143q-20 -6 -30.5 -6t-30.5 6l-502 1143v-1278h-61v1331q53 13 100 0l494 -1102z" />
    <glyph glyph-name="N" unicode="N" horiz-adv-x="1431" 
d="M1165 1331h62v-1331q-31 -12 -62 0l-899 1225v-1225h-61v1331q31 12 61 0l899 -1222v1222z" />
    <glyph glyph-name="O" unicode="O" horiz-adv-x="1464" 
d="M733 -20q-284 0 -452 186t-168 500t168 500t452 186t452.5 -186t168.5 -500t-168.5 -500t-452.5 -186zM733 41q263 0 409 163.5t146 461.5t-146 461t-409 163t-409 -163t-146 -461t146 -461.5t409 -163.5z" />
    <glyph glyph-name="P" unicode="P" horiz-adv-x="1067" 
d="M494 1352q105 0 190.5 -25t140.5 -65t92 -94t52.5 -110t15.5 -114q0 -207 -148 -345t-395 -138h-176v-461h-61v1317q143 35 289 35zM422 518q133 0 231 33t155.5 92t84.5 134t27 167q0 70 -23 129.5t-73 110t-141 79.5t-216 29q-119 0 -201 -24v-750h156z" />
    <glyph glyph-name="Q" unicode="Q" horiz-adv-x="1464" 
d="M1354 666q0 -178 -57 -318.5t-162 -230.5l190 -238q-3 -15 -15.5 -25t-27.5 -10l-190 238q-151 -102 -359 -102q-284 0 -452 186t-168 500t168 500t452 186t452.5 -186t168.5 -500zM733 41q188 0 322 86l-267 332q3 15 15.5 25t27.5 10l267 -332q190 161 190 504
q0 298 -146 461t-409 163t-409 -163t-146 -461t146 -461.5t409 -163.5z" />
    <glyph glyph-name="R" unicode="R" horiz-adv-x="1132" 
d="M1030 0h-76l-352 532q-62 -10 -119 -10h-217v-522h-61v1317q143 35 289 35q102 0 185.5 -22.5t139 -60.5t94 -88.5t55.5 -105.5t17 -114q0 -152 -84.5 -261.5t-232.5 -152.5zM463 580q237 0 347 100.5t110 280.5q0 73 -23.5 131.5t-74 104t-139 70.5t-210.5 25
q-126 0 -207 -24v-688h197z" />
    <glyph glyph-name="S" unicode="S" horiz-adv-x="1034" 
d="M850 1243q-147 49 -287 49q-165 0 -249.5 -65.5t-84.5 -188.5q0 -114 68.5 -180.5t249.5 -136.5q194 -75 274 -160.5t80 -220.5q0 -173 -117.5 -269t-302.5 -96q-172 0 -346 56q-8 35 10 65q197 -59 334 -59q164 0 260.5 78t96.5 223q0 114 -77 188t-270 152
q-174 69 -249.5 152t-75.5 194q0 162 106.5 247t311.5 85q125 0 274 -41q15 -29 -6 -72z" />
    <glyph glyph-name="T" unicode="T" horiz-adv-x="1001" 
d="M76 1331h874q0 -36 -24 -57h-394v-1274h-61v1274h-420q0 40 25 57z" />
    <glyph glyph-name="U" unicode="U" horiz-adv-x="1292" 
d="M647 -20q-226 0 -354.5 142t-128.5 419v790q30 15 61 0v-811q0 -220 110 -349.5t310 -129.5q190 0 306 127t116 352v811q31 15 61 0v-790q0 -267 -125.5 -414t-355.5 -147z" />
    <glyph glyph-name="V" unicode="V" horiz-adv-x="1177" 
d="M1059 1331q33 15 67 0l-516 -1337q-32 -10 -63 0l-496 1337q34 15 68 0l461 -1237z" />
    <glyph glyph-name="W" unicode="W" horiz-adv-x="1714" 
d="M1599 1331q32 14 64 0l-336 -1333q-41 -13 -82 0l-387 1259l-389 -1259q-41 -13 -82 0l-336 1333q32 14 64 0l313 -1243l383 1241q48 17 90 2l385 -1245z" />
    <glyph glyph-name="X" unicode="X" horiz-adv-x="1185" 
d="M1135 0h-76l-465 633l-467 -633h-76l504 684l-483 657q38 16 75 0l445 -604l446 604q42 15 76 0l-483 -657z" />
    <glyph glyph-name="Y" unicode="Y" horiz-adv-x="1073" 
d="M1022 1331l-455 -794v-537h-61v537l-455 794q15 7 36 7t36 -7l414 -721l413 721q15 7 36 7t36 -7z" />
    <glyph glyph-name="Z" unicode="Z" horiz-adv-x="1234" 
d="M1094 57q11 -34 8 -57h-938q-9 4 -20 17.5t-11 27.5l885 1229h-834q-20 26 -16 57h883q12 -5 26.5 -24.5t14.5 -36.5l-873 -1213h875z" />
    <glyph glyph-name="bracketleft" unicode="[" horiz-adv-x="468" 
d="M266 -147h142q20 -20 20 -58h-223v1745h223q0 -37 -20 -57h-142v-1630z" />
    <glyph glyph-name="backslash" unicode="\" horiz-adv-x="417" 
d="M438 -82q-40 0 -51.5 15.5t-28.5 93.5l-378 1411q40 0 51 -15t28 -94z" />
    <glyph glyph-name="bracketright" unicode="]" horiz-adv-x="468" 
d="M41 1540h223v-1745h-223q0 38 20 58h142v1630h-142q-20 20 -20 57z" />
    <glyph glyph-name="underscore" unicode="_" horiz-adv-x="774" 
d="M-72 -78q0 34 11.5 46t48.5 12h858q0 -34 -11.5 -46t-48.5 -12h-858z" />
    <glyph glyph-name="grave" unicode="`" horiz-adv-x="288" 
d="M246 1161l-187 250q-43 58 -43 70q0 17 27 35l6 4l230 -340z" />
    <glyph glyph-name="a" unicode="a" horiz-adv-x="968" 
d="M483 1034q151 0 236.5 -77.5t85.5 -258.5v-698q-28 0 -42.5 15t-14.5 59v100q-53 -98 -156.5 -141t-210.5 -43q-47 0 -90 13.5t-82 42.5t-62.5 82t-23.5 124q0 70 25.5 126t72.5 92.5t104.5 62t132 38.5t142.5 18.5t148 6.5v68q0 79 -14.5 136t-37.5 91t-59.5 53.5
t-74 26t-87.5 6.5q-72 0 -170.5 -28.5t-107.5 -28.5q-28 0 -37 22l-6 16q187 76 329 76zM403 47q60 0 117 17.5t110 54.5t85.5 106t32.5 162v152h-48q-138 0 -241 -21.5t-161.5 -60t-86 -84t-27.5 -99.5q0 -67 16.5 -113t48 -70t68.5 -34t86 -10z" />
    <glyph glyph-name="b" unicode="b" horiz-adv-x="1103" 
d="M573 1026q109 0 191 -35.5t130.5 -99.5t72.5 -146.5t24 -183.5q0 -277 -115 -429t-317 -152q-97 0 -181 22t-136 51q0 -30 -14 -41.5t-44 -11.5v1391q18 22 58 22v-483q66 42 157 69t174 27zM524 39q90 0 160.5 29.5t116 78t75 117t42 141.5t12.5 156q0 406 -385 406
q-80 0 -160 -27t-143 -70v-751q70 -39 148.5 -59.5t133.5 -20.5z" />
    <glyph glyph-name="c" unicode="c" horiz-adv-x="948" 
d="M850 98l16 -53q-62 -28 -152 -46.5t-177 -18.5q-195 0 -309.5 136t-114.5 384q0 251 129.5 392.5t353.5 141.5q153 0 270 -35q0 -43 -22 -65q-39 14 -109.5 28.5t-124.5 14.5q-115 0 -201.5 -39.5t-136 -107.5t-74 -151t-24.5 -179q0 -103 22.5 -186.5t69 -147t124 -98.5
t181.5 -35q131 0 279 65z" />
    <glyph glyph-name="d" unicode="d" horiz-adv-x="1103" 
d="M862 1391q10 9 28.5 15.5t29.5 6.5v-1413q-55 0 -58 51q-69 -32 -165.5 -51.5t-186.5 -19.5q-83 0 -150.5 25t-113 68t-76 103.5t-44 129.5t-13.5 147q0 277 115 429t317 152q97 0 181 -22t136 -51v430zM174 453q0 -112 27.5 -194.5t77.5 -129t112 -68.5t139 -22
q91 0 180.5 22t151.5 54v780q-62 34 -139.5 57t-142.5 23q-406 0 -406 -522z" />
    <glyph glyph-name="e" unicode="e" horiz-adv-x="1042" 
d="M920 498h-746v-21q0 -201 102 -320.5t285 -119.5q77 0 163 20t146 52q19 -19 25 -54q-158 -75 -348 -75q-139 0 -238.5 65t-147.5 176t-48 256q0 271 116.5 414t319.5 143q177 0 279 -119.5t102 -326.5q0 -42 -10 -90zM535 977q-149 0 -245.5 -105.5t-113.5 -316.5h688
q2 8 2 33q0 193 -88 291t-243 98z" />
    <glyph glyph-name="f" unicode="f" horiz-adv-x="667" 
d="M516 1395q-112 0 -174.5 -92t-62.5 -222v-67h296q0 -29 -16 -53h-280v-961h-58v961h-119q0 12 9.5 25t38.5 25t71 13v57q0 172 88.5 270.5t257.5 98.5q56 0 80 -8q0 -34 -16 -53q-69 6 -115 6z" />
    <glyph glyph-name="g" unicode="g" horiz-adv-x="1103" 
d="M862 948q3 66 58 66v-1032q0 -36 -2 -66.5t-10.5 -72.5t-23.5 -75t-43 -67.5t-66 -57.5t-96 -38t-130 -15q-169 0 -301 60q0 31 20 61q149 -63 281 -63q166 0 239.5 80.5t73.5 246.5v125q-70 -47 -167 -76.5t-185 -29.5q-103 0 -181.5 39.5t-124.5 107t-68.5 149
t-22.5 173.5q0 273 120.5 422t331.5 149q95 0 174 -24.5t123 -61.5zM530 53q97 0 186 32t146 87v717q-66 41 -139 63.5t-123 22.5q-95 0 -169 -26.5t-122 -72t-79 -111t-43.5 -138t-12.5 -158.5q0 -218 95.5 -317t260.5 -99z" />
    <glyph glyph-name="h" unicode="h" horiz-adv-x="1091" 
d="M586 1024q174 0 258 -88t84 -281v-655h-58v651q0 165 -77.5 240.5t-245.5 75.5q-148 0 -305 -97v-870h-58v1389q10 10 28 17t30 7v-483q168 94 344 94z" />
    <glyph glyph-name="i" unicode="i" horiz-adv-x="428" 
d="M213 1245q-30 0 -54 23t-24 51q0 29 23.5 52.5t54.5 23.5q32 0 56 -23t24 -53q0 -28 -24 -51t-56 -23zM184 0v1014q12 9 29 9t29 -9v-1014h-58z" />
    <glyph glyph-name="j" unicode="j" horiz-adv-x="428" 
d="M213 1245q-30 0 -54 23t-24 51q0 29 23.5 52.5t54.5 23.5q32 0 56 -23t24 -53q0 -28 -24 -51t-56 -23zM37 -471q-11 3 -23.5 19t-15.5 34q80 59 133 170.5t53 253.5v1008q31 20 58 0v-959q0 -187 -59 -324.5t-146 -201.5z" />
    <glyph glyph-name="k" unicode="k" horiz-adv-x="944" 
d="M928 0h-82l-604 571v-571h-58v1389q10 10 28 17t30 7v-819l479 420q15 4 41 4t41 -4l-492 -430z" />
    <glyph glyph-name="l" unicode="l" horiz-adv-x="425" 
d="M184 0v1389q10 10 28 17t30 7v-1413h-58z" />
    <glyph glyph-name="m" unicode="m" horiz-adv-x="1716" 
d="M1210 1024q176 0 259 -85t83 -284v-655h-57v651q0 178 -65 247t-236 69q-91 0 -176.5 -29t-147.5 -68q37 -78 37 -215v-655h-57v651q0 87 -13 143.5t-46.5 97t-92.5 58t-151 17.5q-149 0 -305 -97v-870h-58v1014q34 0 46 -21t12 -63q58 35 143.5 64.5t179.5 29.5
q202 0 279 -106q32 20 74.5 40t127 43t164.5 23z" />
    <glyph glyph-name="n" unicode="n" horiz-adv-x="1091" 
d="M586 1024q174 0 258 -88t84 -281v-655h-58v651q0 165 -77.5 240.5t-245.5 75.5q-148 0 -305 -97v-870h-58v1014q34 0 46 -20.5t12 -63.5q168 94 344 94z" />
    <glyph glyph-name="o" unicode="o" horiz-adv-x="1159" 
d="M580 -20q-212 0 -339.5 143.5t-127.5 378.5q0 236 128 384t339 148t339 -148t128 -384q0 -235 -127.5 -378.5t-339.5 -143.5zM580 37q191 0 298 122t107 343q0 222 -107.5 348.5t-297.5 126.5t-298 -126.5t-108 -348.5q0 -221 107.5 -343t298.5 -122z" />
    <glyph glyph-name="p" unicode="p" horiz-adv-x="1103" 
d="M573 1026q109 0 191 -35.5t130.5 -99.5t72.5 -146.5t24 -183.5q0 -277 -115 -429t-317 -152q-96 0 -179.5 21.5t-137.5 49.5v-438q-10 -9 -28.5 -16t-29.5 -7v1424q58 0 58 -72v-12q66 42 157 69t174 27zM524 39q90 0 160.5 29.5t116 78t75 117t42 141.5t12.5 156
q0 406 -385 406q-80 0 -160 -27t-143 -70v-757q69 -38 146.5 -56t135.5 -18z" />
    <glyph glyph-name="q" unicode="q" horiz-adv-x="1103" 
d="M864 961q6 53 56 53v-1409q-26 -15 -58 -15v461q-69 -32 -165.5 -51.5t-186.5 -19.5q-83 0 -150.5 25t-113 68t-76 103.5t-44 129.5t-13.5 147q0 277 115 429t317 152q180 0 319 -73zM530 39q91 0 180.5 22t151.5 54v780q-62 34 -139.5 57t-142.5 23q-406 0 -406 -522
q0 -112 27.5 -194.5t77.5 -129t112 -68.5t139 -22z" />
    <glyph glyph-name="r" unicode="r" horiz-adv-x="665" 
d="M588 1024q6 -12 6 -29q0 -11 -6 -32q-40 4 -66 4q-38 0 -95 -19t-113 -58.5t-72 -84.5v-805h-58v1014q37 0 47.5 -22.5t10.5 -73.5v-33q53 72 148.5 105.5t180.5 33.5h17z" />
    <glyph glyph-name="s" unicode="s" horiz-adv-x="862" 
d="M129 80q142 -43 270 -43q118 0 200.5 59.5t82.5 151.5q0 48 -16.5 84t-55 65.5t-83 50.5t-119.5 50q-139 55 -206 119t-67 155q0 130 92.5 196t249.5 66q70 0 143 -14.5t105 -30.5q0 -23 -12 -57q-112 47 -221 47q-149 0 -222 -50t-73 -143q0 -76 54 -132.5t198 -110.5
q169 -62 229.5 -125.5t60.5 -151.5q0 -97 -49 -163t-128 -94.5t-183 -28.5q-135 0 -250 36q-6 15 -6 35t6 29z" />
    <glyph glyph-name="t" unicode="t" horiz-adv-x="731" 
d="M604 55q25 -16 25 -49q-53 -29 -189 -29q-118 0 -176.5 59t-58.5 200v725h-103q0 55 55.5 109t104.5 54v-110h342q0 -32 -24 -53h-318v-711q0 -116 43.5 -165.5t143.5 -49.5q63 0 155 20z" />
    <glyph glyph-name="u" unicode="u" horiz-adv-x="1091" 
d="M850 1010q18 14 57 14v-1024q-37 0 -47 22.5t-10 73.5v23q-189 -129 -383 -129q-154 0 -228.5 93t-74.5 296v631q18 14 57 14v-635q0 -178 60.5 -260t203.5 -82q97 0 196 43t169 98v822z" />
    <glyph glyph-name="v" unicode="v" horiz-adv-x="862" 
d="M776 1014q33 14 66 0l-375 -1014q-16 -8 -37 -8q-19 0 -35 8l-375 1014q33 14 66 0l346 -942z" />
    <glyph glyph-name="w" unicode="w" horiz-adv-x="1339" 
d="M1249 1014q15 8 34.5 8t31.5 -8l-273 -1014q-12 -8 -34 -8q-30 0 -41 8l-297 938l-297 -938q-11 -8 -41 -8q-23 0 -35 8l-272 1014q12 8 31 8t34 -8l246 -934l299 934q35 15 70 0l299 -934z" />
    <glyph glyph-name="x" unicode="x" horiz-adv-x="909" 
d="M41 0q38 -21 76 0l338 455l336 -455q39 -22 77 0l-379 504l369 510q-37 23 -74 0l-329 -459l-326 459q-39 22 -78 0l367 -510z" />
    <glyph glyph-name="y" unicode="y" horiz-adv-x="923" 
d="M829 1014q20 8 32 8t32 -8l-379 -932q-57 -136 -153 -270.5t-207 -221.5q-38 5 -56 43q116 86 188.5 180.5t145.5 231.5l4 6l-405 963q23 6 33.5 6t33.5 -6l369 -889z" />
    <glyph glyph-name="z" unicode="z" horiz-adv-x="1019" 
d="M891 53q6 -12 6 -26q0 -12 -6 -27h-729q-12 9 -24 29.5t-15 38.5l692 893h-665q-7 14 -7 26q0 9 7 27h688q9 -5 22 -26.5t17 -41.5l-693 -893h707z" />
    <glyph glyph-name="braceleft" unicode="{" horiz-adv-x="491" 
d="M408 -154q32 -8 32 -45q-27 -6 -51 -6q-95 0 -151 61t-56 164q0 83 41 249t41 249q0 54 -51.5 87.5t-101.5 33.5h-60v8q0 31 11 40t49 9q50 0 101.5 33.5t51.5 87.5q0 83 -41 249t-41 249q0 103 56 164t151 61q24 0 51 -6q0 -37 -32 -45q-73 0 -118.5 -38.5t-45.5 -121.5
q0 -82 41 -246.5t41 -246.5q0 -65 -36.5 -109.5t-94.5 -58.5q58 -14 94.5 -58.5t36.5 -109.5q0 -82 -41 -247t-41 -247q0 -83 45.5 -121.5t118.5 -38.5z" />
    <glyph glyph-name="bar" unicode="|" horiz-adv-x="471" 
d="M205 -197v1735q31 15 61 0v-1735q-30 -15 -61 0z" />
    <glyph glyph-name="braceright" unicode="}" horiz-adv-x="491" 
d="M381 696h59v-8q0 -31 -10.5 -40t-48.5 -9q-50 0 -102 -33.5t-52 -87.5q0 -83 41 -249t41 -249q0 -103 -56 -164t-151 -61q-24 0 -51 6q0 36 33 45q73 0 118.5 38.5t45.5 121.5q0 82 -41 247t-41 247q0 65 36.5 109.5t94.5 58.5q-58 14 -94.5 58.5t-36.5 109.5
q0 82 41 246.5t41 246.5q0 83 -45.5 121.5t-118.5 38.5q-33 9 -33 45q27 6 51 6q95 0 151 -61t56 -164q0 -83 -41 -249t-41 -249q0 -54 52 -87.5t102 -33.5z" />
    <glyph glyph-name="exclamdown" unicode="&#xa1;" horiz-adv-x="524" 
d="M262 1044q41 0 69.5 -28.5t28.5 -69.5q0 -40 -28.5 -68t-69.5 -28t-69.5 28t-28.5 68q0 41 28.5 69.5t69.5 28.5zM285 686q14 -377 10 -1102q-34 -17 -68 0q-4 701 11 1102h47z" />
    <glyph glyph-name="cent" unicode="&#xa2;" 
d="M637 213q137 0 283 63l12 -51q-62 -28 -152.5 -46.5t-177.5 -18.5q-29 0 -43 2l-33 -260q-28 -12 -55 8q1 10 6 50.5t12 96.5t13 113q-152 33 -238 164t-86 346q0 241 120 381.5t329 152.5l32 252q28 13 56 -8l-29 -244q147 -4 246 -34q0 -43 -23 -66q-39 15 -108 29
t-123 14q-55 -483 -113 -940q46 -4 72 -4zM240 680q0 -177 65.5 -295.5t204.5 -155.5q30 264 111 926q-100 -10 -175.5 -52.5t-119 -109t-65 -145t-21.5 -168.5z" />
    <glyph glyph-name="sterling" unicode="&#xa3;" 
d="M242 57h780q0 -34 -23 -57h-821q-12 8 -25.5 28.5t-13.5 32.5l58 45q82 55 131 167.5t49 242.5q0 42 -12 82h-222q7 30 20 43.5t44 13.5h137q-14 31 -56 106t-63.5 134.5t-21.5 122.5q0 160 100.5 254t247.5 94q115 0 203.5 -25.5t175.5 -85.5q16 -43 -12 -71
q-101 71 -178.5 96t-164.5 25q-139 0 -223 -72.5t-84 -210.5q0 -60 22.5 -120t63.5 -135.5t56 -111.5h415q-3 -57 -41 -57h-354q14 -41 14 -90q0 -138 -58 -254.5t-144 -196.5z" />
    <glyph glyph-name="currency" unicode="&#xa4;" 
d="M872 346q122 -70 222 -192q-26 -38 -62 -45l-203 200q-115 -78 -266 -78q-155 0 -262 78l-203 -200q-35 7 -61 45q102 124 219 190q-129 126 -129 336t129 336q-117 66 -219 190q26 38 61 45l203 -200q106 77 262 77q153 0 266 -77l203 200q36 -7 62 -45
q-100 -122 -222 -192q132 -123 132 -334t-132 -334zM193 680q0 -184 97 -286t273 -101q179 2 277 103t98 284t-98 284t-277 103q-177 -1 -273.5 -102.5t-96.5 -284.5z" />
    <glyph glyph-name="yen" unicode="&#xa5;" 
d="M844 539h-250v-224h291q-3 -57 -41 -57h-250v-258h-62v258h-288q7 30 19.5 43.5t43.5 13.5h225v224h-288q7 30 19.5 43.5t43.5 13.5h195l-383 735q35 17 69 0l375 -721l375 721q35 17 70 0l-383 -735h260q-3 -57 -41 -57z" />
    <glyph glyph-name="brokenbar" unicode="&#xa6;" horiz-adv-x="471" 
d="M205 743v795q31 15 61 0v-795h-61zM205 -195v795h61v-795q-30 -15 -61 0z" />
    <glyph glyph-name="section" unicode="&#xa7;" 
d="M737 340q88 -42 125 -95t37 -130q0 -156 -112 -243t-289 -87q-137 0 -271 49q-9 36 11 66q153 -54 258 -54q156 0 248 69.5t92 197.5q0 40 -12.5 70.5t-45.5 61.5t-96 57.5t-158 51.5q-159 41 -226 104.5t-67 186.5q0 98 59 162t163 86q-107 51 -157 107.5t-50 132.5
q0 147 96.5 224t282.5 77q117 0 247 -37q13 -33 -6 -70q-134 45 -258 45q-146 0 -221.5 -58.5t-75.5 -166.5q0 -89 57.5 -135.5t215.5 -106.5q179 -67 248 -135.5t69 -167.5q0 -106 -44 -172.5t-120 -89.5zM297 659q0 -110 60.5 -162t224.5 -100q46 -13 82 -26
q80 0 127 59.5t47 169.5q0 71 -68.5 132.5t-239.5 127.5q-109 -12 -171 -64.5t-62 -136.5z" />
    <glyph glyph-name="dieresis" unicode="&#xa8;" horiz-adv-x="442" 
d="M88 1274q-32 0 -55 21t-23 53q0 33 23 54t55 21q33 0 56.5 -21t23.5 -54q0 -32 -23.5 -53t-56.5 -21zM352 1274q-32 0 -55 21t-23 53q0 33 23 54t55 21q33 0 56.5 -21t23.5 -54q0 -32 -23.5 -53t-56.5 -21z" />
    <glyph glyph-name="copyright" unicode="&#xa9;" horiz-adv-x="1556" 
d="M780 -20q-181 0 -335 92t-243 250t-89 344t89 344t243 250t335 92t334 -92t242.5 -250t89.5 -344t-89.5 -344t-242.5 -250t-334 -92zM780 41q163 0 301.5 84t218.5 228t80 313q0 127 -47.5 242.5t-128 199t-191.5 133t-233 49.5q-123 0 -234.5 -49.5t-192 -133t-128 -199
t-47.5 -242.5q0 -169 80 -313t219 -228t303 -84zM784 252q-159 0 -251.5 109.5t-92.5 306.5q0 200 105 314t286 114q114 0 216 -29q0 -15 -6.5 -34t-16.5 -27q-28 10 -85 21t-95 11q-90 0 -157.5 -30t-107 -83t-58.5 -117.5t-19 -139.5q0 -165 75.5 -261t235.5 -96
q107 0 221 49l13 -57q-48 -22 -121 -36.5t-142 -14.5z" />
    <glyph glyph-name="ordfeminine" unicode="&#xaa;" horiz-adv-x="634" 
d="M315 1378q97 0 151 -48t54 -161v-411q-57 0 -57 59v37q-33 -56 -93 -80t-120 -24q-62 0 -111 39t-49 120q0 63 32.5 106.5t91 64.5t117 29t132.5 9v31q0 106 -39.5 142t-114.5 36q-42 0 -98 -16.5t-64 -16.5q-19 0 -28 23l-6 16q112 45 202 45zM268 803q76 0 135.5 48
t59.5 142v78h-29q-147 0 -215.5 -41.5t-68.5 -103.5q0 -123 118 -123z" />
    <glyph glyph-name="guillemotleft" unicode="&#xab;" horiz-adv-x="874" 
d="M506 981l-365 -442l365 -443q-37 -15 -74 0l-291 359q-33 40 -41 54.5t-8 29.5t8 29.5t41 54.5l291 358q37 15 74 0zM834 981l-365 -442l365 -443q-37 -15 -74 0l-291 359q-33 40 -41 54.5t-8 29.5t8 29.5t41 54.5l291 358q37 15 74 0z" />
    <glyph glyph-name="registered" unicode="&#xae;" horiz-adv-x="1257" 
d="M606 1434q235 0 387 -143t152 -376q0 -239 -152.5 -385.5t-386.5 -146.5q-216 0 -354.5 146t-138.5 386q0 235 138 377t355 142zM606 432q116 0 208.5 38.5t151 105t89 153t30.5 186.5q0 97 -30.5 180.5t-89 147.5t-151 100.5t-208.5 36.5q-139 0 -239 -64t-147.5 -167.5
t-47.5 -233.5q0 -136 47.5 -243.5t147.5 -173.5t239 -66zM838 1067q0 -69 -39 -123.5t-105 -79.5l176 -274h-73l-164 260q-12 -2 -37 -2h-109v-258h-61v657q107 21 160 21q124 0 188 -60t64 -141zM573 901q102 0 152.5 45.5t50.5 120.5q0 145 -201 145q-50 0 -88 -10v-301
h86z" />
    <glyph glyph-name="macron" unicode="&#xaf;" horiz-adv-x="450" 
d="M10 1362h430v-62h-430v62z" />
    <glyph glyph-name="degree" unicode="&#xb0;" horiz-adv-x="843" 
d="M412 1352q-131 0 -215 -85.5t-84 -226.5q0 -144 84 -231.5t215 -87.5q140 0 229.5 87.5t89.5 231.5q0 141 -89.5 226.5t-229.5 85.5zM412 782q-112 0 -173 73t-61 185q0 109 60.5 179.5t173.5 70.5q123 0 188.5 -70t65.5 -180q0 -112 -66 -185t-188 -73z" />
    <glyph glyph-name="plusminus" unicode="&#xb1;" 
d="M535 391v332h-433q0 33 11.5 45t48.5 12h373v391q34 0 45.5 -11t11.5 -48v-332h432q0 -34 -11 -45.5t-48 -11.5h-373v-391q-34 0 -45.5 11t-11.5 48zM102 129q0 33 11.5 45t48.5 12h862q0 -34 -11 -45.5t-48 -11.5h-863z" />
    <glyph glyph-name="acute" unicode="&#xb4;" horiz-adv-x="288" 
d="M41 1159l-31 21l228 340l8 -4q20 -10 20 -27q0 -15 -43 -76z" />
    <glyph glyph-name="paragraph" unicode="&#xb6;" horiz-adv-x="1087" 
d="M547 1352q120 0 180.5 -8.5t155.5 -32.5v-1311h-62v1255q-34 17 -78 17q-41 0 -65 -8v-1264h-62v584h-155q-172 0 -275.5 109t-103.5 272q0 69 28 135.5t82 123.5t146.5 92.5t208.5 35.5z" />
    <glyph glyph-name="periodcentered" unicode="&#xb7;" horiz-adv-x="524" 
d="M262 469q-41 0 -69.5 28.5t-28.5 69.5q0 40 28.5 68.5t69.5 28.5t69.5 -28.5t28.5 -68.5q0 -41 -28.5 -69.5t-69.5 -28.5z" />
    <glyph glyph-name="cedilla" unicode="&#xb8;" horiz-adv-x="385" 
d="M201 -135q73 0 123.5 -42.5t50.5 -117.5q0 -51 -22.5 -88.5t-59 -57.5t-75 -29t-77.5 -9q-73 0 -131 14q0 43 8 59q68 -18 144 -18q74 0 114.5 36.5t40.5 90.5q0 46 -31 76.5t-98 30.5q-46 0 -90 -21q-14 6 -26 17.5t-9 23.5l82 170h66l-66 -143q21 8 56 8z" />
    <glyph glyph-name="ordmasculine" unicode="&#xba;" horiz-adv-x="737" 
d="M369 745q-129 0 -207 87.5t-78 228.5t78.5 230t206.5 89t206 -88.5t78 -230.5q0 -143 -77.5 -229.5t-206.5 -86.5zM369 801q106 0 165.5 68t59.5 192q0 122 -60 193t-165 71q-104 0 -164 -70.5t-60 -193.5q0 -124 59.5 -192t164.5 -68z" />
    <glyph glyph-name="guillemotright" unicode="&#xbb;" horiz-adv-x="874" 
d="M455 539q0 -15 -8 -29.5t-41 -54.5l-291 -359q-37 -15 -74 0l365 443l-365 442q37 15 74 0l291 -358q33 -40 41 -54.5t8 -29.5zM733 623q33 -40 41 -54.5t8 -29.5t-8 -29.5t-41 -54.5l-291 -359q-37 -15 -73 0l364 443l-364 442q37 15 73 0z" />
    <glyph glyph-name="onequarter" unicode="&#xbc;" horiz-adv-x="1859" 
d="M1423 1448q20 0 37 -12l-862 -1508q-9 -18 -35 -18q-23 0 -41 12l860 1508q11 18 41 18zM653 520q15 -28 0 -55h-534q-12 29 0 55h252v748q-226 -110 -250 -115q-25 10 -25 45q181 99 297 148q33 -11 39 -31v-795h221zM1780 281q11 -26 0 -54h-125v-227h-62v227h-440
q-14 4 -26 19t-15 30q102 139 264.5 336t237.5 269q10 0 23 -6.5t18 -12.5v-581h125zM1595 774q-76 -79 -210.5 -240t-196.5 -253h407v493z" />
    <glyph glyph-name="onehalf" unicode="&#xbd;" horiz-adv-x="1982" 
d="M1423 1448q20 0 37 -12l-862 -1508q-9 -18 -35 -18q-23 0 -41 12l860 1508q11 18 41 18zM653 520q15 -28 0 -55h-534q-12 29 0 55h252v748q-226 -110 -250 -115q-25 10 -25 45q181 99 297 148q33 -11 39 -31v-795h221zM1356 55h506q0 -37 -15 -55h-547q-8 7 -17 27t-9 28
l47 37q79 61 134.5 106.5t122 107.5t107.5 111.5t69 104.5t28 101q0 98 -66 148t-178 50q-119 0 -260 -94q-10 8 -12.5 25t4.5 36q135 93 286 93q121 0 205 -70t84 -195q0 -214 -489 -561z" />
    <glyph glyph-name="threequarters" unicode="&#xbe;" horiz-adv-x="1859" 
d="M1423 1448q20 0 37 -12l-862 -1508q-9 -18 -35 -18q-23 0 -41 12l860 1508q11 18 41 18zM709 694q0 -103 -85 -172t-233 -69q-159 0 -258 53q-6 18 -6 35q0 23 14 37q41 -28 106 -48t124 -20q120 0 196 47.5t76 136.5q0 193 -291 193h-98q0 40 22 53h56q150 -1 217 43
t67 143q0 73 -58.5 117.5t-151.5 44.5q-126 0 -256 -92q-11 18 -11 35t6 29q119 86 271 86q117 0 190.5 -58t73.5 -160q0 -91 -44.5 -143t-113.5 -72q85 -23 136 -80t51 -139zM1780 281q11 -26 0 -54h-125v-227h-62v227h-440q-14 4 -26 19t-15 30q102 139 264.5 336
t237.5 269q10 0 23 -6.5t18 -12.5v-581h125zM1595 774q-76 -79 -210.5 -240t-196.5 -253h407v493z" />
    <glyph glyph-name="questiondown" unicode="&#xbf;" horiz-adv-x="968" 
d="M475 850q-41 0 -69.5 28t-28.5 68q0 41 28.5 69.5t69.5 28.5t69.5 -28.5t28.5 -69.5q0 -40 -28.5 -68t-69.5 -28zM854 -285q6 -8 8 -27t-4 -34q-151 -94 -356 -94q-166 0 -267.5 90.5t-101.5 247.5q0 53 19 110.5t61 120t123.5 117.5t191.5 88l-41 303q25 21 62 8
l39 -276q6 -51 -4 -70.5t-58 -32.5q-158 -45 -241.5 -152.5t-83.5 -230.5q0 -129 87 -195.5t247 -66.5q136 0 319 94z" />
    <glyph glyph-name="Agrave" unicode="&#xc0;" horiz-adv-x="1218" 
d="M606 1485l-186 250q-43 58 -43 69q0 18 26 35l7 4l229 -340zM1100 0l-156 393h-676l-149 -393h-68l516 1337q12 5 32 5t32 -5l536 -1337h-67zM291 451h631l-322 809z" />
    <glyph glyph-name="Aacute" unicode="&#xc1;" horiz-adv-x="1218" 
d="M784 1737l-182 -254l-31 20l228 340l8 -4q20 -10 20 -27q0 -14 -43 -75zM1100 0l-156 393h-676l-149 -393h-68l516 1337q12 5 32 5t32 -5l536 -1337h-67zM291 451h631l-322 809z" />
    <glyph glyph-name="Acircumflex" unicode="&#xc2;" horiz-adv-x="1218" 
d="M432 1497q-14 0 -32 11t-21 20l190 219q7 3 29.5 3t30.5 -3l190 -219q-3 -9 -21 -20t-32 -11l-166 199zM1100 0l-156 393h-676l-149 -393h-68l516 1337q12 5 32 5t32 -5l536 -1337h-67zM291 451h631l-322 809z" />
    <glyph glyph-name="Atilde" unicode="&#xc3;" horiz-adv-x="1218" 
d="M393 1606q-12 -2 -27.5 1.5t-19.5 10.5q0 82 40.5 122t102.5 40q36 0 70.5 -18t58 -39.5t54.5 -39.5t59 -18q49 0 69.5 37t20.5 82q12 2 27.5 -1.5t19.5 -10.5q0 -81 -39.5 -121.5t-91.5 -40.5q-42 0 -80 18t-61.5 39t-54 39t-58.5 18q-49 0 -69.5 -36.5t-20.5 -81.5z
M1100 0l-156 393h-676l-149 -393h-68l516 1337q12 5 32 5t32 -5l536 -1337h-67zM291 451h631l-322 809z" />
    <glyph glyph-name="Adieresis" unicode="&#xc4;" horiz-adv-x="1218" 
d="M467 1583q-32 0 -55 21t-23 53q0 33 23 54.5t55 21.5q33 0 56.5 -21.5t23.5 -54.5q0 -32 -23.5 -53t-56.5 -21zM731 1583q-32 0 -55 21t-23 53q0 33 23 54.5t55 21.5q33 0 56.5 -21.5t23.5 -54.5q0 -32 -23.5 -53t-56.5 -21zM1100 0l-156 393h-676l-149 -393h-68
l516 1337q12 5 32 5t32 -5l536 -1337h-67zM291 451h631l-322 809z" />
    <glyph glyph-name="Aring" unicode="&#xc5;" horiz-adv-x="1218" 
d="M600 1458q-79 0 -126.5 47.5t-47.5 128.5t47.5 128.5t126.5 47.5q78 0 125 -47.5t47 -128.5t-47 -128.5t-125 -47.5zM600 1511q54 0 84.5 34.5t30.5 88.5q0 55 -30.5 89t-84.5 34q-55 0 -86 -34t-31 -89t31 -89t86 -34zM1100 0l-156 393h-676l-149 -393h-68l516 1337
q12 5 32 5t32 -5l536 -1337h-67zM291 451h631l-322 809z" />
    <glyph glyph-name="AE" unicode="&#xc6;" horiz-adv-x="1771" 
d="M989 57h660v-57h-717l-55 393h-560l-198 -393h-68l672 1331h762v-57h-664l80 -580h572q0 -24 -17 -57h-547zM346 451h524l-112 811z" />
    <glyph glyph-name="Ccedilla" unicode="&#xc7;" horiz-adv-x="1300" 
d="M713 41q278 0 454 168l41 -47q-162 -170 -460 -182l-58 -125q27 10 62 10q73 0 123.5 -42.5t50.5 -117.5q0 -85 -65 -134.5t-169 -49.5q-73 0 -131 14q0 43 8 59q68 -18 144 -18q74 0 114.5 36.5t40.5 90.5q0 46 -31 76.5t-98 30.5q-46 0 -90 -21q-14 6 -26 17.5t-9 23.5
l70 150q-257 9 -414 189.5t-157 502.5q0 160 44.5 289t124 214.5t190 131t241.5 45.5q320 0 495 -197q0 -18 -13.5 -32t-33.5 -19q-60 86 -177 136t-271 50q-247 0 -392 -165.5t-145 -452.5q0 -297 145.5 -464t391.5 -167z" />
    <glyph glyph-name="Egrave" unicode="&#xc8;" horiz-adv-x="1044" 
d="M621 1487l-187 250q-43 58 -43 69q0 17 27 35l6 4l229 -340zM922 1274h-656v-580h553q0 -26 -16 -57h-537v-580h656v-57h-717v1331h717v-57z" />
    <glyph glyph-name="Eacute" unicode="&#xc9;" horiz-adv-x="1044" 
d="M799 1739l-183 -254l-30 20l227 340l8 -4q21 -11 21 -26t-43 -76zM922 1274h-656v-580h553q0 -26 -16 -57h-537v-580h656v-57h-717v1331h717v-57z" />
    <glyph glyph-name="Ecircumflex" unicode="&#xca;" horiz-adv-x="1044" 
d="M446 1499q-14 0 -32 11t-21 20l191 219q7 3 29.5 3t29.5 -3l191 -219q-3 -9 -21 -20t-33 -11l-166 199zM922 1274h-656v-580h553q0 -26 -16 -57h-537v-580h656v-57h-717v1331h717v-57z" />
    <glyph glyph-name="Edieresis" unicode="&#xcb;" horiz-adv-x="1044" 
d="M481 1585q-32 0 -55 21t-23 53q0 33 23 54.5t55 21.5q33 0 56.5 -21.5t23.5 -54.5q0 -32 -23.5 -53t-56.5 -21zM745 1585q-31 0 -54 21t-23 53q0 33 22.5 54.5t54.5 21.5q33 0 56.5 -21.5t23.5 -54.5q0 -32 -23.5 -53t-56.5 -21zM922 1274h-656v-580h553q0 -26 -16 -57
h-537v-580h656v-57h-717v1331h717v-57z" />
    <glyph glyph-name="Igrave" unicode="&#xcc;" horiz-adv-x="471" 
d="M242 1485l-187 250q-43 58 -43 69q0 17 27 35l6 4l229 -340zM266 0h-61v1331q31 15 61 0v-1331z" />
    <glyph glyph-name="Iacute" unicode="&#xcd;" horiz-adv-x="471" 
d="M238 1483l-31 20l227 340l8 -4q21 -11 21 -27q0 -14 -43 -75zM266 0h-61v1331q31 15 61 0v-1331z" />
    <glyph glyph-name="Icircumflex" unicode="&#xce;" horiz-adv-x="471" 
d="M264 1747l191 -219q-3 -9 -21 -20t-33 -11l-165 199l-168 -199q-15 0 -33 11t-21 20l191 219q7 3 29 3t30 -3zM205 1331q31 15 61 0v-1331h-61v1331z" />
    <glyph glyph-name="Idieresis" unicode="&#xcf;" horiz-adv-x="471" 
d="M102 1583q-31 0 -54 21t-23 53q0 33 22.5 54.5t54.5 21.5q33 0 56.5 -21.5t23.5 -54.5q0 -32 -23.5 -53t-56.5 -21zM367 1583q-32 0 -55 21t-23 53q0 33 23 54.5t55 21.5q33 0 56 -21.5t23 -54.5q0 -32 -23 -53t-56 -21zM266 0h-61v1331q31 15 61 0v-1331z" />
    <glyph glyph-name="Eth" unicode="&#xd0;" horiz-adv-x="1335" 
d="M514 1352q337 0 523 -179.5t186 -488.5q0 -319 -201 -500.5t-543 -183.5h-274v637h-156q7 30 20 43.5t44 13.5h92v617q178 41 309 41zM479 57q327 0 502.5 158.5t175.5 468.5q0 292 -163.5 449t-465.5 157q-174 0 -262 -37v-559h453q-3 -57 -41 -57h-412v-580h213z" />
    <glyph glyph-name="Ntilde" unicode="&#xd1;" horiz-adv-x="1431" 
d="M510 1608q-12 -2 -27.5 1.5t-19.5 10.5q0 82 40.5 122t102.5 40q36 0 70.5 -18t58 -39.5t54.5 -39.5t59 -18q49 0 69.5 37t20.5 82q12 2 27.5 -1.5t19.5 -10.5q0 -81 -39.5 -121.5t-91.5 -40.5q-42 0 -80 18t-61.5 39t-54 39t-58.5 18q-49 0 -69.5 -36.5t-20.5 -81.5z
M1165 1331h62v-1331q-31 -12 -62 0l-899 1225v-1225h-61v1331q31 12 61 0l899 -1222v1222z" />
    <glyph glyph-name="Ograve" unicode="&#xd2;" horiz-adv-x="1464" 
d="M739 1487l-186 250q-43 58 -43 69q0 17 27 35l6 4l229 -340zM733 -20q-284 0 -452 186t-168 500t168 500t452 186t452.5 -186t168.5 -500t-168.5 -500t-452.5 -186zM733 41q263 0 409 163.5t146 461.5t-146 461t-409 163t-409 -163t-146 -461t146 -461.5t409 -163.5z" />
    <glyph glyph-name="Oacute" unicode="&#xd3;" horiz-adv-x="1464" 
d="M735 1485l-30 20l227 340l8 -4q21 -11 21 -26t-43 -76zM733 -20q-284 0 -452 186t-168 500t168 500t452 186t452.5 -186t168.5 -500t-168.5 -500t-452.5 -186zM733 41q263 0 409 163.5t146 461.5t-146 461t-409 163t-409 -163t-146 -461t146 -461.5t409 -163.5z" />
    <glyph glyph-name="Ocircumflex" unicode="&#xd4;" horiz-adv-x="1464" 
d="M565 1499q-14 0 -32 11t-21 20l190 219q7 3 30 3t30 -3l190 -219q-3 -9 -21 -20t-32 -11l-166 199zM733 1352q284 0 452.5 -186t168.5 -500t-168.5 -500t-452.5 -186t-452 186t-168 500t168 500t452 186zM733 41q263 0 409 163.5t146 461.5t-146 461t-409 163t-409 -163
t-146 -461t146 -461.5t409 -163.5z" />
    <glyph glyph-name="Otilde" unicode="&#xd5;" horiz-adv-x="1464" 
d="M526 1608q-12 -2 -27.5 1.5t-19.5 10.5q0 82 41 122t103 40q36 0 70.5 -18t57.5 -39.5t54 -39.5t59 -18q49 0 69.5 37t20.5 82q12 2 27.5 -1.5t19.5 -10.5q0 -81 -39.5 -121.5t-91.5 -40.5q-42 0 -80 18t-61.5 39t-54 39t-58.5 18q-49 0 -69.5 -36.5t-20.5 -81.5z
M733 -20q-284 0 -452 186t-168 500t168 500t452 186t452.5 -186t168.5 -500t-168.5 -500t-452.5 -186zM733 41q263 0 409 163.5t146 461.5t-146 461t-409 163t-409 -163t-146 -461t146 -461.5t409 -163.5z" />
    <glyph glyph-name="Odieresis" unicode="&#xd6;" horiz-adv-x="1464" 
d="M600 1585q-32 0 -55 21t-23 53q0 33 23 54.5t55 21.5q33 0 56.5 -21.5t23.5 -54.5q0 -32 -23.5 -53t-56.5 -21zM864 1585q-32 0 -55 21t-23 53q0 33 23 54.5t55 21.5q33 0 56.5 -21.5t23.5 -54.5q0 -32 -23.5 -53t-56.5 -21zM733 -20q-284 0 -452 186t-168 500t168 500
t452 186t452.5 -186t168.5 -500t-168.5 -500t-452.5 -186zM733 41q263 0 409 163.5t146 461.5t-146 461t-409 163t-409 -163t-146 -461t146 -461.5t409 -163.5z" />
    <glyph glyph-name="multiply" unicode="&#xd7;" 
d="M905 911l-301 -284l324 -342q-25 -25 -39 -25q-16 0 -43 27l-285 299l-340 -322q-24 24 -24 39q0 17 26 43l299 283l-323 342q24 24 39 24q17 0 43 -26l284 -299l342 323q25 -25 25 -39q0 -16 -27 -43z" />
    <glyph glyph-name="Oslash" unicode="&#xd8;" horiz-adv-x="1464" 
d="M1176 1176q178 -187 178 -510q0 -314 -168.5 -500t-452.5 -186q-239 0 -399 135l-107 -135q-19 0 -34.5 9.5t-20.5 22.5l117 146q-176 188 -176 508q0 314 168 500t452 186q236 0 397 -133l105 133q18 0 33.5 -9t21.5 -24zM178 666q0 -299 146 -461l770 969
q-137 116 -361 116q-263 0 -409 -163t-146 -461zM733 41q263 0 409 163.5t146 461.5q0 302 -147 464l-770 -970q137 -119 362 -119z" />
    <glyph glyph-name="Ugrave" unicode="&#xd9;" horiz-adv-x="1292" 
d="M653 1485l-186 250q-43 58 -43 69q0 17 27 35l6 4l229 -340zM647 -20q-226 0 -354.5 142t-128.5 419v790q30 15 61 0v-811q0 -220 110 -349.5t310 -129.5q190 0 306 127t116 352v811q31 15 61 0v-790q0 -267 -125.5 -414t-355.5 -147z" />
    <glyph glyph-name="Uacute" unicode="&#xda;" horiz-adv-x="1292" 
d="M649 1483l-31 20l228 340l8 -4q20 -10 20 -27q0 -14 -43 -75zM647 -20q-226 0 -354.5 142t-128.5 419v790q30 15 61 0v-811q0 -220 110 -349.5t310 -129.5q190 0 306 127t116 352v811q31 15 61 0v-790q0 -267 -125.5 -414t-355.5 -147z" />
    <glyph glyph-name="Ucircumflex" unicode="&#xdb;" horiz-adv-x="1292" 
d="M479 1497q-14 0 -32 11t-21 20l190 219q8 3 30.5 3t29.5 -3l190 -219q-3 -9 -21 -20t-32 -11l-166 199zM1067 1331q31 15 61 0v-790q0 -267 -125.5 -414t-355.5 -147q-226 0 -354.5 142t-128.5 419v790q30 15 61 0v-811q0 -220 110 -349.5t310 -129.5q190 0 306 127
t116 352v811z" />
    <glyph glyph-name="Udieresis" unicode="&#xdc;" horiz-adv-x="1292" 
d="M514 1583q-32 0 -55 21t-23 53q0 33 23 54.5t55 21.5q33 0 56.5 -21.5t23.5 -54.5q0 -32 -23.5 -53t-56.5 -21zM778 1583q-32 0 -55 21t-23 53q0 33 23 54.5t55 21.5q33 0 56.5 -21.5t23.5 -54.5q0 -32 -23.5 -53t-56.5 -21zM647 -20q-226 0 -354.5 142t-128.5 419v790
q30 15 61 0v-811q0 -220 110 -349.5t310 -129.5q190 0 306 127t116 352v811q31 15 61 0v-790q0 -267 -125.5 -414t-355.5 -147z" />
    <glyph glyph-name="Yacute" unicode="&#xdd;" horiz-adv-x="1073" 
d="M721 1739l-182 -254l-31 20l227 340l8 -4q21 -11 21 -26t-43 -76zM1022 1331l-455 -794v-537h-61v537l-455 794q15 7 36 7t36 -7l414 -721l413 721q15 7 36 7t36 -7z" />
    <glyph glyph-name="Thorn" unicode="&#xde;" horiz-adv-x="1067" 
d="M483 1116q232 0 367 -125t135 -315q0 -92 -34.5 -172.5t-98 -140.5t-159 -95t-210.5 -35h-217v-233h-61v1331q34 14 61 0v-215h217zM442 291q238 0 358 107t120 278t-119.5 277t-358.5 106h-176v-768h176z" />
    <glyph glyph-name="germandbls" unicode="&#xdf;" horiz-adv-x="1189" 
d="M741 752q0 54 24 113.5t53 103t53 95t24 91.5q0 242 -305 242q-172 0 -260 -103t-88 -305v-989h-58v977q0 247 108.5 362t317.5 115q160 0 253 -81.5t93 -201.5q0 -57 -24 -115.5t-52.5 -99.5t-52.5 -95t-24 -103q0 -42 31.5 -88.5t76.5 -89.5t89.5 -88.5t76 -100.5
t31.5 -110q0 -138 -90.5 -219.5t-237.5 -81.5q-103 0 -190 26q0 39 12 57q104 -26 186 -26q124 0 191.5 61.5t67.5 180.5q0 44 -31.5 92.5t-76.5 92.5t-90 89t-76.5 97t-31.5 102z" />
    <glyph glyph-name="agrave" unicode="&#xe0;" horiz-adv-x="968" 
d="M500 1161l-187 250q-43 58 -43 70q0 17 27 35l6 4l229 -340zM483 1034q151 0 236.5 -77.5t85.5 -258.5v-698q-28 0 -42.5 15t-14.5 59v100q-53 -98 -156.5 -141t-210.5 -43q-47 0 -90 13.5t-82 42.5t-62.5 82t-23.5 124q0 70 25.5 126t72.5 92.5t104.5 62t132 38.5
t142.5 18.5t148 6.5v68q0 79 -14.5 136t-37.5 91t-59.5 53.5t-74 26t-87.5 6.5q-72 0 -170.5 -28.5t-107.5 -28.5q-28 0 -37 22l-6 16q187 76 329 76zM403 47q60 0 117 17.5t110 54.5t85.5 106t32.5 162v152h-48q-138 0 -241 -21.5t-161.5 -60t-86 -84t-27.5 -99.5
q0 -67 16.5 -113t48 -70t68.5 -34t86 -10z" />
    <glyph glyph-name="aacute" unicode="&#xe1;" horiz-adv-x="968" 
d="M678 1413l-182 -254l-31 21l227 340l8 -4q21 -10 21 -27q0 -15 -43 -76zM483 1034q151 0 236.5 -77.5t85.5 -258.5v-698q-28 0 -42.5 15t-14.5 59v100q-53 -98 -156.5 -141t-210.5 -43q-47 0 -90 13.5t-82 42.5t-62.5 82t-23.5 124q0 70 25.5 126t72.5 92.5t104.5 62
t132 38.5t142.5 18.5t148 6.5v68q0 79 -14.5 136t-37.5 91t-59.5 53.5t-74 26t-87.5 6.5q-72 0 -170.5 -28.5t-107.5 -28.5q-28 0 -37 22l-6 16q187 76 329 76zM403 47q60 0 117 17.5t110 54.5t85.5 106t32.5 162v152h-48q-138 0 -241 -21.5t-161.5 -60t-86 -84t-27.5 -99.5
q0 -67 16.5 -113t48 -70t68.5 -34t86 -10z" />
    <glyph glyph-name="acircumflex" unicode="&#xe2;" horiz-adv-x="968" 
d="M326 1174q-15 0 -33 10.5t-21 19.5l191 219q8 3 29.5 3t29.5 -3l191 -219q-3 -9 -21 -19.5t-33 -10.5l-165 198zM483 1034q151 0 236.5 -77.5t85.5 -258.5v-698q-28 0 -42.5 15t-14.5 59v100q-53 -98 -156.5 -141t-210.5 -43q-47 0 -90 13.5t-82 42.5t-62.5 82t-23.5 124
q0 70 25.5 126t72.5 92.5t104.5 62t132 38.5t142.5 18.5t148 6.5v68q0 79 -14.5 136t-37.5 91t-59.5 53.5t-74 26t-87.5 6.5q-72 0 -170.5 -28.5t-107.5 -28.5q-28 0 -37 22l-6 16q187 76 329 76zM403 47q60 0 117 17.5t110 54.5t85.5 106t32.5 162v152h-48
q-138 0 -241 -21.5t-161.5 -60t-86 -84t-27.5 -99.5q0 -67 16.5 -113t48 -70t68.5 -34t86 -10z" />
    <glyph glyph-name="atilde" unicode="&#xe3;" horiz-adv-x="968" 
d="M287 1282q-12 -2 -27.5 1.5t-19.5 10.5q0 82 40.5 122t102.5 40q36 0 70.5 -18t58 -39.5t54.5 -39.5t59 -18q49 0 69.5 37t20.5 82q12 2 27.5 -1.5t19.5 -10.5q0 -81 -39.5 -121.5t-91.5 -40.5q-42 0 -80 18t-61.5 39.5t-54 39.5t-58.5 18q-49 0 -69.5 -37t-20.5 -82z
M483 1034q151 0 236.5 -77.5t85.5 -258.5v-698q-28 0 -42.5 15t-14.5 59v100q-53 -98 -156.5 -141t-210.5 -43q-47 0 -90 13.5t-82 42.5t-62.5 82t-23.5 124q0 70 25.5 126t72.5 92.5t104.5 62t132 38.5t142.5 18.5t148 6.5v68q0 79 -14.5 136t-37.5 91t-59.5 53.5t-74 26
t-87.5 6.5q-72 0 -170.5 -28.5t-107.5 -28.5q-28 0 -37 22l-6 16q187 76 329 76zM403 47q60 0 117 17.5t110 54.5t85.5 106t32.5 162v152h-48q-138 0 -241 -21.5t-161.5 -60t-86 -84t-27.5 -99.5q0 -67 16.5 -113t48 -70t68.5 -34t86 -10z" />
    <glyph glyph-name="adieresis" unicode="&#xe4;" horiz-adv-x="968" 
d="M360 1260q-32 0 -54.5 20.5t-22.5 52.5q0 33 22.5 54.5t54.5 21.5q33 0 56.5 -21.5t23.5 -54.5q0 -32 -23.5 -52.5t-56.5 -20.5zM625 1260q-32 0 -55 21t-23 52q0 33 23 54.5t55 21.5q33 0 56.5 -21.5t23.5 -54.5q0 -32 -23.5 -52.5t-56.5 -20.5zM483 1034
q151 0 236.5 -77.5t85.5 -258.5v-698q-28 0 -42.5 15t-14.5 59v100q-53 -98 -156.5 -141t-210.5 -43q-47 0 -90 13.5t-82 42.5t-62.5 82t-23.5 124q0 70 25.5 126t72.5 92.5t104.5 62t132 38.5t142.5 18.5t148 6.5v68q0 79 -14.5 136t-37.5 91t-59.5 53.5t-74 26t-87.5 6.5
q-72 0 -170.5 -28.5t-107.5 -28.5q-28 0 -37 22l-6 16q187 76 329 76zM403 47q60 0 117 17.5t110 54.5t85.5 106t32.5 162v152h-48q-138 0 -241 -21.5t-161.5 -60t-86 -84t-27.5 -99.5q0 -67 16.5 -113t48 -70t68.5 -34t86 -10z" />
    <glyph glyph-name="aring" unicode="&#xe5;" horiz-adv-x="968" 
d="M494 1135q-79 0 -127 47.5t-48 128.5t48 128.5t127 47.5q78 0 125 -47.5t47 -128.5t-47 -128.5t-125 -47.5zM494 1434q-55 0 -86 -34t-31 -89t31 -89t86 -34q54 0 84 34.5t30 88.5q0 55 -30 89t-84 34zM483 1034q151 0 236.5 -77.5t85.5 -258.5v-698q-28 0 -42.5 15
t-14.5 59v100q-53 -98 -156.5 -141t-210.5 -43q-47 0 -90 13.5t-82 42.5t-62.5 82t-23.5 124q0 70 25.5 126t72.5 92.5t104.5 62t132 38.5t142.5 18.5t148 6.5v68q0 79 -14.5 136t-37.5 91t-59.5 53.5t-74 26t-87.5 6.5q-72 0 -170.5 -28.5t-107.5 -28.5q-28 0 -37 22l-6 16
q187 76 329 76zM403 47q60 0 117 17.5t110 54.5t85.5 106t32.5 162v152h-48q-138 0 -241 -21.5t-161.5 -60t-86 -84t-27.5 -99.5q0 -67 16.5 -113t48 -70t68.5 -34t86 -10z" />
    <glyph glyph-name="ae" unicode="&#xe6;" horiz-adv-x="1673" 
d="M1550 526h-743q-2 -16 -2 -49q0 -201 102 -320.5t285 -119.5q77 0 163 20t146 52q19 -19 25 -54q-65 -31 -159.5 -53t-188.5 -22q-151 0 -252 78t-144 214q-11 -65 -43.5 -116t-74 -81.5t-93.5 -50.5t-98 -27t-92 -7q-44 0 -86.5 13.5t-82.5 42t-64.5 82t-24.5 124.5
q0 68 25.5 122.5t72.5 90t104.5 60t132 37.5t142.5 18t148 6v78q0 79 -14.5 136t-37.5 91t-59.5 53.5t-74 26t-87.5 6.5q-73 0 -171 -29.5t-107 -29.5q-28 0 -37 22l-6 16q91 37 167.5 57.5t161.5 20.5q285 0 318 -264q50 130 147.5 197t231.5 67q177 0 279 -112t102 -306
q0 -37 -11 -90zM1165 975q-144 0 -238.5 -97.5t-115.5 -293.5h684q2 8 2 32q0 178 -88.5 268.5t-243.5 90.5zM403 47q60 0 117 17.5t110 54.5t85.5 106t32.5 162v14v127h-48q-268 0 -392 -71.5t-124 -182.5q0 -227 219 -227z" />
    <glyph glyph-name="ccedilla" unicode="&#xe7;" horiz-adv-x="948" 
d="M866 45q-110 -50 -272 -63l-57 -127q27 10 61 10q73 0 123.5 -42.5t50.5 -117.5q0 -85 -64.5 -134.5t-168.5 -49.5q-73 0 -131 14q0 43 8 59q68 -18 143 -18t115.5 36.5t40.5 90.5q0 46 -31 76.5t-98 30.5q-46 0 -90 -21q-14 6 -26 17.5t-9 23.5l69 150
q-192 2 -304.5 137.5t-112.5 382.5q0 251 129.5 392.5t353.5 141.5q153 0 270 -35q0 -43 -22 -65q-39 14 -109.5 28.5t-124.5 14.5q-115 0 -201.5 -39.5t-136 -107.5t-74 -151t-24.5 -179q0 -103 22.5 -186.5t69 -147t124 -98.5t181.5 -35q131 0 279 65z" />
    <glyph glyph-name="egrave" unicode="&#xe8;" horiz-adv-x="1042" 
d="M547 1161l-187 250q-43 58 -43 70q0 17 27 35l6 4l230 -340zM920 498h-746v-21q0 -201 102 -320.5t285 -119.5q77 0 163 20t146 52q19 -19 25 -54q-158 -75 -348 -75q-139 0 -238.5 65t-147.5 176t-48 256q0 271 116.5 414t319.5 143q177 0 279 -119.5t102 -326.5
q0 -42 -10 -90zM535 977q-149 0 -245.5 -105.5t-113.5 -316.5h688q2 8 2 33q0 193 -88 291t-243 98z" />
    <glyph glyph-name="eacute" unicode="&#xe9;" horiz-adv-x="1042" 
d="M725 1413l-182 -254l-31 21l227 340l9 -4q20 -10 20 -27q0 -15 -43 -76zM920 498h-746v-21q0 -201 102 -320.5t285 -119.5q77 0 163 20t146 52q19 -19 25 -54q-158 -75 -348 -75q-139 0 -238.5 65t-147.5 176t-48 256q0 271 116.5 414t319.5 143q177 0 279 -119.5
t102 -326.5q0 -42 -10 -90zM535 977q-149 0 -245.5 -105.5t-113.5 -316.5h688q2 8 2 33q0 193 -88 291t-243 98z" />
    <glyph glyph-name="ecircumflex" unicode="&#xea;" horiz-adv-x="1042" 
d="M373 1174q-15 0 -33 10.5t-21 19.5l191 219q8 3 29.5 3t29.5 -3l191 -219q-3 -9 -20.5 -19.5t-32.5 -10.5l-166 198zM920 498h-746v-21q0 -201 102 -320.5t285 -119.5q77 0 163 20t146 52q19 -19 25 -54q-158 -75 -348 -75q-139 0 -238.5 65t-147.5 176t-48 256
q0 271 116.5 414t319.5 143q177 0 279 -119.5t102 -326.5q0 -42 -10 -90zM535 977q-149 0 -245.5 -105.5t-113.5 -316.5h688q2 8 2 33q0 193 -88 291t-243 98z" />
    <glyph glyph-name="edieresis" unicode="&#xeb;" horiz-adv-x="1042" 
d="M408 1260q-32 0 -55 21t-23 52q0 33 23 54.5t55 21.5q33 0 56 -21.5t23 -54.5q0 -32 -23 -52.5t-56 -20.5zM672 1260q-32 0 -55 21t-23 52q0 33 23 54.5t55 21.5q33 0 56.5 -21.5t23.5 -54.5q0 -32 -23.5 -52.5t-56.5 -20.5zM920 498h-746v-21q0 -201 102 -320.5
t285 -119.5q77 0 163 20t146 52q19 -19 25 -54q-158 -75 -348 -75q-139 0 -238.5 65t-147.5 176t-48 256q0 271 116.5 414t319.5 143q177 0 279 -119.5t102 -326.5q0 -42 -10 -90zM535 977q-149 0 -245.5 -105.5t-113.5 -316.5h688q2 8 2 33q0 193 -88 291t-243 98z" />
    <glyph glyph-name="igrave" unicode="&#xec;" horiz-adv-x="425" 
d="M221 1161l-186 250q-43 58 -43 70q0 18 26 35l7 4l229 -340zM184 0v1014q12 9 29 9t29 -9v-1014h-58z" />
    <glyph glyph-name="iacute" unicode="&#xed;" horiz-adv-x="425" 
d="M217 1159l-31 21l228 340l8 -4q20 -10 20 -27q0 -15 -43 -76zM184 0v1014q12 9 29 9t29 -9v-1014h-58z" />
    <glyph glyph-name="icircumflex" unicode="&#xee;" horiz-adv-x="425" 
d="M244 1423l190 -219q-3 -9 -20.5 -19.5t-32.5 -10.5l-166 198l-168 -198q-15 0 -32.5 10.5t-20.5 19.5l190 219q7 3 29.5 3t30.5 -3zM184 0v1014q12 9 29 9t29 -9v-1014h-58z" />
    <glyph glyph-name="idieresis" unicode="&#xef;" horiz-adv-x="425" 
d="M82 1260q-32 0 -55 21t-23 52q0 33 23 54.5t55 21.5q33 0 56.5 -21.5t23.5 -54.5q0 -32 -23.5 -52.5t-56.5 -20.5zM346 1260q-32 0 -55 21t-23 52q0 33 23 54.5t55 21.5q33 0 56.5 -21.5t23.5 -54.5q0 -32 -23.5 -52.5t-56.5 -20.5zM184 0v1014q12 9 29 9t29 -9v-1014
h-58z" />
    <glyph glyph-name="eth" unicode="&#xf0;" horiz-adv-x="1124" 
d="M678 1260q356 -223 356 -701q0 -283 -122.5 -431t-331.5 -148q-224 0 -345.5 142t-121.5 390q0 109 28.5 199t85 159t146.5 108t207 40q136 1 236 -71t147 -179q-22 135 -112 256t-235 209l-329 -146q-9 1 -19 15.5t-10 25.5l303 136q-149 76 -313 104q0 16 9.5 30.5
t21.5 14.5q194 -43 344 -121l270 121q9 -4 17 -20t8 -27zM580 37q192 0 297.5 121t105.5 354q0 185 -111 317t-288 132q-202 0 -306 -118.5t-104 -330.5q0 -216 103 -345.5t303 -129.5z" />
    <glyph glyph-name="ntilde" unicode="&#xf1;" horiz-adv-x="1091" 
d="M362 1282q-12 -2 -27.5 1.5t-19.5 10.5q0 82 41 122t103 40q36 0 70.5 -18t57.5 -39.5t54 -39.5t59 -18q49 0 70 37t21 82q12 2 27.5 -1.5t19.5 -10.5q0 -81 -39.5 -121.5t-91.5 -40.5q-42 0 -80 18t-61.5 39.5t-54 39.5t-58.5 18q-49 0 -70 -37t-21 -82zM586 1024
q174 0 258 -88t84 -281v-655h-58v651q0 165 -77.5 240.5t-245.5 75.5q-148 0 -305 -97v-870h-58v1014q34 0 46 -20.5t12 -63.5q168 94 344 94z" />
    <glyph glyph-name="ograve" unicode="&#xf2;" horiz-adv-x="1159" 
d="M586 1161l-187 250q-43 58 -43 70q0 17 27 35l6 4l229 -340zM580 -20q-212 0 -339.5 143.5t-127.5 378.5q0 236 128 384t339 148t339 -148t128 -384q0 -235 -127.5 -378.5t-339.5 -143.5zM580 37q191 0 298 122t107 343q0 222 -107.5 348.5t-297.5 126.5t-298 -126.5
t-108 -348.5q0 -221 107.5 -343t298.5 -122z" />
    <glyph glyph-name="oacute" unicode="&#xf3;" horiz-adv-x="1159" 
d="M582 1159l-31 21l227 340l8 -4q21 -10 21 -27q0 -15 -43 -76zM580 -20q-212 0 -339.5 143.5t-127.5 378.5q0 236 128 384t339 148t339 -148t128 -384q0 -235 -127.5 -378.5t-339.5 -143.5zM580 37q191 0 298 122t107 343q0 222 -107.5 348.5t-297.5 126.5t-298 -126.5
t-108 -348.5q0 -221 107.5 -343t298.5 -122z" />
    <glyph glyph-name="ocircumflex" unicode="&#xf4;" horiz-adv-x="1159" 
d="M608 1423l191 -219q-3 -9 -21 -19.5t-33 -10.5l-165 198l-168 -198q-15 0 -33 10.5t-21 19.5l191 219q7 3 29.5 3t29.5 -3zM580 -20q-212 0 -339.5 143.5t-127.5 378.5q0 236 128 384t339 148t339 -148t128 -384q0 -235 -127.5 -378.5t-339.5 -143.5zM580 37
q191 0 298 122t107 343q0 222 -107.5 348.5t-297.5 126.5t-298 -126.5t-108 -348.5q0 -221 107.5 -343t298.5 -122z" />
    <glyph glyph-name="otilde" unicode="&#xf5;" horiz-adv-x="1159" 
d="M373 1282q-12 -2 -27.5 1.5t-19.5 10.5q0 82 40.5 122t102.5 40q36 0 70.5 -18t58 -39.5t54.5 -39.5t59 -18q49 0 69.5 37t20.5 82q12 2 27.5 -1.5t19.5 -10.5q0 -81 -39.5 -121.5t-91.5 -40.5q-42 0 -80 18t-61.5 39.5t-54 39.5t-58.5 18q-49 0 -69.5 -37t-20.5 -82z
M580 -20q-212 0 -339.5 143.5t-127.5 378.5q0 236 128 384t339 148t339 -148t128 -384q0 -235 -127.5 -378.5t-339.5 -143.5zM580 37q191 0 298 122t107 343q0 222 -107.5 348.5t-297.5 126.5t-298 -126.5t-108 -348.5q0 -221 107.5 -343t298.5 -122z" />
    <glyph glyph-name="odieresis" unicode="&#xf6;" horiz-adv-x="1159" 
d="M446 1260q-32 0 -54.5 20.5t-22.5 52.5q0 33 22.5 54.5t54.5 21.5q33 0 56.5 -21.5t23.5 -54.5q0 -32 -23.5 -52.5t-56.5 -20.5zM711 1260q-32 0 -55 21t-23 52q0 33 23 54.5t55 21.5q33 0 56.5 -21.5t23.5 -54.5q0 -32 -23.5 -52.5t-56.5 -20.5zM580 -20
q-212 0 -339.5 143.5t-127.5 378.5q0 236 128 384t339 148t339 -148t128 -384q0 -235 -127.5 -378.5t-339.5 -143.5zM580 37q191 0 298 122t107 343q0 222 -107.5 348.5t-297.5 126.5t-298 -126.5t-108 -348.5q0 -221 107.5 -343t298.5 -122z" />
    <glyph glyph-name="divide" unicode="&#xf7;" 
d="M565 903q-30 0 -54 23t-24 51q0 29 23.5 52.5t54.5 23.5q32 0 56 -23t24 -53q0 -28 -24 -51t-56 -23zM102 600q0 33 11.5 45t48.5 12h862q0 -34 -11 -45.5t-48 -11.5h-863zM565 207q-30 0 -54 23t-24 51q0 29 23.5 52t54.5 23q32 0 56 -23t24 -52q0 -28 -24 -51t-56 -23z
" />
    <glyph glyph-name="oslash" unicode="&#xf8;" horiz-adv-x="1159" 
d="M928 874q119 -147 119 -372q0 -235 -127.5 -378.5t-339.5 -143.5q-195 0 -318 120l-112 -120q-28 11 -37 34l114 125q-114 139 -114 363q0 236 128 384t339 148q186 0 313 -121l111 121q26 -10 36 -35zM580 977q-190 0 -298 -126.5t-108 -348.5q0 -203 90 -322l592 692
q-105 105 -276 105zM580 37q191 0 298 122t107 343q0 206 -94 329l-592 -690q104 -104 281 -104z" />
    <glyph glyph-name="ugrave" unicode="&#xf9;" horiz-adv-x="1091" 
d="M543 1161l-187 250q-43 58 -43 70q0 17 27 35l6 4l229 -340zM850 1010q18 14 57 14v-1024q-37 0 -47 22.5t-10 73.5v23q-189 -129 -383 -129q-154 0 -228.5 93t-74.5 296v631q18 14 57 14v-635q0 -178 60.5 -260t203.5 -82q97 0 196 43t169 98v822z" />
    <glyph glyph-name="uacute" unicode="&#xfa;" horiz-adv-x="1091" 
d="M721 1413l-182 -254l-31 21l227 340l8 -4q21 -10 21 -27q0 -15 -43 -76zM850 1010q18 14 57 14v-1024q-37 0 -47 22.5t-10 73.5v23q-189 -129 -383 -129q-154 0 -228.5 93t-74.5 296v631q18 14 57 14v-635q0 -178 60.5 -260t203.5 -82q97 0 196 43t169 98v822z" />
    <glyph glyph-name="ucircumflex" unicode="&#xfb;" horiz-adv-x="1091" 
d="M369 1174q-15 0 -33 10.5t-21 19.5l191 219q8 3 30 3t29 -3l191 -219q-3 -9 -21 -19.5t-33 -10.5l-165 198zM850 1010q18 14 57 14v-1024q-37 0 -47 22.5t-10 73.5v23q-189 -129 -383 -129q-154 0 -228.5 93t-74.5 296v631q18 14 57 14v-635q0 -178 60.5 -260t203.5 -82
q97 0 196 43t169 98v822z" />
    <glyph glyph-name="udieresis" unicode="&#xfc;" horiz-adv-x="1091" 
d="M403 1260q-32 0 -54.5 20.5t-22.5 52.5q0 33 22.5 54.5t54.5 21.5q33 0 56.5 -21.5t23.5 -54.5q0 -32 -23.5 -52.5t-56.5 -20.5zM668 1260q-32 0 -55 21t-23 52q0 33 23 54.5t55 21.5q33 0 56.5 -21.5t23.5 -54.5q0 -32 -23.5 -52.5t-56.5 -20.5zM850 1010q18 14 57 14
v-1024q-37 0 -47 22.5t-10 73.5v23q-189 -129 -383 -129q-154 0 -228.5 93t-74.5 296v631q18 14 57 14v-635q0 -178 60.5 -260t203.5 -82q97 0 196 43t169 98v822z" />
    <glyph glyph-name="yacute" unicode="&#xfd;" horiz-adv-x="923" 
d="M649 1413l-182 -254l-31 21l228 340l8 -4q20 -10 20 -27q0 -15 -43 -76zM829 1014q20 8 32 8t32 -8l-379 -932q-57 -136 -153 -270.5t-207 -221.5q-38 5 -56 43q116 86 188.5 180.5t145.5 231.5l4 6l-405 963q23 6 33.5 6t33.5 -6l369 -889z" />
    <glyph glyph-name="thorn" unicode="&#xfe;" horiz-adv-x="1103" 
d="M573 1034q87 0 158 -27t118.5 -72.5t80 -106.5t47 -128t14.5 -139q0 -277 -115 -429t-317 -152q-96 0 -179.5 21.5t-137.5 49.5v-438q-10 -9 -28.5 -16t-29.5 -7v1801q10 9 28.5 15.5t29.5 6.5v-448q64 32 154.5 50.5t176.5 18.5zM524 39q90 0 160.5 29.5t116 78t75 117
t42 141.5t12.5 156q0 414 -377 414q-87 0 -170.5 -19.5t-140.5 -48.5v-796q70 -34 149 -53t133 -19z" />
    <glyph glyph-name="ydieresis" unicode="&#xff;" horiz-adv-x="923" 
d="M332 1260q-32 0 -55 21t-23 52q0 33 23 54.5t55 21.5q33 0 56.5 -21.5t23.5 -54.5q0 -32 -23.5 -52.5t-56.5 -20.5zM596 1260q-32 0 -55 21t-23 52q0 33 23 54.5t55 21.5q33 0 56.5 -21.5t23.5 -54.5q0 -32 -23.5 -52.5t-56.5 -20.5zM829 1014q20 8 32 8t32 -8l-379 -932
q-57 -136 -153 -270.5t-207 -221.5q-38 5 -56 43q116 86 188.5 180.5t145.5 231.5l4 6l-405 963q23 6 33.5 6t33.5 -6l369 -889z" />
    <glyph glyph-name="Amacron" unicode="&#x100;" horiz-adv-x="1218" 
d="M385 1686h430v-62h-430v62zM1100 0l-156 393h-676l-149 -393h-68l516 1337q12 5 32 5t32 -5l536 -1337h-67zM291 451h631l-322 809z" />
    <glyph glyph-name="amacron" unicode="&#x101;" horiz-adv-x="968" 
d="M709 1362v-62h-430v62h430zM483 1034q151 0 236.5 -77.5t85.5 -258.5v-698q-28 0 -42.5 15t-14.5 59v100q-53 -98 -156.5 -141t-210.5 -43q-47 0 -90 13.5t-82 42.5t-62.5 82t-23.5 124q0 70 25.5 126t72.5 92.5t104.5 62t132 38.5t142.5 18.5t148 6.5v68q0 79 -14.5 136
t-37.5 91t-59.5 53.5t-74 26t-87.5 6.5q-72 0 -170.5 -28.5t-107.5 -28.5q-28 0 -37 22l-6 16q187 76 329 76zM403 47q60 0 117 17.5t110 54.5t85.5 106t32.5 162v152h-48q-138 0 -241 -21.5t-161.5 -60t-86 -84t-27.5 -99.5q0 -67 16.5 -113t48 -70t68.5 -34t86 -10z" />
    <glyph glyph-name="Abreve" unicode="&#x102;" horiz-adv-x="1218" 
d="M600 1532q-122 0 -182 68t-62 161q28 14 56 0q2 -31 12 -59.5t30.5 -55.5t58.5 -43t89 -16t88.5 17.5t57 45.5t28 55t10.5 56q28 14 56 0q-1 -42 -15 -81t-41 -73t-75.5 -54.5t-110.5 -20.5zM1100 0l-156 393h-676l-149 -393h-68l516 1337q12 5 32 5t32 -5l536 -1337h-67
zM291 451h631l-322 809z" />
    <glyph glyph-name="abreve" unicode="&#x103;" horiz-adv-x="968" 
d="M494 1208q-63 0 -111.5 20t-76 54t-41.5 73.5t-15 82.5q28 14 55 0q2 -31 12 -59.5t31 -55.5t59 -43t89 -16t88.5 17.5t57 45.5t28 55t10.5 56q28 14 55 0q-1 -42 -14.5 -81t-41 -73.5t-75.5 -55t-110 -20.5zM483 1034q151 0 236.5 -77.5t85.5 -258.5v-698
q-28 0 -42.5 15t-14.5 59v100q-53 -98 -156.5 -141t-210.5 -43q-47 0 -90 13.5t-82 42.5t-62.5 82t-23.5 124q0 70 25.5 126t72.5 92.5t104.5 62t132 38.5t142.5 18.5t148 6.5v68q0 79 -14.5 136t-37.5 91t-59.5 53.5t-74 26t-87.5 6.5q-72 0 -170.5 -28.5t-107.5 -28.5
q-28 0 -37 22l-6 16q187 76 329 76zM403 47q60 0 117 17.5t110 54.5t85.5 106t32.5 162v152h-48q-138 0 -241 -21.5t-161.5 -60t-86 -84t-27.5 -99.5q0 -67 16.5 -113t48 -70t68.5 -34t86 -10z" />
    <glyph glyph-name="Aogonek" unicode="&#x104;" horiz-adv-x="1218" 
d="M1186 -305q24 -17 24 -55q-38 -33 -112 -33q-67 0 -107.5 38t-40.5 111q0 60 43 128.5t107 115.5l-156 393h-676l-149 -393h-68l516 1337q12 5 32 5t32 -5l536 -1335l2 -2q-79 -44 -120 -109t-41 -133q0 -50 23 -73t73 -23q41 0 82 33zM291 451h631l-322 809z" />
    <glyph glyph-name="aogonek" unicode="&#x105;" horiz-adv-x="968" 
d="M821 -305q25 -18 25 -55q-38 -33 -113 -33q-67 0 -107 38t-40 111q0 66 51 141.5t123 120.5q-12 15 -12 56v100q-53 -98 -156.5 -141t-210.5 -43q-47 0 -90 13.5t-82 42.5t-62.5 82t-23.5 124q0 70 25.5 126t72.5 92.5t104.5 62t132 38.5t142.5 18.5t148 6.5v68
q0 79 -14.5 136t-37.5 91t-59.5 53.5t-74 26t-87.5 6.5q-72 0 -170.5 -28.5t-107.5 -28.5q-28 0 -37 22l-6 16q187 76 329 76q151 0 236.5 -77.5t85.5 -258.5v-698q-79 -44 -120.5 -109.5t-41.5 -132.5q0 -50 23.5 -73t72.5 -23q41 0 82 33zM403 47q60 0 117 17.5t110 54.5
t85.5 106t32.5 162v152h-48q-138 0 -241 -21.5t-161.5 -60t-86 -84t-27.5 -99.5q0 -67 16.5 -113t48 -70t68.5 -34t86 -10z" />
    <glyph glyph-name="Cacute" unicode="&#x106;" horiz-adv-x="1300" 
d="M711 1485l-31 20l227 340l8 -4q21 -11 21 -26t-43 -76zM1208 162q-176 -182 -495 -182q-131 0 -240 44.5t-189.5 130t-125.5 218t-45 299.5q0 160 44.5 289t124 214.5t190 131t241.5 45.5q320 0 495 -197q0 -18 -13.5 -32t-33.5 -19q-60 86 -177 136t-271 50
q-247 0 -392 -165.5t-145 -452.5q0 -297 145.5 -464t391.5 -167q278 0 454 168z" />
    <glyph glyph-name="cacute" unicode="&#x107;" horiz-adv-x="948" 
d="M547 1159l-31 21l227 340l9 -4q20 -10 20 -27q0 -15 -43 -76zM850 98l16 -53q-62 -28 -152 -46.5t-177 -18.5q-195 0 -309.5 136t-114.5 384q0 251 129.5 392.5t353.5 141.5q153 0 270 -35q0 -43 -22 -65q-39 14 -109.5 28.5t-124.5 14.5q-115 0 -201.5 -39.5
t-136 -107.5t-74 -151t-24.5 -179q0 -103 22.5 -186.5t69 -147t124 -98.5t181.5 -35q131 0 279 65z" />
    <glyph glyph-name="Cdotaccent" unicode="&#x10a;" horiz-adv-x="1300" 
d="M788 1638q0 -28 -23.5 -50.5t-55.5 -22.5q-31 0 -54.5 22.5t-23.5 50.5q0 29 23.5 52.5t54.5 23.5q32 0 55.5 -23t23.5 -53zM1208 162q-176 -182 -495 -182q-131 0 -240 44.5t-189.5 130t-125.5 218t-45 299.5q0 160 44.5 289t124 214.5t190 131t241.5 45.5
q320 0 495 -197q0 -18 -13.5 -32t-33.5 -19q-60 86 -177 136t-271 50q-247 0 -392 -165.5t-145 -452.5q0 -297 145.5 -464t391.5 -167q278 0 454 168z" />
    <glyph glyph-name="cdotaccent" unicode="&#x10b;" horiz-adv-x="948" 
d="M625 1313q0 -28 -24 -51t-56 -23q-30 0 -54 23t-24 51q0 29 23.5 52.5t54.5 23.5q32 0 56 -23t24 -53zM850 98l16 -53q-62 -28 -152 -46.5t-177 -18.5q-195 0 -309.5 136t-114.5 384q0 251 129.5 392.5t353.5 141.5q153 0 270 -35q0 -43 -22 -65q-39 14 -109.5 28.5
t-124.5 14.5q-115 0 -201.5 -39.5t-136 -107.5t-74 -151t-24.5 -179q0 -103 22.5 -186.5t69 -147t124 -98.5t181.5 -35q131 0 279 65z" />
    <glyph glyph-name="Ccaron" unicode="&#x10c;" horiz-adv-x="1300" 
d="M737 1509q-8 -3 -29.5 -3t-29.5 3l-191 220q3 9 21 19.5t33 10.5l168 -198l165 198q15 0 33 -10.5t21 -19.5zM713 41q278 0 454 168l41 -47q-176 -182 -495 -182q-131 0 -240 44.5t-189.5 130t-125.5 218t-45 299.5q0 160 44.5 289t124 214.5t190 131t241.5 45.5
q320 0 495 -197q0 -18 -13.5 -32t-33.5 -19q-60 86 -177 136t-271 50q-247 0 -392 -165.5t-145 -452.5q0 -297 145.5 -464t391.5 -167z" />
    <glyph glyph-name="ccaron" unicode="&#x10d;" horiz-adv-x="948" 
d="M711 1434q14 0 32 -11t21 -20l-191 -219q-7 -3 -29.5 -3t-29.5 3l-190 219q3 9 21 20t32 11l168 -199zM850 98l16 -53q-62 -28 -152 -46.5t-177 -18.5q-195 0 -309.5 136t-114.5 384q0 251 129.5 392.5t353.5 141.5q153 0 270 -35q0 -43 -22 -65q-39 14 -109.5 28.5
t-124.5 14.5q-115 0 -201.5 -39.5t-136 -107.5t-74 -151t-24.5 -179q0 -103 22.5 -186.5t69 -147t124 -98.5t181.5 -35q131 0 279 65z" />
    <glyph glyph-name="Dcaron" unicode="&#x10e;" horiz-adv-x="1333" 
d="M686 1509q-7 -3 -29.5 -3t-29.5 3l-191 220q3 9 20.5 19.5t32.5 10.5l168 -198l166 198q15 0 33 -10.5t21 -19.5zM514 1352q337 0 523 -179.5t186 -488.5q0 -319 -201 -500.5t-543 -183.5h-274v1311q178 41 309 41zM479 57q327 0 502.5 158.5t175.5 468.5
q0 292 -163.5 449t-465.5 157q-174 0 -262 -37v-1196h213z" />
    <glyph glyph-name="dcaron" unicode="&#x10f;" horiz-adv-x="1103" 
d="M1001 1501q31 0 47.5 -13.5t16.5 -51.5q0 -40 -5.5 -168t-10.5 -185q-32 0 -48 4v414zM862 961v430q10 9 28.5 15.5t29.5 6.5v-1413q-55 0 -58 51q-69 -32 -165.5 -51.5t-186.5 -19.5q-83 0 -150.5 25t-113 68t-76 103.5t-44 129.5t-13.5 147q0 277 115 429t317 152
q97 0 181 -22t136 -51zM174 453q0 -112 27.5 -194.5t77.5 -129t112 -68.5t139 -22q91 0 180.5 22t151.5 54v780q-62 34 -139.5 57t-142.5 23q-406 0 -406 -522z" />
    <glyph glyph-name="Dcroat" unicode="&#x110;" horiz-adv-x="1335" 
d="M514 1352q337 0 523 -179.5t186 -488.5q0 -319 -201 -500.5t-543 -183.5h-274v637h-156q7 30 20 43.5t44 13.5h92v617q178 41 309 41zM479 57q327 0 502.5 158.5t175.5 468.5q0 292 -163.5 449t-465.5 157q-174 0 -262 -37v-559h453q-3 -57 -41 -57h-412v-580h213z" />
    <glyph glyph-name="dcroat" unicode="&#x111;" horiz-adv-x="1062" 
d="M920 1264h114q-3 -58 -41 -58h-73v-1206q-55 0 -58 51q-69 -32 -165.5 -51.5t-186.5 -19.5q-83 0 -150.5 25t-113 68t-76 103.5t-44 129.5t-13.5 147q0 277 115 429t317 152q97 0 181 -22t136 -51v245h-203q7 30 20 44t44 14h139v127q10 9 28.5 15.5t29.5 6.5v-149z
M174 453q0 -112 27.5 -194.5t77.5 -129t112 -68.5t139 -22q91 0 180.5 22t151.5 54v780q-62 34 -139.5 57t-142.5 23q-406 0 -406 -522z" />
    <glyph glyph-name="Emacron" unicode="&#x112;" horiz-adv-x="1044" 
d="M399 1688h430v-62h-430v62zM922 1274h-656v-580h553q0 -26 -16 -57h-537v-580h656v-57h-717v1331h717v-57z" />
    <glyph glyph-name="emacron" unicode="&#x113;" horiz-adv-x="1042" 
d="M326 1362h430v-62h-430v62zM920 498h-746v-21q0 -201 102 -320.5t285 -119.5q77 0 163 20t146 52q19 -19 25 -54q-158 -75 -348 -75q-139 0 -238.5 65t-147.5 176t-48 256q0 271 116.5 414t319.5 143q177 0 279 -119.5t102 -326.5q0 -42 -10 -90zM535 977
q-149 0 -245.5 -105.5t-113.5 -316.5h688q2 8 2 33q0 193 -88 291t-243 98z" />
    <glyph glyph-name="Edotaccent" unicode="&#x116;" horiz-adv-x="1044" 
d="M694 1638q0 -28 -24 -50.5t-56 -22.5q-30 0 -53.5 22.5t-23.5 50.5q0 30 23.5 53t53.5 23q32 0 56 -23t24 -53zM922 1274h-656v-580h553q0 -26 -16 -57h-537v-580h656v-57h-717v1331h717v-57z" />
    <glyph glyph-name="edotaccent" unicode="&#x117;" horiz-adv-x="1042" 
d="M621 1313q0 -28 -24 -51t-56 -23q-30 0 -54 23t-24 51q0 29 23.5 52.5t54.5 23.5q32 0 56 -23t24 -53zM920 498h-746v-21q0 -201 102 -320.5t285 -119.5q77 0 163 20t146 52q19 -19 25 -54q-158 -75 -348 -75q-139 0 -238.5 65t-147.5 176t-48 256q0 271 116.5 414
t319.5 143q177 0 279 -119.5t102 -326.5q0 -42 -10 -90zM535 977q-149 0 -245.5 -105.5t-113.5 -316.5h688q2 8 2 33q0 193 -88 291t-243 98z" />
    <glyph glyph-name="Eogonek" unicode="&#x118;" horiz-adv-x="1044" 
d="M938 -305q25 -18 25 -55q-38 -33 -113 -33q-67 0 -107.5 38t-40.5 111q0 60 42.5 128.5t105.5 115.5h-645v1331h717v-57h-656v-580h553q0 -26 -16 -57h-537v-580h656v-57q-79 -44 -120.5 -109.5t-41.5 -132.5q0 -50 23 -73t73 -23q41 0 82 33z" />
    <glyph glyph-name="eogonek" unicode="&#x119;" horiz-adv-x="1042" 
d="M920 498h-746v-21q0 -201 102 -320.5t285 -119.5q77 0 163 20t146 52q19 -19 25 -54q-76 -35 -152 -53q-77 -44 -118 -108.5t-41 -131.5q0 -50 23 -73t73 -23q41 0 82 33q24 -17 24 -55q-38 -33 -112 -33q-67 0 -107.5 38t-40.5 111q0 55 35.5 117.5t91.5 108.5
q-53 -6 -106 -6q-139 0 -238.5 65t-147.5 176t-48 256q0 271 116.5 414t319.5 143q177 0 279 -119.5t102 -326.5q0 -42 -10 -90zM535 977q-149 0 -245.5 -105.5t-113.5 -316.5h688q2 8 2 33q0 193 -88 291t-243 98z" />
    <glyph glyph-name="Ecaron" unicode="&#x11a;" horiz-adv-x="1044" 
d="M643 1509q-7 -3 -29.5 -3t-29.5 3l-191 220q3 9 20.5 19.5t32.5 10.5l168 -198l166 198q15 0 33 -10.5t21 -19.5zM922 1274h-656v-580h553q0 -26 -16 -57h-537v-580h656v-57h-717v1331h717v-57z" />
    <glyph glyph-name="ecaron" unicode="&#x11b;" horiz-adv-x="1042" 
d="M569 1184q-7 -3 -29 -3t-30 3l-191 219q3 9 21 20t33 11l168 -199l166 199q14 0 32 -11t21 -20zM920 498h-746v-21q0 -201 102 -320.5t285 -119.5q77 0 163 20t146 52q19 -19 25 -54q-158 -75 -348 -75q-139 0 -238.5 65t-147.5 176t-48 256q0 271 116.5 414t319.5 143
q177 0 279 -119.5t102 -326.5q0 -42 -10 -90zM535 977q-149 0 -245.5 -105.5t-113.5 -316.5h688q2 8 2 33q0 193 -88 291t-243 98z" />
    <glyph glyph-name="Gbreve" unicode="&#x11e;" horiz-adv-x="1361" 
d="M705 1534q-122 0 -182 68t-62 161q27 14 55 0q2 -31 12 -59.5t31 -55.5t59 -43t89 -16t88.5 17.5t57 45.5t28 55t10.5 56q27 14 55 0q-1 -42 -14.5 -81t-41 -73t-75.5 -54.5t-110 -20.5zM1188 612q26 20 61 9v-459q-85 -88 -224 -135t-312 -47q-131 0 -240 44.5
t-189.5 130t-125.5 218t-45 299.5q0 160 44.5 289t124 214.5t190 131t241.5 45.5q320 0 495 -197q0 -19 -13.5 -32.5t-33.5 -18.5q-137 186 -448 186q-247 0 -392 -165.5t-145 -452.5q0 -297 145.5 -464t391.5 -167q308 0 475 139v432z" />
    <glyph glyph-name="gbreve" unicode="&#x11f;" horiz-adv-x="1103" 
d="M561 1208q-63 0 -111.5 20t-76 54t-41.5 73.5t-15 82.5q28 14 56 0q2 -31 12 -59.5t30.5 -55.5t58.5 -43t89 -16t89 17.5t57 45.5t28 55t11 56q28 14 55 0q-1 -42 -15 -81t-41 -73.5t-75.5 -55t-110.5 -20.5zM862 948q3 66 58 66v-1032q0 -36 -2 -66.5t-10.5 -72.5
t-23.5 -75t-43 -67.5t-66 -57.5t-96 -38t-130 -15q-169 0 -301 60q0 31 20 61q149 -63 281 -63q166 0 239.5 80.5t73.5 246.5v125q-70 -47 -167 -76.5t-185 -29.5q-103 0 -181.5 39.5t-124.5 107t-68.5 149t-22.5 173.5q0 273 120.5 422t331.5 149q95 0 174 -24.5t123 -61.5
zM530 53q97 0 186 32t146 87v717q-66 41 -139 63.5t-123 22.5q-95 0 -169 -26.5t-122 -72t-79 -111t-43.5 -138t-12.5 -158.5q0 -218 95.5 -317t260.5 -99z" />
    <glyph glyph-name="Gdotaccent" unicode="&#x120;" horiz-adv-x="1361" 
d="M705 1565q-31 0 -54.5 22.5t-23.5 50.5q0 29 23.5 52.5t54.5 23.5q32 0 55.5 -23t23.5 -53q0 -28 -23.5 -50.5t-55.5 -22.5zM1188 612q26 20 61 9v-459q-85 -88 -224 -135t-312 -47q-131 0 -240 44.5t-189.5 130t-125.5 218t-45 299.5q0 160 44.5 289t124 214.5t190 131
t241.5 45.5q320 0 495 -197q0 -19 -13.5 -32.5t-33.5 -18.5q-137 186 -448 186q-247 0 -392 -165.5t-145 -452.5q0 -297 145.5 -464t391.5 -167q308 0 475 139v432z" />
    <glyph glyph-name="gdotaccent" unicode="&#x121;" horiz-adv-x="1103" 
d="M561 1239q-30 0 -54 23t-24 51q0 29 23.5 52.5t54.5 23.5q32 0 56 -23t24 -53q0 -28 -24 -51t-56 -23zM862 948q3 66 58 66v-1032q0 -36 -2 -66.5t-10.5 -72.5t-23.5 -75t-43 -67.5t-66 -57.5t-96 -38t-130 -15q-169 0 -301 60q0 31 20 61q149 -63 281 -63
q166 0 239.5 80.5t73.5 246.5v125q-70 -47 -167 -76.5t-185 -29.5q-103 0 -181.5 39.5t-124.5 107t-68.5 149t-22.5 173.5q0 273 120.5 422t331.5 149q95 0 174 -24.5t123 -61.5zM530 53q97 0 186 32t146 87v717q-66 41 -139 63.5t-123 22.5q-95 0 -169 -26.5t-122 -72
t-79 -111t-43.5 -138t-12.5 -158.5q0 -218 95.5 -317t260.5 -99z" />
    <glyph glyph-name="uni0122" unicode="&#x122;" horiz-adv-x="1361" 
d="M1188 612q26 20 61 9v-459q-85 -88 -224 -135t-312 -47q-131 0 -240 44.5t-189.5 130t-125.5 218t-45 299.5q0 160 44.5 289t124 214.5t190 131t241.5 45.5q320 0 495 -197q0 -19 -13.5 -32.5t-33.5 -18.5q-137 186 -448 186q-247 0 -392 -165.5t-145 -452.5
q0 -297 145.5 -464t391.5 -167q308 0 475 139v432zM762 -152q44 0 68 -31.5t24 -76.5q0 -67 -38.5 -130t-94.5 -95q-9 0 -23.5 10.5t-17.5 19.5q48 28 74 64.5t32 91.5q-8 -2 -22 -2q-37 0 -57.5 22t-20.5 52q0 29 20.5 52t55.5 23z" />
    <glyph glyph-name="uni0123" unicode="&#x123;" horiz-adv-x="1103" 
d="M559 1237q-44 0 -68 31.5t-24 77.5q0 67 38.5 130t94.5 95q9 0 23.5 -11t17.5 -20q-48 -28 -74 -64.5t-32 -91.5q8 2 22 2q37 0 57.5 -21.5t20.5 -51.5q0 -29 -21 -52.5t-55 -23.5zM862 948q3 66 58 66v-1032q0 -36 -2 -66.5t-10.5 -72.5t-23.5 -75t-43 -67.5t-66 -57.5
t-96 -38t-130 -15q-169 0 -301 60q0 31 20 61q149 -63 281 -63q166 0 239.5 80.5t73.5 246.5v125q-70 -47 -167 -76.5t-185 -29.5q-103 0 -181.5 39.5t-124.5 107t-68.5 149t-22.5 173.5q0 273 120.5 422t331.5 149q95 0 174 -24.5t123 -61.5zM530 53q97 0 186 32t146 87
v717q-66 41 -139 63.5t-123 22.5q-95 0 -169 -26.5t-122 -72t-79 -111t-43.5 -138t-12.5 -158.5q0 -218 95.5 -317t260.5 -99z" />
    <glyph glyph-name="Imacron" unicode="&#x12a;" horiz-adv-x="471" 
d="M20 1686h431v-62h-431v62zM266 0h-61v1331q31 15 61 0v-1331z" />
    <glyph glyph-name="imacron" unicode="&#x12b;" horiz-adv-x="425" 
d="M0 1362h430v-62h-430v62zM184 0v1014q12 9 29 9t29 -9v-1014h-58z" />
    <glyph glyph-name="Iogonek" unicode="&#x12e;" horiz-adv-x="471" 
d="M283 -305q24 -17 24 -55q-38 -33 -112 -33q-67 0 -107.5 38t-40.5 111q0 62 45.5 132.5t112.5 117.5v1325q31 15 61 0v-1331q-79 -44 -120.5 -109.5t-41.5 -132.5q0 -96 97 -96q41 0 82 33z" />
    <glyph glyph-name="iogonek" unicode="&#x12f;" horiz-adv-x="425" 
d="M215 1239q-30 0 -54 23t-24 51q0 29 23.5 52.5t54.5 23.5q32 0 56 -23t24 -53q0 -28 -24 -51t-56 -23zM258 -305q25 -18 25 -55q-38 -33 -113 -33q-67 0 -107 38t-40 111q0 64 46.5 136t114.5 118v1004q12 9 29 9t29 -9v-1014q-79 -44 -120.5 -109.5t-41.5 -132.5
q0 -50 23 -73t73 -23q41 0 82 33z" />
    <glyph glyph-name="Idotaccent" unicode="&#x130;" horiz-adv-x="471" 
d="M315 1636q0 -28 -23.5 -50.5t-55.5 -22.5q-31 0 -54.5 22.5t-23.5 50.5q0 29 23.5 52.5t54.5 23.5q32 0 55.5 -23t23.5 -53zM266 0h-61v1331q31 15 61 0v-1331z" />
    <glyph glyph-name="dotlessi" unicode="&#x131;" horiz-adv-x="425" 
d="M184 0v1014q12 9 29 9t29 -9v-1014h-58z" />
    <glyph glyph-name="IJ" unicode="&#x132;" horiz-adv-x="1044" 
d="M778 1341q31 15 62 0v-1187q0 -287 -213 -287q-72 0 -135 18q0 39 8 60q81 -19 139 -19q139 0 139 205v1210zM266 0h-61v1331q31 15 61 0v-1331z" />
    <glyph glyph-name="ij" unicode="&#x133;" horiz-adv-x="856" 
d="M213 1245q-30 0 -54 23t-24 51q0 29 23.5 52.5t54.5 23.5q32 0 56 -23t24 -53q0 -28 -24 -51t-56 -23zM641 1245q-30 0 -54 23t-24 51q0 29 23.5 52.5t54.5 23.5q32 0 56 -23t24 -53q0 -28 -24 -51t-56 -23zM184 0v1014q12 9 29 9t29 -9v-1014h-58zM465 -471
q-11 3 -23.5 19t-15.5 34q80 59 133 170.5t53 253.5v1008q31 20 58 0v-959q0 -187 -59 -324.5t-146 -201.5z" />
    <glyph glyph-name="uni0136" unicode="&#x136;" horiz-adv-x="1077" 
d="M328 674l698 -674h-92l-668 653v-653h-61v1331q31 12 61 0v-637l627 637q45 14 90 0zM594 -152q44 0 68 -31.5t24 -76.5q0 -67 -38.5 -130t-94.5 -95q-9 0 -23.5 10.5t-17.5 19.5q48 28 74 64.5t32 91.5q-8 -2 -22 -2q-37 0 -57.5 22t-20.5 52q0 29 20.5 52t55.5 23z" />
    <glyph glyph-name="uni0137" unicode="&#x137;" horiz-adv-x="944" 
d="M311 584l617 -584h-82l-604 571v-571h-58v1389q10 10 28 17t30 7v-819l479 420q15 4 41 4t41 -4zM532 -152q44 0 68.5 -31.5t24.5 -76.5q0 -67 -38.5 -130t-94.5 -95q-9 0 -23.5 10.5t-17.5 19.5q48 28 74 64.5t32 91.5q-8 -2 -22 -2q-37 0 -57.5 22t-20.5 52
q0 29 20.5 52t54.5 23z" />
    <glyph glyph-name="Lacute" unicode="&#x139;" horiz-adv-x="991" 
d="M420 1739l-182 -254l-31 20l227 340l8 -4q21 -11 21 -26t-43 -76zM266 57h643v-57h-704v1331q31 15 61 0v-1274z" />
    <glyph glyph-name="lacute" unicode="&#x13a;" horiz-adv-x="425" 
d="M238 1616l-31 20l227 340l8 -4q21 -10 21 -26q0 -15 -43 -76zM184 0v1389q10 10 28 17t30 7v-1413h-58z" />
    <glyph glyph-name="uni013B" unicode="&#x13b;" horiz-adv-x="991" 
d="M266 57h643v-57h-704v1331q31 15 61 0v-1274zM571 -152q44 0 68.5 -31.5t24.5 -76.5q0 -67 -39 -130t-95 -95q-9 0 -23.5 10.5t-17.5 19.5q97 57 107 156q-8 -2 -23 -2q-37 0 -57 22t-20 52q0 29 20.5 52t54.5 23z" />
    <glyph glyph-name="uni013C" unicode="&#x13c;" horiz-adv-x="425" 
d="M184 0v1389q10 10 28 17t30 7v-1413h-58zM211 -152q44 0 68 -31.5t24 -76.5q0 -67 -38.5 -130t-94.5 -95q-9 0 -23.5 10.5t-17.5 19.5q97 57 107 156q-8 -2 -23 -2q-37 0 -57.5 22t-20.5 52q0 29 20.5 52t55.5 23z" />
    <glyph glyph-name="Lcaron" unicode="&#x13d;" horiz-adv-x="991" 
d="M264 1509q-8 -3 -30 -3t-29 3l-191 220q3 9 21 19.5t33 10.5l168 -198l165 198q15 0 33 -10.5t21 -19.5zM266 57h643v-57h-704v1331q31 15 61 0v-1274z" />
    <glyph glyph-name="lcaron" unicode="&#x13e;" horiz-adv-x="425" 
d="M387 1083q-31 0 -47 4v414q31 0 47 -13.5t16 -51.5q0 -40 -5.5 -168t-10.5 -185zM184 0v1389q10 10 28 17t30 7v-1413h-58z" />
    <glyph glyph-name="Lslash" unicode="&#x141;" horiz-adv-x="970" 
d="M266 57h643v-57h-704v557l-162 -80q-4 8 -4 15q0 24 10.5 42t44.5 35l111 56v706q31 15 61 0v-676l355 179q4 -8 4 -19q0 -19 -14 -41t-40 -35l-305 -151v-531z" />
    <glyph glyph-name="lslash" unicode="&#x142;" horiz-adv-x="425" 
d="M406 825q0 -20 -27 -51l-137 -162v-612h-58v545l-114 -135q-13 13 -13 43q0 20 27 51l100 119v766q10 10 28 17t30 7v-723l151 178q13 -13 13 -43z" />
    <glyph glyph-name="Nacute" unicode="&#x143;" horiz-adv-x="1431" 
d="M901 1739l-182 -254l-31 20l227 340l9 -4q20 -10 20 -26q0 -15 -43 -76zM1165 1331h62v-1331q-31 -12 -62 0l-899 1225v-1225h-61v1331q31 12 61 0l899 -1222v1222z" />
    <glyph glyph-name="nacute" unicode="&#x144;" horiz-adv-x="1091" 
d="M754 1413l-183 -254l-30 21l227 340l8 -4q21 -10 21 -27q0 -15 -43 -76zM586 1024q174 0 258 -88t84 -281v-655h-58v651q0 165 -77.5 240.5t-245.5 75.5q-148 0 -305 -97v-870h-58v1014q34 0 46 -20.5t12 -63.5q168 94 344 94z" />
    <glyph glyph-name="uni0145" unicode="&#x145;" horiz-adv-x="1431" 
d="M1165 1331h62v-1331q-31 -12 -62 0l-899 1225v-1225h-61v1331q31 12 61 0l899 -1222v1222zM752 -152q44 0 68 -31.5t24 -76.5q0 -67 -38.5 -130t-94.5 -95q-9 0 -23.5 10.5t-17.5 19.5q48 28 74 64.5t32 91.5q-8 -2 -22 -2q-37 0 -57.5 22t-20.5 52q0 29 20.5 52t55.5 23
z" />
    <glyph glyph-name="uni0146" unicode="&#x146;" horiz-adv-x="1091" 
d="M586 1024q174 0 258 -88t84 -281v-655h-58v651q0 165 -77.5 240.5t-245.5 75.5q-148 0 -305 -97v-870h-58v1014q34 0 46 -20.5t12 -63.5q168 94 344 94zM569 -152q44 0 68.5 -31.5t24.5 -76.5q0 -67 -39 -130t-95 -95q-9 0 -23.5 10.5t-17.5 19.5q100 59 107 156
q-8 -2 -23 -2q-37 0 -57 22t-20 52q0 29 20.5 52t54.5 23z" />
    <glyph glyph-name="Ncaron" unicode="&#x147;" horiz-adv-x="1431" 
d="M745 1509q-7 -3 -29 -3t-30 3l-190 220q3 9 20.5 19.5t32.5 10.5l168 -198l166 198q15 0 32.5 -10.5t20.5 -19.5zM1165 1331h62v-1331q-31 -12 -62 0l-899 1225v-1225h-61v1331q31 12 61 0l899 -1222v1222z" />
    <glyph glyph-name="ncaron" unicode="&#x148;" horiz-adv-x="1091" 
d="M598 1184q-7 -3 -29.5 -3t-29.5 3l-191 219q3 9 21 20t32 11l168 -199l166 199q14 0 32 -11t21 -20zM586 1024q174 0 258 -88t84 -281v-655h-58v651q0 165 -77.5 240.5t-245.5 75.5q-148 0 -305 -97v-870h-58v1014q34 0 46 -20.5t12 -63.5q168 94 344 94z" />
    <glyph glyph-name="Eng" unicode="&#x14a;" horiz-adv-x="1474" 
d="M1165 1331h62v-1331q-1 -82 -8 -139.5t-24 -105.5t-45 -77.5t-74 -50.5t-107 -29t-146 -8q4 42 25 60q54 0 88.5 1.5t70 7.5t55.5 15.5t40 28.5t30 43t18 62t11 83.5t4 108.5l-899 1225v-1225h-61v1331q31 12 61 0l899 -1222v1222z" />
    <glyph glyph-name="eng" unicode="&#x14b;" horiz-adv-x="1171" 
d="M928 16q1 -82 -3 -138t-18 -107.5t-39.5 -82.5t-68 -54.5t-102.5 -33.5t-144 -10q3 20 10 32t29 34q50 0 81.5 1.5t63 7.5t49.5 15.5t35 28t24.5 42t14 61.5t8.5 81.5t2 106.5v651q0 165 -77.5 240.5t-245.5 75.5q-148 0 -305 -97v-870h-58v1014q34 0 46 -20.5t12 -63.5
q168 94 344 94q174 0 258 -88t84 -281v-639z" />
    <glyph glyph-name="Omacron" unicode="&#x14c;" horiz-adv-x="1464" 
d="M518 1688h430v-62h-430v62zM733 -20q-284 0 -452 186t-168 500t168 500t452 186t452.5 -186t168.5 -500t-168.5 -500t-452.5 -186zM733 41q263 0 409 163.5t146 461.5t-146 461t-409 163t-409 -163t-146 -461t146 -461.5t409 -163.5z" />
    <glyph glyph-name="omacron" unicode="&#x14d;" horiz-adv-x="1159" 
d="M365 1362h430v-62h-430v62zM580 -20q-212 0 -339.5 143.5t-127.5 378.5q0 236 128 384t339 148t339 -148t128 -384q0 -235 -127.5 -378.5t-339.5 -143.5zM580 37q191 0 298 122t107 343q0 222 -107.5 348.5t-297.5 126.5t-298 -126.5t-108 -348.5q0 -221 107.5 -343
t298.5 -122z" />
    <glyph glyph-name="Ohungarumlaut" unicode="&#x150;" horiz-adv-x="1464" 
d="M565 1442l-35 12l148 381l8 -2q23 -3 27 -21q2 -13 -25 -83zM815 1444l-29 22l263 316l8 -4q19 -15 16 -29q-2 -14 -51 -72zM733 -20q-284 0 -452 186t-168 500t168 500t452 186t452.5 -186t168.5 -500t-168.5 -500t-452.5 -186zM733 41q263 0 409 163.5t146 461.5
t-146 461t-409 163t-409 -163t-146 -461t146 -461.5t409 -163.5z" />
    <glyph glyph-name="ohungarumlaut" unicode="&#x151;" horiz-adv-x="1159" 
d="M412 1116l-35 12l147 381l8 -2q24 -3 27 -20q2 -16 -24 -84zM662 1118l-29 23l262 315l8 -4q20 -16 17 -29q0 -2 -1 -4.5t-2.5 -5.5t-3.5 -6t-5 -7t-5.5 -7t-7 -8.5t-8 -9.5t-9.5 -11t-10 -12zM580 -20q-212 0 -339.5 143.5t-127.5 378.5q0 236 128 384t339 148t339 -148
t128 -384q0 -235 -127.5 -378.5t-339.5 -143.5zM580 37q191 0 298 122t107 343q0 222 -107.5 348.5t-297.5 126.5t-298 -126.5t-108 -348.5q0 -221 107.5 -343t298.5 -122z" />
    <glyph glyph-name="OE" unicode="&#x152;" horiz-adv-x="1884" 
d="M1761 1274h-655v-580h553q0 -24 -17 -57h-536v-580h655v-57h-710q-140 -20 -299 -20q-292 0 -465.5 187.5t-173.5 500.5q0 317 176 500.5t479 183.5q159 0 283 -21h710v-57zM178 668q0 -297 150 -462t424 -165q181 0 292 27v1204q-113 20 -292 20q-277 0 -425.5 -160
t-148.5 -464z" />
    <glyph glyph-name="oe" unicode="&#x153;" horiz-adv-x="1894" 
d="M1772 498h-746v-21q0 -201 102 -320.5t285 -119.5q77 0 163 20t146 52q19 -19 25 -54q-65 -31 -159.5 -53t-188.5 -22q-157 0 -261 81t-147 222q-50 -145 -159.5 -224t-262.5 -79q-209 0 -332.5 143.5t-123.5 386.5q0 235 125 379.5t331 144.5q157 0 268.5 -83.5
t157.5 -231.5q45 155 150 235t256 80q177 0 279 -119.5t102 -326.5q0 -42 -10 -90zM569 37q189 0 292.5 120.5t103.5 352.5q0 222 -103.5 344.5t-292.5 122.5q-186 0 -290.5 -123t-104.5 -344q0 -233 102 -353t293 -120zM1386 975q-149 0 -245 -105t-113 -315h688q2 8 2 33
q0 192 -88.5 289.5t-243.5 97.5z" />
    <glyph glyph-name="Racute" unicode="&#x154;" horiz-adv-x="1132" 
d="M692 1739l-182 -254l-31 20l228 340l8 -4q20 -10 20 -26q0 -15 -43 -76zM1030 0h-76l-352 532q-62 -10 -119 -10h-217v-522h-61v1317q143 35 289 35q102 0 185.5 -22.5t139 -60.5t94 -88.5t55.5 -105.5t17 -114q0 -152 -84.5 -261.5t-232.5 -152.5zM463 580
q237 0 347 100.5t110 280.5q0 73 -23.5 131.5t-74 104t-139 70.5t-210.5 25q-126 0 -207 -24v-688h197z" />
    <glyph glyph-name="racute" unicode="&#x155;" horiz-adv-x="665" 
d="M569 1413l-182 -254l-31 21l228 340l8 -4q20 -10 20 -27q0 -15 -43 -76zM571 1024h17q6 -12 6 -29q0 -11 -6 -32q-40 4 -66 4q-38 0 -95 -19t-113 -58.5t-72 -84.5v-805h-58v1014q37 0 47.5 -22.5t10.5 -73.5v-33q53 72 148.5 105.5t180.5 33.5z" />
    <glyph glyph-name="uni0156" unicode="&#x156;" horiz-adv-x="1132" 
d="M668 547l362 -547h-76l-352 532q-62 -10 -119 -10h-217v-522h-61v1317q143 35 289 35q102 0 185.5 -22.5t139 -60.5t94 -88.5t55.5 -105.5t17 -114q0 -152 -84.5 -261.5t-232.5 -152.5zM463 580q237 0 347 100.5t110 280.5q0 73 -23.5 131.5t-74 104t-139 70.5t-210.5 25
q-126 0 -207 -24v-688h197zM586 -152q44 0 68 -31.5t24 -76.5q0 -67 -38.5 -130t-94.5 -95q-9 0 -23.5 10.5t-17.5 19.5q48 28 74 64.5t32 91.5q-8 -2 -22 -2q-37 0 -57.5 22t-20.5 52q0 29 20.5 52t55.5 23z" />
    <glyph glyph-name="uni0157" unicode="&#x157;" horiz-adv-x="665" 
d="M588 1024q6 -12 6 -29q0 -11 -6 -32q-40 4 -66 4q-38 0 -95 -19t-113 -58.5t-72 -84.5v-805h-58v1014q37 0 47.5 -22.5t10.5 -73.5v-33q53 72 148.5 105.5t180.5 33.5h17zM209 -152q44 0 68 -31.5t24 -76.5q0 -67 -38.5 -130t-94.5 -95q-9 0 -23.5 10.5t-17.5 19.5
q48 29 75 65t31 91q-8 -2 -22 -2q-37 0 -57.5 22t-20.5 52q0 29 20.5 52t55.5 23z" />
    <glyph glyph-name="Rcaron" unicode="&#x158;" horiz-adv-x="1132" 
d="M537 1509q-8 -3 -30.5 -3t-29.5 3l-190 220q3 9 20.5 19.5t32.5 10.5l168 -198l166 198q15 0 32.5 -10.5t20.5 -19.5zM1030 0h-76l-352 532q-62 -10 -119 -10h-217v-522h-61v1317q143 35 289 35q102 0 185.5 -22.5t139 -60.5t94 -88.5t55.5 -105.5t17 -114
q0 -152 -84.5 -261.5t-232.5 -152.5zM463 580q237 0 347 100.5t110 280.5q0 73 -23.5 131.5t-74 104t-139 70.5t-210.5 25q-126 0 -207 -24v-688h197z" />
    <glyph glyph-name="rcaron" unicode="&#x159;" horiz-adv-x="665" 
d="M414 1184q-7 -3 -30 -3t-30 3l-190 219q3 9 21 20t32 11l168 -199l166 199q14 0 32 -11t21 -20zM571 1024h17q6 -12 6 -29q0 -11 -6 -32q-40 4 -66 4q-38 0 -95 -19t-113 -58.5t-72 -84.5v-805h-58v1014q37 0 47.5 -22.5t10.5 -73.5v-33q53 72 148.5 105.5t180.5 33.5z
" />
    <glyph glyph-name="Sacute" unicode="&#x15a;" horiz-adv-x="1034" 
d="M522 1485l-30 20l227 340l8 -4q21 -11 21 -26t-43 -76zM850 1243q-147 49 -287 49q-165 0 -249.5 -65.5t-84.5 -188.5q0 -114 68.5 -180.5t249.5 -136.5q194 -75 274 -160.5t80 -220.5q0 -173 -117.5 -269t-302.5 -96q-172 0 -346 56q-8 35 10 65q197 -59 334 -59
q164 0 260.5 78t96.5 223q0 114 -77 188t-270 152q-174 69 -249.5 152t-75.5 194q0 162 106.5 247t311.5 85q125 0 274 -41q15 -29 -6 -72z" />
    <glyph glyph-name="sacute" unicode="&#x15b;" horiz-adv-x="862" 
d="M393 1159l-31 21l228 340l8 -4q20 -10 20 -27q0 -15 -43 -76zM129 80q142 -43 270 -43q118 0 200.5 59.5t82.5 151.5q0 48 -16.5 84t-55 65.5t-83 50.5t-119.5 50q-139 55 -206 119t-67 155q0 130 92.5 196t249.5 66q70 0 143 -14.5t105 -30.5q0 -23 -12 -57
q-112 47 -221 47q-149 0 -222 -50t-73 -143q0 -76 54 -132.5t198 -110.5q169 -62 229.5 -125.5t60.5 -151.5q0 -97 -49 -163t-128 -94.5t-183 -28.5q-135 0 -250 36q-6 15 -6 35t6 29z" />
    <glyph glyph-name="Scedilla" unicode="&#x15e;" horiz-adv-x="1034" 
d="M901 340q0 -158 -99 -252.5t-261 -110.5l-56 -122q27 10 62 10q73 0 123.5 -42.5t50.5 -117.5q0 -85 -65 -134.5t-169 -49.5q-73 0 -131 14q0 41 9 59q68 -18 143 -18t115.5 36.5t40.5 90.5q0 46 -31 76.5t-98 30.5q-47 0 -91 -21q-14 6 -25.5 17.5t-8.5 23.5l67 145
q-171 0 -342 56q-8 35 10 65q197 -59 334 -59q164 0 260.5 78t96.5 223q0 114 -77 188t-270 152q-174 69 -249.5 152t-75.5 194q0 162 106.5 247t311.5 85q125 0 274 -41q15 -29 -6 -72q-147 49 -287 49q-165 0 -249.5 -65.5t-84.5 -188.5q0 -114 68.5 -180.5t249.5 -136.5
q194 -75 274 -160.5t80 -220.5z" />
    <glyph glyph-name="scedilla" unicode="&#x15f;" horiz-adv-x="862" 
d="M739 266q0 -119 -71 -188.5t-191 -89.5l-59 -133q27 10 61 10q73 0 123.5 -42.5t50.5 -117.5q0 -85 -64.5 -134.5t-168.5 -49.5q-73 0 -131 14q0 43 8 59q68 -18 143 -18t115.5 36.5t40.5 90.5q0 46 -31 76.5t-98 30.5q-46 0 -90 -21q-14 6 -26 17.5t-9 23.5l70 150h-33
q-135 0 -250 36q-6 15 -6 35t6 29q142 -43 270 -43q118 0 200.5 59.5t82.5 151.5q0 48 -16.5 84t-55 65.5t-83 50.5t-119.5 50q-139 55 -206 119t-67 155q0 130 92.5 196t249.5 66q70 0 143 -14.5t105 -30.5q0 -23 -12 -57q-112 47 -221 47q-149 0 -222 -50t-73 -143
q0 -76 54 -132.5t198 -110.5q169 -62 229.5 -125.5t60.5 -151.5z" />
    <glyph glyph-name="Scaron" unicode="&#x160;" horiz-adv-x="1034" 
d="M549 1509q-8 -3 -30.5 -3t-29.5 3l-190 220q3 9 20.5 19.5t32.5 10.5l168 -198l166 198q15 0 32.5 -10.5t20.5 -19.5zM547 721q194 -75 274 -160.5t80 -220.5q0 -173 -117.5 -269t-302.5 -96q-172 0 -346 56q-8 35 10 65q197 -59 334 -59q164 0 260.5 78t96.5 223
q0 114 -77 188t-270 152q-174 69 -249.5 152t-75.5 194q0 162 106.5 247t311.5 85q125 0 274 -41q15 -29 -6 -72q-147 49 -287 49q-165 0 -249.5 -65.5t-84.5 -188.5q0 -114 68.5 -180.5t249.5 -136.5z" />
    <glyph glyph-name="scaron" unicode="&#x161;" horiz-adv-x="862" 
d="M557 1434q14 0 32 -11t21 -20l-190 -219q-8 -3 -30 -3t-30 3l-190 219q3 9 21 20t32 11l168 -199zM129 80q142 -43 270 -43q118 0 200.5 59.5t82.5 151.5q0 48 -16.5 84t-55 65.5t-83 50.5t-119.5 50q-139 55 -206 119t-67 155q0 130 92.5 196t249.5 66q70 0 143 -14.5
t105 -30.5q0 -23 -12 -57q-112 47 -221 47q-149 0 -222 -50t-73 -143q0 -76 54 -132.5t198 -110.5q169 -62 229.5 -125.5t60.5 -151.5q0 -97 -49 -163t-128 -94.5t-183 -28.5q-135 0 -250 36q-6 15 -6 35t6 29z" />
    <glyph glyph-name="uni0162" unicode="&#x162;" horiz-adv-x="1001" 
d="M76 1331h874q0 -36 -24 -57h-394v-1274l-65 -145q27 10 61 10q73 0 123.5 -42.5t50.5 -117.5q0 -85 -64.5 -134.5t-168.5 -49.5q-73 0 -131 14q0 43 8 59q68 -18 143 -18t115.5 36.5t40.5 90.5q0 46 -31 76.5t-98 30.5q-46 0 -90 -21q-14 6 -26 17.5t-9 23.5l80 170v1274
h-420q0 40 25 57z" />
    <glyph glyph-name="uni0163" unicode="&#x163;" horiz-adv-x="731" 
d="M438 -135q73 0 123.5 -42.5t50.5 -117.5q0 -85 -64.5 -134.5t-168.5 -49.5q-73 0 -131 14q0 43 8 59q68 -18 143 -18t115.5 36.5t40.5 90.5q0 46 -31 76.5t-98 30.5q-46 0 -90 -21q-14 6 -26 17.5t-9 23.5l72 154q-83 14 -125.5 73.5t-42.5 178.5v725h-103q0 55 55.5 109
t104.5 54v-110h342q0 -32 -24 -53h-318v-711q0 -116 43.5 -165.5t143.5 -49.5q63 0 155 20q25 -16 25 -49q-53 -29 -189 -29h-8l-55 -122q27 10 61 10z" />
    <glyph glyph-name="Tcaron" unicode="&#x164;" horiz-adv-x="1001" 
d="M530 1507q-8 -3 -29.5 -3t-29.5 3l-190 219q3 9 21 20t32 11l168 -198l166 198q14 0 32 -11t21 -20zM76 1331h874q0 -36 -24 -57h-394v-1274h-61v1274h-420q0 40 25 57z" />
    <glyph glyph-name="tcaron" unicode="&#x165;" horiz-adv-x="731" 
d="M430 1456q0 -40 -5.5 -167.5t-10.5 -184.5q-31 0 -47 4v414q31 0 47 -14t16 -52zM604 55q25 -16 25 -49q-53 -29 -189 -29q-118 0 -176.5 59t-58.5 200v725h-103q0 55 55.5 109t104.5 54v-110h342q0 -32 -24 -53h-318v-711q0 -116 43.5 -165.5t143.5 -49.5q63 0 155 20z
" />
    <glyph glyph-name="Tbar" unicode="&#x166;" horiz-adv-x="1001" 
d="M76 1331h874q0 -36 -24 -57h-394v-580h269q-3 -57 -41 -57h-228v-637h-61v637h-270q7 30 19.5 43.5t43.5 13.5h207v580h-420q0 40 25 57z" />
    <glyph glyph-name="tbar" unicode="&#x167;" horiz-adv-x="731" 
d="M604 55q25 -16 25 -49q-53 -29 -189 -29q-118 0 -176.5 59t-58.5 200v251h-99q7 30 20 44t44 14h35v416h-103q0 55 55.5 109t104.5 54v-110h342q0 -32 -24 -53h-318v-416h322q-3 -58 -41 -58h-281v-237q0 -116 43.5 -165.5t143.5 -49.5q63 0 155 20z" />
    <glyph glyph-name="Umacron" unicode="&#x16a;" horiz-adv-x="1292" 
d="M432 1686h430v-62h-430v62zM647 -20q-226 0 -354.5 142t-128.5 419v790q30 15 61 0v-811q0 -220 110 -349.5t310 -129.5q190 0 306 127t116 352v811q31 15 61 0v-790q0 -267 -125.5 -414t-355.5 -147z" />
    <glyph glyph-name="umacron" unicode="&#x16b;" horiz-adv-x="1091" 
d="M322 1362h430v-62h-430v62zM850 1010q18 14 57 14v-1024q-37 0 -47 22.5t-10 73.5v23q-189 -129 -383 -129q-154 0 -228.5 93t-74.5 296v631q18 14 57 14v-635q0 -178 60.5 -260t203.5 -82q97 0 196 43t169 98v822z" />
    <glyph glyph-name="Uring" unicode="&#x16e;" horiz-adv-x="1292" 
d="M647 1458q-79 0 -126.5 47.5t-47.5 128.5t47.5 128.5t126.5 47.5q78 0 125 -47.5t47 -128.5t-47 -128.5t-125 -47.5zM647 1511q54 0 84.5 34.5t30.5 88.5q0 55 -30.5 89t-84.5 34q-55 0 -86 -34t-31 -89t31 -89t86 -34zM647 -20q-226 0 -354.5 142t-128.5 419v790
q30 15 61 0v-811q0 -220 110 -349.5t310 -129.5q190 0 306 127t116 352v811q31 15 61 0v-790q0 -267 -125.5 -414t-355.5 -147z" />
    <glyph glyph-name="uring" unicode="&#x16f;" horiz-adv-x="1091" 
d="M537 1135q-79 0 -127 47.5t-48 128.5t48 128.5t127 47.5q78 0 125 -47.5t47 -128.5t-47 -128.5t-125 -47.5zM537 1188q54 0 84 34.5t30 88.5q0 55 -30 89t-84 34q-55 0 -86 -34t-31 -89t31 -89t86 -34zM850 1010q18 14 57 14v-1024q-37 0 -47 22.5t-10 73.5v23
q-189 -129 -383 -129q-154 0 -228.5 93t-74.5 296v631q18 14 57 14v-635q0 -178 60.5 -260t203.5 -82q97 0 196 43t169 98v822z" />
    <glyph glyph-name="Uhungarumlaut" unicode="&#x170;" horiz-adv-x="1292" 
d="M479 1440l-35 12l148 381l8 -2q23 -3 27 -21q2 -14 -25 -84zM729 1442l-29 22l263 316l8 -4q19 -15 16 -29q-2 -14 -51 -72zM647 -20q-226 0 -354.5 142t-128.5 419v790q30 15 61 0v-811q0 -220 110 -349.5t310 -129.5q190 0 306 127t116 352v811q31 15 61 0v-790
q0 -267 -125.5 -414t-355.5 -147z" />
    <glyph glyph-name="uhungarumlaut" unicode="&#x171;" horiz-adv-x="1091" 
d="M369 1116l-35 12l147 381l8 -2q24 -3 27 -20q2 -16 -24 -84zM618 1118l-28 23l262 315l8 -4q20 -16 17 -29q0 -2 -1 -4.5t-2.5 -5.5t-3.5 -6t-5 -7t-5.5 -7t-7 -8.5t-8 -9.5t-9.5 -11t-10 -12zM850 1010q18 14 57 14v-1024q-37 0 -47 22.5t-10 73.5v23
q-189 -129 -383 -129q-154 0 -228.5 93t-74.5 296v631q18 14 57 14v-635q0 -178 60.5 -260t203.5 -82q97 0 196 43t169 98v822z" />
    <glyph glyph-name="Uogonek" unicode="&#x172;" horiz-adv-x="1292" 
d="M1067 1331q31 15 61 0v-790q0 -214 -80.5 -352t-232.5 -185l6 -4q-79 -44 -120.5 -109.5t-41.5 -132.5q0 -96 97 -96q41 0 82 33q24 -17 24 -55q-38 -33 -112 -33q-67 0 -107.5 38t-40.5 111q0 56 36 119t93 111q-41 -6 -84 -6q-226 0 -354.5 142t-128.5 419v790
q30 15 61 0v-811q0 -220 110 -349.5t310 -129.5q190 0 306 127t116 352v811z" />
    <glyph glyph-name="uogonek" unicode="&#x173;" horiz-adv-x="1091" 
d="M924 -305q24 -17 24 -55q-38 -33 -112 -33q-67 0 -107.5 38t-40.5 111q0 66 51 141.5t123 120.5q-12 19 -12 78v23q-189 -129 -383 -129q-154 0 -228.5 93t-74.5 296v631q18 14 57 14v-635q0 -178 60.5 -260t203.5 -82q97 0 196 43t169 98v822q18 14 57 14v-1024
q-79 -44 -120.5 -109.5t-41.5 -132.5q0 -96 97 -96q41 0 82 33z" />
    <glyph glyph-name="Wcircumflex" unicode="&#x174;" horiz-adv-x="1714" 
d="M690 1499q-14 0 -32 11t-21 20l190 219q7 3 30 3t30 -3l190 -219q-3 -9 -21 -20t-32 -11l-166 199zM1599 1331q32 14 64 0l-336 -1333q-41 -13 -82 0l-387 1259l-389 -1259q-41 -13 -82 0l-336 1333q32 14 64 0l313 -1243l383 1241q48 17 90 2l385 -1245z" />
    <glyph glyph-name="wcircumflex" unicode="&#x175;" horiz-adv-x="1339" 
d="M502 1174q-15 0 -32.5 10.5t-20.5 19.5l190 219q7 3 29.5 3t29.5 -3l191 -219q-3 -9 -20.5 -19.5t-32.5 -10.5l-166 198zM1249 1014q15 8 34.5 8t31.5 -8l-273 -1014q-12 -8 -34 -8q-30 0 -41 8l-297 938l-297 -938q-11 -8 -41 -8q-23 0 -35 8l-272 1014q12 8 31 8t34 -8
l246 -934l299 934q35 15 70 0l299 -934z" />
    <glyph glyph-name="Ycircumflex" unicode="&#x176;" horiz-adv-x="1073" 
d="M369 1499q-15 0 -33 11t-21 20l191 219q8 3 30 3t29 -3l191 -219q-3 -9 -21 -20t-33 -11l-165 199zM1022 1331l-455 -794v-537h-61v537l-455 794q15 7 36 7t36 -7l414 -721l413 721q15 7 36 7t36 -7z" />
    <glyph glyph-name="ycircumflex" unicode="&#x177;" horiz-adv-x="923" 
d="M297 1174q-15 0 -32.5 10.5t-20.5 19.5l190 219q7 3 29.5 3t30.5 -3l190 -219q-3 -9 -20.5 -19.5t-32.5 -10.5l-166 198zM829 1014q20 8 32 8t32 -8l-379 -932q-57 -136 -153 -270.5t-207 -221.5q-38 5 -56 43q116 86 188.5 180.5t145.5 231.5l4 6l-405 963q23 6 33.5 6
t33.5 -6l369 -889z" />
    <glyph glyph-name="Ydieresis" unicode="&#x178;" horiz-adv-x="1073" 
d="M403 1585q-31 0 -54 21t-23 53q0 33 22.5 54.5t54.5 21.5q33 0 56.5 -21.5t23.5 -54.5q0 -32 -23.5 -53t-56.5 -21zM668 1585q-32 0 -55 21t-23 53q0 33 23 54.5t55 21.5q33 0 56.5 -21.5t23.5 -54.5q0 -32 -23.5 -53t-56.5 -21zM1022 1331l-455 -794v-537h-61v537
l-455 794q15 7 36 7t36 -7l414 -721l413 721q15 7 36 7t36 -7z" />
    <glyph glyph-name="Zacute" unicode="&#x179;" horiz-adv-x="1234" 
d="M827 1737l-182 -254l-31 20l228 340l8 -4q20 -10 20 -27q0 -14 -43 -75zM1094 57q11 -34 8 -57h-938q-9 4 -20 17.5t-11 27.5l885 1229h-834q-20 26 -16 57h883q12 -5 26.5 -24.5t14.5 -36.5l-873 -1213h875z" />
    <glyph glyph-name="zacute" unicode="&#x17a;" horiz-adv-x="1019" 
d="M678 1413l-182 -254l-31 21l227 340l8 -4q21 -10 21 -27q0 -15 -43 -76zM891 53q6 -12 6 -26q0 -12 -6 -27h-729q-12 9 -24 29.5t-15 38.5l692 893h-665q-7 14 -7 26q0 9 7 27h688q9 -5 22 -26.5t17 -41.5l-693 -893h707z" />
    <glyph glyph-name="Zdotaccent" unicode="&#x17b;" horiz-adv-x="1234" 
d="M643 1563q-31 0 -54.5 22.5t-23.5 50.5q0 29 23.5 52.5t54.5 23.5q32 0 56 -23t24 -53q0 -28 -24 -50.5t-56 -22.5zM1094 57q11 -34 8 -57h-938q-9 4 -20 17.5t-11 27.5l885 1229h-834q-20 26 -16 57h883q12 -5 26.5 -24.5t14.5 -36.5l-873 -1213h875z" />
    <glyph glyph-name="zdotaccent" unicode="&#x17c;" horiz-adv-x="1019" 
d="M494 1239q-30 0 -54 23t-24 51q0 29 23.5 52.5t54.5 23.5q32 0 55.5 -23t23.5 -53q0 -28 -23.5 -51t-55.5 -23zM891 53q6 -12 6 -26q0 -12 -6 -27h-729q-12 9 -24 29.5t-15 38.5l692 893h-665q-7 14 -7 26q0 9 7 27h688q9 -5 22 -26.5t17 -41.5l-693 -893h707z" />
    <glyph glyph-name="Zcaron" unicode="&#x17d;" horiz-adv-x="1234" 
d="M672 1507q-8 -3 -30.5 -3t-29.5 3l-190 219q3 9 21 20t32 11l168 -198l166 198q14 0 32 -11t21 -20zM1094 57q11 -34 8 -57h-938q-9 4 -20 17.5t-11 27.5l885 1229h-834q-20 26 -16 57h883q12 -5 26.5 -24.5t14.5 -36.5l-873 -1213h875z" />
    <glyph glyph-name="zcaron" unicode="&#x17e;" horiz-adv-x="1019" 
d="M522 1184q-8 -3 -29.5 -3t-29.5 3l-191 219q3 9 21 20t33 11l168 -199l165 199q15 0 33 -11t21 -20zM891 53q6 -12 6 -26q0 -12 -6 -27h-729q-12 9 -24 29.5t-15 38.5l692 893h-665q-7 14 -7 26q0 9 7 27h688q9 -5 22 -26.5t17 -41.5l-693 -893h707z" />
    <glyph glyph-name="florin" unicode="&#x192;" 
d="M911 1348q106 0 191 -58q0 -16 -9.5 -31t-19.5 -20q-48 29 -76 40t-69 11q-53 0 -89.5 -10.5t-69 -39.5t-54.5 -82t-39 -136l-19 -100h332q-3 -58 -41 -58h-301l-117 -618q-42 -207 -118.5 -298t-196.5 -91q-106 0 -190 57q0 16 9 31t19 20q48 -29 76.5 -40t69.5 -11
q53 0 89.5 10.5t69 39.5t54.5 82t39 136l127 682h-189q7 30 20 44t44 14h137l6 36q42 207 118.5 298.5t196.5 91.5z" />
    <glyph glyph-name="uni0218" unicode="&#x218;" horiz-adv-x="1034" 
d="M547 721q194 -75 274 -160.5t80 -220.5q0 -173 -117.5 -269t-302.5 -96q-172 0 -346 56q-8 35 10 65q197 -59 334 -59q164 0 260.5 78t96.5 223q0 114 -77 188t-270 152q-174 69 -249.5 152t-75.5 194q0 162 106.5 247t311.5 85q125 0 274 -41q15 -29 -6 -72
q-147 49 -287 49q-165 0 -249.5 -65.5t-84.5 -188.5q0 -114 68.5 -180.5t249.5 -136.5zM516 -152q44 0 68 -31.5t24 -76.5q0 -67 -38.5 -130t-94.5 -95q-9 0 -23.5 10.5t-17.5 19.5q97 57 107 156q-8 -2 -23 -2q-37 0 -57.5 22t-20.5 52q0 29 20.5 52t55.5 23z" />
    <glyph glyph-name="uni0219" unicode="&#x219;" horiz-adv-x="862" 
d="M129 80q142 -43 270 -43q118 0 200.5 59.5t82.5 151.5q0 48 -16.5 84t-55 65.5t-83 50.5t-119.5 50q-139 55 -206 119t-67 155q0 130 92.5 196t249.5 66q70 0 143 -14.5t105 -30.5q0 -23 -12 -57q-112 47 -221 47q-149 0 -222 -50t-73 -143q0 -76 54 -132.5t198 -110.5
q169 -62 229.5 -125.5t60.5 -151.5q0 -97 -49 -163t-128 -94.5t-183 -28.5q-135 0 -250 36q-6 15 -6 35t6 29zM449 -152q44 0 68 -31.5t24 -76.5q0 -67 -38.5 -130t-94.5 -95q-9 0 -23.5 10.5t-17.5 19.5q48 29 75 65t31 91q-8 -2 -22 -2q-37 0 -57.5 22t-20.5 52
q0 29 20.5 52t55.5 23z" />
    <glyph glyph-name="uni021A" unicode="&#x21a;" horiz-adv-x="1001" 
d="M76 1331h874q0 -36 -24 -57h-394v-1274h-61v1274h-420q0 40 25 57zM498 -152q44 0 68 -31.5t24 -76.5q0 -67 -38.5 -130t-94.5 -95q-9 0 -23.5 10.5t-17.5 19.5q48 28 74 64.5t32 91.5q-8 -2 -22 -2q-37 0 -57.5 22t-20.5 52q0 29 20.5 52t55.5 23z" />
    <glyph glyph-name="uni021B" unicode="&#x21b;" horiz-adv-x="731" 
d="M629 6q-53 -29 -189 -29q-118 0 -176.5 59t-58.5 200v725h-103q0 55 55.5 109t104.5 54v-110h342q0 -32 -24 -53h-318v-711q0 -116 43.5 -165.5t143.5 -49.5q63 0 155 20q25 -16 25 -49zM408 -152q44 0 68 -31.5t24 -76.5q0 -67 -38.5 -130t-94.5 -95q-9 0 -23.5 10.5
t-17.5 19.5q48 29 75 65t31 91q-8 -2 -22 -2q-37 0 -57.5 22t-20.5 52q0 29 20.5 52t55.5 23z" />
    <glyph glyph-name="uni0237" unicode="&#x237;" horiz-adv-x="376" 
d="M37 -471q-12 4 -24 16t-15 29q79 58 132.5 173.5t53.5 258.5v1008q31 20 58 0v-961q0 -197 -58 -327.5t-147 -196.5z" />
    <glyph glyph-name="circumflex" unicode="&#x2c6;" horiz-adv-x="460" 
d="M260 1450l191 -219q-3 -9 -21 -20t-33 -11l-166 199l-168 -199q-14 0 -32 11t-21 20l191 219q8 3 29.5 3t29.5 -3z" />
    <glyph glyph-name="caron" unicode="&#x2c7;" horiz-adv-x="460" 
d="M397 1434q15 0 33 -11t21 -20l-191 -219q-8 -3 -29.5 -3t-29.5 3l-191 219q3 9 21 20t32 11l168 -199z" />
    <glyph glyph-name="breve" unicode="&#x2d8;" horiz-adv-x="505" 
d="M496 1438q-1 -42 -15 -81t-41 -73.5t-75.5 -55t-110.5 -20.5q-63 0 -111.5 20t-76 54t-41.5 73.5t-15 82.5q28 14 56 0q2 -31 12 -59.5t30.5 -55.5t58.5 -43t89 -16t88.5 17.5t57 45.5t28 55t10.5 56q28 14 56 0z" />
    <glyph glyph-name="dotaccent" unicode="&#x2d9;" horiz-adv-x="178" 
d="M88 1274q-30 0 -54 23t-24 51q0 29 23.5 52t54.5 23q32 0 56 -23t24 -52q0 -28 -24 -51t-56 -23z" />
    <glyph glyph-name="ring" unicode="&#x2da;" horiz-adv-x="366" 
d="M184 1135q-79 0 -126.5 47.5t-47.5 128.5t47.5 128.5t126.5 47.5q78 0 125 -47.5t47 -128.5t-47 -128.5t-125 -47.5zM184 1188q54 0 84.5 34.5t30.5 88.5q0 55 -30.5 89t-84.5 34t-85 -34t-31 -89t31 -89t85 -34z" />
    <glyph glyph-name="ogonek" unicode="&#x2db;" horiz-adv-x="280" 
d="M158 -389q-67 0 -107.5 38t-40.5 111q0 68 54 146t129 121l36 -23q-79 -44 -120 -109t-41 -133q0 -50 23 -73t73 -23q41 0 82 33q24 -17 24 -55q-38 -33 -112 -33z" />
    <glyph glyph-name="tilde" unicode="&#x2dc;" horiz-adv-x="542" 
d="M57 1282q-12 -2 -27.5 1.5t-19.5 10.5q0 82 41 122t103 40q36 0 70.5 -18t57.5 -39.5t54 -39.5t59 -18q49 0 69.5 37t20.5 82q12 2 27.5 -1.5t19.5 -10.5q0 -81 -39.5 -121.5t-91.5 -40.5q-42 0 -80 18t-61.5 39.5t-54 39.5t-58.5 18q-49 0 -69.5 -37t-20.5 -82z" />
    <glyph glyph-name="hungarumlaut" unicode="&#x2dd;" horiz-adv-x="600" 
d="M45 1116l-35 12l148 381l8 -2q24 -3 27 -20q2 -14 -25 -84zM295 1108l-29 22l262 316l9 -4q19 -15 16 -29q-2 -14 -51 -72z" />
    <glyph glyph-name="gravecomb" unicode="&#x300;" horiz-adv-x="0" 
d="M-43 1161l-186 250q-43 58 -43 70q0 18 26 35l6 4l230 -340z" />
    <glyph glyph-name="acutecomb" unicode="&#x301;" horiz-adv-x="0" 
d="M-248 1159l-31 21l228 340l8 -4q20 -10 20 -27q0 -15 -43 -76z" />
    <glyph glyph-name="uni0302" unicode="&#x302;" horiz-adv-x="0" 
d="M-201 1450l191 -219q-3 -9 -21 -20t-32 -11l-166 199l-168 -199q-15 0 -33 11t-21 20l191 219q8 3 29.5 3t29.5 -3z" />
    <glyph glyph-name="tildecomb" unicode="&#x303;" horiz-adv-x="0" 
d="M-485 1282q-12 -2 -27.5 1.5t-19.5 10.5q0 82 40.5 122t102.5 40q36 0 70.5 -18t58 -39.5t54.5 -39.5t59 -18q49 0 69.5 37t20.5 82q12 2 27.5 -1.5t19.5 -10.5q0 -81 -39.5 -121.5t-91.5 -40.5q-42 0 -80 18t-61.5 39.5t-54 39.5t-58.5 18q-49 0 -69.5 -37t-20.5 -82z
" />
    <glyph glyph-name="uni0304" unicode="&#x304;" horiz-adv-x="0" 
d="M-440 1362h430v-62h-430v62z" />
    <glyph glyph-name="uni0306" unicode="&#x306;" horiz-adv-x="0" 
d="M-10 1438q-1 -42 -15 -81t-41 -73.5t-75.5 -55t-110.5 -20.5q-63 0 -111.5 20t-76 54t-41.5 73.5t-15 82.5q28 14 56 0q2 -31 12 -59.5t30.5 -55.5t58.5 -43t89 -16t88.5 17.5t57 45.5t28 55t10.5 56q28 14 56 0z" />
    <glyph glyph-name="uni0307" unicode="&#x307;" horiz-adv-x="0" 
d="M-10 1319q0 -28 -24 -51t-56 -23q-30 0 -54 23t-24 51q0 29 23.5 52.5t54.5 23.5q32 0 56 -23t24 -53z" />
    <glyph glyph-name="uni0308" unicode="&#x308;" horiz-adv-x="0" 
d="M-354 1274q-32 0 -55 21t-23 53q0 33 23 54t55 21q33 0 56.5 -21t23.5 -54q0 -32 -23.5 -53t-56.5 -21zM-90 1274q-32 0 -55 21t-23 53q0 33 23 54t55 21q33 0 56.5 -21t23.5 -54q0 -32 -23.5 -53t-56.5 -21z" />
    <glyph glyph-name="uni030A" unicode="&#x30a;" horiz-adv-x="0" 
d="M-182 1135q-79 0 -126.5 47.5t-47.5 128.5t47.5 128.5t126.5 47.5q78 0 125 -47.5t47 -128.5t-47 -128.5t-125 -47.5zM-182 1188q54 0 84 34.5t30 88.5q0 55 -30 89t-84 34q-55 0 -86 -34t-31 -89t31 -89t86 -34z" />
    <glyph glyph-name="uni030B" unicode="&#x30b;" horiz-adv-x="0" 
d="M-518 1116l-35 12l147 381l9 -2q23 -3 26 -20q2 -16 -24 -84zM-268 1118l-29 23l262 315l8 -4q20 -16 17 -29q-2 -13 -51 -71z" />
    <glyph glyph-name="uni030C" unicode="&#x30c;" horiz-adv-x="0" 
d="M-63 1434q14 0 32 -11t21 -20l-191 -219q-8 -3 -29.5 -3t-29.5 3l-191 219q3 9 21 20t33 11l168 -199z" />
    <glyph glyph-name="uni0312" unicode="&#x312;" horiz-adv-x="0" 
d="M-94 1386q37 0 57.5 -21.5t20.5 -51.5q0 -29 -21 -52.5t-55 -23.5q-44 0 -68 31.5t-24 77.5q0 67 38.5 130t94.5 95q9 0 23.5 -11t17.5 -20q-97 -57 -107 -156q8 2 23 2z" />
    <glyph glyph-name="uni0315" unicode="&#x315;" horiz-adv-x="0" 
d="M-27 1083q-31 0 -47 4v414q31 0 47.5 -13.5t16.5 -51.5q0 -39 -6 -167.5t-11 -185.5z" />
    <glyph glyph-name="uni0326" unicode="&#x326;" horiz-adv-x="0" 
d="M-102 -152q44 0 68 -31.5t24 -76.5q0 -67 -38.5 -130t-94.5 -95q-9 0 -23.5 10.5t-17.5 19.5q48 29 75 65t31 91q-8 -2 -22 -2q-37 0 -57.5 22t-20.5 52q0 29 20.5 52t55.5 23z" />
    <glyph glyph-name="uni0327" unicode="&#x327;" horiz-adv-x="0" 
d="M-184 -135q73 0 123.5 -42.5t50.5 -117.5q0 -85 -65 -134.5t-169 -49.5q-73 0 -131 14q0 43 8 59q68 -18 144 -18q74 0 114.5 36.5t40.5 90.5q0 46 -31 76.5t-98 30.5q-46 0 -90 -21q-14 6 -26 17.5t-9 23.5l80 170h62l-66 -145q27 10 62 10z" />
    <glyph glyph-name="uni0328" unicode="&#x328;" horiz-adv-x="0" 
d="M-123 -389q-67 0 -107 38t-40 111q0 68 53.5 146t128.5 121l37 -23q-79 -44 -120.5 -109.5t-41.5 -132.5q0 -50 23.5 -73t72.5 -23q41 0 82 33q25 -18 25 -55q-38 -33 -113 -33z" />
    <glyph glyph-name="Wgrave" unicode="&#x1e80;" horiz-adv-x="1714" 
d="M864 1487l-186 250q-43 58 -43 69q0 17 27 35l6 4l229 -340zM1599 1331q32 14 64 0l-336 -1333q-41 -13 -82 0l-387 1259l-389 -1259q-41 -13 -82 0l-336 1333q32 14 64 0l313 -1243l383 1241q48 17 90 2l385 -1245z" />
    <glyph glyph-name="wgrave" unicode="&#x1e81;" horiz-adv-x="1339" 
d="M676 1161l-187 250q-43 58 -43 70q0 17 27 35l6 4l230 -340zM1249 1014q15 8 34.5 8t31.5 -8l-273 -1014q-12 -8 -34 -8q-30 0 -41 8l-297 938l-297 -938q-11 -8 -41 -8q-23 0 -35 8l-272 1014q12 8 31 8t34 -8l246 -934l299 934q35 15 70 0l299 -934z" />
    <glyph glyph-name="Wacute" unicode="&#x1e82;" horiz-adv-x="1714" 
d="M1042 1739l-182 -254l-31 20l228 340l8 -4q20 -10 20 -26q0 -15 -43 -76zM1599 1331q32 14 64 0l-336 -1333q-41 -13 -82 0l-387 1259l-389 -1259q-41 -13 -82 0l-336 1333q32 14 64 0l313 -1243l383 1241q48 17 90 2l385 -1245z" />
    <glyph glyph-name="wacute" unicode="&#x1e83;" horiz-adv-x="1339" 
d="M854 1413l-182 -254l-31 21l227 340l9 -4q20 -10 20 -27q0 -15 -43 -76zM1249 1014q15 8 34.5 8t31.5 -8l-273 -1014q-12 -8 -34 -8q-30 0 -41 8l-297 938l-297 -938q-11 -8 -41 -8q-23 0 -35 8l-272 1014q12 8 31 8t34 -8l246 -934l299 934q35 15 70 0l299 -934z" />
    <glyph glyph-name="Wdieresis" unicode="&#x1e84;" horiz-adv-x="1714" 
d="M725 1585q-32 0 -55 21t-23 53q0 33 23 54.5t55 21.5q33 0 56.5 -21.5t23.5 -54.5q0 -32 -23.5 -53t-56.5 -21zM989 1585q-32 0 -55 21t-23 53q0 33 23 54.5t55 21.5q33 0 56.5 -21.5t23.5 -54.5q0 -32 -23.5 -53t-56.5 -21zM1599 1331q32 14 64 0l-336 -1333
q-41 -13 -82 0l-387 1259l-389 -1259q-41 -13 -82 0l-336 1333q32 14 64 0l313 -1243l383 1241q48 17 90 2l385 -1245z" />
    <glyph glyph-name="wdieresis" unicode="&#x1e85;" horiz-adv-x="1339" 
d="M537 1260q-32 0 -55 21t-23 52q0 33 23 54.5t55 21.5q33 0 56 -21.5t23 -54.5q0 -32 -23 -52.5t-56 -20.5zM801 1260q-32 0 -55 21t-23 52q0 33 23 54.5t55 21.5q33 0 56.5 -21.5t23.5 -54.5q0 -32 -23.5 -52.5t-56.5 -20.5zM1249 1014q15 8 34.5 8t31.5 -8l-273 -1014
q-12 -8 -34 -8q-30 0 -41 8l-297 938l-297 -938q-11 -8 -41 -8q-23 0 -35 8l-272 1014q12 8 31 8t34 -8l246 -934l299 934q35 15 70 0l299 -934z" />
    <glyph glyph-name="uni1E9E" unicode="&#x1e9e;" horiz-adv-x="1386" 
d="M836 782q209 -78 326.5 -187t117.5 -249q0 -78 -21 -143.5t-63.5 -118t-113.5 -82t-164 -29.5q-97 0 -161 11t-149 36q-14 39 10 70q186 -53 300 -53q60 0 111 15.5t93.5 48.5t67 91t24.5 136q0 132 -95 225.5t-304 165.5q-49 24 -49 72l303 428q-148 79 -371 79
q-236 0 -354.5 -116.5t-118.5 -337.5v-844q-31 -15 -61 0v842q0 257 139.5 388t403.5 134q240 3 450 -123z" />
    <glyph glyph-name="Ygrave" unicode="&#x1ef2;" horiz-adv-x="1073" 
d="M543 1487l-187 250q-43 58 -43 69q0 17 27 35l6 4l229 -340zM1022 1331l-455 -794v-537h-61v537l-455 794q15 7 36 7t36 -7l414 -721l413 721q15 7 36 7t36 -7z" />
    <glyph glyph-name="ygrave" unicode="&#x1ef3;" horiz-adv-x="923" 
d="M471 1161l-186 250q-43 58 -43 70q0 18 26 35l6 4l230 -340zM829 1014q20 8 32 8t32 -8l-379 -932q-57 -136 -153 -270.5t-207 -221.5q-38 5 -56 43q116 86 188.5 180.5t145.5 231.5l4 6l-405 963q23 6 33.5 6t33.5 -6l369 -889z" />
    <glyph glyph-name="endash" unicode="&#x2013;" horiz-adv-x="1024" 
d="M53 600q0 33 11.5 45t48.5 12h858q0 -33 -11.5 -45t-48.5 -12h-858z" />
    <glyph glyph-name="emdash" unicode="&#x2014;" horiz-adv-x="1638" 
d="M53 600q0 33 11.5 45t48.5 12h1472q0 -34 -11 -45.5t-48 -11.5h-1473z" />
    <glyph glyph-name="quoteleft" unicode="&#x2018;" horiz-adv-x="245" 
d="M125 1188q38 0 65 -27t27 -65t-27 -65t-65 -27q-39 0 -66.5 30t-27.5 74q0 72 53.5 166.5t108.5 138.5q9 -1 23 -11t20 -18q-32 -32 -68.5 -89.5t-54.5 -108.5q4 2 12 2z" />
    <glyph glyph-name="quoteright" unicode="&#x2019;" horiz-adv-x="245" 
d="M121 1399q39 0 66.5 -30.5t27.5 -74.5q0 -72 -53.5 -166.5t-108.5 -138.5q-9 1 -23 11t-20 18q31 31 68 89.5t55 109.5q-6 -3 -12 -3q-38 0 -65 27.5t-27 65.5t27 65t65 27z" />
    <glyph glyph-name="quotesinglbase" unicode="&#x201a;" horiz-adv-x="245" 
d="M121 170q39 0 66.5 -30t27.5 -74q0 -72 -54 -167t-108 -139q-9 1 -23 11t-20 18q31 31 68 89.5t55 109.5q-4 -2 -12 -2q-38 0 -65 27t-27 65t27 65t65 27z" />
    <glyph glyph-name="quotedblleft" unicode="&#x201c;" horiz-adv-x="512" 
d="M193 1413q9 -1 23 -11t20 -18q-32 -32 -68.5 -89.5t-54.5 -108.5q4 2 12 2q38 0 65 -27t27 -65t-27 -65t-65 -27q-39 0 -66.5 30t-27.5 74q0 72 53.5 166.5t108.5 138.5zM391 1188q38 0 65 -27t27 -65t-27 -65t-65 -27q-39 0 -66.5 30t-27.5 74q0 72 53.5 166.5
t108.5 138.5q9 -1 23 -11t20 -18q-32 -32 -68.5 -89.5t-54.5 -108.5q4 2 12 2z" />
    <glyph glyph-name="quotedblright" unicode="&#x201d;" horiz-adv-x="512" 
d="M121 1399q39 0 66.5 -30.5t27.5 -74.5q0 -72 -53.5 -166.5t-108.5 -138.5q-9 1 -23 11t-20 18q31 31 68 89.5t55 109.5q-6 -3 -12 -3q-38 0 -65 27.5t-27 65.5t27 65t65 27zM387 1399q39 0 66.5 -30.5t27.5 -74.5q0 -72 -53.5 -166.5t-108.5 -138.5q-9 1 -23 11t-20 18
q31 31 68 89.5t55 109.5q-6 -3 -12 -3q-38 0 -65 27.5t-27 65.5t27 65t65 27z" />
    <glyph glyph-name="quotedblbase" unicode="&#x201e;" horiz-adv-x="512" 
d="M121 170q39 0 66.5 -30t27.5 -74q0 -72 -54 -167t-108 -139q-9 1 -23 11t-20 18q31 31 68 89.5t55 109.5q-4 -2 -12 -2q-38 0 -65 27t-27 65t27 65t65 27zM387 170q39 0 66.5 -30t27.5 -74q0 -72 -54 -167t-108 -139q-9 1 -23 11t-20 18q31 31 68 89.5t55 109.5
q-4 -2 -12 -2q-38 0 -65 27t-27 65t27 65t65 27z" />
    <glyph glyph-name="dagger" unicode="&#x2020;" horiz-adv-x="1228" 
d="M915 1102q0 -33 -18 -58h-272l-7 -774q-24 -15 -49 0l-6 774h-305q0 33 18 58h285l-2 299q12 17 35 17t35 -17l-2 -299h288z" />
    <glyph glyph-name="daggerdbl" unicode="&#x2021;" horiz-adv-x="1228" 
d="M618 854l5 -190h292q0 -33 -18 -58h-274l6 -299q-12 -17 -35 -17t-35 17l6 299h-307q0 33 18 58h289l4 190l-4 190h-307q0 33 18 58h289l-6 299q12 17 35 17t35 -17l-6 -299h292q0 -33 -18 -58h-274z" />
    <glyph glyph-name="bullet" unicode="&#x2022;" horiz-adv-x="684" 
d="M342 391q-62 0 -104.5 42.5t-42.5 105.5q0 60 42.5 101.5t104.5 41.5q63 0 105 -41.5t42 -101.5q0 -63 -42 -105.5t-105 -42.5z" />
    <glyph glyph-name="ellipsis" unicode="&#x2026;" horiz-adv-x="1437" 
d="M262 -10q-41 0 -69.5 28.5t-28.5 69.5q0 40 28.5 68t69.5 28t69.5 -28t28.5 -68q0 -41 -28.5 -69.5t-69.5 -28.5zM729 -10q-41 0 -69.5 28.5t-28.5 69.5q0 40 28.5 68t69.5 28t69.5 -28t28.5 -68q0 -41 -28.5 -69.5t-69.5 -28.5zM1176 -10q-41 0 -70 28.5t-29 69.5
q0 40 29 68t70 28t69.5 -28t28.5 -68q0 -41 -28.5 -69.5t-69.5 -28.5z" />
    <glyph glyph-name="perthousand" unicode="&#x2030;" horiz-adv-x="2164" 
d="M256 -6l862 1282q49 71 67 82.5t70 3.5l-862 -1282q-47 -70 -66 -82t-71 -4zM332 1352q-127 0 -204 -87.5t-77 -254.5q0 -166 77.5 -255t203.5 -89t203 89t77 255q0 167 -76.5 254.5t-203.5 87.5zM332 721q-107 0 -162 76t-55 213q0 138 55 212t162 74q106 0 160.5 -73.5
t54.5 -212.5q0 -138 -54.5 -213.5t-160.5 -75.5zM1151 670q-127 0 -204 -87.5t-77 -254.5q0 -166 77.5 -255t203.5 -89t203.5 89t77.5 255q0 167 -77 254.5t-204 87.5zM1843 670q-127 0 -203.5 -87.5t-76.5 -254.5q0 -166 77 -255t203 -89t203.5 89t77.5 255
q0 167 -77 254.5t-204 87.5zM1151 39q-107 0 -162 76t-55 213q0 138 55 212t162 74q106 0 160.5 -73.5t54.5 -212.5q0 -138 -54.5 -213.5t-160.5 -75.5zM1843 39q-107 0 -162 76t-55 213q0 138 55 212t162 74q106 0 160.5 -73.5t54.5 -212.5q0 -138 -54.5 -213.5
t-160.5 -75.5z" />
    <glyph glyph-name="guilsinglleft" unicode="&#x2039;" horiz-adv-x="546" 
d="M506 981l-365 -442l365 -443q-37 -15 -74 0l-291 359q-33 40 -41 54.5t-8 29.5t8 29.5t41 54.5l291 358q37 15 74 0z" />
    <glyph glyph-name="guilsinglright" unicode="&#x203a;" horiz-adv-x="546" 
d="M406 623q33 -40 41 -54.5t8 -29.5t-8 -29.5t-41 -54.5l-291 -359q-37 -15 -74 0l365 443l-365 442q37 15 74 0z" />
    <glyph glyph-name="fraction" unicode="&#x2044;" horiz-adv-x="323" 
d="M-266 -90q-23 0 -41 12l860 1508q11 18 41 18q20 0 37 -12l-862 -1508q-9 -18 -35 -18z" />
    <glyph glyph-name="lira" unicode="&#x20a4;" 
d="M989 420q30 15 60 0v-45q0 -375 -426 -375h-361v520l-199 -100q-4 8 -4 14q0 23 11 40t45 34l147 76v182l-199 -100q-4 8 -4 14q0 23 11 40t45 34l147 75v502q31 15 62 0v-469l415 213q4 -8 4 -14q0 -20 -14 -41.5t-39 -34.5l-366 -186v-183l415 213q4 -8 4 -14
q0 -20 -14 -41.5t-39 -34.5l-366 -186v-496h268q219 0 308 84t89 279z" />
    <glyph glyph-name="uni20A6" unicode="&#x20a6;" 
d="M983 770v-209h113q-3 -57 -41 -57h-72v-504q-31 -12 -61 0l-297 504h-418v-504h-62v504h-114q7 30 19.5 43.5t43.5 13.5h51v209h-114q7 30 19.5 43.5t43.5 13.5h51v504q31 12 62 0l297 -504h418v504h61v-504h113q-3 -57 -41 -57h-72zM207 827h227l-227 385v-385zM207 561
h383l-123 209h-260v-209zM922 770h-383l123 -209h260v209zM922 504h-226l226 -383v383z" />
    <glyph glyph-name="uni20A8" unicode="&#x20a8;" 
d="M637 1274q101 -46 156.5 -134.5t58.5 -207.5h229q-3 -58 -41 -58h-190q-9 -74 -44.5 -136.5t-98 -111.5t-158.5 -76.5t-217 -27.5h-33l688 -522h-100l-692 522q0 56 65 56q238 0 372.5 78.5t153.5 217.5h-694q7 30 20 44t44 14h632q-2 63 -21 118.5t-57.5 104t-105 80.5
t-153.5 39h-359q7 30 20 43.5t44 13.5h925q-3 -57 -41 -57h-403z" />
    <glyph glyph-name="uni20A9" unicode="&#x20a9;" 
d="M967 854l-27 -209h176q-3 -57 -41 -57h-143l-76 -590q-41 -13 -82 0l-108 590h-222l-98 -590q-41 -13 -82 0l-76 590h-178q7 30 20 43.5t44 13.5h106l-26 209h-144q7 30 20 43.5t44 13.5h71l-53 420q30 13 60 0l51 -420h243l70 420q22 7 34 7t34 -7l75 -420h259l51 420
q30 13 59 0l-53 -420h141q-3 -57 -41 -57h-108zM551 1219l-51 -308h106zM209 854l24 -209h168l35 209h-227zM455 645h200l-39 209h-127zM911 854h-239l37 -209h178zM303 59l88 529h-151zM817 57l64 531h-162z" />
    <glyph glyph-name="uni20AA" unicode="&#x20aa;" 
d="M799 4q-99 0 -174.5 20t-134.5 64.5t-90 123t-31 189.5v476h57v-482q0 -76 17 -134t45.5 -94.5t71 -59t88 -31t102.5 -8.5h241v1267h58v-1331h-250zM78 0v1331h250q99 0 174.5 -20t134.5 -64.5t90 -123t31 -189.5v-475h-58v481q0 76 -17 134.5t-45.5 94.5t-70.5 58.5
t-88 31.5t-102 9h-242v-1268h-57z" />
    <glyph glyph-name="Euro" unicode="&#x20ac;" 
d="M1049 201q19 -5 28 -13.5t13 -29.5q-147 -166 -408 -166q-188 0 -314 135t-161 371h-146q7 30 20 43.5t44 13.5h76q-6 55 -6 117q0 68 6 133h-140q7 30 20 43.5t44 13.5h84q39 229 163.5 359.5t309.5 130.5q261 0 408 -166q-4 -20 -14 -29t-29 -14q-69 77 -156 112
t-209 35q-168 0 -272.5 -110t-135.5 -318h531q-3 -57 -41 -57h-498q-6 -61 -6 -133q0 -43 4 -117h398q-3 -57 -41 -57h-351q29 -216 135 -330.5t277 -114.5q122 0 210 35.5t157 112.5z" />
    <glyph glyph-name="uni20BD" unicode="&#x20bd;" 
d="M485 502h-155v-236h332q-3 -57 -41 -57h-291v-209h-62v209h-207q0 57 64 57h143v236h-207q0 57 64 57h143v752q168 41 289 41q105 0 190.5 -25t140.5 -65t92.5 -94t53 -110t15.5 -114q0 -190 -154 -316t-410 -126zM330 1264v-705h135q138 0 240 29.5t161.5 83.5t88 121.5
t28.5 150.5q0 70 -23 129.5t-73 110t-141 79.5t-216 29q-118 0 -200 -28z" />
    <glyph glyph-name="trademark" unicode="&#x2122;" horiz-adv-x="1347" 
d="M1165 1333q45 9 92 0v-674h-61v363l2 229l-225 -524q-29 -7 -58 0l-225 524l2 -229v-363h-61v674q46 9 92 0l221 -518zM37 1276q0 39 12 57h457q0 -33 -12 -57h-191v-617h-61v617h-205z" />
    <glyph glyph-name="oneeighth" unicode="&#x215b;" horiz-adv-x="1984" 
d="M1423 1448q20 0 37 -12l-862 -1508q-9 -18 -35 -18q-23 0 -41 12l860 1508q11 18 41 18zM653 520q15 -28 0 -55h-534q-12 29 0 55h252v748q-226 -110 -250 -115q-25 10 -25 45q181 99 297 148q33 -11 39 -31v-795h221zM1667 461q106 -33 158.5 -91.5t52.5 -133.5
q0 -82 -44 -140t-112.5 -84t-152.5 -26q-133 0 -221 61.5t-88 175.5q0 84 55 148.5t131 91.5q-146 60 -146 201q0 94 77.5 155.5t191.5 61.5q112 0 189 -55t77 -148q0 -74 -50 -133t-118 -84zM1364 668q0 -76 45.5 -120t175.5 -69q73 11 131 68.5t58 122.5q0 75 -56.5 114
t-148.5 39q-93 0 -149 -43.5t-56 -111.5zM1569 45q112 0 177.5 48.5t65.5 139.5q0 158 -264 201q-3 1 -10 2t-10 2q-80 -17 -142.5 -72t-62.5 -133q0 -94 69.5 -141t176.5 -47z" />
    <glyph glyph-name="threeeighths" unicode="&#x215c;" horiz-adv-x="1984" 
d="M1423 1448q20 0 37 -12l-862 -1508q-9 -18 -35 -18q-23 0 -41 12l860 1508q11 18 41 18zM709 694q0 -103 -85 -172t-233 -69q-159 0 -258 53q-6 18 -6 35q0 23 14 37q41 -28 106 -48t124 -20q120 0 196 47.5t76 136.5q0 193 -291 193h-98q0 40 22 53h56q150 -1 217 43
t67 143q0 73 -58.5 117.5t-151.5 44.5q-126 0 -256 -92q-11 18 -11 35t6 29q119 86 271 86q117 0 190.5 -58t73.5 -160q0 -91 -44.5 -143t-113.5 -72q85 -23 136 -80t51 -139zM1667 461q106 -33 158.5 -91.5t52.5 -133.5q0 -82 -44 -140t-112.5 -84t-152.5 -26
q-133 0 -221 61.5t-88 175.5q0 84 55 148.5t131 91.5q-146 60 -146 201q0 94 77.5 155.5t191.5 61.5q112 0 189 -55t77 -148q0 -74 -50 -133t-118 -84zM1364 668q0 -76 45.5 -120t175.5 -69q73 11 131 68.5t58 122.5q0 75 -56.5 114t-148.5 39q-93 0 -149 -43.5t-56 -111.5z
M1569 45q112 0 177.5 48.5t65.5 139.5q0 158 -264 201q-3 1 -10 2t-10 2q-80 -17 -142.5 -72t-62.5 -133q0 -94 69.5 -141t176.5 -47z" />
    <glyph glyph-name="fiveeighths" unicode="&#x215d;" horiz-adv-x="1984" 
d="M1423 1448q20 0 37 -12l-862 -1508q-9 -18 -35 -18q-23 0 -41 12l860 1508q11 18 41 18zM680 725q0 -133 -89.5 -202.5t-258.5 -69.5q-122 0 -209 41q-4 16 -4 30q0 18 8 29q110 -45 213 -45q139 0 207.5 58.5t68.5 142.5q0 92 -70.5 149t-250.5 82l-88 12q-47 15 -47 54
l90 325h424q0 -26 -25 -55h-348l-76 -268l152 -29q148 -28 225.5 -93t77.5 -161zM1667 461q106 -33 158.5 -91.5t52.5 -133.5q0 -82 -44 -140t-112.5 -84t-152.5 -26q-133 0 -221 61.5t-88 175.5q0 84 55 148.5t131 91.5q-146 60 -146 201q0 94 77.5 155.5t191.5 61.5
q112 0 189 -55t77 -148q0 -74 -50 -133t-118 -84zM1364 668q0 -76 45.5 -120t175.5 -69q73 11 131 68.5t58 122.5q0 75 -56.5 114t-148.5 39q-93 0 -149 -43.5t-56 -111.5zM1569 45q112 0 177.5 48.5t65.5 139.5q0 158 -264 201q-3 1 -10 2t-10 2q-80 -17 -142.5 -72
t-62.5 -133q0 -94 69.5 -141t176.5 -47z" />
    <glyph glyph-name="seveneighths" unicode="&#x215e;" horiz-adv-x="1878" 
d="M1317 1448q20 0 37 -12l-862 -1508q-9 -18 -35 -18q-23 0 -41 12l860 1508q11 18 41 18zM690 1331q12 -8 22.5 -27t10.5 -36l-434 -803q-51 -12 -60 0q0 15 192.5 374.5t235.5 420.5l13 16h-541q-12 29 0 55h561zM1561 461q106 -33 158.5 -91.5t52.5 -133.5
q0 -82 -44.5 -140t-113 -84t-152.5 -26q-133 0 -221 61.5t-88 175.5q0 84 55 148.5t131 91.5q-145 60 -145 201q0 94 77 155.5t191 61.5q112 0 189.5 -55t77.5 -148q0 -74 -50 -133t-118 -84zM1257 668q0 -75 46 -119.5t176 -69.5q73 11 130.5 68.5t57.5 122.5
q0 75 -56.5 114t-148.5 39q-93 0 -149 -43.5t-56 -111.5zM1462 45q112 0 178 48.5t66 139.5q0 158 -264 201q-3 1 -10.5 2t-10.5 2q-80 -17 -142 -72t-62 -133q0 -94 69.5 -141t175.5 -47z" />
    <glyph glyph-name="arrowleft" unicode="&#x2190;" horiz-adv-x="962" 
d="M909 600h-598l-145 6l317 -209q24 -17 25.5 -30t-12.5 -39l-390 262q-24 14 -24 41q0 25 24 39l390 262q16 -33 13 -44.5t-26 -25.5l-319 -211l147 6h598q6 -29 0 -57z" />
    <glyph glyph-name="arrowup" unicode="&#x2191;" horiz-adv-x="768" 
d="M424 1022l262 -389q-25 -15 -39.5 -13.5t-30.5 25.5l-208 318l6 -146v-598q-29 -6 -58 0v598l6 148l-210 -320q-14 -23 -25.5 -25.5t-44.5 13.5l262 389q15 25 39 25q26 0 41 -25z" />
    <glyph glyph-name="arrowright" unicode="&#x2192;" horiz-adv-x="962" 
d="M856 670q25 -15 25 -39q0 -26 -25 -41l-389 -262q-15 25 -13.5 39t25.5 30l318 209l-146 -6h-598q-6 28 0 57h598l148 -6l-320 211q-23 14 -25.5 25.5t13.5 44.5z" />
    <glyph glyph-name="arrowdown" unicode="&#x2193;" horiz-adv-x="768" 
d="M616 616q17 24 30.5 25.5t39.5 -12.5l-262 -389q-15 -25 -41 -25q-24 0 -39 25l-262 389q33 16 44.5 13t25.5 -26l210 -319l-6 147v598q29 6 58 0v-598l-6 -145z" />
    <glyph glyph-name="arrowboth" unicode="&#x2194;" horiz-adv-x="1382" 
d="M1276 666q24 -14 24 -41q0 -25 -24 -39l-389 -262q-16 33 -13.5 44t25.5 25l320 211l-148 -6h-760l-145 6l317 -209q24 -17 25.5 -30t-12.5 -39l-390 262q-24 14 -24 41q0 24 22 39l392 262q16 -33 13 -44.5t-26 -25.5l-319 -211l147 6h760l146 -6l-318 209
q-24 16 -25.5 30.5t13.5 39.5z" />
    <glyph glyph-name="arrowupdn" unicode="&#x2195;" horiz-adv-x="770" 
d="M616 459q16 24 30.5 25.5t39.5 -13.5l-262 -389q-15 -25 -41 -25q-24 0 -39 25l-262 389q33 16 44.5 13.5t25.5 -25.5l210 -320l-6 148v760l6 145l-208 -318q-16 -24 -30.5 -25.5t-39.5 13.5l262 389q15 25 41 25q24 0 39 -25l262 -389q-33 -16 -44.5 -13.5t-25.5 25.5
l-210 320l6 -147v-760l-6 -146z" />
    <glyph glyph-name="uni2196" unicode="&#x2196;" horiz-adv-x="751" 
d="M246 782l424 -424q-17 -24 -41 -39l-424 422l-99 107l78 -371q4 -28 -4 -39t-37 -20l-90 461q-7 27 13 47q14 17 45 10l460 -90q-11 -33 -21.5 -39.5t-37.5 -1.5l-375 78z" />
    <glyph glyph-name="uni2197" unicode="&#x2197;" horiz-adv-x="751" 
d="M686 926q11 -11 13.5 -19.5t-1.5 -27.5l-90 -461q-29 9 -37 20t-4 39l78 371l-98 -107l-424 -422q-24 15 -41 39l424 424l108 101l-374 -78q-27 -5 -38 1.5t-22 39.5l461 90q31 7 45 -10z" />
    <glyph glyph-name="uni2198" unicode="&#x2198;" horiz-adv-x="751" 
d="M698 379q4 -19 1.5 -27.5t-13.5 -19.5q-14 -17 -45 -10l-461 90q11 33 22 39.5t38 1.5l374 -78l-108 100l-424 424q17 24 41 39l424 -422l98 -106l-78 370q-4 28 4 39.5t37 20.5z" />
    <glyph glyph-name="uni2199" unicode="&#x2199;" horiz-adv-x="751" 
d="M512 453q27 5 37.5 -1.5t21.5 -39.5l-460 -90q-31 -7 -45 10q-20 20 -13 47l90 461q29 -9 37 -20.5t4 -39.5l-78 -370l99 106l424 422q24 -15 41 -39l-424 -424l-109 -100z" />
    <glyph glyph-name="minus" unicode="&#x2212;" 
d="M102 600q0 33 11.5 45t48.5 12h862q0 -34 -11 -45.5t-48 -11.5h-863z" />
    <glyph glyph-name="approxequal" unicode="&#x2248;" 
d="M211 725q-12 -2 -30.5 1.5t-22.5 10.5q0 105 60 164.5t151 59.5q57 0 114 -27t96 -59.5t89.5 -59.5t95.5 -27q35 0 63.5 14.5t44 35t26 46t14 45.5t3.5 36q12 2 31 -2t23 -11q0 -104 -59.5 -163.5t-139.5 -59.5q-66 0 -127.5 27t-100 59t-87.5 59t-93 27q-43 0 -75 -18.5
t-47 -48t-22 -56.5t-7 -53zM211 295q-12 -2 -30.5 1.5t-22.5 10.5q0 105 60 164t151 59q57 0 114 -27t96 -59t89.5 -59t95.5 -27q35 0 63.5 14.5t44 35t26 46t14 45.5t3.5 36q12 2 31 -2t23 -11q0 -104 -59.5 -163.5t-139.5 -59.5q-63 0 -121 27t-95 59t-83 59t-88 27
q-49 0 -85 -18.5t-53.5 -48t-25.5 -56.5t-8 -53z" />
    <glyph glyph-name="notequal" unicode="&#x2260;" 
d="M668 805l-148 -352h504q0 -34 -11 -46t-48 -12h-467l-131 -315q-32 12 -38.5 26t7.5 50l98 239h-332q0 34 11.5 46t48.5 12h297l145 352h-502q0 33 11.5 45t48.5 12h467l131 318q32 -12 38.5 -26t-7.5 -50l-101 -242h334q0 -34 -11 -45.5t-48 -11.5h-297z" />
    <glyph glyph-name="lessequal" unicode="&#x2264;" 
d="M903 412q31 -13 35 -32t-12 -48l-768 330q-35 14 -35 49t35 49l768 330q16 -29 12 -48t-35 -32l-706 -299zM879 166q37 0 48 -11.5t11 -45.5h-756q-37 0 -48 11.5t-11 45.5h756z" />
    <glyph glyph-name="greaterequal" unicode="&#x2265;" 
d="M201 332q-11 21 -13 34.5t6 25t29 20.5l707 299l-707 299q-21 9 -29 20.5t-6 25t13 34.5l768 -330q35 -14 35 -49t-35 -49zM188 109q0 33 11.5 45t48.5 12h756q0 -33 -11.5 -45t-48.5 -12h-756z" />
    <glyph glyph-name="lozenge" unicode="&#x25ca;" horiz-adv-x="1003" 
d="M532 1331l410 -661l-410 -662q-30 -15 -61 0l-410 662l410 661q31 15 61 0zM502 57l379 613l-379 612l-379 -612z" />
    <glyph glyph-name="i.loclTRK" horiz-adv-x="425" 
d="M231 1319q0 -28 -23.5 -51t-55.5 -23q-30 0 -54 23t-24 51q0 29 23.5 52.5t54.5 23.5q32 0 55.5 -23t23.5 -53zM184 0v1014q12 9 29 9t29 -9v-1014h-58z" />
    <glyph glyph-name="a.sc" horiz-adv-x="1081" 
d="M950 0l-129 307h-567l-123 -307h-68l437 1071q33 10 65 0l453 -1071h-68zM276 362h523l-267 633z" />
    <glyph glyph-name="aacute.sc" horiz-adv-x="1081" 
d="M688 1380l-151 -196l-31 20l192 271l9 -5q20 -9 20 -24t-39 -66zM950 0l-129 307h-567l-123 -307h-68l437 1071q33 10 65 0l453 -1071h-68zM276 362h523l-267 633z" />
    <glyph glyph-name="abreve.sc" horiz-adv-x="1081" 
d="M535 1223q-57 0 -100 17.5t-66.5 46t-34.5 60t-12 64.5q27 11 55 0q2 -53 40 -95t118 -42q43 0 74.5 13.5t47.5 36t23.5 44t9.5 43.5q27 10 53 0q-2 -76 -53 -132t-155 -56zM950 0l-129 307h-567l-123 -307h-68l437 1071q33 10 65 0l453 -1071h-68zM276 362h523l-267 633
z" />
    <glyph glyph-name="acircumflex.sc" horiz-adv-x="1081" 
d="M393 1194q-13 0 -30.5 10t-20.5 19l162 176q9 3 30 3t27 -3l162 -176q-3 -9 -20.5 -19t-30.5 -10l-140 158zM950 0l-129 307h-567l-123 -307h-68l437 1071q33 10 65 0l453 -1071h-68zM276 362h523l-267 633z" />
    <glyph glyph-name="adieresis.sc" horiz-adv-x="1081" 
d="M418 1262q-28 0 -49 18t-21 45t21 46.5t49 19.5q29 0 50 -19t21 -47q0 -27 -20.5 -45t-50.5 -18zM647 1262q-28 0 -48.5 18t-20.5 45t20.5 46.5t48.5 19.5q29 0 50.5 -19t21.5 -47q0 -27 -21 -45t-51 -18zM950 0l-129 307h-567l-123 -307h-68l437 1071q33 10 65 0
l453 -1071h-68zM276 362h523l-267 633z" />
    <glyph glyph-name="agrave.sc" horiz-adv-x="1081" 
d="M537 1186l-158 196q-37 46 -37 56q0 16 27 32l6 5l194 -271zM950 0l-129 307h-567l-123 -307h-68l437 1071q33 10 65 0l453 -1071h-68zM276 362h523l-267 633z" />
    <glyph glyph-name="amacron.sc" horiz-adv-x="1081" 
d="M719 1352v-58h-371v58h371zM950 0l-129 307h-567l-123 -307h-68l437 1071q33 10 65 0l453 -1071h-68zM276 362h523l-267 633z" />
    <glyph glyph-name="aogonek.sc" horiz-adv-x="1079" 
d="M1034 -242q24 -19 21 -49q-30 -26 -97 -26q-58 0 -93.5 31.5t-35.5 90.5q0 48 35.5 102.5t89.5 92.5h-4l-129 307h-567l-123 -307h-68l437 1071q33 10 65 0l453 -1069l2 -2q-66 -35 -101.5 -86.5t-35.5 -103.5q0 -76 82 -76q38 0 69 24zM276 362h523l-267 633z" />
    <glyph glyph-name="aring.sc" horiz-adv-x="1081" 
d="M535 1165q-70 0 -112 39.5t-42 106.5q0 66 42.5 104.5t111.5 38.5q68 0 108.5 -38.5t40.5 -104.5q0 -67 -40.5 -106.5t-108.5 -39.5zM535 1407q-46 0 -72.5 -27t-26.5 -69q0 -44 26.5 -71.5t72.5 -27.5q44 0 70 28t26 71q0 42 -25.5 69t-70.5 27zM950 0l-129 307h-567
l-123 -307h-68l437 1071q33 10 65 0l453 -1071h-68zM276 362h523l-267 633z" />
    <glyph glyph-name="atilde.sc" horiz-adv-x="1081" 
d="M358 1278q-11 -2 -25 1t-18 9q0 68 34.5 101.5t88.5 33.5q38 0 74 -22.5t69.5 -45t63.5 -22.5q40 0 57 29t17 65q11 2 26 -1t19 -9q0 -67 -34 -101t-79 -34t-83.5 22.5t-71 45t-62.5 22.5q-40 0 -58 -29.5t-18 -64.5zM950 0l-129 307h-567l-123 -307h-68l437 1071
q33 10 65 0l453 -1071h-68zM276 362h523l-267 633z" />
    <glyph glyph-name="ae.sc" horiz-adv-x="1550" 
d="M868 55h557v-55h-612l-45 305h-473l-164 -305h-68l570 1065h655v-55h-559l66 -449h481q0 -30 -14 -55h-459zM324 360h436l-94 639z" />
    <glyph glyph-name="b.sc" horiz-adv-x="1003" 
d="M608 573q149 -20 216 -87t67 -187q0 -131 -117.5 -215t-304.5 -84h-276v1055q137 26 268 26q165 0 265.5 -72t100.5 -188q0 -201 -219 -248zM762 807q0 94 -79.5 155.5t-238.5 61.5q-121 0 -190 -16v-410h211q149 0 223 56t74 153zM461 55q175 0 269.5 65.5t94.5 180.5
q0 69 -26.5 117t-77 74.5t-112.5 37.5t-144 11h-211v-486h207z" />
    <glyph glyph-name="c.sc" horiz-adv-x="1146" 
d="M1049 131q-150 -147 -422 -147q-228 0 -370 145t-142 408q0 255 141.5 399.5t370.5 144.5q275 0 422 -157q0 -18 -13.5 -31.5t-31.5 -18.5q-51 68 -149.5 109t-227.5 41q-206 0 -327.5 -130.5t-121.5 -356.5q0 -232 122 -363t327 -131q234 0 383 135z" />
    <glyph glyph-name="cacute.sc" horiz-adv-x="1146" 
d="M625 1186l-29 18l190 273l9 -4q22 -11 22 -25q0 -15 -39 -66zM1049 131q-150 -147 -422 -147q-228 0 -370 145t-142 408q0 255 141.5 399.5t370.5 144.5q275 0 422 -157q0 -18 -13.5 -31.5t-31.5 -18.5q-51 68 -149.5 109t-227.5 41q-206 0 -327.5 -130.5t-121.5 -356.5
q0 -232 122 -363t327 -131q234 0 383 135z" />
    <glyph glyph-name="ccaron.sc" horiz-adv-x="1146" 
d="M649 1206q-9 -3 -28.5 -3t-28.5 3l-162 176q3 9 19 19t32 10l142 -160l139 160q13 0 29.5 -10t21.5 -19zM627 43q234 0 383 135l39 -47q-150 -147 -422 -147q-228 0 -370 145t-142 408q0 255 141.5 399.5t370.5 144.5q275 0 422 -157q0 -18 -13.5 -31.5t-31.5 -18.5
q-51 68 -149.5 109t-227.5 41q-206 0 -327.5 -130.5t-121.5 -356.5q0 -232 122 -363t327 -131z" />
    <glyph glyph-name="ccedilla.sc" horiz-adv-x="1146" 
d="M1049 131q-141 -138 -392 -147l-49 -99q31 9 51 9q62 0 105 -35t43 -95q0 -68 -55.5 -107.5t-143.5 -39.5q-64 0 -112 10q0 36 6 54q61 -17 123 -17q61 0 95 28t34 70q0 36 -26 59t-83 23q-41 0 -76 -14q-32 16 -28 35l59 119q-218 9 -351.5 153.5t-133.5 399.5
t141.5 399.5t370.5 144.5q275 0 422 -157q0 -18 -13.5 -31.5t-31.5 -18.5q-51 68 -149.5 109t-227.5 41q-206 0 -327.5 -130.5t-121.5 -356.5q0 -232 122 -363t327 -131q234 0 383 135z" />
    <glyph glyph-name="cdotaccent.sc" horiz-adv-x="1146" 
d="M692 1311q0 -24 -21 -43t-48 -19t-48.5 19t-21.5 43q0 26 21 45.5t49 19.5t48.5 -19.5t20.5 -45.5zM1049 131q-150 -147 -422 -147q-228 0 -370 145t-142 408q0 255 141.5 399.5t370.5 144.5q275 0 422 -157q0 -18 -13.5 -31.5t-31.5 -18.5q-51 68 -149.5 109t-227.5 41
q-206 0 -327.5 -130.5t-121.5 -356.5q0 -232 122 -363t327 -131q234 0 383 135z" />
    <glyph glyph-name="d.sc" horiz-adv-x="1177" 
d="M461 1081q287 0 445.5 -144t158.5 -390q0 -254 -170.5 -399.5t-460.5 -147.5h-241v1049q153 32 268 32zM434 55q272 0 418.5 125t146.5 367q0 230 -136.5 352.5t-389.5 122.5q-149 0 -219 -27v-940h180z" />
    <glyph glyph-name="eth.sc" horiz-adv-x="1179" 
d="M461 1081q287 0 445.5 -143.5t158.5 -390.5q0 -253 -169.5 -399t-461.5 -148h-241v506h-132q7 28 18 40.5t42 12.5h72v490q156 32 268 32zM434 55q272 0 418.5 124.5t146.5 367.5q0 230 -136.5 352.5t-389.5 122.5q-145 0 -219 -27v-436h383q-3 -27 -12 -40t-29 -13h-342
v-451h180z" />
    <glyph glyph-name="dcaron.sc" horiz-adv-x="1177" 
d="M608 1206q-9 -3 -29 -3t-28 3l-162 176q3 9 19.5 19t31.5 10l140 -160l139 160q16 0 32 -10t19 -19zM461 1081q287 0 445.5 -144t158.5 -390q0 -254 -170.5 -399.5t-460.5 -147.5h-241v1049q153 32 268 32zM434 55q272 0 418.5 125t146.5 367q0 230 -136.5 352.5
t-389.5 122.5q-149 0 -219 -27v-940h180z" />
    <glyph glyph-name="dcroat.sc" horiz-adv-x="1179" 
d="M461 1081q287 0 445.5 -143.5t158.5 -390.5q0 -253 -169.5 -399t-461.5 -148h-241v506h-132q7 28 18 40.5t42 12.5h72v490q156 32 268 32zM434 55q272 0 418.5 124.5t146.5 367.5q0 230 -136.5 352.5t-389.5 122.5q-145 0 -219 -27v-436h383q-3 -27 -12 -40t-29 -13h-342
v-451h180z" />
    <glyph glyph-name="e.sc" horiz-adv-x="933" 
d="M809 1010h-555v-449h469q0 -28 -16 -55h-453v-451h555v-55h-616v1065h616v-55z" />
    <glyph glyph-name="eacute.sc" horiz-adv-x="933" 
d="M698 1382l-151 -196l-31 18l193 273l8 -4q20 -10 20 -25t-39 -66zM809 1010h-555v-449h469q0 -28 -16 -55h-453v-451h555v-55h-616v1065h616v-55z" />
    <glyph glyph-name="ecaron.sc" horiz-adv-x="933" 
d="M571 1206q-9 -3 -29.5 -3t-27.5 3l-164 176q5 10 21 19.5t30 9.5l142 -160l139 160q14 0 30 -9.5t21 -19.5zM809 1010h-555v-449h469q0 -28 -16 -55h-453v-451h555v-55h-616v1065h616v-55z" />
    <glyph glyph-name="ecircumflex.sc" horiz-adv-x="933" 
d="M401 1196q-14 0 -30 9.5t-21 19.5l164 176q9 3 28.5 3t28.5 -3l162 -176q-5 -10 -21 -19.5t-30 -9.5l-139 160zM809 1010h-555v-449h469q0 -28 -16 -55h-453v-451h555v-55h-616v1065h616v-55z" />
    <glyph glyph-name="edieresis.sc" horiz-adv-x="933" 
d="M426 1264q-28 0 -48 18t-20 45t20.5 45.5t47.5 18.5q30 0 51 -18.5t21 -45.5t-21 -45t-51 -18zM657 1264q-28 0 -48.5 18t-20.5 45t20.5 45.5t48.5 18.5q29 0 50.5 -18.5t21.5 -45.5t-21 -45t-51 -18zM809 1010h-555v-449h469q0 -28 -16 -55h-453v-451h555v-55h-616v1065
h616v-55z" />
    <glyph glyph-name="edotaccent.sc" horiz-adv-x="933" 
d="M543 1249q-27 0 -48.5 19t-21.5 43q0 26 21.5 45.5t48.5 19.5q28 0 49.5 -19.5t21.5 -45.5q0 -23 -22 -42.5t-49 -19.5zM809 1010h-555v-449h469q0 -28 -16 -55h-453v-451h555v-55h-616v1065h616v-55z" />
    <glyph glyph-name="egrave.sc" horiz-adv-x="933" 
d="M547 1188l-160 196q-35 45 -35 56q0 22 25 33l8 4l193 -273zM809 1010h-555v-449h469q0 -28 -16 -55h-453v-451h555v-55h-616v1065h616v-55z" />
    <glyph glyph-name="emacron.sc" horiz-adv-x="933" 
d="M727 1354v-58h-369v58h369zM809 1010h-555v-449h469q0 -28 -16 -55h-453v-451h555v-55h-616v1065h616v-55z" />
    <glyph glyph-name="eogonek.sc" horiz-adv-x="933" 
d="M825 -242q21 -18 21 -49q-30 -26 -96 -26q-59 0 -94 31t-35 91q0 48 34.5 102.5t89.5 92.5h-552v1065h616v-55h-555v-449h469q0 -28 -16 -55h-453v-451h555v-55q-66 -36 -100.5 -86.5t-34.5 -103.5q0 -76 82 -76q34 0 69 24z" />
    <glyph glyph-name="f.sc" horiz-adv-x="897" 
d="M809 1010h-555v-449h469q0 -28 -16 -55h-453v-506h-61v1065h616v-55z" />
    <glyph glyph-name="g.sc" horiz-adv-x="1198" 
d="M1022 489q28 19 61 9v-367q-72 -71 -190.5 -109t-265.5 -38q-228 0 -370 145t-142 408q0 255 141.5 399.5t370.5 144.5q277 0 424 -159q-6 -37 -47 -48q-117 150 -377 150q-206 0 -327.5 -130.5t-121.5 -356.5q0 -232 122 -363t327 -131q254 0 395 109v337z" />
    <glyph glyph-name="gbreve.sc" horiz-adv-x="1198" 
d="M618 1223q-105 0 -157.5 56.5t-52.5 133.5q23 10 53 0q4 -55 41 -96t119 -41q43 0 74.5 14t47 36t23 43.5t8.5 43.5q31 10 55 0q-2 -76 -54.5 -133t-156.5 -57zM1022 489q28 19 61 9v-367q-72 -71 -190.5 -109t-265.5 -38q-228 0 -370 145t-142 408q0 255 141.5 399.5
t370.5 144.5q277 0 424 -159q-6 -37 -47 -48q-117 150 -377 150q-206 0 -327.5 -130.5t-121.5 -356.5q0 -232 122 -363t327 -131q254 0 395 109v337z" />
    <glyph glyph-name="uni0123.sc" horiz-adv-x="1198" 
d="M1022 489q28 19 61 9v-367q-72 -71 -190.5 -109t-265.5 -38q-228 0 -370 145t-142 408q0 255 141.5 399.5t370.5 144.5q277 0 424 -159q-6 -37 -47 -48q-117 150 -377 150q-206 0 -327.5 -130.5t-121.5 -356.5q0 -232 122 -363t327 -131q254 0 395 109v337zM668 -117
q38 0 60 -26t22 -62q0 -55 -34.5 -107.5t-82.5 -80.5q-10 2 -22 10.5t-15 17.5q79 43 90 123q-6 -2 -16 -2q-32 0 -51 19t-19 45q0 24 19 43.5t49 19.5z" />
    <glyph glyph-name="gdotaccent.sc" horiz-adv-x="1198" 
d="M618 1249q-26 0 -47.5 19.5t-21.5 42.5q0 26 21 45.5t48 19.5q28 0 50 -19.5t22 -45.5q0 -23 -22 -42.5t-50 -19.5zM1022 489q28 19 61 9v-367q-72 -71 -190.5 -109t-265.5 -38q-228 0 -370 145t-142 408q0 255 141.5 399.5t370.5 144.5q277 0 424 -159q-6 -37 -47 -48
q-117 150 -377 150q-206 0 -327.5 -130.5t-121.5 -356.5q0 -232 122 -363t327 -131q254 0 395 109v337z" />
    <glyph glyph-name="h.sc" horiz-adv-x="1210" 
d="M956 1065q31 15 62 0v-1065h-62v514h-702v-514h-61v1065q32 14 61 0v-496h702v496z" />
    <glyph glyph-name="i.sc" horiz-adv-x="446" 
d="M254 0h-61v1065q32 14 61 0v-1065z" />
    <glyph glyph-name="iacute.sc" horiz-adv-x="446" 
d="M227 1184l-30 20l192 271l8 -5q21 -10 21 -24q0 -15 -39 -66zM254 0h-61v1065q32 14 61 0v-1065z" />
    <glyph glyph-name="icircumflex.sc" horiz-adv-x="444" 
d="M250 1399l162 -176q-3 -9 -21 -19t-31 -10l-139 160l-139 -160q-14 0 -30 9.5t-21 19.5l162 176q9 3 30 3t27 -3zM193 1065q31 13 61 0v-1065h-61v1065z" />
    <glyph glyph-name="idieresis.sc" horiz-adv-x="448" 
d="M109 1262q-28 0 -49 18t-21 45t21 46.5t49 19.5q29 0 50 -19t21 -47q0 -27 -20.5 -45t-50.5 -18zM338 1262q-27 0 -48.5 18t-21.5 45t21 46.5t49 19.5q29 0 50.5 -19t21.5 -47q0 -27 -21 -45t-51 -18zM256 0h-61v1065q31 13 61 0v-1065z" />
    <glyph glyph-name="i.sc.loclTRK" horiz-adv-x="446" 
d="M295 1311q0 -25 -22 -44.5t-50 -19.5t-48.5 19.5t-20.5 44.5t20.5 44t48.5 19t50 -19t22 -44zM254 0h-61v1065q32 14 61 0v-1065z" />
    <glyph glyph-name="igrave.sc" horiz-adv-x="446" 
d="M227 1186l-157 196q-37 46 -37 56q0 16 26 32l7 5l192 -271zM256 0h-61v1065q31 13 61 0v-1065z" />
    <glyph glyph-name="ij.sc" horiz-adv-x="944" 
d="M690 1073q33 12 62 0v-940q0 -239 -189 -239q-63 0 -121 16q0 35 11 57q72 -16 118 -16q119 0 119 164v958zM254 0h-61v1065q32 14 61 0v-1065z" />
    <glyph glyph-name="imacron.sc" horiz-adv-x="448" 
d="M39 1352h371v-58h-371v58zM254 0h-61v1065q28 14 61 0v-1065z" />
    <glyph glyph-name="iogonek.sc" horiz-adv-x="446" 
d="M268 -242q21 -18 21 -49q-30 -26 -96 -26q-59 0 -94.5 31t-35.5 91q0 51 37.5 105.5t92.5 91.5v1063q30 16 61 0v-1065q-66 -35 -101.5 -86.5t-35.5 -103.5q0 -76 82 -76q35 0 69 24z" />
    <glyph glyph-name="j.sc" horiz-adv-x="538" 
d="M285 1073q34 14 61 0v-940q0 -239 -188 -239q-65 0 -121 16q0 34 10 57q72 -16 121 -16q117 0 117 164v958z" />
    <glyph glyph-name="k.sc" horiz-adv-x="968" 
d="M905 0h-90l-561 524v-524h-61v1065q33 11 61 0v-506l526 506q47 13 88 0l-551 -522z" />
    <glyph glyph-name="uni0137.sc" horiz-adv-x="968" 
d="M317 543l588 -543h-90l-561 524v-524h-61v1065q33 11 61 0v-506l526 506q47 13 88 0zM530 -117q37 0 58.5 -25.5t21.5 -62.5q0 -55 -33 -108t-81 -80q-11 2 -23.5 10.5t-15.5 17.5q82 45 92 123q-6 -2 -17 -2q-33 0 -51 18.5t-18 45.5q0 24 18.5 43.5t48.5 19.5z" />
    <glyph glyph-name="l.sc" horiz-adv-x="886" 
d="M254 55h545v-55h-606v1065q32 14 61 0v-1010z" />
    <glyph glyph-name="lacute.sc" horiz-adv-x="886" 
d="M379 1382l-152 -196l-30 18l192 273l8 -4q21 -11 21 -25q0 -15 -39 -66zM254 55h545v-55h-606v1065q32 14 61 0v-1010z" />
    <glyph glyph-name="lcaron.sc" horiz-adv-x="884" 
d="M250 1206q-9 -3 -28.5 -3t-28.5 3l-162 176q3 9 19 19t32 10l139 -160l139 160q15 0 32 -10t20 -19zM254 55h543v-55h-604v1065q31 13 61 0v-1010z" />
    <glyph glyph-name="uni013C.sc" horiz-adv-x="886" 
d="M254 55h545v-55h-606v1065q32 14 61 0v-1010zM508 -117q37 0 58.5 -25.5t21.5 -62.5q0 -54 -34 -107.5t-83 -80.5q-10 2 -22 10.5t-15 17.5q81 45 92 123q-6 -2 -16 -2q-33 0 -51.5 18.5t-18.5 45.5q0 24 19 43.5t49 19.5z" />
    <glyph glyph-name="lslash.sc" horiz-adv-x="868" 
d="M254 55h543v-55h-604v440l-136 -63q-4 12 -4 16q0 45 49 68l91 43v561q32 14 61 0v-533l299 142q4 -8 4 -21q0 -18 -12.5 -36.5t-34.5 -28.5l-256 -119v-414z" />
    <glyph glyph-name="m.sc" horiz-adv-x="1404" 
d="M1114 1065q50 12 98 0v-1065h-61v1008l-418 -902q-20 -6 -30.5 -6t-30.5 6l-418 898v-1004h-61v1065q52 13 96 0l413 -872z" />
    <glyph glyph-name="n.sc" horiz-adv-x="1259" 
d="M1006 1065h61v-1065q-32 -11 -61 0l-752 963v-963h-61v1065q33 11 61 0l754 -965l-2 125v840z" />
    <glyph glyph-name="nacute.sc" horiz-adv-x="1259" 
d="M786 1382l-151 -196l-31 18l193 273l8 -4q20 -10 20 -25t-39 -66zM1006 1065h61v-1065q-32 -11 -61 0l-752 963v-963h-61v1065q33 11 61 0l754 -965l-2 125v840z" />
    <glyph glyph-name="ncaron.sc" horiz-adv-x="1259" 
d="M659 1206q-7 -3 -28.5 -3t-28.5 3l-162 176q3 9 20 19t32 10l139 -158l139 158q13 0 30.5 -10t20.5 -19zM1006 1065h61v-1065q-32 -11 -61 0l-752 963v-963h-61v1065q33 11 61 0l754 -965l-2 125v840z" />
    <glyph glyph-name="uni0146.sc" horiz-adv-x="1259" 
d="M1006 1065h61v-1065q-32 -11 -61 0l-752 963v-963h-61v1065q33 11 61 0l754 -965l-2 125v840zM659 -117q38 0 60 -26t22 -62q0 -55 -34 -108t-82 -80q-11 2 -22.5 10.5t-14.5 17.5q82 45 90 123q-6 -2 -16 -2q-32 0 -51 19t-19 45q0 24 18.5 43.5t48.5 19.5z" />
    <glyph glyph-name="eng.sc" horiz-adv-x="1294" 
d="M1006 1065h61v-1065q-2 -100 -15 -158t-51.5 -99t-104.5 -56t-177 -15q5 42 24 58q51 0 82 2t62 7.5t48 17.5t32.5 30.5t22.5 49t11 69t5 94.5l-752 963v-963h-61v1065q33 11 61 0l754 -965l-2 125v840z" />
    <glyph glyph-name="ntilde.sc" horiz-adv-x="1259" 
d="M457 1280q-31 -4 -45 10q0 68 35.5 101.5t89.5 33.5q38 0 73.5 -22.5t68 -45t62.5 -22.5q41 0 58.5 30t17.5 65q34 0 45 -11q0 -67 -34 -101t-80 -34q-35 0 -67.5 14t-52.5 31t-46 31t-50 14q-41 0 -58 -29.5t-17 -64.5zM1006 1065h61v-1065q-32 -11 -61 0l-752 963v-963
h-61v1065q33 11 61 0l754 -965l-2 125v840z" />
    <glyph glyph-name="o.sc" horiz-adv-x="1284" 
d="M643 -16q-241 0 -384.5 148.5t-143.5 399.5t143.5 400t384.5 149t384.5 -149t143.5 -400t-143.5 -399.5t-384.5 -148.5zM643 41q219 0 341 128.5t122 362.5t-121.5 363t-341.5 129t-341.5 -129t-121.5 -363t122 -362.5t341 -128.5z" />
    <glyph glyph-name="oacute.sc" horiz-adv-x="1284" 
d="M647 1186l-31 18l193 273l8 -4q21 -11 21 -25q0 -15 -39 -66zM643 -16q-241 0 -384.5 148.5t-143.5 399.5t143.5 400t384.5 149t384.5 -149t143.5 -400t-143.5 -399.5t-384.5 -148.5zM643 43q219 0 341 127.5t122 361.5t-121.5 363t-341.5 129t-341.5 -129t-121.5 -363
t122 -361.5t341 -127.5z" />
    <glyph glyph-name="ocircumflex.sc" horiz-adv-x="1284" 
d="M502 1196q-14 0 -30 9.5t-21 19.5l163 176q7 3 27.5 3t28.5 -3l164 -176q-5 -10 -21.5 -19.5t-30.5 -9.5l-139 160zM643 1081q241 0 384.5 -149t143.5 -400t-143.5 -399.5t-384.5 -148.5t-384.5 148.5t-143.5 399.5t143.5 400t384.5 149zM643 43q219 0 341 127.5
t122 361.5t-121.5 363t-341.5 129t-341.5 -129t-121.5 -363t122 -361.5t341 -127.5z" />
    <glyph glyph-name="odieresis.sc" horiz-adv-x="1284" 
d="M526 1264q-28 0 -48.5 18t-20.5 45t21 45.5t48 18.5q30 0 51 -18.5t21 -45.5t-21 -45t-51 -18zM758 1264q-28 0 -49 18t-21 45t21 45.5t49 18.5t49.5 -18.5t21.5 -45.5t-20.5 -45t-50.5 -18zM643 -16q-241 0 -384.5 148.5t-143.5 399.5t143.5 400t384.5 149t384.5 -149
t143.5 -400t-143.5 -399.5t-384.5 -148.5zM643 43q219 0 341 127.5t122 361.5t-121.5 363t-341.5 129t-341.5 -129t-121.5 -363t122 -361.5t341 -127.5z" />
    <glyph glyph-name="ograve.sc" horiz-adv-x="1284" 
d="M645 1188l-158 196q-36 45 -36 56q0 16 26 33l6 4l195 -273zM643 -16q-241 0 -384.5 148.5t-143.5 399.5t143.5 400t384.5 149t384.5 -149t143.5 -400t-143.5 -399.5t-384.5 -148.5zM643 43q219 0 341 127.5t122 361.5t-121.5 363t-341.5 129t-341.5 -129t-121.5 -363
t122 -361.5t341 -127.5z" />
    <glyph glyph-name="ohungarumlaut.sc" horiz-adv-x="1284" 
d="M504 1153l-35 12l125 305l8 -2q24 -7 27 -22q3 -16 -23 -72zM717 1155l-29 23l221 252l9 -7q16 -11 16 -28q0 -3 -1 -6t-3.5 -7.5t-5 -7.5t-7.5 -8.5t-8 -9t-9.5 -10.5t-10.5 -11zM643 -16q-241 0 -384.5 148.5t-143.5 399.5t143.5 400t384.5 149t384.5 -149t143.5 -400
t-143.5 -399.5t-384.5 -148.5zM643 43q219 0 341 127.5t122 361.5t-121.5 363t-341.5 129t-341.5 -129t-121.5 -363t122 -361.5t341 -127.5z" />
    <glyph glyph-name="omacron.sc" horiz-adv-x="1284" 
d="M459 1354h368v-58h-368v58zM643 -16q-241 0 -384.5 148.5t-143.5 399.5t143.5 400t384.5 149t384.5 -149t143.5 -400t-143.5 -399.5t-384.5 -148.5zM643 43q219 0 341 127.5t122 361.5t-121.5 363t-341.5 129t-341.5 -129t-121.5 -363t122 -361.5t341 -127.5z" />
    <glyph glyph-name="oslash.sc" horiz-adv-x="1284" 
d="M1022 938q149 -149 149 -406q0 -251 -143.5 -399.5t-384.5 -148.5q-206 0 -336 106l-90 -106q-38 0 -51 30l96 115q-147 150 -147 403q0 251 143.5 400t384.5 149q202 0 334 -104l88 104q39 0 53 -28zM180 532q0 -230 119 -358l643 760q-116 90 -299 90
q-220 0 -341.5 -129t-121.5 -363zM643 43q219 0 341 127.5t122 361.5q0 233 -121 363l-641 -762q116 -90 299 -90z" />
    <glyph glyph-name="otilde.sc" horiz-adv-x="1284" 
d="M469 1280q-34 -4 -45 10q0 68 35.5 101.5t89.5 33.5q38 0 73.5 -22.5t68.5 -45t63 -22.5q41 0 58 30t17 65q34 0 45 -11q0 -67 -34.5 -101t-79.5 -34q-44 0 -82.5 22.5t-71 45t-61.5 22.5q-41 0 -58.5 -29.5t-17.5 -64.5zM643 -16q-241 0 -384.5 148.5t-143.5 399.5
t143.5 400t384.5 149t384.5 -149t143.5 -400t-143.5 -399.5t-384.5 -148.5zM643 43q219 0 341 127.5t122 361.5t-121.5 363t-341.5 129t-341.5 -129t-121.5 -363t122 -361.5t341 -127.5z" />
    <glyph glyph-name="oe.sc" horiz-adv-x="1648" 
d="M1524 1010h-555v-449h467q0 -28 -15 -55h-452v-451h555v-55h-617v2q-102 -18 -248 -18q-249 0 -396.5 150.5t-147.5 400.5q0 253 150.5 399.5t408.5 146.5q148 0 233 -16h617v-55zM659 43q145 0 248 23v935q-85 23 -248 23q-230 0 -354.5 -125.5t-124.5 -363.5
q0 -233 125 -362.5t354 -129.5z" />
    <glyph glyph-name="p.sc" horiz-adv-x="952" 
d="M442 1081q111 0 195.5 -29.5t131.5 -78.5t70 -104t23 -115q0 -166 -126 -276.5t-335 -110.5h-147v-367h-61v1055q133 26 249 26zM385 422q109 0 190.5 26t129 72.5t70 104.5t22.5 129q0 54 -19 100.5t-61 85.5t-118 61.5t-179 22.5q-108 0 -166 -18v-584h131z" />
    <glyph glyph-name="thorn.sc" horiz-adv-x="950" 
d="M436 895q196 0 311 -101t115 -253q0 -151 -116 -253t-310 -102h-182v-186h-61v1065q34 14 61 0v-170h182zM401 242q197 0 296.5 83t99.5 216t-99.5 215t-296.5 82h-147v-596h147z" />
    <glyph glyph-name="q.sc" horiz-adv-x="1284" 
d="M1171 532q0 -141 -47.5 -253t-136.5 -183l160 -188q-3 -14 -15.5 -23.5t-27.5 -9.5l-162 188q-127 -79 -299 -79q-241 0 -384.5 148.5t-143.5 399.5t143.5 400t384.5 149t384.5 -149t143.5 -400zM643 43q151 0 262 66l-219 256q3 13 15.5 22.5t27.5 9.5l221 -258
q156 128 156 393q0 234 -121.5 363t-341.5 129t-341.5 -129t-121.5 -363t122 -361.5t341 -127.5z" />
    <glyph glyph-name="r.sc" horiz-adv-x="1007" 
d="M903 0h-74l-292 424q-41 -8 -99 -8h-184v-416h-61v1055q133 26 249 26q108 0 191 -27t131.5 -72.5t73 -100t24.5 -113.5q0 -120 -70.5 -207.5t-193.5 -122.5zM418 473q196 0 287.5 78t91.5 217q0 118 -87.5 187t-283.5 69q-114 0 -172 -18v-533h164z" />
    <glyph glyph-name="racute.sc" horiz-adv-x="1007" 
d="M610 1382l-151 -196l-31 18l193 273l8 -4q20 -10 20 -25t-39 -66zM903 0h-74l-292 424q-41 -8 -99 -8h-184v-416h-61v1055q133 26 249 26q108 0 191 -27t131.5 -72.5t73 -100t24.5 -113.5q0 -120 -70.5 -207.5t-193.5 -122.5zM418 473q196 0 287.5 78t91.5 217
q0 118 -87.5 187t-283.5 69q-114 0 -172 -18v-533h164z" />
    <glyph glyph-name="rcaron.sc" horiz-adv-x="1007" 
d="M481 1206q-6 -3 -26.5 -3t-28.5 3l-164 176q5 10 21 19.5t30 9.5l142 -160l139 160q14 0 30 -9.5t21 -19.5zM903 0h-74l-292 424q-41 -8 -99 -8h-184v-416h-61v1055q133 26 249 26q108 0 191 -27t131.5 -72.5t73 -100t24.5 -113.5q0 -120 -70.5 -207.5t-193.5 -122.5z
M418 473q196 0 287.5 78t91.5 217q0 118 -87.5 187t-283.5 69q-114 0 -172 -18v-533h164z" />
    <glyph glyph-name="uni0157.sc" horiz-adv-x="1007" 
d="M598 438l305 -438h-74l-292 424q-41 -8 -99 -8h-184v-416h-61v1055q133 26 249 26q108 0 191 -27t131.5 -72.5t73 -100t24.5 -113.5q0 -120 -70.5 -207.5t-193.5 -122.5zM418 473q196 0 287.5 78t91.5 217q0 118 -87.5 187t-283.5 69q-114 0 -172 -18v-533h164zM522 -117
q37 0 58.5 -25.5t21.5 -62.5q0 -55 -32.5 -106.5t-84.5 -81.5q-9 2 -21 10.5t-15 17.5q82 45 90 123q-6 -2 -17 -2q-32 0 -49.5 18.5t-17.5 45.5q0 23 18 43t49 20z" />
    <glyph glyph-name="s.sc" horiz-adv-x="923" 
d="M745 985q-127 41 -243 41q-137 0 -208 -51.5t-71 -145.5q0 -88 57 -139.5t212 -107.5q165 -60 233 -129.5t68 -178.5q0 -138 -102 -216t-263 -78q-148 0 -293 45q-9 33 10 61q171 -47 281 -47q138 0 219.5 60.5t81.5 172.5q0 87 -64.5 146t-224.5 119q-152 57 -216 123.5
t-64 156.5q0 130 92 199t268 69q100 0 234 -32q12 -28 -7 -68z" />
    <glyph glyph-name="sacute.sc" horiz-adv-x="923" 
d="M467 1186l-29 18l191 273l10 -4q20 -8 20 -25t-38 -66zM745 985q-127 41 -243 41q-137 0 -208 -51.5t-71 -145.5q0 -88 57 -139.5t212 -107.5q165 -60 233 -129.5t68 -178.5q0 -138 -102 -216t-263 -78q-148 0 -293 45q-9 33 10 61q171 -47 281 -47q138 0 219.5 60.5
t81.5 172.5q0 87 -64.5 146t-224.5 119q-152 57 -216 123.5t-64 156.5q0 130 92 199t268 69q100 0 234 -32q12 -28 -7 -68z" />
    <glyph glyph-name="scaron.sc" horiz-adv-x="923" 
d="M492 1206q-8 -3 -28 -3t-28 3l-164 176q5 10 21.5 19.5t30.5 9.5l141 -160l139 160q14 0 30 -9.5t21 -19.5zM492 582q165 -60 233 -129.5t68 -178.5q0 -138 -102 -216t-263 -78q-148 0 -293 45q-9 33 10 61q171 -47 281 -47q138 0 219.5 60.5t81.5 172.5q0 87 -64.5 146
t-224.5 119q-152 57 -216 123.5t-64 156.5q0 130 92 199t268 69q100 0 234 -32q12 -28 -7 -68q-127 41 -243 41q-137 0 -208 -51.5t-71 -145.5q0 -88 57 -139.5t212 -107.5z" />
    <glyph glyph-name="scedilla.sc" horiz-adv-x="923" 
d="M793 274q0 -125 -85 -201.5t-223 -90.5l-47 -97q27 9 49 9q62 0 105 -35t43 -95q0 -68 -55 -107.5t-144 -39.5q-64 0 -112 10q0 38 8 54q61 -17 121 -17q63 0 97 28.5t34 69.5q0 36 -27 59t-84 23q-39 0 -74 -14q-35 15 -30 35l59 115q-148 0 -293 45q-9 33 10 61
q171 -47 281 -47q138 0 219.5 60.5t81.5 172.5q0 87 -64.5 146t-224.5 119q-152 57 -216 123.5t-64 156.5q0 130 92 199t268 69q100 0 234 -32q12 -28 -7 -68q-127 41 -243 41q-137 0 -208 -51.5t-71 -145.5q0 -88 57 -139.5t212 -107.5q165 -60 233 -129.5t68 -178.5z" />
    <glyph glyph-name="uni0219.sc" horiz-adv-x="923" 
d="M492 582q165 -60 233 -129.5t68 -178.5q0 -138 -102 -216t-263 -78q-148 0 -293 45q-9 33 10 61q171 -47 281 -47q138 0 219.5 60.5t81.5 172.5q0 87 -64.5 146t-224.5 119q-152 57 -216 123.5t-64 156.5q0 130 92 199t268 69q100 0 234 -32q12 -28 -7 -68
q-127 41 -243 41q-137 0 -208 -51.5t-71 -145.5q0 -88 57 -139.5t212 -107.5zM461 -117q38 0 60 -25.5t22 -62.5q0 -58 -35 -109.5t-82 -78.5q-10 2 -22 10.5t-15 17.5q82 45 90 123q-6 -2 -16 -2q-32 0 -51 19t-19 45q0 24 19 43.5t49 19.5z" />
    <glyph glyph-name="germandbls.sc" horiz-adv-x="1222" 
d="M741 625q173 -58 273 -145.5t100 -198.5q0 -131 -78 -216t-235 -85q-84 0 -138.5 8.5t-123.5 27.5q-12 35 8 66q162 -43 254 -43q106 0 177 54.5t71 170.5q0 102 -80 175t-256 130q-41 21 -41 64l252 334q-129 63 -310 63q-197 0 -296 -91.5t-99 -262.5v-676
q-31 -12 -61 0v672q0 208 121 313t344 107q204 3 389 -101z" />
    <glyph glyph-name="t.sc" horiz-adv-x="897" 
d="M834 1065q0 -31 -21 -55h-334v-1010h-61v1010h-355q0 36 21 55h750z" />
    <glyph glyph-name="tbar.sc" horiz-adv-x="897" 
d="M813 1010h-334v-447h230q-4 -55 -41 -55h-189v-508h-61v508h-230q5 27 18 41t42 14h170v447h-355q0 36 21 55h750q0 -31 -21 -55z" />
    <glyph glyph-name="tcaron.sc" horiz-adv-x="897" 
d="M477 1204q-9 -3 -29 -3t-28 3l-162 178q3 8 19 17.5t32 9.5l140 -158l139 158q13 0 30.5 -9.5t20.5 -17.5zM834 1065q0 -31 -21 -55h-334v-1010h-61v1010h-355q0 36 21 55h750z" />
    <glyph glyph-name="uni0163.sc" horiz-adv-x="897" 
d="M479 0h-2l-57 -115q32 9 51 9q63 0 106.5 -35.5t43.5 -94.5q0 -68 -56 -107.5t-145 -39.5q-59 0 -111 10q0 42 6 54q61 -17 123 -17q61 0 95 28.5t34 69.5q0 36 -26 59t-82 23q-41 0 -76 -14q-34 14 -31 35l70 135h-4v1010h-355q0 36 21 55h750q0 -31 -21 -55h-334v-1010
z" />
    <glyph glyph-name="uni021B.sc" horiz-adv-x="897" 
d="M84 1065h750q0 -31 -21 -55h-334v-1010h-61v1010h-355q0 36 21 55zM446 -117q37 0 58.5 -25.5t21.5 -62.5q0 -55 -33 -108t-81 -80q-11 2 -23.5 10.5t-15.5 17.5q82 45 92 123q-6 -2 -16 -2q-33 0 -51.5 18.5t-18.5 45.5q0 24 18.5 43.5t48.5 19.5z" />
    <glyph glyph-name="u.sc" horiz-adv-x="1140" 
d="M571 -16q-193 0 -303 113t-110 335v633q32 14 61 0v-649q0 -170 92 -271.5t258 -101.5q158 0 255.5 99.5t97.5 273.5v649q32 14 61 0v-633q0 -214 -107.5 -331t-304.5 -117z" />
    <glyph glyph-name="uacute.sc" horiz-adv-x="1140" 
d="M573 1184l-28 20l190 271l8 -5q23 -12 23 -24q0 -15 -39 -66zM571 -16q-193 0 -303 113t-110 335v633q32 14 61 0v-649q0 -170 92 -271.5t258 -101.5q158 0 255.5 99.5t97.5 273.5v649q32 14 61 0v-633q0 -214 -107.5 -331t-304.5 -117z" />
    <glyph glyph-name="ucircumflex.sc" horiz-adv-x="1140" 
d="M430 1194q-14 0 -30 9.5t-21 19.5l164 176q9 3 28.5 3t26.5 -3l164 -176q-5 -9 -21.5 -19t-29.5 -10l-140 160zM922 1065q32 14 61 0v-633q0 -214 -107.5 -331t-304.5 -117q-193 0 -303 113t-110 335v633q32 14 61 0v-649q0 -170 92 -271.5t258 -101.5q158 0 255.5 99.5
t97.5 273.5v649z" />
    <glyph glyph-name="udieresis.sc" horiz-adv-x="1140" 
d="M455 1262q-28 0 -49 18t-21 45t21 46.5t49 19.5q29 0 50 -19t21 -47q0 -27 -20.5 -45t-50.5 -18zM686 1262q-28 0 -49 18t-21 45t21 46.5t49 19.5t49 -19.5t21 -46.5t-21 -45t-49 -18zM571 -16q-193 0 -303 113t-110 335v633q32 14 61 0v-649q0 -170 92 -271.5
t258 -101.5q158 0 255.5 99.5t97.5 273.5v649q32 14 61 0v-633q0 -214 -107.5 -331t-304.5 -117z" />
    <glyph glyph-name="ugrave.sc" horiz-adv-x="1140" 
d="M573 1186l-157 196q-37 46 -37 56q0 14 27 32l6 5l194 -271zM571 -16q-193 0 -303 113t-110 335v633q32 14 61 0v-649q0 -170 92 -271.5t258 -101.5q158 0 255.5 99.5t97.5 273.5v649q32 14 61 0v-633q0 -214 -107.5 -331t-304.5 -117z" />
    <glyph glyph-name="uhungarumlaut.sc" horiz-adv-x="1140" 
d="M430 1151l-33 12l123 305l10 -2q23 -3 27 -22q2 -10 -25 -70zM643 1153l-27 23l220 251l8 -6q18 -15 18 -26q0 -3 -1 -6.5t-4 -8t-5 -8t-7 -9t-8 -9t-10 -11t-10 -10.5zM571 -16q-193 0 -303 113t-110 335v633q32 14 61 0v-649q0 -170 92 -271.5t258 -101.5
q158 0 255.5 99.5t97.5 273.5v649q32 14 61 0v-633q0 -214 -107.5 -331t-304.5 -117z" />
    <glyph glyph-name="umacron.sc" horiz-adv-x="1140" 
d="M385 1352h371v-58h-371v58zM571 -16q-193 0 -303 113t-110 335v633q32 14 61 0v-649q0 -170 92 -271.5t258 -101.5q158 0 255.5 99.5t97.5 273.5v649q32 14 61 0v-633q0 -214 -107.5 -331t-304.5 -117z" />
    <glyph glyph-name="uogonek.sc" horiz-adv-x="1140" 
d="M922 1065q32 14 61 0v-633q0 -170 -69.5 -281t-198.5 -149l4 -2q-66 -35 -100.5 -86t-34.5 -104q0 -76 80 -76q36 0 69 24q23 -19 23 -49q-30 -26 -99 -26q-58 0 -93.5 31.5t-35.5 90.5q0 42 31 93t78 90q-40 -4 -66 -4q-193 0 -303 113t-110 335v633q32 14 61 0v-649
q0 -170 92 -271.5t258 -101.5q158 0 255.5 99.5t97.5 273.5v649z" />
    <glyph glyph-name="uring.sc" horiz-adv-x="1140" 
d="M571 1165q-69 0 -111 40t-42 106q0 65 42.5 104t110.5 39t109 -38.5t41 -104.5q0 -67 -41 -106.5t-109 -39.5zM571 1212q45 0 71 28t26 71q0 42 -26 69t-71 27q-46 0 -72 -27t-26 -69q0 -44 26.5 -71.5t71.5 -27.5zM571 -16q-193 0 -303 113t-110 335v633q32 14 61 0
v-649q0 -170 92 -271.5t258 -101.5q158 0 255.5 99.5t97.5 273.5v649q32 14 61 0v-633q0 -214 -107.5 -331t-304.5 -117z" />
    <glyph glyph-name="v.sc" horiz-adv-x="1048" 
d="M918 1065q33 15 67 0l-436 -1069q-29 -11 -66 0l-420 1069q30 17 68 0l385 -979z" />
    <glyph glyph-name="w.sc" horiz-adv-x="1503" 
d="M1378 1065q33 13 64 0l-287 -1067q-42 -11 -78 0l-325 987l-324 -987q-43 -10 -80 0l-287 1067q32 14 64 0l264 -983l320 983q50 13 84 0l323 -985z" />
    <glyph glyph-name="wacute.sc" horiz-adv-x="1503" 
d="M907 1382l-151 -196l-31 18l193 273l8 -4q20 -9 20 -25q0 -15 -39 -66zM1378 1065q33 13 64 0l-287 -1067q-42 -11 -78 0l-325 987l-324 -987q-43 -10 -80 0l-287 1067q32 14 64 0l264 -983l320 983q50 13 84 0l323 -985z" />
    <glyph glyph-name="wcircumflex.sc" horiz-adv-x="1503" 
d="M612 1196q-13 0 -30.5 10t-20.5 19l162 176q9 3 28.5 3t28.5 -3l162 -176q-3 -9 -20.5 -19t-30.5 -10l-139 158zM1378 1065q33 13 64 0l-287 -1067q-42 -11 -78 0l-325 987l-324 -987q-43 -10 -80 0l-287 1067q32 14 64 0l264 -983l320 983q50 13 84 0l323 -985z" />
    <glyph glyph-name="wdieresis.sc" horiz-adv-x="1503" 
d="M637 1264q-28 0 -49 18t-21 45t21 45.5t49 18.5q30 0 51 -18.5t21 -45.5t-21 -45t-51 -18zM866 1264q-28 0 -48.5 18t-20.5 45t20.5 45.5t48.5 18.5q30 0 51 -18.5t21 -45.5t-21 -45t-51 -18zM1378 1065q33 13 64 0l-287 -1067q-42 -11 -78 0l-325 987l-324 -987
q-43 -10 -80 0l-287 1067q32 14 64 0l264 -983l320 983q50 13 84 0l323 -985z" />
    <glyph glyph-name="wgrave.sc" horiz-adv-x="1503" 
d="M756 1188l-158 196q-37 46 -37 56q0 15 27 33l6 4l192 -273zM1378 1065q33 13 64 0l-287 -1067q-42 -11 -78 0l-325 987l-324 -987q-43 -10 -80 0l-287 1067q32 14 64 0l264 -983l320 983q50 13 84 0l323 -985z" />
    <glyph glyph-name="x.sc" horiz-adv-x="1054" 
d="M993 0h-73l-394 504l-391 -504h-74l428 551l-409 522q42 14 74 0l374 -477l371 477q45 12 76 0l-410 -524z" />
    <glyph glyph-name="y.sc" horiz-adv-x="956" 
d="M895 1065l-387 -637v-428h-62v428l-385 637q38 15 72 0l346 -567l344 567q38 15 72 0z" />
    <glyph glyph-name="yacute.sc" horiz-adv-x="956" 
d="M633 1382l-152 -196l-30 18l192 273l8 -4q21 -11 21 -25q0 -15 -39 -66zM895 1065l-387 -637v-428h-62v428l-385 637q38 15 72 0l346 -567l344 567q38 15 72 0z" />
    <glyph glyph-name="ycircumflex.sc" horiz-adv-x="956" 
d="M338 1196q-13 0 -30.5 10t-20.5 19l162 176q8 4 27.5 3.5t29.5 -3.5l162 -176q-3 -9 -21 -19t-31 -10l-139 158zM895 1065l-387 -637v-428h-62v428l-385 637q38 15 72 0l346 -567l344 567q38 15 72 0z" />
    <glyph glyph-name="ydieresis.sc" horiz-adv-x="956" 
d="M362 1264q-28 0 -48.5 18t-20.5 45t20.5 45.5t48.5 18.5q29 0 50.5 -18.5t21.5 -45.5t-21 -45t-51 -18zM592 1264q-28 0 -49 18t-21 45t21 45.5t49 18.5q30 0 51 -18.5t21 -45.5t-21 -45t-51 -18zM895 1065l-387 -637v-428h-62v428l-385 637q38 15 72 0l346 -567l344 567
q38 15 72 0z" />
    <glyph glyph-name="ygrave.sc" horiz-adv-x="956" 
d="M481 1188l-157 196q-37 46 -37 56q0 21 24 33l8 4l193 -273zM895 1065l-387 -637v-428h-62v428l-385 637q38 15 72 0l346 -567l344 567q38 15 72 0z" />
    <glyph glyph-name="z.sc" horiz-adv-x="1091" 
d="M952 55q13 -32 9 -55h-797q-9 4 -20 18.5t-11 28.5l748 963h-703q-20 26 -14 55h749q12 -5 25.5 -23.5t13.5 -35.5l-735 -951h735z" />
    <glyph glyph-name="zacute.sc" horiz-adv-x="1091" 
d="M723 1380l-152 -196l-30 20l192 271l8 -5q21 -10 21 -24q0 -15 -39 -66zM952 55q13 -32 9 -55h-797q-9 4 -20 18.5t-11 28.5l748 963h-703q-20 26 -14 55h749q12 -5 25.5 -23.5t13.5 -35.5l-735 -951h735z" />
    <glyph glyph-name="zcaron.sc" horiz-adv-x="1091" 
d="M596 1204q-9 -3 -29.5 -3t-27.5 3l-162 178q3 8 19 17.5t32 9.5l139 -158l140 158q16 0 32 -9.5t19 -17.5zM952 55q13 -32 9 -55h-797q-9 4 -20 18.5t-11 28.5l748 963h-703q-20 26 -14 55h749q12 -5 25.5 -23.5t13.5 -35.5l-735 -951h735z" />
    <glyph glyph-name="zdotaccent.sc" horiz-adv-x="1091" 
d="M567 1247q-26 0 -46.5 19.5t-20.5 44.5t20.5 44t46.5 19q29 0 50.5 -19t21.5 -44t-21.5 -44.5t-50.5 -19.5zM952 55q13 -32 9 -55h-797q-9 4 -20 18.5t-11 28.5l748 963h-703q-20 26 -14 55h749q12 -5 25.5 -23.5t13.5 -35.5l-735 -951h735z" />
    <glyph glyph-name="zero.osf" horiz-adv-x="905" 
d="M453 1044q-167 0 -270 -134t-103 -386q0 -253 103.5 -394.5t269.5 -141.5q167 0 269.5 142t102.5 394q0 253 -102 386.5t-270 133.5zM453 45q-151 0 -230.5 129t-79.5 350t78.5 342t231.5 121t231 -121t78 -342q0 -222 -79 -350.5t-230 -128.5z" />
    <glyph glyph-name="one.osf" horiz-adv-x="903" 
d="M772 55q17 -28 0 -55h-657q-16 26 0 55h291v916q-252 -132 -293 -140q-13 4 -19 19t-6 27q196 108 338 167q12 -3 25 -12t16 -18v-959h305z" />
    <glyph glyph-name="two.osf" horiz-adv-x="903" 
d="M201 55h587q0 -39 -16 -55h-629q-8 7 -17 27t-9 28l55 43q99 76 185 153t168.5 165.5t131 176t48.5 157.5q0 117 -77 176t-210 59q-138 0 -297 -108q-13 11 -15 29.5t5 31.5q145 106 327 106q138 0 234 -79.5t96 -221.5q0 -134 -153.5 -315t-413.5 -373z" />
    <glyph glyph-name="three.osf" horiz-adv-x="964" 
d="M797 39q0 -145 -117 -225t-297 -80q-71 0 -151 21t-132 52q-7 -4 -12.5 -15t-5.5 -19q0 -20 8 -41q128 -60 322 -60q211 0 330.5 105t119.5 262q0 132 -78 222t-204 122q104 27 172.5 107.5t68.5 226.5q0 153 -103.5 240t-268.5 87q-196 0 -340 -110q-9 -15 -9 -33
q0 -24 13 -37q166 119 327 119q139 0 227 -72t89 -192q0 -165 -100.5 -237.5t-325.5 -69.5h-78q-29 -14 -29 -58h135q207 0 323 -76t116 -239z" />
    <glyph glyph-name="four.osf" 
d="M1036 416q16 -29 0 -58h-184v-358h-61v358h-652q-18 4 -32.5 23t-14.5 35q126 226 365 550.5t356 446.5q27 0 39 -16v-981h184zM172 416h619v876q-128 -146 -331.5 -425.5t-287.5 -450.5z" />
    <glyph glyph-name="five.osf" horiz-adv-x="935" 
d="M422 477q207 -42 314.5 -144t107.5 -249q0 -201 -121.5 -306.5t-353.5 -105.5q-64 0 -145.5 16.5t-147.5 47.5q-4 20 -4 33q0 19 8 30q153 -67 301 -67q104 0 182.5 27.5t124 75t68 104.5t22.5 122q0 153 -107.5 245t-353.5 132l-110 19q-30 10 -41.5 24.5t-11.5 38.5
l129 504h553q0 -28 -29 -57h-473l-117 -447z" />
    <glyph glyph-name="six.osf" horiz-adv-x="1069" 
d="M569 883q200 0 309 -119t109 -309q0 -128 -47 -235t-141 -173.5t-219 -66.5q-457 0 -457 682q0 378 123.5 564.5t345.5 186.5q102 0 170 -14.5t143 -50.5q8 -13 8 -31q0 -24 -8 -37q-72 39 -138.5 55.5t-162.5 16.5q-94 0 -164 -28.5t-125 -93.5t-86.5 -180t-38.5 -280
q166 113 379 113zM573 41q163 0 256 112t93 302q0 76 -21.5 142.5t-64.5 119t-113.5 82.5t-161.5 30q-90 0 -194 -31t-179 -85v-51q0 -328 98.5 -474.5t286.5 -146.5z" />
    <glyph glyph-name="seven.osf" horiz-adv-x="952" 
d="M858 1024q53 -18 53 -74l-635 -1257q-62 -16 -59 0q0 22 280 579t341 654l26 41h-794q-16 29 0 57h788z" />
    <glyph glyph-name="eight.osf" horiz-adv-x="933" 
d="M586 745q158 -45 237.5 -144t79.5 -222q0 -100 -35.5 -178t-97 -125.5t-138.5 -71.5t-165 -24q-89 0 -166.5 23t-138.5 68.5t-96 120t-35 170.5q0 139 83.5 245.5t194.5 146.5q-114 43 -166.5 127t-52.5 184q0 152 108.5 250t268.5 98q103 0 187.5 -38t136.5 -115
t53 -179q0 -110 -78 -205t-180 -131zM156 1075q0 -44 6 -78t26 -72.5t55 -66.5t96.5 -53t147.5 -39q111 13 201 111.5t90 201.5q0 134 -86 203.5t-225 69.5q-140 0 -225.5 -77.5t-85.5 -199.5zM467 41q171 0 271 86.5t100 251.5q0 284 -400 342l-32 6q-122 -26 -216 -120.5
t-94 -229.5q0 -86 29.5 -152t81.5 -105.5t117.5 -59t142.5 -19.5z" />
    <glyph glyph-name="nine.osf" horiz-adv-x="1110" 
d="M530 1044q457 0 457 -651q0 -363 -128.5 -542t-360.5 -179q-108 0 -181 19.5t-153 66.5q-8 13 -8 31q0 24 8 37q76 -50 147 -71t174 -21q77 0 138.5 16t114.5 54.5t89.5 100t60 155t30.5 216.5q-85 -55 -180.5 -79.5t-237.5 -24.5q-196 0 -307 119.5t-111 308.5
q0 120 51.5 219.5t155 162t241.5 62.5zM563 227q71 0 176.5 31.5t182.5 85.5v49q0 311 -98.5 450.5t-286.5 139.5q-183 0 -286.5 -103.5t-103.5 -279.5q0 -77 23.5 -142.5t71.5 -118t130.5 -82.5t190.5 -30z" />
    <glyph glyph-name="zero.dnom" horiz-adv-x="827" 
d="M414 881q-146 0 -236 -113t-90 -332q0 -218 90 -332t236 -114q147 0 236 114t89 332t-89 331.5t-236 113.5zM414 47q-129 0 -195.5 101.5t-66.5 287.5q0 188 66.5 287.5t195.5 99.5t195.5 -99.5t66.5 -287.5q0 -185 -66 -287t-196 -102z" />
    <glyph glyph-name="one.dnom" horiz-adv-x="829" 
d="M694 55q15 -28 0 -55h-575q-12 29 0 55h252v748q-226 -110 -250 -115q-25 10 -25 45q181 99 297 148q33 -11 39 -31v-795h262z" />
    <glyph glyph-name="two.dnom" horiz-adv-x="829" 
d="M203 55h506q0 -37 -15 -55h-547q-8 7 -17 27t-9 28l47 37q79 61 134.5 106.5t122 107.5t107.5 111.5t69 104.5t28 101q0 98 -66 148t-178 50q-119 0 -260 -94q-10 8 -12.5 25t4.5 36q135 93 286 93q121 0 205 -70t84 -195q0 -214 -489 -561z" />
    <glyph glyph-name="three.dnom" horiz-adv-x="829" 
d="M643 229q0 -89 -76 -136.5t-196 -47.5q-59 0 -124 20t-106 48q-14 -14 -14 -37q0 -17 6 -35q102 -55 258 -55q148 0 233 70t85 173q0 82 -51 139.5t-136 80.5q69 20 113.5 72t44.5 143q0 102 -73.5 159.5t-190.5 57.5q-152 0 -271 -86q-6 -12 -6 -29t11 -35
q130 92 256 92q93 0 151.5 -44t58.5 -117q0 -99 -67 -143.5t-217 -43.5h-56q-22 -13 -22 -53h98q291 0 291 -193z" />
    <glyph glyph-name="four.dnom" horiz-adv-x="706" 
d="M627 281q11 -26 0 -54h-125v-227h-62v227h-440q-14 4 -26 19t-15 30q102 139 264.5 336t237.5 269q10 0 23 -6.5t18 -12.5v-581h125zM442 774q-76 -79 -210.5 -240t-196.5 -253h407v493z" />
    <glyph glyph-name="five.dnom" horiz-adv-x="829" 
d="M377 514q148 -28 225.5 -93t77.5 -161q0 -133 -89.5 -203.5t-258.5 -70.5q-119 0 -209 43q-4 16 -4 30q0 18 8 29q110 -45 213 -45q139 0 207.5 58.5t68.5 142.5q0 92 -70.5 149t-250.5 82l-88 12q-47 15 -47 54l90 325h424q0 -26 -25 -55h-348l-76 -268z" />
    <glyph glyph-name="six.dnom" horiz-adv-x="829" 
d="M440 555q138 0 215.5 -77.5t77.5 -201.5q0 -121 -85 -205.5t-230 -84.5q-69 0 -125 21.5t-101.5 68.5t-70.5 131.5t-25 202.5q0 236 91.5 353.5t254.5 117.5q74 0 125.5 -13t108.5 -45q6 -8 6 -28q0 -19 -6 -31q-54 32 -103.5 45.5t-119.5 13.5q-132 0 -205 -74.5
t-86 -256.5q56 34 119.5 48.5t158.5 14.5zM414 45q119 0 187.5 62.5t68.5 168.5q0 99 -68 163.5t-207 64.5q-47 0 -116 -19t-119 -53v-22q0 -192 65 -278.5t189 -86.5z" />
    <glyph glyph-name="seven.dnom" horiz-adv-x="829" 
d="M690 866q12 -8 22.5 -27t10.5 -36l-434 -803q-50 -13 -60 0q0 15 192.5 374.5t235.5 420.5l13 16h-541q-12 29 0 55h561z" />
    <glyph glyph-name="eight.dnom" horiz-adv-x="831" 
d="M514 461q106 -33 158.5 -91.5t52.5 -133.5q0 -82 -44 -140t-112.5 -84t-152.5 -26q-133 0 -221.5 61.5t-88.5 175.5q0 84 55.5 148.5t131.5 91.5q-146 60 -146 201q0 94 77.5 155.5t191.5 61.5q112 0 189 -55t77 -148q0 -74 -50 -133t-118 -84zM211 668q0 -76 45.5 -120
t175.5 -69q73 11 131 68.5t58 122.5q0 75 -56.5 114t-148.5 39q-93 0 -149 -43.5t-56 -111.5zM416 45q112 0 177.5 48.5t65.5 139.5q0 158 -264 201q-3 1 -10 2t-10 2q-80 -17 -142.5 -72t-62.5 -133q0 -94 69.5 -141t176.5 -47z" />
    <glyph glyph-name="nine.dnom" horiz-adv-x="829" 
d="M412 881q70 0 126 -21.5t101 -69t69.5 -132t24.5 -201.5q0 -236 -91.5 -353.5t-254.5 -117.5q-78 0 -127.5 13.5t-105.5 43.5q-7 14 -7 29q0 16 7 30q54 -32 103.5 -45.5t119.5 -13.5q133 0 206.5 75t86.5 257q-110 -64 -279 -64q-139 0 -217 77.5t-78 201.5
q0 121 85.5 206t230.5 85zM434 365q48 0 118.5 18.5t119.5 52.5v21q0 192 -66 278t-190 86q-119 0 -187.5 -62.5t-68.5 -168.5q0 -98 67.5 -161.5t206.5 -63.5z" />
    <glyph glyph-name="zero.numr" horiz-adv-x="827" 
d="M414 881q-146 0 -236 -113t-90 -332q0 -218 90 -332t236 -114q147 0 236 114t89 332t-89 331.5t-236 113.5zM414 47q-129 0 -195.5 101.5t-66.5 287.5q0 188 66.5 287.5t195.5 99.5t195.5 -99.5t66.5 -287.5q0 -185 -66 -287t-196 -102z" />
    <glyph glyph-name="one.numr" horiz-adv-x="829" 
d="M653 520q15 -28 0 -55h-534q-12 29 0 55h252v748q-226 -110 -250 -115q-25 10 -25 45q181 99 297 148q33 -11 39 -31v-795h221z" />
    <glyph glyph-name="two.numr" horiz-adv-x="829" 
d="M203 520h506q0 -38 -15 -55h-547q-8 7 -17 27t-9 28l47 35q99 73 175.5 137.5t144.5 134.5t104.5 136.5t36.5 123.5q0 98 -66 148.5t-178 50.5q-119 0 -260 -94q-10 8 -12.5 25t4.5 36q135 93 286 93q121 0 205 -70t84 -195q0 -214 -489 -561z" />
    <glyph glyph-name="three.numr" horiz-adv-x="829" 
d="M643 694q0 -89 -76 -136.5t-196 -47.5q-59 0 -124 20t-106 48q-14 -14 -14 -37q0 -17 6 -35q99 -53 258 -53q148 0 233 69t85 172q0 82 -51 139t-136 80q69 20 113.5 72t44.5 143q0 102 -73.5 160t-190.5 58q-152 0 -271 -86q-6 -12 -6 -29t11 -35q130 92 256 92
q93 0 151.5 -44.5t58.5 -117.5q0 -99 -67 -143t-217 -43h-56q-22 -13 -22 -53h98q291 0 291 -193z" />
    <glyph glyph-name="four.numr" horiz-adv-x="829" 
d="M750 745q11 -25 0 -53h-125v-227h-62v227h-440q-14 4 -26 19t-15 30q97 133 261.5 331t240.5 274q10 0 23 -6.5t18 -12.5v-582h125zM565 1239q-75 -79 -210 -240.5t-197 -253.5h407v494z" />
    <glyph glyph-name="five.numr" horiz-adv-x="829" 
d="M377 979q148 -28 225.5 -93t77.5 -161q0 -133 -89.5 -202.5t-258.5 -69.5q-122 0 -209 41q-4 16 -4 30q0 18 8 29q110 -45 213 -45q139 0 207.5 58.5t68.5 142.5q0 92 -70.5 149t-250.5 82l-88 12q-47 15 -47 54l90 325h424q0 -26 -25 -55h-348l-76 -268z" />
    <glyph glyph-name="six.numr" horiz-adv-x="829" 
d="M440 1020q138 0 215.5 -78t77.5 -201q0 -121 -85 -204.5t-230 -83.5q-322 0 -322 421q0 236 91.5 354t254.5 118q74 0 125.5 -13t108.5 -45q6 -8 6 -28q0 -19 -6 -31q-54 32 -103.5 45.5t-119.5 13.5q-132 0 -205 -75t-86 -257q56 34 120 49t158 15zM414 510
q119 0 187.5 62.5t68.5 168.5q0 99 -68 163.5t-207 64.5q-47 0 -116 -19t-119 -53v-23q0 -192 65 -278t189 -86z" />
    <glyph glyph-name="seven.numr" horiz-adv-x="722" 
d="M690 1331q12 -8 22.5 -27t10.5 -36l-434 -803q-51 -12 -60 0q0 15 192.5 374.5t235.5 420.5l13 16h-541q-12 29 0 55h561z" />
    <glyph glyph-name="eight.numr" horiz-adv-x="831" 
d="M514 926q107 -32 159 -92t52 -134q0 -62 -25.5 -110t-68.5 -77.5t-98 -44.5t-117 -15q-133 0 -221.5 60.5t-88.5 174.5q0 84 55.5 148.5t131.5 91.5q-146 58 -146 200q0 94 77.5 156t191.5 62q112 0 189 -55t77 -148q0 -74 -50 -133t-118 -84zM211 1133q0 -34 7.5 -59
t29.5 -51t68 -46t116 -33q73 11 131 68.5t58 122.5q0 75 -56.5 114t-148.5 39q-93 0 -149 -43.5t-56 -111.5zM416 510q112 0 177.5 48.5t65.5 139.5q0 158 -264 201q-3 1 -9.5 2t-10.5 2q-80 -17 -142.5 -72t-62.5 -133q0 -94 69.5 -141t176.5 -47z" />
    <glyph glyph-name="nine.numr" horiz-adv-x="829" 
d="M412 1346q70 0 126 -21.5t101 -69t69.5 -132t24.5 -201.5q0 -236 -91 -352.5t-255 -116.5q-75 0 -126 12t-107 43q-7 10 -7 29q0 16 7 30q54 -32 103.5 -45.5t119.5 -13.5q133 0 206.5 75t86.5 257q-110 -64 -279 -64q-139 0 -217 77.5t-78 201.5q0 121 85.5 206
t230.5 85zM434 829q48 0 118 19t120 53v21q0 192 -66 278t-190 86q-119 0 -187.5 -62.5t-68.5 -168.5q0 -98 67.5 -162t206.5 -64z" />
    </font>
</defs>
</svg>
