<?xml version="1.0" standalone="no"?>
<!DOCTYPE svg PUBLIC "-//W3C//DTD SVG 1.1//EN" "http://www.w3.org/Graphics/SVG/1.1/DTD/svg11.dtd" >
<svg xmlns="http://www.w3.org/2000/svg" xmlns:xlink="http://www.w3.org/1999/xlink" version="1.1">
<metadata>
Created by FontForge 20170731 at Tue May 17 18:57:27 2022
 By Aleksey,,,
Copyright (c) 2019 by Vasava Studio. All rights reserved.	
</metadata>
<defs>
<font id="CIBFontSans-BookItalic" horiz-adv-x="1126" >
  <font-face 
    font-family="CIBFont Sans Book"
    font-weight="400"
    font-style="italic"
    font-stretch="normal"
    units-per-em="2048"
    panose-1="2 11 6 3 2 2 2 2 1 4"
    ascent="1516"
    descent="-532"
    x-height="1020"
    cap-height="1337"
    bbox="-645 -518 2114 1985"
    underline-thickness="102"
    underline-position="-614"
    slope="-12"
    unicode-range="U+0020-FB02"
  />
<missing-glyph horiz-adv-x="1107" 
d="M-23 115l277 1302q478 -71 942 -200l-276 -1303q-473 70 -943 201zM336 1341l260 -626l496 465zM59 205l494 467l-262 628zM621 659l262 -630l231 1095zM84 150l752 -160l-258 624z" />
    <glyph glyph-name="fi" unicode="fi" horiz-adv-x="1153" 
d="M967 1020q36 12 78 11.5t71 -15.5l-215 -1016h-160l189 889h-469l-197 -959q-36 -171 -127 -255.5t-250 -84.5q-69 0 -141 15q21 93 64 131q73 -10 110 -10q74 0 118.5 52t65.5 152l197 959h-119q7 38 48.5 81t101.5 60l10 51q36 176 145.5 272.5t292.5 96.5
q104 0 162 -14q-11 -50 -24.5 -79.5t-38.5 -51.5q-62 10 -131 10q-95 0 -159.5 -67t-86.5 -167l-13 -61h478zM1126 1438q41 0 68 -25.5t27 -62.5q0 -49 -42.5 -90t-99.5 -41q-42 0 -67 25.5t-25 64.5q0 49 41 89t98 40z" />
    <glyph glyph-name="fl" unicode="fl" horiz-adv-x="1169" 
d="M780 1450q104 0 162 -14q-11 -50 -24.5 -79.5t-38.5 -51.5q-62 10 -131 10q-95 0 -159.5 -67t-86.5 -167l-13 -61h308q-7 -27 -30 -67.5t-48 -63.5h-258l-197 -959q-36 -171 -127 -255.5t-250 -84.5q-69 0 -141 15q21 93 64 131q73 -10 110 -10q74 0 118.5 52t65.5 152
l197 959h-119q7 38 48.5 81t101.5 60l10 51q36 176 145.5 272.5t292.5 96.5zM758 0l289 1360q32 22 85.5 37.5t86.5 15.5l-301 -1413h-160z" />
    <glyph glyph-name="f_f" unicode="ff" horiz-adv-x="1294" 
d="M1374 1450q104 0 162 -14q-11 -50 -24.5 -79.5t-38.5 -51.5q-62 10 -132 10q-96 0 -162.5 -68t-82.5 -166l-11 -57h306q-7 -27 -30 -67.5t-48 -63.5h-248l-141 -840q-56 -340 -369 -340q-73 0 -141 15q18 90 61 131q85 -11 113 -11q72 0 116 54.5t60 150.5l141 840h-448
l-215 -1034q-34 -172 -123 -256t-248 -84q-64 0 -141 16q12 49 25.5 79t37.5 52q72 -10 111 -10q137 0 178 203l215 1034h-121q9 39 50.5 82t99.5 59l10 47q35 175 133.5 272t263.5 97q94 0 152 -14q-21 -93 -64 -131q-62 10 -121 10q-79 0 -131.5 -66t-72.5 -168l-13 -57
h443l10 57q30 174 142 271.5t296 97.5z" />
    <glyph glyph-name=".notdef" horiz-adv-x="1107" 
d="M-23 115l277 1302q478 -71 942 -200l-276 -1303q-473 70 -943 201zM336 1341l260 -626l496 465zM59 205l494 467l-262 628zM621 659l262 -630l231 1095zM84 150l752 -160l-258 624z" />
    <glyph glyph-name=".null" horiz-adv-x="0" 
 />
    <glyph glyph-name="nonmarkingreturn" horiz-adv-x="682" 
 />
    <glyph glyph-name="space" unicode=" " horiz-adv-x="512" 
 />
    <glyph glyph-name="exclam" unicode="!" horiz-adv-x="606" 
d="M340 410h-117q69 465 197 1046q91 23 168 0q-130 -627 -248 -1046zM193 -10q-46 0 -75.5 29t-29.5 73q0 60 48.5 108t111.5 48q46 0 75 -29t29 -72q0 -62 -48 -109.5t-111 -47.5z" />
    <glyph glyph-name="quotedbl" unicode="&#x22;" horiz-adv-x="528" 
d="M178 963l76 448q73 22 141 0q-22 -101 -58 -234t-67 -214h-92zM440 963l76 448q73 22 141 0q-18 -94 -55.5 -229t-69.5 -219h-92z" />
    <glyph glyph-name="numbersign" unicode="#" 
d="M1053 971h166q-18 -81 -47.5 -110.5t-102.5 -29.5h-70l-125 -321h173q-18 -81 -45 -110t-95 -29h-88l-143 -371h-154l144 371h-349l-143 -371h-154l144 371h-189q17 82 48 110.5t104 28.5h92l125 321h-197q19 85 49 112.5t103 27.5h98l140 358q82 25 153 0l-139 -358h348
l139 358q83 25 154 0zM721 510l125 321h-348l-125 -321h348z" />
    <glyph glyph-name="dollar" unicode="$" 
d="M1028 1151q-122 61 -233 70q-76 -358 -107 -482q142 -86 203 -159.5t61 -169.5q0 -164 -107.5 -278t-289.5 -146l-43 -209q-75 -25 -141 0l37 198q-187 3 -349 82q-6 78 52 156q167 -87 325 -96q30 143 117 530q-158 90 -224.5 160.5t-66.5 173.5q0 158 108.5 258
t307.5 119l41 205q75 25 141 0q-32 -168 -39 -203q133 -9 256 -60q10 -25 -5.5 -70t-43.5 -79zM430 1010q0 -60 34 -103.5t118 -99.5q26 166 69 410q-107 -15 -164 -71.5t-57 -135.5zM782 371q0 65 -29.5 113.5t-93.5 95.5q-43 -271 -77 -447q92 25 144.5 87t55.5 151z" />
    <glyph glyph-name="percent" unicode="%" horiz-adv-x="1499" 
d="M113 14l1144 1262q69 76 117 88t117 -21l-1143 -1261q-69 -76 -114.5 -88.5t-120.5 20.5zM520 1358q-103 0 -188.5 -60.5t-135 -165t-49.5 -229.5q0 -115 61.5 -175t166.5 -60q155 0 264 133.5t109 324.5q0 114 -61.5 173t-166.5 59zM395 772q-59 0 -90 37.5t-31 105.5
q0 139 66 238.5t158 99.5q120 0 120 -141q0 -137 -65.5 -238.5t-157.5 -101.5zM1194 674q-103 0 -188.5 -60.5t-135 -165t-49.5 -229.5q0 -114 61.5 -174.5t166.5 -60.5q155 0 263.5 133t108.5 325q0 114 -61 173t-166 59zM1071 88q-61 0 -92 37t-31 106q0 140 65.5 239
t157.5 99q121 0 121 -141q0 -138 -65 -239t-156 -101z" />
    <glyph glyph-name="ampersand" unicode="&#x26;" horiz-adv-x="1476" 
d="M995 817l508 60q-21 -137 -123 -150l-145 -16l-76 -219q-38 -119 -97 -211.5t-124 -148.5t-142 -92t-146.5 -49.5t-143.5 -13.5q-193 0 -317 99t-123 258q0 169 112.5 289.5t282.5 152.5q-99 83 -99 209q0 172 130.5 284.5t328.5 112.5q183 0 297 -92q2 -84 -53 -147
q-68 58 -123.5 79t-126.5 21q-116 0 -202.5 -66.5t-86.5 -181.5q0 -89 64 -145.5t151 -56.5q0 -61 -41 -109q-221 0 -345 -86.5t-124 -239.5q0 -99 79 -166t231 -67q342 0 465 364l75 203l-221 -26q16 137 135 151z" />
    <glyph glyph-name="quotesingle" unicode="'" horiz-adv-x="264" 
d="M178 963l76 448q73 22 141 0q-22 -101 -58 -234t-67 -214h-92z" />
    <glyph glyph-name="parenleft" unicode="(" horiz-adv-x="636" 
d="M324 -213q-232 285 -232 670q0 172 51.5 344t138.5 313t200 253.5t237 178.5q41 -6 78.5 -32.5t46.5 -55.5q-265 -158 -426.5 -431.5t-161.5 -549.5q0 -365 217 -620q-21 -25 -62.5 -45.5t-86.5 -24.5z" />
    <glyph glyph-name="parenright" unicode=")" horiz-adv-x="636" 
d="M381 1546q231 -284 231 -667q0 -173 -51.5 -345.5t-138 -313.5t-200 -254t-238.5 -179q-41 6 -78.5 32.5t-46.5 55.5q265 157 426 431.5t161 549.5q0 366 -217 621q22 26 64 45.5t88 23.5z" />
    <glyph glyph-name="asterisk" unicode="*" horiz-adv-x="772" 
d="M795 1286q26 -63 12 -125q-99 -39 -213 -53l106 -156q-63 -59 -125 -78q-52 88 -77 177l-140 -181q-65 24 -92 78q72 85 168 164l-194 43q15 70 67 125q98 -27 178 -74l23 205q72 21 133 0q-14 -112 -55 -207z" />
    <glyph glyph-name="plus" unicode="+" 
d="M674 698h411q-18 -81 -44.5 -110t-94.5 -29h-303l-88 -420q-81 0 -105.5 21.5t-11.5 89.5l66 309h-410q17 83 45 111t94 28h302l92 430q81 0 105 -21t9 -89z" />
    <glyph glyph-name="comma" unicode="," horiz-adv-x="446" 
d="M176 236q44 0 73.5 -31t29.5 -78q0 -88 -96.5 -205.5t-217.5 -183.5q-20 0 -37 13.5t-26 35.5q53 35 111 90t93 107q-39 6 -62.5 33.5t-23.5 66.5q0 58 48 105t108 47z" />
    <glyph glyph-name="hyphen" unicode="-" horiz-adv-x="614" 
d="M66 559q17 83 44.5 111t94.5 28h397q-18 -81 -44.5 -110t-94.5 -29h-397z" />
    <glyph glyph-name="period" unicode="." horiz-adv-x="442" 
d="M111 -10q-46 0 -75.5 29t-29.5 73q0 60 48.5 108t111.5 48q46 0 75 -29t29 -72q0 -62 -48 -109.5t-111 -47.5z" />
    <glyph glyph-name="slash" unicode="/" horiz-adv-x="532" 
d="M-147 -82l667 1385q42 88 86 111.5t146 23.5l-668 -1383q-41 -88 -83 -112.5t-148 -24.5z" />
    <glyph glyph-name="zero" unicode="0" 
d="M741 1358q-130 0 -249.5 -76t-207 -202.5t-140 -301t-52.5 -362.5q0 -212 95.5 -322t261.5 -110q104 0 202.5 49t179 138t141.5 205.5t94.5 260.5t33.5 295q0 210 -96 318t-263 108zM479 127q-109 0 -164 75.5t-55 217.5q0 206 62.5 390t167 294t221.5 110
q221 0 221 -288q0 -204 -63.5 -389.5t-168.5 -297.5t-221 -112z" />
    <glyph glyph-name="one" unicode="1" 
d="M934 139q10 -71 -31 -139h-821q-10 71 31 139h327l213 1004q-100 -43 -213 -86.5t-135 -46.5q-31 42 -31 112q235 128 510 236q18 -4 41 -26t25 -34l-248 -1159h332z" />
    <glyph glyph-name="two" unicode="2" 
d="M1100 1047q0 -112 -60.5 -227t-176.5 -230t-260 -222t-337 -227h678q-17 -95 -53 -141h-789q-13 20 -22 70t-4 71l76 52q108 74 191 134.5t178.5 136t164 143t127.5 139.5t89 142.5t30 135.5q0 188 -244 188q-161 0 -401 -149q-23 77 18 162q204 133 428 133
q167 0 267 -79.5t100 -231.5z" />
    <glyph glyph-name="three" unicode="3" 
d="M442 125q-90 0 -181 34t-144 83q-45 -60 -45 -166q121 -96 360 -96q149 0 275.5 59.5t201 165.5t74.5 235q-1 95 -51 160.5t-137 93.5q127 46 205.5 152.5t78.5 232.5q1 131 -88 205t-239 74q-228 0 -428 -133q-32 -87 -19 -150q211 137 389 137q107 0 164 -42.5
t57 -120.5q0 -133 -106.5 -211t-304.5 -78h-78q-26 -21 -47 -59.5t-21 -79.5h146q311 0 311 -209q0 -129 -108 -208t-265 -79z" />
    <glyph glyph-name="four" unicode="4" 
d="M1049 1309l-179 -842h166q0 -69 -37 -139h-159l-70 -328h-164l70 328h-580q-26 13 -43.5 47.5t-19.5 70.5q175 202 473 498t438 414q31 0 62.5 -15.5t42.5 -33.5zM848 1090q-120 -108 -314.5 -301t-310.5 -322h494z" />
    <glyph glyph-name="five" unicode="5" 
d="M1071 1198h-459l-161 -340l192 -43q160 -38 245.5 -125.5t86.5 -216.5q0 -147 -80.5 -260.5t-218 -173t-309.5 -59.5q-74 0 -157 17.5t-142 51.5q-4 34 4 74q13 49 43 76q49 -29 128.5 -53.5t166.5 -24.5q174 0 283.5 86t109.5 225q-2 106 -80.5 171.5t-253.5 98.5
l-115 21q-35 16 -58.5 49t-16.5 66l233 499h637q-1 -36 -19.5 -67.5t-58.5 -71.5z" />
    <glyph glyph-name="six" unicode="6" 
d="M772 1214q-161 0 -285.5 -120t-183.5 -324q162 92 344 92q185 0 281 -96.5t98 -261.5q0 -143 -70 -263.5t-192.5 -190.5t-269.5 -70q-178 0 -288 116.5t-110 335.5q0 262 91.5 474.5t251 332t354.5 119.5q103 0 171.5 -21t135.5 -71q3 -76 -35 -142q-70 48 -133.5 69
t-159.5 21zM575 731q-61 0 -145.5 -23.5t-155.5 -72.5q-14 -80 -14 -184q0 -165 70 -248.5t198 -83.5q140 0 237 100t97 246q0 120 -68.5 193t-218.5 73z" />
    <glyph glyph-name="seven" unicode="7" 
d="M1124 1337q56 -47 56 -145l-848 -1192q-100 -24 -164 0q6 29 388.5 557.5t477.5 640.5h-762q-6 72 31 139h821z" />
    <glyph glyph-name="eight" unicode="8" 
d="M784 709q109 -59 164 -127.5t56 -157.5q0 -126 -77 -229t-203 -159t-271 -56q-82 0 -151.5 19t-122.5 57.5t-83 101t-30 143.5q0 130 106.5 247.5t251.5 158.5q-154 99 -154 256q0 109 68 201t178.5 143t233.5 51q146 0 240.5 -71.5t94.5 -199.5q0 -115 -89.5 -222.5
t-211.5 -155.5zM729 1223q-131 0 -217 -65t-86 -169q0 -76 50 -123t183 -98q107 30 187 112t80 171q1 86 -52.5 129t-144.5 43zM489 125q143 0 240.5 73t97.5 187q0 77 -59.5 140.5t-202.5 115.5q-126 -23 -226.5 -110t-100.5 -191q-1 -110 69 -162.5t182 -52.5z" />
    <glyph glyph-name="nine" unicode="9" 
d="M702 1358q177 0 286.5 -116.5t109.5 -336.5q0 -262 -91 -474t-250 -331.5t-354 -119.5q-104 0 -172 21t-137 71q-3 70 35 141q72 -48 134.5 -69t158.5 -21q162 0 287 120t184 324q-162 -92 -346 -92t-280.5 97t-96.5 262q0 144 69.5 264t192 190t270.5 70zM618 606
q62 0 147.5 24.5t156.5 74.5q14 80 14 182q0 165 -70 248.5t-200 83.5q-140 0 -236 -100.5t-96 -246.5q0 -120 67.5 -193t216.5 -73z" />
    <glyph glyph-name="colon" unicode=":" horiz-adv-x="456" 
d="M285 770q-46 0 -74.5 27.5t-28.5 70.5q0 59 47 105.5t107 46.5q45 0 73.5 -28t28.5 -70q0 -58 -47 -105t-106 -47zM119 -10q-45 0 -74 28t-29 70q0 60 47 106t109 46q44 0 72 -27.5t28 -69.5q0 -60 -46.5 -106.5t-106.5 -46.5z" />
    <glyph glyph-name="semicolon" unicode=";" horiz-adv-x="446" 
d="M336 1020q45 0 73.5 -28t28.5 -70q0 -59 -47.5 -105.5t-107.5 -46.5q-44 0 -72.5 27.5t-28.5 70.5q0 59 47 105.5t107 46.5zM176 236q44 0 73.5 -31t29.5 -78q0 -88 -96.5 -205.5t-217.5 -183.5q-20 0 -37 13.5t-26 35.5q53 35 111 90t93 107q-39 6 -62.5 33.5
t-23.5 66.5q0 58 48 105t108 47z" />
    <glyph glyph-name="less" unicode="&#x3c;" 
d="M1077 1176q26 -68 14 -105t-77 -72l-733 -370l573 -371q27 -17 39 -33t9.5 -37.5t-16 -45t-42.5 -60.5l-690 446q-30 22 -40 42t-5 53q7 41 27 63t61 43z" />
    <glyph glyph-name="equal" unicode="=" 
d="M162 764q18 86 45.5 112.5t93.5 26.5h799q-15 -81 -42.5 -110t-94.5 -29h-801zM74 354q17 83 46 111.5t95 28.5h799q-18 -81 -45 -110.5t-95 -29.5h-800z" />
    <glyph glyph-name="greater" unicode="&#x3e;" 
d="M1024 729q31 -20 40.5 -40t4.5 -54q-7 -40 -27 -62t-61 -45l-881 -446q-26 68 -13.5 105.5t77.5 70.5l733 371l-573 370q-36 24 -45 47.5t4 52t51 77.5z" />
    <glyph glyph-name="question" unicode="?" horiz-adv-x="909" 
d="M995 1196q0 -166 -128.5 -287.5t-368.5 -210.5l-52 -256q-78 -27 -151 -16l53 256q13 63 36.5 94.5t82.5 52.5q158 50 258.5 136t99.5 186q0 186 -227 186q-136 0 -356 -96q-4 97 30 160q189 84 385 84q157 0 247.5 -77t90.5 -212zM346 248q47 0 76 -29t29 -72
q0 -62 -48.5 -109.5t-111.5 -47.5q-46 0 -75.5 29t-29.5 73q0 60 48.5 108t111.5 48z" />
    <glyph glyph-name="at" unicode="@" horiz-adv-x="1548" 
d="M952 1325q247 0 404.5 -149.5t159.5 -380.5q0 -103 -30.5 -209t-82.5 -191.5t-128 -139.5t-159 -54q-70 0 -120.5 39t-57.5 118q-63 -70 -144.5 -115.5t-172.5 -45.5q-125 0 -186 90.5t-46 238.5q23 220 169 365t335 145q108 0 182 -26.5t109 -67.5l-99 -465
q-18 -82 2.5 -121t69.5 -39t94 46t73.5 115t45 145t16.5 139q0 191 -127.5 314.5t-332.5 123.5q-137 0 -269 -61t-230 -161t-158 -234.5t-60 -274.5q0 -203 129 -332t334 -129q144 0 311 55q33 -45 16 -118q-154 -62 -352 -62q-251 0 -409 157.5t-158 403.5q0 168 73.5 330
t193 282.5t280 194.5t325.5 74zM946 463l90 416q-68 45 -172 45q-142 0 -242 -126t-100 -306q0 -90 41.5 -136.5t110.5 -46.5q136 0 272 154z" />
    <glyph glyph-name="A" unicode="A" horiz-adv-x="1216" 
d="M915 0l-49 332h-587l-187 -332h-180l778 1343q103 18 187 0l217 -1343h-179zM356 469h490l-101 690z" />
    <glyph glyph-name="B" unicode="B" horiz-adv-x="1101" 
d="M797 731q227 -53 227 -248q0 -140 -77 -250.5t-211.5 -171.5t-301.5 -61h-389l281 1317q195 41 368 41q180 0 283.5 -74t103.5 -197q0 -128 -74.5 -220.5t-209.5 -135.5zM909 1047q0 76 -63.5 125t-192.5 49q-92 0 -188 -21l-90 -426h203q139 0 235 78t96 195zM457 139
q177 0 283 86.5t106 229.5q0 99 -77 140.5t-222 41.5h-203l-106 -498h219z" />
    <glyph glyph-name="C" unicode="C" horiz-adv-x="1280" 
d="M1139 184q-105 -99 -243.5 -151.5t-297.5 -52.5q-236 0 -371 129.5t-135 363.5q0 243 106.5 446.5t290 321t402.5 117.5q162 0 277 -55.5t175 -157.5q-16 -40 -55.5 -69.5t-81.5 -41.5q-35 87 -124.5 135t-219.5 48q-120 0 -230.5 -56t-192 -151t-130.5 -229.5
t-49 -284.5q0 -179 97 -277t272 -98q238 0 448 174z" />
    <glyph glyph-name="D" unicode="D" horiz-adv-x="1323" 
d="M705 1358q288 0 441.5 -132t153.5 -364q0 -241 -116.5 -438t-322.5 -310t-460 -114h-356l281 1317q219 41 379 41zM432 139q198 0 358 87.5t252.5 248.5t92.5 365q0 181 -115 276.5t-332 95.5q-134 0 -225 -18l-225 -1055h194z" />
    <glyph glyph-name="E" unicode="E" horiz-adv-x="1075" 
d="M1104 1198h-639l-96 -455h536q0 -23 -17.5 -65.5t-41.5 -73.5h-508l-98 -465h639l-29 -139h-803l283 1337h803z" />
    <glyph glyph-name="F" unicode="F" horiz-adv-x="1034" 
d="M1104 1198h-639l-96 -455h536q0 -23 -17.5 -65.5t-41.5 -73.5h-508l-127 -604h-164l283 1337h803z" />
    <glyph glyph-name="G" unicode="G" horiz-adv-x="1339" 
d="M858 1217q-117 0 -226.5 -56t-191.5 -151.5t-131 -231t-49 -284.5q0 -179 95 -276t272 -97q222 0 397 108l78 373q37 30 85 37t85 -8l-94 -449q-110 -98 -261 -151.5t-321 -53.5q-236 0 -370 130.5t-134 365.5q0 242 105.5 445t289 320.5t402.5 117.5q163 0 281.5 -56
t179.5 -157q-59 -92 -140 -111q-39 89 -128 137t-224 48z" />
    <glyph glyph-name="H" unicode="H" horiz-adv-x="1335" 
d="M1192 1337q87 21 164 0l-283 -1337h-164l127 600h-698l-127 -600h-164l283 1337q87 21 164 0l-123 -579h698z" />
    <glyph glyph-name="I" unicode="I" horiz-adv-x="473" 
d="M211 0h-164l283 1337q87 21 164 0z" />
    <glyph glyph-name="J" unicode="J" horiz-adv-x="679" 
d="M539 1337q84 21 163 0l-231 -1085q-44 -212 -134 -301.5t-257 -89.5q-104 0 -184 39q18 93 67 139q95 -29 160 -29q64 0 111 55.5t67 151.5z" />
    <glyph glyph-name="K" unicode="K" horiz-adv-x="1130" 
d="M1217 1337l-713 -653l483 -684h-192l-449 639l-135 -639h-164l283 1337q87 21 164 0l-123 -581l641 581q108 22 205 0z" />
    <glyph glyph-name="L" unicode="L" horiz-adv-x="972" 
d="M240 139h612l-29 -139h-776l283 1337q87 21 164 0z" />
    <glyph glyph-name="M" unicode="M" horiz-adv-x="1587" 
d="M1382 1337q116 21 226 0l-283 -1337h-164l142 670l106 458l-631 -1013q-60 -22 -133 0l-203 1018l-90 -463l-141 -670h-164l283 1337q118 21 225 0l203 -993z" />
    <glyph glyph-name="N" unicode="N" horiz-adv-x="1402" 
d="M1260 1337h163l-282 -1337q-87 -21 -164 0l-543 1094l-39 -222l-184 -872h-164l283 1337q87 21 164 0l540 -1108l29 174z" />
    <glyph glyph-name="O" unicode="O" horiz-adv-x="1419" 
d="M598 -20q-240 0 -373 132t-133 365q0 241 106.5 443.5t290.5 320t402 117.5q240 0 373 -131t133 -361q0 -181 -63 -345.5t-169.5 -282.5t-254.5 -188t-312 -70zM629 121q167 0 305 99.5t215.5 267t77.5 364.5q0 175 -94 270t-273 95q-125 0 -236.5 -58.5t-190.5 -156.5
t-125 -230.5t-46 -277.5q0 -181 94 -277t273 -96z" />
    <glyph glyph-name="P" unicode="P" horiz-adv-x="1073" 
d="M674 1358q113 0 199 -29.5t134 -79.5t71.5 -109.5t23.5 -127.5q0 -162 -84 -293.5t-231.5 -205t-327.5 -73.5h-156l-94 -440h-164l281 1317q192 41 348 41zM469 580q210 0 339.5 113.5t129.5 295.5q0 104 -73 169t-232 65q-78 0 -168 -23l-133 -620h137z" />
    <glyph glyph-name="Q" unicode="Q" horiz-adv-x="1419" 
d="M1397 866q0 -223 -92 -415t-250 -314l127 -213q-21 -37 -59 -58.5t-79 -21.5l-122 209q-152 -73 -324 -73q-240 0 -373 132t-133 365q0 241 106.5 443.5t290.5 320t402 117.5q240 0 373 -131t133 -361zM629 121q115 0 223 51l-156 262q21 39 57.5 61.5t75.5 22.5
l154 -258q114 101 179 256.5t65 335.5q0 175 -94 270t-273 95q-125 0 -236.5 -58.5t-190.5 -156.5t-125 -230.5t-46 -277.5q0 -181 94 -277t273 -96z" />
    <glyph glyph-name="R" unicode="R" horiz-adv-x="1130" 
d="M1108 1030q0 -167 -98.5 -297t-261.5 -186l227 -547h-180l-205 514q-18 -2 -55 -2h-218l-108 -512h-164l281 1317q189 41 348 41q216 0 325 -94.5t109 -233.5zM504 651q202 0 321 96.5t119 256.5q0 101 -76.5 160t-238.5 59q-75 0 -164 -19l-117 -553h156z" />
    <glyph glyph-name="S" unicode="S" horiz-adv-x="1034" 
d="M981 1151q-145 72 -297 72q-145 0 -223 -59.5t-78 -153.5q0 -74 51 -124.5t199 -140.5q146 -90 209 -164t63 -171q0 -192 -147 -313.5t-381 -121.5q-194 0 -365 82q-9 78 49 156q190 -96 351 -96q144 0 231 69t92 185q0 84 -51 143.5t-174 130.5q-162 92 -229.5 162.5
t-67.5 173.5q0 176 132 278.5t372 102.5q163 0 311 -62q10 -25 -5.5 -70t-41.5 -79z" />
    <glyph glyph-name="T" unicode="T" horiz-adv-x="1034" 
d="M1174 1337q-19 -96 -58 -157h-373l-249 -1180h-164l250 1180h-400q12 92 58 157h936z" />
    <glyph glyph-name="U" unicode="U" horiz-adv-x="1265" 
d="M522 -20q-238 0 -344 142t-47 419l168 796q87 21 162 0l-172 -817q-39 -177 30 -283t232 -106q158 0 276.5 103t157.5 286l172 817q85 21 162 0l-168 -796q-57 -267 -221.5 -414t-407.5 -147z" />
    <glyph glyph-name="V" unicode="V" horiz-adv-x="1134" 
d="M1108 1337q96 25 182 0l-798 -1341q-95 -20 -185 0l-114 1341q94 25 178 0l75 -1112z" />
    <glyph glyph-name="W" unicode="W" horiz-adv-x="1718" 
d="M1694 1337q93 23 180 0l-645 -1339q-92 -21 -189 0l-82 1092l-581 -1092q-97 -22 -189 0l5 1339q88 22 176 0l-21 -1095l582 1095q91 21 164 0l90 -1093z" />
    <glyph glyph-name="X" unicode="X" horiz-adv-x="1255" 
d="M1337 1341l-587 -655l346 -686h-181l-282 561l-488 -561h-202l618 700l-323 641q93 25 180 0l260 -516l459 516q43 12 102.5 12t97.5 -12z" />
    <glyph glyph-name="Y" unicode="Y" horiz-adv-x="1052" 
d="M1219 1337l-621 -841l-104 -496h-164l112 537l-256 800q97 21 181 0l192 -653l477 653q98 22 183 0z" />
    <glyph glyph-name="Z" unicode="Z" horiz-adv-x="1228" 
d="M1198 1337q26 -14 44.5 -57t8.5 -90l-1003 -1030h801q0 -35 -11 -88t-22 -72h-948q-24 13 -41 53t-9 84l1014 1041h-768q0 35 11.5 86t23.5 73h899z" />
    <glyph glyph-name="bracketleft" unicode="[" horiz-adv-x="583" 
d="M700 1407h-192l-313 -1481h192q18 -53 0 -139h-387l375 1759h387q-20 -88 -62 -139z" />
    <glyph glyph-name="backslash" unicode="\" horiz-adv-x="630" 
d="M524 -82q-85 -2 -125 24.5t-49 96.5l-172 1399q86 2 126 -21t50 -100z" />
    <glyph glyph-name="bracketright" unicode="]" horiz-adv-x="583" 
d="M264 1546h387l-375 -1759h-387q16 86 60 139h194l314 1481h-193q-18 53 0 139z" />
    <glyph glyph-name="underscore" unicode="_" horiz-adv-x="839" 
d="M-193 -160q17 82 45.5 111t94.5 29h829q-17 -84 -44.5 -112t-94.5 -28h-830z" />
    <glyph glyph-name="grave" unicode="`" horiz-adv-x="356" 
d="M238 1133l-164 233q-33 44 -33 72q0 20 18 40.5t56 34.5l32 13l183 -350z" />
    <glyph glyph-name="a" unicode="a" horiz-adv-x="1056" 
d="M709 1042q111 0 196 -23.5t123 -60.5l-205 -958q-73 0 -108.5 36t-20.5 109l17 74q-79 -110 -186.5 -174.5t-231.5 -64.5t-191 82.5t-65 228.5q1 149 55 287t143 240t213.5 163t260.5 61zM772 512l78 369q-61 34 -170 34q-129 0 -241 -83.5t-177 -222.5t-65 -298
q0 -202 151 -202q124 0 248 119.5t176 283.5z" />
    <glyph glyph-name="b" unicode="b" horiz-adv-x="1101" 
d="M764 1040q136 0 206 -83.5t70 -231.5q0 -137 -53 -271.5t-143.5 -239.5t-221 -169.5t-274.5 -64.5q-220 0 -309 24h-2l289 1356q31 22 83.5 37.5t88.5 15.5l-129 -608q77 103 183 169t212 66zM362 106q104 0 200 49.5t165 131.5t110.5 191t41.5 224q0 111 -43 160
t-129 49q-116 0 -235.5 -115t-164.5 -278l-84 -399q67 -13 139 -13z" />
    <glyph glyph-name="c" unicode="c" horiz-adv-x="956" 
d="M760 209l2 -133q-75 -44 -165.5 -70t-168.5 -26q-167 0 -260.5 90.5t-93.5 259.5q0 150 48.5 282t133 226t202 148t251.5 54q123 0 227 -45q-24 -83 -82 -137q-30 20 -74.5 31.5t-81.5 11.5q-199 0 -328.5 -151t-129.5 -383q0 -113 58 -177.5t177 -64.5q114 0 285 84z
" />
    <glyph glyph-name="d" unicode="d" horiz-adv-x="1103" 
d="M981 1360q32 22 85.5 37.5t86.5 15.5l-301 -1413q-18 0 -35.5 3t-40 11.5t-35 24.5t-21 42t2.5 64l14 72q-77 -104 -183 -170.5t-212 -66.5q-138 0 -207 83t-69 232q0 138 48 272t129.5 239t200.5 169.5t252 64.5q127 0 203 -63zM799 504l78 360q-60 49 -185 49
q-124 0 -232.5 -83.5t-171.5 -221.5t-63 -291q0 -110 43.5 -159t128.5 -49q117 0 237 116t165 279z" />
    <glyph glyph-name="e" unicode="e" horiz-adv-x="1005" 
d="M963 846q0 -94 -50 -167.5t-146 -125.5t-226 -87t-301 -56v-39q0 -116 64 -181t179 -65q75 0 159 35.5t144 89.5q54 -39 45 -129q-74 -67 -174 -105.5t-211 -38.5q-179 0 -275.5 97t-96.5 264q0 187 80.5 348.5t222 257.5t309.5 96q140 0 208.5 -52t68.5 -142zM666 913
q-138 0 -249 -106t-155 -268q259 24 397 95.5t138 174.5q0 48 -34.5 76t-96.5 28z" />
    <glyph glyph-name="f" unicode="f" horiz-adv-x="700" 
d="M780 1450q104 0 162 -14q-11 -50 -24.5 -79.5t-38.5 -51.5q-62 10 -131 10q-95 0 -159.5 -67t-86.5 -167l-13 -61h308q-7 -27 -30 -67.5t-48 -63.5h-258l-197 -959q-36 -171 -127 -255.5t-250 -84.5q-69 0 -141 15q21 93 64 131q73 -10 110 -10q74 0 118.5 52t65.5 152
l197 959h-119q7 38 48.5 81t101.5 60l10 51q36 176 145.5 272.5t292.5 96.5z" />
    <glyph glyph-name="g" unicode="g" horiz-adv-x="1101" 
d="M915 963q32 25 75 40t77 15l-221 -1036q-15 -70 -41 -127t-70 -107t-104 -84.5t-145.5 -54t-190.5 -19.5q-157 0 -262 60q21 86 67 127q127 -53 224 -53q166 0 248 62t116 194l49 237q-77 -104 -183 -170.5t-212 -66.5q-138 0 -207 83t-69 232q0 138 48 272t129.5 239
t200.5 169.5t252 64.5q139 0 219 -77zM799 500l75 364q-60 49 -182 49q-124 0 -232.5 -83.5t-171.5 -221.5t-63 -291q0 -110 43.5 -159t128.5 -49q116 0 236 114t166 277z" />
    <glyph glyph-name="h" unicode="h" horiz-adv-x="1075" 
d="M756 1032q312 0 225 -389l-145 -643h-160l145 637q33 146 3.5 212t-126.5 66q-112 0 -230 -124t-161 -273l-110 -518h-160l289 1360q32 22 85.5 37.5t86.5 15.5l-131 -610q78 108 178.5 168.5t210.5 60.5z" />
    <glyph glyph-name="i" unicode="i" horiz-adv-x="448" 
d="M516 1350q0 -49 -42 -90t-99 -41q-42 0 -67 25.5t-25 64.5q0 49 41 89t98 40q41 0 67.5 -25.5t26.5 -62.5zM37 0l215 1016q38 16 83 16.5t77 -16.5l-215 -1016h-160z" />
    <glyph glyph-name="j" unicode="j" horiz-adv-x="448" 
d="M375 1219q-42 0 -67 25.5t-25 64.5q0 49 41 89t98 40q42 0 68 -25t26 -63q0 -51 -42 -91t-99 -40zM-162 -471q-26 6 -49.5 43.5t-21.5 71.5q101 67 173.5 160.5t96.5 201.5l215 1010q38 17 83 17t77 -17l-205 -961q-41 -189 -146 -331t-223 -195z" />
    <glyph glyph-name="k" unicode="k" horiz-adv-x="1021" 
d="M1055 1016l-574 -451l418 -565h-182l-406 541l-114 -541h-160l289 1360q32 22 85.5 37.5t86.5 15.5l-168 -790l518 395q112 20 207 -2z" />
    <glyph glyph-name="l" unicode="l" horiz-adv-x="448" 
d="M37 0l289 1360q32 22 85.5 37.5t86.5 15.5l-301 -1413h-160z" />
    <glyph glyph-name="m" unicode="m" horiz-adv-x="1720" 
d="M1401 1032q312 0 225 -389l-145 -643h-160l145 637q33 146 3.5 212t-126.5 66q-73 0 -154 -57.5t-143 -147t-92 -184.5l-118 -526h-160l145 637q33 146 3.5 212t-126.5 66q-75 0 -158 -60.5t-146 -154t-89 -190.5l-108 -510h-160l215 1018q161 0 125 -168l-10 -49
q79 109 179 170t210 61q249 0 243 -248q80 117 183.5 182.5t218.5 65.5z" />
    <glyph glyph-name="n" unicode="n" horiz-adv-x="1075" 
d="M756 1032q312 0 225 -389l-145 -643h-160l145 637q33 146 3.5 212t-126.5 66q-75 0 -158 -60.5t-146 -154t-89 -190.5l-108 -510h-160l215 1018q43 0 72 -12t41.5 -27.5t16 -41.5t2 -43.5t-6.5 -43.5l-10 -49q79 109 179 170t210 61z" />
    <glyph glyph-name="o" unicode="o" horiz-adv-x="1091" 
d="M401 -20q-156 0 -242.5 93t-86.5 259q0 144 49 275t131.5 226t196.5 151t239 56q157 0 244.5 -94t87.5 -258q0 -192 -83 -355.5t-225.5 -258t-310.5 -94.5zM426 121q178 0 304 158.5t126 388.5q0 110 -49.5 170.5t-138.5 60.5q-119 0 -218.5 -72.5t-156.5 -199.5
t-57 -281q0 -108 49 -166.5t141 -58.5z" />
    <glyph glyph-name="p" unicode="p" horiz-adv-x="1103" 
d="M762 1038q138 0 207 -82.5t69 -232.5q0 -184 -80 -354.5t-227 -281t-323 -110.5q-126 0 -203 64l-82 -383q-39 -28 -89 -48t-87 -20l305 1430q43 0 86 -26.5t53 -65.5l-20 -94q76 91 181 147.5t210 56.5zM412 104q124 0 232.5 84t171.5 222.5t63 291.5q0 110 -43.5 159.5
t-128.5 49.5q-106 0 -218 -91t-167 -224l-95 -440q63 -52 185 -52z" />
    <glyph glyph-name="q" unicode="q" horiz-adv-x="1103" 
d="M918 961q31 26 74 41.5t77 15.5l-293 -1378q-32 -21 -84.5 -35.5t-85.5 -14.5l133 629q-78 -105 -183.5 -172t-213.5 -67q-138 0 -207 83t-69 232q0 138 48 272t129.5 239t200.5 169.5t252 64.5q143 0 222 -79zM809 545v-2l68 319q-62 51 -185 51q-124 0 -232.5 -83.5
t-171.5 -221.5t-63 -291q0 -110 43.5 -159t128.5 -49q60 0 126 34.5t122.5 92.5t101 139.5t62.5 169.5z" />
    <glyph glyph-name="r" unicode="r" horiz-adv-x="688" 
d="M737 1032q8 -13 8 -39t-12.5 -63.5t-27.5 -61.5q-49 11 -72 11q-36 0 -83.5 -27t-94 -72t-87 -112t-59.5 -140l-112 -528h-160l215 1018q43 0 72 -12t41.5 -27.5t16 -41.5t2 -43.5t-6.5 -43.5l-6 -31q74 109 167.5 161t180.5 52h18z" />
    <glyph glyph-name="s" unicode="s" horiz-adv-x="806" 
d="M27 186q78 -41 138.5 -58t129.5 -17q84 0 146.5 46.5t62.5 114.5q0 61 -33 102.5t-131 102.5q-100 64 -141 118t-41 138q0 137 103.5 223t295.5 86q79 0 146 -21t106 -46q-15 -76 -70 -131q-85 65 -221 65q-95 0 -149 -40.5t-54 -106.5q0 -49 30.5 -88t113.5 -90
q124 -76 169.5 -138.5t45.5 -144.5q0 -142 -112 -233t-298 -91q-146 0 -262 62q-6 18 -6 41q0 67 31 106z" />
    <glyph glyph-name="t" unicode="t" horiz-adv-x="739" 
d="M432 1020h322q-7 -33 -26.5 -71t-47.5 -60h-277l-124 -592q-22 -101 5 -139.5t117 -38.5q58 0 131 18q29 -36 11 -131q-63 -29 -205 -29q-150 0 -205 64t-22 215l133 633h-133q19 82 131.5 185t226.5 122z" />
    <glyph glyph-name="u" unicode="u" horiz-adv-x="1075" 
d="M879 1010q80 22 163 22l-219 -1032q-37 0 -64 8t-40 23.5t-20.5 30.5t-7 38t2.5 36.5t6 33.5l11 51q-78 -108 -178 -172.5t-211 -64.5q-152 0 -212.5 92t-19.5 272l150 662q80 22 163 22l-147 -647q-35 -148 -7 -215.5t130 -67.5q59 0 123.5 39.5t117 100t93 131
t57.5 133.5z" />
    <glyph glyph-name="v" unicode="v" horiz-adv-x="854" 
d="M786 1018q91 25 172 0l-630 -1016q-46 -14 -97 -14q-43 0 -81 14l-37 1018q91 21 170 0l2 -834z" />
    <glyph glyph-name="w" unicode="w" horiz-adv-x="1349" 
d="M1294 1020q90 21 160 0l-551 -1018q-38 -14 -78 -14q-45 0 -77 14l-37 795l-449 -795q-32 -14 -78 -14q-45 0 -80 14l9 1018q82 21 161 0l-26 -797l444 797q76 21 146 0l41 -809z" />
    <glyph glyph-name="x" unicode="x" horiz-adv-x="1011" 
d="M-70 0h189l364 399l193 -399h184l-262 512l471 508q-88 25 -188 0l-353 -395l-184 395q-86 25 -184 0l256 -510z" />
    <glyph glyph-name="y" unicode="y" horiz-adv-x="931" 
d="M856 1020q93 21 180 0l-563 -922q-208 -337 -498 -508q-40 9 -69 52.5t-25 87.5q261 133 418 342l-186 948q86 20 170 0l131 -748z" />
    <glyph glyph-name="z" unicode="z" horiz-adv-x="940" 
d="M852 1020q33 -19 50.5 -61.5t8.5 -86.5l-714 -727h575v-22q0 -54 -33 -123h-676q-34 19 -51.5 61.5t-5.5 85.5l721 727h-541q-4 24 -4 35q0 58 37 111h633z" />
    <glyph glyph-name="braceleft" unicode="{" horiz-adv-x="571" 
d="M694 1546q53 0 84 -8q-19 -86 -63 -125q-96 0 -154.5 -59t-58.5 -172q0 -36 5 -109t5 -127q0 -106 -56.5 -184.5t-150.5 -93.5q53 -15 82 -58.5t31 -103.5q0 -51 -41 -146.5t-82 -189t-41 -139.5q0 -111 137 -111q35 -35 19 -125q-33 -8 -88 -8q-110 0 -173 52.5
t-63 146.5q0 57 27 138.5t59 149.5t59 137.5t27 104.5q0 38 -32 61t-70 23h-101l6 29q15 67 39 88.5t84 21.5q162 0 162 183q0 52 -6 137t-6 121q0 165 99 265.5t261 100.5z" />
    <glyph glyph-name="bar" unicode="|" horiz-adv-x="473" 
d="M6 -193l369 1735q85 24 164 0l-369 -1735q-87 -21 -164 0z" />
    <glyph glyph-name="braceright" unicode="}" horiz-adv-x="571" 
d="M483 735h101l-6 -28q-15 -68 -39 -89.5t-84 -21.5q-162 0 -162 -184q0 -50 6 -134.5t6 -121.5q0 -166 -98.5 -267.5t-261.5 -101.5q-57 0 -84 8q15 85 61 125q97 0 156 59.5t59 172.5q0 36 -5 109.5t-5 127.5q0 105 58 184.5t151 92.5q-54 17 -83.5 60t-31.5 103
q0 51 41 146.5t82 189t41 138.5q0 110 -137 110q-35 35 -19 125q33 8 88 8q111 0 173.5 -52.5t62.5 -145.5q0 -72 -43 -182t-86 -208.5t-43 -140.5q0 -38 32 -60t70 -22z" />
    <glyph glyph-name="exclamdown" unicode="&#xa1;" horiz-adv-x="606" 
d="M418 1044q47 0 75.5 -28.5t28.5 -71.5q0 -60 -48 -108t-109 -48q-47 0 -77 29t-30 72q0 60 49 107.5t111 47.5zM272 625h115q-75 -510 -197 -1047q-91 -23 -165 0q122 608 247 1047z" />
    <glyph glyph-name="cent" unicode="&#xa2;" 
d="M895 1204q94 -10 166 -43q-24 -83 -82 -137q-52 34 -127 41q-146 -472 -244 -774q110 2 277 84l2 -133q-72 -43 -160 -69.5t-164 -27.5q-16 -48 -35.5 -107.5t-30.5 -92.5t-16 -47q-69 -11 -133 26q21 70 74 238q-107 31 -165 116.5t-58 217.5q0 184 71 337.5
t196.5 249.5t283.5 117l81 252q74 8 134 -27q-22 -76 -70 -221zM365 532q0 -159 106 -215q195 628 229 734q-152 -43 -243.5 -184t-91.5 -335z" />
    <glyph glyph-name="sterling" unicode="&#xa3;" 
d="M764 1227q-109 0 -186 -57t-101 -166q-7 -32 -7.5 -64t5 -64t12 -58.5t15.5 -61.5t14 -58h397q-38 -133 -131 -133h-254l-6 -33q-47 -218 -231 -391h680q-22 -95 -62 -141h-813q-15 19 -26.5 61t-6.5 62l66 45q92 64 159 164.5t93 218.5q2 4 2 14h-231q28 65 61 99t92 34
h70q-7 23 -20 59t-21.5 59t-17.5 61t-8 65t7 70q36 167 160 263.5t285 96.5q120 0 204 -22.5t158 -79.5q6 -101 -49 -162q-83 71 -153.5 95t-155.5 24z" />
    <glyph glyph-name="currency" unicode="&#xa4;" 
d="M1065 801q0 -129 -50 -243t-138 -198q91 -61 155 -161q-56 -66 -141 -105l-117 189q-129 -74 -276 -74q-138 0 -232 63l-207 -190q-65 42 -100 117q127 110 223 161q-51 82 -51 197q0 134 53.5 252t147.5 201q-100 67 -158 161q60 68 141 105l121 -195q123 68 260 68
q139 0 234 -64l207 191q70 -40 100 -117q-115 -106 -225 -160q53 -83 53 -198zM297 578q0 -109 59.5 -167.5t169.5 -58.5q161 2 267 123t106 305q0 108 -59.5 167t-171.5 59q-160 0 -265.5 -122t-105.5 -306z" />
    <glyph glyph-name="yen" unicode="&#xa5;" 
d="M1229 1337l-484 -665h232q-13 -57 -46.5 -95t-84.5 -38h-191l-32 -158h292q-13 -58 -47 -95.5t-84 -37.5h-190l-53 -248h-164l53 248h-299q36 133 133 133h195l33 158h-299q37 133 133 133h129l-203 665q94 22 182 0l170 -651l443 651q96 21 182 0z" />
    <glyph glyph-name="brokenbar" unicode="&#xa6;" horiz-adv-x="473" 
d="M213 778l162 764q85 24 164 0l-162 -764h-164zM6 -190l162 763h164l-162 -763q-87 -24 -164 0z" />
    <glyph glyph-name="section" unicode="&#xa7;" 
d="M754 1313q-124 0 -197.5 -50t-73.5 -128q0 -68 52.5 -125.5t169.5 -124.5q139 -79 191 -139.5t52 -147.5q0 -84 -44 -149.5t-120 -98.5q84 -78 84 -172q0 -172 -136 -283.5t-343 -111.5q-181 0 -336 76q-6 78 51 151q183 -86 314 -86q128 0 205 57.5t77 151.5
q0 62 -41.5 108t-164.5 119q-141 83 -197.5 145.5t-56.5 153.5q0 83 47 147t137 89q-109 95 -109 215q0 151 127.5 245.5t358.5 94.5q125 0 256 -55q10 -24 -5 -69.5t-40 -78.5q-132 66 -258 66zM791 547q0 66 -43 114t-160 117q-32 19 -84 56q-48 -14 -79.5 -52t-31.5 -88
q0 -63 54 -115.5t178 -119.5q11 -6 75 -45q41 19 66 55.5t25 77.5z" />
    <glyph glyph-name="dieresis" unicode="&#xa8;" horiz-adv-x="559" 
d="M268 1229q-40 0 -67 25t-27 63q0 54 43.5 95.5t99.5 41.5q41 0 69 -26t28 -64q0 -53 -44.5 -94t-101.5 -41zM594 1229q-40 0 -67 25t-27 63q0 54 43.5 95.5t99.5 41.5q45 0 71 -28t23 -70q-3 -51 -46 -89t-97 -38z" />
    <glyph glyph-name="copyright" unicode="&#xa9;" horiz-adv-x="1474" 
d="M627 -20q-234 0 -381.5 150t-147.5 384q0 230 109.5 422.5t298 304t412.5 111.5q232 0 379 -150t147 -383q0 -171 -64.5 -326.5t-173.5 -268t-260.5 -178.5t-318.5 -66zM653 104q126 0 247.5 56.5t212.5 149.5t146.5 220.5t55.5 262.5q0 191 -118.5 312.5t-305.5 121.5
q-127 0 -248.5 -56t-212.5 -149t-147 -220.5t-56 -262.5q0 -191 118 -313t308 -122zM688 272q-133 0 -207.5 71t-74.5 202q0 147 65.5 267.5t179.5 188.5t254 68q82 0 185 -27q-25 -76 -72 -116q-68 20 -123 20q-148 0 -243 -104t-95 -264q0 -84 48.5 -131.5t150.5 -47.5
q74 0 180 39v-116q-126 -50 -248 -50z" />
    <glyph glyph-name="ordfeminine" unicode="&#xaa;" horiz-adv-x="679" 
d="M563 1386q141 0 203 -55l-123 -573q-56 0 -82 27.5t-16 76.5l2 8q-99 -125 -236 -125q-75 0 -117 49.5t-42 141.5q2 181 123 315.5t288 134.5zM590 1077v-2l43 197q-38 20 -92 20q-109 0 -189 -102t-80 -238q0 -112 78 -112q70 0 142.5 71.5t97.5 165.5z" />
    <glyph glyph-name="guillemotleft" unicode="&#xab;" horiz-adv-x="960" 
d="M592 983l-352 -451l192 -436q-86 -21 -162 0l-147 340q-25 59 -25 80q0 23 12 48t21.5 37.5t36.5 45.5l266 334q80 26 158 2zM971 983l-353 -451l193 -436q-85 -21 -162 0l-147 340q-25 59 -25 80q0 23 12 48t21.5 37.5t36.5 45.5l266 334q80 26 158 2z" />
    <glyph glyph-name="registered" unicode="&#xae;" horiz-adv-x="1320" 
d="M840 1434q219 0 349 -114t130 -314q0 -146 -58 -280.5t-155 -232.5t-231.5 -156t-280.5 -58q-200 0 -320 115t-120 315q0 197 92 364t250 264t344 97zM618 393q160 0 292.5 78.5t208 214.5t75.5 301q0 153 -96 243.5t-281 90.5q-230 0 -385.5 -170.5t-155.5 -423.5
q0 -153 87 -243.5t255 -90.5zM993 1032q0 -66 -45 -128t-114 -93l100 -252h-115l-86 229h-100l-49 -229h-107l129 615q118 20 180 20q103 0 155 -47t52 -115zM719 877q77 0 126.5 40.5t49.5 104.5q0 38 -31.5 62t-97.5 24q-41 0 -68 -6l-47 -225h68z" />
    <glyph glyph-name="macron" unicode="&#xaf;" horiz-adv-x="503" 
d="M188 1391h502l-28 -134h-502z" />
    <glyph glyph-name="degree" unicode="&#xb0;" horiz-adv-x="849" 
d="M600 1366q-166 0 -286.5 -128t-120.5 -306q0 -121 71 -191.5t189 -70.5q172 0 296.5 129t124.5 307q0 121 -74.5 190.5t-199.5 69.5zM479 799q-76 0 -115.5 44.5t-39.5 117.5q0 118 72.5 200t176.5 82q85 0 127.5 -44t42.5 -118q0 -118 -77 -200t-187 -82z" />
    <glyph glyph-name="plusminus" unicode="&#xb1;" 
d="M700 850h420q-18 -82 -45 -110.5t-94 -28.5h-309l-80 -371q-81 0 -105.5 21.5t-9.5 89.5l55 260h-411q18 86 46.5 112.5t94.5 26.5h299l78 369q82 0 107 -21.5t10 -89.5zM-16 66q17 82 46 110.5t95 28.5h858q-18 -82 -44.5 -110.5t-94.5 -28.5h-860z" />
    <glyph glyph-name="acute" unicode="&#xb4;" horiz-adv-x="356" 
d="M133 1130l-82 56l244 342l29 -15q57 -28 57 -67q0 -38 -82 -123z" />
    <glyph glyph-name="paragraph" unicode="&#xb6;" horiz-adv-x="1130" 
d="M772 1358q124 0 199.5 -11t173.5 -42l-217 -1026q-45 -212 -155.5 -312t-266.5 -100q-83 0 -153.5 15.5t-108.5 37.5q3 80 47 133q95 -55 239 -55q95 0 164 61.5t94 182.5l207 975q-45 18 -88 18q-40 0 -67 -8l-168 -783h-72q-111 0 -200.5 29.5t-146 79t-86.5 111.5
t-30 131q0 123 50.5 229t137 179t202.5 114t245 41z" />
    <glyph glyph-name="periodcentered" unicode="&#xb7;" horiz-adv-x="442" 
d="M213 469q-47 0 -75.5 28.5t-28.5 73.5q0 60 48 108t109 48q47 0 77 -28.5t30 -71.5q0 -61 -49 -109.5t-111 -48.5z" />
    <glyph glyph-name="cedilla" unicode="&#xb8;" horiz-adv-x="389" 
d="M76 -129q67 0 107 -31.5t40 -91.5q0 -56 -28.5 -101.5t-73 -72t-94 -40t-97.5 -13.5q-69 0 -137 14q16 65 33 92q68 -20 135 -20q68 0 114 34t46 83q0 63 -109 63q-38 0 -82 -12q-36 22 -28 55l127 170h102l-94 -133q24 4 39 4z" />
    <glyph glyph-name="ordmasculine" unicode="&#xba;" horiz-adv-x="706" 
d="M387 745q-98 0 -152.5 57t-54.5 159q0 177 109.5 300t265.5 123q98 0 152.5 -58t54.5 -159q0 -175 -110 -298.5t-265 -123.5zM408 852q97 0 164 86.5t67 212.5q0 62 -26.5 94.5t-75.5 32.5q-99 0 -166.5 -87t-67.5 -216q0 -60 27 -91.5t78 -31.5z" />
    <glyph glyph-name="guillemotright" unicode="&#xbb;" horiz-adv-x="960" 
d="M498 561q0 -12 -3.5 -24.5t-6.5 -20.5t-12.5 -22.5t-13 -19.5t-17.5 -22.5t-17 -21.5l-268 -334q-88 -25 -158 0l352 447l-192 438q87 24 162 0l147 -338q27 -64 27 -82zM850 643q27 -64 27 -82q0 -12 -3.5 -24.5t-6.5 -20.5t-12.5 -22.5t-13 -19.5t-17.5 -22.5
t-17 -21.5l-268 -334q-88 -25 -158 0l352 447l-192 438q86 23 161 0z" />
    <glyph glyph-name="onequarter" unicode="&#xbc;" horiz-adv-x="1894" 
d="M1624 1444q41 0 66 -25l-1205 -1476q-28 -35 -71 -35q-55 0 -86 24l1204 1473q31 39 92 39zM125 467q-6 60 25 121h217l125 571q-187 -63 -222 -63q-25 35 -28 98q149 77 368 158q12 -3 32.5 -20.5t23.5 -26.5l-154 -717h193q6 -61 -25 -121h-555zM1794 842l-111 -518
h107q0 -58 -29 -121h-104l-43 -203h-146l43 203h-383q-21 10 -35.5 37.5t-19.5 62.5q118 133 316.5 314t310.5 268q27 0 53.5 -13.5t40.5 -29.5zM1620 659q-261 -222 -377 -335h305z" />
    <glyph glyph-name="onehalf" unicode="&#xbd;" horiz-adv-x="1951" 
d="M1624 1444q41 0 66 -25l-1205 -1476q-28 -35 -71 -35q-55 0 -86 24l1204 1473q31 39 92 39zM125 467q-6 60 25 121h217l125 571q-187 -63 -222 -63q-25 35 -28 98q149 77 368 158q12 -3 32.5 -20.5t23.5 -26.5l-154 -717h193q6 -61 -25 -121h-555zM1874 668
q0 -61 -28.5 -123t-77 -117t-117.5 -109.5t-145.5 -101.5t-166.5 -92h441q-17 -88 -43 -125h-555q-11 19 -18 62t-3 63l49 31q61 37 99.5 61t98.5 64.5t99 71t84.5 71.5t72 75.5t44.5 74t18 75.5q0 54 -39.5 81.5t-113.5 27.5q-116 0 -281 -99q-17 65 19 140q134 86 293 86
q126 0 198 -56t72 -161z" />
    <glyph glyph-name="threequarters" unicode="&#xbe;" horiz-adv-x="1908" 
d="M1636 1444q41 0 66 -25l-1204 -1476q-28 -35 -72 -35q-55 0 -86 24l1204 1473q31 39 92 39zM748 758q0 -128 -114 -215.5t-274 -87.5q-173 0 -258 65q0 91 37 146q38 -36 104.5 -61t131.5 -25q94 0 158.5 43t64.5 110q0 121 -199 121h-104q0 35 17 70t38 51h53
q122 0 191.5 40.5t69.5 117.5q0 45 -37.5 68.5t-106.5 23.5q-127 0 -268 -90q-7 58 18 133q141 84 299 84q109 0 173.5 -52.5t64.5 -142.5q0 -74 -49.5 -139.5t-132.5 -97.5q57 -21 90 -63t33 -99zM1806 842l-110 -518h106q0 -60 -28 -121h-105l-43 -203h-145l43 203h-383
q-21 10 -36 37.5t-20 62.5q118 133 316.5 314t310.5 268q27 0 53.5 -13.5t40.5 -29.5zM1632 659q-261 -222 -377 -335h306z" />
    <glyph glyph-name="questiondown" unicode="&#xbf;" horiz-adv-x="794" 
d="M623 1044q45 0 74.5 -28.5t29.5 -71.5q0 -60 -48.5 -108t-111.5 -48q-47 0 -75.5 29t-28.5 72q0 60 48.5 107.5t111.5 47.5zM315 -303q137 0 357 96q4 -95 -31 -160q-189 -84 -385 -84q-157 0 -247.5 77t-90.5 212q0 166 129 287t369 211l51 256q76 30 151 18l-53 -256
q-13 -64 -36 -95t-83 -52q-160 -52 -259.5 -137.5t-98.5 -186.5q0 -186 227 -186z" />
    <glyph glyph-name="Agrave" unicode="&#xc0;" horiz-adv-x="1216" 
d="M766 1456l-166 234q-31 44 -31 71q0 20 17.5 41t54.5 35l33 12l182 -350zM915 0l-49 332h-587l-187 -332h-180l778 1343q103 18 187 0l217 -1343h-179zM356 469h490l-101 690z" />
    <glyph glyph-name="Aacute" unicode="&#xc1;" horiz-adv-x="1216" 
d="M997 1647l-166 -193l-81 55l243 342l29 -14q57 -28 57 -68q0 -37 -82 -122zM915 0l-49 332h-587l-187 -332h-180l778 1343q103 18 187 0l217 -1343h-179zM356 469h492l-103 690z" />
    <glyph glyph-name="Acircumflex" unicode="&#xc2;" horiz-adv-x="1216" 
d="M674 1475q-36 0 -68 16.5t-45 36.5l248 233q74 19 129 0l147 -233q-53 -53 -118 -53l-107 188zM915 0l-49 332h-587l-187 -332h-180l778 1343q103 18 187 0l217 -1343h-179zM356 469h492l-103 690z" />
    <glyph glyph-name="Atilde" unicode="&#xc3;" horiz-adv-x="1216" 
d="M649 1550q-58 0 -104 17q19 102 73 155.5t123 53.5q41 0 76 -15.5t56.5 -34t52.5 -34t63 -15.5q31 0 53 33t27 74q58 3 107 -17q-21 -100 -72 -153t-113 -53q-43 0 -81.5 15.5t-61.5 34.5t-53 34.5t-58 15.5q-35 0 -58.5 -32.5t-29.5 -78.5zM915 0l-49 332h-587
l-187 -332h-180l778 1343q103 18 187 0l217 -1343h-179zM356 469h490l-101 690z" />
    <glyph glyph-name="Adieresis" unicode="&#xc4;" horiz-adv-x="1216" 
d="M664 1538q-40 0 -67.5 25t-27.5 63q0 54 44 95.5t100 41.5q41 0 68.5 -26t27.5 -64q0 -53 -44 -94t-101 -41zM989 1538q-40 0 -67 25t-27 63q0 54 43.5 95.5t99.5 41.5q45 0 71.5 -28t23.5 -70q-3 -51 -46.5 -89t-97.5 -38zM915 0l-49 332h-587l-187 -332h-180l778 1343
q103 18 187 0l217 -1343h-179zM356 469h490l-101 690z" />
    <glyph glyph-name="Aring" unicode="&#xc5;" horiz-adv-x="1216" 
d="M809 1491q-87 0 -136.5 44.5t-49.5 121.5q0 114 78.5 191t195.5 77q87 0 135.5 -44.5t48.5 -121.5q0 -115 -78 -191.5t-194 -76.5zM827 1579q55 0 93 50.5t38 117.5q0 88 -79 88q-57 0 -95.5 -47.5t-38.5 -116.5q0 -43 21 -67.5t61 -24.5zM915 0l-49 332h-587l-187 -332
h-180l778 1343q103 18 187 0l217 -1343h-179zM356 469h490l-101 690z" />
    <glyph glyph-name="AE" unicode="&#xc6;" horiz-adv-x="1779" 
d="M1673 1200h-622l-31 -457h530q-16 -81 -57 -137h-483l-33 -469h604l-29 -137h-751l22 322h-514l-223 -322h-174l936 1337h854zM406 459h428l47 686z" />
    <glyph glyph-name="Ccedilla" unicode="&#xc7;" horiz-adv-x="1280" 
d="M891 1358q162 0 277 -55.5t175 -157.5q-16 -40 -55.5 -69.5t-81.5 -41.5q-35 87 -124.5 135t-219.5 48q-120 0 -230.5 -56t-192 -151t-130.5 -229.5t-49 -284.5q0 -179 97 -277t272 -98q238 0 448 174l62 -111q-201 -189 -502 -204l-84 -115q21 6 45 6q67 0 107 -31.5
t40 -91.5q0 -56 -28 -101.5t-72.5 -72t-93.5 -40t-96 -13.5q-72 0 -140 14q0 48 23 92q85 -20 147 -20q66 0 112 34t46 83q0 63 -108 63q-35 0 -82 -12q-34 21 -29 55l113 152q-208 17 -326.5 145t-118.5 346q0 243 106.5 446.5t290 321t402.5 117.5z" />
    <glyph glyph-name="Egrave" unicode="&#xc8;" horiz-adv-x="1075" 
d="M745 1458l-165 234q-31 44 -31 71q0 20 17.5 41t54.5 35l32 12l183 -350zM1104 1198h-639l-96 -455h536q0 -23 -17.5 -65.5t-41.5 -73.5h-508l-98 -465h639l-29 -139h-803l283 1337h803z" />
    <glyph glyph-name="Eacute" unicode="&#xc9;" horiz-adv-x="1075" 
d="M977 1649l-166 -193l-82 55l244 342l28 -14q58 -28 58 -67q0 -38 -82 -123zM1104 1198h-639l-96 -455h536q0 -23 -17.5 -65.5t-41.5 -73.5h-508l-98 -465h639l-29 -139h-803l283 1337h803z" />
    <glyph glyph-name="Ecircumflex" unicode="&#xca;" horiz-adv-x="1075" 
d="M653 1477q-36 0 -67.5 16t-44.5 37l247 233q74 19 130 0l147 -233q-21 -21 -53.5 -37t-65.5 -16l-106 188zM1104 1198h-639l-96 -455h536q0 -23 -17.5 -65.5t-41.5 -73.5h-508l-98 -465h639l-29 -139h-803l283 1337h803z" />
    <glyph glyph-name="Edieresis" unicode="&#xcb;" horiz-adv-x="1075" 
d="M643 1540q-40 0 -67 25t-27 63q0 54 43.5 95.5t99.5 41.5q41 0 68.5 -26t27.5 -64q0 -53 -44 -94t-101 -41zM969 1540q-40 0 -67.5 25t-27.5 63q0 54 44 95.5t100 41.5q45 0 71 -28t23 -70q-3 -51 -46 -89t-97 -38zM1104 1198h-639l-96 -455h536q0 -23 -17.5 -65.5
t-41.5 -73.5h-508l-98 -465h639l-29 -139h-803l283 1337h803z" />
    <glyph glyph-name="Igrave" unicode="&#xcc;" horiz-adv-x="473" 
d="M393 1456l-166 234q-30 43 -30 71q0 20 17 41t54 35l33 12l182 -350zM211 0h-164l283 1337q87 21 164 0z" />
    <glyph glyph-name="Iacute" unicode="&#xcd;" horiz-adv-x="473" 
d="M459 1454l-82 55l244 342l28 -14q29 -14 43.5 -32.5t14.5 -35.5q0 -37 -82 -122zM211 0h-164l283 1337q87 21 164 0z" />
    <glyph glyph-name="Icircumflex" unicode="&#xce;" horiz-adv-x="473" 
d="M565 1761l148 -233q-21 -21 -53.5 -37t-65.5 -16l-107 188l-186 -188q-36 0 -68 16.5t-45 36.5l248 233q74 19 129 0zM330 1337q87 21 164 0l-283 -1337h-164z" />
    <glyph glyph-name="Idieresis" unicode="&#xcf;" horiz-adv-x="473" 
d="M291 1538q-40 0 -67 25t-27 63q0 54 43.5 95.5t99.5 41.5q41 0 68.5 -26t27.5 -64q0 -53 -44 -94t-101 -41zM616 1538q-40 0 -67 25t-27 63q0 54 44 95.5t100 41.5q45 0 71 -28t23 -70q-3 -51 -46.5 -89t-97.5 -38zM211 0h-164l283 1337q87 21 164 0z" />
    <glyph glyph-name="Eth" unicode="&#xd0;" horiz-adv-x="1323" 
d="M705 1358q288 0 441.5 -132t153.5 -364q0 -241 -116.5 -438t-322.5 -310t-460 -114h-356l127 598h-135q20 66 55.5 99.5t97.5 33.5h11l125 586q219 41 379 41zM432 139q198 0 358 87.5t252.5 248.5t92.5 365q0 181 -115 276.5t-332 95.5q-134 0 -225 -18l-98 -463h430
q-11 -60 -45.5 -96.5t-85.5 -36.5h-328l-98 -459h194z" />
    <glyph glyph-name="Ntilde" unicode="&#xd1;" horiz-adv-x="1402" 
d="M834 1663q-35 0 -59 -32.5t-30 -78.5q-58 0 -104 17q19 102 73.5 155.5t123.5 53.5q41 0 76 -15.5t56 -34t52 -34t63 -15.5q31 0 53 33t27 74q58 3 107 -17q-21 -100 -72 -153t-113 -53q-43 0 -81.5 15.5t-61.5 34.5t-52.5 34.5t-57.5 15.5zM1260 1337h163l-282 -1337
q-87 -21 -164 0l-543 1094l-39 -222l-184 -872h-164l283 1337q87 21 164 0l540 -1108l29 174z" />
    <glyph glyph-name="Ograve" unicode="&#xd2;" horiz-adv-x="1419" 
d="M868 1458l-166 234q-30 43 -30 71q0 20 17 41t54 35l33 12l182 -350zM598 -20q-240 0 -373 132t-133 365q0 241 106.5 443.5t290.5 320t402 117.5q240 0 373 -131t133 -361q0 -181 -63 -345.5t-169.5 -282.5t-254.5 -188t-312 -70zM629 121q167 0 305 99.5t215.5 267
t77.5 364.5q0 175 -94 270t-273 95q-125 0 -236.5 -58.5t-190.5 -156.5t-125 -230.5t-46 -277.5q0 -181 94 -277t273 -96z" />
    <glyph glyph-name="Oacute" unicode="&#xd3;" horiz-adv-x="1419" 
d="M934 1456l-82 55l244 342l28 -14q58 -28 58 -67q0 -38 -82 -123zM598 -20q-240 0 -373 132t-133 365q0 241 106.5 443.5t290.5 320t402 117.5q240 0 373 -131t133 -361q0 -181 -63 -345.5t-169.5 -282.5t-254.5 -188t-312 -70zM629 121q167 0 305 99.5t215.5 267
t77.5 364.5q0 175 -94 270t-273 95q-125 0 -236.5 -58.5t-190.5 -156.5t-125 -230.5t-46 -277.5q0 -181 94 -277t273 -96z" />
    <glyph glyph-name="Ocircumflex" unicode="&#xd4;" horiz-adv-x="1419" 
d="M776 1477q-36 0 -67.5 16t-44.5 37l247 233q74 19 129 0l148 -233q-21 -21 -53.5 -37t-65.5 -16l-106 188zM891 1358q240 0 373 -131t133 -361q0 -181 -63 -345.5t-169.5 -282.5t-254.5 -188t-312 -70q-240 0 -373 132t-133 365q0 241 106.5 443.5t290.5 320t402 117.5z
M629 121q167 0 305 99.5t215.5 267t77.5 364.5q0 175 -94 270t-273 95q-125 0 -236.5 -58.5t-190.5 -156.5t-125 -230.5t-46 -277.5q0 -181 94 -277t273 -96z" />
    <glyph glyph-name="Otilde" unicode="&#xd5;" horiz-adv-x="1419" 
d="M752 1552q-59 0 -105 17q19 102 73.5 155.5t123.5 53.5q41 0 76 -15.5t56.5 -34t52.5 -34t63 -15.5q31 0 52.5 33t26.5 74q58 3 107 -17q-21 -100 -71.5 -153t-112.5 -53q-43 0 -81.5 15.5t-61.5 34.5t-53 34.5t-58 15.5q-35 0 -58.5 -32.5t-29.5 -78.5zM598 -20
q-240 0 -373 132t-133 365q0 241 106.5 443.5t290.5 320t402 117.5q240 0 373 -131t133 -361q0 -181 -63 -345.5t-169.5 -282.5t-254.5 -188t-312 -70zM629 121q167 0 305 99.5t215.5 267t77.5 364.5q0 175 -94 270t-273 95q-125 0 -236.5 -58.5t-190.5 -156.5t-125 -230.5
t-46 -277.5q0 -181 94 -277t273 -96z" />
    <glyph glyph-name="Odieresis" unicode="&#xd6;" horiz-adv-x="1419" 
d="M766 1540q-40 0 -67 25t-27 63q0 54 43.5 95.5t99.5 41.5q41 0 68.5 -26t27.5 -64q0 -53 -44 -94t-101 -41zM1092 1540q-40 0 -67.5 25t-27.5 63q0 54 44 95.5t100 41.5q45 0 71 -28t23 -70q-3 -51 -46 -89t-97 -38zM598 -20q-240 0 -373 132t-133 365q0 241 106.5 443.5
t290.5 320t402 117.5q240 0 373 -131t133 -361q0 -181 -63 -345.5t-169.5 -282.5t-254.5 -188t-312 -70zM629 121q167 0 305 99.5t215.5 267t77.5 364.5q0 175 -94 270t-273 95q-125 0 -236.5 -58.5t-190.5 -156.5t-125 -230.5t-46 -277.5q0 -181 94 -277t273 -96z" />
    <glyph glyph-name="multiply" unicode="&#xd7;" 
d="M999 1026q45 -55 45 -88q0 -37 -63 -88l-291 -225l230 -320q-75 -63 -115 -63q-32 0 -66 43l-174 243l-383 -297q-45 57 -45 91q0 35 62 86l290 225l-229 319q76 64 115 64q33 0 65 -43l174 -244z" />
    <glyph glyph-name="Oslash" unicode="&#xd8;" horiz-adv-x="1421" 
d="M1290 1198q107 -125 107 -332q0 -181 -63 -345.5t-169.5 -282.5t-254.5 -188t-312 -70q-192 0 -313 83l-76 -83q-34 0 -63 19.5t-44 45.5l91 102q-101 129 -101 330q0 241 106.5 443.5t290.5 320t402 117.5q180 0 309 -80l70 80q69 -5 104 -66zM262 494q0 -129 47 -215
l783 878q-91 60 -232 60q-125 0 -236.5 -58.5t-190.5 -156.5t-125 -230.5t-46 -277.5zM629 121q167 0 305 99.5t215.5 267t77.5 364.5q0 127 -51 215l-785 -881q92 -65 238 -65z" />
    <glyph glyph-name="Ugrave" unicode="&#xd9;" horiz-adv-x="1265" 
d="M793 1456l-166 234q-31 44 -31 71q0 20 17.5 41t54.5 35l32 12l183 -350zM522 -20q-238 0 -344 142t-47 419l168 796q87 21 162 0l-172 -817q-39 -177 30 -283t232 -106q158 0 276.5 103t157.5 286l172 817q85 21 162 0l-168 -796q-57 -267 -221.5 -414t-407.5 -147z" />
    <glyph glyph-name="Uacute" unicode="&#xda;" horiz-adv-x="1265" 
d="M858 1454l-82 55l244 342l29 -14q57 -28 57 -68q0 -37 -82 -122zM522 -20q-238 0 -344 142t-47 419l168 796q87 21 162 0l-172 -817q-39 -177 30 -283t232 -106q158 0 276.5 103t157.5 286l172 817q85 21 162 0l-168 -796q-57 -267 -221.5 -414t-407.5 -147z" />
    <glyph glyph-name="Ucircumflex" unicode="&#xdb;" horiz-adv-x="1265" 
d="M700 1475q-36 0 -67.5 16t-44.5 37l248 233q74 19 129 0l147 -233q-21 -21 -53.5 -37t-65.5 -16l-106 188zM1157 1337q85 21 162 0l-168 -796q-57 -267 -221.5 -414t-407.5 -147q-238 0 -344 142t-47 419l168 796q87 21 162 0l-172 -817q-39 -177 30 -283t232 -106
q158 0 276.5 103t157.5 286z" />
    <glyph glyph-name="Udieresis" unicode="&#xdc;" horiz-adv-x="1265" 
d="M688 1538q-40 0 -67 25t-27 63q0 54 43.5 95.5t99.5 41.5q41 0 69 -26t28 -64q0 -53 -44.5 -94t-101.5 -41zM1014 1538q-40 0 -67 25t-27 63q0 54 43.5 95.5t99.5 41.5q45 0 71 -28t23 -70q-3 -51 -46 -89t-97 -38zM522 -20q-238 0 -344 142t-47 419l168 796q87 21 162 0
l-172 -817q-39 -177 30 -283t232 -106q158 0 276.5 103t157.5 286l172 817q85 21 162 0l-168 -796q-57 -267 -221.5 -414t-407.5 -147z" />
    <glyph glyph-name="Yacute" unicode="&#xdd;" horiz-adv-x="1052" 
d="M936 1649l-166 -193l-82 55l244 342l29 -14q57 -28 57 -67q0 -38 -82 -123zM1219 1337l-621 -839l-104 -498h-164l112 535l-256 802q97 21 181 0l192 -653l477 653q98 22 183 0z" />
    <glyph glyph-name="Thorn" unicode="&#xde;" horiz-adv-x="1073" 
d="M647 1126q187 0 296.5 -99t109.5 -255q0 -115 -49 -217.5t-130.5 -175t-191 -114.5t-227.5 -42h-197l-47 -223h-164l283 1337q88 21 164 0l-45 -211h198zM432 362q201 0 328 109t127 281q0 108 -80 171.5t-242 63.5h-145l-133 -625h145z" />
    <glyph glyph-name="germandbls" unicode="&#xdf;" horiz-adv-x="1265" 
d="M-113 -410q-73 0 -141 15q21 91 66 131q78 -10 112 -10q139 0 180 204l211 1031q52 251 198.5 372t360.5 121q159 0 251 -72.5t92 -181.5q0 -48 -14 -93t-36 -79.5t-48.5 -66.5t-53 -60.5t-48.5 -55t-36 -56t-14 -58.5q0 -32 22 -67.5t53.5 -69.5t62.5 -71.5t53 -87
t22 -101.5q0 -153 -128 -256t-337 -103q-117 0 -185 27q6 30 28 73.5t48 61.5q92 -24 146 -24q117 0 185.5 57.5t68.5 142.5q0 37 -22.5 76.5t-53.5 75t-61.5 73t-49 84.5t-12.5 95q4 44 30.5 91.5t61 88.5t68.5 82t57 88t23 92q0 75 -52.5 116.5t-150.5 41.5
q-141 0 -235.5 -88.5t-129.5 -255.5l-215 -1043q-34 -171 -126 -255.5t-251 -84.5z" />
    <glyph glyph-name="agrave" unicode="&#xe0;" horiz-adv-x="1056" 
d="M653 1133l-166 233q-30 43 -30 72q0 20 17 40.5t54 34.5l33 13l182 -350zM709 1042q111 0 196 -23.5t123 -60.5l-205 -958q-73 0 -108.5 36t-20.5 109l17 74q-79 -110 -186.5 -174.5t-231.5 -64.5t-191 82.5t-65 228.5q1 149 55 287t143 240t213.5 163t260.5 61zM772 512
l78 369q-61 34 -170 34q-129 0 -241 -83.5t-177 -222.5t-65 -298q0 -202 151 -202q124 0 248 119.5t176 283.5z" />
    <glyph glyph-name="aacute" unicode="&#xe1;" horiz-adv-x="1056" 
d="M885 1323l-166 -193l-82 56l244 342l28 -15q58 -28 58 -67q0 -38 -82 -123zM709 1042q111 0 196 -23.5t123 -60.5l-205 -958q-73 0 -108.5 36t-20.5 109l17 74q-79 -110 -186.5 -174.5t-231.5 -64.5t-191 82.5t-65 228.5q1 149 55 287t143 240t213.5 163t260.5 61z
M772 512l78 369q-61 34 -170 34q-129 0 -241 -83.5t-177 -222.5t-65 -298q0 -202 151 -202q124 0 248 119.5t176 283.5z" />
    <glyph glyph-name="acircumflex" unicode="&#xe2;" horiz-adv-x="1056" 
d="M561 1151q-36 0 -67.5 16t-44.5 37l247 234q74 19 129 0l148 -234q-21 -21 -53.5 -37t-65.5 -16l-109 188zM709 1042q111 0 196 -23.5t123 -60.5l-205 -958q-73 0 -108.5 36t-20.5 109l17 74q-79 -110 -186.5 -174.5t-231.5 -64.5t-191 82.5t-65 228.5q1 149 55 287
t143 240t213.5 163t260.5 61zM772 512l78 369q-61 34 -170 34q-129 0 -241 -83.5t-177 -222.5t-65 -298q0 -202 151 -202q124 0 248 119.5t176 283.5z" />
    <glyph glyph-name="atilde" unicode="&#xe3;" horiz-adv-x="1056" 
d="M625 1337q-35 0 -58.5 -32t-29.5 -78q-62 0 -105 16q19 102 73.5 155.5t123.5 53.5q41 0 76 -15.5t56.5 -33.5t52.5 -33.5t63 -15.5q31 0 52.5 32.5t26.5 73.5q60 3 107 -16q-21 -100 -71.5 -153.5t-112.5 -53.5q-43 0 -81.5 15.5t-61.5 34.5t-53 34.5t-58 15.5zM37 291
q1 149 55 287t143 240t213.5 163t260.5 61q111 0 196 -23.5t123 -60.5l-205 -958q-73 0 -108.5 36t-20.5 109l17 74q-79 -110 -186.5 -174.5t-231.5 -64.5t-191 82.5t-65 228.5zM772 512l78 369q-61 34 -170 34q-129 0 -241 -83.5t-177 -222.5t-65 -298q0 -202 151 -202
q124 0 248 119.5t176 283.5z" />
    <glyph glyph-name="adieresis" unicode="&#xe4;" horiz-adv-x="1056" 
d="M551 1214q-40 0 -67 25.5t-27 63.5q0 54 43.5 95.5t99.5 41.5q41 0 68.5 -26t27.5 -64q0 -53 -44 -94.5t-101 -41.5zM877 1214q-40 0 -67.5 25.5t-27.5 63.5q0 54 44 95.5t100 41.5q45 0 71 -28.5t23 -70.5q-3 -51 -46 -89t-97 -38zM709 1042q111 0 196 -23.5t123 -60.5
l-205 -958q-73 0 -108.5 36t-20.5 109l17 74q-79 -110 -186.5 -174.5t-231.5 -64.5t-191 82.5t-65 228.5q1 149 55 287t143 240t213.5 163t260.5 61zM772 512l78 369q-61 34 -170 34q-129 0 -241 -83.5t-177 -222.5t-65 -298q0 -202 151 -202q124 0 248 119.5t176 283.5z
" />
    <glyph glyph-name="aring" unicode="&#xe5;" horiz-adv-x="1056" 
d="M696 1167q-87 0 -136.5 44.5t-49.5 121.5q0 114 78.5 191.5t195.5 77.5q87 0 136 -44.5t49 -121.5q0 -115 -78.5 -192t-194.5 -77zM766 1511q-57 0 -95 -47t-38 -116q0 -43 21 -68t61 -25q55 0 93 50.5t38 117.5q0 88 -80 88zM709 1042q111 0 196 -23.5t123 -60.5
l-205 -958q-73 0 -108.5 36t-20.5 109l17 74q-79 -110 -186.5 -174.5t-231.5 -64.5t-191 82.5t-65 228.5q1 149 55 287t143 240t213.5 163t260.5 61zM772 512l78 369q-61 34 -170 34q-129 0 -241 -83.5t-177 -222.5t-65 -298q0 -202 151 -202q124 0 248 119.5t176 283.5z
" />
    <glyph glyph-name="ae" unicode="&#xe6;" horiz-adv-x="1583" 
d="M1538 846q0 -93 -49.5 -166.5t-146 -125.5t-225.5 -87t-300 -57q-2 -12 -2 -39q0 -116 64.5 -181t179.5 -65q75 0 159 35.5t146 89.5q51 -36 45 -129q-164 -144 -387 -144q-150 0 -243 68.5t-120 192.5q-39 -71 -98 -123.5t-123.5 -79.5t-121.5 -39t-109 -12
q-39 0 -76.5 11t-72.5 33.5t-56.5 64t-21.5 95.5q0 374 692 387l12 62q12 56 13.5 99t-7.5 72t-24 48t-40 29t-51 14t-61 4q-67 0 -160 -22.5t-108 -22.5q-48 0 -56 62l-6 41q209 77 365 77q262 0 289 -194q180 196 426 196q138 0 206 -52t68 -142zM1243 913
q-138 0 -249.5 -105t-155.5 -267q260 23 398 94t138 174q0 48 -35 76t-96 28zM283 115q115 0 219.5 82t132.5 213l12 53h-45q-218 0 -337.5 -62.5t-119.5 -164.5q0 -61 39 -91t99 -30z" />
    <glyph glyph-name="ccedilla" unicode="&#xe7;" horiz-adv-x="956" 
d="M709 1040q123 0 227 -45q-24 -83 -82 -137q-30 20 -74.5 31.5t-81.5 11.5q-199 0 -328.5 -151t-129.5 -383q0 -113 58 -177.5t177 -64.5q114 0 285 84l2 -133q-123 -71 -258 -90l-86 -121q18 6 43 6q67 0 107 -31.5t40 -91.5q0 -56 -28.5 -101.5t-73 -72t-93.5 -40
t-96 -13.5q-71 0 -139 14q0 48 23 92q85 -20 147 -20q66 0 112 34t46 83q0 63 -109 63q-35 0 -82 -12q-33 21 -28 55l112 150q-155 8 -240 98t-85 252q0 150 48.5 282t133 226t202 148t251.5 54z" />
    <glyph glyph-name="egrave" unicode="&#xe8;" horiz-adv-x="1005" 
d="M639 1133l-166 233q-31 44 -31 72q0 20 17.5 40.5t54.5 34.5l33 13l182 -350zM963 846q0 -94 -50 -167.5t-146 -125.5t-226 -87t-301 -56v-39q0 -116 64 -181t179 -65q75 0 159 35.5t144 89.5q54 -39 45 -129q-74 -67 -174 -105.5t-211 -38.5q-179 0 -275.5 97t-96.5 264
q0 187 80.5 348.5t222 257.5t309.5 96q140 0 208.5 -52t68.5 -142zM666 913q-138 0 -249 -106t-155 -268q259 24 397 95.5t138 174.5q0 48 -34.5 76t-96.5 28z" />
    <glyph glyph-name="eacute" unicode="&#xe9;" horiz-adv-x="1005" 
d="M870 1323l-165 -193l-82 56l243 342l29 -15q57 -28 57 -67q0 -38 -82 -123zM963 846q0 -93 -49.5 -166.5t-146 -125.5t-225.5 -87t-300 -57q-2 -12 -2 -39q0 -116 64 -181t179 -65q75 0 159 35.5t144 89.5q54 -39 45 -129q-74 -67 -174 -105.5t-211 -38.5
q-179 0 -275.5 97t-96.5 264q0 187 80.5 348.5t222 257.5t309.5 96q140 0 208.5 -52t68.5 -142zM666 913q-138 0 -249 -105t-155 -267q258 23 396.5 94t138.5 174q0 48 -34.5 76t-96.5 28z" />
    <glyph glyph-name="ecircumflex" unicode="&#xea;" horiz-adv-x="1005" 
d="M547 1151q-36 0 -68 16.5t-45 36.5l248 234q74 19 129 0l147 -234q-53 -53 -118 -53l-109 188zM963 846q0 -93 -49.5 -166.5t-146 -125.5t-225.5 -87t-300 -57q-2 -12 -2 -39q0 -116 64 -181t179 -65q75 0 159 35.5t144 89.5q54 -39 45 -129q-74 -67 -174 -105.5
t-211 -38.5q-179 0 -275.5 97t-96.5 264q0 187 80.5 348.5t222 257.5t309.5 96q140 0 208.5 -52t68.5 -142zM666 913q-138 0 -249 -105t-155 -267q258 23 396.5 94t138.5 174q0 48 -34.5 76t-96.5 28z" />
    <glyph glyph-name="edieresis" unicode="&#xeb;" horiz-adv-x="1005" 
d="M535 1214q-40 0 -67.5 25.5t-27.5 63.5q0 54 44 95.5t100 41.5q41 0 68.5 -26t27.5 -64q0 -53 -44 -94.5t-101 -41.5zM860 1214q-40 0 -67 25.5t-27 63.5q0 54 43.5 95.5t99.5 41.5q45 0 71.5 -28.5t23.5 -70.5q-3 -51 -46.5 -89t-97.5 -38zM963 846q0 -94 -50 -167.5
t-146 -125.5t-226 -87t-301 -56v-39q0 -116 64 -181t179 -65q75 0 159 35.5t144 89.5q54 -39 45 -129q-74 -67 -174 -105.5t-211 -38.5q-179 0 -275.5 97t-96.5 264q0 187 80.5 348.5t222 257.5t309.5 96q140 0 208.5 -52t68.5 -142zM666 913q-138 0 -249 -106t-155 -268
q259 24 397 95.5t138 174.5q0 48 -34.5 76t-96.5 28z" />
    <glyph glyph-name="igrave" unicode="&#xec;" horiz-adv-x="448" 
d="M315 1141l-165 233q-31 44 -31 72q0 20 17 41t54 35l33 12l183 -350zM37 0l215 1016q38 16 83 16.5t77 -16.5l-215 -1016h-160z" />
    <glyph glyph-name="iacute" unicode="&#xed;" horiz-adv-x="448" 
d="M381 1139l-82 55l244 342l28 -14q29 -14 43.5 -32.5t14.5 -35.5q0 -38 -82 -123zM37 0l215 1016q38 16 83 16.5t77 -16.5l-215 -1016h-160z" />
    <glyph glyph-name="icircumflex" unicode="&#xee;" horiz-adv-x="448" 
d="M485 1444l148 -234q-21 -21 -53.5 -37t-65.5 -16l-108 189l-185 -189q-36 0 -67.5 16t-44.5 37l247 234q74 19 129 0zM37 0l215 1016q38 16 83 16.5t77 -16.5l-215 -1016h-160z" />
    <glyph glyph-name="idieresis" unicode="&#xef;" horiz-adv-x="448" 
d="M211 1221q-40 0 -67 25t-27 63q0 54 43.5 95.5t99.5 41.5q41 0 68.5 -26t27.5 -64q0 -53 -44 -94t-101 -41zM537 1221q-40 0 -67.5 25t-27.5 63q0 54 44 95.5t100 41.5q45 0 71 -28t23 -70q-3 -51 -46 -89t-97 -38zM37 0l215 1016q38 16 83 16.5t77 -16.5l-215 -1016
h-160z" />
    <glyph glyph-name="eth" unicode="&#xf0;" horiz-adv-x="1083" 
d="M1022 1413q17 -9 27.5 -34t5.5 -44l-221 -96q202 -166 208 -440q4 -153 -39 -300.5t-122 -262.5t-199 -185.5t-258 -70.5q-169 0 -260.5 94.5t-91.5 257.5q0 171 73.5 321.5t200 242t272.5 93.5q107 3 180.5 -44t108.5 -124q-14 223 -211 359l-311 -138q-14 5 -26.5 30.5
t-8.5 45.5l256 113q-112 53 -260 82q8 35 36 67.5t54 32.5q188 -42 316 -119zM453 121q110 0 203 69.5t146.5 185.5t53.5 249q0 103 -61.5 163t-169.5 60q-155 0 -272 -145t-117 -347q0 -114 54.5 -174.5t162.5 -60.5z" />
    <glyph glyph-name="ntilde" unicode="&#xf1;" horiz-adv-x="1075" 
d="M621 1337q-35 0 -59 -32t-30 -78q-61 0 -104 16q19 102 73.5 155.5t123.5 53.5q41 0 76 -15.5t56 -33.5t52 -33.5t63 -15.5q31 0 53 32.5t27 73.5q60 3 107 -16q-21 -100 -72 -153.5t-113 -53.5q-43 0 -81.5 15.5t-61.5 34.5t-52.5 34.5t-57.5 15.5zM756 1032
q312 0 225 -389l-145 -643h-160l145 637q33 146 3.5 212t-126.5 66q-75 0 -158 -60.5t-146 -154t-89 -190.5l-108 -510h-160l215 1018q43 0 72 -12t41.5 -27.5t16 -41.5t2 -43.5t-6.5 -43.5l-10 -49q79 109 179 170t210 61z" />
    <glyph glyph-name="ograve" unicode="&#xf2;" horiz-adv-x="1091" 
d="M633 1133l-166 233q-31 44 -31 72q0 20 17.5 40.5t54.5 34.5l33 13l182 -350zM401 -20q-156 0 -242.5 93t-86.5 259q0 144 49 275t131.5 226t196.5 151t239 56q157 0 244.5 -94t87.5 -258q0 -192 -83 -355.5t-225.5 -258t-310.5 -94.5zM426 121q178 0 304 158.5
t126 388.5q0 110 -49.5 170.5t-138.5 60.5q-119 0 -218.5 -72.5t-156.5 -199.5t-57 -281q0 -108 49 -166.5t141 -58.5z" />
    <glyph glyph-name="oacute" unicode="&#xf3;" horiz-adv-x="1091" 
d="M698 1130l-82 56l244 342l29 -15q57 -28 57 -67q0 -38 -82 -123zM401 -20q-156 0 -242.5 93t-86.5 259q0 144 49 275t131.5 226t196.5 151t239 56q157 0 244.5 -94t87.5 -258q0 -192 -83 -355.5t-225.5 -258t-310.5 -94.5zM426 121q178 0 304 158.5t126 388.5
q0 110 -49.5 170.5t-138.5 60.5q-119 0 -218.5 -72.5t-156.5 -199.5t-57 -281q0 -108 49 -166.5t141 -58.5z" />
    <glyph glyph-name="ocircumflex" unicode="&#xf4;" horiz-adv-x="1091" 
d="M805 1438l147 -234q-53 -53 -118 -53l-109 188l-184 -188q-36 0 -68 16.5t-45 36.5l248 234q74 19 129 0zM401 -20q-156 0 -242.5 93t-86.5 259q0 144 49 275t131.5 226t196.5 151t239 56q157 0 244.5 -94t87.5 -258q0 -192 -83 -355.5t-225.5 -258t-310.5 -94.5z
M426 121q178 0 304 158.5t126 388.5q0 110 -49.5 170.5t-138.5 60.5q-119 0 -218.5 -72.5t-156.5 -199.5t-57 -281q0 -108 49 -166.5t141 -58.5z" />
    <glyph glyph-name="otilde" unicode="&#xf5;" horiz-adv-x="1091" 
d="M516 1227q-61 0 -104 16q19 102 73 155.5t123 53.5q41 0 76 -15.5t56.5 -33.5t52.5 -33.5t63 -15.5q31 0 53 32.5t27 73.5q60 3 106 -16q-21 -100 -71.5 -153.5t-112.5 -53.5q-43 0 -81.5 15.5t-61.5 34.5t-53 34.5t-58 15.5q-35 0 -58.5 -32t-29.5 -78zM401 -20
q-156 0 -242.5 93t-86.5 259q0 144 49 275t131.5 226t196.5 151t239 56q157 0 244.5 -94t87.5 -258q0 -192 -83 -355.5t-225.5 -258t-310.5 -94.5zM426 121q178 0 304 158.5t126 388.5q0 110 -49.5 170.5t-138.5 60.5q-119 0 -218.5 -72.5t-156.5 -199.5t-57 -281
q0 -108 49 -166.5t141 -58.5z" />
    <glyph glyph-name="odieresis" unicode="&#xf6;" horiz-adv-x="1091" 
d="M530 1214q-40 0 -67 25.5t-27 63.5q0 54 44 95.5t100 41.5q41 0 68.5 -26t27.5 -64q0 -53 -44.5 -94.5t-101.5 -41.5zM856 1214q-40 0 -67 25.5t-27 63.5q0 54 43.5 95.5t99.5 41.5q45 0 71 -28.5t23 -70.5q-3 -51 -46 -89t-97 -38zM401 -20q-156 0 -242.5 93t-86.5 259
q0 144 49 275t131.5 226t196.5 151t239 56q157 0 244.5 -94t87.5 -258q0 -192 -83 -355.5t-225.5 -258t-310.5 -94.5zM426 121q178 0 304 158.5t126 388.5q0 110 -49.5 170.5t-138.5 60.5q-119 0 -218.5 -72.5t-156.5 -199.5t-57 -281q0 -108 49 -166.5t141 -58.5z" />
    <glyph glyph-name="divide" unicode="&#xf7;" 
d="M645 893q-39 0 -65.5 25.5t-26.5 62.5q0 49 43 90t96 41q40 0 67 -26t27 -64q0 -49 -43.5 -89t-97.5 -40zM84 559q17 83 46 111t95 28h871q-18 -81 -45.5 -110t-96.5 -29h-870zM487 150q-39 0 -65.5 25.5t-26.5 62.5q0 49 43.5 90t96.5 41q40 0 67 -26t27 -64
q0 -49 -44.5 -89t-97.5 -40z" />
    <glyph glyph-name="oslash" unicode="&#xf8;" horiz-adv-x="1091" 
d="M1079 971l-98 -97q39 -74 39 -186q0 -192 -83 -355.5t-225.5 -258t-310.5 -94.5q-150 0 -233 83l-86 -81q-57 20 -68 69l97 94q-39 74 -39 187q0 144 49 275t131.5 226t196.5 151t239 56q149 0 238 -86l88 86q32 -15 45 -28t20 -41zM668 899q-119 0 -218.5 -72.5
t-156.5 -199.5t-57 -281q0 -47 8 -78l567 566q-50 65 -143 65zM426 121q178 0 304 158.5t126 388.5q0 51 -8 84l-567 -566q47 -65 145 -65z" />
    <glyph glyph-name="ugrave" unicode="&#xf9;" horiz-adv-x="1075" 
d="M623 1133l-166 233q-31 44 -31 72q0 20 17.5 40.5t54.5 34.5l32 13l183 -350zM879 1010q80 22 163 22l-219 -1032q-37 0 -64 8t-40 23.5t-20.5 30.5t-7 38t2.5 36.5t6 33.5l11 51q-78 -108 -178 -172.5t-211 -64.5q-152 0 -212.5 92t-19.5 272l150 662q80 22 163 22
l-147 -647q-35 -148 -7 -215.5t130 -67.5q59 0 123.5 39.5t117 100t93 131t57.5 133.5z" />
    <glyph glyph-name="uacute" unicode="&#xfa;" horiz-adv-x="1075" 
d="M854 1323l-166 -193l-82 56l244 342l29 -15q57 -28 57 -67q0 -38 -82 -123zM879 1010q80 22 163 22l-219 -1032q-37 0 -64 8t-40 23.5t-20.5 30.5t-7 38t2.5 36.5t6 33.5l11 51q-77 -109 -177.5 -173t-211.5 -64q-152 0 -212.5 92t-19.5 272l150 662q80 22 163 22
l-147 -647q-35 -148 -7 -215.5t130 -67.5q59 0 124.5 40.5t118 101.5t93 132t57.5 134z" />
    <glyph glyph-name="ucircumflex" unicode="&#xfb;" horiz-adv-x="1075" 
d="M530 1151q-36 0 -67.5 16t-44.5 37l248 234q74 19 129 0l147 -234q-21 -21 -53.5 -37t-65.5 -16l-108 188zM879 1010q80 22 163 22l-219 -1032q-37 0 -64 8t-40 23.5t-20.5 30.5t-7 38t2.5 36.5t6 33.5l11 51q-77 -109 -177.5 -173t-211.5 -64q-152 0 -212.5 92
t-19.5 272l150 662q80 22 163 22l-147 -647q-35 -148 -7 -215.5t130 -67.5q59 0 124.5 40.5t118 101.5t93 132t57.5 134z" />
    <glyph glyph-name="udieresis" unicode="&#xfc;" horiz-adv-x="1075" 
d="M518 1214q-40 0 -67 25.5t-27 63.5q0 54 43.5 95.5t99.5 41.5q41 0 69 -26t28 -64q0 -53 -44.5 -94.5t-101.5 -41.5zM844 1214q-40 0 -67 25.5t-27 63.5q0 54 43.5 95.5t99.5 41.5q45 0 71 -28.5t23 -70.5q-3 -51 -46 -89t-97 -38zM879 1010q80 22 163 22l-219 -1032
q-37 0 -64 8t-40 23.5t-20.5 30.5t-7 38t2.5 36.5t6 33.5l11 51q-78 -108 -178 -172.5t-211 -64.5q-152 0 -212.5 92t-19.5 272l150 662q80 22 163 22l-147 -647q-35 -148 -7 -215.5t130 -67.5q59 0 123.5 39.5t117 100t93 131t57.5 133.5z" />
    <glyph glyph-name="yacute" unicode="&#xfd;" horiz-adv-x="931" 
d="M782 1323l-166 -193l-81 56l243 342l29 -15q57 -28 57 -67q0 -38 -82 -123zM856 1020q93 21 180 0l-563 -922q-208 -337 -498 -508q-40 9 -69 52.5t-25 87.5q266 136 418 342l-186 948q86 20 170 0l131 -748z" />
    <glyph glyph-name="thorn" unicode="&#xfe;" horiz-adv-x="1103" 
d="M764 1038q137 0 206.5 -82.5t69.5 -232.5q0 -184 -80 -354.5t-227 -281t-323 -110.5q-125 0 -205 64l-82 -383q-39 -28 -89 -48t-85 -20l377 1770q29 22 82.5 37.5t87.5 15.5l-123 -582q77 92 181.5 149.5t209.5 57.5zM414 104q93 0 179.5 50t148.5 132t99.5 191.5
t37.5 224.5q0 111 -43 160t-129 49q-106 0 -218.5 -92.5t-166.5 -226.5l-93 -436q60 -52 185 -52z" />
    <glyph glyph-name="ydieresis" unicode="&#xff;" horiz-adv-x="931" 
d="M449 1214q-40 0 -67.5 25.5t-27.5 63.5q0 54 44 95.5t100 41.5q41 0 68.5 -26t27.5 -64q0 -53 -44 -94.5t-101 -41.5zM774 1214q-40 0 -67 25.5t-27 63.5q0 54 43.5 95.5t99.5 41.5q45 0 71.5 -28.5t23.5 -70.5q-3 -51 -46.5 -89t-97.5 -38zM856 1020q93 21 180 0
l-563 -922q-208 -337 -498 -508q-40 9 -69 52.5t-25 87.5q261 133 418 342l-186 948q86 20 170 0l131 -748z" />
    <glyph glyph-name="Amacron" unicode="&#x100;" horiz-adv-x="1216" 
d="M614 1714h502l-29 -133h-501zM915 0l-49 332h-587l-187 -332h-180l778 1343q103 18 187 0l217 -1343h-179zM356 469h490l-101 690z" />
    <glyph glyph-name="amacron" unicode="&#x101;" horiz-adv-x="1056" 
d="M1004 1391l-29 -134h-502l29 134h502zM709 1042q111 0 196 -23.5t123 -60.5l-205 -958q-73 0 -108.5 36t-20.5 109l17 74q-79 -110 -186.5 -174.5t-231.5 -64.5t-191 82.5t-65 228.5q1 149 55 287t143 240t213.5 163t260.5 61zM772 512l78 369q-61 34 -170 34
q-129 0 -241 -83.5t-177 -222.5t-65 -298q0 -202 151 -202q124 0 248 119.5t176 283.5z" />
    <glyph glyph-name="Abreve" unicode="&#x102;" horiz-adv-x="1216" 
d="M821 1501q-62 0 -109.5 16.5t-74 44t-43 63t-17 73.5t4.5 76q74 23 137 0q-6 -22 -0.5 -49t17 -51t41 -40t71.5 -16q43 0 78.5 16t57 42t34 50t18.5 48q75 23 138 0q-11 -48 -37.5 -94t-68.5 -87.5t-106.5 -66.5t-140.5 -25zM690 1343q103 18 187 0l217 -1343h-179
l-49 332h-587l-187 -332h-180zM356 469h492l-103 690z" />
    <glyph glyph-name="abreve" unicode="&#x103;" horiz-adv-x="1056" 
d="M709 1178q-62 0 -109.5 16.5t-74.5 44t-43.5 63t-17 73t4.5 75.5q74 23 137 0q-6 -22 -0.5 -49t17 -51t41 -40t71.5 -16q43 0 78.5 16t57.5 42t34.5 50t18.5 48q74 23 137 0q-11 -48 -37.5 -94t-68 -87t-106 -66t-140.5 -25zM37 291q1 149 55 287t143 240t213.5 163
t260.5 61q111 0 196 -23.5t123 -60.5l-205 -958q-73 0 -108.5 36t-20.5 109l17 74q-79 -110 -186.5 -174.5t-231.5 -64.5t-191 82.5t-65 228.5zM772 512l78 369q-61 34 -170 34q-129 0 -241 -83.5t-177 -222.5t-65 -298q0 -202 151 -202q124 0 248 119.5t176 283.5z" />
    <glyph glyph-name="Aogonek" unicode="&#x104;" horiz-adv-x="1216" 
d="M973 -307q41 0 88 26q18 -52 2 -106q-44 -27 -129 -27q-73 0 -114.5 32t-41.5 95q0 82 59 158t144 129h-66l-49 332h-587l-187 -332h-180l778 1343q103 18 187 0l217 -1343q-88 -50 -142.5 -116t-54.5 -126q0 -65 76 -65zM356 469h490l-101 690z" />
    <glyph glyph-name="aogonek" unicode="&#x105;" horiz-adv-x="1056" 
d="M825 0q-88 -50 -142 -116t-54 -126q0 -65 76 -65q41 0 88 26q18 -52 2 -106q-44 -27 -129 -27q-73 0 -114.5 32t-41.5 95q0 88 68.5 169.5t162.5 133.5q-67 33 -47 129l17 74q-79 -110 -186.5 -174.5t-231.5 -64.5t-191 82.5t-65 228.5q1 149 55 287t143 240t213.5 163
t260.5 61q111 0 196 -23.5t123 -60.5l-205 -958h2zM348 109q124 0 248 119.5t176 283.5l78 369q-61 34 -170 34q-129 0 -241 -83.5t-177 -222.5t-65 -298q0 -202 151 -202z" />
    <glyph glyph-name="Cacute" unicode="&#x106;" horiz-adv-x="1280" 
d="M907 1456l-82 55l244 342l29 -14q57 -28 57 -67q0 -38 -82 -123zM1139 184q-105 -99 -243.5 -151.5t-297.5 -52.5q-236 0 -371 129.5t-135 363.5q0 243 106.5 446.5t290 321t402.5 117.5q162 0 277 -55.5t175 -157.5q-16 -40 -55.5 -69.5t-81.5 -41.5q-35 87 -124.5 135
t-219.5 48q-120 0 -230.5 -56t-192 -151t-130.5 -229.5t-49 -284.5q0 -179 97 -277t272 -98q238 0 448 174z" />
    <glyph glyph-name="cacute" unicode="&#x107;" horiz-adv-x="956" 
d="M692 1130l-82 56l244 342l29 -15q57 -28 57 -67q0 -38 -82 -123zM760 209l2 -133q-75 -44 -165.5 -70t-168.5 -26q-167 0 -260.5 90.5t-93.5 259.5q0 150 48.5 282t133 226t202 148t251.5 54q123 0 227 -45q-24 -83 -82 -137q-30 20 -74.5 31.5t-81.5 11.5
q-199 0 -328.5 -151t-129.5 -383q0 -113 58 -177.5t177 -64.5q114 0 285 84z" />
    <glyph glyph-name="Cdotaccent" unicode="&#x10a;" horiz-adv-x="1280" 
d="M895 1552q-42 0 -67 25t-25 63q0 51 41.5 91.5t99.5 40.5q40 0 66 -26t26 -63q0 -51 -42 -91t-99 -40zM1139 184q-105 -99 -243.5 -151.5t-297.5 -52.5q-236 0 -371 129.5t-135 363.5q0 243 106.5 446.5t290 321t402.5 117.5q162 0 277 -55.5t175 -157.5
q-16 -40 -55.5 -69.5t-81.5 -41.5q-35 87 -124.5 135t-219.5 48q-120 0 -230.5 -56t-192 -151t-130.5 -229.5t-49 -284.5q0 -179 97 -277t272 -98q238 0 448 174z" />
    <glyph glyph-name="cdotaccent" unicode="&#x10b;" horiz-adv-x="956" 
d="M680 1227q-42 0 -67 25t-25 63q0 51 41 91t100 40q41 0 66.5 -25.5t25.5 -62.5q0 -51 -42 -91t-99 -40zM760 209l2 -133q-75 -44 -165.5 -70t-168.5 -26q-167 0 -260.5 90.5t-93.5 259.5q0 150 48.5 282t133 226t202 148t251.5 54q123 0 227 -45q-24 -83 -82 -137
q-30 20 -74.5 31.5t-81.5 11.5q-199 0 -328.5 -151t-129.5 -383q0 -113 58 -177.5t177 -64.5q114 0 285 84z" />
    <glyph glyph-name="Ccaron" unicode="&#x10c;" horiz-adv-x="1280" 
d="M958 1499q-72 -18 -129 0l-147 234q53 53 121 53l106 -189l187 189q36 0 66.5 -16t43.5 -37zM891 1358q162 0 277 -55.5t175 -157.5q-16 -40 -55.5 -69.5t-81.5 -41.5q-35 87 -124.5 135t-219.5 48q-120 0 -230.5 -56t-192 -151t-130.5 -229.5t-49 -284.5q0 -179 97 -277
t272 -98q238 0 448 174l62 -111q-105 -99 -243.5 -151.5t-297.5 -52.5q-236 0 -371 129.5t-135 363.5q0 243 106.5 446.5t290 321t402.5 117.5z" />
    <glyph glyph-name="ccaron" unicode="&#x10d;" horiz-adv-x="956" 
d="M881 1460q36 0 66.5 -16t43.5 -37l-248 -233q-72 -18 -129 0l-147 233q53 53 121 53l106 -190zM760 209l2 -133q-75 -44 -165.5 -70t-168.5 -26q-167 0 -260.5 90.5t-93.5 259.5q0 150 48.5 282t133 226t202 148t251.5 54q123 0 227 -45q-24 -83 -82 -137
q-30 20 -74.5 31.5t-81.5 11.5q-199 0 -328.5 -151t-129.5 -383q0 -113 58 -177.5t177 -64.5q114 0 285 84z" />
    <glyph glyph-name="Dcaron" unicode="&#x10e;" horiz-adv-x="1323" 
d="M909 1499q-72 -18 -129 0l-147 234q53 53 121 53l106 -189l187 189q36 0 66.5 -16t43.5 -37zM705 1358q288 0 441.5 -132t153.5 -364q0 -241 -116.5 -438t-322.5 -310t-460 -114h-356l281 1317q219 41 379 41zM432 139q198 0 358 87.5t252.5 248.5t92.5 365
q0 181 -115 276.5t-332 95.5q-134 0 -225 -18l-225 -1055h194z" />
    <glyph glyph-name="dcaron" unicode="&#x10f;" horiz-adv-x="1103" 
d="M1247 1501q77 0 108 -19.5t21 -70.5q-10 -50 -49.5 -161.5t-75.5 -196.5q-56 0 -96 14zM899 977l82 383q32 22 85.5 37.5t86.5 15.5l-301 -1413q-18 0 -35.5 3t-40 11.5t-35 24.5t-21 42t2.5 64l14 72q-77 -104 -183 -170.5t-212 -66.5q-138 0 -207 83t-69 232
q0 138 48 272t129.5 239t200.5 169.5t252 64.5q127 0 203 -63zM799 504l78 360q-60 49 -185 49q-124 0 -232.5 -83.5t-171.5 -221.5t-63 -291q0 -110 43.5 -159t128.5 -49q117 0 237 116t165 279z" />
    <glyph glyph-name="Dcroat" unicode="&#x110;" horiz-adv-x="1323" 
d="M705 1358q288 0 441.5 -132t153.5 -364q0 -241 -116.5 -438t-322.5 -310t-460 -114h-356l127 598h-135q20 66 55.5 99.5t97.5 33.5h11l125 586q219 41 379 41zM432 139q198 0 358 87.5t252.5 248.5t92.5 365q0 181 -115 276.5t-332 95.5q-134 0 -225 -18l-98 -463h430
q-11 -60 -45.5 -96.5t-85.5 -36.5h-328l-98 -459h194z" />
    <glyph glyph-name="dcroat" unicode="&#x111;" horiz-adv-x="1103" 
d="M1128 1296h115q-16 -53 -41.5 -82.5t-73.5 -29.5h-24l-252 -1184q-18 0 -35.5 3t-40 11.5t-35 24.5t-21 42t2.5 64l14 72q-77 -104 -183 -170.5t-212 -66.5q-138 0 -207 83t-69 232q0 138 48 272t129.5 239t200.5 169.5t252 64.5q127 0 203 -63l45 207h-203
q26 55 58 83.5t92 28.5h76l14 64q32 22 85.5 37.5t86.5 15.5zM799 504l78 360q-60 49 -185 49q-124 0 -232.5 -83.5t-171.5 -221.5t-63 -291q0 -110 43.5 -159t128.5 -49q117 0 237 116t165 279z" />
    <glyph glyph-name="Emacron" unicode="&#x112;" horiz-adv-x="1075" 
d="M594 1716h502l-29 -133h-502zM1104 1198h-639l-96 -455h536q0 -23 -17.5 -65.5t-41.5 -73.5h-508l-98 -465h639l-29 -139h-803l283 1337h803z" />
    <glyph glyph-name="emacron" unicode="&#x113;" horiz-adv-x="1005" 
d="M485 1391h502l-29 -134h-501zM963 846q0 -94 -50 -167.5t-146 -125.5t-226 -87t-301 -56v-39q0 -116 64 -181t179 -65q75 0 159 35.5t144 89.5q54 -39 45 -129q-74 -67 -174 -105.5t-211 -38.5q-179 0 -275.5 97t-96.5 264q0 187 80.5 348.5t222 257.5t309.5 96
q140 0 208.5 -52t68.5 -142zM666 913q-138 0 -249 -106t-155 -268q259 24 397 95.5t138 174.5q0 48 -34.5 76t-96.5 28z" />
    <glyph glyph-name="Edotaccent" unicode="&#x116;" horiz-adv-x="1075" 
d="M799 1552q-42 0 -67 25t-25 63q0 51 41.5 91.5t99.5 40.5q40 0 66 -26t26 -63q0 -51 -42 -91t-99 -40zM1104 1198h-639l-96 -455h536q0 -23 -17.5 -65.5t-41.5 -73.5h-508l-98 -465h639l-29 -139h-803l283 1337h803z" />
    <glyph glyph-name="edotaccent" unicode="&#x117;" horiz-adv-x="1005" 
d="M692 1227q-42 0 -67 25t-25 63q0 51 41 91t100 40q41 0 67 -25.5t26 -62.5q0 -51 -42.5 -91t-99.5 -40zM963 846q0 -94 -50 -167.5t-146 -125.5t-226 -87t-301 -56v-39q0 -116 64 -181t179 -65q75 0 159 35.5t144 89.5q54 -39 45 -129q-74 -67 -174 -105.5t-211 -38.5
q-179 0 -275.5 97t-96.5 264q0 187 80.5 348.5t222 257.5t309.5 96q140 0 208.5 -52t68.5 -142zM666 913q-138 0 -249 -106t-155 -268q259 24 397 95.5t138 174.5q0 48 -34.5 76t-96.5 28z" />
    <glyph glyph-name="Eogonek" unicode="&#x118;" horiz-adv-x="1075" 
d="M1104 1198h-639l-96 -455h536q0 -23 -17.5 -65.5t-41.5 -73.5h-508l-98 -465h639l-29 -139q-88 -50 -142.5 -116t-54.5 -126q0 -65 76 -65q41 0 88 26q18 -52 2 -106q-44 -27 -129 -27q-73 0 -114 32t-41 95q0 82 58.5 158t143.5 129h-690l283 1337h803z" />
    <glyph glyph-name="eogonek" unicode="&#x119;" horiz-adv-x="1005" 
d="M963 846q0 -94 -50 -167.5t-146 -125.5t-226 -87t-301 -56v-39q0 -116 64 -181t179 -65q75 0 159 35.5t144 89.5q54 -39 45 -129q-85 -76 -206 -117h2q-88 -50 -142.5 -116t-54.5 -126q0 -65 76 -65q39 0 88 27q18 -52 2 -107q-44 -27 -129 -27q-73 0 -114.5 32t-41.5 95
q0 71 47 140t119 120h-31q-179 0 -275.5 97t-96.5 264q0 187 80.5 348.5t222 257.5t309.5 96q140 0 208.5 -52t68.5 -142zM666 913q-138 0 -249 -106t-155 -268q259 24 397 95.5t138 174.5q0 48 -34.5 76t-96.5 28z" />
    <glyph glyph-name="Ecaron" unicode="&#x11a;" horiz-adv-x="1075" 
d="M862 1499q-72 -18 -129 0l-147 234q53 53 121 53l106 -189l186 189q36 0 67 -16t44 -37zM1104 1198h-639l-96 -455h536q0 -23 -17.5 -65.5t-41.5 -73.5h-508l-98 -465h639l-29 -139h-803l283 1337h803z" />
    <glyph glyph-name="ecaron" unicode="&#x11b;" horiz-adv-x="1005" 
d="M754 1174q-72 -18 -129 0l-148 233q53 53 121 53l107 -190l186 190q36 0 66.5 -16t43.5 -37zM686 1040q140 0 208.5 -52t68.5 -142q0 -93 -49.5 -166.5t-146 -125.5t-225.5 -87t-300 -57q-2 -12 -2 -39q0 -116 64 -181t179 -65q75 0 159 35.5t144 89.5q54 -39 45 -129
q-74 -67 -174 -105.5t-211 -38.5q-179 0 -275.5 97t-96.5 264q0 187 80.5 348.5t222 257.5t309.5 96zM262 541q258 23 396.5 94t138.5 174q0 48 -34.5 76t-96.5 28q-138 0 -249 -105t-155 -267z" />
    <glyph glyph-name="Gbreve" unicode="&#x11e;" horiz-adv-x="1339" 
d="M891 1503q-62 0 -109.5 16.5t-74.5 44t-43.5 63t-17 73.5t4.5 76q74 23 137 0q-6 -22 -0.5 -49t17 -51t41.5 -40t72 -16q43 0 78.5 16t57 42t34 50t18.5 48q74 23 137 0q-11 -48 -37.5 -94t-68 -87.5t-106 -66.5t-140.5 -25zM858 1217q-117 0 -226.5 -56t-191.5 -151.5
t-131 -231t-49 -284.5q0 -179 95 -276t272 -97q222 0 397 108l78 373q37 30 85 37t85 -8l-94 -449q-110 -98 -261 -151.5t-321 -53.5q-236 0 -370 130.5t-134 365.5q0 242 105.5 445t289 320.5t402.5 117.5q163 0 281.5 -56t179.5 -157q-59 -92 -140 -111q-39 89 -128 137
t-224 48z" />
    <glyph glyph-name="gbreve" unicode="&#x11f;" horiz-adv-x="1101" 
d="M709 1178q-62 0 -109.5 16.5t-74.5 44t-43.5 63t-17 73t4.5 75.5q74 23 137 0q-6 -22 -0.5 -49t17 -51t41 -40t71.5 -16q43 0 78.5 16t57.5 42t34.5 50t18.5 48q74 23 137 0q-11 -48 -37.5 -94t-68 -87t-106 -66t-140.5 -25zM915 963q32 25 75 40t77 15l-221 -1036
q-15 -70 -41 -127t-70 -107t-104 -84.5t-145.5 -54t-190.5 -19.5q-157 0 -262 60q21 86 67 127q127 -53 224 -53q166 0 248 62t116 194l49 237q-77 -104 -183 -170.5t-212 -66.5q-138 0 -207 83t-69 232q0 138 48 272t129.5 239t200.5 169.5t252 64.5q139 0 219 -77z
M799 500l75 364q-60 49 -182 49q-124 0 -232.5 -83.5t-171.5 -221.5t-63 -291q0 -110 43.5 -159t128.5 -49q116 0 236 114t166 277z" />
    <glyph glyph-name="Gdotaccent" unicode="&#x120;" horiz-adv-x="1339" 
d="M891 1552q-42 0 -67 25t-25 63q0 51 41.5 91.5t99.5 40.5q40 0 66 -26t26 -63q0 -51 -42 -91t-99 -40zM858 1217q-117 0 -226.5 -56t-191.5 -151.5t-131 -231t-49 -284.5q0 -179 95 -276t272 -97q222 0 397 108l78 373q37 30 85 37t85 -8l-94 -449q-110 -98 -261 -151.5
t-321 -53.5q-236 0 -370 130.5t-134 365.5q0 242 105.5 445t289 320.5t402.5 117.5q163 0 281.5 -56t179.5 -157q-59 -92 -140 -111q-39 89 -128 137t-224 48z" />
    <glyph glyph-name="gdotaccent" unicode="&#x121;" horiz-adv-x="1101" 
d="M707 1227q-42 0 -67.5 25t-25.5 63q0 51 41.5 91t100.5 40q41 0 66.5 -25.5t25.5 -62.5q0 -51 -42 -91t-99 -40zM915 963q32 25 75 40t77 15l-221 -1036q-15 -70 -41 -127t-70 -107t-104 -84.5t-145.5 -54t-190.5 -19.5q-157 0 -262 60q21 86 67 127q127 -53 224 -53
q166 0 248 62t116 194l49 237q-77 -104 -183 -170.5t-212 -66.5q-138 0 -207 83t-69 232q0 138 48 272t129.5 239t200.5 169.5t252 64.5q139 0 219 -77zM799 500l75 364q-60 49 -182 49q-124 0 -232.5 -83.5t-171.5 -221.5t-63 -291q0 -110 43.5 -159t128.5 -49
q116 0 236 114t166 277z" />
    <glyph glyph-name="uni0122" unicode="&#x122;" horiz-adv-x="1339" 
d="M858 1217q-117 0 -226.5 -56t-191.5 -151.5t-131 -231t-49 -284.5q0 -179 95 -276t272 -97q222 0 397 108l78 373q37 30 85 37t85 -8l-94 -449q-110 -98 -261 -151.5t-321 -53.5q-236 0 -370 130.5t-134 365.5q0 242 105.5 445t289 320.5t402.5 117.5q163 0 281.5 -56
t179.5 -157q-59 -92 -140 -111q-39 89 -128 137t-224 48zM625 -111q44 0 70 -27.5t26 -68.5q0 -88 -73 -175t-159 -136q-19 0 -35 14.5t-22 34.5q95 61 137 139q-39 3 -60.5 26.5t-21.5 59.5q0 51 42 92t96 41z" />
    <glyph glyph-name="uni0123" unicode="&#x123;" horiz-adv-x="1101" 
d="M702 1204q-44 0 -70 26t-26 66q0 82 74.5 174.5t157.5 141.5q19 -2 35 -16t22 -35q-94 -61 -135 -134q37 -4 58.5 -30t21.5 -60q0 -52 -41 -92.5t-97 -40.5zM915 963q32 25 75 40t77 15l-221 -1036q-15 -70 -41 -127t-70 -107t-104 -84.5t-145.5 -54t-190.5 -19.5
q-157 0 -262 60q21 86 67 127q127 -53 224 -53q166 0 248 62t116 194l49 237q-77 -104 -183 -170.5t-212 -66.5q-138 0 -207 83t-69 232q0 138 48 272t129.5 239t200.5 169.5t252 64.5q139 0 219 -77zM799 500l75 364q-60 49 -182 49q-124 0 -232.5 -83.5t-171.5 -221.5
t-63 -291q0 -110 43.5 -159t128.5 -49q116 0 236 114t166 277z" />
    <glyph glyph-name="Imacron" unicode="&#x12a;" horiz-adv-x="473" 
d="M242 1714h501l-28 -133h-502zM211 0h-164l283 1337q87 21 164 0z" />
    <glyph glyph-name="imacron" unicode="&#x12b;" horiz-adv-x="448" 
d="M162 1399h502l-29 -133h-502zM37 0l215 1016q38 16 83 16.5t77 -16.5l-215 -1016h-160z" />
    <glyph glyph-name="Iogonek" unicode="&#x12e;" horiz-adv-x="473" 
d="M211 0q-88 -50 -142.5 -116t-54.5 -126q0 -65 76 -65q41 0 88 26q18 -52 2 -106q-44 -27 -129 -27q-74 0 -114.5 32t-40.5 95q0 82 58.5 158t143.5 129h-51l283 1337q87 21 164 0z" />
    <glyph glyph-name="iogonek" unicode="&#x12f;" horiz-adv-x="448" 
d="M422 1438q41 0 67.5 -25.5t26.5 -62.5q0 -51 -42 -91t-99 -40q-42 0 -67 25.5t-25 64.5q0 49 41 89t98 40zM252 1016q38 16 83 16.5t77 -16.5l-215 -1016q-88 -50 -142.5 -116t-54.5 -126q0 -65 76 -65q41 0 88 26q18 -52 2 -106q-44 -27 -129 -27q-74 0 -115 32t-41 95
q0 82 59 158t144 129h-47z" />
    <glyph glyph-name="Idotaccent" unicode="&#x130;" horiz-adv-x="473" 
d="M446 1550q-42 0 -67 25t-25 63q0 51 41.5 91t100.5 40q41 0 66.5 -25.5t25.5 -62.5q0 -51 -42.5 -91t-99.5 -40zM211 0h-164l283 1337q87 21 164 0z" />
    <glyph glyph-name="dotlessi" unicode="&#x131;" horiz-adv-x="448" 
d="M37 0l215 1016q38 16 83 16.5t77 -16.5l-215 -1016h-160z" />
    <glyph glyph-name="IJ" unicode="&#x132;" horiz-adv-x="1153" 
d="M211 0h-164l283 1337q87 21 164 0zM1012 1337q85 21 164 0l-232 -1085q-44 -212 -134 -301.5t-257 -89.5q-102 0 -182 39q14 88 65 139q95 -29 160 -29q64 0 111 55.5t67 151.5z" />
    <glyph glyph-name="ij" unicode="&#x133;" horiz-adv-x="927" 
d="M516 1350q0 -49 -42 -90t-99 -41q-42 0 -67 25.5t-25 64.5q0 49 41 89t98 40q41 0 67.5 -25.5t26.5 -62.5zM854 1219q-42 0 -67 25.5t-25 64.5q0 49 41 89t98 40q42 0 68 -25t26 -63q0 -51 -42 -91t-99 -40zM317 -471q-26 6 -49.5 43.5t-21.5 71.5q101 67 173.5 160.5
t96.5 201.5l215 1010q38 17 83 17t77 -17l-205 -961q-41 -189 -146 -331t-223 -195zM37 0l215 1016q38 16 83 16.5t77 -16.5l-215 -1016h-160z" />
    <glyph glyph-name="uni0136" unicode="&#x136;" horiz-adv-x="1130" 
d="M1217 1337l-713 -653l483 -684h-192l-449 639l-135 -639h-164l283 1337q87 21 164 0l-123 -581l641 581q108 22 205 0zM504 -111q44 0 70 -27.5t26 -68.5q0 -88 -72.5 -175t-158.5 -136q-19 0 -35.5 14.5t-22.5 34.5q96 62 138 139q-39 3 -60.5 26.5t-21.5 59.5
q0 51 41.5 92t95.5 41z" />
    <glyph glyph-name="uni0137" unicode="&#x137;" horiz-adv-x="1021" 
d="M1055 1016l-574 -451l418 -565h-182l-406 541l-114 -541h-160l289 1360q32 22 85.5 37.5t86.5 15.5l-168 -790l518 395q112 20 207 -2zM438 -111q44 0 70.5 -27.5t26.5 -68.5q0 -88 -73 -175t-159 -136q-19 0 -35 14.5t-22 34.5q95 61 137 139q-39 3 -60.5 26.5
t-21.5 59.5q0 51 41.5 92t95.5 41z" />
    <glyph glyph-name="Lacute" unicode="&#x139;" horiz-adv-x="972" 
d="M625 1649l-166 -193l-82 55l244 342l28 -14q58 -28 58 -67q0 -38 -82 -123zM240 139h612l-29 -139h-776l283 1337q87 21 164 0z" />
    <glyph glyph-name="lacute" unicode="&#x13a;" horiz-adv-x="448" 
d="M492 1587l-82 55l243 343l29 -15q57 -28 57 -67q0 -38 -82 -123zM37 0l289 1360q32 22 85.5 37.5t86.5 15.5l-301 -1413h-160z" />
    <glyph glyph-name="uni013B" unicode="&#x13b;" horiz-adv-x="972" 
d="M240 139h612l-29 -139h-776l283 1337q87 21 164 0zM440 -111q44 0 70.5 -27.5t26.5 -68.5q0 -88 -73 -175t-159 -136q-19 0 -35 14.5t-22 34.5q95 61 137 139q-39 3 -60.5 26.5t-21.5 59.5q0 51 41.5 92t95.5 41z" />
    <glyph glyph-name="uni013C" unicode="&#x13c;" horiz-adv-x="448" 
d="M37 0l289 1360q32 22 85.5 37.5t86.5 15.5l-301 -1413h-160zM184 -207q0 -88 -73 -174.5t-158 -136.5q-21 0 -37 14.5t-22 34.5q96 60 139 139q-39 3 -61.5 27t-22.5 59q0 51 42.5 92t96.5 41q44 0 70 -27.5t26 -68.5z" />
    <glyph glyph-name="Lcaron" unicode="&#x13d;" horiz-adv-x="972" 
d="M510 1499q-72 -18 -129 0l-148 234q53 53 121 53l107 -189l186 189q36 0 67 -16t44 -37zM240 139h612l-29 -139h-776l283 1337q87 21 164 0z" />
    <glyph glyph-name="lcaron" unicode="&#x13e;" horiz-adv-x="448" 
d="M604 1053q-56 0 -96 14l92 434q77 0 108 -19.5t21 -70.5q-10 -50 -49.5 -161.5t-75.5 -196.5zM37 0l289 1360q32 22 85.5 37.5t86.5 15.5l-301 -1413h-160z" />
    <glyph glyph-name="Lslash" unicode="&#x141;" horiz-adv-x="972" 
d="M240 139h612l-29 -139h-776l111 522l-158 -69q0 128 96 172l92 41l142 671q87 21 164 0l-125 -589l354 159q0 -69 -26 -111.5t-79 -66.5l-280 -125z" />
    <glyph glyph-name="lslash" unicode="&#x142;" horiz-adv-x="452" 
d="M504 911q10 -23 10 -53q0 -46 -18.5 -74t-51.5 -51l-108 -82l-139 -651h-160l106 506l-118 -90q-11 33 -11 55q0 46 18.5 74t51.5 51l94 72l148 692q32 22 85.5 37.5t86.5 15.5l-129 -602z" />
    <glyph glyph-name="Nacute" unicode="&#x143;" horiz-adv-x="1402" 
d="M1096 1649l-166 -193l-82 55l244 342l28 -14q58 -28 58 -67q0 -38 -82 -123zM1260 1337h163l-282 -1337q-87 -21 -164 0l-543 1094l-39 -222l-184 -872h-164l283 1337q87 21 164 0l540 -1108l29 174z" />
    <glyph glyph-name="nacute" unicode="&#x144;" horiz-adv-x="1075" 
d="M881 1323l-166 -193l-82 56l244 342l28 -15q58 -28 58 -67q0 -38 -82 -123zM756 1032q312 0 225 -389l-145 -643h-160l145 637q33 146 3.5 212t-126.5 66q-75 0 -158 -60.5t-146 -154t-89 -190.5l-108 -510h-160l215 1018q43 0 72 -12t41.5 -27.5t16 -41.5t2 -43.5
t-6.5 -43.5l-10 -49q79 109 179 170t210 61z" />
    <glyph glyph-name="uni0145" unicode="&#x145;" horiz-adv-x="1402" 
d="M1260 1337h163l-282 -1337q-87 -21 -164 0l-543 1094l-39 -222l-184 -872h-164l283 1337q87 21 164 0l540 -1108l29 174zM610 -111q44 0 70.5 -27.5t26.5 -68.5q0 -88 -73 -175t-159 -136q-19 0 -35 14.5t-22 34.5q95 61 137 139q-39 3 -60.5 26.5t-21.5 59.5
q0 51 41.5 92t95.5 41z" />
    <glyph glyph-name="uni0146" unicode="&#x146;" horiz-adv-x="1075" 
d="M756 1032q312 0 225 -389l-145 -643h-160l145 637q33 146 3.5 212t-126.5 66q-75 0 -158 -60.5t-146 -154t-89 -190.5l-108 -510h-160l215 1018q43 0 72 -12t41.5 -27.5t16 -41.5t2 -43.5t-6.5 -43.5l-10 -49q79 109 179 170t210 61zM449 -111q44 0 70 -27.5t26 -68.5
q0 -60 -40 -125t-90 -110t-102 -76q-19 0 -35 14.5t-22 34.5q95 61 137 139q-39 3 -60.5 27t-21.5 59q0 51 42 92t96 41z" />
    <glyph glyph-name="Ncaron" unicode="&#x147;" horiz-adv-x="1402" 
d="M979 1499q-72 -18 -129 0l-148 234q53 53 121 53l107 -189l186 189q36 0 67 -16t44 -37zM1260 1337h163l-282 -1337q-87 -21 -164 0l-543 1094l-39 -222l-184 -872h-164l283 1337q87 21 164 0l540 -1108l29 174z" />
    <glyph glyph-name="ncaron" unicode="&#x148;" horiz-adv-x="1075" 
d="M766 1174q-72 -18 -129 0l-148 233q53 53 121 53l107 -190l186 190q36 0 67 -16t44 -37zM756 1032q312 0 225 -389l-145 -643h-160l145 637q33 146 3.5 212t-126.5 66q-75 0 -158 -60.5t-146 -154t-89 -190.5l-108 -510h-160l215 1018q43 0 72 -12t41.5 -27.5t16 -41.5
t2 -43.5t-6.5 -43.5l-10 -49q79 109 179 170t210 61z" />
    <glyph glyph-name="Eng" unicode="&#x14a;" horiz-adv-x="1409" 
d="M1423 1337l-282 -1337q-26 -119 -60.5 -192.5t-98 -125t-157.5 -72t-239 -20.5q30 94 84 140q55 0 88 2.5t66.5 12.5t52 26.5t38 48.5t32.5 75t28 109l-541 1090l-39 -222l-184 -872h-164l283 1337q87 21 164 0l540 -1108l29 174l197 934h163z" />
    <glyph glyph-name="eng" unicode="&#x14b;" horiz-adv-x="1075" 
d="M756 1032q312 0 225 -389l-145 -643q-18 -82 -41 -143.5t-62.5 -118.5t-93.5 -92.5t-134 -56.5t-183 -21q25 91 69 137q73 0 115 9.5t76.5 42t54.5 89t39 154.5l145 637q33 146 3.5 212t-126.5 66q-75 0 -158 -60.5t-146 -154t-89 -190.5l-108 -510h-160l215 1018
q43 0 72 -12t41.5 -27.5t16 -41.5t2 -43.5t-6.5 -43.5l-10 -49q79 109 179 170t210 61z" />
    <glyph glyph-name="Omacron" unicode="&#x14c;" horiz-adv-x="1419" 
d="M717 1716h502l-29 -133h-502zM598 -20q-240 0 -373 132t-133 365q0 241 106.5 443.5t290.5 320t402 117.5q240 0 373 -131t133 -361q0 -181 -63 -345.5t-169.5 -282.5t-254.5 -188t-312 -70zM629 121q167 0 305 99.5t215.5 267t77.5 364.5q0 175 -94 270t-273 95
q-125 0 -236.5 -58.5t-190.5 -156.5t-125 -230.5t-46 -277.5q0 -181 94 -277t273 -96z" />
    <glyph glyph-name="omacron" unicode="&#x14d;" horiz-adv-x="1091" 
d="M481 1391h502l-29 -134h-501zM401 -20q-156 0 -242.5 93t-86.5 259q0 144 49 275t131.5 226t196.5 151t239 56q157 0 244.5 -94t87.5 -258q0 -192 -83 -355.5t-225.5 -258t-310.5 -94.5zM426 121q178 0 304 158.5t126 388.5q0 110 -49.5 170.5t-138.5 60.5
q-119 0 -218.5 -72.5t-156.5 -199.5t-57 -281q0 -108 49 -166.5t141 -58.5z" />
    <glyph glyph-name="Ohungarumlaut" unicode="&#x150;" horiz-adv-x="1419" 
d="M772 1432l-92 34l164 387l30 -8q62 -14 70 -53q8 -40 -53 -137zM1030 1436l-78 63l279 316l26 -19q54 -34 50 -72q-1 -22 -23 -47.5t-72 -66.5zM598 -20q-240 0 -373 132t-133 365q0 241 106.5 443.5t290.5 320t402 117.5q240 0 373 -131t133 -361q0 -181 -63 -345.5
t-169.5 -282.5t-254.5 -188t-312 -70zM629 121q167 0 305 99.5t215.5 267t77.5 364.5q0 175 -94 270t-273 95q-125 0 -236.5 -58.5t-190.5 -156.5t-125 -230.5t-46 -277.5q0 -181 94 -277t273 -96z" />
    <glyph glyph-name="ohungarumlaut" unicode="&#x151;" horiz-adv-x="1091" 
d="M537 1106l-93 35l164 387l31 -8q62 -14 70 -54q8 -39 -54 -137zM795 1110l-78 64l278 315l27 -19q53 -34 49 -71q-1 -22 -23.5 -48.5t-70.5 -66.5zM401 -20q-156 0 -242.5 93t-86.5 259q0 144 49 275t131.5 226t196.5 151t239 56q157 0 244.5 -94t87.5 -258
q0 -192 -83 -355.5t-225.5 -258t-310.5 -94.5zM426 121q178 0 304 158.5t126 388.5q0 110 -49.5 170.5t-138.5 60.5q-119 0 -218.5 -72.5t-156.5 -199.5t-57 -281q0 -108 49 -166.5t141 -58.5z" />
    <glyph glyph-name="OE" unicode="&#x152;" horiz-adv-x="1933" 
d="M1960 1200h-639l-96 -457h536q-19 -86 -57 -137h-508l-100 -469h639l-29 -137h-803v2q-126 -22 -276 -22q-252 0 -392.5 134.5t-140.5 368.5q0 182 64.5 344t175.5 278.5t265.5 184.5t328.5 68q165 0 268 -21h793zM657 121q157 0 279 33l213 1011q-91 54 -258 54
q-180 0 -324.5 -92.5t-225.5 -257t-81 -369.5q0 -183 101.5 -281t295.5 -98z" />
    <glyph glyph-name="oe" unicode="&#x153;" horiz-adv-x="1751" 
d="M1708 846q0 -94 -50 -167.5t-146 -125.5t-226 -87t-301 -56v-39q0 -116 64.5 -181t179.5 -65q75 0 159 35.5t144 89.5q54 -39 45 -129q-74 -67 -174 -105.5t-211 -38.5q-134 0 -223.5 55.5t-126.5 157.5q-85 -99 -199.5 -154.5t-241.5 -55.5q-156 0 -242.5 93t-86.5 259
q0 144 49 275t131.5 226t196.5 151t239 56q119 0 197.5 -53.5t111.5 -152.5q85 98 197 152t238 54q140 0 208 -52t68 -142zM1411 913q-138 0 -248.5 -106t-154.5 -268q259 24 396.5 95.5t137.5 174.5q0 48 -34.5 76t-96.5 28zM426 121q142 0 254.5 104.5t155.5 272.5l6 30
q14 63 14 140q0 110 -49.5 170.5t-138.5 60.5q-119 0 -218.5 -72.5t-156.5 -199.5t-57 -281q0 -108 49 -166.5t141 -58.5z" />
    <glyph glyph-name="Racute" unicode="&#x154;" horiz-adv-x="1130" 
d="M897 1649l-166 -193l-82 55l244 342l29 -14q57 -28 57 -67q0 -38 -82 -123zM1108 1030q0 -167 -98.5 -297t-261.5 -186l227 -547h-180l-205 514q-18 -2 -55 -2h-218l-108 -512h-164l281 1317q189 41 348 41q216 0 325 -94.5t109 -233.5zM504 651q202 0 321 96.5
t119 256.5q0 101 -76.5 160t-238.5 59q-75 0 -164 -19l-117 -553h156z" />
    <glyph glyph-name="racute" unicode="&#x155;" horiz-adv-x="688" 
d="M698 1323l-166 -193l-81 56l243 342l29 -15q57 -28 57 -67q0 -38 -82 -123zM719 1032h18q8 -13 8 -39t-12.5 -63.5t-27.5 -61.5q-49 11 -72 11q-36 0 -83.5 -27t-94 -72t-87 -112t-59.5 -140l-112 -528h-160l215 1018q43 0 72 -12t41.5 -27.5t16 -41.5t2 -43.5
t-6.5 -43.5l-6 -31q74 109 167.5 161t180.5 52z" />
    <glyph glyph-name="uni0156" unicode="&#x156;" horiz-adv-x="1130" 
d="M1108 1030q0 -167 -98.5 -297t-261.5 -186l227 -547h-180l-205 514q-18 -2 -55 -2h-218l-108 -512h-164l281 1317q189 41 348 41q216 0 325 -94.5t109 -233.5zM504 651q202 0 321 96.5t119 256.5q0 101 -76.5 160t-238.5 59q-75 0 -164 -19l-117 -553h156zM494 -111
q44 0 70 -27.5t26 -68.5q0 -88 -73 -175t-159 -136q-19 0 -35 14.5t-22 34.5q95 61 137 139q-39 3 -60.5 26.5t-21.5 59.5q0 51 42 92t96 41z" />
    <glyph glyph-name="uni0157" unicode="&#x157;" horiz-adv-x="688" 
d="M737 1032q8 -13 8 -39t-12.5 -63.5t-27.5 -61.5q-49 11 -72 11q-36 0 -83.5 -27t-94 -72t-87 -112t-59.5 -140l-112 -528h-160l215 1018q43 0 72 -12t41.5 -27.5t16 -41.5t2 -43.5t-6.5 -43.5l-6 -31q74 109 167.5 161t180.5 52h18zM117 -111q44 0 70 -27.5t26 -68.5
q0 -88 -73 -174.5t-158 -136.5q-21 0 -37.5 14.5t-22.5 34.5q96 60 139 139q-39 3 -61.5 27t-22.5 59q0 51 43 92t97 41z" />
    <glyph glyph-name="Rcaron" unicode="&#x158;" horiz-adv-x="1130" 
d="M780 1499q-72 -18 -129 0l-147 234q53 53 121 53l106 -189l187 189q36 0 66.5 -16t43.5 -37zM1108 1030q0 -167 -98.5 -297t-261.5 -186l227 -547h-180l-205 514q-18 -2 -55 -2h-218l-108 -512h-164l281 1317q189 41 348 41q216 0 325 -94.5t109 -233.5zM504 651
q202 0 321 96.5t119 256.5q0 101 -76.5 160t-238.5 59q-75 0 -164 -19l-117 -553h156z" />
    <glyph glyph-name="rcaron" unicode="&#x159;" horiz-adv-x="688" 
d="M584 1174q-72 -18 -129 0l-148 233q53 53 121 53l107 -190l186 190q36 0 66.5 -16t43.5 -37zM719 1032h18q8 -13 8 -39t-12.5 -63.5t-27.5 -61.5q-49 11 -72 11q-36 0 -83.5 -27t-94 -72t-87 -112t-59.5 -140l-112 -528h-160l215 1018q43 0 72 -12t41.5 -27.5t16 -41.5
t2 -43.5t-6.5 -43.5l-6 -31q74 109 167.5 161t180.5 52z" />
    <glyph glyph-name="Sacute" unicode="&#x15a;" horiz-adv-x="1034" 
d="M745 1456l-81 55l243 342l29 -14q57 -28 57 -67q0 -38 -82 -123zM981 1151q-145 72 -297 72q-145 0 -223 -59.5t-78 -153.5q0 -74 51 -124.5t199 -140.5q146 -90 209 -164t63 -171q0 -192 -147 -313.5t-381 -121.5q-194 0 -365 82q-9 78 49 156q190 -96 351 -96
q144 0 231 69t92 185q0 84 -51 143.5t-174 130.5q-162 92 -229.5 162.5t-67.5 173.5q0 176 132 278.5t372 102.5q163 0 311 -62q10 -25 -5.5 -70t-41.5 -79z" />
    <glyph glyph-name="sacute" unicode="&#x15b;" horiz-adv-x="806" 
d="M555 1130l-82 56l244 342l28 -15q58 -28 58 -67q0 -38 -82 -123zM27 186q78 -41 138.5 -58t129.5 -17q84 0 146.5 46.5t62.5 114.5q0 61 -33 102.5t-131 102.5q-100 64 -141 118t-41 138q0 137 103.5 223t295.5 86q79 0 146 -21t106 -46q-15 -76 -70 -131q-85 65 -221 65
q-95 0 -149 -40.5t-54 -106.5q0 -49 30.5 -88t113.5 -90q124 -76 169.5 -138.5t45.5 -144.5q0 -142 -112 -233t-298 -91q-146 0 -262 62q-6 18 -6 41q0 67 31 106z" />
    <glyph glyph-name="Scedilla" unicode="&#x15e;" horiz-adv-x="1034" 
d="M684 1223q-145 0 -223 -59.5t-78 -153.5q0 -74 51 -124.5t199 -140.5q146 -90 209 -164t63 -171q0 -174 -123 -292t-325 -138l-84 -115q21 6 45 6q67 0 107 -31.5t40 -91.5q0 -56 -28.5 -101.5t-73 -72t-93.5 -40t-96 -13.5q-71 0 -139 14q0 48 23 92q85 -20 147 -20
q66 0 112 34t46 83q0 63 -109 63q-36 0 -82 -12q-33 21 -28 55l108 145q-183 7 -340 82q-9 78 49 156q190 -96 351 -96q144 0 231 69t92 185q0 84 -51 143.5t-174 130.5q-162 92 -229.5 162.5t-67.5 173.5q0 176 132 278.5t372 102.5q163 0 311 -62q10 -25 -5.5 -70
t-41.5 -79q-145 72 -297 72z" />
    <glyph glyph-name="scedilla" unicode="&#x15f;" horiz-adv-x="806" 
d="M518 909q-95 0 -149 -40.5t-54 -106.5q0 -49 30.5 -88t113.5 -90q124 -76 169.5 -138.5t45.5 -144.5q0 -118 -79 -202.5t-216 -110.5l-88 -123q18 6 43 6q67 0 107 -31.5t40 -91.5q0 -56 -28.5 -101.5t-73 -72t-93.5 -40t-96 -13.5q-71 0 -139 14q0 48 23 92
q85 -20 147 -20q66 0 112 34t46 83q0 63 -109 63q-36 0 -82 -12q-33 21 -28 55l110 147h-6q-146 0 -262 62q-6 18 -6 41q0 67 31 106q78 -41 138.5 -58t129.5 -17q84 0 146.5 46.5t62.5 114.5q0 61 -33 102.5t-131 102.5q-100 64 -141 118t-41 138q0 137 103.5 223t295.5 86
q79 0 146 -21t106 -46q-15 -76 -70 -131q-85 65 -221 65z" />
    <glyph glyph-name="Scaron" unicode="&#x160;" horiz-adv-x="1034" 
d="M797 1499q-72 -18 -129 0l-148 234q53 53 121 53l107 -189l186 189q36 0 66.5 -16t43.5 -37zM717 1362q163 0 311 -62q10 -25 -5.5 -70t-41.5 -79q-145 72 -297 72q-145 0 -223 -59.5t-78 -153.5q0 -74 51 -124.5t199 -140.5q146 -90 209 -164t63 -171
q0 -192 -147 -313.5t-381 -121.5q-194 0 -365 82q-9 78 49 156q190 -96 351 -96q144 0 231 69t92 185q0 84 -51 143.5t-174 130.5q-162 92 -229.5 162.5t-67.5 173.5q0 176 132 278.5t372 102.5z" />
    <glyph glyph-name="scaron" unicode="&#x161;" horiz-adv-x="806" 
d="M743 1460q36 0 67 -16t44 -37l-248 -233q-72 -18 -129 0l-147 233q53 53 121 53l106 -190zM27 186q78 -41 138.5 -58t129.5 -17q84 0 146.5 46.5t62.5 114.5q0 61 -33 102.5t-131 102.5q-100 64 -141 118t-41 138q0 137 103.5 223t295.5 86q79 0 146 -21t106 -46
q-15 -76 -70 -131q-85 65 -221 65q-95 0 -149 -40.5t-54 -106.5q0 -49 30.5 -88t113.5 -90q124 -76 169.5 -138.5t45.5 -144.5q0 -142 -112 -233t-298 -91q-146 0 -262 62q-6 18 -6 41q0 67 31 106z" />
    <glyph glyph-name="uni0162" unicode="&#x162;" horiz-adv-x="1034" 
d="M494 0h-23l-98 -135q21 6 45 6q67 0 107 -31.5t40 -91.5q0 -56 -28.5 -101.5t-73 -72t-93.5 -40t-96 -13.5q-71 0 -139 14q0 48 23 92q85 -20 147 -20q66 0 112 34t46 83q0 63 -109 63q-36 0 -82 -12q-33 21 -28 55l127 170h-41l250 1180h-400q12 92 58 157h936
q-19 -96 -58 -157h-373z" />
    <glyph glyph-name="uni0163" unicode="&#x163;" horiz-adv-x="739" 
d="M432 1020h322q-7 -33 -26.5 -71t-47.5 -60h-277l-124 -592q-22 -101 5 -139.5t117 -38.5q58 0 131 18q29 -36 11 -131q-48 -20 -150 -26l-82 -115q18 6 43 6q67 0 107.5 -31.5t40.5 -91.5q0 -56 -28.5 -101.5t-73 -72t-93.5 -40t-96 -13.5q-71 0 -139 14q0 50 22 92
q85 -20 148 -20q66 0 111.5 34t45.5 83q0 63 -108 63q-35 0 -82 -12q-34 21 -29 55l111 150q-122 8 -166 72.5t-14 203.5l133 633h-133q19 82 131.5 185t226.5 122z" />
    <glyph glyph-name="Tcaron" unicode="&#x164;" horiz-adv-x="1034" 
d="M793 1497q-72 -18 -129 0l-148 234q53 53 121 53l106 -189l187 189q36 0 66.5 -16t43.5 -37zM1174 1337q-19 -96 -58 -157h-373l-249 -1180h-164l250 1180h-400q12 92 58 157h936z" />
    <glyph glyph-name="tcaron" unicode="&#x165;" horiz-adv-x="739" 
d="M635 1542q77 0 108 -19.5t21 -70.5q-10 -50 -49.5 -161.5t-75.5 -196.5q-56 0 -96 14zM469 1196l-37 -176h322q-7 -33 -26.5 -71t-47.5 -60h-277l-124 -592q-22 -101 5 -139.5t117 -38.5q58 0 131 18q29 -36 11 -131q-63 -29 -205 -29q-150 0 -205 64t-22 215l133 633
h-133q19 82 131.5 185t226.5 122z" />
    <glyph glyph-name="Tbar" unicode="&#x166;" horiz-adv-x="1034" 
d="M1116 1180h-373l-86 -404h287q-17 -60 -50 -99.5t-81 -39.5h-184l-135 -637h-164l135 637h-272q15 33 25.5 52.5t29 42t43 33.5t55.5 11h148l86 404h-400q12 92 58 157h936q-19 -96 -58 -157z" />
    <glyph glyph-name="tbar" unicode="&#x167;" horiz-adv-x="739" 
d="M432 1020h322q-7 -33 -26.5 -71t-47.5 -60h-277l-59 -287h287q-34 -115 -127 -115h-185l-40 -190q-22 -101 5 -139.5t117 -38.5q58 0 131 18q29 -36 11 -131q-63 -29 -205 -29q-150 0 -205 64t-22 215l49 231h-107q24 52 52 81t79 34l60 287h-133q19 82 131.5 185
t226.5 122z" />
    <glyph glyph-name="Umacron" unicode="&#x16a;" horiz-adv-x="1265" 
d="M639 1714h502l-29 -133h-502zM522 -20q-238 0 -344 142t-47 419l168 796q87 21 162 0l-172 -817q-39 -177 30 -283t232 -106q158 0 276.5 103t157.5 286l172 817q85 21 162 0l-168 -796q-57 -267 -221.5 -414t-407.5 -147z" />
    <glyph glyph-name="umacron" unicode="&#x16b;" horiz-adv-x="1075" 
d="M469 1391h502l-29 -134h-502zM879 1010q80 22 163 22l-219 -1032q-37 0 -64 8t-40 23.5t-20.5 30.5t-7 38t2.5 36.5t6 33.5l11 51q-78 -108 -178 -172.5t-211 -64.5q-152 0 -212.5 92t-19.5 272l150 662q80 22 163 22l-147 -647q-35 -148 -7 -215.5t130 -67.5
q59 0 123.5 39.5t117 100t93 131t57.5 133.5z" />
    <glyph glyph-name="Uring" unicode="&#x16e;" horiz-adv-x="1265" 
d="M836 1491q-87 0 -137 44.5t-50 121.5q0 114 79 191t196 77q87 0 135.5 -44.5t48.5 -121.5q0 -115 -78 -191.5t-194 -76.5zM854 1579q55 0 93 50.5t38 117.5q0 88 -80 88q-57 0 -95 -47.5t-38 -116.5q0 -43 21 -67.5t61 -24.5zM522 -20q-238 0 -344 142t-47 419l168 796
q87 21 162 0l-172 -817q-39 -177 30 -283t232 -106q158 0 276.5 103t157.5 286l172 817q85 21 162 0l-168 -796q-57 -267 -221.5 -414t-407.5 -147z" />
    <glyph glyph-name="uring" unicode="&#x16f;" horiz-adv-x="1075" 
d="M666 1167q-87 0 -137 44.5t-50 121.5q0 114 79 191.5t196 77.5q87 0 135.5 -44.5t48.5 -121.5q0 -115 -78 -192t-194 -77zM684 1255q55 0 93 50.5t38 117.5q0 88 -80 88q-57 0 -95 -47t-38 -116q0 -43 21 -68t61 -25zM879 1010q80 22 163 22l-219 -1032q-37 0 -64 8
t-40 23.5t-20.5 30.5t-7 38t2.5 36.5t6 33.5l11 51q-78 -108 -178 -172.5t-211 -64.5q-152 0 -212.5 92t-19.5 272l150 662q80 22 163 22l-147 -647q-35 -148 -7 -215.5t130 -67.5q59 0 123.5 39.5t117 100t93 131t57.5 133.5z" />
    <glyph glyph-name="Uhungarumlaut" unicode="&#x170;" horiz-adv-x="1265" 
d="M694 1430l-92 34l164 387l31 -8q61 -14 69 -53q8 -40 -53 -137zM952 1434l-78 63l279 315l27 -18q53 -34 49 -72q-1 -22 -23 -47.5t-71 -66.5zM522 -20q-238 0 -344 142t-47 419l168 796q87 21 162 0l-172 -817q-39 -177 30 -283t232 -106q158 0 276.5 103t157.5 286
l172 817q85 21 162 0l-168 -796q-57 -267 -221.5 -414t-407.5 -147z" />
    <glyph glyph-name="uhungarumlaut" unicode="&#x171;" horiz-adv-x="1075" 
d="M524 1106l-92 35l164 387l31 -8q61 -14 69 -54t-53 -137zM782 1110l-77 64l278 315l27 -19q53 -34 49 -71q-1 -22 -23.5 -48.5t-70.5 -66.5zM879 1010q80 22 163 22l-219 -1032q-37 0 -64 8t-40 23.5t-20.5 30.5t-7 38t2.5 36.5t6 33.5l11 51q-78 -108 -178 -172.5
t-211 -64.5q-152 0 -212.5 92t-19.5 272l150 662q80 22 163 22l-147 -647q-35 -148 -7 -215.5t130 -67.5q59 0 123.5 39.5t117 100t93 131t57.5 133.5z" />
    <glyph glyph-name="Uogonek" unicode="&#x172;" horiz-adv-x="1265" 
d="M1157 1337q85 21 162 0l-168 -796q-45 -217 -164 -356t-295 -185h2q-88 -50 -142 -116t-54 -126q0 -65 75 -65q42 0 89 26q18 -52 2 -106q-44 -27 -129 -27q-73 0 -114.5 32t-41.5 95q0 73 49 143t125 124h-31q-238 0 -344 142t-47 419l168 796q87 21 162 0l-172 -817
q-39 -177 30 -283t232 -106q158 0 276.5 103t157.5 286z" />
    <glyph glyph-name="uogonek" unicode="&#x173;" horiz-adv-x="1075" 
d="M827 0q-88 -50 -142 -116t-54 -126q0 -65 76 -65q41 0 88 26q18 -52 2 -106q-44 -27 -129 -27q-73 0 -114.5 32t-41.5 95q0 87 68 169.5t161 133.5q-23 12 -35.5 30.5t-13.5 43t1 41t7 39.5l11 51q-78 -108 -178 -172.5t-211 -64.5q-152 0 -212.5 92t-19.5 272l150 662
q80 22 163 22l-147 -647q-35 -148 -7 -215.5t130 -67.5q59 0 123.5 39.5t117 100t93 131t57.5 133.5l109 504q80 22 163 22l-219 -1030z" />
    <glyph glyph-name="Wcircumflex" unicode="&#x174;" horiz-adv-x="1718" 
d="M944 1477q-36 0 -68 16.5t-45 36.5l248 233q74 19 129 0l148 -233q-21 -21 -53.5 -37t-65.5 -16l-107 188zM1694 1337q93 23 180 0l-645 -1339q-92 -21 -189 0l-82 1089l-581 -1089q-97 -22 -189 0l5 1339q88 22 176 0l-21 -1095l582 1095q91 21 164 0l90 -1093z" />
    <glyph glyph-name="wcircumflex" unicode="&#x175;" horiz-adv-x="1349" 
d="M702 1151q-36 0 -67.5 16t-44.5 37l248 234q74 19 129 0l147 -234q-21 -21 -53.5 -37t-65.5 -16l-108 188zM1294 1020q90 21 160 0l-551 -1018q-38 -14 -78 -14q-45 0 -77 14l-37 795l-449 -795q-32 -14 -78 -14q-45 0 -80 14l9 1018q82 21 161 0l-26 -797l444 797
q76 21 146 0l41 -809z" />
    <glyph glyph-name="Ycircumflex" unicode="&#x176;" horiz-adv-x="1052" 
d="M612 1477q-36 0 -67.5 16t-44.5 37l248 233q74 19 129 0l147 -233q-21 -21 -53.5 -37t-65.5 -16l-106 188zM1219 1337l-621 -839l-104 -498h-164l112 535l-256 802q97 21 181 0l192 -653l477 653q98 22 183 0z" />
    <glyph glyph-name="ycircumflex" unicode="&#x177;" horiz-adv-x="931" 
d="M459 1151q-36 0 -68 16.5t-45 36.5l248 234q74 19 129 0l147 -234q-53 -53 -118 -53l-109 188zM856 1020q93 21 180 0l-563 -922q-208 -337 -498 -508q-40 9 -69 52.5t-25 87.5q266 136 418 342l-186 948q86 20 170 0l131 -748z" />
    <glyph glyph-name="Ydieresis" unicode="&#x178;" horiz-adv-x="1052" 
d="M600 1540q-40 0 -67 25t-27 63q0 54 43.5 95.5t99.5 41.5q41 0 68.5 -26t27.5 -64q0 -53 -44 -94t-101 -41zM926 1540q-40 0 -67.5 25t-27.5 63q0 54 44 95.5t100 41.5q45 0 71 -28t23 -70q-3 -51 -46 -89t-97 -38zM1219 1337l-621 -841l-104 -496h-164l112 537l-256 800
q97 21 181 0l192 -653l477 653q98 22 183 0z" />
    <glyph glyph-name="Zacute" unicode="&#x179;" horiz-adv-x="1228" 
d="M1014 1647l-166 -193l-82 55l244 342l28 -14q29 -14 43.5 -32.5t14.5 -35.5q0 -37 -82 -122zM1198 1337q26 -14 44.5 -57t8.5 -90l-1003 -1030h801q0 -35 -11 -88t-22 -72h-948q-24 13 -41 53t-9 84l1014 1041h-768q0 35 11.5 86t23.5 73h899z" />
    <glyph glyph-name="zacute" unicode="&#x17a;" horiz-adv-x="940" 
d="M813 1323l-166 -193l-82 56l244 342l29 -15q57 -28 57 -67q0 -38 -82 -123zM852 1020q33 -19 50.5 -61.5t8.5 -86.5l-714 -727h575v-22q0 -54 -33 -123h-676q-34 19 -51.5 61.5t-5.5 85.5l721 727h-541q-4 24 -4 35q0 58 37 111h633z" />
    <glyph glyph-name="Zdotaccent" unicode="&#x17b;" horiz-adv-x="1228" 
d="M836 1550q-42 0 -67.5 25t-25.5 63q0 51 41.5 91t100.5 40q41 0 66.5 -25.5t25.5 -62.5q0 -51 -42 -91t-99 -40zM1198 1337q26 -14 44.5 -57t8.5 -90l-1003 -1030h801q0 -35 -11 -88t-22 -72h-948q-24 13 -41 53t-9 84l1014 1041h-768q0 35 11.5 86t23.5 73h899z" />
    <glyph glyph-name="zdotaccent" unicode="&#x17c;" horiz-adv-x="940" 
d="M635 1227q-42 0 -67 25t-25 63q0 51 41 91t100 40q41 0 66.5 -25.5t25.5 -62.5q0 -51 -42 -91t-99 -40zM852 1020q33 -19 50.5 -61.5t8.5 -86.5l-714 -727h575v-22q0 -54 -33 -123h-676q-34 19 -51.5 61.5t-5.5 85.5l721 727h-541q-4 24 -4 35q0 58 37 111h633z" />
    <glyph glyph-name="Zcaron" unicode="&#x17d;" horiz-adv-x="1228" 
d="M899 1497q-72 -18 -129 0l-147 234q53 53 120 53l107 -189l186 189q36 0 67 -16t44 -37zM1198 1337q26 -14 44.5 -57t8.5 -90l-1003 -1030h801q0 -35 -11 -88t-22 -72h-948q-24 13 -41 53t-9 84l1014 1041h-768q0 35 11.5 86t23.5 73h899z" />
    <glyph glyph-name="zcaron" unicode="&#x17e;" horiz-adv-x="940" 
d="M696 1174q-72 -18 -129 0l-147 233q53 53 121 53l106 -190l187 190q36 0 66.5 -16t43.5 -37zM852 1020q33 -19 50.5 -61.5t8.5 -86.5l-714 -727h575v-22q0 -54 -33 -123h-676q-34 19 -51.5 61.5t-5.5 85.5l721 727h-541q-4 24 -4 35q0 58 37 111h633z" />
    <glyph glyph-name="florin" unicode="&#x192;" 
d="M948 1354q113 0 201 -58q-17 -97 -84 -133q-39 24 -64.5 33.5t-60.5 9.5q-74 0 -114.5 -41t-67.5 -149l-23 -88h314q-7 -133 -103 -133h-244l-133 -543q-93 -391 -366 -391q-60 0 -105 12t-96 45q16 90 84 135q43 -25 70.5 -35t60.5 -10q70 0 110.5 44t65.5 147l148 596
h-172q14 62 47 97.5t98 35.5h59l9 37q48 192 140 290.5t226 98.5z" />
    <glyph glyph-name="uni0218" unicode="&#x218;" horiz-adv-x="1034" 
d="M684 1223q-145 0 -223 -59.5t-78 -153.5q0 -74 51 -124.5t199 -140.5q146 -90 209 -164t63 -171q0 -192 -147 -313.5t-381 -121.5q-194 0 -365 82q-9 78 49 156q190 -96 351 -96q144 0 231 69t92 185q0 84 -51 143.5t-174 130.5q-162 92 -229.5 162.5t-67.5 173.5
q0 176 132 278.5t372 102.5q163 0 311 -62q10 -25 -5.5 -70t-41.5 -79q-145 72 -297 72zM408 -111q44 0 70 -27.5t26 -68.5q0 -88 -73 -175t-159 -136q-19 0 -35 14.5t-22 34.5q95 61 137 139q-39 3 -60.5 26.5t-21.5 59.5q0 51 42 92t96 41z" />
    <glyph glyph-name="uni0219" unicode="&#x219;" horiz-adv-x="806" 
d="M27 186q78 -41 138.5 -58t129.5 -17q84 0 146.5 46.5t62.5 114.5q0 61 -33 102.5t-131 102.5q-100 64 -141 118t-41 138q0 137 103.5 223t295.5 86q79 0 146 -21t106 -46q-15 -76 -70 -131q-85 65 -221 65q-95 0 -149 -40.5t-54 -106.5q0 -49 30.5 -88t113.5 -90
q124 -76 169.5 -138.5t45.5 -144.5q0 -142 -112 -233t-298 -91q-146 0 -262 62q-6 18 -6 41q0 67 31 106zM420 -207q0 -60 -40 -125t-90 -110t-102 -76q-19 0 -35 14.5t-22 34.5q95 61 137 139q-39 3 -60.5 27t-21.5 59q0 51 42 92t96 41q44 0 70 -27.5t26 -68.5z" />
    <glyph glyph-name="uni021A" unicode="&#x21a;" horiz-adv-x="1034" 
d="M1174 1337q-19 -96 -58 -157h-373l-249 -1180h-164l250 1180h-400q12 92 58 157h936zM408 -111q44 0 70 -27.5t26 -68.5q0 -88 -73 -175t-159 -136q-19 0 -35 14.5t-22 34.5q95 61 137 139q-39 3 -60.5 26.5t-21.5 59.5q0 51 42 92t96 41z" />
    <glyph glyph-name="uni021B" unicode="&#x21b;" horiz-adv-x="739" 
d="M432 1020h322q-7 -33 -26.5 -71t-47.5 -60h-277l-124 -592q-22 -101 5 -139.5t117 -38.5q58 0 131 18q29 -36 11 -131q-63 -29 -205 -29q-150 0 -205 64t-22 215l133 633h-133q19 82 131.5 185t226.5 122zM344 -111q44 0 70 -27.5t26 -68.5q0 -88 -73 -174.5t-158 -136.5
q-19 0 -35 14.5t-22 34.5q95 61 137 139q-39 3 -60.5 27t-21.5 59q0 51 41.5 92t95.5 41z" />
    <glyph glyph-name="uni0237" unicode="&#x237;" horiz-adv-x="446" 
d="M-162 -471q-29 9 -51.5 41.5t-22.5 69.5q90 58 170 158t103 208l213 1010q40 16 84.5 16.5t75.5 -16.5l-203 -961q-42 -195 -146 -333.5t-223 -192.5z" />
    <glyph glyph-name="circumflex" unicode="&#x2c6;" horiz-adv-x="524" 
d="M530 1464l148 -233q-21 -21 -53.5 -37t-65.5 -16l-108 188l-185 -188q-36 0 -67.5 16t-44.5 37l247 233q74 19 129 0z" />
    <glyph glyph-name="caron" unicode="&#x2c7;" horiz-adv-x="524" 
d="M604 1460q36 0 67 -16t44 -37l-248 -233q-72 -18 -129 0l-148 233q53 53 121 53l107 -190z" />
    <glyph glyph-name="breve" unicode="&#x2d8;" horiz-adv-x="591" 
d="M793 1450q-11 -48 -37.5 -94t-68.5 -87t-106.5 -66t-140.5 -25q-62 0 -109.5 16.5t-74 44t-43 63t-17 73t4.5 75.5q74 23 137 0q-6 -22 -0.5 -49t17 -51t41 -40t71.5 -16q43 0 78.5 16t57 42t34 50t18.5 48q75 23 138 0z" />
    <glyph glyph-name="dotaccent" unicode="&#x2d9;" horiz-adv-x="227" 
d="M268 1233q-41 0 -66.5 25.5t-25.5 62.5q0 48 42.5 89.5t94.5 41.5q41 0 68 -26.5t27 -63.5q0 -49 -43.5 -89t-96.5 -40z" />
    <glyph glyph-name="ring" unicode="&#x2da;" horiz-adv-x="450" 
d="M369 1167q-88 0 -137.5 45t-49.5 123q0 113 79 190t196 77q87 0 135.5 -44.5t48.5 -121.5q0 -114 -78.5 -191.5t-193.5 -77.5zM387 1255q55 0 93 50.5t38 117.5q0 41 -20 65.5t-60 24.5q-57 0 -95 -47t-38 -118q0 -42 21 -67.5t61 -25.5z" />
    <glyph glyph-name="ogonek" unicode="&#x2db;" horiz-adv-x="311" 
d="M-8 -410q-74 0 -115 32t-41 95q0 94 77 181t177 135l62 -29q-88 -50 -142.5 -116t-54.5 -126q0 -65 76 -65q39 0 88 27q18 -52 2 -107q-44 -27 -129 -27z" />
    <glyph glyph-name="tilde" unicode="&#x2dc;" horiz-adv-x="589" 
d="M256 1227q-55 0 -98 16q21 102 80.5 155.5t136.5 53.5q35 0 65.5 -15.5t49.5 -33.5t46.5 -33.5t55.5 -15.5q37 0 62.5 34.5t33.5 71.5q54 3 100 -16q-22 -100 -79 -153.5t-125 -53.5q-38 0 -72 15.5t-54 34.5t-46.5 34.5t-51.5 15.5q-41 0 -69 -34.5t-35 -75.5z" />
    <glyph glyph-name="hungarumlaut" unicode="&#x2dd;" horiz-adv-x="647" 
d="M125 1106l-92 35l164 387l30 -8q62 -14 70 -54t-53 -137zM373 1079l-76 64l276 315l29 -18q53 -34 49 -72q-5 -41 -94 -115z" />
    <glyph glyph-name="gravecomb" unicode="&#x300;" horiz-adv-x="0" 
d="M-98 1133l-166 233q-31 44 -31 72q0 20 17.5 40.5t54.5 34.5l33 13l182 -350z" />
    <glyph glyph-name="acutecomb" unicode="&#x301;" horiz-adv-x="0" 
d="M-233 1130l-82 56l243 342l29 -15q57 -28 57 -67q0 -38 -82 -123z" />
    <glyph glyph-name="uni0302" unicode="&#x302;" horiz-adv-x="0" 
d="M6 1464l148 -233q-21 -21 -53.5 -37t-65.5 -16l-109 188l-184 -188q-36 0 -68 16.5t-45 36.5l248 233q74 19 129 0z" />
    <glyph glyph-name="tildecomb" unicode="&#x303;" horiz-adv-x="0" 
d="M-328 1227q-61 0 -104 16q19 102 73 155.5t123 53.5q41 0 76 -15.5t57 -33.5t53 -33.5t64 -15.5q31 0 53 32.5t27 73.5q60 3 107 -16q-21 -100 -72 -153.5t-113 -53.5q-44 0 -83 15.5t-62 34.5t-53 34.5t-58 15.5q-35 0 -58.5 -32t-29.5 -78z" />
    <glyph glyph-name="uni0304" unicode="&#x304;" horiz-adv-x="0" 
d="M-315 1391h503l-28 -134h-504z" />
    <glyph glyph-name="uni0306" unicode="&#x306;" horiz-adv-x="0" 
d="M201 1450q-11 -48 -37.5 -94t-68.5 -87t-106.5 -66t-140.5 -25q-62 0 -109.5 16.5t-74 44t-43 63t-17 73t4.5 75.5q74 23 137 0q-6 -22 -0.5 -49t17 -51t41 -40t71.5 -16q43 0 78.5 16t57 42t34 50t18.5 48q75 23 138 0z" />
    <glyph glyph-name="uni0307" unicode="&#x307;" horiz-adv-x="0" 
d="M39 1233q-42 0 -67 25t-25 63q0 51 41 91t100 40q41 0 66.5 -25.5t25.5 -62.5q0 -51 -42 -91t-99 -40z" />
    <glyph glyph-name="uni0308" unicode="&#x308;" horiz-adv-x="0" 
d="M-291 1229q-40 0 -67 25t-27 63q0 54 43.5 95.5t99.5 41.5q41 0 69 -26t28 -64q0 -53 -44.5 -94t-101.5 -41zM35 1229q-40 0 -67 25t-27 63q0 54 43.5 95.5t99.5 41.5q45 0 71 -28t23 -70q-3 -51 -46 -89t-97 -38z" />
    <glyph glyph-name="uni030A" unicode="&#x30a;" horiz-adv-x="0" 
d="M-82 1167q-87 0 -136.5 44.5t-49.5 121.5q0 114 78.5 191.5t195.5 77.5q87 0 135.5 -44.5t48.5 -121.5q0 -115 -78 -192t-194 -77zM-63 1255q55 0 93 50.5t38 117.5q0 88 -80 88q-57 0 -95 -47t-38 -116q0 -43 21 -68t61 -25z" />
    <glyph glyph-name="uni030B" unicode="&#x30b;" horiz-adv-x="0" 
d="M-553 1106l-92 35l164 387l30 -8q62 -14 70 -54t-53 -137zM-295 1110l-78 64l279 315l26 -19q54 -34 50 -71q-2 -38 -95 -115z" />
    <glyph glyph-name="uni030C" unicode="&#x30c;" horiz-adv-x="0" 
d="M80 1460q36 0 66.5 -16t43.5 -37l-247 -233q-72 -18 -129 0l-148 233q53 53 121 53l107 -190z" />
    <glyph glyph-name="uni0312" unicode="&#x312;" horiz-adv-x="0" 
d="M88 1427q37 -4 58.5 -30t21.5 -60q0 -52 -40.5 -92.5t-96.5 -40.5q-44 0 -70.5 26t-26.5 66q0 82 74.5 174.5t157.5 141.5q19 -2 35 -16t22 -35q-94 -61 -135 -134z" />
    <glyph glyph-name="uni0315" unicode="&#x315;" horiz-adv-x="0" 
d="M68 1053q-57 0 -97 14l92 434q77 0 108.5 -19.5t21.5 -70.5q-10 -50 -49.5 -161.5t-75.5 -196.5z" />
    <glyph glyph-name="uni0326" unicode="&#x326;" horiz-adv-x="0" 
d="M-158 -207q0 -88 -73 -174.5t-158 -136.5q-21 0 -37.5 14.5t-22.5 34.5q97 61 140 139q-39 3 -61.5 27t-22.5 59q0 51 42 92t95 41q46 0 72 -27.5t26 -68.5z" />
    <glyph glyph-name="uni0327" unicode="&#x327;" horiz-adv-x="0" 
d="M-313 -129q67 0 107 -31.5t40 -91.5q0 -56 -28.5 -101.5t-73 -72t-94 -40t-97.5 -13.5q-69 0 -137 14q0 52 21 92q85 -20 147 -20q68 0 114 34t46 83q0 63 -109 63q-39 0 -82 -12q-36 22 -28 55l127 170h100l-96 -135q18 6 43 6z" />
    <glyph glyph-name="uni0328" unicode="&#x328;" horiz-adv-x="0" 
d="M-319 -410q-74 0 -115 32t-41 95q0 94 77 181t177 135l61 -29q-88 -50 -142 -116t-54 -126q0 -65 75 -65q39 0 88 27q19 -54 3 -107q-44 -27 -129 -27z" />
    <glyph glyph-name="Wgrave" unicode="&#x1e80;" horiz-adv-x="1718" 
d="M1036 1458l-166 234q-30 43 -30 71q0 20 17 41t54 35l33 12l182 -350zM1694 1337q93 23 180 0l-645 -1339q-92 -21 -189 0l-82 1092l-581 -1092q-97 -22 -189 0l5 1339q88 22 176 0l-21 -1095l582 1095q91 21 164 0l90 -1093z" />
    <glyph glyph-name="wgrave" unicode="&#x1e81;" horiz-adv-x="1349" 
d="M795 1133l-166 233q-31 44 -31 72q0 20 17.5 40.5t54.5 34.5l32 13l183 -350zM1294 1020q90 21 160 0l-551 -1018q-38 -14 -78 -14q-45 0 -77 14l-37 795l-449 -795q-32 -14 -78 -14q-45 0 -80 14l9 1018q82 21 161 0l-26 -797l444 797q76 21 146 0l41 -809z" />
    <glyph glyph-name="Wacute" unicode="&#x1e82;" horiz-adv-x="1718" 
d="M1268 1649l-166 -193l-82 55l244 342l28 -14q58 -28 58 -67q0 -38 -82 -123zM1694 1337q93 23 180 0l-645 -1339q-92 -21 -189 0l-82 1089l-581 -1089q-97 -22 -189 0l5 1339q88 22 176 0l-21 -1095l582 1095q91 21 164 0l90 -1093z" />
    <glyph glyph-name="wacute" unicode="&#x1e83;" horiz-adv-x="1349" 
d="M1026 1323l-166 -193l-82 56l244 342l29 -15q57 -28 57 -67q0 -38 -82 -123zM1294 1020q90 21 160 0l-551 -1018q-38 -14 -78 -14q-45 0 -77 14l-37 795l-449 -795q-32 -14 -78 -14q-45 0 -80 14l9 1018q82 21 161 0l-26 -797l444 797q76 21 146 0l41 -809z" />
    <glyph glyph-name="Wdieresis" unicode="&#x1e84;" horiz-adv-x="1718" 
d="M932 1540q-40 0 -67 25t-27 63q0 54 43.5 95.5t99.5 41.5q41 0 68.5 -26t27.5 -64q0 -53 -44 -94t-101 -41zM1257 1540q-40 0 -67 25t-27 63q0 54 44 95.5t100 41.5q45 0 71 -28t23 -70q-3 -51 -46.5 -89t-97.5 -38zM1694 1337q93 23 180 0l-645 -1339q-92 -21 -189 0
l-82 1092l-581 -1092q-97 -22 -189 0l5 1339q88 22 176 0l-21 -1095l582 1095q91 21 164 0l90 -1093z" />
    <glyph glyph-name="wdieresis" unicode="&#x1e85;" horiz-adv-x="1349" 
d="M690 1214q-40 0 -67 25.5t-27 63.5q0 54 43.5 95.5t99.5 41.5q41 0 69 -26t28 -64q0 -53 -44.5 -94.5t-101.5 -41.5zM1016 1214q-40 0 -67 25.5t-27 63.5q0 54 43.5 95.5t99.5 41.5q45 0 71 -28.5t23 -70.5q-3 -51 -46 -89t-97 -38zM1294 1020q90 21 160 0l-551 -1018
q-38 -14 -78 -14q-45 0 -77 14l-37 795l-449 -795q-32 -14 -78 -14q-45 0 -80 14l9 1018q82 21 161 0l-26 -797l444 797q76 21 146 0l41 -809z" />
    <glyph glyph-name="uni1E9E" unicode="&#x1e9e;" horiz-adv-x="1404" 
d="M987 774q133 -53 222 -146.5t89 -191.5q0 -216 -137.5 -339.5t-367.5 -123.5q-96 0 -157.5 11t-141.5 36q-3 89 47 158q96 -34 158 -47.5t126 -13.5q140 0 222.5 77t82.5 199q0 89 -65.5 153t-226.5 124q-52 40 -35 118l332 371q-110 70 -295 70q-195 0 -319 -97
t-163 -288l-180 -844q-86 -24 -162 0l174 823q57 267 237 405t470 140q269 3 477 -147z" />
    <glyph glyph-name="Ygrave" unicode="&#x1ef2;" horiz-adv-x="1052" 
d="M705 1458l-166 234q-31 44 -31 71q0 20 17.5 41t54.5 35l32 12l183 -350zM1219 1337l-621 -841l-104 -496h-164l112 537l-256 800q97 21 181 0l192 -653l477 653q98 22 183 0z" />
    <glyph glyph-name="ygrave" unicode="&#x1ef3;" horiz-adv-x="931" 
d="M551 1133l-166 233q-31 44 -31 72q0 20 17.5 40.5t54.5 34.5l33 13l182 -350zM856 1020q93 21 180 0l-563 -922q-208 -337 -498 -508q-40 9 -69 52.5t-25 87.5q261 133 418 342l-186 948q86 20 170 0l131 -748z" />
    <glyph glyph-name="endash" unicode="&#x2013;" horiz-adv-x="1024" 
d="M66 559q17 83 44.5 111t94.5 28h807q-18 -81 -45 -110t-95 -29h-806z" />
    <glyph glyph-name="emdash" unicode="&#x2014;" horiz-adv-x="1638" 
d="M66 559q17 83 44.5 111t94.5 28h1421q-18 -81 -44.5 -110t-94.5 -29h-1421z" />
    <glyph glyph-name="quoteleft" unicode="&#x2018;" horiz-adv-x="376" 
d="M522 1364q-50 -38 -95 -91.5t-73 -105.5q38 -3 61 -29t23 -65q0 -61 -37 -105t-104 -44q-47 0 -78 32.5t-31 81.5q0 93 84 201.5t189 173.5q20 -3 37 -16t24 -33z" />
    <glyph glyph-name="quoteright" unicode="&#x2019;" horiz-adv-x="376" 
d="M360 1407q47 0 77 -32.5t30 -82.5q0 -93 -83 -201t-187 -173q-45 7 -64 49q110 83 170 196q-38 3 -62 29.5t-24 64.5q0 61 38 105.5t105 44.5z" />
    <glyph glyph-name="quotesinglbase" unicode="&#x201a;" horiz-adv-x="376" 
d="M98 178q47 0 77 -32.5t30 -82.5q0 -94 -83.5 -201.5t-189.5 -174.5q-46 11 -61 51q50 37 95 89.5t73 104.5q-38 3 -61 30t-23 67q0 61 38 105t105 44z" />
    <glyph glyph-name="quotedblleft" unicode="&#x201c;" horiz-adv-x="714" 
d="M461 1413q20 -3 37 -16t24 -33q-50 -38 -95 -91.5t-73 -105.5q38 -3 61 -29t23 -65q0 -61 -37 -105t-104 -44q-47 0 -78 32.5t-31 81.5q0 93 84 201.5t189 173.5zM860 1364q-109 -82 -170 -197q38 -3 62 -29.5t24 -64.5q0 -61 -38 -105t-105 -44q-47 0 -77 32t-30 82
q0 92 83.5 201t187.5 174q44 -7 63 -49z" />
    <glyph glyph-name="quotedblright" unicode="&#x201d;" horiz-adv-x="714" 
d="M360 1407q47 0 77 -32.5t30 -82.5q0 -93 -83 -201t-187 -173q-45 7 -64 49q110 83 170 196q-38 3 -62 29.5t-24 64.5q0 61 38 105.5t105 44.5zM696 1407q47 0 78 -32.5t31 -82.5q0 -93 -84 -201t-189 -173q-20 3 -37 16t-24 33q50 39 95 91.5t73 104.5q-38 3 -61 29
t-23 65q0 61 37 105.5t104 44.5z" />
    <glyph glyph-name="quotedblbase" unicode="&#x201e;" horiz-adv-x="712" 
d="M98 178q47 0 77 -32.5t30 -82.5q0 -94 -83.5 -201.5t-189.5 -174.5q-46 11 -61 51q50 37 95 89.5t73 104.5q-38 3 -61 30t-23 67q0 61 38 105t105 44zM434 178q47 0 78 -32.5t31 -82.5q0 -94 -83.5 -201.5t-189.5 -174.5q-46 11 -61 51q50 37 95 89.5t73 104.5
q-38 3 -61 30t-23 67q0 61 37 105t104 44z" />
    <glyph glyph-name="dagger" unicode="&#x2020;" horiz-adv-x="894" 
d="M664 1135h272q-7 -27 -30 -67.5t-50 -66.5h-223l-168 -731q-67 -15 -125 0l141 731h-284q6 29 30 70.5t49 63.5h232l51 266q38 22 86.5 22t79.5 -22z" />
    <glyph glyph-name="daggerdbl" unicode="&#x2021;" horiz-adv-x="897" 
d="M659 1135h277q-5 -25 -29 -67.5t-51 -66.5h-229l-37 -147l-29 -158h283q-7 -27 -30 -67t-50 -66h-225l-47 -266q-38 -20 -87.5 -20t-78.5 20l67 266h-289q9 30 31 69.5t49 63.5h242l39 158l24 147h-292q6 28 30 70t49 64h238l45 266q39 21 87.5 21t78.5 -21z" />
    <glyph glyph-name="bullet" unicode="&#x2022;" horiz-adv-x="571" 
d="M270 440q-69 0 -112 43t-43 109q0 91 72 162t165 71q70 0 114 -42t44 -107q0 -91 -73.5 -163.5t-166.5 -72.5z" />
    <glyph glyph-name="ellipsis" unicode="&#x2026;" horiz-adv-x="1253" 
d="M111 -10q-46 0 -75.5 29t-29.5 73q0 60 48.5 108t111.5 48q46 0 75 -29t29 -72q0 -62 -48 -109.5t-111 -47.5zM526 -10q-46 0 -75 29t-29 73q0 60 48.5 108t111.5 48q46 0 75 -29t29 -72q0 -62 -48.5 -109.5t-111.5 -47.5zM922 -10q-46 0 -75.5 29t-29.5 73
q0 60 48.5 108t111.5 48q47 0 75.5 -29t28.5 -72q0 -62 -48 -109.5t-111 -47.5z" />
    <glyph glyph-name="perthousand" unicode="&#x2030;" horiz-adv-x="2191" 
d="M113 14l1144 1262q69 76 117 88t117 -21l-1143 -1261q-69 -76 -114.5 -88.5t-120.5 20.5zM520 1358q-103 0 -188.5 -60.5t-135 -165t-49.5 -229.5q0 -115 61.5 -175t166.5 -60q155 0 264 133.5t109 324.5q0 114 -61.5 173t-166.5 59zM395 772q-59 0 -90 37.5t-31 105.5
q0 139 66 238.5t158 99.5q120 0 120 -141q0 -137 -65.5 -238.5t-157.5 -101.5zM1194 674q-103 0 -188.5 -60.5t-135 -165t-49.5 -229.5q0 -114 61.5 -174.5t166.5 -60.5q155 0 263.5 133t108.5 325q0 114 -61 173t-166 59zM1888 674q-103 0 -188.5 -60.5t-134.5 -165
t-49 -229.5q0 -114 60.5 -174.5t164.5 -60.5q102 0 188 60.5t135.5 166t49.5 231.5q0 114 -61 173t-165 59zM1071 88q-61 0 -92 37t-31 106q0 140 65.5 239t157.5 99q121 0 121 -141q0 -138 -65 -239t-156 -101zM1763 88q-121 0 -121 143q0 139 66 238.5t158 99.5
q59 0 90 -36.5t31 -104.5q0 -138 -66.5 -239t-157.5 -101z" />
    <glyph glyph-name="guilsinglleft" unicode="&#x2039;" horiz-adv-x="581" 
d="M592 983l-352 -451l192 -436q-86 -21 -162 0l-147 340q-25 59 -25 80q0 23 12 48t21.5 37.5t36.5 45.5l266 334q80 26 158 2z" />
    <glyph glyph-name="guilsinglright" unicode="&#x203a;" horiz-adv-x="581" 
d="M471 643q27 -64 27 -82q0 -12 -3.5 -24.5t-6.5 -20.5t-12.5 -22.5t-13 -19.5t-17.5 -22.5t-17 -21.5l-268 -334q-88 -25 -158 0l352 447l-192 438q87 24 162 0z" />
    <glyph glyph-name="fraction" unicode="&#x2044;" horiz-adv-x="346" 
d="M-389 -92q-57 0 -84 24l1204 1473q31 39 92 39q41 0 66 -25l-1206 -1476q-25 -35 -72 -35z" />
    <glyph glyph-name="lira" unicode="&#x20a4;" 
d="M905 471q86 23 158 0l-16 -76q-87 -395 -510 -395h-392l95 449l-197 -91q-2 8 -2 27q0 99 96 145l133 62l33 153l-197 -90q-2 8 -2 27q0 48 26.5 86t70.5 59l133 60l94 450q87 21 164 0l-78 -366l401 182v-10q0 -118 -106 -168l-326 -148l-30 -153l399 182v-10
q0 -119 -104 -168l-326 -148l-84 -391h197q162 0 246.5 74t123.5 258z" />
    <glyph glyph-name="uni20A6" unicode="&#x20a6;" 
d="M1108 782h-53l-41 -194h114q-13 -58 -36.5 -95.5t-53.5 -37.5h-53l-96 -455q-88 -22 -164 0l-137 455h-299l-96 -455h-164l96 455h-121q37 133 113 133h37l41 194h-121q33 133 112 133h37l90 422q89 23 164 0l125 -422h318l90 422h164l-91 -422h115q-13 -58 -36.5 -95.5
t-53.5 -37.5zM406 1069l-25 -154h70zM317 588h232l-57 194h-134zM850 588l41 194h-250l57 -194h152zM795 256l30 199h-88z" />
    <glyph glyph-name="uni20A8" unicode="&#x20a8;" 
d="M1243 1337q-13 -58 -47 -95.5t-84 -37.5h-268q82 -85 82 -215q0 -27 -2 -41h237q-13 -58 -47 -95.5t-84 -37.5h-139q-60 -142 -199 -237.5t-311 -104.5l489 -473h-223l-508 481q25 113 154 113q159 0 275 58.5t169 162.5h-628q36 133 133 133h530q2 12 2 35
q0 100 -63 160.5t-201 60.5h-320q37 133 134 133h919z" />
    <glyph glyph-name="uni20A9" unicode="&#x20a9;" 
d="M1227 1337l-129 -385h108q-12 -58 -34 -95.5t-52 -37.5h-67l-62 -184h154q-12 -58 -34 -95.5t-52 -37.5h-113l-170 -504q-90 -20 -184 0l31 504h-142l-178 -504q-90 -21 -184 0l45 504h-158q32 133 109 133h61l17 184h-127q29 133 108 133h29l35 385q85 20 161 0
l-49 -385h172l131 385q44 11 75.5 11t72.5 -11l-27 -385h178l115 385q86 20 160 0zM653 985l-12 -33h10zM334 819l-25 -184h105l61 184h-141zM528 635h103l12 184h-49zM858 635l55 184h-149l-14 -184h108zM248 154l119 348h-74zM717 162l100 340h-76z" />
    <glyph glyph-name="uni20AA" unicode="&#x20aa;" 
d="M666 2q-62 0 -111.5 7.5t-95 25.5t-74.5 47.5t-49 73.5t-19 104t15 139l102 482h119l-100 -465q-10 -49 -10 -88t7.5 -65.5t24 -45.5t34.5 -29.5t44 -16.5t47.5 -7.5t50.5 -1.5h226l249 1177h119l-284 -1337h-295zM-51 0l284 1337h285q65 0 117 -8t98.5 -27t76 -49
t49.5 -74.5t19.5 -103.5t-14.5 -135l-100 -481h-119l98 465q9 52 10 91.5t-12.5 67.5t-31 46.5t-46.5 29t-59.5 15t-68.5 4.5h-216l-249 -1178h-121z" />
    <glyph glyph-name="Euro" unicode="&#x20ac;" 
d="M856 1358q269 0 381 -166q-19 -41 -56.5 -69t-78.5 -38q-42 67 -105.5 99.5t-160.5 32.5q-117 0 -220 -86.5t-170 -233.5h445q-38 -133 -131 -133h-363q-25 -87 -37 -176h353q-17 -59 -49.5 -96t-81.5 -37h-230v-6q0 -156 64 -239t188 -83q188 0 322 131q37 -10 63.5 -38
t26.5 -68q-174 -166 -432 -166q-185 0 -287 121t-102 335v13h-172q29 68 61 100.5t92 32.5h27q11 83 37 176h-152q26 65 59.5 99t94.5 34h45q90 208 242 334.5t327 126.5z" />
    <glyph glyph-name="uni20BD" unicode="&#x20bd;" 
d="M543 502h-137l-41 -197h346q-13 -57 -47 -95t-84 -38h-244l-37 -172h-164l37 172h-184q13 60 47 96.5t86 36.5h80l41 197h-183q13 67 48.5 103t85.5 36h77l144 676q205 41 342 41q113 0 199.5 -28.5t135.5 -78t73 -107.5t24 -124q0 -138 -88 -257.5t-237 -190t-320 -70.5
zM555 1206l-121 -565h119q211 0 340 99.5t129 263.5q0 98 -76 156.5t-244 58.5q-87 0 -147 -13z" />
    <glyph glyph-name="trademark" unicode="&#x2122;" horiz-adv-x="1454" 
d="M1354 1348q86 14 176 0l-144 -674h-129l62 284l51 209l-262 -444q-65 -11 -119 0l-74 440l-36 -205l-60 -284h-129l144 674q86 14 176 0l75 -451zM700 1239h-176l-121 -565h-129l121 565h-192q10 60 35 109h497q-10 -45 -35 -109z" />
    <glyph glyph-name="oneeighth" unicode="&#x215b;" horiz-adv-x="1988" 
d="M1624 1444q41 0 66 -25l-1205 -1476q-28 -35 -71 -35q-55 0 -86 24l1204 1473q31 39 92 39zM125 467q-6 60 25 121h217l125 571q-187 -63 -222 -63q-25 35 -28 98q149 77 368 158q12 -3 32.5 -20.5t23.5 -26.5l-154 -717h193q6 -61 -25 -121h-555zM1704 465
q137 -82 137 -186q1 -124 -113.5 -208.5t-271.5 -84.5q-130 0 -204 57t-74 156q0 81 69 154.5t166 103.5q-100 66 -100 170q0 108 101 183t235 75q109 0 176.5 -48t68.5 -130q0 -71 -56 -139.5t-134 -102.5zM1626 774q-77 0 -126.5 -36t-49.5 -91q0 -43 31 -70t118 -61
q65 21 109.5 65t44.5 93q0 46 -35 73t-92 27zM1487 109q85 0 143 39.5t58 97.5q0 92 -158 153q-80 -14 -140.5 -63.5t-60.5 -106.5q0 -59 43.5 -89.5t114.5 -30.5z" />
    <glyph glyph-name="threeeighths" unicode="&#x215c;" horiz-adv-x="2000" 
d="M1636 1444q41 0 66 -25l-1204 -1476q-28 -35 -72 -35q-55 0 -86 24l1204 1473q31 39 92 39zM748 758q0 -128 -114 -215.5t-274 -87.5q-173 0 -258 65q0 91 37 146q38 -36 104.5 -61t131.5 -25q94 0 158.5 43t64.5 110q0 121 -199 121h-104q0 35 17 70t38 51h53
q122 0 191.5 40.5t69.5 117.5q0 45 -37.5 68.5t-106.5 23.5q-127 0 -268 -90q-7 58 18 133q141 84 299 84q109 0 173.5 -52.5t64.5 -142.5q0 -74 -49.5 -139.5t-132.5 -97.5q57 -21 90 -63t33 -99zM1716 465q137 -82 137 -186q1 -124 -113.5 -208.5t-271.5 -84.5
q-130 0 -204 57t-74 156q0 81 69 154.5t166 103.5q-100 66 -100 170q0 108 101 183t235 75q109 0 177 -48t69 -130q0 -71 -56.5 -139.5t-134.5 -102.5zM1638 774q-77 0 -126.5 -36t-49.5 -91q0 -43 31 -70t119 -61q65 21 109 64.5t44 93.5q0 46 -35 73t-92 27zM1499 109
q85 0 143 39.5t58 97.5q0 92 -158 153q-80 -14 -140.5 -63.5t-60.5 -106.5q0 -59 43.5 -89.5t114.5 -30.5z" />
    <glyph glyph-name="fiveeighths" unicode="&#x215d;" horiz-adv-x="1968" 
d="M1604 1444q40 0 65 -25l-1204 -1476q-28 -35 -72 -35q-55 0 -86 24l1204 1473q31 39 93 39zM739 786q1 -152 -119.5 -241.5t-306.5 -89.5q-135 0 -215 45q-4 34 2 65q6 38 35 64q105 -54 211 -54q108 0 176 47.5t68 122.5q0 128 -215 162l-76 13q-28 14 -50 41t-18 53
l158 323h459q0 -30 -14.5 -57.5t-49.5 -65.5h-307l-88 -178l125 -28q104 -22 164 -80.5t61 -141.5zM1683 465q138 -82 138 -186q1 -124 -113.5 -208.5t-271.5 -84.5q-130 0 -204.5 57t-74.5 156q0 81 69.5 154.5t166.5 103.5q-101 67 -101 170q0 108 101 183t235 75
q109 0 177 -48t69 -130q0 -71 -56.5 -139.5t-134.5 -102.5zM1606 774q-77 0 -126.5 -36t-49.5 -91q0 -43 31 -70t118 -61q65 21 109.5 65t44.5 93q0 46 -35 73t-92 27zM1466 109q85 0 143 39.5t58 97.5q0 92 -158 153q-80 -14 -140 -63.5t-60 -106.5q0 -59 43 -89.5
t114 -30.5z" />
    <glyph glyph-name="seveneighths" unicode="&#x215e;" horiz-adv-x="1896" 
d="M1532 1444q40 0 65 -25l-1204 -1476q-28 -35 -71 -35q-55 0 -86 24l1204 1473q31 39 92 39zM352 467q-85 -17 -147 0q4 17 247 313t361 434h-547q-3 63 25 123h614q45 -45 45 -123zM1612 465q137 -82 137 -186q1 -124 -113.5 -208.5t-271.5 -84.5q-130 0 -204.5 57
t-74.5 156q0 81 69.5 154.5t166.5 103.5q-100 66 -100 170q0 108 101 183t234 75q109 0 177 -48t69 -130q0 -71 -56 -139.5t-134 -102.5zM1534 774q-77 0 -126.5 -36t-49.5 -91q0 -43 31 -70t118 -61q65 21 109.5 65t44.5 93q0 46 -35 73t-92 27zM1395 109q85 0 142.5 39.5
t57.5 97.5q0 92 -157 153q-80 -14 -140.5 -63.5t-60.5 -106.5q0 -59 43.5 -89.5t114.5 -30.5z" />
    <glyph glyph-name="arrowleft" unicode="&#x2190;" horiz-adv-x="1058" 
d="M1016 555l-567 2l-146 10l229 -143q50 -31 53.5 -63t-36.5 -103l-404 277q-33 23 -44 42.5t-11 49.5t11 48.5t44 41.5l404 276q41 -72 37 -103.5t-54 -62.5l-231 -143l148 10h567q18 -68 0 -139z" />
    <glyph glyph-name="arrowup" unicode="&#x2191;" horiz-adv-x="847" 
d="M549 1075l276 -403q-71 -41 -103 -37.5t-63 53.5l-143 227l12 -143v-567q-68 -18 -139 0v567l12 146l-145 -230q-30 -50 -61 -53.5t-105 37.5l277 403q22 32 41 42.5t49 10.5q32 0 51 -10t41 -43z" />
    <glyph glyph-name="arrowright" unicode="&#x2192;" horiz-adv-x="1056" 
d="M963 717q33 -23 44 -41.5t11 -48.5t-11 -49.5t-44 -42.5l-404 -277q-40 71 -37 103t53 63l230 143l-146 -10l-567 -2q-18 71 0 139h567l148 -10l-232 143q-50 31 -53.5 62.5t37.5 103.5z" />
    <glyph glyph-name="arrowdown" unicode="&#x2193;" horiz-adv-x="847" 
d="M641 565q31 50 63 54t103 -37l-277 -404q-22 -33 -41 -43t-51 -10q-30 0 -49 10.5t-41 42.5l-276 404q74 41 105 37t61 -54l145 -229l-12 145v568q71 18 139 0v-568l-12 -143z" />
    <glyph glyph-name="arrowboth" unicode="&#x2194;" horiz-adv-x="1447" 
d="M1354 721q33 -23 44 -42t11 -50q0 -29 -11 -48.5t-44 -41.5l-404 -277q-41 74 -37 105t54 61l223 141l-139 -12h-465v2h-140l-149 12l233 -149q50 -31 54 -63t-37 -103l-404 276q-32 22 -42.5 42t-10.5 51t10.5 49.5t42.5 40.5l404 276q41 -72 37 -103.5t-54 -62.5
l-223 -141l139 12h605l153 -12l-237 147q-50 31 -53.5 63t36.5 103z" />
    <glyph glyph-name="arrowupdn" unicode="&#x2195;" horiz-adv-x="962" 
d="M719 451q31 50 63 53t103 -37l-277 -404q-23 -33 -42 -44t-50 -11q-29 0 -48.5 11t-41.5 44l-276 404q74 41 104.5 37.5t60.5 -53.5l142 -224l-13 140v464h2v138l13 151l-150 -235q-31 -50 -63 -53.5t-103 36.5l277 404q23 33 42.5 44t49.5 11t48.5 -11t41.5 -44
l277 -404q-72 -41 -103.5 -37t-62.5 54l-142 225l13 -141v-602l-13 -154z" />
    <glyph glyph-name="uni2196" unicode="&#x2196;" horiz-adv-x="964" 
d="M473 776l399 -399q-33 -61 -98 -101l-399 404l-94 108l59 -262q14 -57 -6 -82t-98 -47l-91 482q-7 40 -1 60.5t28 41.5q21 23 40.5 28.5t61.5 -1.5l480 -90q-21 -80 -46 -99.5t-83 -7.5l-265 61z" />
    <glyph glyph-name="uni2197" unicode="&#x2197;" horiz-adv-x="751" 
d="M737 981q22 -21 28 -41.5t-1 -60.5l-90 -482q-78 22 -98.5 47t-6.5 82l60 262l-94 -108l-400 -404q-65 40 -98 101l399 399l113 96l-264 -61q-58 -12 -83 7.5t-46 99.5l479 90q42 7 61.5 1.5t40.5 -28.5z" />
    <glyph glyph-name="uni2198" unicode="&#x2198;" horiz-adv-x="964" 
d="M866 365q7 -41 1 -61.5t-27 -41.5q-21 -22 -42 -27.5t-61 1.5l-481 90q23 80 47.5 99t81.5 7l266 -61l-112 96l-402 399q37 63 99 101l401 -404l92 -106l-59 260q-12 57 8 82t98 47z" />
    <glyph glyph-name="uni2199" unicode="&#x2199;" horiz-adv-x="751" 
d="M514 432q58 12 83 -7t46 -99l-479 -90q-42 -7 -62 -1.5t-41 27.5q-22 21 -27.5 42t1.5 61l90 481q78 -22 98 -47t6 -82l-59 -262l94 108l400 404q65 -40 98 -101l-400 -399l-112 -96z" />
    <glyph glyph-name="minus" unicode="&#x2212;" 
d="M94 559q17 83 45 111t94 28h852q-18 -81 -44.5 -110t-94.5 -29h-852z" />
    <glyph glyph-name="approxequal" unicode="&#x2248;" 
d="M315 719q-63 -3 -116 16q24 115 101 184.5t171 69.5q48 0 98.5 -21t86 -45.5t80 -45.5t81.5 -21q60 0 98 46t48 97q63 0 116 -16q-24 -115 -99.5 -184.5t-162.5 -69.5q-52 0 -104 21t-87 45.5t-77.5 45.5t-79.5 21q-66 0 -104.5 -44.5t-49.5 -98.5zM221 276
q-59 -3 -117 17q24 116 102.5 185t172.5 69q47 0 97.5 -21t86 -45.5t79.5 -45.5t81 -21q61 0 98 45t49 98q65 0 115 -16q-24 -115 -99 -184.5t-163 -69.5q-52 0 -104 21t-86 45.5t-76.5 45.5t-79.5 21q-66 0 -105.5 -45t-50.5 -99z" />
    <glyph glyph-name="notequal" unicode="&#x2260;" 
d="M983 764h-233l-170 -270h454q-18 -81 -45 -110.5t-94 -29.5h-403l-185 -293q-71 33 -82 62t27 94l86 137h-285q17 83 46.5 111.5t95.5 28.5h231l170 270h-455q18 86 46 112.5t94 26.5h403l184 295q47 -23 66 -39.5t18 -44t-28 -72.5l-88 -139h284q-15 -81 -42.5 -110
t-94.5 -29z" />
    <glyph glyph-name="lessequal" unicode="&#x2264;" 
d="M1059 1153q29 -68 16.5 -111t-80.5 -65l-665 -238l563 -237q55 -21 53 -60t-63 -116l-707 313q-57 24 -43 92q5 39 24.5 66t61.5 43zM106 195h738q3 -65 -9.5 -93.5t-60.5 -46.5h-735q-5 64 8.5 93t58.5 47z" />
    <glyph glyph-name="greaterequal" unicode="&#x2265;" 
d="M1049 840q57 -24 43 -95q-10 -80 -86 -106l-850 -313q-27 66 -15 109.5t78 66.5l674 237l-571 238q-55 20 -53 58.5t63 117.5zM59 55q17 83 45 111.5t95 28.5h776q-18 -82 -44.5 -111t-94.5 -29h-777z" />
    <glyph glyph-name="lozenge" unicode="&#x25ca;" 
d="M821 1337l242 -694l-524 -633q-87 -24 -164 0l-242 695l524 632q89 23 164 0zM485 154l414 499l-188 539l-412 -498z" />
    <glyph glyph-name="i.loclTRK" horiz-adv-x="448" 
d="M375 1219q-42 0 -67 25.5t-25 64.5q0 49 41.5 89t99.5 40q41 0 66.5 -25.5t25.5 -62.5q0 -51 -42 -91t-99 -40zM37 0l215 1016q38 16 83 16.5t77 -16.5l-215 -1016h-160z" />
    <glyph glyph-name="a.sc" horiz-adv-x="1073" 
d="M766 0l-39 250h-487l-146 -250h-172l643 1075q98 19 180 0l193 -1075h-172zM315 381h390l-84 526z" />
    <glyph glyph-name="aacute.sc" horiz-adv-x="1073" 
d="M827 1296l-131 -139l-82 53l209 273l27 -13q55 -28 55 -65q0 -45 -78 -109zM766 0l-39 250h-487l-146 -250h-172l643 1075q98 19 180 0l193 -1075h-172zM315 381h390l-84 526z" />
    <glyph glyph-name="abreve.sc" horiz-adv-x="1073" 
d="M684 1194q-54 0 -96 14t-66 37t-39 52.5t-15.5 61.5t3.5 64q70 18 131 0q-5 -26 2 -51.5t33.5 -47t71.5 -21.5q66 0 103.5 38.5t47.5 81.5q71 17 133 0q-9 -40 -32.5 -79t-60.5 -73.5t-93 -55.5t-123 -21zM565 1075q98 19 180 0l193 -1075h-172l-39 250h-487l-146 -250
h-172zM315 381h390l-84 526z" />
    <glyph glyph-name="acircumflex.sc" horiz-adv-x="1073" 
d="M565 1174q-35 0 -64 14.5t-44 34.5l211 190q67 17 123 0l129 -190q-49 -49 -113 -49l-90 149zM766 0l-39 250h-487l-146 -250h-172l643 1075q98 19 180 0l193 -1075h-172zM315 381h390l-84 526z" />
    <glyph glyph-name="adieresis.sc" horiz-adv-x="1073" 
d="M545 1219q-37 0 -62.5 22t-25.5 57q0 46 40 83.5t89 37.5q38 0 63 -23.5t25 -58.5q0 -46 -39 -82t-90 -36zM874 1419q39 0 64.5 -24t24.5 -62q-3 -45 -43 -79.5t-86 -34.5q-37 0 -63 22t-26 57q0 46 40 83.5t89 37.5zM565 1075q98 19 180 0l193 -1075h-172l-39 250h-487
l-146 -250h-172zM315 381h390l-84 526z" />
    <glyph glyph-name="agrave.sc" horiz-adv-x="1073" 
d="M637 1159l-139 182q-27 36 -27 58q0 17 17 37.5t53 31.5l32 13l150 -283zM766 0l-39 250h-487l-146 -250h-172l643 1075q98 19 180 0l193 -1075h-172zM315 381h390l-84 526z" />
    <glyph glyph-name="amacron.sc" horiz-adv-x="1073" 
d="M938 1380l-25 -127h-432l25 127h432zM565 1075q98 19 180 0l193 -1075h-172l-39 250h-487l-146 -250h-172zM315 381h390l-84 526z" />
    <glyph glyph-name="aogonek.sc" horiz-adv-x="1073" 
d="M844 -238q30 0 74 19q12 -56 0 -96q-30 -23 -111 -23q-65 0 -102 28t-37 83q0 65 47.5 125t118.5 102h-68l-39 250h-487l-146 -250h-172l643 1075q98 19 180 0l193 -1075q-73 -40 -116.5 -89.5t-43.5 -94.5q0 -24 16.5 -39t49.5 -15zM315 381h390l-84 526z" />
    <glyph glyph-name="aring.sc" horiz-adv-x="1073" 
d="M676 1186q-77 0 -122.5 37.5t-45.5 103.5q0 92 69.5 154.5t172.5 62.5q78 0 123 -37t45 -102q0 -93 -70 -156t-172 -63zM733 1464q-47 0 -78.5 -36.5t-31.5 -90.5q0 -71 69 -71q45 0 77 39.5t32 91.5q0 31 -17.5 49t-50.5 18zM766 0l-39 250h-487l-146 -250h-172
l643 1075q98 19 180 0l193 -1075h-172zM315 381h390l-84 526z" />
    <glyph glyph-name="atilde.sc" horiz-adv-x="1073" 
d="M614 1313q-29 0 -49 -24t-26 -62q-56 0 -99 14q17 85 64.5 131.5t109.5 46.5q52 0 110.5 -36.5t98.5 -36.5q26 0 44.5 24t21.5 57q59 0 100 -14q-17 -84 -62 -131t-100 -47q-44 0 -82.5 19.5t-70.5 39t-60 19.5zM565 1075q98 19 180 0l193 -1075h-172l-39 250h-487
l-146 -250h-172zM315 381h390l-84 526z" />
    <glyph glyph-name="ae.sc" horiz-adv-x="1546" 
d="M1417 940h-520l-20 -332h442q-16 -81 -51 -133h-400l-22 -344h504l-25 -131h-647l14 238h-430l-172 -238h-168l776 1071h746zM358 369h342l33 518z" />
    <glyph glyph-name="b.sc" horiz-adv-x="974" 
d="M684 588q188 -43 188 -203q0 -169 -142.5 -277t-352.5 -108h-344l223 1055q185 32 324 32q154 0 243.5 -60t89.5 -163q0 -98 -60 -169.5t-169 -106.5zM750 829q0 56 -53 90.5t-152 34.5q-84 0 -154 -12l-65 -313h161q110 0 186.5 57.5t76.5 142.5zM397 133
q136 0 219.5 62t83.5 163q0 76 -61.5 108t-177.5 32h-164l-78 -365h178z" />
    <glyph glyph-name="c.sc" horiz-adv-x="1128" 
d="M983 152q-186 -168 -457 -168q-205 0 -323.5 107t-118.5 302q0 191 89.5 350.5t245 251.5t341.5 92q137 0 236 -45.5t151 -128.5q-16 -38 -52.5 -65.5t-78.5 -38.5q-30 70 -104 106.5t-179 36.5q-200 0 -342.5 -156.5t-142.5 -385.5q0 -141 79 -216t224 -75
q195 0 375 139z" />
    <glyph glyph-name="cacute.sc" horiz-adv-x="1128" 
d="M768 1159l-82 53l209 273l27 -12q55 -29 55 -66q0 -48 -76 -109zM983 152q-186 -168 -457 -168q-205 0 -323.5 107t-118.5 302q0 191 89.5 350.5t245 251.5t341.5 92q137 0 236 -45.5t151 -128.5q-16 -38 -52.5 -65.5t-78.5 -38.5q-30 70 -104 106.5t-179 36.5
q-200 0 -342.5 -156.5t-142.5 -385.5q0 -141 79 -216t224 -75q195 0 375 139z" />
    <glyph glyph-name="ccaron.sc" horiz-adv-x="1128" 
d="M817 1198q-65 -20 -123 0l-129 188q50 50 113 50l92 -152l152 152q34 0 62 -14.5t42 -35.5zM760 1087q137 0 236 -45.5t151 -128.5q-16 -38 -52.5 -65.5t-78.5 -38.5q-30 70 -104 106.5t-179 36.5q-200 0 -342.5 -156.5t-142.5 -385.5q0 -141 79 -216t224 -75
q195 0 375 139l57 -106q-186 -168 -457 -168q-205 0 -323.5 107t-118.5 302q0 191 89.5 350.5t245 251.5t341.5 92z" />
    <glyph glyph-name="ccedilla.sc" horiz-adv-x="1128" 
d="M760 1087q137 0 236 -45.5t151 -128.5q-16 -38 -52.5 -65.5t-78.5 -38.5q-30 70 -104 106.5t-179 36.5q-200 0 -342.5 -156.5t-142.5 -385.5q0 -141 79 -216t224 -75q195 0 375 139l57 -106q-179 -159 -426 -168l-70 -90q20 4 35 4q59 0 93 -25.5t34 -75.5
q0 -62 -44.5 -105t-98 -59t-105.5 -16q-58 0 -120 10q0 43 18 84q76 -18 127 -18q55 0 91 24t36 58q0 49 -90 49q-18 0 -68 -8q-29 18 -26 49l98 121q-180 15 -281.5 120.5t-101.5 286.5q0 191 89.5 350.5t245 251.5t341.5 92z" />
    <glyph glyph-name="cdotaccent.sc" horiz-adv-x="1128" 
d="M754 1231q-37 0 -61.5 22.5t-24.5 57.5q0 42 38 77t89 35q37 0 61.5 -22.5t24.5 -54.5q0 -44 -38.5 -79.5t-88.5 -35.5zM983 152q-186 -168 -457 -168q-205 0 -323.5 107t-118.5 302q0 191 89.5 350.5t245 251.5t341.5 92q137 0 236 -45.5t151 -128.5
q-16 -38 -52.5 -65.5t-78.5 -38.5q-30 70 -104 106.5t-179 36.5q-200 0 -342.5 -156.5t-142.5 -385.5q0 -141 79 -216t224 -75q195 0 375 139z" />
    <glyph glyph-name="d.sc" horiz-adv-x="1159" 
d="M590 1087q246 0 380 -106t134 -301q0 -142 -57 -268t-156.5 -216t-239.5 -142.5t-299 -53.5h-319l223 1055q194 32 334 32zM377 133q162 0 291 66t202.5 186.5t73.5 273.5q0 141 -94.5 215t-274.5 74q-123 0 -184 -12l-172 -803h158z" />
    <glyph glyph-name="eth.sc" horiz-adv-x="1159" 
d="M590 1087q246 0 380 -106t134 -301q0 -190 -97.5 -345.5t-270 -244.5t-386.5 -90h-317l98 469h-108q18 61 50 92.5t87 34.5l96 459q194 32 334 32zM377 133q162 0 291 66t202.5 186.5t73.5 273.5q0 141 -95 215t-276 74q-121 0 -182 -12l-74 -340h363q-9 -58 -43 -92.5
t-82 -34.5h-264l-72 -336h158z" />
    <glyph glyph-name="dcaron.sc" horiz-adv-x="1159" 
d="M762 1198q-62 -20 -121 0l-129 188q50 50 113 50l90 -150l151 150q34 0 63.5 -14.5t43.5 -35.5zM590 1087q246 0 380 -106t134 -301q0 -142 -57 -268t-156.5 -216t-239.5 -142.5t-299 -53.5h-319l223 1055q194 32 334 32zM377 133q162 0 291 66t202.5 186.5t73.5 273.5
q0 141 -94.5 215t-274.5 74q-123 0 -184 -12l-172 -803h158z" />
    <glyph glyph-name="dcroat.sc" horiz-adv-x="1159" 
d="M590 1087q246 0 380 -106t134 -301q0 -190 -97.5 -345.5t-270 -244.5t-386.5 -90h-317l98 469h-108q18 61 50 92.5t87 34.5l96 459q194 32 334 32zM377 133q162 0 291 66t202.5 186.5t73.5 273.5q0 141 -95 215t-276 74q-121 0 -182 -12l-74 -340h363q-9 -58 -43 -92.5
t-82 -34.5h-264l-72 -336h158z" />
    <glyph glyph-name="e.sc" horiz-adv-x="954" 
d="M932 938h-543l-70 -330h453q0 -24 -15 -63.5t-38 -69.5h-426l-72 -342h539l-29 -133h-698l227 1071h698z" />
    <glyph glyph-name="eacute.sc" horiz-adv-x="954" 
d="M805 1298l-133 -139l-80 53l207 273l28 -12q56 -29 56 -66q0 -45 -78 -109zM932 938h-543l-70 -330h453q0 -24 -15 -63.5t-38 -69.5h-426l-72 -342h539l-29 -133h-698l227 1071h698z" />
    <glyph glyph-name="ecaron.sc" horiz-adv-x="954" 
d="M721 1198q-70 -20 -123 0l-129 188q50 50 115 50l90 -152l151 152q34 0 64 -15.5t43 -34.5zM932 938h-543l-70 -330h453q0 -24 -15 -63.5t-38 -69.5h-426l-72 -342h539l-29 -133h-698l227 1071h698z" />
    <glyph glyph-name="ecircumflex.sc" horiz-adv-x="954" 
d="M541 1176q-34 0 -63.5 14t-43.5 35l211 188q62 20 121 0l129 -188q-45 -49 -113 -49l-90 149zM932 938h-543l-70 -330h453q0 -24 -15 -63.5t-38 -69.5h-426l-72 -342h539l-29 -133h-698l227 1071h698z" />
    <glyph glyph-name="edieresis.sc" horiz-adv-x="954" 
d="M520 1221q-37 0 -61.5 22t-24.5 57q0 46 39 82.5t88 36.5q39 0 64.5 -22.5t25.5 -57.5q0 -47 -40.5 -82.5t-90.5 -35.5zM809 1221q-37 0 -61.5 22t-24.5 57q0 46 39 82.5t88 36.5q41 0 66 -24.5t22 -61.5q-3 -44 -42.5 -78t-86.5 -34zM932 938h-543l-70 -330h453
q0 -24 -15 -63.5t-38 -69.5h-426l-72 -342h539l-29 -133h-698l227 1071h698z" />
    <glyph glyph-name="edotaccent.sc" horiz-adv-x="954" 
d="M657 1231q-38 0 -61 23t-23 57q0 43 37.5 77.5t87.5 34.5q37 0 61.5 -21.5t24.5 -55.5q0 -45 -38 -80t-89 -35zM932 938h-543l-70 -330h453q0 -24 -15 -63.5t-38 -69.5h-426l-72 -342h539l-29 -133h-698l227 1071h698z" />
    <glyph glyph-name="egrave.sc" horiz-adv-x="954" 
d="M612 1161l-139 182q-24 35 -24 58q0 17 15.5 37t51.5 32l33 13l149 -283zM932 938h-543l-70 -330h453q0 -24 -15 -63.5t-38 -69.5h-426l-72 -342h539l-29 -133h-698l227 1071h698z" />
    <glyph glyph-name="emacron.sc" horiz-adv-x="954" 
d="M913 1382l-22 -127h-434l24 127h432zM932 938h-543l-70 -330h453q0 -24 -15 -63.5t-38 -69.5h-426l-72 -342h539l-29 -133h-698l227 1071h698z" />
    <glyph glyph-name="eogonek.sc" horiz-adv-x="954" 
d="M932 938h-543l-70 -330h453q0 -24 -15 -63.5t-38 -69.5h-426l-72 -342h539l-29 -133q-72 -41 -115 -90t-43 -94q0 -54 64 -54q31 0 74 19q15 -53 0 -96q-30 -23 -109 -23q-67 0 -104 27.5t-37 83.5q0 65 47.5 124.5t118.5 102.5h-594l227 1071h698z" />
    <glyph glyph-name="f.sc" horiz-adv-x="915" 
d="M932 938h-543l-70 -330h453q0 -24 -15 -63.5t-38 -69.5h-426l-100 -475h-160l227 1071h698z" />
    <glyph glyph-name="g.sc" horiz-adv-x="1163" 
d="M715 952q-98 0 -187.5 -42t-155 -113.5t-104.5 -172.5t-39 -214q0 -141 79.5 -216t226.5 -75q172 0 315 82l61 278q35 30 81 37t83 -8l-76 -356q-92 -81 -219.5 -125.5t-273.5 -44.5q-203 0 -320.5 107.5t-117.5 301.5q0 143 52.5 271.5t141.5 221t214 147t265 54.5
q138 0 240 -44.5t156 -129.5q-58 -88 -131 -104q-33 70 -107.5 107.5t-183.5 37.5z" />
    <glyph glyph-name="gbreve.sc" horiz-adv-x="1163" 
d="M735 1194q-54 0 -95.5 14t-65.5 37t-39.5 53t-16 62.5t3.5 64.5q73 17 131 0q-3 -19 0.5 -38t14 -38.5t35 -31.5t59.5 -12q64 0 100.5 36.5t50.5 83.5q70 17 131 0q-9 -41 -32 -79.5t-60 -73.5t-93.5 -56.5t-123.5 -21.5zM715 952q-98 0 -187.5 -42t-155 -113.5
t-104.5 -172.5t-39 -214q0 -141 79.5 -216t226.5 -75q172 0 315 82l61 278q35 30 81 37t83 -8l-76 -356q-92 -81 -219.5 -125.5t-273.5 -44.5q-203 0 -320.5 107.5t-117.5 301.5q0 143 52.5 271.5t141.5 221t214 147t265 54.5q138 0 240 -44.5t156 -129.5q-58 -88 -131 -104
q-33 70 -107.5 107.5t-183.5 37.5z" />
    <glyph glyph-name="uni0123.sc" horiz-adv-x="1163" 
d="M715 952q-98 0 -187.5 -42t-155 -113.5t-104.5 -172.5t-39 -214q0 -141 79.5 -216t226.5 -75q172 0 315 82l61 278q35 30 81 37t83 -8l-76 -356q-92 -81 -219.5 -125.5t-273.5 -44.5q-203 0 -320.5 107.5t-117.5 301.5q0 143 52.5 271.5t141.5 221t214 147t265 54.5
q138 0 240 -44.5t156 -129.5q-58 -88 -131 -104q-33 70 -107.5 107.5t-183.5 37.5zM623 -160v-2v-6q-4 -74 -67 -144.5t-136 -111.5q-40 3 -55 45q74 49 112 109q-31 4 -49 25t-18 50q0 44 37.5 80.5t84.5 36.5q41 0 66 -23t25 -59z" />
    <glyph glyph-name="gdotaccent.sc" horiz-adv-x="1163" 
d="M733 1231q-38 0 -61 23t-23 57q0 43 37.5 77.5t87.5 34.5q37 0 61.5 -21.5t24.5 -55.5q0 -44 -38.5 -79.5t-88.5 -35.5zM715 952q-98 0 -187.5 -42t-155 -113.5t-104.5 -172.5t-39 -214q0 -141 79.5 -216t226.5 -75q172 0 315 82l61 278q35 30 81 37t83 -8l-76 -356
q-92 -81 -219.5 -125.5t-273.5 -44.5q-203 0 -320.5 107.5t-117.5 301.5q0 143 52.5 271.5t141.5 221t214 147t265 54.5q138 0 240 -44.5t156 -129.5q-58 -88 -131 -104q-33 70 -107.5 107.5t-183.5 37.5z" />
    <glyph glyph-name="h.sc" horiz-adv-x="1165" 
d="M985 1071q79 20 158 0l-225 -1071h-160l100 477h-565l-100 -477h-160l227 1071q84 21 158 0l-96 -459h565z" />
    <glyph glyph-name="i.sc" horiz-adv-x="440" 
d="M193 0h-160l227 1071q84 21 158 0z" />
    <glyph glyph-name="iacute.sc" horiz-adv-x="440" 
d="M377 1157l-80 53l209 273l26 -13q56 -30 56 -65q0 -45 -78 -109zM193 0h-160l227 1071q84 21 158 0z" />
    <glyph glyph-name="icircumflex.sc" horiz-adv-x="440" 
d="M473 1413l129 -190q-49 -49 -115 -49l-88 149l-153 -149q-34 0 -64 14.5t-43 34.5l211 190q70 17 123 0zM260 1071q84 21 158 0l-225 -1071h-160z" />
    <glyph glyph-name="idieresis.sc" horiz-adv-x="440" 
d="M225 1219q-37 0 -61.5 22t-24.5 57q0 46 39 83.5t90 37.5q37 0 62.5 -23.5t25.5 -58.5q0 -46 -40 -82t-91 -36zM516 1219q-38 0 -63 22t-25 57q0 46 40 83.5t87 37.5q42 0 66.5 -25.5t21.5 -60.5q-1 -44 -40.5 -79t-86.5 -35zM193 0h-160l227 1071q84 21 158 0z" />
    <glyph glyph-name="i.sc.loclTRK" horiz-adv-x="440" 
d="M362 1229q-36 0 -59.5 23t-23.5 57q0 44 38 79t89 35q37 0 61.5 -23t24.5 -57q0 -43 -40 -78.5t-90 -35.5zM193 0h-160l227 1071q84 21 158 0z" />
    <glyph glyph-name="igrave.sc" horiz-adv-x="440" 
d="M319 1159l-139 182q-26 32 -26 58q0 17 15.5 37t51.5 32l35 13l150 -283zM193 0h-160l227 1071q84 21 158 0z" />
    <glyph glyph-name="ij.sc" horiz-adv-x="1044" 
d="M193 0h-160l227 1071q84 21 158 0zM864 1071q78 20 160 0l-180 -846q-19 -87 -43.5 -146t-65 -103.5t-100 -65.5t-141.5 -21q-85 0 -168 37q15 90 63 131q74 -22 139 -22q55 0 94 42t56 118z" />
    <glyph glyph-name="imacron.sc" horiz-adv-x="440" 
d="M188 1380h433l-27 -127h-430zM193 0h-160l227 1071q84 21 158 0z" />
    <glyph glyph-name="iogonek.sc" horiz-adv-x="440" 
d="M193 0q-73 -40 -116.5 -89.5t-43.5 -94.5q0 -24 16 -39t47 -15q30 0 74 19q16 -53 2 -96q-33 -23 -111 -23q-67 0 -104 27.5t-37 83.5q0 64 48.5 124.5t119.5 102.5h-55l227 1071q79 20 158 0z" />
    <glyph glyph-name="j.sc" horiz-adv-x="634" 
d="M455 1071q87 20 159 0l-180 -846q-38 -178 -115 -257t-233 -79q-94 0 -170 37q15 89 64 131q80 -22 139 -22q56 0 95 42.5t54 117.5z" />
    <glyph glyph-name="k.sc" horiz-adv-x="1015" 
d="M1042 1071l-589 -524l409 -547h-186l-377 508l-106 -508h-160l227 1071q84 18 158 0l-99 -463l527 463q105 18 196 0z" />
    <glyph glyph-name="uni0137.sc" horiz-adv-x="1015" 
d="M1042 1071l-589 -524l409 -547h-186l-377 508l-106 -508h-160l227 1071q84 18 158 0l-99 -463l527 463q105 18 196 0zM528 -160v-2v-6q-4 -72 -66 -143t-134 -113q-43 3 -56 45q76 50 113 109q-31 4 -49.5 25t-18.5 50q0 44 38 80.5t85 36.5q39 0 63.5 -23t24.5 -59z" />
    <glyph glyph-name="l.sc" horiz-adv-x="864" 
d="M221 133h512l-26 -133h-674l227 1071q84 21 158 0z" />
    <glyph glyph-name="lacute.sc" horiz-adv-x="864" 
d="M510 1298l-133 -139l-80 53l209 273l26 -12q56 -30 56 -66q0 -48 -78 -109zM221 133h512l-26 -133h-674l227 1071q84 21 158 0z" />
    <glyph glyph-name="lcaron.sc" horiz-adv-x="864" 
d="M426 1198q-63 -19 -123 0l-127 188q46 50 113 50l90 -150l151 150q35 0 64 -15t43 -35zM221 133h512l-26 -133h-674l227 1071q84 21 158 0z" />
    <glyph glyph-name="uni013C.sc" horiz-adv-x="864" 
d="M221 133h512l-26 -133h-674l227 1071q84 21 158 0zM467 -160v-2v-6q-4 -72 -66.5 -143t-136.5 -113q-40 3 -53 45q76 50 113 109q-32 4 -51 25t-19 50q0 44 39 80.5t86 36.5q39 0 63.5 -23t24.5 -59z" />
    <glyph glyph-name="lslash.sc" horiz-adv-x="864" 
d="M221 133h512l-26 -133h-674l88 414l-144 -62q0 122 84 160l89 37l110 522q75 21 160 0l-94 -446l274 118q1 -69 -22.5 -107t-71.5 -58l-209 -91z" />
    <glyph glyph-name="m.sc" horiz-adv-x="1386" 
d="M1149 1071q116 20 215 0l-227 -1071h-158l108 504l87 368l-504 -786q-55 -21 -129 0l-170 780l-70 -362l-108 -504h-160l227 1071q119 20 213 0l174 -768z" />
    <glyph glyph-name="n.sc" horiz-adv-x="1224" 
d="M1044 1071h160l-227 -1071q-82 -21 -160 0l-450 844l-33 -199l-141 -645h-160l227 1071q84 18 158 0l450 -856l23 147z" />
    <glyph glyph-name="nacute.sc" horiz-adv-x="1224" 
d="M907 1298l-133 -139l-80 53l207 273l29 -12q55 -27 55 -66q0 -45 -78 -109zM1044 1071h160l-227 -1071q-82 -21 -160 0l-450 844l-33 -199l-141 -645h-160l227 1071q84 18 158 0l450 -856l23 147z" />
    <glyph glyph-name="ncaron.sc" horiz-adv-x="1224" 
d="M823 1198q-62 -20 -121 0l-129 188q46 50 113 50l90 -150l152 150q35 0 64 -15t42 -35zM1044 1071h160l-227 -1071q-82 -21 -160 0l-450 844l-33 -199l-141 -645h-160l227 1071q84 18 158 0l450 -856l23 147z" />
    <glyph glyph-name="uni0146.sc" horiz-adv-x="1224" 
d="M1044 1071h160l-227 -1071q-82 -21 -160 0l-450 844l-33 -199l-141 -645h-160l227 1071q84 18 158 0l450 -856l23 147zM520 -78q40 0 65 -24t25 -60q0 -10 -4 -26q-11 -68 -71 -132.5t-127 -103.5q-41 3 -56 45q75 49 115 109q-32 4 -51 25t-19 50q0 44 38.5 80.5
t84.5 36.5z" />
    <glyph glyph-name="eng.sc" horiz-adv-x="1224" 
d="M1204 1071l-227 -1071q-20 -94 -49.5 -152.5t-84 -100t-137 -58.5t-208.5 -17q27 88 77 133q65 0 98.5 5t63.5 25.5t46 58.5t32 108l-448 842l-33 -199l-141 -645h-160l227 1071q84 18 158 0l450 -856l23 147l153 709h160z" />
    <glyph glyph-name="ntilde.sc" horiz-adv-x="1224" 
d="M692 1315q-29 0 -49 -25t-25 -63q-47 0 -98 14q17 87 64.5 133.5t109.5 46.5q52 0 110.5 -36.5t98.5 -36.5q25 0 44 25t22 57q53 0 100 -15q-18 -85 -62.5 -131.5t-99.5 -46.5q-45 0 -83.5 19.5t-70.5 39t-61 19.5zM1044 1071h160l-227 -1071q-82 -21 -160 0l-450 844
l-33 -199l-141 -645h-160l227 1071q84 18 158 0l450 -856l23 147z" />
    <glyph glyph-name="o.sc" horiz-adv-x="1228" 
d="M504 -16q-206 0 -321 108t-115 301q0 143 52.5 271.5t142 221t214 147t262.5 54.5q205 0 321 -106.5t116 -296.5q0 -143 -52.5 -273t-142.5 -223.5t-214.5 -148.5t-262.5 -55zM530 119q101 0 191 44t153.5 118t100.5 175t37 212q0 138 -77.5 211t-223.5 73
q-133 0 -244.5 -73.5t-174.5 -198t-63 -272.5q0 -140 77.5 -214.5t223.5 -74.5z" />
    <glyph glyph-name="oacute.sc" horiz-adv-x="1228" 
d="M772 1159l-80 53l209 273l27 -12q55 -27 55 -66q0 -44 -76 -109zM504 -16q-206 0 -321 108t-115 301q0 143 52.5 271.5t142 221t214 147t262.5 54.5q205 0 321 -106.5t116 -296.5q0 -143 -52.5 -273t-142.5 -223.5t-214.5 -148.5t-262.5 -55zM530 119q101 0 191 44
t153.5 118t100.5 175t37 212q0 138 -77.5 211t-223.5 73q-133 0 -244.5 -73.5t-174.5 -198t-63 -272.5q0 -140 77.5 -214.5t223.5 -74.5z" />
    <glyph glyph-name="ocircumflex.sc" horiz-adv-x="1228" 
d="M641 1176q-35 0 -63 14.5t-41 34.5l208 188q63 19 123 0l129 -188q-49 -49 -112 -49l-90 149zM739 1087q205 0 321 -106.5t116 -296.5q0 -143 -52.5 -273t-142.5 -223.5t-214.5 -148.5t-262.5 -55q-206 0 -321 108t-115 301q0 143 52.5 271.5t142 221t214 147t262.5 54.5
zM530 119q101 0 191 44t153.5 118t100.5 175t37 212q0 138 -77.5 211t-223.5 73q-133 0 -244.5 -73.5t-174.5 -198t-63 -272.5q0 -140 77.5 -214.5t223.5 -74.5z" />
    <glyph glyph-name="odieresis.sc" horiz-adv-x="1228" 
d="M621 1221q-37 0 -61.5 22t-24.5 57q0 46 39 82.5t90 36.5q37 0 62.5 -22.5t25.5 -57.5q0 -47 -40 -82.5t-91 -35.5zM911 1221q-37 0 -62.5 22t-25.5 57q0 46 39.5 82.5t89.5 36.5q40 0 64.5 -24.5t21.5 -61.5q-1 -44 -40 -78t-87 -34zM504 -16q-206 0 -321 108t-115 301
q0 143 52.5 271.5t142 221t214 147t262.5 54.5q205 0 321 -106.5t116 -296.5q0 -143 -52.5 -273t-142.5 -223.5t-214.5 -148.5t-262.5 -55zM530 119q101 0 191 44t153.5 118t100.5 175t37 212q0 138 -77.5 211t-223.5 73q-133 0 -244.5 -73.5t-174.5 -198t-63 -272.5
q0 -140 77.5 -214.5t223.5 -74.5z" />
    <glyph glyph-name="ograve.sc" horiz-adv-x="1228" 
d="M715 1161l-140 182q-26 33 -26 58q0 18 17 38t50 31l35 13l150 -283zM504 -16q-206 0 -321 108t-115 301q0 143 52.5 271.5t142 221t214 147t262.5 54.5q205 0 321 -106.5t116 -296.5q0 -143 -52.5 -273t-142.5 -223.5t-214.5 -148.5t-262.5 -55zM530 119q101 0 191 44
t153.5 118t100.5 175t37 212q0 138 -77.5 211t-223.5 73q-133 0 -244.5 -73.5t-174.5 -198t-63 -272.5q0 -140 77.5 -214.5t223.5 -74.5z" />
    <glyph glyph-name="ohungarumlaut.sc" horiz-adv-x="1228" 
d="M637 1141l-90 35l139 311l29 -8q30 -7 48 -22t21 -30q10 -44 -51 -122zM856 1143l-74 61l236 252l26 -16q50 -32 50 -70q-3 -44 -88 -102zM504 -16q-206 0 -321 108t-115 301q0 143 52.5 271.5t142 221t214 147t262.5 54.5q205 0 321 -106.5t116 -296.5
q0 -143 -52.5 -273t-142.5 -223.5t-214.5 -148.5t-262.5 -55zM530 119q101 0 191 44t153.5 118t100.5 175t37 212q0 138 -77.5 211t-223.5 73q-133 0 -244.5 -73.5t-174.5 -198t-63 -272.5q0 -140 77.5 -214.5t223.5 -74.5z" />
    <glyph glyph-name="omacron.sc" horiz-adv-x="1228" 
d="M584 1382h432l-25 -127h-432zM504 -16q-206 0 -321 108t-115 301q0 143 52.5 271.5t142 221t214 147t262.5 54.5q205 0 321 -106.5t116 -296.5q0 -143 -52.5 -273t-142.5 -223.5t-214.5 -148.5t-262.5 -55zM530 119q101 0 191 44t153.5 118t100.5 175t37 212
q0 138 -77.5 211t-223.5 73q-133 0 -244.5 -73.5t-174.5 -198t-63 -272.5q0 -140 77.5 -214.5t223.5 -74.5z" />
    <glyph glyph-name="oslash.sc" horiz-adv-x="1228" 
d="M1085 954q91 -105 91 -270q0 -143 -52.5 -273t-142.5 -223.5t-214.5 -148.5t-262.5 -55q-156 0 -264 63l-60 -63q-31 0 -58 18t-42 43l74 78q-86 106 -86 270q0 143 52.5 271.5t142 221t214 147t262.5 54.5q153 0 256 -59l56 59q68 -6 102 -61zM229 408q0 -98 37 -162
l623 667q-73 39 -178 39q-133 0 -244.5 -73.5t-174.5 -198t-63 -272.5zM530 119q101 0 191 44t153.5 118t100.5 175t37 212q0 96 -39 163l-625 -669q70 -43 182 -43z" />
    <glyph glyph-name="otilde.sc" horiz-adv-x="1228" 
d="M616 1227q-47 0 -98 14q17 86 64 133t108 47q53 0 112 -36.5t99 -36.5q26 0 43.5 23.5t24.5 58.5q55 0 98 -15q-17 -84 -62 -131t-100 -47q-45 0 -83.5 19.5t-70 39t-59.5 19.5q-30 0 -50.5 -25.5t-25.5 -62.5zM504 -16q-206 0 -321 108t-115 301q0 143 52.5 271.5
t142 221t214 147t262.5 54.5q205 0 321 -106.5t116 -296.5q0 -143 -52.5 -273t-142.5 -223.5t-214.5 -148.5t-262.5 -55zM530 119q101 0 191 44t153.5 118t100.5 175t37 212q0 138 -77.5 211t-223.5 73q-133 0 -244.5 -73.5t-174.5 -198t-63 -272.5q0 -140 77.5 -214.5
t223.5 -74.5z" />
    <glyph glyph-name="oe.sc" horiz-adv-x="1681" 
d="M1659 940h-543l-69 -332h452q-15 -78 -53 -133h-428l-72 -344h539l-27 -131h-698v2q-102 -18 -230 -18q-218 0 -340 110t-122 305q0 143 54 270.5t147 219t223 145t276 53.5q147 0 229 -16h689zM557 119q139 0 234 28l161 760q-77 47 -215 47q-221 0 -365.5 -152.5
t-144.5 -385.5q0 -145 85 -221t245 -76z" />
    <glyph glyph-name="p.sc" horiz-adv-x="950" 
d="M561 1087q97 0 171 -24t116.5 -66t63 -92t20.5 -108q0 -128 -71 -231t-194 -160.5t-274 -57.5h-129l-74 -348h-157l223 1055q181 32 305 32zM403 481q167 0 269 83t102 212q0 88 -64 134t-186 46q-65 0 -133 -14l-98 -461h110z" />
    <glyph glyph-name="thorn.sc" horiz-adv-x="950" 
d="M547 905q157 0 251.5 -82.5t94.5 -210.5q0 -123 -70 -224t-184 -156.5t-246 -55.5h-164l-36 -176h-160l227 1071q84 21 158 0l-35 -166h164zM373 309q160 0 260 79.5t100 205.5q0 85 -67 130.5t-191 45.5h-121l-96 -461h115z" />
    <glyph glyph-name="q.sc" horiz-adv-x="1228" 
d="M1176 684q0 -172 -74 -321t-201 -246l107 -166q-21 -36 -56.5 -56t-74.5 -20l-107 166q-123 -57 -266 -57q-206 0 -321 108t-115 301q0 143 52.5 271.5t142 221t214 147t262.5 54.5q205 0 321 -106.5t116 -296.5zM530 119q84 0 168 33l-120 190q21 37 56 58.5t71 21.5
l122 -191q86 78 135.5 192.5t49.5 244.5q0 138 -77.5 211t-223.5 73q-133 0 -244.5 -73.5t-174.5 -198t-63 -272.5q0 -140 77.5 -214.5t223.5 -74.5z" />
    <glyph glyph-name="r.sc" horiz-adv-x="1001" 
d="M938 817q0 -131 -79 -231.5t-210 -147.5l193 -438h-174l-170 410q-12 -2 -37 -2h-182l-89 -408h-157l223 1055q178 32 305 32q187 0 282 -77.5t95 -192.5zM305 541h123q161 0 255.5 66.5t94.5 180.5q0 168 -256 168q-74 0 -129 -12z" />
    <glyph glyph-name="racute.sc" horiz-adv-x="1001" 
d="M741 1298l-135 -139l-78 53l207 273l27 -12q55 -29 55 -66q0 -46 -76 -109zM938 817q0 -131 -79 -231.5t-210 -147.5l193 -438h-174l-170 410q-12 -2 -37 -2h-182l-89 -408h-157l223 1055q178 32 305 32q187 0 282 -77.5t95 -192.5zM305 541h123q161 0 255.5 66.5
t94.5 180.5q0 168 -256 168q-74 0 -129 -12z" />
    <glyph glyph-name="rcaron.sc" horiz-adv-x="1001" 
d="M657 1198q-64 -20 -122 0l-129 188q50 50 112 50l92 -152l152 152q35 0 62.5 -15t41.5 -35zM938 817q0 -131 -79 -231.5t-210 -147.5l193 -438h-174l-170 410q-12 -2 -37 -2h-182l-89 -408h-157l223 1055q178 32 305 32q187 0 282 -77.5t95 -192.5zM305 541h123
q161 0 255.5 66.5t94.5 180.5q0 168 -256 168q-74 0 -129 -12z" />
    <glyph glyph-name="uni0157.sc" horiz-adv-x="1001" 
d="M938 817q0 -131 -79 -231.5t-210 -147.5l193 -438h-174l-170 410q-12 -2 -37 -2h-182l-89 -408h-157l223 1055q178 32 305 32q187 0 282 -77.5t95 -192.5zM305 541h123q161 0 255.5 66.5t94.5 180.5q0 168 -256 168q-74 0 -129 -12zM514 -160v-2v-6q-4 -74 -67 -144.5
t-136 -111.5q-40 3 -55 45q75 49 115 109q-32 4 -51 25t-19 50q0 44 38.5 80.5t84.5 36.5q41 0 65.5 -23t24.5 -59z" />
    <glyph glyph-name="s.sc" horiz-adv-x="921" 
d="M825 901q-125 60 -254 60q-117 0 -178 -43.5t-61 -110.5q0 -55 43 -94.5t168 -108.5q127 -70 180 -130.5t53 -139.5q0 -157 -124.5 -255.5t-325.5 -98.5q-169 0 -318 67q-7 81 47 148q163 -80 301 -80q116 0 186 49.5t70 128.5q1 69 -37 112t-143 99q-142 73 -202 131.5
t-60 148.5q0 141 114 224.5t318 83.5q138 0 268 -50q10 -23 -5 -66.5t-40 -74.5z" />
    <glyph glyph-name="sacute.sc" horiz-adv-x="921" 
d="M621 1159l-80 53l209 273l26 -12q55 -29 55 -66q0 -46 -77 -109zM825 901q-125 60 -254 60q-117 0 -178 -43.5t-61 -110.5q0 -55 43 -94.5t168 -108.5q127 -70 180 -130.5t53 -139.5q0 -157 -124.5 -255.5t-325.5 -98.5q-169 0 -318 67q-7 81 47 148q163 -80 301 -80
q116 0 186 49.5t70 128.5q1 69 -37 112t-143 99q-142 73 -202 131.5t-60 148.5q0 141 114 224.5t318 83.5q138 0 268 -50q10 -23 -5 -66.5t-40 -74.5z" />
    <glyph glyph-name="scaron.sc" horiz-adv-x="921" 
d="M672 1198q-65 -20 -123 0l-129 188q50 50 112 50l91 -150l153 150q35 0 63.5 -15t41.5 -35zM602 1092q138 0 268 -50q10 -23 -5 -66.5t-40 -74.5q-125 60 -254 60q-117 0 -178 -43.5t-61 -110.5q0 -55 43 -94.5t168 -108.5q127 -70 180 -130.5t53 -139.5
q0 -157 -124.5 -255.5t-325.5 -98.5q-169 0 -318 67q-7 81 47 148q163 -80 301 -80q116 0 186 49.5t70 128.5q1 69 -37 112t-143 99q-142 73 -202 131.5t-60 148.5q0 141 114 224.5t318 83.5z" />
    <glyph glyph-name="scedilla.sc" horiz-adv-x="921" 
d="M571 961q-117 0 -178 -43.5t-61 -110.5q0 -55 43 -94.5t168 -108.5q127 -70 180 -130.5t53 -139.5q0 -142 -104.5 -237.5t-276.5 -112.5l-69 -90q20 4 34 4q59 0 93 -25.5t34 -75.5q0 -47 -25 -83.5t-64.5 -56.5t-80 -30t-77.5 -10q-69 0 -121 10q0 43 18 84
q76 -18 127 -18q54 0 90.5 24t36.5 58q0 49 -90 49q-32 0 -68 -8q-28 20 -26 49l92 115q-156 7 -291 67q-7 81 47 148q163 -80 301 -80q116 0 186 49.5t70 128.5q1 69 -37 112t-143 99q-142 73 -202 131.5t-60 148.5q0 141 114 224.5t318 83.5q138 0 268 -50
q10 -23 -5 -66.5t-40 -74.5q-125 60 -254 60z" />
    <glyph glyph-name="uni0219.sc" horiz-adv-x="921" 
d="M571 961q-117 0 -178 -43.5t-61 -110.5q0 -55 43 -94.5t168 -108.5q127 -70 180 -130.5t53 -139.5q0 -157 -124.5 -255.5t-325.5 -98.5q-169 0 -318 67q-7 81 47 148q163 -80 301 -80q116 0 186 49.5t70 128.5q1 69 -37 112t-143 99q-142 73 -202 131.5t-60 148.5
q0 141 114 224.5t318 83.5q138 0 268 -50q10 -23 -5 -66.5t-40 -74.5q-125 60 -254 60zM442 -160q1 -74 -62 -148t-138 -116q-41 3 -56 45q75 49 115 109q-31 5 -50.5 25.5t-19.5 49.5q0 44 38.5 80.5t84.5 36.5q40 0 64 -23t24 -59z" />
    <glyph glyph-name="germandbls.sc" horiz-adv-x="1232" 
d="M848 623q112 -41 187 -118.5t75 -158.5q0 -175 -118.5 -270.5t-317.5 -95.5q-84 0 -136 8t-120 28q0 86 45 150q141 -51 239 -51q115 0 180.5 53.5t65.5 140.5q0 70 -55 118t-191 95q-43 38 -30 107l262 282q-88 52 -236 52q-159 0 -259 -72t-130 -215l-145 -676
q-82 -21 -156 0l137 653q46 216 201.5 329.5t405.5 113.5q231 3 417 -125z" />
    <glyph glyph-name="t.sc" horiz-adv-x="921" 
d="M993 1071q-15 -78 -45 -133h-315l-199 -938h-160l199 938h-334q6 62 49 133h805z" />
    <glyph glyph-name="tbar.sc" horiz-adv-x="923" 
d="M948 938h-315l-64 -301h234q-14 -54 -46 -93.5t-79 -39.5h-137l-107 -504h-160l107 504h-242q26 64 58.5 98.5t87.5 34.5h125l63 301h-334q6 64 49 133h807q-18 -79 -47 -133z" />
    <glyph glyph-name="tcaron.sc" horiz-adv-x="921" 
d="M670 1196q-66 -19 -123 0l-129 188q46 50 112 50l91 -150l153 150q35 0 63.5 -15t41.5 -35zM993 1071q-15 -78 -45 -133h-315l-199 -938h-160l199 938h-334q6 62 49 133h805z" />
    <glyph glyph-name="uni0163.sc" horiz-adv-x="923" 
d="M434 0h-22l-82 -106q20 4 32 4q60 0 95 -25.5t35 -75.5q0 -62 -45 -105t-99 -59t-106 -16q-61 0 -119 10q0 48 18 84q76 -18 125 -18q55 0 92 24t37 58q0 49 -90 49q-15 0 -69 -8q-29 24 -25 49l106 135h-41l197 938h-332q3 66 47 133h807q-15 -75 -47 -133h-315z" />
    <glyph glyph-name="uni021B.sc" horiz-adv-x="921" 
d="M993 1071q-15 -78 -45 -133h-315l-199 -938h-160l199 938h-334q6 62 49 133h805zM446 -160v-2v-6q-4 -74 -66.5 -144.5t-135.5 -111.5q-19 1 -33.5 13.5t-20.5 31.5q81 56 113 109q-31 4 -49 25t-18 50q0 44 37.5 80.5t84.5 36.5q39 0 63.5 -23t24.5 -59z" />
    <glyph glyph-name="u.sc" horiz-adv-x="1107" 
d="M442 -16q-207 0 -299 115t-45 333l138 639q78 20 155 0l-139 -655q-28 -130 28.5 -208.5t188.5 -78.5q126 0 221.5 76t124.5 211l141 655q76 19 156 0l-135 -639q-46 -214 -186 -331t-349 -117z" />
    <glyph glyph-name="uacute.sc" horiz-adv-x="1107" 
d="M711 1157l-80 53l209 273l26 -13q56 -27 56 -65q0 -46 -76 -109zM442 -16q-207 0 -299 115t-45 333l138 639q78 20 155 0l-139 -655q-28 -130 28.5 -208.5t188.5 -78.5q126 0 221.5 76t124.5 211l141 655q76 19 156 0l-135 -639q-46 -214 -186 -331t-349 -117z" />
    <glyph glyph-name="ucircumflex.sc" horiz-adv-x="1107" 
d="M580 1174q-33 0 -63 14t-44 35l211 190q65 17 123 0l129 -190q-19 -19 -50.5 -34t-62.5 -15l-90 149zM956 1071q76 19 156 0l-135 -639q-46 -214 -186 -331t-349 -117q-207 0 -299 115t-45 333l138 639q78 20 155 0l-139 -655q-28 -130 28.5 -208.5t188.5 -78.5
q126 0 221.5 76t124.5 211z" />
    <glyph glyph-name="udieresis.sc" horiz-adv-x="1107" 
d="M559 1219q-37 0 -61.5 22t-24.5 57q0 46 39 83.5t90 37.5q37 0 62.5 -23.5t25.5 -58.5q0 -46 -40 -82t-91 -36zM850 1219q-37 0 -62.5 22t-25.5 57q0 47 39.5 84t89.5 37q40 0 64.5 -24.5t21.5 -61.5q-3 -46 -41.5 -80t-85.5 -34zM442 -16q-207 0 -299 115t-45 333
l138 639q78 20 155 0l-139 -655q-28 -130 28.5 -208.5t188.5 -78.5q126 0 221.5 76t124.5 211l141 655q76 19 156 0l-135 -639q-46 -214 -186 -331t-349 -117z" />
    <glyph glyph-name="ugrave.sc" horiz-adv-x="1107" 
d="M653 1159l-139 182q-27 36 -27 58q0 18 16.5 37.5t51.5 31.5l35 13l149 -283zM442 -16q-207 0 -299 115t-45 333l138 639q78 20 155 0l-139 -655q-28 -130 28.5 -208.5t188.5 -78.5q126 0 221.5 76t124.5 211l141 655q76 19 156 0l-135 -639q-46 -214 -186 -331
t-349 -117z" />
    <glyph glyph-name="uhungarumlaut.sc" horiz-adv-x="1107" 
d="M575 1139l-90 35l140 311l28 -8q58 -13 70 -52q9 -39 -51 -122zM795 1141l-76 63l237 250l27 -16q51 -33 47 -70q-3 -43 -86 -102zM442 -16q-207 0 -299 115t-45 333l138 639q78 20 155 0l-139 -655q-28 -130 28.5 -208.5t188.5 -78.5q126 0 221.5 76t124.5 211l141 655
q76 19 156 0l-135 -639q-46 -214 -186 -331t-349 -117z" />
    <glyph glyph-name="umacron.sc" horiz-adv-x="1107" 
d="M522 1380h432l-26 -127h-430zM442 -16q-207 0 -299 115t-45 333l138 639q78 20 155 0l-139 -655q-28 -130 28.5 -208.5t188.5 -78.5q126 0 221.5 76t124.5 211l141 655q76 19 156 0l-135 -639q-46 -214 -186 -331t-349 -117z" />
    <glyph glyph-name="uogonek.sc" horiz-adv-x="1107" 
d="M956 1071q76 19 156 0l-135 -639q-37 -172 -137 -283.5t-250 -148.5q-73 -40 -116.5 -89.5t-43.5 -94.5q0 -24 16.5 -39t47.5 -15q33 0 73 19q16 -53 2 -96q-33 -23 -110 -23q-67 0 -104.5 28t-37.5 83q0 58 40.5 114t103.5 97h-19q-207 0 -299 115t-45 333l138 639
q78 20 155 0l-139 -655q-28 -130 28.5 -208.5t188.5 -78.5q126 0 221.5 76t124.5 211z" />
    <glyph glyph-name="uring.sc" horiz-adv-x="1107" 
d="M690 1186q-77 0 -122.5 37.5t-45.5 103.5q0 92 69.5 154.5t172.5 62.5q78 0 123 -37t45 -102q0 -93 -69 -156t-173 -63zM709 1266q45 0 76.5 39t31.5 92q0 31 -18 49t-51 18q-46 0 -77.5 -36.5t-31.5 -90.5q0 -34 18 -52.5t52 -18.5zM442 -16q-207 0 -299 115t-45 333
l138 639q78 20 155 0l-139 -655q-28 -130 28.5 -208.5t188.5 -78.5q126 0 221.5 76t124.5 211l141 655q76 19 156 0l-135 -639q-46 -214 -186 -331t-349 -117z" />
    <glyph glyph-name="v.sc" horiz-adv-x="1011" 
d="M926 1071q90 22 176 0l-666 -1073q-91 -20 -180 0l-109 1073q89 22 172 0l70 -864z" />
    <glyph glyph-name="w.sc" horiz-adv-x="1509" 
d="M1423 1071q95 22 174 0l-534 -1073q-89 -17 -182 0l-76 831l-465 -831q-103 -18 -182 0l-13 1073q89 19 172 0l-8 -842l469 842q81 18 152 0l86 -848z" />
    <glyph glyph-name="wacute.sc" horiz-adv-x="1509" 
d="M1061 1298l-135 -139l-78 53l207 273l26 -12q56 -30 56 -66q0 -46 -76 -109zM1423 1071q95 22 174 0l-534 -1073q-89 -17 -182 0l-76 831l-465 -831q-103 -18 -182 0l-13 1073q89 19 172 0l-8 -842l469 842q81 18 152 0l86 -848z" />
    <glyph glyph-name="wcircumflex.sc" horiz-adv-x="1509" 
d="M795 1176q-34 0 -63 14.5t-42 34.5l209 188q65 20 123 0l129 -188q-49 -49 -113 -49l-90 149zM1423 1071q95 22 174 0l-534 -1073q-89 -17 -182 0l-76 831l-465 -831q-103 -18 -182 0l-13 1073q89 19 172 0l-8 -842l469 842q81 18 152 0l86 -848z" />
    <glyph glyph-name="wdieresis.sc" horiz-adv-x="1509" 
d="M776 1221q-37 0 -62.5 22t-25.5 57q0 46 39.5 82.5t89.5 36.5q39 0 64.5 -22.5t25.5 -57.5q0 -45 -40.5 -81.5t-90.5 -36.5zM1065 1221q-37 0 -61.5 22t-24.5 57q0 46 39 82.5t88 36.5q41 0 65.5 -24.5t22.5 -61.5q-3 -44 -42.5 -78t-86.5 -34zM1423 1071q95 22 174 0
l-534 -1073q-89 -17 -182 0l-76 831l-465 -831q-103 -18 -182 0l-13 1073q89 19 172 0l-8 -842l469 842q81 18 152 0l86 -848z" />
    <glyph glyph-name="wgrave.sc" horiz-adv-x="1509" 
d="M868 1161l-139 182q-27 39 -27 58q0 18 17.5 38t52.5 31l33 13l149 -283zM1423 1071q95 22 174 0l-534 -1073q-89 -17 -182 0l-76 831l-465 -831q-103 -18 -182 0l-13 1073q89 19 172 0l-8 -842l469 842q81 18 152 0l86 -848z" />
    <glyph glyph-name="x.sc" horiz-adv-x="1120" 
d="M1133 1073l-484 -522l301 -551h-174l-239 438l-387 -438h-195l512 565l-277 508q91 22 172 0l218 -395l360 395q41 11 98.5 11t94.5 -11z" />
    <glyph glyph-name="y.sc" horiz-adv-x="946" 
d="M1040 1071l-518 -682l-82 -389h-157l90 430l-228 641q90 21 174 0l164 -500l383 500q87 21 174 0z" />
    <glyph glyph-name="yacute.sc" horiz-adv-x="946" 
d="M778 1298l-133 -139l-82 53l209 273l29 -12q55 -28 55 -66q0 -46 -78 -109zM1040 1071l-518 -682l-82 -389h-157l90 430l-228 641q90 21 174 0l164 -500l383 500q87 21 174 0z" />
    <glyph glyph-name="ycircumflex.sc" horiz-adv-x="946" 
d="M514 1176q-36 0 -64.5 14.5t-41.5 34.5l208 188q65 20 123 0l129 -188q-19 -20 -49.5 -34.5t-62.5 -14.5l-90 149zM1040 1071l-518 -682l-82 -389h-157l90 430l-228 641q90 21 174 0l164 -500l383 500q87 21 174 0z" />
    <glyph glyph-name="ydieresis.sc" horiz-adv-x="946" 
d="M494 1221q-37 0 -61.5 22t-24.5 57q0 46 39 82.5t88 36.5q38 0 63 -22.5t25 -57.5q0 -46 -39 -82t-90 -36zM782 1221q-37 0 -62.5 22t-25.5 57q0 46 39.5 82.5t89.5 36.5q40 0 65.5 -24.5t22.5 -61.5q-3 -44 -42.5 -78t-86.5 -34zM1040 1071l-518 -682l-82 -389h-157
l90 430l-228 641q90 21 174 0l164 -500l383 500q87 21 174 0z" />
    <glyph glyph-name="ygrave.sc" horiz-adv-x="946" 
d="M586 1161l-140 182q-26 37 -26 58q0 19 17.5 38.5t51.5 30.5l33 13l150 -283zM1040 1071l-518 -682l-82 -389h-157l90 430l-228 641q90 21 174 0l164 -500l383 500q87 21 174 0z" />
    <glyph glyph-name="z.sc" horiz-adv-x="1085" 
d="M1006 1071q26 -12 43.5 -53.5t7.5 -87.5l-838 -795h682q0 -31 -10 -75t-19 -60h-804q-25 14 -41.5 51.5t-8.5 83.5l842 801h-647q0 33 8 74t19 61h766z" />
    <glyph glyph-name="zacute.sc" horiz-adv-x="1085" 
d="M842 1296l-133 -139l-82 53l209 273l26 -13q56 -26 56 -65q0 -46 -76 -109zM1006 1071q26 -12 43.5 -53.5t7.5 -87.5l-838 -795h682q0 -31 -10 -75t-19 -60h-804q-25 14 -41.5 51.5t-8.5 83.5l842 801h-647q0 33 8 74t19 61h766z" />
    <glyph glyph-name="zcaron.sc" horiz-adv-x="1085" 
d="M758 1196q-70 -18 -123 0l-129 188q50 50 112 50l91 -150l153 150q37 0 65 -15t40 -35zM1006 1071q26 -12 43.5 -53.5t7.5 -87.5l-838 -795h682q0 -31 -10 -75t-19 -60h-804q-25 14 -41.5 51.5t-8.5 83.5l842 801h-647q0 33 8 74t19 61h766z" />
    <glyph glyph-name="zdotaccent.sc" horiz-adv-x="1085" 
d="M694 1229q-38 0 -61 23t-23 57q0 44 37.5 79t87.5 35q35 0 60.5 -23t25.5 -57q0 -45 -38 -79.5t-89 -34.5zM1006 1071q26 -12 43.5 -53.5t7.5 -87.5l-838 -795h682q0 -31 -10 -75t-19 -60h-804q-25 14 -41.5 51.5t-8.5 83.5l842 801h-647q0 33 8 74t19 61h766z" />
    <glyph glyph-name="zero.osf" horiz-adv-x="970" 
d="M594 1020q-152 0 -278.5 -90.5t-199.5 -247.5t-73 -346q0 -170 89 -259t243 -89q152 0 279 91.5t200.5 250t73.5 348.5q0 169 -89.5 255.5t-244.5 86.5zM403 129q-99 0 -148.5 58.5t-49.5 168.5q0 144 47.5 264.5t130 190.5t182.5 70t151.5 -59t51.5 -169
q0 -142 -48.5 -263t-132.5 -191t-184 -70z" />
    <glyph glyph-name="one.osf" horiz-adv-x="815" 
d="M694 137q6 -73 -28 -137h-656q-8 67 29 137h246l143 668q-213 -76 -254 -76q-36 54 -20 117q189 97 411 174q12 -1 35.5 -20.5t26.5 -30.5l-178 -832h245z" />
    <glyph glyph-name="two.osf" horiz-adv-x="878" 
d="M829 774q0 -306 -614 -635h498q-18 -98 -47 -139h-613q-20 20 -31.5 69t-3.5 70l56 37q94 57 161.5 101t154 108t141 117.5t93 116t38.5 116.5q0 71 -53 107.5t-144 36.5q-116 0 -301 -107q-22 61 22 148q155 100 338 100q140 0 222.5 -62.5t82.5 -183.5z" />
    <glyph glyph-name="three.osf" horiz-adv-x="1021" 
d="M313 -195q-89 0 -180.5 34t-146.5 83q-45 -64 -45 -166q126 -96 362 -96q149 0 275.5 59.5t201 166.5t74.5 237q-1 93 -51 158.5t-137 93.5q128 47 206 153t78 232q1 132 -87.5 205t-239.5 73q-231 0 -428 -131q-31 -89 -19 -151q209 139 389 139q106 0 163.5 -43.5
t57.5 -120.5q0 -135 -106 -212.5t-305 -76.5h-78q-27 -23 -47.5 -61.5t-20.5 -77.5h146q311 0 311 -211q0 -129 -108 -208t-265 -79z" />
    <glyph glyph-name="four.osf" horiz-adv-x="1120" 
d="M866 467h158q9 -65 -31 -139h-157l-70 -328h-164l70 328h-570q-26 13 -43.5 47.5t-19.5 70.5q184 230 481 545.5t432 427.5q31 0 63.5 -15.5t43.5 -33.5zM858 1161q-118 -113 -320.5 -329t-324.5 -365h500z" />
    <glyph glyph-name="five.osf" horiz-adv-x="985" 
d="M907 891h-418l-163 -342l174 -41q152 -36 232.5 -115t80.5 -198q0 -155 -79.5 -275t-215.5 -184t-305 -64q-65 0 -141.5 17t-137.5 51q-4 37 5 74q9 44 41 73q143 -73 276 -73q168 0 273 89.5t112 246.5q2 95 -72 156t-243 91l-95 19q-35 16 -58.5 48.5t-16.5 65.5
l233 500h602q-12 -40 -29.5 -71t-54.5 -68z" />
    <glyph glyph-name="six.osf" horiz-adv-x="1114" 
d="M760 1276q-171 0 -299.5 -133t-181.5 -361q159 105 356 105q184 0 281.5 -102.5t97.5 -276.5q0 -153 -69.5 -274.5t-189 -187.5t-266.5 -66q-182 0 -293.5 127t-111.5 366q0 268 90.5 485t249.5 339t354 122q104 0 172 -21t137 -71q3 -72 -34 -141q-72 48 -135 69
t-158 21zM563 756q-61 0 -147 -26.5t-162 -78.5q-8 -102 -8 -159q0 -186 73 -279.5t207 -93.5q138 0 230 96t92 254q0 130 -68 208.5t-217 78.5z" />
    <glyph glyph-name="seven.osf" horiz-adv-x="978" 
d="M963 1030q49 -61 34 -145l-827 -1192q-100 -24 -166 0q8 29 382 560t464 638h-717q-9 65 29 139h801z" />
    <glyph glyph-name="eight.osf" horiz-adv-x="1056" 
d="M743 729q110 -61 165.5 -135.5t56.5 -169.5q0 -126 -77 -229t-202 -159t-268 -56q-112 0 -197 33t-137.5 106.5t-52.5 181.5q0 138 107.5 261t252.5 165q-158 105 -158 277q0 116 67.5 212t177 149.5t233.5 53.5q146 0 241 -77t95 -214q1 -118 -91 -234t-213 -165z
M682 1284q-127 0 -209 -69.5t-82 -184.5q0 -81 50 -134t180 -108q105 32 185.5 121t80.5 183q1 96 -54.5 144t-150.5 48zM453 125q142 0 238.5 73t96.5 187q0 181 -258 277q-126 -23 -226.5 -117.5t-100.5 -204.5q-1 -110 68.5 -162.5t181.5 -52.5z" />
    <glyph glyph-name="nine.osf" horiz-adv-x="1103" 
d="M631 1030q178 0 287.5 -116.5t109.5 -335.5q0 -196 -53.5 -368.5t-146 -294.5t-221.5 -192.5t-275 -70.5q-104 0 -172.5 20t-134.5 70q-3 79 34 143q68 -48 132 -69t161 -21q161 0 285.5 120.5t183.5 324.5q-164 -93 -344 -93q-185 0 -281 97t-98 262q0 143 70.5 263.5
t193 190.5t269.5 70zM549 279q61 0 145.5 23.5t155.5 72.5q14 80 14 184q0 165 -70 248.5t-198 83.5q-140 0 -237 -100t-97 -246q0 -120 68.5 -193t218.5 -73z" />
    <glyph glyph-name="zero.dnom" horiz-adv-x="860" 
d="M512 885q-122 0 -226 -81.5t-164.5 -220.5t-60.5 -300q0 -144 68.5 -218.5t187.5 -74.5q121 0 225 82.5t165 222t61 299.5q0 143 -67.5 217t-188.5 74zM344 115q-133 0 -133 172q0 120 38.5 229.5t102 176.5t133.5 67q133 0 133 -170q0 -119 -38.5 -229.5t-102.5 -178
t-133 -67.5z" />
    <glyph glyph-name="one.dnom" horiz-adv-x="774" 
d="M625 123q6 -63 -25 -123h-575q-7 64 24 123h217l125 571q-179 -60 -221 -65q-27 40 -29 100q193 94 369 156q12 -1 32 -18.5t23 -28.5l-153 -715h213z" />
    <glyph glyph-name="two.dnom" horiz-adv-x="806" 
d="M727 668q0 -76 -42 -152t-118.5 -144.5t-168 -129t-205.5 -117.5h440q-17 -88 -43 -125h-555q-11 19 -18 62t-3 63l49 31q61 37 99.5 61t99 64.5t99 71t84.5 71.5t72.5 75.5t44.5 74t18 75.5q0 54 -40 81.5t-114 27.5q-116 0 -281 -99q-17 65 19 140q134 86 293 86
q126 0 198 -56t72 -161z" />
    <glyph glyph-name="three.dnom" horiz-adv-x="813" 
d="M276 113q-65 0 -131 25t-104 61q-37 -52 -37 -144q91 -69 258 -69q160 0 273.5 88.5t113.5 216.5q0 57 -33 99t-90 63q83 34 133 99t50 140q0 90 -64 141.5t-174 51.5q-162 0 -299 -84q-26 -69 -18 -131q147 90 268 90q68 0 105.5 -24t37.5 -68q0 -77 -69.5 -118.5
t-190.5 -39.5h-53q-22 -19 -38.5 -52.5t-16.5 -68.5h104q199 0 199 -121q0 -67 -65.5 -111t-158.5 -44z" />
    <glyph glyph-name="four.dnom" horiz-adv-x="749" 
d="M647 842l-110 -518h106q0 -58 -29 -121h-104l-43 -203h-145l43 203h-385q-21 10 -36 37.5t-20 62.5q119 134 318.5 315t310.5 267q27 0 53.5 -13.5t40.5 -29.5zM473 659q-261 -222 -377 -335h305z" />
    <glyph glyph-name="five.dnom" horiz-adv-x="780" 
d="M684 750h-305l-90 -181l125 -26q106 -23 165.5 -82t59.5 -142q2 -100 -54 -176.5t-152.5 -116.5t-217.5 -40q-51 0 -112 12.5t-105 36.5q-4 35 4 65q6 35 35 64q35 -21 92 -37t119 -16q107 0 174 46.5t67 121.5q0 126 -213 163l-77 13q-27 14 -48.5 41t-17.5 53l156 321
h461q-3 -54 -66 -120z" />
    <glyph glyph-name="six.dnom" horiz-adv-x="851" 
d="M539 760q-103 0 -181.5 -65t-117.5 -179q94 49 217 49q127 0 197.5 -65t70.5 -174q0 -139 -109 -239.5t-266 -100.5q-129 0 -208 80t-79 227q0 258 138 425t348 167q72 0 122 -14t97 -48q3 -59 -29 -121q-51 31 -93.5 44.5t-106.5 13.5zM397 451q-102 0 -184 -56
q-6 -41 -6 -88q0 -97 44.5 -149t129.5 -52q83 0 142 55.5t59 133.5q0 70 -45.5 113t-139.5 43z" />
    <glyph glyph-name="seven.dnom" horiz-adv-x="831" 
d="M776 870q35 -41 35 -120l-557 -750q-81 -17 -148 0q4 20 243 333t327 417h-508q-5 55 25 120h583z" />
    <glyph glyph-name="eight.dnom" horiz-adv-x="841" 
d="M557 465q137 -82 137 -186q1 -124 -113.5 -208.5t-271.5 -84.5q-130 0 -204 57t-74 156q0 81 69 154.5t166 103.5q-100 66 -100 170q0 108 101 183t235 75q109 0 177 -48t69 -130q0 -71 -56.5 -139.5t-134.5 -102.5zM479 774q-77 0 -126.5 -36t-49.5 -91q0 -43 31 -70
t119 -61q65 21 109 64.5t44 93.5q0 46 -35 73t-92 27zM340 109q85 0 143 39.5t58 97.5q0 92 -158 153q-80 -14 -140.5 -63.5t-60.5 -106.5q0 -59 43.5 -89.5t114.5 -30.5z" />
    <glyph glyph-name="nine.dnom" horiz-adv-x="854" 
d="M473 885q127 0 206 -80t79 -225q0 -259 -138 -426.5t-348 -167.5q-71 0 -120.5 13.5t-98.5 47.5q-3 62 29 121q50 -30 94 -43.5t109 -13.5q102 0 180 65t117 178q-96 -47 -217 -47q-127 0 -198 64.5t-71 173.5q0 140 110 240t267 100zM424 420q100 0 184 55q6 43 6 88
q0 98 -44.5 149.5t-129.5 51.5q-83 0 -140.5 -54.5t-57.5 -131.5q0 -70 44 -114t138 -44z" />
    <glyph glyph-name="zero.numr" horiz-adv-x="860" 
d="M610 1352q-121 0 -224.5 -81.5t-163.5 -220.5t-60 -300q0 -146 68 -219.5t188 -73.5q121 0 225 82t164.5 221.5t60.5 300.5q0 143 -68.5 217t-189.5 74zM442 580q-133 0 -133 174q0 119 39 229t103 177t133 67q133 0 133 -172q0 -118 -38.5 -228.5t-102.5 -178.5
t-134 -68z" />
    <glyph glyph-name="one.numr" horiz-adv-x="800" 
d="M705 588q6 -61 -25 -121h-555q-6 60 25 121h217l125 571q-187 -63 -222 -63q-25 35 -28 98q149 77 368 158q12 -3 32.5 -20.5t23.5 -26.5l-154 -717h193z" />
    <glyph glyph-name="two.numr" horiz-adv-x="806" 
d="M825 1133q0 -75 -42 -151t-118 -145t-168.5 -129.5t-205.5 -117.5h440q-19 -88 -43 -123h-555q-10 17 -17.5 60.5t-2.5 62.5l49 31q72 45 118 74.5t114.5 76.5t111.5 85t86.5 83t64.5 89t21 85q0 111 -154 111q-110 0 -280 -101q-14 74 18 142q138 86 293 86
q126 0 198 -56t72 -163z" />
    <glyph glyph-name="three.numr" horiz-adv-x="813" 
d="M375 580q-65 0 -131.5 25t-104.5 61q-37 -55 -37 -146q85 -65 258 -65q160 0 274 87.5t114 215.5q0 57 -33 99t-90 63q83 32 132.5 97.5t49.5 139.5q0 90 -64.5 142.5t-173.5 52.5q-158 0 -299 -84q-25 -75 -18 -133q141 90 268 90q69 0 106.5 -23.5t37.5 -68.5
q0 -77 -69.5 -117.5t-191.5 -40.5h-53q-21 -16 -38 -51t-17 -70h104q199 0 199 -121q0 -67 -64.5 -110t-158.5 -43z" />
    <glyph glyph-name="four.numr" horiz-adv-x="749" 
d="M745 1307l-110 -519h106q0 -63 -28 -120h-105l-43 -201h-145l43 201h-383q-45 25 -55 100q117 133 312.5 311.5t313.5 272.5q27 0 53.5 -14t40.5 -31zM571 1124q-263 -223 -376 -336h305z" />
    <glyph glyph-name="five.numr" horiz-adv-x="780" 
d="M784 1214h-307l-88 -178l125 -28q104 -22 164 -80.5t61 -141.5q1 -152 -119.5 -241.5t-306.5 -89.5q-135 0 -215 45q-4 34 2 65q6 38 35 64q105 -54 211 -54q108 0 176 47.5t68 122.5q0 128 -215 162l-76 13q-28 14 -50 41t-18 53l158 323h459q0 -30 -14.5 -57.5
t-49.5 -65.5z" />
    <glyph glyph-name="six.numr" horiz-adv-x="854" 
d="M639 1227q-103 0 -181.5 -65t-117.5 -179q96 47 217 47q127 0 197.5 -64t70.5 -173q0 -139 -108.5 -238.5t-265.5 -99.5q-129 0 -208 79t-79 224q0 170 62.5 306t173.5 212t249 76q71 0 121 -14.5t98 -47.5q3 -61 -28 -121q-51 31 -94 44.5t-107 13.5zM498 918
q-99 0 -185 -56q-6 -44 -6 -88q0 -97 44.5 -149t129.5 -52q83 0 142 55t59 132q0 71 -45 114.5t-139 43.5z" />
    <glyph glyph-name="seven.numr" horiz-adv-x="790" 
d="M905 1337q45 -45 45 -123l-598 -747q-85 -17 -147 0q4 17 247 313t361 434h-547q-3 63 25 123h614z" />
    <glyph glyph-name="eight.numr" horiz-adv-x="841" 
d="M653 930q139 -81 142 -185q1 -125 -114 -208.5t-271 -83.5q-132 0 -206.5 56.5t-74.5 156.5q0 81 70.5 154t167.5 102q-101 70 -101 172q0 107 101.5 182.5t234.5 75.5q108 0 176 -48t68 -130q1 -72 -56 -141t-137 -103zM578 1239q-76 0 -125.5 -35.5t-49.5 -91.5
q0 -42 31 -69t119 -62q66 23 110 67t44 93q0 45 -35 71.5t-94 26.5zM438 575q87 0 144 39t57 99q0 94 -158 151q-78 -14 -138 -63t-60 -105q0 -59 42.5 -90t112.5 -31z" />
    <glyph glyph-name="nine.numr" horiz-adv-x="851" 
d="M573 1352q126 0 204.5 -81t78.5 -227q0 -258 -137.5 -423.5t-345.5 -165.5q-74 0 -123.5 13.5t-95.5 45.5q-3 61 26 121q49 -30 94 -43.5t109 -13.5q103 0 181.5 65t115.5 178q-91 -49 -215 -49q-127 0 -197.5 65.5t-70.5 174.5q0 141 109 240.5t267 99.5zM524 887
q106 0 183 55q6 40 6 88q0 97 -44 149t-128 52t-142.5 -55.5t-58.5 -133.5q0 -70 45 -112.5t139 -42.5z" />
    </font>
</defs>
</svg>
