<?xml version="1.0" standalone="no"?>
<!DOCTYPE svg PUBLIC "-//W3C//DTD SVG 1.1//EN" "http://www.w3.org/Graphics/SVG/1.1/DTD/svg11.dtd" >
<svg xmlns="http://www.w3.org/2000/svg" xmlns:xlink="http://www.w3.org/1999/xlink" version="1.1">
<metadata>
Created by FontForge 20170731 at Tue May 17 18:57:28 2022
 By Aleksey,,,
Copyright (c) 2019 by Vasava Studio. All rights reserved.	
</metadata>
<defs>
<font id="CIBFontSans-Italic" horiz-adv-x="1126" >
  <font-face 
    font-family="CIBFont Sans"
    font-weight="400"
    font-style="italic"
    font-stretch="normal"
    units-per-em="2048"
    panose-1="2 11 6 3 2 2 2 2 1 4"
    ascent="1516"
    descent="-532"
    x-height="1022"
    cap-height="1339"
    bbox="-686 -530 2122 1989"
    underline-thickness="102"
    underline-position="-614"
    slope="-12"
    unicode-range="U+0020-FB02"
  />
<missing-glyph horiz-adv-x="1107" 
d="M-23 115l277 1302q478 -71 942 -200l-276 -1303q-473 70 -943 201zM336 1341l260 -626l496 465zM59 205l494 467l-262 628zM621 659l262 -630l231 1095zM84 150l752 -160l-258 624z" />
    <glyph glyph-name="fi" unicode="fi" horiz-adv-x="1210" 
d="M1176 1454q45 0 74.5 -28t29.5 -70q0 -56 -48 -102t-110 -46q-46 0 -75 28.5t-29 70.5q0 56 48 101.5t110 45.5zM999 1022q45 14 97 13t86 -19l-215 -1016h-201l182 858h-450l-191 -915q-74 -353 -393 -353q-88 0 -166 19q24 115 76 162q107 -13 110 -13q132 0 172 185
l191 915h-121q10 45 55 97.5t103 74.5l10 51q38 176 147 272.5t295 96.5q52 0 112 -6t83 -12q-24 -115 -76 -162q-81 12 -139 12q-88 0 -145.5 -57t-75.5 -144l-13 -59h467z" />
    <glyph glyph-name="fl" unicode="fl" horiz-adv-x="1226" 
d="M786 1450q52 0 112 -6t83 -12q-24 -115 -76 -162q-81 12 -139 12q-88 0 -145.5 -57t-75.5 -144l-13 -59h312q-8 -33 -37 -84t-59 -80h-250l-191 -915q-74 -353 -393 -353q-88 0 -166 19q24 115 76 162q107 -13 110 -13q132 0 172 185l191 915h-121q10 45 55 97.5
t103 74.5l10 51q38 176 147 272.5t295 96.5zM782 0l287 1348q39 26 106.5 45.5t108.5 19.5l-301 -1413h-201z" />
    <glyph glyph-name="f_f" unicode="ff" horiz-adv-x="1380" 
d="M1423 1450q52 0 112 -6t83 -12q-24 -115 -76 -162q-81 12 -139 12q-89 0 -148 -57.5t-73 -143.5l-11 -57h310q-8 -33 -38 -84t-61 -78h-237l-135 -796q-58 -353 -385 -353q-83 0 -166 19q24 115 76 162q107 -13 112 -13q67 0 108.5 50t53.5 135l135 796h-452l-209 -991
q-36 -174 -128.5 -262t-256.5 -88q-92 0 -166 18q25 117 75 162q66 -12 111 -12q125 0 164 182l209 991h-123q10 45 54.5 96.5t103.5 73.5l10 49q74 369 401 369q116 0 181 -18q-24 -115 -76 -162q-81 12 -125 12q-71 0 -116 -56t-64 -145l-13 -57h447l10 57
q30 173 142.5 271t299.5 98z" />
    <glyph glyph-name=".notdef" horiz-adv-x="1107" 
d="M-23 115l277 1302q478 -71 942 -200l-276 -1303q-473 70 -943 201zM336 1341l260 -626l496 465zM59 205l494 467l-262 628zM621 659l262 -630l231 1095zM84 150l752 -160l-258 624z" />
    <glyph glyph-name=".null" horiz-adv-x="0" 
 />
    <glyph glyph-name="nonmarkingreturn" horiz-adv-x="682" 
 />
    <glyph glyph-name="space" unicode=" " horiz-adv-x="471" 
 />
    <glyph glyph-name="exclam" unicode="!" horiz-adv-x="622" 
d="M367 434h-144q63 477 187 1024q106 24 206 0q-123 -603 -249 -1024zM201 -10q-51 0 -83 31t-32 79q0 66 53.5 119t120.5 53q52 0 84.5 -31t32.5 -79q0 -66 -53.5 -119t-122.5 -53z" />
    <glyph glyph-name="quotedbl" unicode="&#x22;" horiz-adv-x="542" 
d="M168 963l76 448q83 24 166 0q-22 -101 -59.5 -234t-71.5 -214h-111zM438 963l76 448q83 24 166 0q-22 -101 -59.5 -234t-71.5 -214h-111z" />
    <glyph glyph-name="numbersign" unicode="#" 
d="M1047 809h-46l-106 -277h156q-21 -100 -53 -136t-113 -36h-58l-139 -360h-190l139 360h-299l-141 -360h-191l141 360h-174q21 101 55.5 136.5t118.5 35.5h66l109 277h-179q21 106 56 139t118 33h72l135 348q100 26 191 0l-135 -348h299l135 348q100 25 190 0l-135 -348
h152q-23 -100 -56.5 -136t-117.5 -36zM705 532l106 277h-299l-109 -277h302z" />
    <glyph glyph-name="dollar" unicode="$" 
d="M1026 1120q-116 61 -229 70q-50 -238 -95 -436q143 -86 205 -161t62 -167q0 -166 -107.5 -283.5t-288.5 -152.5q-11 -65 -41 -213q-94 -28 -176 0l37 198q-180 6 -346 84q-4 45 12.5 96t49.5 93q169 -86 319 -98q48 241 107 489q-152 85 -219.5 157.5t-67.5 176.5
q0 158 105 259t300 126q6 37 19.5 105t19.5 100q92 28 174 0q-12 -78 -37 -201q131 -9 256 -59q13 -30 -7 -86.5t-52 -96.5zM457 1004q0 -48 25 -85t83 -79q7 48 16.5 105t22 127.5t19.5 111.5q-83 -20 -124.5 -67t-41.5 -113zM606 170q72 26 111.5 80.5t40.5 130.5
q0 102 -90 174q-28 -194 -62 -385z" />
    <glyph glyph-name="percent" unicode="%" horiz-adv-x="1511" 
d="M102 20l1147 1256q50 55 91.5 75t78.5 15.5t94 -31.5l-1144 -1253q-72 -78 -127 -90t-140 28zM526 1360q-158 0 -266 -132t-108 -323q0 -117 61.5 -177t167.5 -60q103 0 189 61t136 166.5t50 230.5q0 115 -62 174.5t-168 59.5zM406 793q-50 0 -76.5 33t-26.5 94
q0 129 58.5 222t138.5 93q102 0 102 -125q0 -127 -58.5 -222t-137.5 -95zM1200 674q-158 0 -266.5 -131.5t-108.5 -323.5q0 -114 61.5 -174.5t168.5 -60.5q156 0 265.5 133.5t109.5 324.5q0 114 -62 173t-168 59zM1081 109q-104 0 -104 124q0 129 58.5 223.5t138.5 94.5
q102 0 102 -127t-58.5 -221t-136.5 -94z" />
    <glyph glyph-name="ampersand" unicode="&#x26;" horiz-adv-x="1492" 
d="M1026 827l500 62q-10 -75 -45 -125.5t-99 -58.5l-120 -15l-68 -194q-38 -118 -99 -211t-129 -149.5t-149 -93.5t-154 -51t-149 -14q-193 0 -323.5 98t-129.5 263q0 160 106 281t265 159q-86 83 -86 197q0 116 63.5 211t174.5 149t245 54q191 0 312 -93q2 -100 -64 -182
q-69 59 -126 81t-128 22q-67 0 -128 -25t-103.5 -80t-42.5 -129q0 -84 63 -135t144 -51q0 -46 -12.5 -73.5t-38.5 -55.5q-208 0 -322.5 -80.5t-114.5 -214.5q0 -94 73.5 -154.5t215.5 -60.5q341 0 457 348l61 162l-211 -27q10 77 49.5 126.5t112.5 59.5z" />
    <glyph glyph-name="quotesingle" unicode="'" horiz-adv-x="272" 
d="M168 963l76 448q83 24 166 0q-22 -101 -59.5 -234t-71.5 -214h-111z" />
    <glyph glyph-name="parenleft" unicode="(" horiz-adv-x="655" 
d="M311 -217q-110 143 -169.5 306.5t-59.5 369.5q0 175 54 350t143.5 316.5t203.5 252t236 170.5q50 -8 95 -41t54 -71q-263 -153 -423 -419.5t-160 -535.5q0 -349 213 -608q-25 -31 -79 -57.5t-108 -32.5z" />
    <glyph glyph-name="parenright" unicode=")" horiz-adv-x="655" 
d="M412 1548q111 -144 170 -306.5t59 -369.5q0 -140 -35 -281.5t-96 -263.5t-141.5 -228.5t-174 -186.5t-190.5 -129q-50 7 -95 41.5t-56 71.5q265 155 424 420t159 536q0 347 -211 608q23 31 77.5 56.5t109.5 31.5z" />
    <glyph glyph-name="asterisk" unicode="*" horiz-adv-x="819" 
d="M831 1284q31 -75 17 -151q-112 -44 -217 -56l108 -155q-77 -70 -151 -93q-54 80 -76 177l-143 -181q-73 29 -111 95q83 96 172 165l-197 43q18 82 82 152q97 -22 181 -76l22 207q87 24 160 0q-9 -104 -55 -211z" />
    <glyph glyph-name="plus" unicode="+" 
d="M692 715h406q-23 -100 -54.5 -136t-113.5 -36h-273l-86 -408q-102 0 -132.5 24.5t-12.5 106.5l59 277h-403q21 101 54 136.5t114 35.5h270l90 422q101 0 131.5 -25t12.5 -106z" />
    <glyph glyph-name="comma" unicode="," horiz-adv-x="456" 
d="M188 254q49 0 80 -33t31 -84q0 -95 -100.5 -214.5t-237.5 -192.5q-51 0 -74 57q148 98 215 199q-38 7 -61 35.5t-23 68.5q0 64 52 114t118 50z" />
    <glyph glyph-name="hyphen" unicode="-" horiz-adv-x="614" 
d="M61 543q21 101 54 136.5t114 35.5h377q-23 -100 -54.5 -136t-113.5 -36h-377z" />
    <glyph glyph-name="period" unicode="." horiz-adv-x="458" 
d="M119 -10q-51 0 -83 31t-32 79q0 66 53.5 119t120.5 53q52 0 84.5 -31t32.5 -79q0 -66 -53.5 -119t-122.5 -53z" />
    <glyph glyph-name="slash" unicode="/" horiz-adv-x="571" 
d="M-147 -82l661 1374q46 92 100 119t174 27l-661 -1372q-44 -92 -96 -120t-178 -28z" />
    <glyph glyph-name="zero" unicode="0" 
d="M743 1360q-131 0 -252 -76t-209.5 -202.5t-141 -301t-52.5 -362.5q0 -213 97 -323.5t264 -110.5q130 0 251 76.5t209.5 204.5t141.5 303.5t53 363.5q0 210 -96 319t-265 109zM485 160q-186 0 -186 264q0 192 57.5 369t152 284t196.5 107q190 0 190 -262
q0 -189 -58.5 -366.5t-154 -286.5t-197.5 -109z" />
    <glyph glyph-name="one" unicode="1" 
d="M938 172q10 -89 -37 -172h-821q-7 91 37 172h309l197 915q-92 -35 -196 -70t-126 -38q-37 52 -37 141q252 134 529 240q19 -3 46 -29t29 -39l-237 -1120h307z" />
    <glyph glyph-name="two" unicode="2" 
d="M1102 1036q0 -93 -43 -188.5t-114 -181t-176 -174t-216 -164t-246 -154.5h647q-20 -117 -61 -174h-791q-16 24 -25 86t-3 88l71 49q104 70 180.5 124.5t170 126.5t158.5 135t123 132t87 136.5t29 130.5q0 174 -217 174q-161 0 -404 -154q-11 42 -5.5 90.5t34.5 108.5
q201 133 422 133q176 0 277.5 -82t101.5 -242z" />
    <glyph glyph-name="three" unicode="3" 
d="M459 158q-93 0 -187.5 36.5t-146.5 90.5q-55 -75 -55 -203q124 -102 366 -102q112 0 214.5 36t178 98t120 149.5t44.5 185.5q0 91 -48 154.5t-130 92.5q124 49 198 152.5t74 222.5q0 137 -90 213t-243 76q-236 0 -430 -131q-40 -98 -29 -185q212 138 385 138
q98 0 151.5 -38.5t53.5 -107.5q0 -125 -101 -193.5t-276 -66.5h-78q-31 -26 -55.5 -74t-24.5 -98h150q284 0 284 -190q0 -112 -94.5 -184t-230.5 -72z" />
    <glyph glyph-name="four" unicode="4" 
d="M1065 1298l-172 -811h156q0 -87 -43 -172h-150l-68 -315h-204l67 315h-551q-29 17 -50.5 59t-24.5 85q172 203 464 489t443 412q39 0 78 -19.5t55 -42.5zM819 1034q-112 -101 -280.5 -265t-278.5 -282h442z" />
    <glyph glyph-name="five" unicode="5" 
d="M1057 1167h-436l-142 -297l183 -41q153 -39 235.5 -127t83.5 -219q0 -149 -81.5 -264.5t-220.5 -177t-312 -61.5q-77 0 -162.5 17.5t-145.5 53.5q-7 38 4 92q13 57 54 90q49 -29 129.5 -54t169.5 -25q157 0 254.5 77t97.5 201q-3 100 -74.5 162t-228.5 92l-111 19
q-40 21 -69 60.5t-21 74.5l232 499h655q-3 -43 -25 -82t-69 -90z" />
    <glyph glyph-name="six" unicode="6" 
d="M778 1184q-148 0 -263 -106.5t-173 -289.5q144 78 317 78q182 0 278.5 -97.5t98.5 -262.5q0 -107 -42 -204t-114 -167.5t-173 -112.5t-213 -42q-178 0 -290 118.5t-112 331.5q0 199 54 372.5t147.5 295.5t224.5 192t279 70q105 0 174 -21t137 -73q3 -91 -41 -172
q-72 47 -134 68.5t-155 21.5zM571 705q-54 0 -127.5 -20t-138.5 -64q-10 -88 -10 -168q0 -148 64.5 -225.5t181.5 -77.5q123 0 208 90t85 219q0 111 -63 178.5t-200 67.5z" />
    <glyph glyph-name="seven" unicode="7" 
d="M1116 1339q62 -59 62 -174l-818 -1165q-114 -26 -206 0q8 30 367 529t474 638h-735q-7 89 37 172h819z" />
    <glyph glyph-name="eight" unicode="8" 
d="M807 713q102 -62 152 -129.5t51 -155.5q0 -127 -78.5 -231t-206 -160.5t-272.5 -56.5q-85 0 -156 19t-125.5 57.5t-85.5 101t-31 143.5q0 127 104.5 242t246.5 159q-146 102 -146 259q0 110 69.5 203t181.5 144.5t237 51.5q151 0 247.5 -72t96.5 -201q0 -112 -84 -218.5
t-201 -155.5zM723 1196q-119 0 -193.5 -56.5t-74.5 -150.5q0 -67 45.5 -110t167.5 -95q95 34 161 105t66 153q0 75 -47.5 114.5t-124.5 39.5zM496 158q127 0 211 63t84 162q0 144 -228 238q-112 -25 -201.5 -104t-89.5 -169q-1 -98 61.5 -144t162.5 -46z" />
    <glyph glyph-name="nine" unicode="9" 
d="M700 1360q179 0 290.5 -119t111.5 -334q0 -159 -34.5 -303t-98.5 -256.5t-150.5 -196t-194.5 -127.5t-227 -44q-105 0 -174 21t-137 73q-3 86 41 172q72 -48 133.5 -69t155.5 -21q149 0 263.5 105.5t172.5 289.5q-144 -78 -317 -78q-183 0 -279 96.5t-98 261.5
q0 107 42 205t114 169t173 113t213 42zM623 633q55 0 128 20t138 66q10 85 10 166q0 149 -64.5 226t-181.5 77q-123 0 -208 -89t-85 -218q0 -112 63 -180t200 -68z" />
    <glyph glyph-name="colon" unicode=":" horiz-adv-x="477" 
d="M291 750q-50 0 -80.5 30t-30.5 76q0 64 51 115t115 51q49 0 81 -31t32 -76q0 -64 -52 -114.5t-116 -50.5zM129 -10q-50 0 -80.5 30t-30.5 76q0 65 51 115.5t117 50.5q49 0 80 -30t31 -76q0 -64 -51.5 -115t-116.5 -51z" />
    <glyph glyph-name="semicolon" unicode=";" horiz-adv-x="456" 
d="M340 1022q49 0 80 -31t31 -76q0 -64 -51.5 -114.5t-116.5 -50.5q-49 0 -80 30t-31 76q0 65 51 115.5t117 50.5zM188 254q49 0 80 -33t31 -84q0 -95 -100.5 -214.5t-237.5 -192.5q-51 0 -74 57q148 98 215 199q-38 7 -61 35.5t-23 68.5q0 64 52 114t118 50z" />
    <glyph glyph-name="less" unicode="&#x3c;" 
d="M1090 1202q32 -85 18 -130t-92 -85l-707 -358l553 -359q42 -28 52 -56t-5.5 -63t-62.5 -96l-694 453q-37 26 -48 51t-4 66q8 48 31.5 74t71.5 51z" />
    <glyph glyph-name="equal" unicode="=" 
d="M143 748q23 106 56.5 139t109.5 33h807q-21 -101 -52.5 -136.5t-111.5 -35.5h-809zM55 338q22 101 56 136.5t112 35.5h807q-21 -100 -53 -136t-113 -36h-809z" />
    <glyph glyph-name="greater" unicode="&#x3e;" 
d="M1024 750q38 -25 49.5 -50t3.5 -67q-10 -48 -33 -74t-71 -51l-885 -453q-32 85 -18 130t90 85l706 359l-553 358q-42 28 -52 56t6.5 63t64.5 96z" />
    <glyph glyph-name="question" unicode="?" horiz-adv-x="923" 
d="M1014 1196q0 -86 -35 -160t-103 -134t-153.5 -108.5t-200.5 -93.5l-49 -239q-94 -33 -186 -21l51 248q15 69 41.5 105t91.5 59q153 53 243.5 126.5t90.5 162.5q-1 85 -54 125.5t-159 40.5q-132 0 -354 -95q-4 120 38 195q196 82 390 82q161 0 254.5 -79t93.5 -214z
M360 272q52 0 83.5 -31t31.5 -79q0 -66 -53.5 -119t-122.5 -53q-50 0 -81.5 31t-31.5 79q0 66 53 119t121 53z" />
    <glyph glyph-name="at" unicode="@" horiz-adv-x="1556" 
d="M961 1346q251 0 411.5 -151t163.5 -388q0 -145 -52.5 -280t-150 -223.5t-213.5 -88.5q-68 0 -122.5 38t-67.5 112q-141 -158 -307 -158q-121 0 -185 81t-55 222q9 147 82.5 270.5t190 193.5t247.5 70q213 0 299 -96l-94 -440q-34 -154 63 -154q46 0 87 44t67 109
t40.5 136t14.5 129q-2 186 -126.5 304t-325.5 118q-135 0 -264.5 -60t-225.5 -157.5t-154.5 -229.5t-58.5 -270q0 -199 126 -323.5t329 -124.5q139 0 317 53q19 -24 24 -64.5t-3 -76.5q-165 -64 -369 -64q-256 0 -416.5 159t-160.5 410q0 172 74.5 338t196 288.5t285 198
t333.5 75.5zM936 481l82 391q-63 39 -154 39q-130 0 -221.5 -117.5t-91.5 -283.5q0 -82 36.5 -125t102.5 -43q124 0 246 139z" />
    <glyph glyph-name="A" unicode="A" horiz-adv-x="1236" 
d="M893 0l-39 307h-555l-168 -307h-223l770 1346q128 21 233 0l203 -1346h-221zM393 477h438l-83 639z" />
    <glyph glyph-name="B" unicode="B" horiz-adv-x="1118" 
d="M821 735q219 -53 219 -248q0 -142 -79.5 -254t-213.5 -172.5t-296 -60.5h-418l280 1319q226 41 389 41q183 0 288.5 -75.5t105.5 -199.5q0 -125 -72 -216t-203 -134zM885 1038q0 65 -56.5 107.5t-169.5 42.5q-101 0 -172 -14l-81 -388h182q125 0 211 72.5t86 179.5z
M479 172q154 0 247 77t93 204q0 90 -69 127.5t-199 37.5h-182l-95 -446h205z" />
    <glyph glyph-name="C" unicode="C" horiz-adv-x="1269" 
d="M1143 193q-107 -102 -246 -157.5t-297 -55.5q-243 0 -380.5 131.5t-137.5 365.5q0 242 107.5 445t294 320.5t409.5 117.5q162 0 278 -57.5t175 -161.5q-22 -49 -71 -85.5t-99 -49.5q-34 88 -116 134t-204 46q-153 0 -282.5 -89t-206 -246.5t-76.5 -348.5
q0 -167 90 -257.5t256 -90.5q225 0 432 174z" />
    <glyph glyph-name="D" unicode="D" horiz-adv-x="1329" 
d="M717 1360q289 0 444.5 -132t155.5 -366q0 -181 -68.5 -340.5t-186.5 -273.5t-284.5 -180.5t-355.5 -67.5h-389l280 1319q234 41 404 41zM459 172q139 0 259.5 48.5t207 134.5t135.5 209t49 267q0 170 -107.5 260.5t-308.5 90.5q-124 0 -209 -15l-211 -995h185z" />
    <glyph glyph-name="E" unicode="E" horiz-adv-x="1095" 
d="M1118 1167h-633l-86 -403h531q0 -29 -21 -81t-49 -91h-495l-91 -420h633l-37 -172h-837l284 1339h838z" />
    <glyph glyph-name="F" unicode="F" horiz-adv-x="1052" 
d="M1118 1167h-633l-86 -403h531q0 -29 -21 -81t-49 -91h-498l-124 -592h-205l284 1339h838z" />
    <glyph glyph-name="G" unicode="G" horiz-adv-x="1329" 
d="M854 1186q-152 0 -281 -89.5t-205.5 -247t-76.5 -347.5q0 -168 88.5 -258t255.5 -90q187 0 354 92l74 352q45 38 105.5 47t105.5 -10l-92 -445q-111 -102 -262 -157.5t-322 -55.5q-243 0 -379.5 132t-136.5 368q0 180 63 343t170.5 280.5t257.5 186.5t318 69
q166 0 285 -56.5t180 -160.5q-76 -112 -172 -135q-36 88 -119.5 135t-210.5 47z" />
    <glyph glyph-name="H" unicode="H" horiz-adv-x="1333" 
d="M1163 1339q109 24 205 0l-285 -1339h-204l122 582h-641l-122 -582h-205l284 1339q109 24 205 0l-119 -561h641z" />
    <glyph glyph-name="I" unicode="I" horiz-adv-x="487" 
d="M238 0h-205l284 1339q109 24 205 0z" />
    <glyph glyph-name="J" unicode="J" horiz-adv-x="735" 
d="M565 1339q106 24 205 0l-225 -1052q-47 -231 -145.5 -327.5t-286.5 -96.5q-113 0 -209 47q23 117 84 168q98 -31 170 -31q65 0 110 53t66 148z" />
    <glyph glyph-name="K" unicode="K" horiz-adv-x="1179" 
d="M1266 1339l-699 -657l469 -682h-239l-426 627l-133 -627h-205l284 1339q109 24 205 0l-121 -567l611 567q133 24 254 0z" />
    <glyph glyph-name="L" unicode="L" horiz-adv-x="987" 
d="M274 172h600l-36 -172h-805l284 1339q109 24 205 0z" />
    <glyph glyph-name="M" unicode="M" horiz-adv-x="1597" 
d="M1358 1339q142 25 274 0l-284 -1339h-205l133 623l104 438l-583 -957q-70 -26 -166 0l-178 963l-82 -444l-133 -623h-205l284 1339q143 24 273 0l184 -944z" />
    <glyph glyph-name="N" unicode="N" horiz-adv-x="1404" 
d="M1235 1339h205l-285 -1339q-106 -24 -205 0l-501 1034l-41 -239l-170 -795h-205l284 1339q109 24 205 0l500 -1054l27 176z" />
    <glyph glyph-name="O" unicode="O" horiz-adv-x="1406" 
d="M592 -20q-242 0 -376 133t-134 366q0 180 63 343.5t170.5 281t256.5 187t313 69.5q242 0 376 -131t134 -363q0 -181 -63 -345.5t-170.5 -282.5t-256.5 -188t-313 -70zM629 154q154 0 282 93.5t200.5 252.5t72.5 346q0 164 -86.5 252t-249.5 88q-154 0 -281.5 -92.5
t-200.5 -250t-73 -343.5q0 -167 86.5 -256.5t249.5 -89.5z" />
    <glyph glyph-name="P" unicode="P" horiz-adv-x="1091" 
d="M682 1360q114 0 200.5 -30.5t136 -82t73.5 -113t24 -130.5q0 -163 -85 -294.5t-231.5 -204.5t-322.5 -73h-147l-92 -432h-205l280 1319q219 41 369 41zM494 604q189 0 303 104t114 265q0 99 -66.5 159t-213.5 60q-75 0 -144 -16l-120 -572h127z" />
    <glyph glyph-name="Q" unicode="Q" horiz-adv-x="1406" 
d="M1395 866q0 -217 -88 -404.5t-240 -311.5l123 -207q-27 -46 -73.5 -72.5t-96.5 -26.5l-119 203q-150 -67 -309 -67q-242 0 -376 133t-134 366q0 180 63 343.5t170.5 281t256.5 187t313 69.5q242 0 376 -131t134 -363zM629 154q97 0 186 39l-137 231q28 49 72 76.5
t94 27.5l133 -225q97 97 152 239t55 304q0 164 -86.5 252t-249.5 88q-154 0 -281.5 -92.5t-200.5 -250t-73 -343.5q0 -167 86.5 -256.5t249.5 -89.5z" />
    <glyph glyph-name="R" unicode="R" horiz-adv-x="1148" 
d="M1124 1026q0 -163 -94 -290.5t-246 -186.5l220 -549h-224l-192 508h-25h-217l-108 -508h-205l280 1319q216 41 369 41q91 0 166 -18.5t125.5 -49.5t85 -74t50 -91t15.5 -101zM383 680h139q184 0 291 83.5t107 223.5q0 205 -291 205q-70 0 -142 -14z" />
    <glyph glyph-name="S" unicode="S" horiz-adv-x="1056" 
d="M989 1120q-143 74 -297 74q-135 0 -202.5 -52.5t-67.5 -137.5q0 -67 51 -116.5t189 -131.5q146 -85 208 -160.5t62 -169.5q0 -200 -151 -325.5t-392 -125.5q-204 0 -379 84q-4 45 12.5 96t49.5 93q204 -101 356 -101q136 0 214 62.5t81 171.5q0 73 -46 128.5t-157 117.5
q-83 46 -134.5 80t-94.5 76t-61.5 87.5t-18.5 102.5q0 181 137 286t383 105q169 0 318 -61q13 -30 -7.5 -86.5t-52.5 -96.5z" />
    <glyph glyph-name="T" unicode="T" horiz-adv-x="1062" 
d="M1200 1339q-24 -123 -65 -198h-365l-242 -1141h-204l241 1141h-391q11 105 66 198h960z" />
    <glyph glyph-name="U" unicode="U" horiz-adv-x="1267" 
d="M522 -20q-243 0 -351.5 142t-49.5 419l168 798q108 24 203 0l-175 -819q-34 -162 29 -257t213 -95q144 0 252.5 93.5t144.5 258.5l172 819q108 24 203 0l-170 -798q-57 -267 -224.5 -414t-414.5 -147z" />
    <glyph glyph-name="V" unicode="V" horiz-adv-x="1171" 
d="M1106 1339q117 28 225 0l-799 -1343q-118 -22 -233 0l-109 1343q116 27 222 0l61 -1069z" />
    <glyph glyph-name="W" unicode="W" horiz-adv-x="1757" 
d="M1696 1339q119 24 221 0l-647 -1341q-110 -23 -234 0l-73 1022l-543 -1022q-118 -25 -234 0l4 1341q119 24 220 0l-23 -1044l549 1044q100 22 192 0l84 -1048z" />
    <glyph glyph-name="X" unicode="X" horiz-adv-x="1302" 
d="M1360 1341l-572 -649l347 -692h-224l-266 535l-446 -535h-248l606 709l-315 632q116 28 223 0l237 -477l410 477q54 13 126.5 13t121.5 -13z" />
    <glyph glyph-name="Y" unicode="Y" horiz-adv-x="1093" 
d="M1260 1339l-617 -845l-104 -494h-205l112 532l-260 807q119 24 226 0l178 -618l442 618q120 24 228 0z" />
    <glyph glyph-name="Z" unicode="Z" horiz-adv-x="1243" 
d="M1198 1339q33 -17 55 -70t9 -112l-955 -956h766q0 -41 -14.5 -110.5t-26.5 -90.5h-948q-31 17 -50.5 67t-8.5 107l960 965h-729q0 41 14 107.5t27 92.5h901z" />
    <glyph glyph-name="bracketleft" unicode="[" horiz-adv-x="628" 
d="M743 1376h-213l-303 -1421h215q19 -67 -2 -172h-452l374 1765h453q-23 -110 -72 -172z" />
    <glyph glyph-name="backslash" unicode="\" horiz-adv-x="671" 
d="M565 -82q-105 0 -154 26.5t-59 104.5l-176 1389q53 1 85 -2.5t62.5 -16t47 -40t22.5 -72.5z" />
    <glyph glyph-name="bracketright" unicode="]" horiz-adv-x="628" 
d="M256 1548h453l-375 -1765h-453q23 110 72 172h211l305 1421h-215q-19 68 2 172z" />
    <glyph glyph-name="underscore" unicode="_" horiz-adv-x="831" 
d="M-207 -193q21 102 54.5 137.5t113.5 35.5h815q-22 -103 -55 -138t-111 -35h-817z" />
    <glyph glyph-name="grave" unicode="`" horiz-adv-x="382" 
d="M238 1124l-156 226q-31 42 -31 71q0 24 21.5 49.5t68.5 42.5l45 15l162 -354z" />
    <glyph glyph-name="a" unicode="a" horiz-adv-x="1067" 
d="M709 1047q113 0 201 -25.5t134 -67.5l-202 -954q-92 0 -137 44.5t-27 127.5l4 18q-75 -96 -176.5 -153t-220.5 -57q-125 0 -194 81.5t-68 233.5q1 199 93.5 372t250.5 276.5t342 103.5zM354 135q115 0 235.5 117t162.5 274l69 332q-64 31 -151 31q-121 0 -224 -77.5
t-163 -208.5t-60 -281q0 -187 131 -187z" />
    <glyph glyph-name="b" unicode="b" horiz-adv-x="1122" 
d="M778 1042q139 0 212 -82.5t73 -238.5q0 -186 -93.5 -356.5t-257.5 -277.5t-354 -107q-209 0 -321 22h-8v2l284 1344q39 26 106 45.5t109 19.5l-122 -579q75 92 173 150t199 58zM369 133q132 0 247 80t180.5 207.5t65.5 265.5q0 104 -39 152.5t-121 48.5
q-102 0 -209.5 -103t-150.5 -258l-82 -385q44 -8 109 -8z" />
    <glyph glyph-name="c" unicode="c" horiz-adv-x="956" 
d="M762 227l2 -164q-75 -39 -162 -61t-160 -22q-175 0 -273.5 92.5t-98.5 265.5q0 199 83 360t230.5 252.5t329.5 91.5q119 0 229 -41q-14 -50 -42 -94t-58 -71q-27 16 -70 25t-76 9q-183 0 -300 -136.5t-117 -350.5q0 -105 56 -164t173 -59q94 0 254 67z" />
    <glyph glyph-name="d" unicode="d" horiz-adv-x="1124" 
d="M965 1348q39 26 106.5 45.5t108.5 19.5l-299 -1413q-17 0 -34.5 2t-41.5 8.5t-41 18.5t-33.5 32t-18 49.5t4.5 69.5l2 10q-76 -93 -173.5 -151.5t-199.5 -58.5q-140 0 -212.5 82t-72.5 237q0 139 49.5 274t132.5 238.5t200 167t245 63.5q121 0 199 -59zM420 135
q105 0 214 106t152 265l72 344q-59 39 -166 39q-115 0 -215.5 -80.5t-157.5 -208t-57 -264.5q0 -103 39 -152t119 -49z" />
    <glyph glyph-name="e" unicode="e" horiz-adv-x="1019" 
d="M981 838q0 -358 -705 -451v-6q0 -106 58.5 -163.5t167.5 -57.5q72 0 153.5 33t139.5 83q62 -48 53 -161q-168 -138 -389 -138q-186 0 -287.5 97t-101.5 266q0 140 48 269t129.5 224.5t197.5 152t245 56.5q149 0 220 -55t71 -149zM664 887q-125 0 -225.5 -97t-141.5 -245
q227 19 354 84t127 162q0 43 -29.5 69.5t-84.5 26.5z" />
    <glyph glyph-name="f" unicode="f" horiz-adv-x="743" 
d="M786 1450q52 0 112 -6t83 -12q-24 -115 -76 -162q-81 12 -139 12q-88 0 -145.5 -57t-75.5 -144l-13 -59h312q-8 -33 -37 -84t-59 -80h-250l-191 -915q-74 -353 -393 -353q-88 0 -166 19q24 115 76 162q107 -13 110 -13q132 0 172 185l191 915h-121q10 45 55 97.5
t103 74.5l10 51q38 176 147 272.5t295 96.5z" />
    <glyph glyph-name="g" unicode="g" horiz-adv-x="1120" 
d="M909 963q41 25 94.5 41t90.5 16l-222 -1038q-19 -90 -58 -159t-105 -123t-167.5 -82t-234.5 -28q-165 0 -276 60q25 106 82 153q128 -49 229 -49q107 0 175.5 27.5t102.5 75t54 125.5l43 206q-74 -91 -172.5 -149.5t-198.5 -58.5q-140 0 -212.5 82t-72.5 237
q0 139 49.5 274t132.5 238.5t200 167t245 63.5q139 0 221 -79zM420 135q103 0 209.5 100.5t150.5 253.5l78 361q-62 39 -166 39q-115 0 -215.5 -80.5t-157.5 -208t-57 -264.5q0 -103 39 -152t119 -49z" />
    <glyph glyph-name="h" unicode="h" horiz-adv-x="1089" 
d="M772 1036q153 0 215.5 -91.5t20.5 -276.5l-152 -668h-199l150 655q27 123 1 179.5t-106 56.5q-108 0 -220.5 -122.5t-149.5 -279.5l-105 -489h-200l286 1348q39 26 106.5 45.5t108.5 19.5l-122 -577q157 200 366 200z" />
    <glyph glyph-name="i" unicode="i" horiz-adv-x="473" 
d="M543 1356q0 -56 -48.5 -102t-111.5 -46q-46 0 -74 28.5t-28 70.5q0 56 46.5 101.5t108.5 45.5q46 0 76.5 -28.5t30.5 -69.5zM27 0l215 1016q48 19 105 19.5t95 -19.5l-215 -1016h-200z" />
    <glyph glyph-name="j" unicode="j" horiz-adv-x="473" 
d="M383 1208q-45 0 -73.5 28.5t-28.5 70.5q0 56 46.5 101.5t108.5 45.5q47 0 77 -28t30 -70q0 -58 -48 -103t-112 -45zM-150 -471q-32 7 -62 53t-28 86q104 69 175.5 157t91.5 181l215 1010q50 20 106 20t94 -20l-204 -961q-41 -190 -152.5 -333.5t-235.5 -192.5z" />
    <glyph glyph-name="k" unicode="k" horiz-adv-x="1064" 
d="M1114 1016l-567 -457l395 -559h-225l-377 526l-113 -526h-200l286 1348q39 26 106.5 45.5t108.5 19.5l-166 -780l498 385q127 25 254 -2z" />
    <glyph glyph-name="l" unicode="l" horiz-adv-x="471" 
d="M27 0l286 1348q39 26 106.5 45.5t108.5 19.5l-301 -1413h-200z" />
    <glyph glyph-name="m" unicode="m" horiz-adv-x="1724" 
d="M1409 1036q151 0 213 -91.5t20 -276.5l-151 -668h-199l150 655q28 123 2.5 179.5t-107.5 56.5q-104 0 -214.5 -115.5t-151.5 -267.5l-115 -508h-199l150 655q27 123 1 179.5t-106 56.5q-105 0 -215.5 -117t-150.5 -270l-109 -504h-200l217 1018q190 0 162 -182
q75 95 169 147.5t197 52.5q243 0 252 -223q76 106 175 164.5t210 58.5z" />
    <glyph glyph-name="n" unicode="n" horiz-adv-x="1089" 
d="M772 1036q153 0 215.5 -91.5t20.5 -276.5l-152 -668h-199l150 655q27 123 1 179.5t-106 56.5q-105 0 -215.5 -117t-150.5 -270l-109 -504h-200l217 1018q51 0 86 -12.5t51.5 -30.5t23.5 -45t6 -47.5t-5 -46.5q75 95 169 147.5t197 52.5z" />
    <glyph glyph-name="o" unicode="o" horiz-adv-x="1107" 
d="M414 -20q-163 0 -254.5 94.5t-91.5 263.5q0 143 49.5 273.5t133 225t199 150t242.5 55.5q164 0 256 -96.5t92 -263.5q0 -191 -83.5 -353t-227.5 -255.5t-315 -93.5zM449 154q105 0 194 65.5t141 181t52 254.5q0 101 -45.5 156t-128.5 55q-163 0 -276.5 -146t-113.5 -360
q0 -99 46 -152.5t131 -53.5z" />
    <glyph glyph-name="p" unicode="p" horiz-adv-x="1122" 
d="M776 1040q140 0 212.5 -82.5t72.5 -238.5q0 -138 -49.5 -273t-132.5 -238.5t-200 -167t-245 -63.5q-120 0 -201 62l-75 -363q-48 -36 -110 -61t-109 -25l305 1432q47 0 103.5 -29t74.5 -71l-12 -56q76 77 171.5 125.5t194.5 48.5zM430 131q115 0 215.5 80.5t157.5 208
t57 264.5q0 103 -39 152t-119 49q-93 0 -192 -73.5t-152 -188.5l-96 -453q62 -39 168 -39z" />
    <glyph glyph-name="q" unicode="q" horiz-adv-x="1122" 
d="M911 961q41 26 94.5 42.5t90.5 16.5l-291 -1366q-39 -26 -105.5 -45t-107.5 -19l129 603q-76 -94 -174.5 -153.5t-200.5 -59.5q-140 0 -212.5 82t-72.5 237q0 139 49.5 274t132.5 238.5t200 167t245 63.5q142 0 223 -81zM795 543l65 307q-62 39 -168 39
q-115 0 -215.5 -80.5t-157.5 -208t-57 -264.5q0 -103 39 -152t119 -49q112 0 226 117.5t149 290.5z" />
    <glyph glyph-name="r" unicode="r" horiz-adv-x="716" 
d="M762 1036q8 -19 8 -49q0 -34 -15.5 -82t-35.5 -74q-63 13 -78 13q-78 0 -172 -96t-129 -226l-113 -522h-200l217 1018q60 0 98.5 -17t51 -43t17 -56.5t-2.5 -57.5q71 98 159 145t174 47h21z" />
    <glyph glyph-name="s" unicode="s" horiz-adv-x="817" 
d="M29 211q150 -72 264 -72q70 0 126 40.5t56 99.5q0 55 -28.5 91.5t-120.5 90.5q-65 41 -101.5 74.5t-57 77.5t-20.5 100q0 148 110.5 239.5t317.5 91.5q79 0 146.5 -19.5t103.5 -41.5q-8 -39 -31 -85t-53 -79q-42 33 -91.5 47.5t-125.5 14.5q-80 0 -129 -35.5t-49 -93.5
q0 -44 28 -80t103 -82q125 -76 168 -135.5t43 -145.5q0 -146 -115.5 -239t-316.5 -93q-147 0 -256 56q-6 24 -6 49q0 83 35 129z" />
    <glyph glyph-name="t" unicode="t" horiz-adv-x="780" 
d="M485 1022h314q-9 -40 -32.5 -88t-55.5 -76h-260l-117 -543q-20 -94 5.5 -128.5t111.5 -34.5q53 0 118 16q34 -44 9 -162q-67 -29 -209 -29q-161 0 -220 65.5t-26 221.5l127 594h-146q21 95 152 217t272 148z" />
    <glyph glyph-name="u" unicode="u" horiz-adv-x="1089" 
d="M860 1010q102 24 205 24l-219 -1034q-197 0 -162 186q-75 -96 -167.5 -150t-194.5 -54q-153 0 -218 89t-26 265l153 674q99 24 205 24l-147 -651q-34 -137 -11.5 -196.5t113.5 -59.5q73 0 151.5 64t133.5 150.5t76 166.5z" />
    <glyph glyph-name="v" unicode="v" horiz-adv-x="880" 
d="M772 1020q111 24 213 0l-625 -1018q-62 -16 -116 -16q-49 0 -105 16l-26 1020q111 23 211 0l-15 -786z" />
    <glyph glyph-name="w" unicode="w" horiz-adv-x="1386" 
d="M1294 1022q108 21 197 0l-561 -1020q-56 -16 -92 -16q-47 0 -97 16l-28 741l-422 -741q-43 -16 -90 -16q-46 0 -99 16l11 1020q100 21 198 0l-30 -746l413 746q92 21 176 0l35 -760z" />
    <glyph glyph-name="x" unicode="x" horiz-adv-x="1044" 
d="M-74 0h234l334 377l174 -377h229l-258 514l467 508q-110 28 -232 0l-323 -367l-166 367q-108 28 -229 0l256 -512z" />
    <glyph glyph-name="y" unicode="y" horiz-adv-x="978" 
d="M860 1022q113 24 223 0l-577 -930q-224 -355 -500 -502q-50 12 -85.5 67.5t-26.5 109.5q257 121 405 303l-186 952q108 23 211 0l118 -703z" />
    <glyph glyph-name="z" unicode="z" horiz-adv-x="950" 
d="M842 1022q44 -24 65 -74.5t8 -105.5l-665 -660h541q2 -8 2 -26q0 -38 -14 -83.5t-29 -72.5h-670q-43 24 -64.5 74.5t-7.5 105.5l674 660h-508q-4 28 -4 43q0 71 45 139h627z" />
    <glyph glyph-name="braceleft" unicode="{" horiz-adv-x="626" 
d="M735 1548q70 0 99 -10q-22 -108 -78 -156q-87 0 -147 -51.5t-60 -156.5q0 -40 6 -105t6 -108q0 -113 -63.5 -196.5t-161.5 -98.5q58 -13 90.5 -62t34.5 -115q0 -53 -38 -139t-76 -168t-38 -125q0 -104 137 -108q39 -42 17 -156q-42 -10 -103 -10q-123 0 -192.5 58
t-69.5 159q0 73 40.5 178t81 196t40.5 130q0 36 -27.5 57t-62.5 21h-117l8 36q17 82 46.5 109t97.5 27q71 0 110 42.5t39 125.5q0 45 -7 127t-7 120q0 178 112 278.5t283 100.5z" />
    <glyph glyph-name="bar" unicode="|" horiz-adv-x="489" 
d="M-6 -190l368 1734q107 24 205 0l-368 -1734q-109 -24 -205 0z" />
    <glyph glyph-name="braceright" unicode="}" horiz-adv-x="626" 
d="M522 752h117l-8 -37q-17 -82 -46 -108.5t-98 -26.5q-71 0 -110 -42.5t-39 -125.5q0 -46 7 -128t7 -120q0 -179 -111.5 -280t-283.5 -101q-60 0 -98 10q21 107 78 156q88 2 147 54t59 157q0 41 -6 105.5t-6 107.5q0 113 62.5 195.5t160.5 97.5q-57 17 -89 66t-32 112
q0 52 37.5 138t75 168.5t37.5 125.5q0 102 -137 106q-39 44 -17 156q45 10 103 10q123 0 192.5 -57t69.5 -160q0 -72 -40.5 -176.5t-81 -196t-40.5 -131.5q0 -36 27 -55.5t63 -19.5z" />
    <glyph glyph-name="exclamdown" unicode="&#xa1;" horiz-adv-x="622" 
d="M426 1044q52 0 83.5 -31t31.5 -79q0 -66 -53.5 -119t-120.5 -53q-52 0 -84.5 31t-32.5 79q0 66 53.5 119t122.5 53zM260 600h143q-69 -520 -186 -1024q-107 -24 -207 0q121 592 250 1024z" />
    <glyph glyph-name="cent" unicode="&#xa2;" 
d="M922 1202q76 -10 145 -35q-36 -110 -102 -166q-37 21 -97 31q-205 -666 -217 -706q84 5 236 67l2 -164q-146 -74 -293 -84q-79 -240 -82 -249q-86 -8 -166 34q17 53 72 236q-108 33 -166.5 119t-58.5 219q0 181 69.5 332t193.5 246t281 118q17 55 34.5 108t30.5 92t15 46
q51 4 85.5 -4t80.5 -31q-2 -7 -63 -209zM401 549q0 -128 80 -182l201 645q-129 -46 -205 -170t-76 -293z" />
    <glyph glyph-name="sterling" unicode="&#xa3;" 
d="M764 1196q-97 0 -166 -51.5t-90 -149.5q-7 -29 -8 -57.5t3.5 -59t9 -52.5t13.5 -57.5t13 -53.5h389q-50 -164 -162 -164h-219q0 -2 -1 -5t-1 -5q-46 -204 -209 -367h643q-25 -120 -72 -174h-809q-18 21 -30 71t-7 76l66 46q89 65 153.5 158t90.5 200h-234q33 79 74 121.5
t111 42.5h43q-7 22 -19.5 56t-20.5 55t-17 56.5t-7.5 60t6.5 65.5q37 171 162.5 268.5t292.5 97.5q121 0 205.5 -21.5t158.5 -76.5q6 -124 -57 -199q-81 71 -151 95t-154 24z" />
    <glyph glyph-name="currency" unicode="&#xa4;" 
d="M1071 803q0 -126 -47 -239t-131 -197q82 -58 145 -150q-61 -76 -168 -129l-102 184q-129 -71 -272 -71q-133 0 -224 57l-192 -186q-82 55 -119 145q106 95 209 150q-45 79 -45 186q0 133 51.5 250.5t142.5 202.5q-90 61 -149 151q69 80 168 129l106 -192q117 63 254 63
q133 0 224 -57l194 186q82 -55 119 -145q-106 -95 -209 -150q45 -82 45 -188zM330 582q0 -101 51.5 -154t148.5 -51q144 0 239 113t95 284q0 99 -52 153t-150 54q-141 0 -236.5 -114.5t-95.5 -284.5z" />
    <glyph glyph-name="yen" unicode="&#xa5;" 
d="M842 537h-168l-27 -131h295q-15 -68 -58 -116t-104 -48h-168l-51 -242h-205l52 242h-302q19 74 57.5 119t98.5 45h180l27 131h-301q19 73 58.5 118t99.5 45h100l-193 639q117 24 228 0l149 -620l410 620q117 24 225 0l-459 -639h218q-15 -69 -57.5 -116t-104.5 -47z" />
    <glyph glyph-name="brokenbar" unicode="&#xa6;" horiz-adv-x="489" 
d="M203 793l159 751q107 24 205 0l-159 -751h-205zM-6 -188l160 751h204l-159 -751q-109 -27 -205 0z" />
    <glyph glyph-name="section" unicode="&#xa7;" 
d="M754 1288q-112 0 -178 -45t-66 -113q0 -62 48.5 -113.5t162.5 -115.5q139 -75 190.5 -134.5t51.5 -145.5q0 -84 -44 -152t-120 -104q86 -78 86 -168q0 -182 -140 -297t-356 -115q-192 0 -348 76q-10 97 61 186q191 -90 322 -90q119 0 185.5 49.5t66.5 134.5q0 57 -37 98
t-152 107q-99 56 -152.5 98t-80.5 91t-27 112q0 85 47 149t138 91q-111 94 -111 215q0 157 132 255.5t374 98.5q124 0 258 -55q13 -28 -7 -84t-50 -96q-129 67 -254 67zM586 768q-13 7 -84 53q-37 -16 -61.5 -51t-24.5 -76q0 -63 52 -113.5t175 -113.5q31 -17 53 -31
q34 20 53 52.5t19 68.5q0 62 -38.5 106.5t-143.5 104.5z" />
    <glyph glyph-name="dieresis" unicode="&#xa8;" horiz-adv-x="612" 
d="M279 1210q-46 0 -76.5 28.5t-30.5 72.5q0 60 50 106.5t112 46.5q47 0 77.5 -28.5t30.5 -71.5q0 -60 -50 -107t-113 -47zM629 1210q-46 0 -76.5 28.5t-30.5 72.5q0 60 50 106.5t112 46.5q50 0 80 -29.5t27 -74.5q-1 -60 -50.5 -105t-111.5 -45z" />
    <glyph glyph-name="copyright" unicode="&#xa9;" horiz-adv-x="1462" 
d="M621 -20q-236 0 -384.5 148.5t-148.5 383.5q0 174 64 330t173.5 268t262 177t323.5 65q234 0 382.5 -148.5t148.5 -382.5q0 -233 -108.5 -426t-297 -304t-415.5 -111zM651 129q163 0 310.5 90.5t237 243.5t89.5 325q0 184 -113.5 299t-295.5 115q-123 0 -240 -54
t-204 -143t-140 -211t-53 -251q0 -185 113 -299.5t296 -114.5zM690 281q-135 0 -211 69.5t-76 198.5q0 218 144 363t358 145q67 0 172 -25q-31 -91 -86 -139q-50 16 -102 16q-131 0 -215 -90t-84 -229q0 -73 43.5 -114.5t134.5 -41.5q64 0 160 35v-141q-124 -47 -238 -47z
" />
    <glyph glyph-name="ordfeminine" unicode="&#xaa;" horiz-adv-x="686" 
d="M563 1389q136 0 213 -60l-123 -571q-61 0 -93.5 27.5t-27.5 72.5q-99 -113 -227 -113q-76 0 -119 48.5t-43 144.5q2 181 126.5 316t293.5 135zM354 856q62 0 131.5 66t92.5 153l38 182q-32 19 -81 19q-101 0 -174.5 -94.5t-73.5 -223.5q0 -102 67 -102z" />
    <glyph glyph-name="guillemotleft" unicode="&#xab;" horiz-adv-x="1001" 
d="M621 981l-351 -446l191 -439q-105 -24 -199 0l-143 334q-27 60 -27 82q0 10 1 19t4.5 18.5t6 16.5t8.5 16.5t9 14.5t11 15t10.5 13t11 13.5t10.5 12.5l264 330q44 13 98.5 13t94.5 -13zM1020 981l-350 -446l190 -439q-104 -24 -198 0l-144 334q-26 58 -26 82
q0 27 14 56.5t23 41t34 41.5l264 330q44 13 98.5 13t94.5 -13z" />
    <glyph glyph-name="registered" unicode="&#xae;" horiz-adv-x="1353" 
d="M858 1434q224 0 358 -117t134 -324q0 -153 -59.5 -293t-159.5 -241t-238.5 -161t-290.5 -60q-209 0 -334 118t-125 326q0 154 56.5 293.5t152.5 240t228 159.5t278 59zM633 377q159 0 289 77.5t204 213t74 301.5q0 152 -94 239.5t-277 87.5q-152 0 -275 -76.5
t-192 -211.5t-69 -303q0 -152 86 -240t254 -88zM1001 1004q0 -62 -43 -122.5t-106 -93.5l94 -241h-131l-80 217h-80l-47 -217h-125l127 598q110 18 187 18q102 0 153 -46.5t51 -112.5zM737 866q66 0 108 34t42 89q0 33 -27 54.5t-84 21.5q-23 0 -59 -4l-41 -195h61z" />
    <glyph glyph-name="macron" unicode="&#xaf;" horiz-adv-x="514" 
d="M190 1403h515l-35 -164h-514z" />
    <glyph glyph-name="degree" unicode="&#xb0;" horiz-adv-x="860" 
d="M608 1372q-172 0 -297 -133t-125 -317q0 -125 74 -200t195 -75q116 0 215.5 62t158 167t58.5 226q0 125 -76 197.5t-203 72.5zM487 805q-72 0 -107.5 41.5t-35.5 109.5q0 113 66.5 190t164.5 77q75 0 114.5 -41.5t39.5 -110.5q0 -110 -71 -188t-171 -78z" />
    <glyph glyph-name="plusminus" unicode="&#xb1;" 
d="M721 877h416q-22 -101 -55 -136.5t-113 -35.5h-285l-78 -361q-101 0 -130.5 24.5t-12.5 106.5l49 230h-403q24 108 58 140t109 32h273l76 360q102 0 132 -24.5t13 -106.5zM-33 39q22 101 56 136.5t112 35.5h860q-23 -101 -54.5 -136.5t-113.5 -35.5h-860z" />
    <glyph glyph-name="acute" unicode="&#xb4;" horiz-adv-x="382" 
d="M150 1122l-103 68l254 342l33 -19q72 -37 72 -81q0 -52 -99 -144z" />
    <glyph glyph-name="paragraph" unicode="&#xb6;" horiz-adv-x="1153" 
d="M786 1360q126 0 208 -12.5t184 -47.5l-211 -997q-49 -223 -168 -329.5t-283 -106.5q-185 0 -283 55q1 43 17 86.5t39 71.5q95 -53 258 -53q94 0 161.5 60t92.5 179l196 934q-48 19 -94 19q-35 0 -65 -9l-164 -766h-72q-212 0 -338.5 99.5t-126.5 238.5q0 127 52.5 236
t141 183.5t206.5 116.5t249 42z" />
    <glyph glyph-name="periodcentered" unicode="&#xb7;" horiz-adv-x="458" 
d="M219 469q-50 0 -81.5 31.5t-31.5 79.5q0 66 53 119t120 53q53 0 84.5 -31.5t31.5 -79.5q0 -66 -53.5 -119t-122.5 -53z" />
    <glyph glyph-name="cedilla" unicode="&#xb8;" horiz-adv-x="399" 
d="M84 -127q69 0 109 -31t40 -92q0 -60 -31.5 -107t-79.5 -72t-96.5 -37.5t-91.5 -12.5q-66 0 -141 14q16 74 39 105q80 -21 133 -21q63 0 105.5 29.5t42.5 72.5q0 58 -107 58q-26 0 -78 -10q-35 26 -30 61l131 170h118l-98 -131q24 4 35 4z" />
    <glyph glyph-name="ordmasculine" unicode="&#xba;" horiz-adv-x="716" 
d="M393 745q-101 0 -158 58.5t-57 161.5q0 174 111 296.5t268 122.5q102 0 159.5 -59t57.5 -160q0 -175 -111.5 -297.5t-269.5 -122.5zM420 870q87 0 147 79.5t60 193.5q0 56 -25 86.5t-70 30.5q-88 0 -147 -80t-59 -197q0 -54 24 -83.5t70 -29.5z" />
    <glyph glyph-name="guillemotright" unicode="&#xbb;" horiz-adv-x="1003" 
d="M522 565q0 -12 -2 -23.5t-7 -23.5t-8.5 -20t-12.5 -20.5t-12.5 -17.5t-14 -18.5t-12.5 -15.5l-267 -330q-44 -12 -97.5 -12.5t-94.5 12.5l352 447l-192 438q106 26 198 0l144 -332q26 -61 26 -84zM895 649q27 -64 27 -84q0 -14 -4 -29t-7.5 -24.5t-13.5 -25t-13.5 -20.5
t-17 -21.5t-14.5 -18.5l-266 -330q-44 -12 -98 -12.5t-95 12.5l352 447l-192 438q106 27 199 0z" />
    <glyph glyph-name="onequarter" unicode="&#xbc;" horiz-adv-x="1908" 
d="M1645 1442q48 0 79 -31l-1214 -1462q-35 -41 -84 -41q-68 0 -104 29l1212 1458q17 21 48 34t63 13zM127 467q-3 78 29 147h204l109 504q-163 -47 -197 -47q-18 25 -25.5 51.5t-8.5 71.5q170 84 385 160q12 -1 35.5 -24t25.5 -32l-147 -684h182q6 -78 -29 -147h-563z
M1823 831l-107 -491h101q-3 -71 -35 -147h-99l-41 -193h-178l41 193h-360q-23 13 -40.5 46t-23.5 74q117 135 306 304t317 270q34 0 68 -17.5t51 -38.5zM1610 612q-216 -175 -322 -272h262z" />
    <glyph glyph-name="onehalf" unicode="&#xbd;" horiz-adv-x="1982" 
d="M1645 1442q48 0 79 -31l-1214 -1462q-35 -41 -84 -41q-68 0 -104 29l1212 1458q17 21 48 34t63 13zM127 467q-3 78 29 147h204l109 504q-163 -47 -197 -47q-18 25 -25.5 51.5t-8.5 71.5q170 84 385 160q12 -1 35.5 -24t25.5 -32l-147 -684h182q6 -78 -29 -147h-563z
M1901 659q0 -75 -41 -150.5t-111 -140t-153 -118t-179 -98.5h395q-18 -106 -49 -152h-555q-13 21 -21 73.5t-3 78.5l47 28q57 34 92.5 55.5t93 58.5t94 64.5t80.5 66t69 70.5t42.5 69t17.5 71q0 98 -133 98q-111 0 -280 -102q-9 34 -4.5 75.5t28.5 94.5q134 86 291 86
q133 0 206 -58.5t73 -169.5z" />
    <glyph glyph-name="threequarters" unicode="&#xbe;" horiz-adv-x="1921" 
d="M1657 1442q49 0 80 -31l-1215 -1462q-35 -41 -84 -41q-68 0 -104 29l1212 1458q17 21 48 34t63 13zM758 764q0 -129 -114.5 -219t-274.5 -90q-179 0 -265 71q0 107 46 174q38 -39 105.5 -66.5t133.5 -27.5q79 0 134 38.5t55 92.5q0 105 -177 105h-108q0 42 19 83.5
t44 63.5h54q104 -2 168.5 30.5t64.5 102.5q0 38 -35 58t-96 20q-117 0 -264 -90q-7 68 26 162q137 82 299 82q112 0 178 -54.5t66 -146.5q0 -71 -47 -134t-125 -97q113 -44 113 -158zM1835 831l-106 -491h100q-3 -71 -35 -147h-98l-41 -193h-178l41 193h-361
q-23 13 -40 45.5t-23 74.5q117 135 306 304.5t316 269.5q34 0 68 -17.5t51 -38.5zM1622 612q-216 -175 -322 -272h263z" />
    <glyph glyph-name="questiondown" unicode="&#xbf;" horiz-adv-x="811" 
d="M629 1044q51 0 82.5 -31t31.5 -79q0 -66 -53.5 -119t-122.5 -53q-51 0 -82.5 31t-31.5 79q0 66 53.5 119t122.5 53zM336 -272q135 0 354 94q4 -123 -39 -195q-192 -82 -389 -82q-161 0 -254.5 79t-93.5 214q0 87 35 161t103.5 134t154 108.5t201.5 94.5l47 237
q99 34 188 23l-53 -248q-15 -70 -41.5 -106.5t-91.5 -59.5q-152 -53 -242.5 -126t-89.5 -162q0 -166 211 -166z" />
    <glyph glyph-name="Agrave" unicode="&#xc0;" horiz-adv-x="1236" 
d="M768 1448l-156 225q-28 43 -28 72q0 24 21 49.5t69 42.5l43 14l164 -354zM893 0l-39 307h-555l-168 -307h-223l770 1346q128 21 233 0l203 -1346h-221zM393 477h438l-83 639z" />
    <glyph glyph-name="Aacute" unicode="&#xc1;" horiz-adv-x="1236" 
d="M997 1612l-157 -166l-103 67l254 342l33 -18q72 -37 72 -82q0 -51 -99 -143zM893 0l-41 307h-553l-170 -307h-221l770 1346q128 21 233 0l203 -1346h-221zM393 477h436l-84 639z" />
    <glyph glyph-name="Acircumflex" unicode="&#xc2;" horiz-adv-x="1236" 
d="M692 1466q-44 0 -80 18t-55 44l252 237q87 24 158 0l147 -237q-62 -62 -145 -62l-99 185zM678 1346q128 21 233 0l203 -1346h-221l-41 307h-553l-170 -307h-221zM393 477h436l-84 639z" />
    <glyph glyph-name="Atilde" unicode="&#xc3;" horiz-adv-x="1236" 
d="M659 1528q-69 0 -124 18q23 110 81 169t134 59q39 0 73.5 -14.5t55.5 -32t51.5 -32t62.5 -14.5q29 0 51 31t27 72q67 3 125 -19q-21 -107 -76 -166t-123 -59q-41 0 -78.5 15t-60.5 33t-52.5 33t-55.5 15q-35 0 -60 -30.5t-31 -77.5zM893 0l-39 307h-555l-168 -307h-223
l770 1346q128 21 233 0l203 -1346h-221zM393 477h438l-83 639z" />
    <glyph glyph-name="Adieresis" unicode="&#xc4;" horiz-adv-x="1236" 
d="M657 1520q-46 0 -76 28t-30 72q0 60 50 107t112 47q47 0 77.5 -29t30.5 -72q0 -60 -50.5 -106.5t-113.5 -46.5zM1008 1520q-46 0 -76.5 28t-30.5 72q0 60 50 107t112 47q50 0 79.5 -30t26.5 -75q-1 -60 -50 -104.5t-111 -44.5zM893 0l-39 307h-555l-168 -307h-223
l770 1346q128 21 233 0l203 -1346h-221zM393 477h438l-83 639z" />
    <glyph glyph-name="Aring" unicode="&#xc5;" horiz-adv-x="1236" 
d="M819 1481q-95 0 -150 47t-55 127q0 117 86 196.5t213 79.5q95 0 149 -46t54 -126q0 -118 -85.5 -198t-211.5 -80zM842 1583q53 0 90 48.5t37 115.5q0 38 -19.5 60t-58.5 22q-55 0 -91 -46t-36 -114q0 -40 19.5 -63t58.5 -23zM893 0l-39 307h-555l-168 -307h-223l770 1346
q128 21 233 0l203 -1346h-221zM393 477h438l-83 639z" />
    <glyph glyph-name="AE" unicode="&#xc6;" horiz-adv-x="1789" 
d="M1692 1169h-607l-26 -407h514q-21 -103 -70 -170h-456l-29 -422h584l-37 -170h-766l20 293h-495l-201 -293h-215l928 1339h890zM440 463h391l46 639z" />
    <glyph glyph-name="Ccedilla" unicode="&#xc7;" horiz-adv-x="1269" 
d="M893 1360q162 0 278 -57.5t175 -161.5q-22 -49 -71 -85.5t-99 -49.5q-34 88 -116 134t-204 46q-153 0 -282.5 -89t-206 -246.5t-76.5 -348.5q0 -167 90 -257.5t256 -90.5q225 0 432 174l74 -135q-207 -198 -504 -213l-84 -111q24 4 37 4q70 0 109.5 -31t39.5 -92
q0 -60 -31.5 -107t-79.5 -72t-96 -37.5t-90 -12.5q-68 0 -143 14q0 47 25 107q98 -23 149 -23q63 0 104.5 29.5t41.5 72.5q0 58 -107 58q-28 0 -76 -10q-36 24 -30 61l118 154q-210 20 -327 148.5t-117 344.5q0 242 107.5 445t294 320.5t409.5 117.5z" />
    <glyph glyph-name="Egrave" unicode="&#xc8;" horiz-adv-x="1095" 
d="M733 1450l-155 225q-29 45 -29 72q0 24 21 49.5t69 42.5l43 14l164 -354zM1118 1167h-633l-86 -403h531q0 -29 -21 -81t-49 -91h-495l-91 -420h633l-37 -172h-837l284 1339h838z" />
    <glyph glyph-name="Eacute" unicode="&#xc9;" horiz-adv-x="1095" 
d="M963 1614l-158 -166l-103 68l254 342l33 -19q72 -37 72 -82q0 -52 -98 -143zM1118 1167h-633l-86 -403h531q0 -29 -21 -81t-49 -91h-498l-88 -420h633l-37 -172h-837l284 1339h838z" />
    <glyph glyph-name="Ecircumflex" unicode="&#xca;" horiz-adv-x="1095" 
d="M655 1468q-44 0 -80 18t-55 44l252 237q87 24 158 0l147 -237q-62 -62 -145 -62l-98 185zM1118 1167h-633l-86 -403h531q0 -29 -21 -81t-49 -91h-498l-88 -420h633l-37 -172h-837l284 1339h838z" />
    <glyph glyph-name="Edieresis" unicode="&#xcb;" horiz-adv-x="1095" 
d="M623 1522q-46 0 -76.5 28t-30.5 72q0 60 50 107t112 47q47 0 77.5 -29t30.5 -72q0 -60 -50 -106.5t-113 -46.5zM973 1522q-46 0 -76.5 28t-30.5 72q0 60 50 107t112 47q50 0 80 -30t27 -75q-1 -60 -50.5 -104.5t-111.5 -44.5zM1118 1167h-633l-86 -403h531q0 -29 -21 -81
t-49 -91h-495l-91 -420h633l-37 -172h-837l284 1339h838z" />
    <glyph glyph-name="Igrave" unicode="&#xcc;" horiz-adv-x="487" 
d="M391 1448l-155 225q-29 45 -29 72q0 24 21 49.5t69 42.5l43 14l164 -354zM238 0h-205l284 1339q109 24 205 0z" />
    <glyph glyph-name="Iacute" unicode="&#xcd;" horiz-adv-x="487" 
d="M463 1446l-103 67l254 342l33 -18q72 -37 72 -82q0 -52 -98 -143zM238 0h-205l284 1339q109 24 205 0z" />
    <glyph glyph-name="Icircumflex" unicode="&#xce;" horiz-adv-x="487" 
d="M590 1765l147 -237q-62 -62 -145 -62l-98 185l-179 -185q-44 0 -80 18t-55 44l252 237q87 24 158 0zM317 1339q109 24 205 0l-284 -1339h-205z" />
    <glyph glyph-name="Idieresis" unicode="&#xcf;" horiz-adv-x="487" 
d="M281 1520q-46 0 -76.5 28t-30.5 72q0 60 50 107t112 47q47 0 77.5 -29t30.5 -72q0 -60 -50 -106.5t-113 -46.5zM631 1520q-46 0 -76.5 28t-30.5 72q0 60 50 107t112 47q50 0 80 -30t27 -75q-1 -60 -50.5 -104.5t-111.5 -44.5zM238 0h-205l284 1339q109 24 205 0z" />
    <glyph glyph-name="Eth" unicode="&#xd0;" horiz-adv-x="1329" 
d="M717 1360q289 0 444.5 -132t155.5 -366q0 -181 -68.5 -340.5t-186.5 -273.5t-284.5 -180.5t-355.5 -67.5h-389l123 582h-121q20 74 56.5 114t98.5 47l123 576q234 41 404 41zM459 172q139 0 259.5 48.5t207 134.5t135.5 209t49 267q0 170 -107.5 260.5t-308.5 90.5
q-124 0 -209 -15l-90 -422h426q-12 -73 -55.5 -118t-106.5 -45h-299l-86 -410h185z" />
    <glyph glyph-name="Ntilde" unicode="&#xd1;" horiz-adv-x="1404" 
d="M838 1638q-35 0 -59.5 -30.5t-30.5 -77.5q-70 0 -125 18q23 110 81 169t134 59q39 0 73.5 -14.5t55.5 -32t51.5 -32t62.5 -14.5q29 0 51 31t27 72q67 3 125 -19q-21 -107 -76 -166t-123 -59q-41 0 -78.5 15t-60.5 33t-52.5 33t-55.5 15zM1235 1339h205l-285 -1339
q-106 -24 -205 0l-501 1034l-41 -239l-170 -795h-205l284 1339q109 24 205 0l500 -1054l27 176z" />
    <glyph glyph-name="Ograve" unicode="&#xd2;" horiz-adv-x="1406" 
d="M854 1450l-156 225q-28 43 -28 72q0 24 21 49.5t69 42.5l43 14l164 -354zM592 -20q-242 0 -376 133t-134 366q0 180 63 343.5t170.5 281t256.5 187t313 69.5q242 0 376 -131t134 -363q0 -181 -63 -345.5t-170.5 -282.5t-256.5 -188t-313 -70zM629 154q154 0 282 93.5
t200.5 252.5t72.5 346q0 164 -86.5 252t-249.5 88q-154 0 -281.5 -92.5t-200.5 -250t-73 -343.5q0 -167 86.5 -256.5t249.5 -89.5z" />
    <glyph glyph-name="Oacute" unicode="&#xd3;" horiz-adv-x="1406" 
d="M926 1448l-103 68l254 342l33 -19q72 -37 72 -82q0 -51 -99 -143zM592 -20q-242 0 -376 133t-134 366q0 180 63 343.5t170.5 281t256.5 187t313 69.5q242 0 376 -131t134 -363q0 -181 -63 -345.5t-170.5 -282.5t-256.5 -188t-313 -70zM629 154q154 0 282 93.5
t200.5 252.5t72.5 346q0 164 -86.5 252t-249.5 88q-154 0 -281.5 -92.5t-200.5 -250t-73 -343.5q0 -167 86.5 -256.5t249.5 -89.5z" />
    <glyph glyph-name="Ocircumflex" unicode="&#xd4;" horiz-adv-x="1406" 
d="M776 1468q-44 0 -80 18t-55 44l252 237q87 24 158 0l147 -237q-62 -62 -145 -62l-99 185zM885 1360q242 0 376 -131t134 -363q0 -181 -63 -345.5t-170.5 -282.5t-256.5 -188t-313 -70q-242 0 -376 133t-134 366q0 180 63 343.5t170.5 281t256.5 187t313 69.5zM629 154
q154 0 282 93.5t200.5 252.5t72.5 346q0 164 -86.5 252t-249.5 88q-154 0 -281.5 -92.5t-200.5 -250t-73 -343.5q0 -167 86.5 -256.5t249.5 -89.5z" />
    <glyph glyph-name="Otilde" unicode="&#xd5;" horiz-adv-x="1406" 
d="M743 1530q-69 0 -125 18q23 109 81.5 168.5t134.5 59.5q39 0 73.5 -14.5t55.5 -32t51.5 -32t62.5 -14.5q29 0 51 31t27 72q67 3 125 -19q-21 -107 -76 -166t-123 -59q-41 0 -78.5 15t-60.5 33t-52.5 33t-55.5 15q-35 0 -60 -30.5t-31 -77.5zM592 -20q-242 0 -376 133
t-134 366q0 180 63 343.5t170.5 281t256.5 187t313 69.5q242 0 376 -131t134 -363q0 -181 -63 -345.5t-170.5 -282.5t-256.5 -188t-313 -70zM629 154q154 0 282 93.5t200.5 252.5t72.5 346q0 164 -86.5 252t-249.5 88q-154 0 -281.5 -92.5t-200.5 -250t-73 -343.5
q0 -167 86.5 -256.5t249.5 -89.5z" />
    <glyph glyph-name="Odieresis" unicode="&#xd6;" horiz-adv-x="1406" 
d="M741 1522q-46 0 -76 28t-30 72q0 60 50 107t112 47q47 0 77.5 -29t30.5 -72q0 -60 -50.5 -106.5t-113.5 -46.5zM1092 1522q-46 0 -76.5 28t-30.5 72q0 60 50 107t112 47q50 0 79.5 -30t26.5 -75q-1 -60 -50 -104.5t-111 -44.5zM592 -20q-242 0 -376 133t-134 366
q0 180 63 343.5t170.5 281t256.5 187t313 69.5q242 0 376 -131t134 -363q0 -181 -63 -345.5t-170.5 -282.5t-256.5 -188t-313 -70zM629 154q154 0 282 93.5t200.5 252.5t72.5 346q0 164 -86.5 252t-249.5 88q-154 0 -281.5 -92.5t-200.5 -250t-73 -343.5q0 -167 86.5 -256.5
t249.5 -89.5z" />
    <glyph glyph-name="multiply" unicode="&#xd7;" 
d="M993 1038q58 -72 58 -108q0 -48 -74 -105l-264 -202l221 -310q-96 -80 -141 -80q-41 0 -78 52l-156 219l-373 -285q-55 70 -55 111q0 45 72 102l264 203l-221 309q96 80 141 80q44 0 78 -51l156 -219z" />
    <glyph glyph-name="Oslash" unicode="&#xd8;" horiz-adv-x="1406" 
d="M1292 1192q103 -124 103 -326q0 -181 -63 -345.5t-170.5 -282.5t-256.5 -188t-313 -70q-181 0 -305 77l-68 -77q-39 0 -73.5 22.5t-55.5 54.5l88 99q-96 128 -96 323q0 180 63 343.5t170.5 281t256.5 187t313 69.5q174 0 297 -72l63 72q81 -8 127 -78zM293 500
q0 -106 33 -176l723 813q-79 49 -201 49q-154 0 -281.5 -92.5t-200.5 -250t-73 -343.5zM629 154q154 0 282 93.5t200.5 252.5t72.5 346q0 107 -37 182l-725 -819q79 -55 207 -55z" />
    <glyph glyph-name="Ugrave" unicode="&#xd9;" horiz-adv-x="1267" 
d="M782 1448l-155 225q-29 45 -29 72q0 24 21 49.5t69 42.5l43 14l164 -354zM522 -20q-243 0 -351.5 142t-49.5 419l168 798q108 24 203 0l-175 -819q-34 -162 29 -257t213 -95q144 0 252.5 93.5t144.5 258.5l172 819q108 24 203 0l-170 -798q-57 -267 -224.5 -414
t-414.5 -147z" />
    <glyph glyph-name="Uacute" unicode="&#xda;" horiz-adv-x="1267" 
d="M856 1446l-102 67l254 342l32 -18q72 -37 72 -82q0 -52 -98 -143zM522 -20q-243 0 -351.5 142t-49.5 419l168 798q108 24 203 0l-175 -819q-34 -162 29 -257t213 -95q144 0 252.5 93.5t144.5 258.5l172 819q108 24 203 0l-170 -798q-57 -267 -224.5 -414t-414.5 -147z
" />
    <glyph glyph-name="Ucircumflex" unicode="&#xdb;" horiz-adv-x="1267" 
d="M707 1466q-44 0 -80.5 18t-55.5 44l252 237q87 24 158 0l147 -237q-62 -62 -145 -62l-98 185zM1128 1339q108 24 203 0l-170 -798q-57 -267 -224.5 -414t-414.5 -147q-243 0 -351.5 142t-49.5 419l168 798q108 24 203 0l-175 -819q-34 -162 29 -257t213 -95
q144 0 252.5 93.5t144.5 258.5z" />
    <glyph glyph-name="Udieresis" unicode="&#xdc;" horiz-adv-x="1267" 
d="M672 1520q-46 0 -76.5 28t-30.5 72q0 60 50 107t112 47q47 0 78 -29t31 -72q0 -60 -50.5 -106.5t-113.5 -46.5zM1022 1520q-46 0 -76.5 28t-30.5 72q0 60 50 107t112 47q50 0 80 -30t27 -75q-1 -60 -50.5 -104.5t-111.5 -44.5zM522 -20q-243 0 -351.5 142t-49.5 419
l168 798q108 24 203 0l-175 -819q-34 -162 29 -257t213 -95q144 0 252.5 93.5t144.5 258.5l172 819q108 24 203 0l-170 -798q-57 -267 -224.5 -414t-414.5 -147z" />
    <glyph glyph-name="Yacute" unicode="&#xdd;" horiz-adv-x="1093" 
d="M938 1614l-158 -166l-102 68l254 342l33 -19q71 -36 71 -82q0 -52 -98 -143zM1260 1339l-617 -845l-104 -494h-205l112 535l-260 804q119 24 226 0l178 -616l442 616q120 24 228 0z" />
    <glyph glyph-name="Thorn" unicode="&#xde;" horiz-adv-x="1091" 
d="M668 1130q182 0 290.5 -101t108.5 -259q0 -116 -49 -219.5t-130.5 -175.5t-190 -114t-224.5 -42h-188l-47 -219h-205l284 1339q109 24 205 0l-45 -209h191zM455 391q180 0 293.5 98.5t113.5 255.5q0 97 -71 155t-216 58h-135l-118 -567h133z" />
    <glyph glyph-name="germandbls" unicode="&#xdf;" horiz-adv-x="1304" 
d="M-88 -410q-90 0 -164 19q24 114 80 162q107 -13 111 -13q68 0 109.5 49.5t57.5 135.5l213 1024q51 245 203.5 366t376.5 121q167 0 266 -76.5t99 -189.5q0 -69 -26 -128.5t-62.5 -100.5t-73 -77.5t-62.5 -75.5t-26 -77q0 -28 22 -60.5t53 -64.5t62.5 -68t53.5 -84
t22 -100q0 -159 -139 -268t-353 -109q-124 0 -184 27q10 40 36.5 92t59.5 74q82 -23 133 -23q102 0 166 52t64 129q0 34 -23 70.5t-54 69t-61.5 68t-47.5 82t-9 97.5q6 44 33 89.5t60.5 84t66 77.5t54.5 83.5t22 87.5q0 69 -49.5 108t-141.5 39q-130 0 -218 -77.5
t-118 -225.5l-217 -1036q-71 -353 -395 -353z" />
    <glyph glyph-name="agrave" unicode="&#xe0;" horiz-adv-x="1067" 
d="M639 1124l-156 226q-28 43 -28 71q0 24 21 49.5t69 42.5l43 15l164 -354zM709 1047q113 0 201 -25.5t134 -67.5l-202 -954q-92 0 -137 44.5t-27 127.5l4 18q-75 -96 -176.5 -153t-220.5 -57q-125 0 -194 81.5t-68 233.5q1 199 93.5 372t250.5 276.5t342 103.5zM354 135
q115 0 235.5 117t162.5 274l69 332q-64 31 -151 31q-121 0 -224 -77.5t-163 -208.5t-60 -281q0 -187 131 -187z" />
    <glyph glyph-name="aacute" unicode="&#xe1;" horiz-adv-x="1067" 
d="M868 1288l-157 -166l-103 68l254 342l33 -19q72 -37 72 -81q0 -52 -99 -144zM709 1047q113 0 201 -25.5t134 -67.5l-202 -954q-92 0 -137 44.5t-27 127.5l4 18q-75 -96 -176.5 -153t-220.5 -57q-125 0 -194 81.5t-68 233.5q1 199 93.5 372t250.5 276.5t342 103.5z
M354 135q115 0 235.5 117t162.5 274l69 332q-64 31 -151 31q-121 0 -224 -77.5t-163 -208.5t-60 -281q0 -187 131 -187z" />
    <glyph glyph-name="acircumflex" unicode="&#xe2;" horiz-adv-x="1067" 
d="M563 1143q-44 0 -80 17.5t-55 43.5l252 238q87 24 158 0l147 -238q-61 -61 -145 -61l-101 182zM709 1047q113 0 201 -25.5t134 -67.5l-202 -954q-92 0 -137 44.5t-27 127.5l4 18q-75 -96 -176.5 -153t-220.5 -57q-125 0 -194 81.5t-68 233.5q1 199 93.5 372t250.5 276.5
t342 103.5zM354 135q115 0 235.5 117t162.5 274l69 332q-64 31 -151 31q-121 0 -224 -77.5t-163 -208.5t-60 -281q0 -187 131 -187z" />
    <glyph glyph-name="atilde" unicode="&#xe3;" horiz-adv-x="1067" 
d="M621 1313q-35 0 -60 -31t-31 -78q-65 0 -124 19q23 109 81 168t134 59q39 0 73.5 -14.5t55.5 -31.5t51.5 -31.5t62.5 -14.5q29 0 51 31t27 71q69 3 125 -18q-21 -107 -76 -166t-123 -59q-41 0 -78.5 15t-60.5 33t-52.5 33t-55.5 15zM23 295q1 199 93.5 372t250.5 276.5
t342 103.5q113 0 201 -25.5t134 -67.5l-202 -954q-92 0 -137 44.5t-27 127.5l4 18q-75 -96 -176.5 -153t-220.5 -57q-125 0 -194 81.5t-68 233.5zM354 135q115 0 235.5 117t162.5 274l69 332q-64 31 -151 31q-121 0 -224 -77.5t-163 -208.5t-60 -281q0 -187 131 -187z" />
    <glyph glyph-name="adieresis" unicode="&#xe4;" horiz-adv-x="1067" 
d="M528 1196q-46 0 -76 28t-30 72q0 60 50 107t112 47q47 0 77.5 -28.5t30.5 -71.5q0 -60 -50.5 -107t-113.5 -47zM879 1196q-46 0 -76.5 28t-30.5 72q0 60 50 107t112 47q50 0 79.5 -29.5t26.5 -74.5q-1 -60 -50 -105t-111 -45zM709 1047q113 0 201 -25.5t134 -67.5
l-202 -954q-92 0 -137 44.5t-27 127.5l4 18q-75 -96 -176.5 -153t-220.5 -57q-125 0 -194 81.5t-68 233.5q1 199 93.5 372t250.5 276.5t342 103.5zM354 135q115 0 235.5 117t162.5 274l69 332q-64 31 -151 31q-121 0 -224 -77.5t-163 -208.5t-60 -281q0 -187 131 -187z" />
    <glyph glyph-name="aring" unicode="&#xe5;" horiz-adv-x="1067" 
d="M690 1157q-95 0 -150 47t-55 127q0 117 86 197t213 80q95 0 149 -46t54 -126q0 -118 -85.5 -198.5t-211.5 -80.5zM762 1505q-55 0 -91 -45.5t-36 -113.5q0 -40 19.5 -63t58.5 -23q53 0 90 48t37 115q0 38 -19.5 60t-58.5 22zM709 1047q113 0 201 -25.5t134 -67.5
l-202 -954q-92 0 -137 44.5t-27 127.5l4 18q-75 -96 -176.5 -153t-220.5 -57q-125 0 -194 81.5t-68 233.5q1 199 93.5 372t250.5 276.5t342 103.5zM354 135q115 0 235.5 117t162.5 274l69 332q-64 31 -151 31q-121 0 -224 -77.5t-163 -208.5t-60 -281q0 -187 131 -187z" />
    <glyph glyph-name="ae" unicode="&#xe6;" horiz-adv-x="1601" 
d="M1563 838q0 -359 -707 -449v-8q0 -106 59 -163.5t166 -57.5q74 0 155.5 32.5t139.5 83.5q63 -50 54 -161q-168 -138 -392 -138q-152 0 -248.5 66.5t-127.5 187.5q-39 -70 -98.5 -121.5t-123 -77.5t-120 -38t-107.5 -12q-39 0 -77 11.5t-74 34.5t-58 65t-22 97
q0 199 179.5 298.5t510.5 107.5l6 29q11 53 12.5 93t-6.5 67t-21.5 45t-36.5 27.5t-47 13t-57 3.5q-66 0 -154 -20t-106 -20q-28 0 -43.5 17.5t-21.5 59.5l-7 50q215 77 373 77q250 0 295 -172q176 176 414 176q149 0 220 -55t71 -149zM1245 887q-125 0 -225 -96.5
t-141 -245.5q227 20 354 85t127 161q0 42 -30.5 69t-84.5 27zM305 141q110 0 206.5 80t119.5 193l10 47h-47q-193 0 -300.5 -59.5t-107.5 -151.5q0 -53 33.5 -81t85.5 -28z" />
    <glyph glyph-name="ccedilla" unicode="&#xe7;" horiz-adv-x="956" 
d="M713 1042q119 0 229 -41q-14 -50 -42 -94t-58 -71q-27 16 -70 25t-76 9q-183 0 -300 -136.5t-117 -350.5q0 -105 56 -164t173 -59q94 0 254 67l2 -164q-111 -58 -252 -79l-84 -115q20 4 35 4q70 0 109.5 -31t39.5 -92q0 -60 -31.5 -107t-79.5 -72t-96 -37.5t-90 -12.5
q-68 0 -143 14q0 47 25 107q98 -23 149 -23q63 0 104.5 29.5t41.5 72.5q0 58 -107 58q-28 0 -76 -10q-36 24 -30 61l116 152q-154 12 -239.5 103.5t-85.5 252.5q0 199 83 360t230.5 252.5t329.5 91.5z" />
    <glyph glyph-name="egrave" unicode="&#xe8;" horiz-adv-x="1019" 
d="M635 1124l-156 226q-28 43 -28 71q0 24 21 49.5t69 42.5l43 15l164 -354zM981 838q0 -358 -705 -451v-6q0 -106 58.5 -163.5t167.5 -57.5q72 0 153.5 33t139.5 83q62 -48 53 -161q-168 -138 -389 -138q-186 0 -287.5 97t-101.5 266q0 140 48 269t129.5 224.5t197.5 152
t245 56.5q149 0 220 -55t71 -149zM664 887q-125 0 -225.5 -97t-141.5 -245q227 19 354 84t127 162q0 43 -29.5 69.5t-84.5 26.5z" />
    <glyph glyph-name="eacute" unicode="&#xe9;" horiz-adv-x="1019" 
d="M864 1288l-157 -166l-103 68l254 342l33 -19q72 -37 72 -81q0 -52 -99 -144zM981 838q0 -359 -705 -449v-8q0 -106 58.5 -163.5t167.5 -57.5q72 0 153.5 33t139.5 83q62 -48 53 -161q-168 -138 -389 -138q-186 0 -287.5 97t-101.5 266q0 140 48 269t129.5 224.5
t197.5 152t245 56.5q149 0 220 -55t71 -149zM664 887q-125 0 -225.5 -97t-139.5 -245q225 20 352 85t127 161q0 43 -29.5 69.5t-84.5 26.5z" />
    <glyph glyph-name="ecircumflex" unicode="&#xea;" horiz-adv-x="1019" 
d="M557 1143q-44 0 -80 17.5t-55 43.5l252 238q87 24 157 0l148 -238q-61 -61 -145 -61l-101 182zM981 838q0 -359 -705 -449v-8q0 -106 58.5 -163.5t167.5 -57.5q72 0 153.5 33t139.5 83q62 -48 53 -161q-168 -138 -389 -138q-186 0 -287.5 97t-101.5 266q0 140 48 269
t129.5 224.5t197.5 152t245 56.5q149 0 220 -55t71 -149zM664 887q-125 0 -225.5 -97t-139.5 -245q225 20 352 85t127 161q0 43 -29.5 69.5t-84.5 26.5z" />
    <glyph glyph-name="edieresis" unicode="&#xeb;" horiz-adv-x="1019" 
d="M524 1196q-46 0 -76 28t-30 72q0 60 50 107t112 47q47 0 77.5 -28.5t30.5 -71.5q0 -60 -50.5 -107t-113.5 -47zM874 1196q-46 0 -76 28t-30 72q0 60 50 107t112 47q50 0 79.5 -29.5t26.5 -74.5q-1 -60 -50.5 -105t-111.5 -45zM981 838q0 -358 -705 -451v-6
q0 -106 58.5 -163.5t167.5 -57.5q72 0 153.5 33t139.5 83q62 -48 53 -161q-168 -138 -389 -138q-186 0 -287.5 97t-101.5 266q0 140 48 269t129.5 224.5t197.5 152t245 56.5q149 0 220 -55t71 -149zM664 887q-125 0 -225.5 -97t-141.5 -245q227 19 354 84t127 162
q0 43 -29.5 69.5t-84.5 26.5z" />
    <glyph glyph-name="igrave" unicode="&#xec;" horiz-adv-x="471" 
d="M317 1135l-155 225q-29 45 -29 72q0 24 21 49.5t69 42.5l43 14l164 -354zM27 0l215 1016q48 19 105 19.5t95 -19.5l-215 -1016h-200z" />
    <glyph glyph-name="iacute" unicode="&#xed;" horiz-adv-x="471" 
d="M389 1133l-102 67l254 342l32 -18q72 -37 72 -82q0 -53 -98 -144zM27 0l215 1016q48 19 105 19.5t95 -19.5l-215 -1016h-200z" />
    <glyph glyph-name="icircumflex" unicode="&#xee;" horiz-adv-x="471" 
d="M662 1214q-61 -61 -146 -61l-100 182l-176 -182q-44 0 -80.5 18t-55.5 43l252 238q87 24 158 0zM27 0l215 1016q48 19 105 19.5t95 -19.5l-215 -1016h-200z" />
    <glyph glyph-name="idieresis" unicode="&#xef;" horiz-adv-x="471" 
d="M205 1206q-46 0 -76.5 28.5t-30.5 72.5q0 60 50 106.5t112 46.5q47 0 78 -28.5t31 -71.5q0 -60 -50.5 -107t-113.5 -47zM555 1206q-46 0 -76 28.5t-30 72.5q0 60 49.5 106.5t111.5 46.5q50 0 80 -29.5t27 -74.5q-1 -60 -50.5 -105t-111.5 -45zM27 0l215 1016
q48 19 105 19.5t95 -19.5l-215 -1016h-200z" />
    <glyph glyph-name="eth" unicode="&#xf0;" horiz-adv-x="1103" 
d="M862 1231q199 -166 205 -432q4 -153 -41 -301t-126.5 -262.5t-203 -185t-260.5 -70.5q-176 0 -272 94.5t-96 259.5q0 170 73.5 319.5t199.5 239.5t273 92q106 1 179 -46.5t106 -123.5q-11 214 -201 342l-305 -137q-16 5 -30.5 34.5t-10.5 51.5l240 108q-112 50 -250 76
q9 43 44.5 83t66.5 40q185 -38 317 -119l260 119q19 -10 30.5 -39t6.5 -53zM473 154q98 0 182 63t132.5 169t48.5 228q0 91 -57.5 143t-155.5 52q-144 0 -247.5 -128.5t-103.5 -315.5q0 -102 51 -156.5t150 -54.5z" />
    <glyph glyph-name="ntilde" unicode="&#xf1;" horiz-adv-x="1089" 
d="M625 1313q-34 0 -59 -31t-31 -78q-66 0 -125 19q23 109 81 168t134 59q39 0 73.5 -14.5t55.5 -31.5t51.5 -31.5t62.5 -14.5q29 0 51 31t27 71q69 3 125 -18q-21 -107 -76 -166t-123 -59q-41 0 -78.5 15t-60.5 33t-52.5 33t-55.5 15zM772 1036q153 0 215.5 -91.5
t20.5 -276.5l-152 -668h-199l150 655q27 123 1 179.5t-106 56.5q-105 0 -215.5 -117t-150.5 -270l-109 -504h-200l217 1018q51 0 86 -12.5t51.5 -30.5t23.5 -45t6 -47.5t-5 -46.5q75 95 169 147.5t197 52.5z" />
    <glyph glyph-name="ograve" unicode="&#xf2;" horiz-adv-x="1107" 
d="M633 1124l-156 226q-28 43 -28 71q0 24 21 49.5t69 42.5l43 15l163 -354zM414 -20q-163 0 -254.5 94.5t-91.5 263.5q0 143 49.5 273.5t133 225t199 150t242.5 55.5q164 0 256 -96.5t92 -263.5q0 -191 -83.5 -353t-227.5 -255.5t-315 -93.5zM449 154q105 0 194 65.5
t141 181t52 254.5q0 101 -45.5 156t-128.5 55q-163 0 -276.5 -146t-113.5 -360q0 -99 46 -152.5t131 -53.5z" />
    <glyph glyph-name="oacute" unicode="&#xf3;" horiz-adv-x="1107" 
d="M705 1122l-103 68l254 342l33 -19q72 -37 72 -81q0 -52 -99 -144zM414 -20q-163 0 -254.5 94.5t-91.5 263.5q0 143 49.5 273.5t133 225t199 150t242.5 55.5q164 0 256 -96.5t92 -263.5q0 -191 -83.5 -353t-227.5 -255.5t-315 -93.5zM449 154q105 0 194 65.5t141 181
t52 254.5q0 101 -45.5 156t-128.5 55q-163 0 -276.5 -146t-113.5 -360q0 -99 46 -152.5t131 -53.5z" />
    <glyph glyph-name="ocircumflex" unicode="&#xf4;" horiz-adv-x="1107" 
d="M977 1204q-61 -61 -146 -61l-100 182l-176 -182q-44 0 -80 17.5t-55 43.5l252 238q87 24 157 0zM414 -20q-163 0 -254.5 94.5t-91.5 263.5q0 143 49.5 273.5t133 225t199 150t242.5 55.5q164 0 256 -96.5t92 -263.5q0 -191 -83.5 -353t-227.5 -255.5t-315 -93.5zM449 154
q105 0 194 65.5t141 181t52 254.5q0 101 -45.5 156t-128.5 55q-163 0 -276.5 -146t-113.5 -360q0 -99 46 -152.5t131 -53.5z" />
    <glyph glyph-name="otilde" unicode="&#xf5;" horiz-adv-x="1107" 
d="M524 1204q-66 0 -125 19q23 109 81 168t134 59q39 0 73.5 -14.5t55.5 -31.5t52 -31.5t63 -14.5q29 0 51 31t27 71q69 3 125 -18q-21 -107 -76 -166t-123 -59q-41 0 -78.5 15t-61 33t-53 33t-55.5 15q-34 0 -59 -31t-31 -78zM414 -20q-163 0 -254.5 94.5t-91.5 263.5
q0 143 49.5 273.5t133 225t199 150t242.5 55.5q164 0 256 -96.5t92 -263.5q0 -191 -83.5 -353t-227.5 -255.5t-315 -93.5zM449 154q105 0 194 65.5t141 181t52 254.5q0 101 -45.5 156t-128.5 55q-163 0 -276.5 -146t-113.5 -360q0 -99 46 -152.5t131 -53.5z" />
    <glyph glyph-name="odieresis" unicode="&#xf6;" horiz-adv-x="1107" 
d="M522 1196q-46 0 -76 28t-30 72q0 60 50 107t112 47q47 0 77.5 -28.5t30.5 -71.5q0 -60 -50.5 -107t-113.5 -47zM872 1196q-46 0 -76 28t-30 72q0 60 50 107t112 47q50 0 79.5 -29.5t26.5 -74.5q-1 -60 -50.5 -105t-111.5 -45zM414 -20q-163 0 -254.5 94.5t-91.5 263.5
q0 143 49.5 273.5t133 225t199 150t242.5 55.5q164 0 256 -96.5t92 -263.5q0 -191 -83.5 -353t-227.5 -255.5t-315 -93.5zM449 154q105 0 194 65.5t141 181t52 254.5q0 101 -45.5 156t-128.5 55q-163 0 -276.5 -146t-113.5 -360q0 -99 46 -152.5t131 -53.5z" />
    <glyph glyph-name="divide" unicode="&#xf7;" 
d="M645 887q-45 0 -74.5 28.5t-29.5 71.5q0 56 48.5 102t106.5 46q45 0 75 -29t30 -72q0 -55 -48.5 -101t-107.5 -46zM68 543q22 101 56 136.5t112 35.5h874q-22 -100 -54 -136t-114 -36h-874zM483 125q-45 0 -74.5 28t-29.5 70q0 57 48.5 103.5t107.5 46.5q45 0 74.5 -29
t29.5 -72q0 -57 -48.5 -102t-107.5 -45z" />
    <glyph glyph-name="oslash" unicode="&#xf8;" horiz-adv-x="1107" 
d="M1094 958l-93 -90q39 -80 39 -186q0 -191 -83.5 -353t-227.5 -255.5t-315 -93.5q-149 0 -238 77l-80 -75q-66 26 -80 84l90 86q-38 72 -38 186q0 143 49.5 273.5t133 225t199 150t242.5 55.5q149 0 240 -79l82 79q38 -20 54 -35t26 -49zM662 866q-163 0 -276.5 -146
t-113.5 -360q0 -21 4 -53l515 504q-46 55 -129 55zM449 154q105 0 194 65.5t141 181t52 254.5q0 15 -5 60l-514 -506q46 -55 132 -55z" />
    <glyph glyph-name="ugrave" unicode="&#xf9;" horiz-adv-x="1089" 
d="M623 1124l-156 226q-29 45 -29 71q0 24 21 49.5t69 42.5l43 15l164 -354zM860 1010q102 24 205 24l-219 -1034q-197 0 -162 186q-75 -96 -167.5 -150t-194.5 -54q-153 0 -218 89t-26 265l153 674q99 24 205 24l-147 -651q-34 -137 -11.5 -196.5t113.5 -59.5
q73 0 151.5 64t133.5 150.5t76 166.5z" />
    <glyph glyph-name="uacute" unicode="&#xfa;" horiz-adv-x="1089" 
d="M852 1288l-158 -166l-102 68l254 342l33 -19q71 -36 71 -81q0 -53 -98 -144zM860 1010q102 24 205 24l-219 -1034q-197 0 -162 184q-75 -94 -168 -148t-194 -54q-153 0 -218 89t-26 265l153 674q99 24 205 24l-147 -651q-34 -137 -11.5 -196.5t113.5 -59.5q72 0 150 63.5
t133.5 149.5t77.5 166z" />
    <glyph glyph-name="ucircumflex" unicode="&#xfb;" horiz-adv-x="1089" 
d="M545 1143q-44 0 -80 17.5t-55 43.5l252 238q87 24 157 0l148 -238q-61 -61 -146 -61l-100 182zM860 1010q102 24 205 24l-219 -1034q-197 0 -162 184q-75 -94 -168 -148t-194 -54q-153 0 -218 89t-26 265l153 674q99 24 205 24l-147 -651q-34 -137 -11.5 -196.5
t113.5 -59.5q72 0 150 63.5t133.5 149.5t77.5 166z" />
    <glyph glyph-name="udieresis" unicode="&#xfc;" horiz-adv-x="1089" 
d="M512 1196q-46 0 -76 28t-30 72q0 60 49.5 107t111.5 47q47 0 78 -28.5t31 -71.5q0 -60 -50.5 -107t-113.5 -47zM862 1196q-46 0 -76 28t-30 72q0 60 50 107t112 47q50 0 79.5 -29.5t26.5 -74.5q-1 -60 -50.5 -105t-111.5 -45zM860 1010q102 24 205 24l-219 -1034
q-197 0 -162 186q-75 -96 -167.5 -150t-194.5 -54q-153 0 -218 89t-26 265l153 674q99 24 205 24l-147 -651q-34 -137 -11.5 -196.5t113.5 -59.5q73 0 151.5 64t133.5 150.5t76 166.5z" />
    <glyph glyph-name="yacute" unicode="&#xfd;" horiz-adv-x="978" 
d="M793 1288l-158 -166l-103 68l254 342l33 -19q72 -37 72 -81q0 -53 -98 -144zM860 1022q113 24 223 0l-577 -930q-224 -355 -500 -502q-50 12 -85.5 67.5t-26.5 109.5q253 115 405 303l-186 952q108 23 211 0l118 -700z" />
    <glyph glyph-name="thorn" unicode="&#xfe;" horiz-adv-x="1124" 
d="M778 1040q139 0 212 -82.5t73 -238.5q0 -138 -49.5 -273t-132.5 -238.5t-200 -167t-245 -63.5q-119 0 -200 62l-76 -363q-48 -35 -110.5 -60.5t-108.5 -25.5l372 1758q38 26 105 45.5t110 19.5l-114 -545q74 76 169.5 124t194.5 48zM432 131q115 0 215.5 80.5t157.5 208
t57 264.5q0 104 -39 152.5t-121 48.5q-91 0 -189.5 -72.5t-152.5 -187.5l-96 -455q59 -39 168 -39z" />
    <glyph glyph-name="ydieresis" unicode="&#xff;" horiz-adv-x="978" 
d="M453 1196q-46 0 -76.5 28t-30.5 72q0 60 50 107t112 47q47 0 77.5 -28.5t30.5 -71.5q0 -60 -50 -107t-113 -47zM803 1196q-46 0 -76.5 28t-30.5 72q0 60 50 107t112 47q50 0 80 -29.5t27 -74.5q-1 -60 -50.5 -105t-111.5 -45zM860 1022q113 24 223 0l-577 -930
q-224 -355 -500 -502q-50 12 -85.5 67.5t-26.5 109.5q257 121 405 303l-186 952q108 23 211 0l118 -703z" />
    <glyph glyph-name="Amacron" unicode="&#x100;" horiz-adv-x="1236" 
d="M621 1726h514l-35 -163h-514zM893 0l-39 307h-555l-168 -307h-223l770 1346q128 21 233 0l203 -1346h-221zM393 477h438l-83 639z" />
    <glyph glyph-name="amacron" unicode="&#x101;" horiz-adv-x="1067" 
d="M1008 1403l-35 -164h-514l35 164h514zM709 1047q113 0 201 -25.5t134 -67.5l-202 -954q-92 0 -137 44.5t-27 127.5l4 18q-75 -96 -176.5 -153t-220.5 -57q-125 0 -194 81.5t-68 233.5q1 199 93.5 372t250.5 276.5t342 103.5zM354 135q115 0 235.5 117t162.5 274l69 332
q-64 31 -151 31q-121 0 -224 -77.5t-163 -208.5t-60 -281q0 -187 131 -187z" />
    <glyph glyph-name="Abreve" unicode="&#x102;" horiz-adv-x="1236" 
d="M829 1489q-56 0 -101 12.5t-74 34t-50 50.5t-28.5 61t-10 65.5t5.5 65.5q91 27 170 0q-5 -20 0 -45.5t15.5 -48.5t38 -38.5t67.5 -15.5t72.5 15.5t52.5 40t31.5 47t17.5 45.5q91 27 170 0q-12 -50 -40 -98.5t-73 -92.5t-114 -71t-150 -27zM678 1346q128 21 233 0
l203 -1346h-221l-41 307h-553l-170 -307h-221zM393 477h436l-84 639z" />
    <glyph glyph-name="abreve" unicode="&#x103;" horiz-adv-x="1067" 
d="M700 1165q-56 0 -101 12.5t-74 34t-50 50.5t-28.5 61t-10 65.5t5.5 65.5q91 27 170 0q-5 -20 0 -45.5t15.5 -48t38 -38t67.5 -15.5t72.5 15t52.5 40t31.5 47t17.5 45q91 27 170 0q-12 -50 -40 -98.5t-73 -92.5t-114 -71t-150 -27zM23 295q1 199 93.5 372t250.5 276.5
t342 103.5q113 0 201 -25.5t134 -67.5l-202 -954q-92 0 -137 44.5t-27 127.5l4 18q-75 -96 -176.5 -153t-220.5 -57q-125 0 -194 81.5t-68 233.5zM354 135q115 0 235.5 117t162.5 274l69 332q-64 31 -151 31q-121 0 -224 -77.5t-163 -208.5t-60 -281q0 -187 131 -187z" />
    <glyph glyph-name="Aogonek" unicode="&#x104;" horiz-adv-x="1236" 
d="M1001 -293q42 0 86 23q18 -68 -2 -127q-41 -25 -131 -25q-80 0 -125 34t-45 101q0 83 58 158.5t143 128.5h-92l-39 307h-555l-168 -307h-223l770 1346q128 21 233 0l203 -1346q-86 -50 -136 -111.5t-50 -117.5q0 -64 73 -64zM393 477h438l-83 639z" />
    <glyph glyph-name="aogonek" unicode="&#x105;" horiz-adv-x="1067" 
d="M842 0q-86 -50 -136.5 -111.5t-50.5 -117.5q0 -64 74 -64q42 0 86 23q18 -68 -2 -127q-41 -25 -131 -25q-80 0 -125 34t-45 101q0 91 68 173.5t163 131.5q-89 40 -65 154l4 18q-75 -96 -176.5 -153t-220.5 -57q-125 0 -194 81.5t-68 233.5q1 199 93.5 372t250.5 276.5
t342 103.5q113 0 201 -25.5t134 -67.5zM354 135q115 0 235.5 117t162.5 274l69 332q-64 31 -151 31q-121 0 -224 -77.5t-163 -208.5t-60 -281q0 -187 131 -187z" />
    <glyph glyph-name="Cacute" unicode="&#x106;" horiz-adv-x="1269" 
d="M897 1448l-102 68l254 342l32 -19q72 -37 72 -82q0 -52 -98 -143zM1143 193q-107 -102 -246 -157.5t-297 -55.5q-243 0 -380.5 131.5t-137.5 365.5q0 242 107.5 445t294 320.5t409.5 117.5q162 0 278 -57.5t175 -161.5q-22 -49 -71 -85.5t-99 -49.5q-34 88 -116 134
t-204 46q-153 0 -282.5 -89t-206 -246.5t-76.5 -348.5q0 -167 90 -257.5t256 -90.5q225 0 432 174z" />
    <glyph glyph-name="cacute" unicode="&#x107;" horiz-adv-x="956" 
d="M692 1122l-102 68l254 342l33 -19q71 -36 71 -81q0 -53 -98 -144zM762 227l2 -164q-75 -39 -162 -61t-160 -22q-175 0 -273.5 92.5t-98.5 265.5q0 199 83 360t230.5 252.5t329.5 91.5q119 0 229 -41q-14 -50 -42 -94t-58 -71q-27 16 -70 25t-76 9q-183 0 -300 -136.5
t-117 -350.5q0 -105 56 -164t173 -59q94 0 254 67z" />
    <glyph glyph-name="Cdotaccent" unicode="&#x10a;" horiz-adv-x="1269" 
d="M881 1534q-47 0 -75 28t-28 72q0 56 47 102t109 46q45 0 75.5 -28.5t30.5 -70.5q0 -57 -48 -103t-111 -46zM1143 193q-107 -102 -246 -157.5t-297 -55.5q-243 0 -380.5 131.5t-137.5 365.5q0 242 107.5 445t294 320.5t409.5 117.5q162 0 278 -57.5t175 -161.5
q-22 -49 -71 -85.5t-99 -49.5q-34 88 -116 134t-204 46q-153 0 -282.5 -89t-206 -246.5t-76.5 -348.5q0 -167 90 -257.5t256 -90.5q225 0 432 174z" />
    <glyph glyph-name="cdotaccent" unicode="&#x10b;" horiz-adv-x="956" 
d="M674 1208q-46 0 -74.5 28.5t-28.5 72.5q0 56 47 101.5t109 45.5q46 0 76.5 -28.5t30.5 -69.5q0 -57 -48.5 -103.5t-111.5 -46.5zM762 227l2 -164q-75 -39 -162 -61t-160 -22q-175 0 -273.5 92.5t-98.5 265.5q0 199 83 360t230.5 252.5t329.5 91.5q119 0 229 -41
q-14 -50 -42 -94t-58 -71q-27 16 -70 25t-76 9q-183 0 -300 -136.5t-117 -350.5q0 -105 56 -164t173 -59q94 0 254 67z" />
    <glyph glyph-name="Ccaron" unicode="&#x10c;" horiz-adv-x="1269" 
d="M963 1495q-86 -25 -156 0l-150 238q67 63 146 63l100 -184l178 184q44 0 80.5 -18.5t52.5 -44.5zM893 1360q162 0 278 -57.5t175 -161.5q-22 -49 -71 -85.5t-99 -49.5q-34 88 -116 134t-204 46q-153 0 -282.5 -89t-206 -246.5t-76.5 -348.5q0 -167 90 -257.5t256 -90.5
q225 0 432 174l74 -135q-107 -102 -246 -157.5t-297 -55.5q-243 0 -380.5 131.5t-137.5 365.5q0 242 107.5 445t294 320.5t409.5 117.5z" />
    <glyph glyph-name="ccaron" unicode="&#x10d;" horiz-adv-x="956" 
d="M877 1470q44 0 80.5 -18.5t52.5 -44.5l-252 -238q-86 -25 -156 0l-149 238q67 63 145 63l100 -184zM762 227l2 -164q-75 -39 -162 -61t-160 -22q-175 0 -273.5 92.5t-98.5 265.5q0 199 83 360t230.5 252.5t329.5 91.5q119 0 229 -41q-14 -50 -42 -94t-58 -71
q-27 16 -70 25t-76 9q-183 0 -300 -136.5t-117 -350.5q0 -105 56 -164t173 -59q94 0 254 67z" />
    <glyph glyph-name="Dcaron" unicode="&#x10e;" horiz-adv-x="1329" 
d="M922 1495q-86 -25 -156 0l-150 238q67 63 146 63l100 -184l178 184q44 0 81 -19t53 -44zM717 1360q289 0 444.5 -132t155.5 -366q0 -181 -68.5 -340.5t-186.5 -273.5t-284.5 -180.5t-355.5 -67.5h-389l280 1319q234 41 404 41zM459 172q139 0 259.5 48.5t207 134.5
t135.5 209t49 267q0 170 -107.5 260.5t-308.5 90.5q-124 0 -209 -15l-211 -995h185z" />
    <glyph glyph-name="dcaron" unicode="&#x10f;" horiz-adv-x="1124" 
d="M1272 1501q93 0 132.5 -23t27.5 -77q-11 -58 -54 -166.5t-86 -194.5q-71 0 -114 19zM965 1348q39 26 106.5 45.5t108.5 19.5l-299 -1413q-17 0 -34.5 2t-41.5 8.5t-41 18.5t-33.5 32t-18 49.5t4.5 69.5l2 10q-76 -93 -173.5 -151.5t-199.5 -58.5q-140 0 -212.5 82
t-72.5 237q0 139 49.5 274t132.5 238.5t200 167t245 63.5q121 0 199 -59zM420 135q105 0 214 106t152 265l72 344q-59 39 -166 39q-115 0 -215.5 -80.5t-157.5 -208t-57 -264.5q0 -103 39 -152t119 -49z" />
    <glyph glyph-name="Dcroat" unicode="&#x110;" horiz-adv-x="1329" 
d="M717 1360q289 0 444.5 -132t155.5 -366q0 -181 -68.5 -340.5t-186.5 -273.5t-284.5 -180.5t-355.5 -67.5h-389l123 582h-121q20 74 56.5 114t98.5 47l123 576q234 41 404 41zM459 172q139 0 259.5 48.5t207 134.5t135.5 209t49 267q0 170 -107.5 260.5t-308.5 90.5
q-124 0 -209 -15l-90 -422h426q-12 -73 -55.5 -118t-106.5 -45h-299l-86 -410h185z" />
    <glyph glyph-name="dcroat" unicode="&#x111;" horiz-adv-x="1124" 
d="M1268 1309q-21 -64 -51.5 -99.5t-88.5 -35.5l-247 -1174q-17 0 -34.5 2t-41.5 8.5t-41 18.5t-33.5 32t-18 49.5t4.5 69.5l2 10q-76 -93 -173.5 -151.5t-199.5 -58.5q-140 0 -212.5 82t-72.5 237q0 139 49.5 274t132.5 238.5t200 167t245 63.5q121 0 199 -59l41 191h-209
q31 66 70 100.5t110 34.5h57l9 39q39 26 106.5 45.5t108.5 19.5l-23 -104h111zM420 135q105 0 214 106t152 265l72 344q-59 39 -166 39q-115 0 -215.5 -80.5t-157.5 -208t-57 -264.5q0 -103 39 -152t119 -49z" />
    <glyph glyph-name="Emacron" unicode="&#x112;" horiz-adv-x="1095" 
d="M586 1729h514l-35 -164h-514zM1118 1167h-633l-86 -403h531q0 -29 -21 -81t-49 -91h-495l-91 -420h633l-37 -172h-837l284 1339h838z" />
    <glyph glyph-name="emacron" unicode="&#x113;" horiz-adv-x="1019" 
d="M487 1403h514l-34 -164h-514zM981 838q0 -358 -705 -451v-6q0 -106 58.5 -163.5t167.5 -57.5q72 0 153.5 33t139.5 83q62 -48 53 -161q-168 -138 -389 -138q-186 0 -287.5 97t-101.5 266q0 140 48 269t129.5 224.5t197.5 152t245 56.5q149 0 220 -55t71 -149zM664 887
q-125 0 -225.5 -97t-141.5 -245q227 19 354 84t127 162q0 43 -29.5 69.5t-84.5 26.5z" />
    <glyph glyph-name="Edotaccent" unicode="&#x116;" horiz-adv-x="1095" 
d="M788 1534q-46 0 -74 28t-28 72q0 56 47 102t109 46q45 0 75.5 -28.5t30.5 -70.5q0 -57 -48.5 -103t-111.5 -46zM1118 1167h-633l-86 -403h531q0 -29 -21 -81t-49 -91h-495l-91 -420h633l-37 -172h-837l284 1339h838z" />
    <glyph glyph-name="edotaccent" unicode="&#x117;" horiz-adv-x="1019" 
d="M690 1208q-46 0 -74 28.5t-28 72.5q0 56 46.5 101.5t108.5 45.5q46 0 76.5 -28.5t30.5 -69.5q0 -57 -48.5 -103.5t-111.5 -46.5zM981 838q0 -358 -705 -451v-6q0 -106 58.5 -163.5t167.5 -57.5q72 0 153.5 33t139.5 83q62 -48 53 -161q-168 -138 -389 -138
q-186 0 -287.5 97t-101.5 266q0 140 48 269t129.5 224.5t197.5 152t245 56.5q149 0 220 -55t71 -149zM664 887q-125 0 -225.5 -97t-141.5 -245q227 19 354 84t127 162q0 43 -29.5 69.5t-84.5 26.5z" />
    <glyph glyph-name="Eogonek" unicode="&#x118;" horiz-adv-x="1095" 
d="M1118 1167h-633l-86 -403h531q0 -29 -21 -81t-49 -91h-495l-91 -420h633l-37 -172q-86 -50 -136 -111.5t-50 -117.5q0 -64 74 -64q42 0 86 23q18 -68 -2 -127q-41 -25 -131 -25q-80 0 -125 34t-45 101q0 83 57.5 158.5t142.5 128.5h-708l284 1339h838z" />
    <glyph glyph-name="eogonek" unicode="&#x119;" horiz-adv-x="1019" 
d="M981 838q0 -358 -705 -451v-6q0 -106 58.5 -163.5t167.5 -57.5q72 0 153.5 33t139.5 83q62 -48 53 -161q-95 -76 -205 -111h2q-86 -50 -136 -111.5t-50 -117.5q0 -64 73 -64q42 0 86 23q18 -68 -2 -127q-41 -25 -131 -25q-80 0 -125 34t-45 101q0 74 45 141.5t117 118.5
h-18q-186 0 -287.5 97t-101.5 266q0 140 48 269t129.5 224.5t197.5 152t245 56.5q149 0 220 -55t71 -149zM664 887q-125 0 -225.5 -97t-141.5 -245q227 19 354 84t127 162q0 43 -29.5 69.5t-84.5 26.5z" />
    <glyph glyph-name="Ecaron" unicode="&#x11a;" horiz-adv-x="1095" 
d="M870 1495q-86 -25 -155 0l-150 238q67 63 146 63l100 -184l178 184q44 0 80.5 -18.5t52.5 -44.5zM1118 1167h-633l-86 -403h531q0 -29 -21 -81t-49 -91h-498l-88 -420h633l-37 -172h-837l284 1339h838z" />
    <glyph glyph-name="ecaron" unicode="&#x11b;" horiz-adv-x="1019" 
d="M772 1169q-86 -25 -156 0l-149 238q67 63 145 63l101 -184l178 184q44 0 80.5 -18.5t52.5 -44.5zM690 1042q149 0 220 -55t71 -149q0 -359 -705 -449v-8q0 -106 58.5 -163.5t167.5 -57.5q72 0 153.5 33t139.5 83q62 -48 53 -161q-168 -138 -389 -138q-186 0 -287.5 97
t-101.5 266q0 140 48 269t129.5 224.5t197.5 152t245 56.5zM299 545q225 20 352 85t127 161q0 43 -29.5 69.5t-84.5 26.5q-125 0 -225.5 -97t-139.5 -245z" />
    <glyph glyph-name="Gbreve" unicode="&#x11e;" horiz-adv-x="1329" 
d="M883 1491q-56 0 -101 12.5t-74 34t-50 50.5t-28.5 61t-10 65.5t5.5 65.5q91 27 170 0q-5 -20 -0.5 -45.5t15 -48.5t38 -38.5t67.5 -15.5t72.5 15.5t52.5 40t32 47t18 45.5q91 27 170 0q-12 -50 -40 -98.5t-73 -92.5t-114 -71t-150 -27zM854 1186q-152 0 -281 -89.5
t-205.5 -247t-76.5 -347.5q0 -168 88.5 -258t255.5 -90q187 0 354 92l74 352q45 38 105.5 47t105.5 -10l-92 -445q-111 -102 -262 -157.5t-322 -55.5q-243 0 -379.5 132t-136.5 368q0 180 63 343t170.5 280.5t257.5 186.5t318 69q166 0 285 -56.5t180 -160.5
q-76 -112 -172 -135q-36 88 -119.5 135t-210.5 47z" />
    <glyph glyph-name="gbreve" unicode="&#x11f;" horiz-adv-x="1120" 
d="M717 1165q-56 0 -101 12.5t-74 34t-50 50.5t-28.5 61t-10 65.5t5.5 65.5q91 27 170 0q-5 -20 0 -45.5t15.5 -48t38 -38t67.5 -15.5t72.5 15t52.5 40t31.5 47t17.5 45q91 27 170 0q-12 -50 -40 -98.5t-73 -92.5t-114 -71t-150 -27zM688 1042q139 0 221 -79q41 25 94.5 41
t90.5 16l-222 -1038q-19 -90 -58 -159t-105 -123t-167.5 -82t-234.5 -28q-165 0 -276 60q25 106 82 153q128 -49 229 -49q107 0 175.5 27.5t102.5 75t54 125.5l43 206q-74 -91 -172.5 -149.5t-198.5 -58.5q-140 0 -212.5 82t-72.5 237q0 139 49.5 274t132.5 238.5t200 167
t245 63.5zM420 135q103 0 209.5 100.5t150.5 253.5l78 361q-62 39 -166 39q-115 0 -215.5 -80.5t-157.5 -208t-57 -264.5q0 -103 39 -152t119 -49z" />
    <glyph glyph-name="Gdotaccent" unicode="&#x120;" horiz-adv-x="1329" 
d="M877 1534q-47 0 -75 28t-28 72q0 56 47 102t109 46q45 0 75.5 -28.5t30.5 -70.5q0 -57 -48 -103t-111 -46zM854 1186q-152 0 -281 -89.5t-205.5 -247t-76.5 -347.5q0 -168 88.5 -258t255.5 -90q187 0 354 92l74 352q45 38 105.5 47t105.5 -10l-92 -445
q-111 -102 -262 -157.5t-322 -55.5q-243 0 -379.5 132t-136.5 368q0 180 63 343t170.5 280.5t257.5 186.5t318 69q166 0 285 -56.5t180 -160.5q-76 -112 -172 -135q-36 88 -119.5 135t-210.5 47z" />
    <glyph glyph-name="gdotaccent" unicode="&#x121;" horiz-adv-x="1120" 
d="M713 1208q-46 0 -74.5 28.5t-28.5 72.5q0 56 47 101.5t109 45.5q45 0 75.5 -28.5t30.5 -69.5q0 -58 -48.5 -104t-110.5 -46zM909 963q41 25 94.5 41t90.5 16l-222 -1038q-19 -90 -58 -159t-105 -123t-167.5 -82t-234.5 -28q-165 0 -276 60q25 106 82 153q128 -49 229 -49
q107 0 175.5 27.5t102.5 75t54 125.5l43 206q-74 -91 -172.5 -149.5t-198.5 -58.5q-140 0 -212.5 82t-72.5 237q0 139 49.5 274t132.5 238.5t200 167t245 63.5q139 0 221 -79zM420 135q103 0 209.5 100.5t150.5 253.5l78 361q-62 39 -166 39q-115 0 -215.5 -80.5
t-157.5 -208t-57 -264.5q0 -103 39 -152t119 -49z" />
    <glyph glyph-name="uni0122" unicode="&#x122;" horiz-adv-x="1329" 
d="M854 1186q-152 0 -281 -89.5t-205.5 -247t-76.5 -347.5q0 -168 88.5 -258t255.5 -90q187 0 354 92l74 352q45 38 105.5 47t105.5 -10l-92 -445q-111 -102 -262 -157.5t-322 -55.5q-243 0 -379.5 132t-136.5 368q0 180 63 343t170.5 280.5t257.5 186.5t318 69
q166 0 285 -56.5t180 -160.5q-76 -112 -172 -135q-36 88 -119.5 135t-210.5 47zM629 -94q48 0 77 -30t29 -75q0 -94 -78.5 -185.5t-171.5 -145.5q-24 0 -41.5 16t-25.5 41q89 58 135 133q-36 7 -58 33.5t-22 62.5q0 57 48 103.5t108 46.5z" />
    <glyph glyph-name="uni0123" unicode="&#x123;" horiz-adv-x="1120" 
d="M709 1190q-47 0 -77 28.5t-30 71.5v2q0 87 80.5 183t169.5 151q23 0 42 -15.5t26 -41.5q-90 -63 -134 -131q35 -7 56.5 -35t21.5 -64q0 -57 -47 -103t-108 -46zM909 963q41 25 94.5 41t90.5 16l-222 -1038q-19 -90 -58 -159t-105 -123t-167.5 -82t-234.5 -28
q-165 0 -276 60q25 106 82 153q128 -49 229 -49q107 0 175.5 27.5t102.5 75t54 125.5l43 206q-74 -91 -172.5 -149.5t-198.5 -58.5q-140 0 -212.5 82t-72.5 237q0 139 49.5 274t132.5 238.5t200 167t245 63.5q139 0 221 -79zM420 135q103 0 209.5 100.5t150.5 253.5l78 361
q-62 39 -166 39q-115 0 -215.5 -80.5t-157.5 -208t-57 -264.5q0 -103 39 -152t119 -49z" />
    <glyph glyph-name="Imacron" unicode="&#x12a;" horiz-adv-x="487" 
d="M246 1726h514l-35 -163h-514zM238 0h-205l284 1339q109 24 205 0z" />
    <glyph glyph-name="imacron" unicode="&#x12b;" horiz-adv-x="471" 
d="M170 1413h514l-35 -164h-514zM27 0l215 1016q48 19 105 19.5t95 -19.5l-215 -1016h-200z" />
    <glyph glyph-name="Iogonek" unicode="&#x12e;" horiz-adv-x="487" 
d="M238 0q-86 -50 -136.5 -111.5t-50.5 -117.5q0 -64 74 -64q42 0 86 23q18 -68 -2 -127q-41 -25 -131 -25q-80 0 -125 34t-45 101q0 83 58 158.5t143 128.5h-76l284 1339q109 24 205 0z" />
    <glyph glyph-name="iogonek" unicode="&#x12f;" horiz-adv-x="471" 
d="M436 1454q46 0 76.5 -28.5t30.5 -69.5q0 -57 -48.5 -102.5t-111.5 -45.5q-46 0 -75 28.5t-29 70.5q0 56 47.5 101.5t109.5 45.5zM242 1016q48 19 105 19.5t95 -19.5l-215 -1016q-86 -50 -136 -111.5t-50 -117.5q0 -64 74 -64q42 0 86 23q18 -68 -2 -127q-41 -25 -131 -25
q-80 0 -125 34t-45 101q0 83 57.5 158.5t142.5 128.5h-71z" />
    <glyph glyph-name="Idotaccent" unicode="&#x130;" horiz-adv-x="487" 
d="M446 1532q-46 0 -74 28t-28 72q0 56 47 102t109 46q45 0 75.5 -28.5t30.5 -70.5q0 -57 -48.5 -103t-111.5 -46zM238 0h-205l284 1339q109 24 205 0z" />
    <glyph glyph-name="dotlessi" unicode="&#x131;" horiz-adv-x="471" 
d="M27 0l215 1016q48 19 105 19.5t95 -19.5l-215 -1016h-200z" />
    <glyph glyph-name="IJ" unicode="&#x132;" horiz-adv-x="1222" 
d="M238 0h-205l284 1339q109 24 205 0zM1053 1339q105 24 204 0l-225 -1052q-47 -231 -145.5 -327.5t-284.5 -96.5q-115 0 -211 47q22 114 84 168q98 -31 170 -31q65 0 110 53t66 148z" />
    <glyph glyph-name="ij" unicode="&#x133;" horiz-adv-x="987" 
d="M543 1356q0 -56 -48.5 -102t-111.5 -46q-46 0 -74 28.5t-28 70.5q0 56 46.5 101.5t108.5 45.5q46 0 76.5 -28.5t30.5 -69.5zM899 1208q-45 0 -73.5 28.5t-28.5 70.5q0 56 46.5 101.5t108.5 45.5q45 0 75 -28t30 -70q0 -57 -47.5 -102.5t-110.5 -45.5zM367 -471
q-33 7 -63 53t-28 86q104 70 176 157.5t91 180.5l215 1010q50 20 105 20t95 -20l-204 -961q-41 -191 -152 -334t-235 -192zM27 0l215 1016q48 19 105 19.5t95 -19.5l-215 -1016h-200z" />
    <glyph glyph-name="uni0136" unicode="&#x136;" horiz-adv-x="1179" 
d="M1266 1339l-699 -657l469 -682h-239l-426 627l-133 -627h-205l284 1339q109 24 205 0l-121 -567l611 567q133 24 254 0zM528 -94q48 0 77.5 -30t29.5 -75q0 -94 -78.5 -185.5t-171.5 -145.5q-24 0 -42 16t-26 41q90 60 136 133q-36 7 -58 33.5t-22 62.5q0 57 47.5 103.5
t107.5 46.5z" />
    <glyph glyph-name="uni0137" unicode="&#x137;" horiz-adv-x="1064" 
d="M1114 1016l-567 -457l395 -559h-225l-377 526l-113 -526h-200l286 1348q39 26 106.5 45.5t108.5 19.5l-166 -780l498 385q127 25 254 -2zM461 -94q48 0 77 -30t29 -75q0 -94 -78.5 -185.5t-171.5 -145.5q-24 0 -41.5 16t-25.5 41q89 58 135 133q-36 7 -58 33.5t-22 62.5
q0 57 48 103.5t108 46.5z" />
    <glyph glyph-name="Lacute" unicode="&#x139;" horiz-adv-x="987" 
d="M621 1614l-158 -166l-103 68l254 342l33 -19q72 -37 72 -82q0 -52 -98 -143zM274 172h600l-36 -172h-805l284 1339q109 24 205 0z" />
    <glyph glyph-name="lacute" unicode="&#x13a;" horiz-adv-x="471" 
d="M498 1579l-103 68l254 342l33 -19q72 -37 72 -82q0 -51 -99 -143zM27 0l286 1348q39 26 106.5 45.5t108.5 19.5l-301 -1413h-200z" />
    <glyph glyph-name="uni013B" unicode="&#x13b;" horiz-adv-x="987" 
d="M274 172h600l-36 -172h-805l284 1339q109 24 205 0zM449 -94q48 0 77 -30t29 -75q0 -94 -78.5 -185.5t-171.5 -145.5q-24 0 -41.5 16t-25.5 41q89 58 135 133q-36 7 -58 33.5t-22 62.5q0 57 48 103.5t108 46.5z" />
    <glyph glyph-name="uni013C" unicode="&#x13c;" horiz-adv-x="471" 
d="M27 0l286 1348q39 26 106.5 45.5t108.5 19.5l-301 -1413h-200zM207 -199q0 -65 -43.5 -134t-96.5 -116.5t-110 -80.5q-50 0 -68 57q90 60 136 133q-36 7 -58 33.5t-22 62.5q0 57 47.5 103.5t107.5 46.5q48 0 77.5 -30t29.5 -75z" />
    <glyph glyph-name="Lcaron" unicode="&#x13d;" horiz-adv-x="987" 
d="M528 1495q-86 -25 -155 0l-150 238q67 63 146 63l100 -184l178 184q44 0 80.5 -18.5t52.5 -44.5zM274 172h600l-36 -172h-805l284 1339q109 24 205 0z" />
    <glyph glyph-name="lcaron" unicode="&#x13e;" horiz-adv-x="471" 
d="M655 1040q-71 0 -114 19l94 442q93 0 132.5 -23t27.5 -77q-11 -58 -54 -166.5t-86 -194.5zM27 0l286 1348q39 26 106.5 45.5t108.5 19.5l-301 -1413h-200z" />
    <glyph glyph-name="Lslash" unicode="&#x141;" horiz-adv-x="987" 
d="M274 172h600l-36 -172h-805l108 512l-155 -70q0 156 104 205l88 39l139 653q109 24 205 0l-116 -551l329 148q0 -85 -28.5 -135t-90.5 -78l-247 -111z" />
    <glyph glyph-name="lslash" unicode="&#x142;" horiz-adv-x="479" 
d="M530 928q11 -25 11 -66q0 -92 -80 -147l-94 -66l-140 -649h-200l104 489l-104 -71q-11 42 -11 69q0 90 80 144l76 51l141 666q39 26 106.5 45.5t108.5 19.5l-120 -569z" />
    <glyph glyph-name="Nacute" unicode="&#x143;" horiz-adv-x="1404" 
d="M1087 1614l-157 -166l-103 68l254 342l33 -19q72 -37 72 -82q0 -51 -99 -143zM1235 1339h205l-285 -1339q-106 -24 -205 0l-501 1034l-41 -239l-170 -795h-205l284 1339q109 24 205 0l500 -1054l27 176z" />
    <glyph glyph-name="nacute" unicode="&#x144;" horiz-adv-x="1089" 
d="M872 1288l-157 -166l-103 68l254 342l33 -19q72 -37 72 -81q0 -52 -99 -144zM772 1036q153 0 215.5 -91.5t20.5 -276.5l-152 -668h-199l150 655q27 123 1 179.5t-106 56.5q-105 0 -215.5 -117t-150.5 -270l-109 -504h-200l217 1018q51 0 86 -12.5t51.5 -30.5t23.5 -45
t6 -47.5t-5 -46.5q75 95 169 147.5t197 52.5z" />
    <glyph glyph-name="uni0145" unicode="&#x145;" horiz-adv-x="1404" 
d="M1235 1339h205l-285 -1339q-106 -24 -205 0l-501 1034l-41 -239l-170 -795h-205l284 1339q109 24 205 0l500 -1054l27 176zM614 -94q48 0 77.5 -30t29.5 -75q0 -94 -78.5 -185.5t-171.5 -145.5q-24 0 -42 16t-26 41q90 60 136 133q-36 7 -58 33.5t-22 62.5
q0 57 47.5 103.5t107.5 46.5z" />
    <glyph glyph-name="uni0146" unicode="&#x146;" horiz-adv-x="1089" 
d="M772 1036q153 0 215.5 -91.5t20.5 -276.5l-152 -668h-199l150 655q27 123 1 179.5t-106 56.5q-105 0 -215.5 -117t-150.5 -270l-109 -504h-200l217 1018q51 0 86 -12.5t51.5 -30.5t23.5 -45t6 -47.5t-5 -46.5q75 95 169 147.5t197 52.5zM461 -94q48 0 77 -30t29 -75
q0 -65 -43.5 -134t-96.5 -116.5t-110 -80.5q-24 0 -41.5 16t-25.5 41q89 58 135 133q-36 7 -58 33.5t-22 62.5q0 57 48 103.5t108 46.5z" />
    <glyph glyph-name="Ncaron" unicode="&#x147;" horiz-adv-x="1404" 
d="M995 1495q-86 -25 -155 0l-150 238q67 63 146 63l100 -184l178 184q44 0 80.5 -18.5t52.5 -44.5zM1235 1339h205l-285 -1339q-106 -24 -205 0l-501 1034l-41 -239l-170 -795h-205l284 1339q109 24 205 0l500 -1054l27 176z" />
    <glyph glyph-name="ncaron" unicode="&#x148;" horiz-adv-x="1089" 
d="M780 1169q-86 -25 -155 0l-150 238q67 63 146 63l100 -184l178 184q44 0 80.5 -18.5t52.5 -44.5zM772 1036q153 0 215.5 -91.5t20.5 -276.5l-152 -668h-199l150 655q27 123 1 179.5t-106 56.5q-105 0 -215.5 -117t-150.5 -270l-109 -504h-200l217 1018q51 0 86 -12.5
t51.5 -30.5t23.5 -45t6 -47.5t-5 -46.5q75 95 169 147.5t197 52.5z" />
    <glyph glyph-name="Eng" unicode="&#x14a;" horiz-adv-x="1413" 
d="M1440 1339l-285 -1339q-20 -94 -46 -157.5t-68 -114.5t-104.5 -80t-149.5 -43.5t-209 -14.5q14 51 40.5 97t59.5 75q59 0 92 4t64 16.5t49.5 40t34.5 69.5t32 110l-501 1032l-41 -239l-170 -795h-205l284 1339q109 24 205 0l500 -1054l27 176l186 878h205z" />
    <glyph glyph-name="eng" unicode="&#x14b;" horiz-adv-x="1089" 
d="M772 1036q153 0 215.5 -91.5t20.5 -276.5l-144 -629q-18 -88 -41 -154t-65 -130t-99 -105t-144.5 -65.5t-199.5 -24.5q24 107 76 166q68 0 106 8t70.5 37.5t51.5 82t38 146.5l150 655q27 123 1 179.5t-106 56.5q-105 0 -215.5 -117t-150.5 -270l-109 -504h-200l217 1018
q51 0 86 -12.5t51.5 -30.5t23.5 -45t6 -47.5t-5 -46.5q75 95 169 147.5t197 52.5z" />
    <glyph glyph-name="Omacron" unicode="&#x14c;" horiz-adv-x="1406" 
d="M707 1729h514l-35 -164h-514zM592 -20q-242 0 -376 133t-134 366q0 180 63 343.5t170.5 281t256.5 187t313 69.5q242 0 376 -131t134 -363q0 -181 -63 -345.5t-170.5 -282.5t-256.5 -188t-313 -70zM629 154q154 0 282 93.5t200.5 252.5t72.5 346q0 164 -86.5 252
t-249.5 88q-154 0 -281.5 -92.5t-200.5 -250t-73 -343.5q0 -167 86.5 -256.5t249.5 -89.5z" />
    <glyph glyph-name="omacron" unicode="&#x14d;" horiz-adv-x="1107" 
d="M485 1403h514l-34 -164h-514zM414 -20q-163 0 -254.5 94.5t-91.5 263.5q0 143 49.5 273.5t133 225t199 150t242.5 55.5q164 0 256 -96.5t92 -263.5q0 -191 -83.5 -353t-227.5 -255.5t-315 -93.5zM449 154q105 0 194 65.5t141 181t52 254.5q0 101 -45.5 156t-128.5 55
q-163 0 -276.5 -146t-113.5 -360q0 -99 46 -152.5t131 -53.5z" />
    <glyph glyph-name="Ohungarumlaut" unicode="&#x150;" horiz-adv-x="1406" 
d="M766 1425l-115 43l172 390l37 -11q76 -19 88 -63q11 -49 -63 -162zM1026 1427l-96 78l287 314l32 -21q66 -42 62 -88q-6 -52 -111 -133zM592 -20q-242 0 -376 133t-134 366q0 180 63 343.5t170.5 281t256.5 187t313 69.5q242 0 376 -131t134 -363q0 -181 -63 -345.5
t-170.5 -282.5t-256.5 -188t-313 -70zM629 154q154 0 282 93.5t200.5 252.5t72.5 346q0 164 -86.5 252t-249.5 88q-154 0 -281.5 -92.5t-200.5 -250t-73 -343.5q0 -167 86.5 -256.5t249.5 -89.5z" />
    <glyph glyph-name="ohungarumlaut" unicode="&#x151;" horiz-adv-x="1107" 
d="M545 1100l-115 43l172 389l37 -10q76 -19 88 -64q11 -49 -63 -162zM805 1102l-96 78l286 313l33 -20q66 -42 62 -89q-6 -52 -111 -133zM414 -20q-163 0 -254.5 94.5t-91.5 263.5q0 143 49.5 273.5t133 225t199 150t242.5 55.5q164 0 256 -96.5t92 -263.5
q0 -191 -83.5 -353t-227.5 -255.5t-315 -93.5zM449 154q105 0 194 65.5t141 181t52 254.5q0 101 -45.5 156t-128.5 55q-163 0 -276.5 -146t-113.5 -360q0 -99 46 -152.5t131 -53.5z" />
    <glyph glyph-name="OE" unicode="&#x152;" horiz-adv-x="1953" 
d="M1976 1169h-633l-86 -407h531q-22 -103 -70 -170h-497l-88 -422h632l-36 -170h-838q-133 -20 -266 -20q-256 0 -398.5 135t-142.5 370q0 182 65 344t176 278.5t267 184.5t330 68q169 0 276 -21h815zM662 154q168 0 268 32l200 944q-89 58 -249 58q-168 0 -303.5 -87.5
t-212 -242.5t-76.5 -348q0 -171 95.5 -263.5t277.5 -92.5z" />
    <glyph glyph-name="oe" unicode="&#x153;" horiz-adv-x="1751" 
d="M1712 838q0 -358 -704 -451q0 -1 -1 -3t-1 -3q0 -106 59 -163.5t166 -57.5q74 0 155.5 32.5t139.5 83.5q62 -50 53 -161q-168 -138 -391 -138q-260 0 -350 187q-85 -88 -194 -136t-230 -48q-163 0 -254.5 94.5t-91.5 263.5q0 143 49.5 273.5t133 225t199 150t242.5 55.5
q231 0 314 -180q177 180 415 180q149 0 220 -55t71 -149zM1030 549q-2 -2 -2 -4q226 19 353.5 84t127.5 162q0 43 -30 69.5t-84 26.5q-123 0 -223.5 -96t-141.5 -242zM449 154q127 0 228 95t138 247q5 14 8 34q13 63 13 125q0 101 -45.5 156t-128.5 55q-163 0 -276.5 -146
t-113.5 -360q0 -99 46 -152.5t131 -53.5z" />
    <glyph glyph-name="Racute" unicode="&#x154;" horiz-adv-x="1148" 
d="M893 1614l-158 -166l-102 68l254 342l33 -19q71 -36 71 -82q0 -52 -98 -143zM1124 1026q0 -163 -94 -290.5t-246 -186.5l220 -549h-224l-192 508h-25h-217l-108 -508h-205l280 1319q216 41 369 41q91 0 166 -18.5t125.5 -49.5t85 -74t50 -91t15.5 -101zM383 680h139
q184 0 291 83.5t107 223.5q0 205 -291 205q-70 0 -142 -14z" />
    <glyph glyph-name="racute" unicode="&#x155;" horiz-adv-x="716" 
d="M692 1288l-157 -166l-103 68l254 342l33 -19q72 -37 72 -81q0 -52 -99 -144zM741 1036h21q8 -19 8 -49q0 -34 -15.5 -82t-35.5 -74q-63 13 -78 13q-78 0 -172 -96t-129 -226l-113 -522h-200l217 1018q60 0 98.5 -17t51 -43t17 -56.5t-2.5 -57.5q71 98 159 145t174 47z
" />
    <glyph glyph-name="uni0156" unicode="&#x156;" horiz-adv-x="1148" 
d="M1124 1026q0 -163 -94 -290.5t-246 -186.5l220 -549h-224l-192 508h-25h-217l-108 -508h-205l280 1319q216 41 369 41q91 0 166 -18.5t125.5 -49.5t85 -74t50 -91t15.5 -101zM383 680h139q184 0 291 83.5t107 223.5q0 205 -291 205q-70 0 -142 -14zM504 -94q48 0 77 -30
t29 -75q0 -94 -78.5 -185.5t-171.5 -145.5q-24 0 -41.5 16t-25.5 41q89 58 135 133q-36 7 -58 33.5t-22 62.5q0 57 48 103.5t108 46.5z" />
    <glyph glyph-name="uni0157" unicode="&#x157;" horiz-adv-x="716" 
d="M762 1036q8 -19 8 -49q0 -34 -15.5 -82t-35.5 -74q-63 13 -78 13q-78 0 -172 -96t-129 -226l-113 -522h-200l217 1018q60 0 98.5 -17t51 -43t17 -56.5t-2.5 -57.5q71 98 159 145t174 47h21zM137 -94q48 0 77.5 -30t29.5 -75q0 -65 -43.5 -134t-96.5 -116.5t-110 -80.5
q-50 0 -68 57q89 58 135 133q-36 7 -57.5 33.5t-21.5 62.5q0 57 47.5 103.5t107.5 46.5z" />
    <glyph glyph-name="Rcaron" unicode="&#x158;" horiz-adv-x="1148" 
d="M801 1495q-86 -25 -156 0l-149 238q67 63 145 63l100 -184l179 184q44 0 80.5 -18.5t52.5 -44.5zM1124 1026q0 -163 -94 -290.5t-246 -186.5l220 -549h-224l-192 508h-25h-217l-108 -508h-205l280 1319q216 41 369 41q91 0 166 -18.5t125.5 -49.5t85 -74t50 -91
t15.5 -101zM383 680h139q184 0 291 83.5t107 223.5q0 205 -291 205q-70 0 -142 -14z" />
    <glyph glyph-name="rcaron" unicode="&#x159;" horiz-adv-x="716" 
d="M600 1169q-86 -25 -156 0l-149 238q67 63 145 63l101 -184l178 184q44 0 80.5 -18.5t52.5 -44.5zM741 1036h21q8 -19 8 -49q0 -34 -15.5 -82t-35.5 -74q-63 13 -78 13q-78 0 -172 -96t-129 -226l-113 -522h-200l217 1018q60 0 98.5 -17t51 -43t17 -56.5t-2.5 -57.5
q71 98 159 145t174 47z" />
    <glyph glyph-name="Sacute" unicode="&#x15a;" horiz-adv-x="1056" 
d="M752 1448l-103 68l254 342l33 -19q72 -37 72 -82q0 -51 -99 -143zM989 1120q-143 74 -297 74q-135 0 -202.5 -52.5t-67.5 -137.5q0 -67 51 -116.5t189 -131.5q146 -85 208 -160.5t62 -169.5q0 -200 -151 -325.5t-392 -125.5q-204 0 -379 84q-4 45 12.5 96t49.5 93
q204 -101 356 -101q136 0 214 62.5t81 171.5q0 73 -46 128.5t-157 117.5q-83 46 -134.5 80t-94.5 76t-61.5 87.5t-18.5 102.5q0 181 137 286t383 105q169 0 318 -61q13 -30 -7.5 -86.5t-52.5 -96.5z" />
    <glyph glyph-name="sacute" unicode="&#x15b;" horiz-adv-x="817" 
d="M555 1122l-102 68l254 342l32 -19q72 -37 72 -81q0 -53 -98 -144zM29 211q150 -72 264 -72q70 0 126 40.5t56 99.5q0 55 -28.5 91.5t-120.5 90.5q-65 41 -101.5 74.5t-57 77.5t-20.5 100q0 148 110.5 239.5t317.5 91.5q79 0 146.5 -19.5t103.5 -41.5q-8 -39 -31 -85
t-53 -79q-42 33 -91.5 47.5t-125.5 14.5q-80 0 -129 -35.5t-49 -93.5q0 -44 28 -80t103 -82q125 -76 168 -135.5t43 -145.5q0 -146 -115.5 -239t-316.5 -93q-147 0 -256 56q-6 24 -6 49q0 83 35 129z" />
    <glyph glyph-name="Scedilla" unicode="&#x15e;" horiz-adv-x="1056" 
d="M692 1194q-135 0 -202.5 -52.5t-67.5 -137.5q0 -67 51 -116.5t189 -131.5q146 -85 208 -160.5t62 -169.5q0 -181 -126.5 -302.5t-332.5 -143.5l-84 -111q24 4 37 4q70 0 109.5 -31t39.5 -92q0 -60 -31.5 -107t-79 -72t-95.5 -37.5t-90 -12.5q-69 0 -144 14q0 47 25 107
q98 -23 149 -23q63 0 104.5 29.5t41.5 72.5q0 58 -107 58q-28 0 -76 -10q-36 24 -30 61l112 145q-186 10 -344 84q-4 45 12.5 96t49.5 93q204 -101 356 -101q136 0 214 62.5t81 171.5q0 73 -46 128.5t-157 117.5q-83 46 -134.5 80t-94.5 76t-61.5 87.5t-18.5 102.5
q0 181 137 286t383 105q169 0 318 -61q13 -30 -7.5 -86.5t-52.5 -96.5q-143 74 -297 74z" />
    <glyph glyph-name="scedilla" unicode="&#x15f;" horiz-adv-x="817" 
d="M524 881q-80 0 -129 -35.5t-49 -93.5q0 -44 28 -80t103 -82q125 -76 168 -135.5t43 -145.5q0 -122 -80.5 -208t-226.5 -113l-88 -119q20 4 35 4q70 0 109.5 -31t39.5 -92q0 -60 -31.5 -107t-79.5 -72t-96 -37.5t-90 -12.5q-68 0 -143 14q0 49 24 107q98 -23 150 -23
q62 0 103.5 29.5t41.5 72.5q0 58 -106 58q-28 0 -76 -10q-36 24 -31 61l115 147h-2q-147 0 -256 56q-6 24 -6 49q0 83 35 129q150 -72 264 -72q70 0 126 40.5t56 99.5q0 55 -28.5 91.5t-120.5 90.5q-65 41 -101.5 74.5t-57 77.5t-20.5 100q0 148 110.5 239.5t317.5 91.5
q79 0 146.5 -19.5t103.5 -41.5q-8 -39 -31 -85t-53 -79q-42 33 -91.5 47.5t-125.5 14.5z" />
    <glyph glyph-name="Scaron" unicode="&#x160;" horiz-adv-x="1056" 
d="M817 1495q-86 -25 -155 0l-150 238q67 63 145 63l101 -184l178 184q44 0 80.5 -18.5t52.5 -44.5zM731 1364q169 0 318 -61q13 -30 -7.5 -86.5t-52.5 -96.5q-143 74 -297 74q-135 0 -202.5 -52.5t-67.5 -137.5q0 -67 51 -116.5t189 -131.5q146 -85 208 -160.5t62 -169.5
q0 -200 -151 -325.5t-392 -125.5q-204 0 -379 84q-4 45 12.5 96t49.5 93q204 -101 356 -101q136 0 214 62.5t81 171.5q0 73 -46 128.5t-157 117.5q-83 46 -134.5 80t-94.5 76t-61.5 87.5t-18.5 102.5q0 181 137 286t383 105z" />
    <glyph glyph-name="scaron" unicode="&#x161;" horiz-adv-x="817" 
d="M739 1470q44 0 80.5 -18.5t52.5 -44.5l-251 -238q-86 -25 -156 0l-150 238q67 63 146 63l100 -184zM29 211q150 -72 264 -72q70 0 126 40.5t56 99.5q0 55 -28.5 91.5t-120.5 90.5q-65 41 -101.5 74.5t-57 77.5t-20.5 100q0 148 110.5 239.5t317.5 91.5q79 0 146.5 -19.5
t103.5 -41.5q-8 -39 -31 -85t-53 -79q-42 33 -91.5 47.5t-125.5 14.5q-80 0 -129 -35.5t-49 -93.5q0 -44 28 -80t103 -82q125 -76 168 -135.5t43 -145.5q0 -146 -115.5 -239t-316.5 -93q-147 0 -256 56q-6 24 -6 49q0 83 35 129z" />
    <glyph glyph-name="uni0162" unicode="&#x162;" horiz-adv-x="1062" 
d="M528 0h-32l-99 -131q24 4 37 4q70 0 110 -31t40 -92q0 -60 -31.5 -107t-79.5 -72t-96 -37.5t-90 -12.5q-69 0 -144 14q0 47 25 107q98 -23 149 -23q63 0 104.5 29.5t41.5 72.5q0 58 -107 58q-27 0 -75 -10q-36 24 -31 61l131 170h-57l241 1141h-391q11 105 66 198h960
q-24 -123 -65 -198h-365z" />
    <glyph glyph-name="uni0163" unicode="&#x163;" horiz-adv-x="780" 
d="M485 1022h314q-9 -40 -32.5 -88t-55.5 -76h-260l-117 -543q-20 -94 5.5 -128.5t111.5 -34.5q53 0 118 16q34 -44 9 -162q-48 -20 -146 -26l-82 -111q20 4 35 4q70 0 110 -31t40 -92q0 -60 -31.5 -107t-79.5 -72t-96 -37.5t-90 -12.5q-69 0 -144 14q0 47 25 107
q98 -23 149 -23q63 0 104.5 29.5t41.5 72.5q0 58 -107 58q-28 0 -76 -10q-36 24 -30 61l114 150q-129 9 -175.5 75t-16.5 209l127 594h-146q21 95 152 217t272 148z" />
    <glyph glyph-name="Tcaron" unicode="&#x164;" horiz-adv-x="1062" 
d="M819 1493q-86 -25 -155 0l-150 238q67 63 145 63l101 -184l178 184q44 0 80.5 -18.5t52.5 -44.5zM1200 1339q-24 -123 -65 -198h-365l-242 -1141h-204l241 1141h-391q11 105 66 198h960z" />
    <glyph glyph-name="tcaron" unicode="&#x165;" horiz-adv-x="780" 
d="M684 1550q93 0 132.5 -23t27.5 -77q-11 -58 -53.5 -166.5t-85.5 -193.5q-75 0 -115 18zM528 1223l-43 -201h314q-9 -40 -32.5 -88t-55.5 -76h-260l-117 -543q-20 -94 5.5 -128.5t111.5 -34.5q53 0 118 16q34 -44 9 -162q-67 -29 -209 -29q-161 0 -220 65.5t-26 221.5
l127 594h-146q21 95 152 217t272 148z" />
    <glyph glyph-name="Tbar" unicode="&#x166;" horiz-adv-x="1062" 
d="M1135 1141h-365l-72 -340h291q-21 -73 -62.5 -122.5t-101.5 -49.5h-163l-134 -629h-204l133 629h-277q18 39 31 62.5t35.5 52.5t52.5 43t68 14h127l71 340h-391q11 105 66 198h960q-24 -123 -65 -198z" />
    <glyph glyph-name="tbar" unicode="&#x167;" horiz-adv-x="780" 
d="M485 1022h314q-9 -40 -32.5 -88t-55.5 -76h-260l-52 -233h277q-17 -60 -56.5 -99t-99.5 -39h-149l-37 -172q-20 -94 5.5 -128.5t111.5 -34.5q53 0 118 16q34 -44 9 -162q-67 -29 -209 -29q-161 0 -220 65.5t-26 221.5l47 223h-107q26 58 56 91t80 43l51 237h-146
q21 95 152 217t272 148z" />
    <glyph glyph-name="Umacron" unicode="&#x16a;" horiz-adv-x="1267" 
d="M637 1726h514l-35 -163h-514zM522 -20q-243 0 -351.5 142t-49.5 419l168 798q108 24 203 0l-175 -819q-34 -162 29 -257t213 -95q144 0 252.5 93.5t144.5 258.5l172 819q108 24 203 0l-170 -798q-57 -267 -224.5 -414t-414.5 -147z" />
    <glyph glyph-name="umacron" unicode="&#x16b;" horiz-adv-x="1089" 
d="M475 1403h514l-35 -164h-514zM860 1010q102 24 205 24l-219 -1034q-197 0 -162 186q-75 -96 -167.5 -150t-194.5 -54q-153 0 -218 89t-26 265l153 674q99 24 205 24l-147 -651q-34 -137 -11.5 -196.5t113.5 -59.5q73 0 151.5 64t133.5 150.5t76 166.5z" />
    <glyph glyph-name="Uring" unicode="&#x16e;" horiz-adv-x="1267" 
d="M834 1481q-95 0 -150 47t-55 127q0 117 86 196.5t213 79.5q95 0 148.5 -46t53.5 -126q0 -118 -85 -198t-211 -80zM856 1583q53 0 90 48.5t37 115.5q0 38 -19.5 60t-58.5 22q-55 0 -91 -46t-36 -114q0 -40 19.5 -63t58.5 -23zM522 -20q-243 0 -351.5 142t-49.5 419
l168 798q108 24 203 0l-175 -819q-34 -162 29 -257t213 -95q144 0 252.5 93.5t144.5 258.5l172 819q108 24 203 0l-170 -798q-57 -267 -224.5 -414t-414.5 -147z" />
    <glyph glyph-name="uring" unicode="&#x16f;" horiz-adv-x="1089" 
d="M672 1157q-95 0 -150 47t-55 127q0 117 86 197t213 80q95 0 149 -46t54 -126q0 -118 -85.5 -198.5t-211.5 -80.5zM694 1260q53 0 90 48t37 115q0 38 -19.5 60t-58.5 22q-55 0 -91 -45.5t-36 -113.5q0 -40 19.5 -63t58.5 -23zM860 1010q102 24 205 24l-219 -1034
q-197 0 -162 186q-75 -96 -167.5 -150t-194.5 -54q-153 0 -218 89t-26 265l153 674q99 24 205 24l-147 -651q-34 -137 -11.5 -196.5t113.5 -59.5q73 0 151.5 64t133.5 150.5t76 166.5z" />
    <glyph glyph-name="Uhungarumlaut" unicode="&#x170;" horiz-adv-x="1267" 
d="M696 1423l-114 43l172 389l37 -10q76 -19 88 -63q11 -48 -64 -162zM956 1425l-96 78l287 314l33 -21q65 -41 61 -88q-6 -52 -111 -133zM522 -20q-243 0 -351.5 142t-49.5 419l168 798q108 24 203 0l-175 -819q-34 -162 29 -257t213 -95q144 0 252.5 93.5t144.5 258.5
l172 819q108 24 203 0l-170 -798q-57 -267 -224.5 -414t-414.5 -147z" />
    <glyph glyph-name="uhungarumlaut" unicode="&#x171;" horiz-adv-x="1089" 
d="M535 1100l-115 43l172 389l37 -10q76 -19 88 -64q11 -48 -64 -162zM795 1102l-97 78l287 313l33 -20q65 -41 61 -89q-6 -53 -110 -133zM860 1010q102 24 205 24l-219 -1034q-197 0 -162 186q-75 -96 -167.5 -150t-194.5 -54q-153 0 -218 89t-26 265l153 674q99 24 205 24
l-147 -651q-34 -137 -11.5 -196.5t113.5 -59.5q73 0 151.5 64t133.5 150.5t76 166.5z" />
    <glyph glyph-name="Uogonek" unicode="&#x172;" horiz-adv-x="1267" 
d="M1128 1339q108 24 203 0l-170 -798q-46 -217 -166 -356t-299 -185q-86 -50 -136 -111.5t-50 -117.5q0 -64 74 -64q42 0 86 23q18 -68 -2 -127q-41 -25 -131 -25q-80 0 -125 34t-45 101q0 75 48 145.5t122 121.5h-15q-243 0 -351.5 142t-49.5 419l168 798q108 24 203 0
l-175 -819q-34 -162 29 -257t213 -95q144 0 252.5 93.5t144.5 258.5z" />
    <glyph glyph-name="uogonek" unicode="&#x173;" horiz-adv-x="1089" 
d="M848 0q-86 -50 -136 -111.5t-50 -117.5q0 -64 73 -64q42 0 86 23q18 -68 -2 -127q-41 -25 -131 -25q-80 0 -125 34t-45 101q0 91 67.5 172t162.5 131q-90 41 -64 170q-75 -96 -167.5 -150t-194.5 -54q-153 0 -218 89t-26 265l153 674q99 24 205 24l-147 -651
q-34 -137 -11.5 -196.5t113.5 -59.5q73 0 151.5 64t133.5 150.5t76 166.5l108 502q102 24 205 24l-219 -1034h2z" />
    <glyph glyph-name="Wcircumflex" unicode="&#x174;" horiz-adv-x="1757" 
d="M969 1468q-44 0 -80 18t-55 44l251 237q87 24 158 0l148 -237q-62 -62 -146 -62l-98 185zM1696 1339q119 24 221 0l-647 -1341q-110 -23 -234 0l-73 1020l-543 -1020q-118 -25 -234 0l4 1341q119 24 220 0l-23 -1042l549 1042q100 22 192 0l84 -1046z" />
    <glyph glyph-name="wcircumflex" unicode="&#x175;" horiz-adv-x="1386" 
d="M729 1143q-44 0 -80 17.5t-55 43.5l252 238q87 24 158 0l147 -238q-61 -61 -145 -61l-101 182zM1294 1022q108 21 197 0l-561 -1020q-56 -16 -92 -16q-47 0 -97 16l-26 741l-424 -741q-43 -16 -90 -16q-46 0 -99 16l11 1020q100 21 198 0l-32 -748l415 748q92 21 176 0
l35 -762z" />
    <glyph glyph-name="Ycircumflex" unicode="&#x176;" horiz-adv-x="1093" 
d="M631 1468q-44 0 -80 18t-55 44l252 237q87 24 157 0l148 -237q-62 -62 -146 -62l-98 185zM1260 1339l-617 -845l-104 -494h-205l112 535l-260 804q119 24 226 0l178 -616l442 616q120 24 228 0z" />
    <glyph glyph-name="ycircumflex" unicode="&#x177;" horiz-adv-x="978" 
d="M485 1143q-44 0 -80 17.5t-55 43.5l252 238q87 24 158 0l147 -238q-61 -61 -145 -61l-100 182zM860 1022q113 24 223 0l-577 -930q-224 -355 -500 -502q-50 12 -85.5 67.5t-26.5 109.5q253 115 405 303l-186 952q108 23 211 0l118 -700z" />
    <glyph glyph-name="Ydieresis" unicode="&#x178;" horiz-adv-x="1093" 
d="M598 1522q-46 0 -76 28t-30 72q0 60 49.5 107t111.5 47q47 0 78 -29t31 -72q0 -60 -50.5 -106.5t-113.5 -46.5zM948 1522q-46 0 -76 28t-30 72q0 60 50 107t112 47q50 0 79.5 -30t26.5 -75q-1 -60 -50.5 -104.5t-111.5 -44.5zM1260 1339l-617 -845l-104 -494h-205
l112 532l-260 807q119 24 226 0l178 -618l442 618q120 24 228 0z" />
    <glyph glyph-name="Zacute" unicode="&#x179;" horiz-adv-x="1243" 
d="M1008 1612l-158 -166l-102 67l253 342l33 -18q72 -37 72 -82q0 -52 -98 -143zM1198 1339q33 -17 55 -70t9 -112l-955 -956h766q0 -41 -14.5 -110.5t-26.5 -90.5h-948q-31 17 -50.5 67t-8.5 107l960 965h-729q0 41 14 107.5t27 92.5h901z" />
    <glyph glyph-name="zacute" unicode="&#x17a;" horiz-adv-x="950" 
d="M813 1288l-158 -166l-102 68l254 342l33 -19q71 -36 71 -81q0 -53 -98 -144zM842 1022q44 -24 65 -74.5t8 -105.5l-665 -660h541q2 -8 2 -26q0 -38 -14 -83.5t-29 -72.5h-670q-43 24 -64.5 74.5t-7.5 105.5l674 660h-508q-4 28 -4 43q0 71 45 139h627z" />
    <glyph glyph-name="Zdotaccent" unicode="&#x17b;" horiz-adv-x="1243" 
d="M834 1532q-46 0 -74.5 28t-28.5 72q0 56 47 102t109 46q45 0 75.5 -28.5t30.5 -70.5q0 -57 -48 -103t-111 -46zM1198 1339q33 -17 55 -70t9 -112l-955 -956h766q0 -41 -14.5 -110.5t-26.5 -90.5h-948q-31 17 -50.5 67t-8.5 107l960 965h-729q0 41 14 107.5t27 92.5h901z
" />
    <glyph glyph-name="zdotaccent" unicode="&#x17c;" horiz-adv-x="950" 
d="M639 1208q-46 0 -74 28.5t-28 72.5q0 56 46.5 101.5t108.5 45.5q46 0 76.5 -28.5t30.5 -69.5q0 -57 -48.5 -103.5t-111.5 -46.5zM842 1022q44 -24 65 -74.5t8 -105.5l-665 -660h541q2 -8 2 -26q0 -38 -14 -83.5t-29 -72.5h-670q-43 24 -64.5 74.5t-7.5 105.5l674 660
h-508q-4 28 -4 43q0 71 45 139h627z" />
    <glyph glyph-name="Zcaron" unicode="&#x17d;" horiz-adv-x="1243" 
d="M915 1493q-86 -25 -155 0l-150 238q67 63 146 63l100 -184l178 184q44 0 80.5 -18.5t52.5 -44.5zM1198 1339q33 -17 55 -70t9 -112l-955 -956h766q0 -41 -14.5 -110.5t-26.5 -90.5h-948q-31 17 -50.5 67t-8.5 107l960 965h-729q0 41 14 107.5t27 92.5h901z" />
    <glyph glyph-name="zcaron" unicode="&#x17e;" horiz-adv-x="950" 
d="M721 1169q-86 -25 -156 0l-149 238q67 63 145 63l101 -184l178 184q44 0 80.5 -18.5t52.5 -44.5zM842 1022q44 -24 65 -74.5t8 -105.5l-665 -660h541q2 -8 2 -26q0 -38 -14 -83.5t-29 -72.5h-670q-43 24 -64.5 74.5t-7.5 105.5l674 660h-508q-4 28 -4 43q0 71 45 139h627
z" />
    <glyph glyph-name="florin" unicode="&#x192;" 
d="M934 1171q-63 0 -96.5 -35t-55.5 -122l-20 -84h301q-5 -72 -35.5 -118t-91.5 -46h-215l-129 -512q-45 -187 -144.5 -289t-242.5 -102q-61 0 -107.5 12.5t-97.5 44.5q25 117 106 166q42 -24 65.5 -32.5t55.5 -8.5q62 0 95.5 37.5t54.5 122.5l141 561h-166q34 164 178 164
h29l8 37q45 185 144.5 287t242.5 102q115 0 205 -58q-24 -116 -106 -165q-38 21 -62 29.5t-57 8.5z" />
    <glyph glyph-name="uni0218" unicode="&#x218;" horiz-adv-x="1056" 
d="M692 1194q-135 0 -202.5 -52.5t-67.5 -137.5q0 -67 51 -116.5t189 -131.5q146 -85 208 -160.5t62 -169.5q0 -200 -151 -325.5t-392 -125.5q-204 0 -379 84q-4 45 12.5 96t49.5 93q204 -101 356 -101q136 0 214 62.5t81 171.5q0 73 -46 128.5t-157 117.5q-83 46 -134.5 80
t-94.5 76t-61.5 87.5t-18.5 102.5q0 181 137 286t383 105q169 0 318 -61q13 -30 -7.5 -86.5t-52.5 -96.5q-143 74 -297 74zM426 -94q48 0 77 -30t29 -75q0 -94 -78 -185.5t-171 -145.5q-24 0 -42 16t-26 41q89 58 135 133q-36 7 -58 33.5t-22 62.5q0 57 48 103.5t108 46.5z
" />
    <glyph glyph-name="uni0219" unicode="&#x219;" horiz-adv-x="817" 
d="M29 211q150 -72 264 -72q70 0 126 40.5t56 99.5q0 55 -28.5 91.5t-120.5 90.5q-65 41 -101.5 74.5t-57 77.5t-20.5 100q0 148 110.5 239.5t317.5 91.5q79 0 146.5 -19.5t103.5 -41.5q-8 -39 -31 -85t-53 -79q-42 33 -91.5 47.5t-125.5 14.5q-80 0 -129 -35.5t-49 -93.5
q0 -44 28 -80t103 -82q125 -76 168 -135.5t43 -145.5q0 -146 -115.5 -239t-316.5 -93q-147 0 -256 56q-6 24 -6 49q0 83 35 129zM432 -199q0 -65 -43.5 -134t-96.5 -116.5t-110 -80.5q-24 0 -41.5 16t-25.5 41q89 58 135 133q-36 7 -58 33.5t-22 62.5q0 57 48 103.5
t108 46.5q48 0 77 -30t29 -75z" />
    <glyph glyph-name="uni021A" unicode="&#x21a;" horiz-adv-x="1062" 
d="M1200 1339q-24 -123 -65 -198h-365l-242 -1141h-204l241 1141h-391q11 105 66 198h960zM434 -94q48 0 77.5 -30t29.5 -75q0 -94 -78.5 -185.5t-171.5 -145.5q-24 0 -42 16t-26 41q89 58 135 133q-36 7 -57.5 33.5t-21.5 62.5q0 57 47.5 103.5t107.5 46.5z" />
    <glyph glyph-name="uni021B" unicode="&#x21b;" horiz-adv-x="780" 
d="M485 1022h314q-9 -40 -32.5 -88t-55.5 -76h-260l-117 -543q-20 -94 5.5 -128.5t111.5 -34.5q53 0 118 16q34 -44 9 -162q-67 -29 -209 -29q-161 0 -220 65.5t-26 221.5l127 594h-146q21 95 152 217t272 148zM385 -94q48 0 77.5 -30t29.5 -75q0 -65 -43.5 -134
t-96.5 -116.5t-110 -80.5q-24 0 -42 16t-26 41q89 58 135 133q-36 7 -58 33.5t-22 62.5q0 57 48 103.5t108 46.5z" />
    <glyph glyph-name="uni0237" unicode="&#x237;" horiz-adv-x="471" 
d="M-150 -471q-35 11 -62.5 51.5t-27.5 85.5q88 57 167.5 151t99.5 189l215 1010q48 19 104.5 19.5t95.5 -19.5l-204 -961q-41 -194 -151.5 -335.5t-236.5 -190.5z" />
    <glyph glyph-name="circumflex" unicode="&#x2c6;" horiz-adv-x="557" 
d="M711 1231q-62 -62 -146 -62l-100 183l-176 -183q-44 0 -80 18t-55 44l252 237q87 24 157 0z" />
    <glyph glyph-name="caron" unicode="&#x2c7;" horiz-adv-x="557" 
d="M614 1470q44 0 81 -19t53 -44l-252 -238q-86 -25 -156 0l-150 238q67 63 146 63l100 -184z" />
    <glyph glyph-name="breve" unicode="&#x2d8;" horiz-adv-x="634" 
d="M836 1454q-12 -50 -40 -98.5t-73 -92.5t-114 -71t-150 -27q-56 0 -101 12.5t-74 34t-50 50.5t-28.5 61t-10 65.5t5.5 65.5q91 27 170 0q-5 -20 0 -45.5t15.5 -48t38 -38t67.5 -15.5t72.5 15t52.5 40t31.5 47t17.5 45q91 27 170 0z" />
    <glyph glyph-name="dotaccent" unicode="&#x2d9;" horiz-adv-x="256" 
d="M279 1214q-45 0 -75 29.5t-30 71.5q0 56 48 101.5t108 45.5q45 0 74.5 -28.5t29.5 -71.5q0 -56 -48.5 -102t-106.5 -46z" />
    <glyph glyph-name="ring" unicode="&#x2da;" horiz-adv-x="491" 
d="M385 1159q-96 0 -150.5 46t-54.5 128q0 117 86 197t213 80q95 0 149 -46t54 -126q0 -120 -85.5 -199.5t-211.5 -79.5zM408 1262q54 0 90.5 47.5t36.5 115.5q0 38 -19.5 60t-58.5 22q-55 0 -91 -46t-36 -115q0 -38 20 -61t58 -23z" />
    <glyph glyph-name="ogonek" unicode="&#x2db;" horiz-adv-x="331" 
d="M6 -418q-80 0 -125 34t-45 101q0 98 78 184.5t180 133.5l72 -31q-86 -50 -136 -111.5t-50 -117.5q0 -64 73 -64q42 0 86 23q18 -68 -2 -127q-41 -25 -131 -25z" />
    <glyph glyph-name="tilde" unicode="&#x2dc;" horiz-adv-x="616" 
d="M272 1204q-61 0 -120 19q24 110 87.5 168.5t147.5 58.5q34 0 64.5 -14.5t49.5 -31.5t46.5 -31.5t56.5 -14.5q32 0 56.5 33.5t31.5 68.5q65 3 121 -18q-22 -107 -83 -166t-136 -59q-45 0 -85 24t-73.5 48t-62.5 24q-37 0 -65.5 -35t-35.5 -74z" />
    <glyph glyph-name="hungarumlaut" unicode="&#x2dd;" horiz-adv-x="665" 
d="M137 1100l-114 43l172 389l36 -10q76 -19 88 -64q11 -49 -63 -162zM383 1071l-94 80l286 313l33 -20q66 -44 62 -90q-6 -50 -113 -133z" />
    <glyph glyph-name="gravecomb" unicode="&#x300;" horiz-adv-x="0" 
d="M-119 1124l-155 226q-29 45 -29 71q0 24 21 49.5t69 42.5l43 15l164 -354z" />
    <glyph glyph-name="acutecomb" unicode="&#x301;" horiz-adv-x="0" 
d="M-248 1122l-102 68l254 342l33 -19q71 -36 71 -81q0 -53 -98 -144z" />
    <glyph glyph-name="uni0302" unicode="&#x302;" horiz-adv-x="0" 
d="M154 1231q-62 -62 -146 -62l-100 183l-176 -183q-44 0 -80 18t-55 44l251 237q87 24 158 0z" />
    <glyph glyph-name="tildecomb" unicode="&#x303;" horiz-adv-x="0" 
d="M-340 1204q-66 0 -125 19q23 109 81 168t134 59q39 0 73.5 -14.5t55.5 -31.5t52 -31.5t63 -14.5q31 0 53 30.5t27 71.5q69 3 125 -18q-21 -107 -76 -166t-125 -59q-41 0 -78.5 15t-61 33t-53 33t-55.5 15q-34 0 -59 -31t-31 -78z" />
    <glyph glyph-name="uni0304" unicode="&#x304;" horiz-adv-x="0" 
d="M-324 1403h514l-34 -164h-514z" />
    <glyph glyph-name="uni0306" unicode="&#x306;" horiz-adv-x="0" 
d="M201 1454q-12 -50 -40 -98.5t-73 -92.5t-114 -71t-150 -27q-56 0 -101 12.5t-74 34t-50 50.5t-28.5 61t-10 65.5t5.5 65.5q91 27 170 0q-5 -20 0 -45.5t15.5 -48t38 -38t67.5 -15.5t72.5 15t52.5 40t31.5 47t17.5 45q91 27 170 0z" />
    <glyph glyph-name="uni0307" unicode="&#x307;" horiz-adv-x="0" 
d="M20 1214q-46 0 -74 28.5t-28 72.5q0 56 47 101.5t109 45.5q45 0 75.5 -28.5t30.5 -69.5q0 -57 -48.5 -103.5t-111.5 -46.5z" />
    <glyph glyph-name="uni0308" unicode="&#x308;" horiz-adv-x="0" 
d="M-334 1210q-46 0 -76 28.5t-30 72.5q0 60 49.5 106.5t111.5 46.5q47 0 78 -28.5t31 -71.5q0 -60 -50.5 -107t-113.5 -47zM16 1210q-46 0 -76 28.5t-30 72.5q0 60 50 106.5t112 46.5q50 0 79.5 -29.5t26.5 -74.5q-1 -60 -50.5 -105t-111.5 -45z" />
    <glyph glyph-name="uni030A" unicode="&#x30a;" horiz-adv-x="0" 
d="M-106 1157q-95 0 -150 47t-55 127q0 117 86 197t213 80q95 0 148.5 -46t53.5 -126q0 -119 -85 -199t-211 -80zM-84 1260q53 0 90 48t37 115q0 38 -19.5 60t-58.5 22q-55 0 -91 -45.5t-36 -113.5q0 -40 19.5 -63t58.5 -23z" />
    <glyph glyph-name="uni030B" unicode="&#x30b;" horiz-adv-x="0" 
d="M-571 1100l-115 43l172 389l37 -10q76 -19 88 -64q11 -48 -64 -162zM-311 1102l-97 78l287 313l33 -20q65 -41 61 -89q-6 -53 -110 -133z" />
    <glyph glyph-name="uni030C" unicode="&#x30c;" horiz-adv-x="0" 
d="M57 1470q44 0 80.5 -18.5t52.5 -44.5l-251 -238q-86 -25 -156 0l-150 238q67 63 146 63l100 -184z" />
    <glyph glyph-name="uni0312" unicode="&#x312;" horiz-adv-x="0" 
d="M92 1438q35 -7 56.5 -35t21.5 -64q0 -57 -47.5 -103t-108.5 -46q-47 0 -76.5 28.5t-29.5 71.5v2q0 87 80.5 183t169.5 151q23 0 41.5 -15.5t25.5 -41.5q-88 -62 -133 -131z" />
    <glyph glyph-name="uni0315" unicode="&#x315;" horiz-adv-x="0" 
d="M51 1040q-71 0 -114 19l94 442q93 0 132 -23t27 -77q-11 -59 -54 -167.5t-85 -193.5z" />
    <glyph glyph-name="uni0326" unicode="&#x326;" horiz-adv-x="0" 
d="M-156 -199q0 -65 -43.5 -134t-96.5 -116.5t-110 -80.5q-49 0 -67 57q89 58 135 133q-36 7 -58 33.5t-22 62.5q0 57 48 103.5t108 46.5q48 0 77 -30t29 -75z" />
    <glyph glyph-name="uni0327" unicode="&#x327;" horiz-adv-x="0" 
d="M-315 -127q70 0 109.5 -31t39.5 -92q0 -60 -31.5 -107t-79.5 -72t-96 -37.5t-90 -12.5q-68 0 -143 14q0 57 24 107q98 -23 150 -23q62 0 103.5 29.5t41.5 72.5q0 58 -106 58q-28 0 -76 -10q-36 24 -31 61l131 170h115l-96 -131q20 4 35 4z" />
    <glyph glyph-name="uni0328" unicode="&#x328;" horiz-adv-x="0" 
d="M-326 -418q-80 0 -125 34t-45 101q0 98 78 184.5t180 133.5l72 -31q-86 -50 -136 -111.5t-50 -117.5q0 -64 73 -64q42 0 86 23q18 -68 -2 -127q-41 -25 -131 -25z" />
    <glyph glyph-name="Wgrave" unicode="&#x1e80;" horiz-adv-x="1757" 
d="M1047 1450l-156 225q-29 45 -29 72q0 24 21 49.5t69 42.5l43 14l164 -354zM1696 1339q119 24 221 0l-647 -1341q-110 -23 -234 0l-73 1022l-543 -1022q-118 -25 -234 0l4 1341q119 24 220 0l-23 -1044l549 1044q100 22 192 0l84 -1048z" />
    <glyph glyph-name="wgrave" unicode="&#x1e81;" horiz-adv-x="1386" 
d="M807 1124l-156 226q-28 43 -28 71q0 24 21 49.5t69 42.5l43 15l164 -354zM1294 1022q108 21 197 0l-561 -1020q-56 -16 -92 -16q-47 0 -97 16l-28 741l-422 -741q-43 -16 -90 -16q-46 0 -99 16l11 1020q100 21 198 0l-30 -746l413 746q92 21 176 0l35 -760z" />
    <glyph glyph-name="Wacute" unicode="&#x1e82;" horiz-adv-x="1757" 
d="M1276 1614l-158 -166l-102 68l254 342l33 -19q71 -36 71 -82q0 -52 -98 -143zM1696 1339q119 24 221 0l-647 -1341q-110 -23 -234 0l-73 1020l-543 -1020q-118 -25 -234 0l4 1341q119 24 220 0l-23 -1042l549 1042q100 22 192 0l84 -1046z" />
    <glyph glyph-name="wacute" unicode="&#x1e83;" horiz-adv-x="1386" 
d="M1036 1288l-157 -166l-103 68l254 342l33 -19q72 -37 72 -81q0 -52 -99 -144zM1294 1022q108 21 197 0l-561 -1020q-56 -16 -92 -16q-47 0 -97 16l-26 741l-424 -741q-43 -16 -90 -16q-46 0 -99 16l11 1020q100 21 198 0l-32 -748l415 748q92 21 176 0l35 -762z" />
    <glyph glyph-name="Wdieresis" unicode="&#x1e84;" horiz-adv-x="1757" 
d="M936 1522q-46 0 -76.5 28t-30.5 72q0 60 50 107t112 47q47 0 78 -29t31 -72q0 -60 -50.5 -106.5t-113.5 -46.5zM1286 1522q-46 0 -76 28t-30 72q0 60 49.5 107t111.5 47q50 0 80 -30t27 -75q-1 -60 -50.5 -104.5t-111.5 -44.5zM1696 1339q119 24 221 0l-647 -1341
q-110 -23 -234 0l-73 1022l-543 -1022q-118 -25 -234 0l4 1341q119 24 220 0l-23 -1044l549 1044q100 22 192 0l84 -1048z" />
    <glyph glyph-name="wdieresis" unicode="&#x1e85;" horiz-adv-x="1386" 
d="M696 1196q-46 0 -76 28t-30 72q0 60 50 107t112 47q47 0 77.5 -28.5t30.5 -71.5q0 -60 -50.5 -107t-113.5 -47zM1047 1196q-46 0 -76.5 28t-30.5 72q0 60 50 107t112 47q50 0 79.5 -29.5t26.5 -74.5q-1 -60 -50 -105t-111 -45zM1294 1022q108 21 197 0l-561 -1020
q-56 -16 -92 -16q-47 0 -97 16l-28 741l-422 -741q-43 -16 -90 -16q-46 0 -99 16l11 1020q100 21 198 0l-30 -746l413 746q92 21 176 0l35 -760z" />
    <glyph glyph-name="uni1E9E" unicode="&#x1e9e;" horiz-adv-x="1425" 
d="M1032 772q123 -55 206 -146.5t83 -185.5q0 -224 -143 -345.5t-385 -121.5q-96 0 -157.5 11t-141.5 36q0 111 57 191q94 -35 156.5 -49.5t126.5 -14.5q131 0 205.5 67t74.5 175q0 84 -60 142t-220 118q-26 23 -34.5 60t1.5 75l307 349q-101 65 -272 65
q-182 0 -297.5 -89.5t-151.5 -264.5l-180 -844q-107 -27 -201 0l172 815q57 271 243.5 412t485.5 143q284 0 498 -160z" />
    <glyph glyph-name="Ygrave" unicode="&#x1ef2;" horiz-adv-x="1093" 
d="M709 1450l-156 225q-29 45 -29 72q0 24 21 49.5t69 42.5l43 14l164 -354zM1260 1339l-617 -845l-104 -494h-205l112 532l-260 807q119 24 226 0l178 -618l442 618q120 24 228 0z" />
    <glyph glyph-name="ygrave" unicode="&#x1ef3;" horiz-adv-x="978" 
d="M563 1124l-155 226q-29 45 -29 71q0 24 21 49.5t69 42.5l43 15l164 -354zM860 1022q113 24 223 0l-577 -930q-224 -355 -500 -502q-50 12 -85.5 67.5t-26.5 109.5q257 121 405 303l-186 952q108 23 211 0l118 -703z" />
    <glyph glyph-name="endash" unicode="&#x2013;" horiz-adv-x="1024" 
d="M61 543q21 101 54 136.5t114 35.5h787q-23 -100 -54.5 -136t-113.5 -36h-787z" />
    <glyph glyph-name="emdash" unicode="&#x2014;" horiz-adv-x="1638" 
d="M61 543q21 101 54 136.5t114 35.5h1401q-23 -100 -54.5 -136t-113.5 -36h-1401z" />
    <glyph glyph-name="quoteleft" unicode="&#x2018;" horiz-adv-x="401" 
d="M547 1354q-118 -87 -172 -195q38 -4 61 -33t23 -71q0 -67 -40.5 -115.5t-111.5 -48.5q-54 0 -88.5 36.5t-34.5 92.5q0 99 85 209.5t204 183.5q56 -10 74 -59z" />
    <glyph glyph-name="quoteright" unicode="&#x2019;" horiz-adv-x="401" 
d="M367 1409q54 0 87 -36t33 -93q0 -98 -84.5 -208t-203.5 -185q-54 11 -72 59q110 83 170 197q-38 4 -61 33t-23 69q0 68 40.5 116t113.5 48z" />
    <glyph glyph-name="quotesinglbase" unicode="&#x201a;" horiz-adv-x="399" 
d="M104 180q54 0 87.5 -36t33.5 -93q0 -98 -84.5 -208t-203.5 -185q-54 11 -72 59q110 83 170 197q-38 4 -61 33t-23 69q0 68 40 116t113 48z" />
    <glyph glyph-name="quotedblleft" unicode="&#x201c;" horiz-adv-x="765" 
d="M473 1413q56 -10 74 -59q-118 -87 -172 -195q38 -4 61 -33t23 -71q0 -67 -40.5 -115.5t-111.5 -48.5q-54 0 -88.5 36.5t-34.5 92.5q0 99 85 209.5t204 183.5zM911 1354q-113 -83 -172 -195q38 -6 62 -35t24 -69q0 -67 -41 -115.5t-112 -48.5q-54 0 -87.5 36.5t-33.5 92.5
q0 98 85 209t202 184q55 -10 73 -59z" />
    <glyph glyph-name="quotedblright" unicode="&#x201d;" horiz-adv-x="765" 
d="M367 1409q54 0 87 -36t33 -93q0 -98 -84.5 -208t-203.5 -185q-54 11 -72 59q113 83 170 197q-37 4 -60.5 33t-23.5 69q0 68 40.5 116t113.5 48zM731 1409q54 0 87.5 -36t33.5 -93q0 -98 -84.5 -208t-202.5 -185q-55 10 -73 59q113 83 170 197q-37 4 -60.5 33t-23.5 69
q0 67 41 115.5t112 48.5z" />
    <glyph glyph-name="quotedblbase" unicode="&#x201e;" horiz-adv-x="763" 
d="M104 180q54 0 87.5 -36t33.5 -93q0 -98 -84.5 -208t-203.5 -185q-54 11 -72 59q113 83 170 197q-37 4 -60.5 33t-23.5 69q0 68 40 116t113 48zM469 180q54 0 87.5 -36t33.5 -93q0 -98 -84.5 -208t-202.5 -185q-56 10 -74 59q113 83 170 197q-37 4 -60.5 33t-23.5 69
q0 67 41.5 115.5t112.5 48.5z" />
    <glyph glyph-name="dagger" unicode="&#x2020;" horiz-adv-x="907" 
d="M688 1147h268q-8 -33 -37.5 -83.5t-62.5 -78.5h-205l-168 -715q-79 -15 -153 0l135 715h-277q8 35 38.5 85t62.5 77h207l49 254q47 23 106 23t97 -23z" />
    <glyph glyph-name="daggerdbl" unicode="&#x2021;" horiz-adv-x="909" 
d="M641 985l-33 -131l-24 -145h280q-8 -33 -37.5 -83.5t-62.5 -78.5h-207l-43 -254q-47 -22 -107 -22t-98 22l66 254h-279q10 36 39 84.5t62 77.5h221l37 145l22 131h-289q8 34 38.5 85t62.5 77h215l41 254q48 22 106.5 22.5t96.5 -22.5l-66 -254h274q-9 -33 -38.5 -84
t-61.5 -78h-215z" />
    <glyph glyph-name="bullet" unicode="&#x2022;" horiz-adv-x="600" 
d="M281 420q-76 0 -124 47.5t-48 118.5q0 100 79.5 179t180.5 79q78 0 126 -47t48 -119q0 -100 -80 -179t-182 -79z" />
    <glyph glyph-name="ellipsis" unicode="&#x2026;" horiz-adv-x="1310" 
d="M119 -10q-51 0 -83 31t-32 79q0 66 53.5 119t120.5 53q52 0 84.5 -31t32.5 -79q0 -66 -53.5 -119t-122.5 -53zM555 -10q-51 0 -83 31t-32 79q0 66 53.5 119t120.5 53q52 0 84.5 -31t32.5 -79q0 -66 -53.5 -119t-122.5 -53zM971 -10q-51 0 -83 31t-32 79q0 66 53.5 119
t120.5 53q52 0 84.5 -31t32.5 -79q0 -66 -53.5 -119t-122.5 -53z" />
    <glyph glyph-name="perthousand" unicode="&#x2030;" horiz-adv-x="2203" 
d="M102 20l1147 1256q50 55 91.5 75t78.5 15.5t94 -31.5l-1144 -1253q-72 -78 -127 -90t-140 28zM526 1360q-158 0 -266 -132t-108 -323q0 -117 61.5 -177t167.5 -60q103 0 189 61t136 166.5t50 230.5q0 115 -62 174.5t-168 59.5zM406 793q-50 0 -76.5 33t-26.5 94
q0 129 58.5 222t138.5 93q102 0 102 -125q0 -127 -58.5 -222t-137.5 -95zM1200 674q-158 0 -266.5 -131.5t-108.5 -323.5q0 -114 61.5 -174.5t168.5 -60.5q156 0 265.5 133.5t109.5 324.5q0 114 -62 173t-168 59zM1894 674q-158 0 -266 -131.5t-108 -323.5q0 -114 61 -174.5
t166 -60.5q157 0 266 133t109 325q0 114 -61.5 173t-166.5 59zM1081 109q-104 0 -104 124q0 129 58.5 223.5t138.5 94.5q102 0 102 -127t-58.5 -221t-136.5 -94zM1774 109q-103 0 -103 124q0 129 58.5 223.5t138.5 94.5q102 0 102 -127t-59 -221t-137 -94z" />
    <glyph glyph-name="guilsinglleft" unicode="&#x2039;" horiz-adv-x="602" 
d="M621 981l-351 -446l191 -439q-105 -24 -199 0l-143 334q-27 60 -27 82q0 10 1 19t4.5 18.5t6 16.5t8.5 16.5t9 14.5t11 15t10.5 13t11 13.5t10.5 12.5l264 330q44 13 98.5 13t94.5 -13z" />
    <glyph glyph-name="guilsinglright" unicode="&#x203a;" horiz-adv-x="604" 
d="M496 649q26 -61 26 -84q0 -12 -2 -23.5t-7 -23.5t-8.5 -20t-12.5 -20.5t-12.5 -17.5t-14 -18.5t-12.5 -15.5l-267 -330q-44 -12 -97.5 -12.5t-94.5 12.5l352 447l-192 438q106 26 198 0z" />
    <glyph glyph-name="fraction" unicode="&#x2044;" horiz-adv-x="354" 
d="M-387 -92q-66 0 -102 29l1212 1458q17 21 48 34t63 13q48 0 79 -31l-1214 -1462q-35 -41 -86 -41z" />
    <glyph glyph-name="lira" unicode="&#x20a4;" 
d="M870 492q111 26 199 0l-20 -89q-87 -403 -510 -403h-404l88 420l-188 -86q-2 10 -2 33q0 58 29 104t77 68l121 55l31 143l-189 -86q-2 10 -2 33q0 58 29.5 103.5t77.5 68.5l121 55l90 428q109 24 205 0l-70 -325l377 170v-10q0 -85 -32 -131.5t-89 -71.5l-293 -131
l-29 -144l375 170v-10q0 -151 -119 -203l-292 -133l-74 -348h166q139 0 214.5 70t112.5 250z" />
    <glyph glyph-name="uni20A6" unicode="&#x20a6;" 
d="M1106 786h-37l-41 -188h107q-15 -70 -42.5 -117t-62.5 -47h-37l-92 -434q-109 -24 -205 0l-121 434h-262l-92 -434h-205l93 434h-115q16 72 48.5 118t78.5 46h24l39 188h-114q15 72 46.5 118t78.5 46h24l84 389q112 25 205 0l104 -389h287l82 389h205l-82 -389h106
q-15 -70 -42 -117t-62 -47zM416 1012l-8 -62h24zM348 598h182l-53 188h-92l-10 -67zM827 618l35 168h-205l52 -188h116zM786 311l17 123h-49z" />
    <glyph glyph-name="uni20A8" unicode="&#x20a8;" 
d="M1251 1339q-15 -70 -57 -116.5t-104 -46.5h-226q66 -81 66 -199v-23h241q-16 -69 -59 -116t-104 -47h-119q-59 -133 -186 -226t-279 -110l459 -455h-273l-481 465q31 135 184 135q134 0 233.5 50.5t151.5 140.5h-600q16 72 56 117.5t100 45.5h489v21q0 93 -57.5 147
t-183.5 54h-324q19 73 58 118t98 45h917z" />
    <glyph glyph-name="uni20A9" unicode="&#x20a9;" 
d="M1237 1339l-125 -370h96q-13 -69 -39.5 -116.5t-60.5 -47.5h-51l-58 -174h146q-13 -69 -39 -116.5t-59 -47.5h-103l-158 -469q-108 -23 -225 0l37 469h-106l-160 -469q-114 -24 -228 0l43 469h-151q37 164 123 164h43l14 174h-119q15 73 46 118.5t77 45.5h13l32 370
q107 23 205 0l-53 -370h141l121 370q54 12 91.5 12t88.5 -12l-35 -370h146l104 370q107 23 203 0zM352 805l-24 -174h80l57 174h-113zM547 631h65l15 174h-21zM836 631l49 174h-115l-16 -174h82zM264 190l90 277h-51zM715 201l76 266h-52z" />
    <glyph glyph-name="uni20AA" unicode="&#x20aa;" 
d="M-59 0l284 1339h299q65 0 117 -8t98.5 -27t76 -49t49.5 -74.5t19.5 -103.5t-14.5 -135l-102 -483h-143l96 459q8 47 9.5 81.5t-11 59t-28.5 40.5t-42.5 25.5t-54 13t-62.5 3.5h-204l-244 -1141h-143zM655 2q-51 0 -94 5t-83.5 17.5t-70.5 32.5t-53 51t-34 71.5t-10 96
t16 123.5l102 482h143l-98 -459q-9 -44 -9.5 -78.5t6 -57.5t21.5 -39.5t30.5 -25.5t39.5 -14t43 -6.5t45 -1.5h217l244 1140h143l-284 -1337h-314z" />
    <glyph glyph-name="Euro" unicode="&#x20ac;" 
d="M856 1360q273 0 385 -166q-23 -51 -70.5 -85.5t-99.5 -47.5q-38 63 -94 94t-143 31q-99 0 -190 -74t-155 -201h410q-21 -72 -61.5 -117.5t-102.5 -45.5h-307q-21 -84 -29 -148h334q-21 -70 -62.5 -116t-101.5 -46h-180q3 -136 60 -209t165 -73q90 0 158.5 30.5
t132.5 94.5q48 -13 81.5 -47.5t33.5 -83.5q-174 -166 -430 -166q-186 0 -289.5 120.5t-105.5 333.5h-185q18 40 32.5 65t36 49.5t50 36t66.5 11.5h10q8 71 28 148h-157q17 38 30.5 62.5t35 50t51 38t67.5 12.5h33q89 203 240 326t323 123z" />
    <glyph glyph-name="uni20BD" unicode="&#x20bd;" 
d="M555 500h-131l-39 -178h354q-15 -69 -57.5 -116.5t-103.5 -47.5h-228l-33 -158h-204l32 158h-172q14 72 55 118t101 46h51l39 178h-172q18 85 59 128.5t99 43.5h51l137 647q212 41 359 41q115 0 202.5 -29.5t137 -79.5t74 -110t24.5 -127q0 -135 -87 -253.5t-234 -189.5
t-314 -71zM569 1180l-108 -508h110q186 0 300 88.5t114 234.5q0 90 -69 142.5t-222 52.5q-67 0 -125 -10z" />
    <glyph glyph-name="trademark" unicode="&#x2122;" horiz-adv-x="1488" 
d="M1356 1348q97 15 209 0l-144 -674h-155l55 252l49 196l-231 -407q-41 -7 -69.5 -7t-74.5 7l-57 399l-31 -188l-53 -252h-158l144 674q96 15 211 0l61 -424zM715 1219h-172l-117 -545h-156l117 545h-186q10 73 39 129h514q-16 -67 -39 -129z" />
    <glyph glyph-name="oneeighth" unicode="&#x215b;" horiz-adv-x="2019" 
d="M1645 1442q48 0 79 -31l-1214 -1462q-35 -41 -84 -41q-68 0 -104 29l1212 1458q17 21 48 34t63 13zM127 467q-3 78 29 147h204l109 504q-163 -47 -197 -47q-18 25 -25.5 51.5t-8.5 71.5q170 84 385 160q12 -1 35.5 -24t25.5 -32l-147 -684h182q6 -78 -29 -147h-563z
M1743 467q129 -84 129 -184q2 -83 -52.5 -152t-145 -107t-193.5 -38q-135 0 -211 56.5t-76 156.5q0 79 68 150.5t163 103.5q-96 72 -96 172q0 110 104 186t240 76q110 0 180.5 -48t71.5 -132q0 -70 -53 -137.5t-129 -102.5zM1645 752q-64 0 -106 -29.5t-42 -75.5
q0 -34 27.5 -58t105.5 -59q55 21 89 57t34 79q0 39 -29.5 62.5t-78.5 23.5zM1518 133q71 0 118 32.5t47 78.5q0 78 -129 137q-71 -14 -121.5 -56t-50.5 -89q0 -49 37.5 -76t98.5 -27z" />
    <glyph glyph-name="threeeighths" unicode="&#x215c;" horiz-adv-x="2031" 
d="M1657 1442q49 0 80 -31l-1215 -1462q-35 -41 -84 -41q-68 0 -104 29l1212 1458q17 21 48 34t63 13zM758 764q0 -129 -114.5 -219t-274.5 -90q-179 0 -265 71q0 107 46 174q38 -39 105.5 -66.5t133.5 -27.5q79 0 134 38.5t55 92.5q0 105 -177 105h-108q0 42 19 83.5
t44 63.5h54q104 -2 168.5 30.5t64.5 102.5q0 38 -35 58t-96 20q-117 0 -264 -90q-7 68 26 162q137 82 299 82q112 0 178 -54.5t66 -146.5q0 -71 -47 -134t-125 -97q113 -44 113 -158zM1755 467q129 -84 129 -184q2 -83 -52.5 -152t-145 -107t-193.5 -38q-135 0 -211 56.5
t-76 156.5q0 79 68.5 150.5t163.5 103.5q-97 72 -97 172q0 73 49.5 134t128.5 94.5t167 33.5q110 0 180 -48t71 -132q0 -70 -53 -137.5t-129 -102.5zM1657 752q-64 0 -106 -29.5t-42 -75.5q0 -34 27.5 -58t105.5 -59q55 21 89 57t34 79q0 39 -29.5 62.5t-78.5 23.5z
M1530 133q71 0 118.5 32.5t47.5 78.5q0 78 -129 137q-71 -14 -121.5 -56t-50.5 -89q0 -49 37 -76t98 -27z" />
    <glyph glyph-name="fiveeighths" unicode="&#x215d;" horiz-adv-x="2000" 
d="M1626 1442q49 0 80 -31l-1214 -1462q-35 -41 -84 -41q-69 0 -105 29l1213 1458q18 21 48 34t62 13zM752 791q1 -151 -121 -243.5t-309 -92.5q-55 0 -118.5 11.5t-105.5 35.5q-4 42 4 80q5 43 43 77q37 -22 94.5 -39.5t118.5 -17.5q96 0 153.5 40.5t57.5 105.5
q0 117 -190 147l-72 12q-30 14 -57 47.5t-23 63.5l156 321h475q-1 -38 -18.5 -71t-57.5 -78h-288l-72 -143l117 -27q100 -24 156.5 -83.5t56.5 -145.5zM1724 467q129 -84 129 -184q2 -83 -52.5 -152t-145 -107t-193.5 -38q-135 0 -210.5 56.5t-75.5 156.5q0 79 68 150.5
t163 103.5q-96 72 -96 172q0 110 104 186t240 76q110 0 180.5 -48t71.5 -132q0 -70 -53.5 -137.5t-129.5 -102.5zM1626 752q-64 0 -105.5 -29.5t-41.5 -75.5q0 -34 27.5 -58t105.5 -59q55 21 89 57t34 79q0 38 -30 62t-79 24zM1499 133q71 0 118.5 32.5t47.5 78.5
q0 78 -129 137q-71 -14 -121.5 -56t-50.5 -89q0 -49 37 -76t98 -27z" />
    <glyph glyph-name="seveneighths" unicode="&#x215e;" horiz-adv-x="1921" 
d="M1546 1442q49 0 80 -31l-1214 -1462q-35 -41 -84 -41q-69 0 -105 29l1213 1458q18 21 48 34t62 13zM379 467q-99 -19 -182 0q6 20 236.5 302.5t350.5 420.5h-524q-3 72 29 149h614q48 -57 51 -145zM1645 467q129 -84 129 -184q2 -83 -53 -152t-145.5 -107t-193.5 -38
q-135 0 -210.5 56.5t-75.5 156.5q0 79 68 150.5t163 103.5q-96 72 -96 172q0 110 104 186t240 76q110 0 180.5 -48t71.5 -132q0 -70 -53 -137.5t-129 -102.5zM1546 752q-64 0 -105.5 -29.5t-41.5 -75.5q0 -34 27.5 -58t105.5 -59q55 21 89 57t34 79q0 38 -30 62t-79 24z
M1419 133q71 0 118.5 32.5t47.5 78.5q0 78 -129 137q-71 -14 -121.5 -56t-50.5 -89q0 -49 37 -76t98 -27z" />
    <glyph glyph-name="arrowleft" unicode="&#x2190;" horiz-adv-x="1097" 
d="M1055 537l-555 2l-142 12l189 -117q61 -36 65 -75.5t-47 -129.5l-409 283q-39 29 -52.5 53t-13.5 60t13.5 59.5t52.5 50.5l409 283q52 -90 48 -129t-66 -76l-189 -117l142 13h555q21 -86 0 -172z" />
    <glyph glyph-name="arrowup" unicode="&#x2191;" horiz-adv-x="905" 
d="M598 1079l281 -409q-88 -51 -127.5 -47t-75.5 65l-117 191l12 -142l2 -555q-88 -25 -172 0v555l13 142l-117 -191q-37 -61 -76 -64.5t-129 46.5l283 409q27 40 50 53t60 13t61 -13t52 -53z" />
    <glyph glyph-name="arrowright" unicode="&#x2192;" horiz-adv-x="1095" 
d="M989 735q40 -27 53 -50t13 -60t-13 -61t-53 -52l-409 -283q-50 90 -46.5 129.5t64.5 75.5l188 117l-139 -12l-555 -2q-24 86 0 172h555l139 -13l-188 117q-61 37 -64.5 76t46.5 129z" />
    <glyph glyph-name="arrowdown" unicode="&#x2193;" horiz-adv-x="905" 
d="M657 561q36 60 75.5 64.5t127.5 -45.5l-280 -410q-28 -40 -52 -53t-61 -13t-60.5 13t-50.5 53l-282 410q90 50 129 46t76 -65l116 -190l-12 141v555q84 25 172 0l-2 -555l-12 -141z" />
    <glyph glyph-name="arrowboth" unicode="&#x2194;" horiz-adv-x="1488" 
d="M1382 743q40 -28 53 -51t13 -61q0 -37 -13 -60.5t-53 -50.5l-409 -282q-50 90 -46.5 128.5t64.5 75.5l178 111l-129 -12h-411v2h-131l-152 12l201 -123q60 -36 64 -75.5t-46 -129.5l-409 283q-40 28 -53 52t-13 61t13 60t53 50l409 283q50 -90 46.5 -129t-64.5 -76
l-178 -111l129 13h411v-2h131l152 -13l-201 123q-60 36 -64 75.5t46 129.5z" />
    <glyph glyph-name="arrowupdn" unicode="&#x2195;" horiz-adv-x="1005" 
d="M731 446q36 60 75.5 64.5t127.5 -45.5l-281 -410q-28 -40 -51.5 -53.5t-60.5 -13.5t-60.5 13.5t-50.5 53.5l-283 410q90 50 129 46t76 -65l111 -180l-12 131v412h2v129l12 152l-123 -201q-38 -60 -76.5 -64.5t-128.5 45.5l283 410q28 40 51 53t61 13q37 0 60 -13t51 -53
l283 -410q-90 -50 -129 -46t-76 65l-111 178l13 -129v-412h-2v-129l-13 -151z" />
    <glyph glyph-name="uni2196" unicode="&#x2196;" horiz-adv-x="1007" 
d="M522 764l393 -393q-48 -79 -122 -121l-392 393l-90 107l51 -215q17 -68 -8.5 -100t-122.5 -58l-90 489q-8 50 -1 75t34 52q26 26 50 32.5t75 -1.5l489 -90q-28 -98 -58 -123t-99 -8l-215 51z" />
    <glyph glyph-name="uni2197" unicode="&#x2197;" horiz-adv-x="794" 
d="M774 993q27 -27 34 -52t-1 -75l-90 -489q-96 26 -121 57.5t-10 100.5l51 215l-90 -107l-391 -393q-76 43 -123 121l393 393l106 90l-215 -51q-68 -17 -98.5 8t-58.5 123l489 90q51 8 75 1.5t50 -32.5z" />
    <glyph glyph-name="uni2198" unicode="&#x2198;" horiz-adv-x="1007" 
d="M911 371q7 -50 0 -75t-32 -52q-26 -26 -50 -32.5t-75 1.5l-490 90q26 99 57 123.5t101 7.5l217 -51l-109 90l-393 393q44 77 121 121l391 -393l92 -109l-53 217q-15 69 10 100.5t123 57.5z" />
    <glyph glyph-name="uni2199" unicode="&#x2199;" horiz-adv-x="794" 
d="M522 434q70 17 101 -7.5t57 -123.5l-490 -90q-51 -8 -74.5 -1.5t-49.5 32.5q-26 28 -33 52t0 75l90 489q97 -26 122.5 -58t8.5 -100l-51 -217l90 109l393 393q77 -44 121 -121l-393 -393l-109 -90z" />
    <glyph glyph-name="minus" unicode="&#x2212;" 
d="M82 543q21 101 54 136.5t114 35.5h848q-23 -100 -54.5 -136t-113.5 -36h-848z" />
    <glyph glyph-name="approxequal" unicode="&#x2248;" 
d="M336 715q-80 0 -141 20q24 118 102.5 192t175.5 74q46 0 95.5 -18.5t85 -40.5t77.5 -40.5t74 -18.5q58 0 93 40t44 91q81 -4 143 -21q-26 -119 -105.5 -192.5t-172.5 -73.5q-47 0 -97.5 18.5t-85.5 41t-76 41t-73 18.5q-61 0 -95.5 -40t-43.5 -91zM240 268
q-58 -2 -142 19q26 120 106 193t175 73q45 0 94.5 -18.5t85 -41t77 -41t73.5 -18.5q58 0 93 40t46 91q80 0 141 -18q-26 -119 -104.5 -192.5t-171.5 -73.5q-61 0 -123 29.5t-115.5 59t-93.5 29.5q-60 0 -95 -39.5t-46 -91.5z" />
    <glyph glyph-name="notequal" unicode="&#x2260;" 
d="M965 748h-209l-150 -238h436q-22 -100 -53 -136t-112 -36h-379l-179 -285q-59 28 -82.5 50.5t-21.5 55t35 83.5l61 96h-268q22 101 56 136.5t112 35.5h207l149 238h-436q23 106 56.5 139t109.5 33h379l180 286q43 -21 64.5 -36.5t33.5 -37t4.5 -48t-32.5 -66.5l-62 -98
h264q-21 -102 -52.5 -137t-110.5 -35z" />
    <glyph glyph-name="lessequal" unicode="&#x2264;" 
d="M1071 1178q16 -46 21 -77t-1 -58.5t-29 -46.5t-65 -33l-620 -213l528 -213q66 -25 62.5 -71.5t-78.5 -143.5l-713 307q-41 17 -51.5 49t0.5 67q9 47 30.5 77.5t71.5 47.5zM8 33q8 90 33 126t92 46h729q-8 -90 -31.5 -126t-93.5 -46h-729z" />
    <glyph glyph-name="greaterequal" unicode="&#x2265;" 
d="M1053 870q40 -17 50 -49.5t-1 -66.5q-8 -47 -30 -77.5t-71 -47.5l-851 -307q-17 46 -22.5 77t0.5 58.5t29.5 46.5t65.5 33l627 213l-537 213q-65 24 -61 71.5t80 143.5zM37 33q21 101 54 136.5t114 35.5h780q-21 -100 -53 -136t-115 -36h-780z" />
    <glyph glyph-name="lozenge" unicode="&#x25ca;" 
d="M842 1339l239 -692l-522 -637q-109 -27 -205 0l-239 690l522 639q106 24 205 0zM494 190l380 469l-169 498l-383 -467z" />
    <glyph glyph-name="i.loclTRK" horiz-adv-x="471" 
d="M385 1208q-46 0 -75 28.5t-29 70.5q0 57 47 102t110 45q45 0 75 -28t30 -70q0 -57 -47.5 -102.5t-110.5 -45.5zM27 0l215 1016q48 19 105 19.5t95 -19.5l-215 -1016h-200z" />
    <glyph glyph-name="a.sc" horiz-adv-x="1087" 
d="M743 0l-30 225h-457l-127 -225h-213l635 1077q124 21 227 0l178 -1077h-213zM348 387h340l-67 481z" />
    <glyph glyph-name="aacute.sc" horiz-adv-x="1087" 
d="M827 1264l-125 -115l-100 65l217 273l31 -17q70 -36 70 -79q0 -57 -93 -127zM743 0l-30 225h-457l-127 -225h-213l635 1077q124 21 227 0l178 -1077h-213zM348 387h340l-67 481z" />
    <glyph glyph-name="abreve.sc" horiz-adv-x="1087" 
d="M690 1182q-58 0 -103 15t-71 39.5t-42.5 56.5t-17 66t4.5 68q85 21 162 0q-3 -16 0 -33.5t12.5 -36t31.5 -30.5t54 -12q59 0 93.5 36t45.5 76q86 21 164 0q-22 -95 -109 -170t-225 -75zM551 1077q124 21 227 0l178 -1077h-213l-30 225h-457l-127 -225h-213zM348 387h340
l-67 481z" />
    <glyph glyph-name="acircumflex.sc" horiz-adv-x="1087" 
d="M580 1165q-41 0 -75.5 17t-53.5 41l215 194q83 20 149 0l129 -194q-62 -58 -137 -58l-84 146zM743 0l-30 225h-457l-127 -225h-213l635 1077q124 21 227 0l178 -1077h-213zM348 387h340l-67 481z" />
    <glyph glyph-name="adieresis.sc" horiz-adv-x="1087" 
d="M539 1200q-43 0 -72 25.5t-29 66.5q0 52 45 95t101 43q44 0 73 -26.5t29 -66.5q0 -53 -45 -95t-102 -42zM850 1200q-42 0 -70 25.5t-28 66.5q0 54 44.5 96t100.5 42q43 0 71.5 -27t28.5 -68q-3 -54 -47 -94.5t-100 -40.5zM551 1077q124 21 227 0l178 -1077h-213l-30 225
h-457l-127 -225h-213zM348 387h340l-67 481z" />
    <glyph glyph-name="agrave.sc" horiz-adv-x="1087" 
d="M639 1149l-131 176q-25 37 -25 59q0 20 20.5 44.5t65.5 39.5l43 15l131 -287zM743 0l-30 225h-457l-127 -225h-213l635 1077q124 21 227 0l178 -1077h-213zM348 387h340l-67 481z" />
    <glyph glyph-name="amacron.sc" horiz-adv-x="1087" 
d="M954 1391l-30 -154h-443l31 154h442zM743 0l-30 225h-457l-127 -225h-213l635 1077q124 21 227 0l178 -1077h-213zM348 387h340l-67 481z" />
    <glyph glyph-name="aogonek.sc" horiz-adv-x="1087" 
d="M868 -225q37 0 74 16q12 -71 -4 -117q-26 -18 -113 -18q-73 0 -113 29t-40 88q0 66 47 126.5t117 100.5h-93l-30 225h-457l-127 -225h-213l635 1077q124 21 227 0l178 -1077q-71 -41 -111 -85.5t-40 -84.5q0 -55 63 -55zM348 387h340l-67 481z" />
    <glyph glyph-name="aring.sc" horiz-adv-x="1087" 
d="M684 1178q-85 0 -135.5 39t-50.5 108q0 96 76 161.5t188 65.5q86 0 136 -39.5t50 -107.5q0 -96 -76.5 -161.5t-187.5 -65.5zM743 1458q-45 0 -74.5 -35t-29.5 -88q0 -65 66 -65q42 0 72 37.5t30 89.5q0 61 -64 61zM743 0l-30 225h-457l-127 -225h-213l635 1077
q124 21 227 0l178 -1077h-213zM348 387h340l-67 481z" />
    <glyph glyph-name="atilde.sc" horiz-adv-x="1087" 
d="M625 1288q-27 0 -49 -22t-29 -62q-49 0 -115 17q18 93 69.5 144.5t119.5 51.5q50 0 107.5 -33.5t96.5 -33.5q24 0 42.5 22t23.5 55q70 0 117 -16q-17 -91 -65.5 -144t-108.5 -53q-42 0 -80 18.5t-70 37t-59 18.5zM551 1077q124 21 227 0l178 -1077h-213l-30 225h-457
l-127 -225h-213zM348 387h340l-67 481z" />
    <glyph glyph-name="ae.sc" horiz-adv-x="1552" 
d="M1432 911h-504l-17 -284h428q-21 -106 -63 -164h-375l-18 -301h483l-31 -162h-661l12 211h-412l-151 -211h-207l770 1073h778zM389 373h307l29 471z" />
    <glyph glyph-name="b.sc" horiz-adv-x="985" 
d="M707 592q180 -45 180 -203q0 -113 -69 -203t-182.5 -138t-246.5 -48h-371l226 1057q229 33 342 33q156 0 248 -62t92 -166q0 -95 -57 -165t-162 -105zM725 821q0 47 -46 75t-130 28q-71 0 -139 -9l-58 -274h144q96 0 162.5 52.5t66.5 127.5zM416 164q117 0 187.5 53
t70.5 141q0 66 -54 93.5t-157 27.5h-146l-67 -315h166z" />
    <glyph glyph-name="c.sc" horiz-adv-x="1122" 
d="M991 160q-188 -176 -459 -176q-211 0 -331.5 108.5t-120.5 304.5q0 191 90.5 350t249 251t348.5 92q137 0 235 -47.5t150 -133.5q-21 -47 -66 -80.5t-96 -46.5q-27 70 -94 106t-164 36q-190 0 -320 -145t-130 -361q0 -130 72.5 -199t207.5 -69q186 0 359 141z" />
    <glyph glyph-name="cacute.sc" horiz-adv-x="1122" 
d="M764 1149l-100 68l217 272l30 -16q70 -34 70 -80q0 -57 -90 -127zM991 160q-188 -176 -459 -176q-211 0 -331.5 108.5t-120.5 304.5q0 191 90.5 350t249 251t348.5 92q137 0 235 -47.5t150 -133.5q-21 -47 -66 -80.5t-96 -46.5q-27 70 -94 106t-164 36q-190 0 -320 -145
t-130 -361q0 -130 72.5 -199t207.5 -69q186 0 359 141z" />
    <glyph glyph-name="ccaron.sc" horiz-adv-x="1122" 
d="M827 1194q-83 -24 -149 0l-131 192q62 58 139 58l84 -146l143 146q83 0 127 -58zM768 1090q137 0 235 -47.5t150 -133.5q-21 -47 -66 -80.5t-96 -46.5q-27 70 -94 106t-164 36q-190 0 -320 -145t-130 -361q0 -130 72.5 -199t207.5 -69q186 0 359 141l69 -131
q-188 -176 -459 -176q-211 0 -331.5 108.5t-120.5 304.5q0 191 90.5 350t249 251t348.5 92z" />
    <glyph glyph-name="ccedilla.sc" horiz-adv-x="1122" 
d="M768 1090q137 0 235 -47.5t150 -133.5q-21 -47 -66 -80.5t-96 -46.5q-27 70 -94 106t-164 36q-190 0 -320 -145t-130 -361q0 -130 72.5 -199t207.5 -69q186 0 359 141l69 -131q-175 -164 -426 -176l-73 -86q5 0 15 1t15 1q60 0 94.5 -25.5t34.5 -75.5q0 -51 -28 -89
t-70.5 -57t-82 -27.5t-73.5 -8.5q-60 0 -125 10q0 45 23 97q80 -19 127 -19q50 0 83.5 20t33.5 48q0 43 -90 43q-25 0 -62 -6q-32 22 -29 55l103 123q-180 17 -280.5 123.5t-100.5 285.5q0 191 90.5 350t249 251t348.5 92z" />
    <glyph glyph-name="cdotaccent.sc" horiz-adv-x="1122" 
d="M745 1214q-41 0 -68.5 25.5t-27.5 65.5q0 48 43.5 88.5t98.5 40.5q41 0 69.5 -25.5t28.5 -62.5q0 -51 -44 -91.5t-100 -40.5zM991 160q-188 -176 -459 -176q-211 0 -331.5 108.5t-120.5 304.5q0 191 90.5 350t249 251t348.5 92q137 0 235 -47.5t150 -133.5
q-21 -47 -66 -80.5t-96 -46.5q-27 70 -94 106t-164 36q-190 0 -320 -145t-130 -361q0 -130 72.5 -199t207.5 -69q186 0 359 141z" />
    <glyph glyph-name="d.sc" horiz-adv-x="1161" 
d="M600 1090q247 0 382.5 -107.5t135.5 -302.5q0 -190 -97 -345.5t-268.5 -244.5t-383.5 -90h-351l226 1057q211 33 356 33zM401 164q227 0 373 136.5t146 350.5q0 131 -87.5 200t-254.5 69q-94 0 -168 -9l-160 -747h151z" />
    <glyph glyph-name="eth.sc" horiz-adv-x="1161" 
d="M600 1090q247 0 382.5 -107.5t135.5 -302.5q0 -190 -97 -345.5t-268.5 -244.5t-383.5 -90h-351l97 453h-97q35 131 129 153l97 451q211 33 356 33zM401 164q227 0 373 136.5t146 350.5q0 131 -87.5 200t-254.5 69q-94 0 -168 -9l-64 -301h356q-9 -72 -51 -114.5
t-102 -42.5h-238l-61 -289h151z" />
    <glyph glyph-name="dcaron.sc" horiz-adv-x="1161" 
d="M772 1194q-82 -23 -147 0l-131 192q58 58 137 58l84 -146l143 146q85 0 129 -58zM600 1090q247 0 382.5 -107.5t135.5 -302.5q0 -190 -97 -345.5t-268.5 -244.5t-383.5 -90h-351l226 1057q211 33 356 33zM401 164q227 0 373 136.5t146 350.5q0 131 -87.5 200t-254.5 69
q-94 0 -168 -9l-160 -747h151z" />
    <glyph glyph-name="dcroat.sc" horiz-adv-x="1161" 
d="M600 1090q247 0 382.5 -107.5t135.5 -302.5q0 -190 -97 -345.5t-268.5 -244.5t-383.5 -90h-351l97 453h-97q35 131 129 153l97 451q211 33 356 33zM401 164q227 0 373 136.5t146 350.5q0 131 -87.5 200t-254.5 69q-94 0 -168 -9l-64 -301h356q-9 -72 -51 -114.5
t-102 -42.5h-238l-61 -289h151z" />
    <glyph glyph-name="e.sc" horiz-adv-x="968" 
d="M944 907h-536l-60 -280h447q0 -28 -18 -77.5t-46 -88.5h-418l-61 -297h532l-34 -164h-732l228 1073h731z" />
    <glyph glyph-name="eacute.sc" horiz-adv-x="968" 
d="M791 1266l-127 -117l-99 68l217 272l31 -16q70 -34 70 -80q0 -56 -92 -127zM944 907h-536l-60 -280h447q0 -28 -18 -77.5t-46 -88.5h-418l-61 -297h532l-34 -164h-732l228 1073h731z" />
    <glyph glyph-name="ecaron.sc" horiz-adv-x="968" 
d="M729 1194q-88 -23 -149 0l-131 192q62 58 139 58l84 -146l143 146q42 0 76.5 -17t50.5 -41zM944 907h-536l-60 -280h447q0 -28 -18 -77.5t-46 -88.5h-418l-61 -297h532l-34 -164h-732l228 1073h731z" />
    <glyph glyph-name="ecircumflex.sc" horiz-adv-x="968" 
d="M541 1165q-82 0 -127 60l213 192q83 24 149 0l131 -192q-64 -60 -137 -60l-84 148zM944 907h-536l-60 -280h447q0 -28 -18 -77.5t-46 -88.5h-418l-61 -297h532l-34 -164h-732l228 1073h731z" />
    <glyph glyph-name="edieresis.sc" horiz-adv-x="968" 
d="M500 1202q-43 0 -71 25.5t-28 66.5q0 53 44.5 95.5t101.5 42.5q43 0 71.5 -26.5t28.5 -66.5q0 -54 -45 -95.5t-102 -41.5zM813 1202q-43 0 -71.5 25.5t-28.5 66.5q0 53 45 95.5t100 42.5q45 0 73.5 -27.5t26.5 -69.5q-1 -52 -45 -92.5t-100 -40.5zM944 907h-536l-60 -280
h447q0 -28 -18 -77.5t-46 -88.5h-418l-61 -297h532l-34 -164h-732l228 1073h731z" />
    <glyph glyph-name="edotaccent.sc" horiz-adv-x="968" 
d="M647 1214q-42 0 -69 26t-27 65q0 50 43 89.5t98 39.5q40 0 68 -25t28 -63q0 -51 -43.5 -91.5t-97.5 -40.5zM944 907h-536l-60 -280h447q0 -28 -18 -77.5t-46 -88.5h-418l-61 -297h532l-34 -164h-732l228 1073h731z" />
    <glyph glyph-name="egrave.sc" horiz-adv-x="968" 
d="M600 1151l-131 176q-23 38 -23 59q0 20 19.5 44.5t66.5 39.5l41 15l134 -287zM944 907h-536l-60 -280h447q0 -28 -18 -77.5t-46 -88.5h-418l-61 -297h532l-34 -164h-732l228 1073h731z" />
    <glyph glyph-name="emacron.sc" horiz-adv-x="968" 
d="M918 1393l-29 -154h-447l31 154h445zM944 907h-536l-60 -280h447q0 -28 -18 -77.5t-46 -88.5h-418l-61 -297h532l-34 -164h-732l228 1073h731z" />
    <glyph glyph-name="eogonek.sc" horiz-adv-x="968" 
d="M944 907h-536l-60 -280h447q0 -28 -18 -77.5t-46 -88.5h-418l-61 -297h532l-34 -164q-70 -41 -110 -85.5t-40 -84.5q0 -55 62 -55q33 0 73 16q15 -66 -4 -117q-26 -18 -113 -18q-73 0 -113 29t-40 88q0 68 46.5 127.5t117.5 99.5h-611l228 1073h731z" />
    <glyph glyph-name="f.sc" horiz-adv-x="931" 
d="M944 907h-536l-60 -280h447q0 -28 -18 -77.5t-46 -88.5h-418l-96 -461h-199l228 1073h731z" />
    <glyph glyph-name="g.sc" horiz-adv-x="1150" 
d="M709 924q-190 0 -320.5 -146t-130.5 -362q0 -130 73.5 -198t211.5 -68q147 0 272 67l57 258q44 37 101.5 46t103.5 -9l-76 -354q-94 -83 -221.5 -129.5t-273.5 -46.5q-209 0 -330 109t-121 304q0 142 53.5 270t144.5 220t218.5 146t269.5 54q141 0 243.5 -45.5
t156.5 -134.5q-75 -106 -162 -125q-30 69 -98.5 106.5t-171.5 37.5z" />
    <glyph glyph-name="gbreve.sc" horiz-adv-x="1150" 
d="M727 1182q-59 0 -104 15t-70.5 40t-42 57.5t-17.5 67t3 68.5q89 20 161 0q-6 -40 16.5 -76.5t82.5 -36.5q59 0 93 35t46 78q85 20 164 0q-10 -42 -35 -83.5t-64.5 -79.5t-100 -61.5t-132.5 -23.5zM709 924q-190 0 -320.5 -146t-130.5 -362q0 -130 73.5 -198t211.5 -68
q147 0 272 67l57 258q44 37 101.5 46t103.5 -9l-76 -354q-94 -83 -221.5 -129.5t-273.5 -46.5q-209 0 -330 109t-121 304q0 142 53.5 270t144.5 220t218.5 146t269.5 54q141 0 243.5 -45.5t156.5 -134.5q-75 -106 -162 -125q-30 69 -98.5 106.5t-171.5 37.5z" />
    <glyph glyph-name="uni0123.sc" horiz-adv-x="1150" 
d="M709 924q-190 0 -320.5 -146t-130.5 -362q0 -130 73.5 -198t211.5 -68q147 0 272 67l57 258q44 37 101.5 46t103.5 -9l-76 -354q-94 -83 -221.5 -129.5t-273.5 -46.5q-209 0 -330 109t-121 304q0 142 53.5 270t144.5 220t218.5 146t269.5 54q141 0 243.5 -45.5
t156.5 -134.5q-75 -106 -162 -125q-30 69 -98.5 106.5t-171.5 37.5zM635 -150v-2v-8q-4 -80 -71.5 -153.5t-149.5 -122.5q-47 3 -64 53q72 48 111 104q-30 7 -48 31t-18 55q0 50 44 91t98 41q42 0 69 -25t29 -64z" />
    <glyph glyph-name="gdotaccent.sc" horiz-adv-x="1150" 
d="M721 1214q-42 0 -69 26t-27 65q0 50 43 89.5t98 39.5q40 0 69 -25t29 -63q0 -51 -44.5 -91.5t-98.5 -40.5zM709 924q-190 0 -320.5 -146t-130.5 -362q0 -130 73.5 -198t211.5 -68q147 0 272 67l57 258q44 37 101.5 46t103.5 -9l-76 -354q-94 -83 -221.5 -129.5
t-273.5 -46.5q-209 0 -330 109t-121 304q0 142 53.5 270t144.5 220t218.5 146t269.5 54q141 0 243.5 -45.5t156.5 -134.5q-75 -106 -162 -125q-30 69 -98.5 106.5t-171.5 37.5z" />
    <glyph glyph-name="h.sc" horiz-adv-x="1161" 
d="M954 1073q106 21 199 0l-227 -1073h-197l96 463h-512l-96 -463h-199l228 1073q103 21 196 0l-94 -444h512z" />
    <glyph glyph-name="i.sc" horiz-adv-x="452" 
d="M217 0h-199l228 1073q103 21 196 0z" />
    <glyph glyph-name="iacute.sc" horiz-adv-x="450" 
d="M379 1149l-98 65l217 273l30 -17q70 -34 70 -79q0 -58 -92 -127zM217 0h-199l228 1073q103 21 196 0z" />
    <glyph glyph-name="icircumflex.sc" horiz-adv-x="452" 
d="M492 1417l131 -194q-62 -58 -140 -58l-82 146l-145 -146q-81 0 -127 58l215 194q80 23 148 0zM246 1073q103 21 196 0l-225 -1073h-199z" />
    <glyph glyph-name="idieresis.sc" horiz-adv-x="450" 
d="M215 1200q-42 0 -70 25.5t-28 66.5q0 53 45 95.5t100 42.5q44 0 72 -26.5t28 -66.5q0 -53 -44.5 -95t-102.5 -42zM528 1200q-43 0 -70.5 25.5t-27.5 66.5q0 53 44 95.5t99 42.5q45 0 74 -28t27 -67q-2 -53 -46.5 -94t-99.5 -41zM217 0h-199l228 1073q103 21 196 0z" />
    <glyph glyph-name="i.sc.loclTRK" horiz-adv-x="452" 
d="M362 1212q-41 0 -68.5 26.5t-27.5 64.5q0 50 43.5 90.5t98.5 40.5q41 0 69.5 -26.5t28.5 -64.5q0 -51 -45 -91t-99 -40zM217 0h-199l228 1073q103 21 196 0z" />
    <glyph glyph-name="igrave.sc" horiz-adv-x="450" 
d="M317 1149l-131 176q-24 33 -24 59q0 20 19.5 44.5t64.5 39.5l45 15l131 -287zM217 0h-199l228 1073q103 21 196 0z" />
    <glyph glyph-name="ij.sc" horiz-adv-x="1107" 
d="M217 0h-199l228 1073q103 21 196 0zM903 1073q104 21 197 0l-172 -815q-21 -96 -48.5 -161t-72 -113t-110 -70.5t-156.5 -22.5q-107 0 -195 43q20 113 80 162q83 -26 149 -26q56 0 93.5 40t52.5 115z" />
    <glyph glyph-name="imacron.sc" horiz-adv-x="452" 
d="M190 1391h443l-31 -154h-442zM217 0h-199l228 1073q103 21 196 0z" />
    <glyph glyph-name="iogonek.sc" horiz-adv-x="450" 
d="M217 0q-71 -41 -111 -85.5t-40 -84.5q0 -55 61 -55q37 0 74 16q15 -65 -2 -117q-26 -18 -115 -18q-73 0 -113.5 29.5t-40.5 87.5q0 67 47.5 127t118.5 100h-78l228 1073q106 21 196 0z" />
    <glyph glyph-name="j.sc" horiz-adv-x="684" 
d="M477 1073q103 21 199 0l-174 -815q-41 -196 -125.5 -281.5t-259.5 -85.5q-109 0 -197 43q20 112 80 162q86 -26 150 -26q56 0 94 40.5t53 114.5z" />
    <glyph glyph-name="k.sc" horiz-adv-x="1056" 
d="M1087 1073l-575 -528l395 -545h-231l-354 496l-105 -496h-199l228 1073q105 21 196 0l-94 -448l498 448q128 21 241 0z" />
    <glyph glyph-name="uni0137.sc" horiz-adv-x="1056" 
d="M1087 1073l-575 -528l395 -545h-231l-354 496l-105 -496h-199l228 1073q105 21 196 0l-94 -448l498 448q128 21 241 0zM561 -150v-2v-6q-2 -43 -24 -86.5t-56 -79.5t-68.5 -63.5t-70.5 -48.5q-48 6 -63 53q71 52 110 104q-30 7 -47.5 31t-17.5 55q0 50 43 91t98 41
q42 0 68 -25t28 -64z" />
    <glyph glyph-name="l.sc" horiz-adv-x="876" 
d="M252 164h502l-35 -164h-701l228 1073q103 21 196 0z" />
    <glyph glyph-name="lacute.sc" horiz-adv-x="876" 
d="M506 1266l-127 -117l-98 68l217 272l30 -16q70 -34 70 -80q0 -58 -92 -127zM252 164h502l-35 -164h-701l228 1073q103 21 196 0z" />
    <glyph glyph-name="lcaron.sc" horiz-adv-x="876" 
d="M444 1194q-83 -24 -149 0l-129 192q54 58 137 58l84 -146l143 146q81 0 127 -58zM252 164h502l-35 -164h-701l228 1073q103 21 196 0z" />
    <glyph glyph-name="uni013C.sc" horiz-adv-x="876" 
d="M252 164h502l-35 -164h-701l228 1073q103 21 196 0zM483 -150v-2v-6q-2 -43 -24 -86.5t-56 -79.5t-68.5 -63.5t-70.5 -48.5q-48 6 -63 53q67 43 110 104q-30 7 -47.5 31t-17.5 55q0 50 43.5 91t97.5 41q42 0 68 -25t28 -64z" />
    <glyph glyph-name="lslash.sc" horiz-adv-x="876" 
d="M252 164h502l-35 -164h-701l86 403l-147 -63q0 150 94 190l88 37l107 506q101 22 198 0l-86 -409l248 106q1 -85 -25 -129.5t-83 -69.5l-176 -75z" />
    <glyph glyph-name="m.sc" horiz-adv-x="1392" 
d="M1124 1073q132 22 260 0l-227 -1073h-196l100 461l84 350l-461 -733q-62 -25 -158 0l-147 731l-62 -348l-100 -461h-199l228 1073q135 22 260 0l153 -723z" />
    <glyph glyph-name="n.sc" horiz-adv-x="1224" 
d="M1020 1073h197l-228 -1073q-102 -24 -196 0l-418 791l-31 -220l-127 -571h-199l228 1073q105 21 196 0l414 -811l21 154z" />
    <glyph glyph-name="nacute.sc" horiz-adv-x="1224" 
d="M899 1266l-127 -117l-98 68l215 272l33 -16q69 -33 69 -80q0 -57 -92 -127zM1020 1073h197l-228 -1073q-102 -24 -196 0l-418 791l-31 -220l-127 -571h-199l228 1073q105 21 196 0l414 -811l21 154z" />
    <glyph glyph-name="ncaron.sc" horiz-adv-x="1224" 
d="M838 1194q-83 -24 -150 0l-129 192q54 58 137 58l84 -146l144 146q84 0 127 -58zM1020 1073h197l-228 -1073q-102 -24 -196 0l-418 791l-31 -220l-127 -571h-199l228 1073q105 21 196 0l414 -811l21 154z" />
    <glyph glyph-name="uni0146.sc" horiz-adv-x="1224" 
d="M1020 1073h197l-228 -1073q-102 -24 -196 0l-418 791l-31 -220l-127 -571h-199l228 1073q105 21 196 0l414 -811l21 154zM524 -61q43 0 71 -26.5t28 -64.5q0 -5 -5 -30q-12 -73 -76.5 -140t-140.5 -114q-44 3 -61 53q68 46 109 104q-29 8 -47.5 31.5t-18.5 54.5
q0 50 43.5 91t97.5 41z" />
    <glyph glyph-name="eng.sc" horiz-adv-x="1224" 
d="M1217 1073l-228 -1073q-20 -93 -50 -151.5t-87 -100t-144.5 -59t-220.5 -17.5q28 104 95 164q56 0 84.5 4t55 21.5t41 50.5t28.5 92l-416 787l-31 -220l-127 -571h-199l228 1073q105 21 196 0l414 -811l21 154l143 657h197z" />
    <glyph glyph-name="ntilde.sc" horiz-adv-x="1224" 
d="M696 1290q-30 0 -51 -22.5t-27 -61.5q-47 0 -116 15q20 95 71 146.5t119 51.5q50 0 107 -33.5t98 -33.5q24 0 42.5 22.5t23.5 55.5q64 0 116 -17q-18 -92 -65.5 -144t-108.5 -52q-43 0 -81 18.5t-69.5 36.5t-58.5 18zM1020 1073h197l-228 -1073q-102 -24 -196 0l-418 791
l-31 -220l-127 -571h-199l228 1073q105 21 196 0l414 -811l21 154z" />
    <glyph glyph-name="o.sc" horiz-adv-x="1214" 
d="M496 -16q-206 0 -323.5 109t-117.5 302q0 143 53 271.5t143 221.5t215.5 147.5t264.5 54.5q206 0 323 -107.5t117 -298.5q0 -143 -53 -273t-143 -223.5t-215 -148.5t-264 -55zM528 150q123 0 224.5 68.5t159 186t57.5 257.5q0 127 -70 194.5t-201 67.5
q-187 0 -313.5 -147t-126.5 -361q0 -129 69.5 -197.5t200.5 -68.5z" />
    <glyph glyph-name="oacute.sc" horiz-adv-x="1214" 
d="M762 1149l-98 68l217 272l30 -16q70 -34 70 -80q0 -56 -92 -127zM496 -16q-206 0 -323.5 109t-117.5 302q0 143 53 271.5t143 221.5t215.5 147.5t264.5 54.5q206 0 323 -107.5t117 -298.5q0 -143 -53 -273t-143 -223.5t-215 -148.5t-264 -55zM528 150q123 0 224.5 68.5
t159 186t57.5 257.5q0 127 -70 194.5t-201 67.5q-187 0 -313.5 -147t-126.5 -361q0 -129 69.5 -197.5t200.5 -68.5z" />
    <glyph glyph-name="ocircumflex.sc" horiz-adv-x="1214" 
d="M639 1165q-79 0 -127 60l213 192q81 23 149 0l132 -192q-64 -60 -138 -60l-84 148zM731 1090q206 0 323 -107.5t117 -298.5q0 -143 -53 -273t-143 -223.5t-215 -148.5t-264 -55q-206 0 -323.5 109t-117.5 302q0 143 53 271.5t143 221.5t215.5 147.5t264.5 54.5zM528 150
q123 0 224.5 68.5t159 186t57.5 257.5q0 127 -70 194.5t-201 67.5q-187 0 -313.5 -147t-126.5 -361q0 -129 69.5 -197.5t200.5 -68.5z" />
    <glyph glyph-name="odieresis.sc" horiz-adv-x="1214" 
d="M598 1202q-43 0 -70.5 25.5t-27.5 66.5q0 53 44 95.5t101 42.5q43 0 71.5 -26.5t28.5 -66.5q0 -54 -45 -95.5t-102 -41.5zM911 1202q-43 0 -71.5 25.5t-28.5 66.5q0 53 45 95.5t102 42.5q44 0 72.5 -28t26.5 -69q-1 -52 -45.5 -92.5t-100.5 -40.5zM496 -16
q-206 0 -323.5 109t-117.5 302q0 143 53 271.5t143 221.5t215.5 147.5t264.5 54.5q206 0 323 -107.5t117 -298.5q0 -143 -53 -273t-143 -223.5t-215 -148.5t-264 -55zM528 150q123 0 224.5 68.5t159 186t57.5 257.5q0 127 -70 194.5t-201 67.5q-187 0 -313.5 -147
t-126.5 -361q0 -129 69.5 -197.5t200.5 -68.5z" />
    <glyph glyph-name="ograve.sc" horiz-adv-x="1214" 
d="M700 1151l-131 176q-24 34 -24 59q0 21 20.5 44.5t63.5 39.5l45 15l131 -287zM496 -16q-206 0 -323.5 109t-117.5 302q0 143 53 271.5t143 221.5t215.5 147.5t264.5 54.5q206 0 323 -107.5t117 -298.5q0 -143 -53 -273t-143 -223.5t-215 -148.5t-264 -55zM528 150
q123 0 224.5 68.5t159 186t57.5 257.5q0 127 -70 194.5t-201 67.5q-187 0 -313.5 -147t-126.5 -361q0 -129 69.5 -197.5t200.5 -68.5z" />
    <glyph glyph-name="ohungarumlaut.sc" horiz-adv-x="1214" 
d="M629 1135l-111 43l148 311l34 -8q37 -8 59 -26t27 -36q10 -58 -63 -145zM850 1135l-90 75l246 250l30 -18q63 -42 60 -86q-3 -56 -105 -117zM496 -16q-206 0 -323.5 109t-117.5 302q0 143 53 271.5t143 221.5t215.5 147.5t264.5 54.5q206 0 323 -107.5t117 -298.5
q0 -143 -53 -273t-143 -223.5t-215 -148.5t-264 -55zM528 150q123 0 224.5 68.5t159 186t57.5 257.5q0 127 -70 194.5t-201 67.5q-187 0 -313.5 -147t-126.5 -361q0 -129 69.5 -197.5t200.5 -68.5z" />
    <glyph glyph-name="omacron.sc" horiz-adv-x="1214" 
d="M571 1393h445l-31 -154h-444zM496 -16q-206 0 -323.5 109t-117.5 302q0 143 53 271.5t143 221.5t215.5 147.5t264.5 54.5q206 0 323 -107.5t117 -298.5q0 -143 -53 -273t-143 -223.5t-215 -148.5t-264 -55zM528 150q123 0 224.5 68.5t159 186t57.5 257.5q0 127 -70 194.5
t-201 67.5q-187 0 -313.5 -147t-126.5 -361q0 -129 69.5 -197.5t200.5 -68.5z" />
    <glyph glyph-name="oslash.sc" horiz-adv-x="1214" 
d="M1087 948q84 -105 84 -264q0 -143 -53 -273t-143 -223.5t-215 -148.5t-264 -55q-146 0 -254 57l-54 -57q-68 0 -122 71l71 76q-82 105 -82 264q0 143 53 271.5t143 221.5t215.5 147.5t264.5 54.5q141 0 246 -54l49 54q77 -8 123 -74zM258 416q0 -68 23 -129l563 608
q-63 29 -146 29q-187 0 -313.5 -147t-126.5 -361zM528 150q123 0 224.5 68.5t159 186t57.5 257.5q0 78 -27 133l-567 -611q61 -34 153 -34z" />
    <glyph glyph-name="otilde.sc" horiz-adv-x="1214" 
d="M608 1206q-45 0 -114 15q17 94 68 146t118 52q51 0 109 -33.5t98 -33.5q24 0 41.5 21.5t23.5 56.5q65 0 117 -17q-18 -92 -66.5 -144t-109.5 -52q-42 0 -80.5 18.5t-70 36.5t-56.5 18q-30 0 -52 -23t-26 -61zM496 -16q-206 0 -323.5 109t-117.5 302q0 143 53 271.5
t143 221.5t215.5 147.5t264.5 54.5q206 0 323 -107.5t117 -298.5q0 -143 -53 -273t-143 -223.5t-215 -148.5t-264 -55zM528 150q123 0 224.5 68.5t159 186t57.5 257.5q0 127 -70 194.5t-201 67.5q-187 0 -313.5 -147t-126.5 -361q0 -129 69.5 -197.5t200.5 -68.5z" />
    <glyph glyph-name="oe.sc" horiz-adv-x="1697" 
d="M1675 911h-536l-62 -284h447q-22 -104 -64 -164h-418l-63 -301h532l-32 -162h-731q-109 -16 -222 -16q-221 0 -346 110.5t-125 306.5q0 190 93 348t255.5 249.5t358.5 91.5q145 0 235 -17h709zM559 150q133 0 225 28l150 699q-73 49 -205 49q-206 0 -340.5 -142
t-134.5 -360q0 -133 78.5 -203.5t226.5 -70.5z" />
    <glyph glyph-name="p.sc" horiz-adv-x="964" 
d="M567 1090q98 0 173 -25.5t118 -69t64.5 -96t21.5 -111.5q0 -127 -71.5 -230.5t-193.5 -160.5t-269 -57h-123l-72 -340h-197l226 1057q219 33 323 33zM426 504q145 0 234.5 74.5t89.5 183.5q0 82 -58.5 124t-171.5 42q-53 0 -108 -10l-90 -414h104z" />
    <glyph glyph-name="thorn.sc" horiz-adv-x="962" 
d="M565 907q152 0 246 -83.5t94 -213.5q0 -124 -70 -226t-183 -157t-242 -55h-156l-37 -172h-199l228 1073q105 21 196 0l-34 -166h157zM391 336q139 0 228.5 71t89.5 181q0 74 -59 114.5t-169 40.5h-108l-86 -407h104z" />
    <glyph glyph-name="q.sc" horiz-adv-x="1214" 
d="M1171 684q0 -167 -69.5 -312.5t-190.5 -242.5l103 -160q-26 -45 -69.5 -69.5t-94.5 -24.5l-102 158q-123 -49 -252 -49q-206 0 -323.5 109t-117.5 302q0 143 53 271.5t143 221.5t215.5 147.5t264.5 54.5q206 0 323 -107.5t117 -298.5zM528 150q67 0 131 22l-102 160
q27 46 70 72t90 26l100 -158q72 72 112 173.5t40 216.5q0 127 -70 194.5t-201 67.5q-187 0 -313.5 -147t-126.5 -361q0 -129 69.5 -197.5t200.5 -68.5z" />
    <glyph glyph-name="r.sc" horiz-adv-x="1015" 
d="M950 813q0 -127 -74.5 -225.5t-195.5 -147.5l188 -440h-217l-159 403h-7h-184l-86 -403h-197l226 1057q210 33 323 33q190 0 286.5 -80t96.5 -197zM412 920l-76 -353h108q143 0 226.5 56t83.5 151q0 154 -234 154q-42 0 -108 -8z" />
    <glyph glyph-name="racute.sc" horiz-adv-x="1015" 
d="M737 1266l-127 -117l-98 68l217 272l31 -16q69 -34 69 -80q0 -57 -92 -127zM950 813q0 -127 -74.5 -225.5t-195.5 -147.5l188 -440h-217l-159 403h-7h-184l-86 -403h-197l226 1057q210 33 323 33q190 0 286.5 -80t96.5 -197zM412 920l-76 -353h108q143 0 226.5 56
t83.5 151q0 154 -234 154q-42 0 -108 -8z" />
    <glyph glyph-name="rcaron.sc" horiz-adv-x="1015" 
d="M676 1194q-85 -23 -150 0l-131 192q58 58 137 58l84 -146l146 146q81 0 127 -58zM950 813q0 -127 -74.5 -225.5t-195.5 -147.5l188 -440h-217l-159 403h-7h-184l-86 -403h-197l226 1057q210 33 323 33q190 0 286.5 -80t96.5 -197zM412 920l-76 -353h108q143 0 226.5 56
t83.5 151q0 154 -234 154q-42 0 -108 -8z" />
    <glyph glyph-name="uni0157.sc" horiz-adv-x="1015" 
d="M950 813q0 -127 -74.5 -225.5t-195.5 -147.5l188 -440h-217l-159 403h-7h-184l-86 -403h-197l226 1057q210 33 323 33q190 0 286.5 -80t96.5 -197zM412 920l-76 -353h108q143 0 226.5 56t83.5 151q0 154 -234 154q-42 0 -108 -8zM530 -150v-2v-6q-4 -82 -71.5 -156
t-149.5 -122q-44 3 -61 53q70 47 110 104q-30 7 -48.5 31t-18.5 55q0 50 43.5 91t97.5 41q43 0 69.5 -25t28.5 -64z" />
    <glyph glyph-name="s.sc" horiz-adv-x="940" 
d="M834 872q-124 62 -254 62q-109 0 -161 -37t-52 -96q0 -48 42.5 -87t159.5 -100q126 -66 179 -128t53 -136q0 -164 -129.5 -267t-335.5 -103q-180 0 -330 69q-6 40 9 90t46 90q172 -86 308 -86q108 0 168.5 43t62.5 119q0 56 -34.5 96.5t-125.5 85.5q-144 70 -209 132
t-65 155q0 148 117.5 234t328.5 86q145 0 275 -50q12 -28 -6.5 -81.5t-46.5 -90.5z" />
    <glyph glyph-name="sacute.sc" horiz-adv-x="940" 
d="M625 1149l-99 68l217 272l31 -16q70 -34 70 -80q0 -57 -92 -127zM834 872q-124 62 -254 62q-109 0 -161 -37t-52 -96q0 -48 42.5 -87t159.5 -100q126 -66 179 -128t53 -136q0 -164 -129.5 -267t-335.5 -103q-180 0 -330 69q-6 40 9 90t46 90q172 -86 308 -86
q108 0 168.5 43t62.5 119q0 56 -34.5 96.5t-125.5 85.5q-144 70 -209 132t-65 155q0 148 117.5 234t328.5 86q145 0 275 -50q12 -28 -6.5 -81.5t-46.5 -90.5z" />
    <glyph glyph-name="scaron.sc" horiz-adv-x="940" 
d="M690 1194q-83 -24 -149 0l-131 192q62 58 139 58l84 -146l143 146q84 0 127 -58zM612 1094q145 0 275 -50q12 -28 -6.5 -81.5t-46.5 -90.5q-124 62 -254 62q-109 0 -161 -37t-52 -96q0 -48 42.5 -87t159.5 -100q126 -66 179 -128t53 -136q0 -164 -129.5 -267t-335.5 -103
q-180 0 -330 69q-6 40 9 90t46 90q172 -86 308 -86q108 0 168.5 43t62.5 119q0 56 -34.5 96.5t-125.5 85.5q-144 70 -209 132t-65 155q0 148 117.5 234t328.5 86z" />
    <glyph glyph-name="scedilla.sc" horiz-adv-x="940" 
d="M580 934q-109 0 -161 -37t-52 -96q0 -48 42.5 -87t159.5 -100q126 -66 179 -128t53 -136q0 -148 -107.5 -247.5t-285.5 -118.5l-70 -86q10 2 29 2q61 0 95 -25.5t34 -75.5q0 -51 -28 -89t-70.5 -57t-82 -27.5t-73.5 -8.5q-46 0 -123 10q0 52 20 97q83 -19 129 -19
q49 0 82 20t33 48q0 43 -88 43q-23 0 -64 -6q-28 24 -28 55l96 115q-164 10 -293 69q-6 40 9 90t46 90q172 -86 308 -86q108 0 168.5 43t62.5 119q0 56 -34.5 96.5t-125.5 85.5q-144 70 -209 132t-65 155q0 148 117.5 234t328.5 86q145 0 275 -50q12 -28 -6.5 -81.5
t-46.5 -90.5q-124 62 -254 62z" />
    <glyph glyph-name="uni0219.sc" horiz-adv-x="940" 
d="M580 934q-109 0 -161 -37t-52 -96q0 -48 42.5 -87t159.5 -100q126 -66 179 -128t53 -136q0 -164 -129.5 -267t-335.5 -103q-180 0 -330 69q-6 40 9 90t46 90q172 -86 308 -86q108 0 168.5 43t62.5 119q0 56 -34.5 96.5t-125.5 85.5q-144 70 -209 132t-65 155
q0 148 117.5 234t328.5 86q145 0 275 -50q12 -28 -6.5 -81.5t-46.5 -90.5q-124 62 -254 62zM469 -150q1 -82 -67 -159t-152 -127q-46 3 -66 53q72 46 113 104q-30 9 -48 32.5t-18 53.5q0 49 43.5 90.5t96.5 41.5q43 0 69.5 -25t28.5 -64z" />
    <glyph glyph-name="germandbls.sc" horiz-adv-x="1249" 
d="M885 623q103 -40 174 -118t71 -155q0 -183 -124 -276.5t-334 -93.5q-84 0 -136 8t-118 28q-3 103 53 181q149 -54 238 -54q105 0 164 44.5t59 117.5q0 65 -49 107.5t-185 91.5q-45 37 -30 121l239 260q-77 49 -215 49q-146 0 -237 -65t-119 -193l-146 -676
q-104 -24 -194 0l137 645q46 220 207.5 336.5t419.5 116.5q243 0 436 -135z" />
    <glyph glyph-name="t.sc" horiz-adv-x="944" 
d="M1016 1073q-18 -97 -51 -166h-308l-192 -907h-199l193 907h-326q6 78 53 166h830z" />
    <glyph glyph-name="tbar.sc" horiz-adv-x="946" 
d="M965 907h-308l-53 -248h236q-20 -69 -59 -117t-97 -48h-115l-104 -494h-199l105 494h-250q34 80 72.5 122.5t103.5 42.5h109l53 248h-326q6 73 53 166h832q-24 -108 -53 -166z" />
    <glyph glyph-name="tcaron.sc" horiz-adv-x="944" 
d="M692 1192q-82 -23 -149 0l-131 192q60 60 139 60l84 -148l143 148q82 0 127 -60zM1016 1073q-18 -97 -51 -166h-308l-192 -907h-199l193 907h-326q6 78 53 166h830z" />
    <glyph glyph-name="uni0163.sc" horiz-adv-x="944" 
d="M465 0h-33l-84 -102q10 2 29 2q61 0 95 -25.5t34 -75.5q0 -51 -28 -89t-71.5 -57t-83 -27.5t-73.5 -8.5q-59 0 -121 10q0 53 21 97q80 -19 124 -19q50 0 84.5 20t34.5 48q0 43 -90 43q-23 0 -63 -6q-30 25 -27 55l111 135h-58l193 907h-326q6 78 53 166h832
q-23 -104 -53 -166h-308z" />
    <glyph glyph-name="uni021B.sc" horiz-adv-x="944" 
d="M1016 1073q-18 -97 -51 -166h-308l-192 -907h-199l193 907h-326q6 78 53 166h830zM477 -150q1 -44 -20.5 -89.5t-56.5 -82.5t-70.5 -64.5t-71.5 -49.5q-48 6 -63 53q72 46 110 104q-29 7 -46 31t-17 55q0 50 42.5 91t96.5 41q42 0 68 -25t28 -64z" />
    <glyph glyph-name="u.sc" horiz-adv-x="1105" 
d="M442 -16q-214 0 -308.5 115t-47.5 333l137 641q104 21 195 0l-139 -657q-25 -115 26 -183.5t170 -68.5q113 0 199.5 66.5t111.5 185.5l142 657q101 21 194 0l-137 -641q-46 -214 -187.5 -331t-355.5 -117z" />
    <glyph glyph-name="uacute.sc" horiz-adv-x="1105" 
d="M707 1149l-99 65l217 273l33 -17q68 -33 68 -79q0 -59 -90 -127zM442 -16q-214 0 -308.5 115t-47.5 333l137 641q104 21 195 0l-139 -657q-25 -115 26 -183.5t170 -68.5q113 0 199.5 66.5t111.5 185.5l142 657q101 21 194 0l-137 -641q-46 -214 -187.5 -331t-355.5 -117z
" />
    <glyph glyph-name="ucircumflex.sc" horiz-adv-x="1105" 
d="M584 1165q-83 0 -127 58l215 194q82 20 147 0l131 -194q-58 -58 -137 -58l-84 146zM928 1073q101 21 194 0l-137 -641q-46 -214 -187.5 -331t-355.5 -117t-308.5 115t-47.5 333l137 641q104 21 195 0l-139 -657q-25 -115 26 -183.5t170 -68.5q113 0 199.5 66.5
t111.5 185.5z" />
    <glyph glyph-name="udieresis.sc" horiz-adv-x="1105" 
d="M543 1200q-43 0 -71 25.5t-28 66.5q0 53 44.5 95.5t101.5 42.5q43 0 71.5 -26.5t28.5 -66.5q0 -53 -45 -95t-102 -42zM856 1200q-43 0 -70.5 25.5t-27.5 66.5q0 54 44.5 96t100.5 42q44 0 72 -27t26 -68q-1 -53 -45.5 -94t-99.5 -41zM442 -16q-214 0 -308.5 115
t-47.5 333l137 641q104 21 195 0l-139 -657q-25 -115 26 -183.5t170 -68.5q113 0 199.5 66.5t111.5 185.5l142 657q101 21 194 0l-137 -641q-46 -214 -187.5 -331t-355.5 -117z" />
    <glyph glyph-name="ugrave.sc" horiz-adv-x="1105" 
d="M645 1149l-131 176q-25 35 -25 59q0 21 20.5 44.5t63.5 39.5l45 15l132 -287zM442 -16q-214 0 -308.5 115t-47.5 333l137 641q104 21 195 0l-139 -657q-25 -115 26 -183.5t170 -68.5q113 0 199.5 66.5t111.5 185.5l142 657q101 21 194 0l-137 -641q-46 -214 -187.5 -331
t-355.5 -117z" />
    <glyph glyph-name="uhungarumlaut.sc" horiz-adv-x="1105" 
d="M573 1133l-108 43l145 311l35 -8q75 -19 86 -62q12 -51 -61 -145zM797 1133l-92 77l245 248l31 -18q62 -41 59 -86q-6 -58 -104 -117zM442 -16q-214 0 -308.5 115t-47.5 333l137 641q104 21 195 0l-139 -657q-25 -115 26 -183.5t170 -68.5q113 0 199.5 66.5t111.5 185.5
l142 657q101 21 194 0l-137 -641q-46 -214 -187.5 -331t-355.5 -117z" />
    <glyph glyph-name="umacron.sc" horiz-adv-x="1105" 
d="M516 1391h445l-31 -154h-443zM442 -16q-214 0 -308.5 115t-47.5 333l137 641q104 21 195 0l-139 -657q-25 -115 26 -183.5t170 -68.5q113 0 199.5 66.5t111.5 185.5l142 657q101 21 194 0l-137 -641q-46 -214 -187.5 -331t-355.5 -117z" />
    <glyph glyph-name="uogonek.sc" horiz-adv-x="1105" 
d="M928 1073q101 21 194 0l-137 -641q-37 -173 -138.5 -284t-254.5 -148q-152 -88 -152 -170q0 -55 62 -55q33 0 73 16q15 -64 -2 -117q-26 -18 -114 -18q-73 0 -113.5 29.5t-40.5 87.5q0 61 38 115t99 96q-214 0 -308.5 115t-47.5 333l137 641q104 21 195 0l-139 -657
q-25 -115 26 -183.5t170 -68.5q113 0 199.5 66.5t111.5 185.5z" />
    <glyph glyph-name="uring.sc" horiz-adv-x="1105" 
d="M688 1178q-85 0 -134.5 39t-49.5 108q0 96 75.5 161.5t188.5 65.5q86 0 135 -39.5t49 -107.5q0 -97 -75 -162t-189 -65zM709 1270q44 0 74 37t30 90q0 61 -65 61q-44 0 -74.5 -35.5t-30.5 -87.5q0 -31 17.5 -48t48.5 -17zM442 -16q-214 0 -308.5 115t-47.5 333l137 641
q104 21 195 0l-139 -657q-25 -115 26 -183.5t170 -68.5q113 0 199.5 66.5t111.5 185.5l142 657q101 21 194 0l-137 -641q-46 -214 -187.5 -331t-355.5 -117z" />
    <glyph glyph-name="v.sc" horiz-adv-x="1042" 
d="M922 1073q111 25 215 0l-664 -1075q-121 -21 -225 0l-105 1075q111 25 215 0l54 -825z" />
    <glyph glyph-name="w.sc" horiz-adv-x="1542" 
d="M1423 1073q115 21 213 0l-536 -1075q-114 -19 -223 0l-68 770l-430 -770q-122 -20 -223 0l-15 1075q108 22 213 0l-12 -799l440 799q98 21 179 0l79 -805z" />
    <glyph glyph-name="wacute.sc" horiz-adv-x="1542" 
d="M1067 1266l-127 -117l-96 68l215 272l31 -16q69 -34 69 -80q0 -57 -92 -127zM1423 1073q115 21 213 0l-536 -1075q-114 -19 -223 0l-68 770l-430 -770q-122 -20 -223 0l-15 1075q108 22 213 0l-12 -799l440 799q98 21 179 0l79 -805z" />
    <glyph glyph-name="wcircumflex.sc" horiz-adv-x="1542" 
d="M817 1165q-79 0 -127 60l213 192q83 24 152 0l129 -192q-60 -60 -137 -60l-84 148zM1423 1073q115 21 213 0l-536 -1075q-114 -19 -223 0l-68 770l-430 -770q-122 -20 -223 0l-15 1075q108 22 213 0l-12 -799l440 799q98 21 179 0l79 -805z" />
    <glyph glyph-name="wdieresis.sc" horiz-adv-x="1542" 
d="M778 1202q-43 0 -71.5 25.5t-28.5 66.5q0 53 45 95.5t102 42.5q43 0 72 -26.5t29 -66.5q0 -54 -45.5 -95.5t-102.5 -41.5zM1090 1202q-43 0 -71 25.5t-28 66.5q0 53 44.5 95.5t101.5 42.5q43 0 71.5 -28t28.5 -69q-1 -52 -46 -92.5t-101 -40.5zM1423 1073q115 21 213 0
l-536 -1075q-114 -19 -223 0l-68 770l-430 -770q-122 -20 -223 0l-15 1075q108 22 213 0l-12 -799l440 799q98 21 179 0l79 -805z" />
    <glyph glyph-name="wgrave.sc" horiz-adv-x="1542" 
d="M879 1151l-131 176q-2 3 -7.5 12t-7.5 12.5t-5 10t-4 12t-1 12.5q0 21 20.5 44.5t65.5 39.5l43 15l131 -287zM1423 1073q115 21 213 0l-536 -1075q-114 -19 -223 0l-68 770l-430 -770q-122 -20 -223 0l-15 1075q108 22 213 0l-12 -799l440 799q98 21 179 0l79 -805z" />
    <glyph glyph-name="x.sc" horiz-adv-x="1161" 
d="M1153 1073l-469 -518l301 -555h-215l-221 412l-350 -412h-238l502 571l-270 502q112 26 213 0l194 -358l315 358q52 12 121.5 12t116.5 -12z" />
    <glyph glyph-name="y.sc" horiz-adv-x="980" 
d="M1077 1073l-514 -686l-82 -387h-196l90 426l-232 647q106 22 217 0l152 -469l348 469q115 21 217 0z" />
    <glyph glyph-name="yacute.sc" horiz-adv-x="980" 
d="M780 1266l-127 -117l-98 68l215 272l33 -16q69 -34 69 -80q0 -55 -92 -127zM1077 1073l-514 -686l-82 -387h-196l90 426l-232 647q106 22 217 0l152 -469l348 469q115 21 217 0z" />
    <glyph glyph-name="ycircumflex.sc" horiz-adv-x="980" 
d="M530 1165q-79 0 -127 60l213 192q83 24 150 0l131 -192q-64 -60 -139 -60l-84 148zM1077 1073l-514 -686l-82 -387h-196l90 426l-232 647q106 22 217 0l152 -469l348 469q115 21 217 0z" />
    <glyph glyph-name="ydieresis.sc" horiz-adv-x="980" 
d="M489 1202q-43 0 -70.5 25.5t-27.5 66.5q0 52 45 95t101 43q43 0 71.5 -26.5t28.5 -66.5q0 -54 -45.5 -95.5t-102.5 -41.5zM801 1202q-42 0 -70.5 25.5t-28.5 66.5q0 52 45 95t101 43q44 0 73 -28t27 -69q-2 -53 -46 -93t-101 -40zM1077 1073l-514 -686l-82 -387h-196
l90 426l-232 647q106 22 217 0l152 -469l348 469q115 21 217 0z" />
    <glyph glyph-name="ygrave.sc" horiz-adv-x="980" 
d="M590 1151l-131 176q-23 38 -23 59q0 23 21 45.5t65 38.5l41 15l133 -287zM1077 1073l-514 -686l-82 -387h-196l90 426l-232 647q106 22 217 0l152 -469l348 469q115 21 217 0z" />
    <glyph glyph-name="z.sc" horiz-adv-x="1097" 
d="M1004 1073q32 -15 52 -65.5t9 -108.5l-795 -731h650q0 -37 -11.5 -93t-21.5 -75h-805q-32 17 -52.5 65t-9.5 105l801 735h-616q-1 39 9.5 91t23.5 77h766z" />
    <glyph glyph-name="zacute.sc" horiz-adv-x="1097" 
d="M834 1264l-127 -115l-99 65l217 273l31 -17q68 -32 68 -79q0 -61 -90 -127zM1004 1073q32 -15 52 -65.5t9 -108.5l-795 -731h650q0 -37 -11.5 -93t-21.5 -75h-805q-32 17 -52.5 65t-9.5 105l801 735h-616q-1 39 9.5 91t23.5 77h766z" />
    <glyph glyph-name="zcaron.sc" horiz-adv-x="1097" 
d="M772 1192q-88 -22 -149 0l-131 192q64 60 137 60l84 -148l145 148q83 0 127 -60zM1004 1073q32 -15 52 -65.5t9 -108.5l-795 -731h650q0 -37 -11.5 -93t-21.5 -75h-805q-32 17 -52.5 65t-9.5 105l801 735h-616q-1 39 9.5 91t23.5 77h766z" />
    <glyph glyph-name="zdotaccent.sc" horiz-adv-x="1097" 
d="M688 1212q-41 0 -67.5 26t-26.5 65q0 50 43 90.5t98 40.5q40 0 68 -26.5t28 -64.5q0 -51 -43.5 -91t-99.5 -40zM1004 1073q32 -15 52 -65.5t9 -108.5l-795 -731h650q0 -37 -11.5 -93t-21.5 -75h-805q-32 17 -52.5 65t-9.5 105l801 735h-616q-1 39 9.5 91t23.5 77h766z
" />
    <glyph glyph-name="zero.osf" horiz-adv-x="976" 
d="M598 1022q-154 0 -281.5 -90.5t-200.5 -247.5t-73 -346q0 -171 89 -260.5t245 -89.5q154 0 282.5 91.5t202.5 250t74 348.5q0 170 -90.5 257t-247.5 87zM414 160q-86 0 -129 53t-43 152q0 131 42.5 242.5t116 177t160.5 65.5t131.5 -53t44.5 -152q0 -130 -43.5 -242
t-118 -177.5t-161.5 -65.5z" />
    <glyph glyph-name="one.osf" horiz-adv-x="827" 
d="M709 170q6 -91 -37 -170h-656q-6 86 37 170h230l125 584q-187 -56 -228 -56q-43 66 -22 148q200 99 426 176q13 -1 40.5 -25t30.5 -34l-168 -793h222z" />
    <glyph glyph-name="two.osf" horiz-adv-x="897" 
d="M844 778q0 -158 -153.5 -314.5t-418.5 -291.5h459q-26 -131 -55 -172h-608q-24 24 -38 85t-3 87l53 35q74 45 129 80t124.5 83t118 90t92.5 88t66.5 91t22.5 86q0 61 -45.5 92t-124.5 31q-114 0 -301 -107q-25 72 31 183q151 98 342 98q145 0 227 -61.5t82 -182.5z" />
    <glyph glyph-name="three.osf" horiz-adv-x="1044" 
d="M336 -166q-93 0 -187 37.5t-145 91.5q-57 -78 -57 -205q125 -100 366 -100q150 0 277.5 60.5t203.5 169t76 239.5q0 91 -47 154.5t-129 93.5q123 49 198 152.5t75 222.5q0 136 -91 211t-245 75q-233 0 -428 -129q-41 -104 -29 -186q205 139 385 139q97 0 151 -38.5
t54 -108.5q0 -125 -101 -192.5t-276 -65.5h-78q-31 -28 -55.5 -75.5t-24.5 -96.5h150q285 0 285 -191q0 -113 -95 -185.5t-233 -72.5z" />
    <glyph glyph-name="four.osf" horiz-adv-x="1130" 
d="M889 487h149q9 -82 -37 -172h-149l-68 -315h-204l67 315h-536q-29 17 -50 58.5t-24 85.5q190 234 480.5 542.5t424.5 419.5q38 0 79.5 -20t55.5 -43zM831 1110q-107 -105 -284.5 -294.5t-296.5 -328.5h448z" />
    <glyph glyph-name="five.osf" horiz-adv-x="993" 
d="M899 860h-395l-142 -299l162 -39q145 -36 222.5 -115.5t76.5 -199.5q0 -158 -80.5 -280.5t-219.5 -188.5t-310 -66q-150 0 -279 70q-4 45 7 90q13 59 51 92q137 -78 272 -78q153 0 247.5 83.5t98.5 224.5q2 88 -65.5 143t-218.5 84l-88 16q-40 21 -70 60.5t-23 74.5
l234 500h620q-25 -94 -100 -172z" />
    <glyph glyph-name="six.osf" horiz-adv-x="1124" 
d="M766 1245q-158 0 -276 -117.5t-171 -324.5q143 90 328 90q184 0 281.5 -103.5t97.5 -277.5q0 -237 -153.5 -384.5t-383.5 -147.5q-182 0 -294.5 127.5t-112.5 359.5q0 273 91.5 491.5t252 340.5t358.5 122q106 0 175 -21t139 -73q3 -88 -43 -172q-72 48 -133.5 69
t-155.5 21zM561 731q-54 0 -128.5 -22t-141.5 -68q-8 -65 -8 -152q0 -165 67 -252t187 -87q124 0 205 83.5t81 231.5q0 120 -63 193t-199 73z" />
    <glyph glyph-name="seven.osf" horiz-adv-x="976" 
d="M965 1032q50 -80 32 -174l-796 -1165q-117 -26 -209 0q8 31 358.5 530.5t462.5 636.5h-690q-7 89 37 172h805z" />
    <glyph glyph-name="eight.osf" horiz-adv-x="1077" 
d="M776 733q103 -65 154.5 -138t52.5 -167q0 -127 -78.5 -231t-206 -160.5t-272.5 -56.5q-114 0 -200.5 33t-139.5 106.5t-53 181.5q0 134 104.5 255t247.5 167q-152 111 -152 278q0 116 69.5 214t180.5 152t236 54q151 0 248 -76.5t98 -216.5q1 -115 -85.5 -228.5
t-203.5 -166.5zM684 1257q-111 0 -183.5 -61.5t-72.5 -165.5q0 -68 47 -119t164 -106q95 36 161 115t66 163q1 86 -48 130t-134 44zM471 158q126 0 209.5 63t83.5 162q0 164 -225 258q-112 -26 -201.5 -111.5t-89.5 -181.5q-1 -98 60.5 -144t162.5 -46z" />
    <glyph glyph-name="nine.osf" horiz-adv-x="1114" 
d="M639 1032q178 0 288.5 -118.5t110.5 -333.5q0 -265 -91.5 -478t-252 -331.5t-358.5 -118.5q-104 0 -173 21t-138 71q-6 88 41 174q70 -48 132 -69t156 -21q149 0 264 105.5t173 289.5q-144 -78 -318 -78q-182 0 -278.5 97t-98.5 262q0 144 71.5 265t196.5 192t275 71z
M561 305q53 0 127 20.5t139 65.5q11 97 11 166q0 149 -64.5 226t-181.5 77q-123 0 -208 -89t-85 -218q0 -112 63 -180t199 -68z" />
    <glyph glyph-name="zero.dnom" horiz-adv-x="866" 
d="M514 887q-123 0 -227.5 -81.5t-165 -220t-60.5 -300.5q0 -146 69.5 -220.5t191.5 -74.5q121 0 225.5 82t165.5 221.5t61 300.5q0 144 -69 218.5t-191 74.5zM352 141q-108 0 -108 150q0 108 34 211.5t90 168t115 64.5q107 0 107 -147q0 -107 -34.5 -211.5t-90 -170
t-113.5 -65.5z" />
    <glyph glyph-name="one.dnom" horiz-adv-x="788" 
d="M631 150q6 -81 -29 -150h-575q-4 83 28 150h205l109 501q-163 -47 -197 -47q-18 26 -26 52.5t-9 70.5q201 98 385 160q12 -1 36 -22.5t26 -30.5l-146 -684h193z" />
    <glyph glyph-name="two.dnom" horiz-adv-x="817" 
d="M735 659q0 -75 -40.5 -150.5t-111 -140t-153.5 -118t-178 -98.5h395q-18 -106 -49 -152h-555q-13 21 -21.5 73.5t-3.5 78.5l48 28q57 34 92.5 55.5t93 58.5t94 64.5t80.5 66t69 70.5t42.5 69t17.5 71q0 98 -133 98q-112 0 -281 -102q-9 35 -4.5 76t29.5 94q134 86 291 86
q133 0 205.5 -58.5t72.5 -169.5z" />
    <glyph glyph-name="three.dnom" horiz-adv-x="823" 
d="M291 139q-66 0 -134 28t-106 69q-45 -66 -45 -177q90 -73 264 -73q159 0 274 90.5t115 220.5q0 56 -29.5 96.5t-82.5 61.5q78 35 125 98t47 133q0 93 -65.5 147t-178.5 54q-167 0 -299 -82q-33 -91 -26 -162q141 90 264 90q61 0 96 -20t35 -56q0 -71 -64.5 -104
t-169.5 -31h-53q-25 -22 -44 -63.5t-19 -83.5h108q176 0 176 -105q0 -54 -54.5 -92.5t-133.5 -38.5z" />
    <glyph glyph-name="four.dnom" horiz-adv-x="743" 
d="M657 831l-106 -491h100q-3 -71 -35 -147h-98l-41 -193h-178l41 193h-360q-49 29 -66 120q118 135 307.5 304.5t317.5 269.5q34 0 67.5 -17.5t50.5 -38.5zM444 612q-208 -168 -321 -272h262z" />
    <glyph glyph-name="five.dnom" horiz-adv-x="790" 
d="M682 723h-289l-71 -143l116 -27q101 -22 157 -81.5t56 -147.5q1 -150 -121 -244t-309 -94q-51 0 -114.5 13t-108.5 38q-5 41 4 78q9 48 43 78q100 -56 215 -56q95 0 152 39.5t57 104.5q0 58 -47.5 96t-140.5 51l-74 12q-30 16 -56.5 49.5t-21.5 61.5l156 321h473
q-1 -36 -18.5 -69.5t-57.5 -79.5z" />
    <glyph glyph-name="six.dnom" horiz-adv-x="864" 
d="M545 735q-92 0 -162 -54t-107 -151q78 37 193 37q126 0 196 -64t70 -173q0 -140 -111 -242t-272 -102q-129 0 -209 81.5t-80 223.5q0 262 139 429t353 167q72 0 122.5 -15t98.5 -49q6 -72 -33 -145q-53 31 -94 44t-104 13zM395 430q-85 0 -151 -45q-4 -46 -4 -74
q0 -85 40 -132.5t113 -47.5q69 0 118.5 47.5t49.5 112.5q0 62 -41 100.5t-125 38.5z" />
    <glyph glyph-name="seven.dnom" horiz-adv-x="831" 
d="M776 872q39 -59 39 -145l-534 -727q-91 -20 -183 0q6 21 225.5 310t321.5 413h-483q-5 68 28 149h586z" />
    <glyph glyph-name="eight.dnom" horiz-adv-x="854" 
d="M578 467q129 -84 129 -184q2 -83 -53 -152t-145.5 -107t-193.5 -38q-135 0 -210.5 56.5t-75.5 156.5q0 79 68 150.5t163 103.5q-96 72 -96 172q0 110 104 186t240 76q110 0 180.5 -48t71.5 -132q0 -70 -53 -137.5t-129 -102.5zM479 752q-64 0 -105.5 -29.5t-41.5 -75.5
q0 -34 27.5 -58t105.5 -59q55 21 89 57t34 79q0 38 -30 62t-79 24zM352 133q71 0 118.5 32.5t47.5 78.5q0 78 -129 137q-71 -14 -121.5 -56t-50.5 -89q0 -49 37 -76t98 -27z" />
    <glyph glyph-name="nine.dnom" horiz-adv-x="864" 
d="M481 887q127 0 207 -81.5t80 -223.5q0 -262 -139 -429t-353 -167q-71 0 -120.5 14t-100.5 49q-6 71 33 146q53 -30 95 -44t104 -14q92 0 161.5 54t106.5 151q-78 -37 -190 -37q-126 0 -197.5 64.5t-71.5 173.5q0 141 112 242.5t273 101.5zM436 442q85 0 152 45q4 46 4 74
q0 86 -40 132t-114 46q-69 0 -117.5 -46t-48.5 -111q0 -62 40 -101t124 -39z" />
    <glyph glyph-name="zero.numr" horiz-adv-x="866" 
d="M614 1354q-123 0 -227 -81.5t-164.5 -220t-60.5 -300.5q0 -147 68.5 -221t189.5 -74q122 0 226.5 82t166 221.5t61.5 300.5q0 144 -69 218.5t-191 74.5zM451 606q-107 0 -107 150q0 109 34.5 212.5t90 167.5t113.5 64q108 0 108 -147q0 -107 -34 -211.5t-90 -170
t-115 -65.5z" />
    <glyph glyph-name="one.numr" horiz-adv-x="811" 
d="M719 614q6 -78 -29 -147h-563q-3 78 29 147h204l109 504q-163 -47 -197 -47q-18 25 -25.5 51.5t-8.5 71.5q170 84 385 160q12 -1 35.5 -24t25.5 -32l-147 -684h182z" />
    <glyph glyph-name="two.numr" horiz-adv-x="817" 
d="M834 1124q0 -75 -41 -150t-111 -139.5t-153.5 -118t-178.5 -98.5h395q-18 -105 -49 -151h-555q-13 20 -21 72.5t-3 78.5l47 27q58 34 93.5 56t93 59.5t94 65t80 66t68.5 70.5t42.5 69t17.5 71q0 96 -133 96q-107 0 -280 -100q-8 33 -4 75.5t28 94.5q138 86 291 86
q134 0 206.5 -58.5t72.5 -171.5z" />
    <glyph glyph-name="three.numr" horiz-adv-x="823" 
d="M389 606q-66 0 -133.5 27.5t-105.5 66.5q-46 -67 -46 -174q86 -71 265 -71q160 0 274.5 90t114.5 219q0 114 -113 158q78 34 125 97t47 134q0 92 -66 146.5t-178 54.5q-162 0 -299 -82q-33 -94 -26 -162q147 90 264 90q61 0 96 -20t35 -58q0 -70 -64.5 -102.5
t-168.5 -30.5h-54q-25 -22 -44 -63.5t-19 -83.5h108q177 0 177 -105q0 -54 -55 -92.5t-134 -38.5z" />
    <glyph glyph-name="four.numr" horiz-adv-x="743" 
d="M756 1298l-107 -493h101q-3 -80 -35 -148h-99l-41 -190h-178l41 190h-360q-51 33 -64 121q116 135 300 299.5t323 276.5q34 0 68 -17.5t51 -38.5zM543 1079q-258 -214 -322 -274h262z" />
    <glyph glyph-name="five.numr" horiz-adv-x="792" 
d="M782 1190h-288l-72 -143l117 -27q100 -24 156.5 -83.5t56.5 -145.5q1 -151 -121 -243.5t-309 -92.5q-55 0 -118.5 11.5t-105.5 35.5q-4 42 4 80q5 43 43 77q37 -22 94.5 -39.5t118.5 -17.5q96 0 153.5 40.5t57.5 105.5q0 117 -190 147l-72 12q-30 14 -57 47.5t-23 63.5
l156 321h475q-1 -38 -18.5 -71t-57.5 -78z" />
    <glyph glyph-name="six.numr" horiz-adv-x="864" 
d="M645 1200q-92 0 -161.5 -54t-106.5 -151q77 39 192 39q126 0 196.5 -65t70.5 -174q0 -140 -111 -240t-272 -100q-129 0 -209 80.5t-80 222.5q0 261 139 428.5t352 167.5q73 0 123.5 -15t98.5 -49q6 -72 -33 -145q-51 29 -93 42t-106 13zM496 895q-86 0 -152 -43
q-4 -50 -4 -76q0 -85 40.5 -131.5t113.5 -46.5q69 0 118.5 47.5t49.5 110.5t-40.5 101t-125.5 38z" />
    <glyph glyph-name="seven.numr" horiz-adv-x="794" 
d="M903 1339q48 -57 51 -145l-575 -727q-99 -19 -182 0q6 20 236.5 302.5t350.5 420.5h-524q-3 72 29 149h614z" />
    <glyph glyph-name="eight.numr" horiz-adv-x="854" 
d="M678 934q126 -86 129 -184q2 -82 -53 -151.5t-145.5 -107.5t-192.5 -38q-135 0 -211 56.5t-76 156.5q0 77 67.5 149.5t161.5 104.5q-94 70 -94 172q0 108 104 185t240 77q110 0 180 -48.5t70 -131.5q1 -69 -52 -137t-128 -103zM578 1219q-64 0 -105 -30t-41 -77
q0 -33 27.5 -57.5t105.5 -57.5q55 21 89 57t34 79q0 39 -29.5 62.5t-80.5 23.5zM451 600q72 0 118.5 32t46.5 79q0 80 -131 137q-68 -14 -118 -56.5t-50 -89.5q0 -49 36.5 -75.5t97.5 -26.5z" />
    <glyph glyph-name="nine.numr" horiz-adv-x="864" 
d="M580 1354q127 0 207.5 -82.5t80.5 -224.5q0 -261 -138.5 -426.5t-352.5 -165.5q-75 0 -125 13.5t-96 47.5q-6 77 32 146q48 -30 92 -44t107 -14q92 0 161.5 54t106.5 151q-77 -39 -192 -39q-125 0 -196.5 65.5t-71.5 174.5q0 141 112.5 242.5t272.5 101.5zM535 909
q87 0 153 45q4 46 4 74q0 85 -40 131.5t-113 46.5q-70 0 -119 -46t-49 -111q0 -62 40.5 -101t123.5 -39z" />
    </font>
</defs>
</svg>
